<?xml version="1.0" encoding="utf-8"?>
<!-- Generator: Adobe Illustrator 19.0.0, SVG Export Plug-In . SVG Version: 6.00 Build 0)  -->
<svg version="1.1" id="Слой_1" xmlns="http://www.w3.org/2000/svg" xmlns:xlink="http://www.w3.org/1999/xlink" x="0px" y="0px"
	 viewBox="0 0 16 16" enable-background="new 0 0 16 16" xml:space="preserve">
<g id="XMLID_5704_">
	<g id="XMLID_32_">
		<path id="XMLID_33_" fill="#ECB72E" d="M11.3,16c-1.9,0-5-2.3-7-4.3c-0.6-0.6-6-6.1-3.8-8.3l2.8-3C3.4,0.1,3.7,0,4,0
			c0.3,0,0.5,0.1,0.7,0.3l3,3.1C8,3.7,8.1,4.1,7.9,4.5L7,6.4c0.1,0.3,0.4,0.8,1.1,1.5c0.7,0.7,1.2,1,1.5,1.1l1.9-0.9
			c0.4-0.2,0.8-0.1,1.1,0.2l3.1,3c0.2,0.2,0.3,0.5,0.3,0.7c0,0.3-0.1,0.5-0.3,0.7l-3.1,2.8C12.4,15.7,12,16,11.3,16z M2,4.7
			c0,0.6,1.1,2.9,3.8,5.6c2.6,2.6,4.8,3.7,5.6,3.7c0,0,0,0,0,0l2.2-2l-1.8-1.8l-1.2,0.6c-0.2,0.1-0.5,0.2-0.8,0.2
			c-1.2,0-2.6-1.3-3-1.7C6.3,8.9,5,7.5,5,6.3c0-0.4,0.1-0.6,0.2-0.8l0.6-1.2L4,2.5L2,4.7z"/>
	</g>
</g>
</svg>
