<svg id="Слой_1" data-name="Слой 1" xmlns="http://www.w3.org/2000/svg" viewBox="0 0 160 160"><defs><style>.cls-1{fill:#f6f7f7;}.cls-2{fill:none;}.cls-3{font-size:48px;fill:#282c34;font-family:Bebas Neue;}.cls-4{fill:#f2ae31;}</style></defs><title>1</title><circle id="_Контур_" data-name="&lt;Контур&gt;" class="cls-1" cx="80" cy="80" r="54"/><circle id="_Контур_2" data-name="&lt;Контур&gt;" class="cls-2" cx="80" cy="80" r="80"/><text class="cls-3" transform="translate(73.49 95.93) scale(0.93 1)">1</text><g id="_Группа_" data-name="&lt;Группа&gt;"><path id="_Контур_3" data-name="&lt;Контур&gt;" class="cls-4" d="M151,85.55" transform="translate(0)"/><path id="_Контур_4" data-name="&lt;Контур&gt;" class="cls-4" d="M96,114" transform="translate(0)"/><path id="_Контур_5" data-name="&lt;Контур&gt;" class="cls-4" d="M74.46,39.55" transform="translate(0)"/><path id="_Контур_6" data-name="&lt;Контур&gt;" class="cls-4" d="M34.88,82.91" transform="translate(0)"/><g id="_Группа_2" data-name="&lt;Группа&gt;"><g id="_Группа_3" data-name="&lt;Группа&gt;"><path class="cls-4" d="M55.06,20.61a7.25,7.25,0,0,0,2.42,2.71A6.55,6.55,0,0,0,55,25.74a6.55,6.55,0,0,0-2.43-2.44,7.1,7.1,0,0,0,2.54-2.7m0-3.33a6.17,6.17,0,0,1-6.07,6H48.9c5.86,0.48,6,5.52,6,6,0-.53.26-5.57,6.13-5.94-3.63,0-5.56-3-6-6.09h0Zm-0.11,12s0,0,0,0,0,0,0,0h0Z" transform="translate(0)"/></g></g><g id="_Группа_4" data-name="&lt;Группа&gt;"><path id="_Контур_7" data-name="&lt;Контур&gt;" class="cls-4" d="M112.49,28a2.47,2.47,0,0,0,2.33,2.36,2.34,2.34,0,0,0-2.37,2.31h0a2.34,2.34,0,0,0-2.33-2.36A2.39,2.39,0,0,0,112.49,28h0Z" transform="translate(0)"/></g><g id="_Группа_5" data-name="&lt;Группа&gt;"><path id="_Контур_8" data-name="&lt;Контур&gt;" class="cls-4" d="M22.29,89.88a2.47,2.47,0,0,0,2.33,2.36,2.34,2.34,0,0,0-2.37,2.31h0a2.34,2.34,0,0,0-2.33-2.36,2.39,2.39,0,0,0,2.37-2.31h0Z" transform="translate(0)"/></g><g id="_Группа_6" data-name="&lt;Группа&gt;"><g id="_Группа_7" data-name="&lt;Группа&gt;"><path class="cls-4" d="M106.06,130.48a7.25,7.25,0,0,0,2.42,2.71,6.55,6.55,0,0,0-2.53,2.43,6.55,6.55,0,0,0-2.43-2.44,7.1,7.1,0,0,0,2.54-2.7m0-3.33a6.17,6.17,0,0,1-6.07,6H99.9c5.86,0.48,6,5.52,6,6,0-.53.26-5.57,6.13-5.94-3.63,0-5.56-3-6-6.09h0Zm-0.11,12s0,0,0,0,0,0,0,0h0Z" transform="translate(0)"/></g></g><g id="_Группа_8" data-name="&lt;Группа&gt;"><g id="_Группа_9" data-name="&lt;Группа&gt;"><path class="cls-4" d="M22.16,50.35a7.25,7.25,0,0,0,2.42,2.71,6.55,6.55,0,0,0-2.53,2.43A6.55,6.55,0,0,0,19.63,53a7.1,7.1,0,0,0,2.54-2.7m0-3.33a6.17,6.17,0,0,1-6.07,6H16c5.86,0.48,6,5.52,6,6,0-.53.26-5.57,6.13-5.94-3.63,0-5.56-3-6-6.09h0ZM22,59.05s0,0,0,0,0,0,0,0h0Z" transform="translate(0)"/></g></g><g id="_Группа_10" data-name="&lt;Группа&gt;"><g id="_Группа_11" data-name="&lt;Группа&gt;"><path class="cls-4" d="M133.18,63.56a7.25,7.25,0,0,0,2.42,2.71,6.55,6.55,0,0,0-2.53,2.43,6.55,6.55,0,0,0-2.43-2.44,7.1,7.1,0,0,0,2.54-2.7m0-3.33a6.17,6.17,0,0,1-6.07,6H127c5.86,0.48,6,5.52,6,6,0-.53.26-5.57,6.13-5.94-3.63,0-5.56-3-6-6.09h0Zm-0.11,12s0,0,0,0,0,0,0,0h0Z" transform="translate(0)"/></g></g><g id="_Группа_12" data-name="&lt;Группа&gt;"><path id="_Контур_9" data-name="&lt;Контур&gt;" class="cls-4" d="M138.91,103.31c0.26,1.7,1.32,3.34,3.32,3.36a3.33,3.33,0,0,0-3.38,3.3h0a3.33,3.33,0,0,0-3.32-3.36,3.4,3.4,0,0,0,3.38-3.3h0Z" transform="translate(0)"/></g><g id="_Группа_13" data-name="&lt;Группа&gt;"><path id="_Контур_10" data-name="&lt;Контур&gt;" class="cls-4" d="M25.16,114.26c0.3,2,1.55,3.93,3.9,3.95a3.91,3.91,0,0,0-4,3.88h0a3.91,3.91,0,0,0-3.9-3.95,4,4,0,0,0,4-3.88h0Z" transform="translate(0)"/></g><g id="_Группа_14" data-name="&lt;Группа&gt;"><path id="_Контур_11" data-name="&lt;Контур&gt;" class="cls-4" d="M50.86,61.08c0.3,2,1.55,3.93,3.9,3.95a3.91,3.91,0,0,0-4,3.88h0A3.91,3.91,0,0,0,46.89,65a4,4,0,0,0,4-3.88h0Z" transform="translate(0)"/></g><g id="_Группа_15" data-name="&lt;Группа&gt;"><path id="_Контур_12" data-name="&lt;Контур&gt;" class="cls-4" d="M109.13,80.93c0.3,2,1.55,3.93,3.9,3.95a3.91,3.91,0,0,0-4,3.88h0a3.91,3.91,0,0,0-3.9-3.95,4,4,0,0,0,4-3.88h0Z" transform="translate(0)"/></g></g></svg>