<svg id="Слой_1" data-name="Слой 1" xmlns="http://www.w3.org/2000/svg" width="160" height="160" viewBox="0 0 160 160"><defs><style>.cls-1{fill:#f6f7f7;}.cls-2,.cls-5{fill:none;}.cls-3{font-size:48px;fill:#282c34;font-family:Bebas Neue;}.cls-4{fill:#f2ae31;}.cls-5{stroke:#f2ae31;stroke-linecap:round;stroke-linejoin:round;stroke-width:1px;}</style></defs><title>2</title><circle id="_Контур_" data-name="&lt;Контур&gt;" class="cls-1" cx="80" cy="80" r="54"/><circle id="_Контур_2" data-name="&lt;Контур&gt;" class="cls-2" cx="80" cy="80" r="80"/><text class="cls-3" transform="translate(72.4 95.93) scale(0.93 1)">2</text><g id="_Группа_" data-name="&lt;Группа&gt;"><path id="_Контур_3" data-name="&lt;Контур&gt;" class="cls-4" d="M148,72.77" transform="translate(0)"/><path id="_Контур_4" data-name="&lt;Контур&gt;" class="cls-4" d="M93,44.23" transform="translate(0)"/><path id="_Контур_5" data-name="&lt;Контур&gt;" class="cls-4" d="M71.46,118.86" transform="translate(0)"/><path id="_Контур_6" data-name="&lt;Контур&gt;" class="cls-4" d="M31.88,75.42" transform="translate(0)"/><g id="_Группа_2" data-name="&lt;Группа&gt;"><path id="_Контур_7" data-name="&lt;Контур&gt;" class="cls-5" d="M52,141.17c0.47-3.09,2.39-6.07,6-6.1a6.05,6.05,0,0,1-6.13-6h0a6.05,6.05,0,0,1-6,6.1c3.63,0,5.88,2.88,6.13,6h0Z" transform="translate(0)"/></g><g id="_Группа_3" data-name="&lt;Группа&gt;"><path id="_Контур_8" data-name="&lt;Контур&gt;" class="cls-4" d="M109.49,130.42a2.47,2.47,0,0,1,2.33-2.36,2.34,2.34,0,0,1-2.37-2.32h0a2.34,2.34,0,0,1-2.33,2.36,2.39,2.39,0,0,1,2.37,2.32h0Z" transform="translate(0)"/></g><g id="_Группа_4" data-name="&lt;Группа&gt;"><path id="_Контур_9" data-name="&lt;Контур&gt;" class="cls-4" d="M19.29,68.44a2.47,2.47,0,0,1,2.33-2.36,2.34,2.34,0,0,1-2.37-2.32h0a2.34,2.34,0,0,1-2.33,2.36,2.39,2.39,0,0,1,2.37,2.32h0Z" transform="translate(0)"/></g><g id="_Группа_5" data-name="&lt;Группа&gt;"><path id="_Контур_10" data-name="&lt;Контур&gt;" class="cls-5" d="M103,31.1c0.47-3.09,2.39-6.07,6-6.1a6.05,6.05,0,0,1-6.13-6h0a6.05,6.05,0,0,1-6,6.1c3.63,0,5.88,2.88,6.13,6h0Z" transform="translate(0)"/></g><g id="_Группа_6" data-name="&lt;Группа&gt;"><path id="_Контур_11" data-name="&lt;Контур&gt;" class="cls-5" d="M19.13,111.38c0.47-3.09,2.39-6.07,6-6.1a6.05,6.05,0,0,1-6.13-6h0a6.05,6.05,0,0,1-6,6.1c3.63,0,5.88,2.88,6.13,6h0Z" transform="translate(0)"/></g><g id="_Группа_7" data-name="&lt;Группа&gt;"><path id="_Контур_12" data-name="&lt;Контур&gt;" class="cls-5" d="M130.16,98.14c0.47-3.09,2.39-6.07,6-6.1A6.05,6.05,0,0,1,130,86h0a6.05,6.05,0,0,1-6,6.1c3.63,0,5.88,2.88,6.13,6h0Z" transform="translate(0)"/></g><g id="_Группа_8" data-name="&lt;Группа&gt;"><path id="_Контур_13" data-name="&lt;Контур&gt;" class="cls-4" d="M135.91,55c0.26-1.71,1.32-3.35,3.32-3.36a3.33,3.33,0,0,1-3.38-3.3h0a3.33,3.33,0,0,1-3.32,3.36,3.4,3.4,0,0,1,3.38,3.3h0Z" transform="translate(0)"/></g><g id="_Группа_9" data-name="&lt;Группа&gt;"><path id="_Контур_14" data-name="&lt;Контур&gt;" class="cls-5" d="M22.16,44c0.3-2,1.55-3.93,3.9-4a3.92,3.92,0,0,1-4-3.88h0a3.92,3.92,0,0,1-3.9,4,4,4,0,0,1,4,3.88h0Z" transform="translate(0)"/></g><g id="_Группа_10" data-name="&lt;Группа&gt;"><path id="_Контур_15" data-name="&lt;Контур&gt;" class="cls-4" d="M47.86,97.3c0.3-2,1.55-3.93,3.9-4a3.92,3.92,0,0,1-4-3.88h0a3.92,3.92,0,0,1-3.9,4,4,4,0,0,1,4,3.88h0Z" transform="translate(0)"/></g><g id="_Группа_11" data-name="&lt;Группа&gt;"><path id="_Контур_16" data-name="&lt;Контур&gt;" class="cls-5" d="M106.13,77.41c0.3-2,1.55-3.93,3.9-4a3.92,3.92,0,0,1-4-3.88h0a3.92,3.92,0,0,1-3.9,4,4,4,0,0,1,4,3.88h0Z" transform="translate(0)"/></g></g></svg>