<?xml version="1.0" encoding="utf-8"?>
<!-- Generator: Adobe Illustrator 19.2.0, SVG Export Plug-In . SVG Version: 6.00 Build 0)  -->
<svg version="1.1" id="Слой_1" xmlns="http://www.w3.org/2000/svg" xmlns:xlink="http://www.w3.org/1999/xlink" x="0px" y="0px"
	 viewBox="0 0 160 160" style="enable-background:new 0 0 160 160;" xml:space="preserve">
<style type="text/css">
	.st0{fill:#F6F7F7;}
	.st1{fill:none;}
	.st2{fill:#282C34;}
	.st3{font-family:'BebasNeueRegular';}
	.st4{font-size:48px;}
	.st5{fill:#F2AE31;}
</style>
<circle id="XMLID_75_" class="st0" cx="80" cy="80" r="54"/>
<circle id="XMLID_1_" class="st1" cx="80" cy="80" r="80"/>
<text transform="matrix(0.926 0 0 1 72.4005 95.9326)" class="st2 st3 st4">3</text>
<g id="XMLID_5_">
	<path id="XMLID_71_" class="st5" d="M151,85.6"/>
	<path id="XMLID_63_" class="st5" d="M96,114"/>
	<path id="XMLID_61_" class="st5" d="M74.5,39.6"/>
	<path id="XMLID_60_" class="st5" d="M34.9,82.9"/>
	<g id="XMLID_53_">
		<g id="XMLID_58_">
			<path class="st5" d="M55.1,20.6c0.6,1.1,1.4,2.1,2.4,2.7c-1.2,0.6-2,1.5-2.5,2.4c-0.5-0.9-1.3-1.8-2.4-2.4
				C53.6,22.6,54.5,21.7,55.1,20.6 M55,17.3c-0.2,3.1-2.5,6-6.1,6c0,0,0,0-0.1,0c5.9,0.5,6,5.5,6,6c0-0.5,0.3-5.6,6.1-5.9
				C57.4,23.3,55.5,20.4,55,17.3L55,17.3z M54.9,29.3C54.9,29.3,54.9,29.4,54.9,29.3C54.9,29.4,54.9,29.3,54.9,29.3L54.9,29.3z"/>
		</g>
	</g>
	<g id="XMLID_51_">
		<path id="XMLID_52_" class="st5" d="M112.5,28c0.2,1.2,0.9,2.3,2.3,2.4c-2.4,0.2-2.4,2.3-2.4,2.3l0,0c0,0,0.1-2.2-2.3-2.4
			C111.5,30.3,112.4,29.2,112.5,28L112.5,28z"/>
	</g>
	<g id="XMLID_49_">
		<path id="XMLID_50_" class="st5" d="M22.3,89.9c0.2,1.2,0.9,2.3,2.3,2.4c-2.4,0.2-2.4,2.3-2.4,2.3l0,0c0,0,0.1-2.2-2.3-2.4
			C21.3,92.2,22.2,91.1,22.3,89.9L22.3,89.9z"/>
	</g>
	<g id="XMLID_47_">
		<g id="XMLID_48_">
			<path class="st5" d="M106.1,130.5c0.6,1.1,1.4,2.1,2.4,2.7c-1.2,0.6-2,1.5-2.5,2.4c-0.5-0.9-1.3-1.8-2.4-2.4
				C104.6,132.5,105.5,131.6,106.1,130.5 M106,127.2c-0.2,3.1-2.5,6-6.1,6c0,0,0,0-0.1,0c5.9,0.5,6,5.5,6,6c0-0.5,0.3-5.6,6.1-5.9
				C108.4,133.2,106.5,130.2,106,127.2L106,127.2z M105.9,139.2C105.9,139.2,105.9,139.2,105.9,139.2
				C105.9,139.2,105.9,139.2,105.9,139.2L105.9,139.2z"/>
		</g>
	</g>
	<g id="XMLID_45_">
		<g id="XMLID_46_">
			<path class="st5" d="M22.2,50.3c0.6,1.1,1.4,2.1,2.4,2.7c-1.2,0.6-2,1.5-2.5,2.4c-0.5-0.9-1.3-1.8-2.4-2.4
				C20.7,52.4,21.6,51.4,22.2,50.3 M22.1,47c-0.2,3.1-2.5,6-6.1,6c0,0,0,0-0.1,0c5.9,0.5,6,5.5,6,6c0-0.5,0.3-5.6,6.1-5.9
				C24.5,53.1,22.6,50.1,22.1,47L22.1,47z M22,59.1C22,59.1,22,59.1,22,59.1C22,59.1,22,59.1,22,59.1L22,59.1z"/>
		</g>
	</g>
	<g id="XMLID_41_">
		<g id="XMLID_44_">
			<path class="st5" d="M133.2,63.6c0.6,1.1,1.4,2.1,2.4,2.7c-1.2,0.6-2,1.5-2.5,2.4c-0.5-0.9-1.3-1.8-2.4-2.4
				C131.7,65.6,132.6,64.6,133.2,63.6 M133.2,60.2c-0.2,3.1-2.5,6-6.1,6c0,0,0,0-0.1,0c5.9,0.5,6,5.5,6,6c0-0.5,0.3-5.6,6.1-5.9
				C135.5,66.3,133.6,63.3,133.2,60.2L133.2,60.2z M133,72.3C133,72.3,133,72.3,133,72.3C133,72.3,133,72.3,133,72.3L133,72.3z"/>
		</g>
	</g>
	<g id="XMLID_37_">
		<path id="XMLID_38_" class="st5" d="M138.9,103.3c0.3,1.7,1.3,3.3,3.3,3.4c-3.4,0.2-3.4,3.3-3.4,3.3l0,0c0,0,0.1-3.1-3.3-3.4
			C137.5,106.6,138.8,105,138.9,103.3L138.9,103.3z"/>
	</g>
	<g id="XMLID_33_">
		<path id="XMLID_36_" class="st5" d="M25.2,114.3c0.3,2,1.5,3.9,3.9,3.9c-4,0.3-4,3.9-4,3.9l0,0c0,0,0.1-3.6-3.9-3.9
			C23.5,118.2,25,116.3,25.2,114.3L25.2,114.3z"/>
	</g>
	<g id="XMLID_31_">
		<path id="XMLID_32_" class="st5" d="M50.9,61.1c0.3,2,1.5,3.9,3.9,3.9c-4,0.3-4,3.9-4,3.9l0,0c0,0,0.1-3.6-3.9-3.9
			C49.2,65,50.7,63.1,50.9,61.1L50.9,61.1z"/>
	</g>
	<g id="XMLID_28_">
		<path id="XMLID_30_" class="st5" d="M109.1,80.9c0.3,2,1.5,3.9,3.9,3.9c-4,0.3-4,3.9-4,3.9l0,0c0,0,0.1-3.6-3.9-3.9
			C107.5,84.8,109,82.9,109.1,80.9L109.1,80.9z"/>
	</g>
</g>
</svg>
