<?xml version="1.0" encoding="utf-8"?>
<!-- Generator: Adobe Illustrator 19.0.0, SVG Export Plug-In . SVG Version: 6.00 Build 0)  -->
<svg version="1.1" id="Слой_1" xmlns="http://www.w3.org/2000/svg" xmlns:xlink="http://www.w3.org/1999/xlink" x="0px" y="0px"
	 viewBox="0 0 296 475" enable-background="new 0 0 296 475" xml:space="preserve">
<g id="XMLID_2933_">
	<g id="XMLID_2934_">
		<rect id="XMLID_3825_" fill="#282C34" width="296" height="475"/>
		<g id="XMLID_3819_">
			<line id="XMLID_3821_" fill="none" stroke="#F2AE32" stroke-miterlimit="10" x1="192" y1="403.5" x2="200" y2="403.5"/>
			<polygon id="XMLID_3820_" fill="#F2AE32" points="200,400 203,403 200,406 			"/>
		</g>
		<g id="XMLID_3812_" opacity="0.1">
			<path id="XMLID_21_" fill="#FFFFFF" d="M279,17v438H17V17H279 M280,16H16v440h264V16L280,16z"/>
		</g>
		<g id="XMLID_3806_" opacity="0.1">
			<path id="XMLID_18_" fill="#FFFFFF" d="M148,65c34.7,0,63,28.3,63,63s-28.3,63-63,63s-63-28.3-63-63S113.3,65,148,65 M148,64
				c-35.3,0-64,28.7-64,64s28.7,64,64,64s64-28.7,64-64S183.3,64,148,64L148,64z"/>
		</g>
		<defs>
			<filter id="Adobe_OpacityMaskFilter" filterUnits="userSpaceOnUse" x="48.6" y="33.1" width="199.1" height="181.3">
				<feFlood  style="flood-color:white;flood-opacity:1" result="back"/>
				<feBlend  in="SourceGraphic" in2="back" mode="normal"/>
			</filter>
		</defs>
		<mask maskUnits="userSpaceOnUse" x="48.6" y="33.1" width="199.1" height="181.3" id="XMLID_27_">
			<g id="XMLID_126_" filter="url(#Adobe_OpacityMaskFilter)">
				<circle id="XMLID_127_" cx="148" cy="128" r="47"/>
			</g>
		</mask>
		<g id="XMLID_3741_" mask="url(#XMLID_27_)">
			
				<line id="XMLID_3804_" opacity="0.5" fill="none" stroke="#F2AE31" stroke-width="2" stroke-linecap="round" stroke-linejoin="round" stroke-miterlimit="10" x1="97.2" y1="73" x2="131.4" y2="107.2"/>
			
				<line id="XMLID_3803_" fill="none" stroke="#F2AE31" stroke-width="2" stroke-linecap="round" stroke-linejoin="round" stroke-miterlimit="10" x1="117.4" y1="99" x2="77.1" y2="62.6"/>
			
				<line id="XMLID_3802_" fill="none" stroke="#F2AE31" stroke-width="2" stroke-linecap="round" stroke-linejoin="round" stroke-miterlimit="10" x1="127.4" y1="112.9" x2="92.4" y2="91.9"/>
			
				<line id="XMLID_3801_" fill="none" stroke="#F2AE31" stroke-width="2" stroke-linecap="round" stroke-linejoin="round" stroke-miterlimit="10" x1="111.7" y1="111.3" x2="62.3" y2="88.3"/>
			
				<line id="XMLID_3800_" opacity="0.25" fill="none" stroke="#F2AE31" stroke-width="2" stroke-linecap="round" stroke-linejoin="round" stroke-miterlimit="10" x1="127.6" y1="120.1" x2="89.3" y2="110.6"/>
			
				<line id="XMLID_3799_" fill="none" stroke="#F2AE31" stroke-width="2" stroke-linecap="round" stroke-linejoin="round" stroke-miterlimit="10" x1="120" y1="124.2" x2="49.6" y2="115.2"/>
			
				<line id="XMLID_3798_" opacity="0.75" fill="none" stroke="#F2AE31" stroke-width="2" stroke-linecap="round" stroke-linejoin="round" stroke-miterlimit="10" x1="125.7" y1="128.4" x2="68.9" y2="132.4"/>
			
				<line id="XMLID_3797_" opacity="0.5" fill="none" stroke="#F2AE31" stroke-width="2" stroke-linecap="round" stroke-linejoin="round" stroke-miterlimit="10" x1="114.2" y1="133.4" x2="76.8" y2="142.4"/>
			
				<line id="XMLID_3796_" opacity="0.75" fill="none" stroke="#F2AE31" stroke-width="2" stroke-linecap="round" stroke-linejoin="round" stroke-miterlimit="10" x1="119.6" y1="138.9" x2="72.9" y2="162.4"/>
			
				<line id="XMLID_3795_" fill="none" stroke="#F2AE31" stroke-width="2" stroke-linecap="round" stroke-linejoin="round" stroke-miterlimit="10" x1="119.3" y1="143.3" x2="61.7" y2="181.2"/>
			
				<line id="XMLID_3794_" opacity="0.5" fill="none" stroke="#F2AE31" stroke-width="2" stroke-linecap="round" stroke-linejoin="round" stroke-miterlimit="10" x1="119.8" y1="151" x2="92.1" y2="177.8"/>
			
				<line id="XMLID_3793_" opacity="0.25" fill="none" stroke="#F2AE31" stroke-width="2" stroke-linecap="round" stroke-linejoin="round" stroke-miterlimit="10" x1="128.1" y1="149.5" x2="109.2" y2="174.9"/>
			
				<line id="XMLID_3792_" opacity="0.75" fill="none" stroke="#F2AE31" stroke-width="2" stroke-linecap="round" stroke-linejoin="round" stroke-miterlimit="10" x1="134.1" y1="148.2" x2="103" y2="205"/>
			
				<line id="XMLID_3791_" opacity="0.5" fill="none" stroke="#F2AE31" stroke-width="2" stroke-linecap="round" stroke-linejoin="round" stroke-miterlimit="10" x1="135.1" y1="158.2" x2="118" y2="197.7"/>
			
				<line id="XMLID_3790_" opacity="0.75" fill="none" stroke="#F2AE31" stroke-width="2" stroke-linecap="round" stroke-linejoin="round" stroke-miterlimit="10" x1="141.6" y1="148.5" x2="126.1" y2="210.6"/>
			
				<line id="XMLID_3789_" opacity="0.25" fill="none" stroke="#F2AE31" stroke-width="2" stroke-linecap="round" stroke-linejoin="round" stroke-miterlimit="10" x1="146.1" y1="160.5" x2="145.3" y2="186.6"/>
			
				<line id="XMLID_3788_" opacity="0.75" fill="none" stroke="#F2AE31" stroke-width="2" stroke-linecap="round" stroke-linejoin="round" stroke-miterlimit="10" x1="148.4" y1="143.6" x2="157.3" y2="213.4"/>
			
				<line id="XMLID_3787_" opacity="0.5" fill="none" stroke="#F2AE31" stroke-width="2" stroke-linecap="round" stroke-linejoin="round" stroke-miterlimit="10" x1="156.9" y1="152.1" x2="172.8" y2="200.6"/>
			
				<line id="XMLID_3786_" fill="none" stroke="#F2AE31" stroke-width="2" stroke-linecap="round" stroke-linejoin="round" stroke-miterlimit="10" x1="159.2" y1="145.3" x2="185.4" y2="185.2"/>
			
				<line id="XMLID_3785_" fill="none" stroke="#F2AE31" stroke-width="2" stroke-linecap="round" stroke-linejoin="round" stroke-miterlimit="10" x1="173.6" y1="155.6" x2="217.4" y2="199.5"/>
			
				<path id="XMLID_3784_" opacity="0.5" fill="none" stroke="#F2AE31" stroke-width="2" stroke-linecap="round" stroke-linejoin="round" stroke-miterlimit="10" d="
				M167.3,140.7c0,0,38.4,33.9,38.7,34.2"/>
			
				<line id="XMLID_3783_" opacity="0.75" fill="none" stroke="#F2AE31" stroke-width="2" stroke-linecap="round" stroke-linejoin="round" stroke-miterlimit="10" x1="162.2" y1="133.3" x2="222.1" y2="171.3"/>
			
				<line id="XMLID_3782_" opacity="0.25" fill="none" stroke="#F2AE31" stroke-width="2" stroke-linecap="round" stroke-linejoin="round" stroke-miterlimit="10" x1="181.5" y1="137.7" x2="200.3" y2="144.2"/>
			
				<line id="XMLID_3781_" fill="none" stroke="#F2AE31" stroke-width="2" stroke-linecap="round" stroke-linejoin="round" stroke-miterlimit="10" x1="171.5" y1="129.6" x2="237.8" y2="140.4"/>
			
				<line id="XMLID_3780_" opacity="0.5" fill="none" stroke="#F2AE31" stroke-width="2" stroke-linecap="round" stroke-linejoin="round" stroke-miterlimit="10" x1="181.5" y1="126.5" x2="217.1" y2="130.3"/>
			
				<line id="XMLID_3765_" fill="none" stroke="#F2AE31" stroke-width="2" stroke-linecap="round" stroke-linejoin="round" stroke-miterlimit="10" x1="170.5" y1="122.9" x2="246.7" y2="119.4"/>
			
				<line id="XMLID_3758_" opacity="0.25" fill="none" stroke="#F2AE31" stroke-width="2" stroke-linecap="round" stroke-linejoin="round" stroke-miterlimit="10" x1="166.8" y1="119.2" x2="203.9" y2="107.9"/>
			
				<line id="XMLID_3757_" fill="none" stroke="#F2AE31" stroke-width="2" stroke-linecap="round" stroke-linejoin="round" stroke-miterlimit="10" x1="187.4" y1="101.9" x2="234.3" y2="70.1"/>
			
				<line id="XMLID_3756_" opacity="0.25" fill="none" stroke="#F2AE31" stroke-width="2" stroke-linecap="round" stroke-linejoin="round" stroke-miterlimit="10" x1="175.8" y1="101.8" x2="193.6" y2="84"/>
			
				<line id="XMLID_3755_" opacity="0.75" fill="none" stroke="#F2AE31" stroke-width="2" stroke-linecap="round" stroke-linejoin="round" stroke-miterlimit="10" x1="171.5" y1="100.6" x2="211.4" y2="53.8"/>
			
				<line id="XMLID_3754_" opacity="0.5" fill="none" stroke="#F2AE31" stroke-width="2" stroke-linecap="round" stroke-linejoin="round" stroke-miterlimit="10" x1="166.6" y1="99.9" x2="190" y2="67.5"/>
			
				<line id="XMLID_3751_" opacity="0.75" fill="none" stroke="#F2AE31" stroke-width="2" stroke-linecap="round" stroke-linejoin="round" stroke-miterlimit="10" x1="128.6" y1="97.5" x2="97.1" y2="61.6"/>
			
				<line id="XMLID_3750_" fill="none" stroke="#F2AE31" stroke-width="2" stroke-linecap="round" stroke-linejoin="round" stroke-miterlimit="10" x1="139.8" y1="104.3" x2="111.3" y2="53.4"/>
			
				<line id="XMLID_3749_" opacity="0.5" fill="none" stroke="#F2AE31" stroke-width="2" stroke-linecap="round" stroke-linejoin="round" stroke-miterlimit="10" x1="138" y1="91.3" x2="125.2" y2="61.7"/>
			
				<line id="XMLID_3748_" opacity="0.75" fill="none" stroke="#F2AE31" stroke-width="2" stroke-linecap="round" stroke-linejoin="round" stroke-miterlimit="10" x1="145.5" y1="103.5" x2="130.6" y2="39.6"/>
			
				<line id="XMLID_3747_" opacity="0.25" fill="none" stroke="#F2AE31" stroke-width="2" stroke-linecap="round" stroke-linejoin="round" stroke-miterlimit="10" x1="149.6" y1="94.6" x2="149.5" y2="69.7"/>
			
				<line id="XMLID_3746_" fill="none" stroke="#F2AE31" stroke-width="2" stroke-linecap="round" stroke-linejoin="round" stroke-miterlimit="10" x1="153.9" y1="98.9" x2="161.4" y2="34.1"/>
			
				<line id="XMLID_3745_" opacity="0.5" fill="none" stroke="#F2AE31" stroke-width="2" stroke-linecap="round" stroke-linejoin="round" stroke-miterlimit="10" x1="161.3" y1="92.8" x2="175.2" y2="55.3"/>
			
				<line id="XMLID_3744_" fill="none" stroke="#F2AE31" stroke-width="2" stroke-linecap="round" stroke-linejoin="round" stroke-miterlimit="10" x1="166.4" y1="93.2" x2="197.5" y2="39.8"/>
		</g>
		<g id="XMLID_3736_">
			<path id="XMLID_15_" fill="#F2AE31" d="M148,82c25.4,0,46,20.6,46,46s-20.6,46-46,46s-46-20.6-46-46S122.6,82,148,82 M148,80
				c-26.5,0-48,21.5-48,48s21.5,48,48,48s48-21.5,48-48S174.5,80,148,80L148,80z"/>
		</g>
		<g id="XMLID_3733_">
			<defs>
				<circle id="XMLID_3735_" cx="148" cy="128" r="40"/>
			</defs>
			<clipPath id="XMLID_28_">
				<use xlink:href="#XMLID_3735_"  overflow="visible"/>
			</clipPath>
			<g id="kgGKot_19_" clip-path="url(#XMLID_28_)">
				
					<image overflow="visible" width="128" height="128" id="kgGKot_20_" xlink:href="DB1DA0D7FD03BE8A.jpg"  transform="matrix(0.625 0 0 0.625 108 88)">
				</image>
			</g>
		</g>
		
			<text id="XMLID_3732_" transform="matrix(1 0 0 1 60.7495 248.6576)" fill="#E76044" font-family="'BebasNeueRegular'" font-size="18px" letter-spacing="2">Габдулхаков Ирик</text>
		
			<text id="XMLID_3730_" transform="matrix(1 0 0 1 93.2378 272.6293)" fill="#FFFFFF" font-family="'Lora-Regular'" font-size="16px">«Проворный»</text>
		
		<g id="XMLID_3695_">
			<g id="XMLID_3720_">
				<g id="XMLID_3721_">
					<g id="XMLID_3723_">
						
							<polyline id="XMLID_3728_" fill="none" stroke="#F2AE32" stroke-linecap="round" stroke-linejoin="round" stroke-miterlimit="10" points="
							37,34.5 25.5,34.5 25.5,56 						"/>
						
							<polyline id="XMLID_3725_" fill="none" stroke="#F2AE32" stroke-linecap="round" stroke-linejoin="round" stroke-miterlimit="10" points="
							36.8,34.3 37.1,41.7 45.3,45.3 						"/>
						
							<ellipse id="XMLID_3724_" fill="none" stroke="#F2AE32" stroke-linecap="round" stroke-linejoin="round" stroke-miterlimit="10" cx="31.8" cy="31.8" rx="2.3" ry="2.3"/>
					</g>
					
						<path id="XMLID_3722_" fill="none" stroke="#F2AE32" stroke-linecap="round" stroke-linejoin="round" stroke-miterlimit="10" d="
						M25.9,56c0,0-4.2-1.9,0-5.6"/>
				</g>
			</g>
			<path id="XMLID_3719_" fill="none" stroke="#F2AE32" stroke-linecap="round" stroke-linejoin="round" stroke-miterlimit="10" d="
				M36.3,46.9c0,2.1-1.3,3.3-1.3,3.3c-0.5,0.6-1.2,1.1-2.2,1.3c-1.9,0.5-4.4,0.1-5.6-1.7c-1.6-2.4-1.2-7,1.6-8.4
				c2.1-1,6.1-1.8,8.2,0.3"/>
			<g id="XMLID_3703_">
				<g id="XMLID_3704_">
					<g id="XMLID_3715_">
						
							<polyline id="XMLID_3718_" fill="none" stroke="#F2AE32" stroke-linecap="round" stroke-linejoin="round" stroke-miterlimit="10" points="
							34.5,37 34.5,25.5 56,25.5 						"/>
						
							<polyline id="XMLID_3716_" fill="none" stroke="#F2AE32" stroke-linecap="round" stroke-linejoin="round" stroke-miterlimit="10" points="
							34,36.8 41.7,37.1 45.3,45.3 						"/>
					</g>
					
						<path id="XMLID_3713_" fill="none" stroke="#F2AE32" stroke-linecap="round" stroke-linejoin="round" stroke-miterlimit="10" d="
						M56,25.9c0,0-1.9-4.2-5.6,0"/>
				</g>
			</g>
			<path id="XMLID_3699_" fill="none" stroke="#F2AE32" stroke-linecap="round" stroke-linejoin="round" stroke-miterlimit="10" d="
				M41.7,37.1c-2.1-2.1-1.3-6.1-0.3-8.2c1.4-2.8,5.9-3.2,8.4-1.6c1.8,1.2,2.2,3.6,1.7,5.6c-0.2,0.9-0.7,1.6-1.3,2.2
				c0,0-1.2,1.3-3.3,1.3"/>
			
				<circle id="XMLID_3698_" fill="none" stroke="#F2AE32" stroke-linecap="round" stroke-linejoin="round" stroke-miterlimit="10" cx="46.9" cy="34.2" r="2"/>
			
				<circle id="XMLID_3696_" fill="none" stroke="#F2AE32" stroke-linecap="round" stroke-linejoin="round" stroke-miterlimit="10" cx="34.2" cy="46.9" r="2"/>
		</g>
		<g id="XMLID_3323_">
			<g id="XMLID_3573_">
				<g id="XMLID_3655_">
					<g id="XMLID_3659_">
						
							<polyline id="XMLID_3664_" fill="none" stroke="#F2AE32" stroke-linecap="round" stroke-linejoin="round" stroke-miterlimit="10" points="
							261.5,37 261.5,25.5 240,25.5 						"/>
						
							<polyline id="XMLID_3662_" fill="none" stroke="#F2AE32" stroke-linecap="round" stroke-linejoin="round" stroke-miterlimit="10" points="
							261.7,36.8 254.3,37.1 250.7,45.3 						"/>
						
							<ellipse id="XMLID_3661_" fill="none" stroke="#F2AE32" stroke-linecap="round" stroke-linejoin="round" stroke-miterlimit="10" cx="264.2" cy="31.8" rx="2.3" ry="2.3"/>
					</g>
					
						<path id="XMLID_3658_" fill="none" stroke="#F2AE32" stroke-linecap="round" stroke-linejoin="round" stroke-miterlimit="10" d="
						M240,25.9c0,0,1.9-4.2,5.6,0"/>
				</g>
			</g>
			<path id="XMLID_3572_" fill="none" stroke="#F2AE32" stroke-linecap="round" stroke-linejoin="round" stroke-miterlimit="10" d="
				M249.1,36.3c-2.1,0-3.3-1.3-3.3-1.3c-0.6-0.5-1.1-1.2-1.3-2.2c-0.5-1.9-0.1-4.4,1.7-5.6c2.4-1.6,7-1.2,8.4,1.6
				c1,2.1,1.8,6.1-0.3,8.2"/>
			<g id="XMLID_3329_">
				<g id="XMLID_3332_">
					<g id="XMLID_3335_">
						
							<polyline id="XMLID_3337_" fill="none" stroke="#F2AE32" stroke-linecap="round" stroke-linejoin="round" stroke-miterlimit="10" points="
							259,34.5 270.5,34.5 270.5,56 						"/>
						
							<polyline id="XMLID_3336_" fill="none" stroke="#F2AE32" stroke-linecap="round" stroke-linejoin="round" stroke-miterlimit="10" points="
							259.2,34 258.9,41.7 250.7,45.3 						"/>
					</g>
					
						<path id="XMLID_3334_" fill="none" stroke="#F2AE32" stroke-linecap="round" stroke-linejoin="round" stroke-miterlimit="10" d="
						M270.1,56c0,0,4.2-1.9,0-5.6"/>
				</g>
			</g>
			<path id="XMLID_3326_" fill="none" stroke="#F2AE32" stroke-linecap="round" stroke-linejoin="round" stroke-miterlimit="10" d="
				M258.9,41.7c2.1-2.1,6.1-1.3,8.2-0.3c2.8,1.4,3.2,5.9,1.6,8.4c-1.2,1.8-3.6,2.2-5.6,1.7c-0.9-0.2-1.6-0.7-2.2-1.3
				c0,0-1.3-1.2-1.3-3.3"/>
			
				<circle id="XMLID_3325_" fill="none" stroke="#F2AE32" stroke-linecap="round" stroke-linejoin="round" stroke-miterlimit="10" cx="261.8" cy="46.9" r="2"/>
			
				<circle id="XMLID_3324_" fill="none" stroke="#F2AE32" stroke-linecap="round" stroke-linejoin="round" stroke-miterlimit="10" cx="249.1" cy="34.2" r="2"/>
		</g>
		<g id="XMLID_3037_">
			<g id="XMLID_3048_">
				<g id="XMLID_3050_">
					<g id="XMLID_3319_">
						
							<polyline id="XMLID_3322_" fill="none" stroke="#F2AE32" stroke-linecap="round" stroke-linejoin="round" stroke-miterlimit="10" points="
							37,437.5 25.5,437.5 25.5,416 						"/>
						
							<polyline id="XMLID_3321_" fill="none" stroke="#F2AE32" stroke-linecap="round" stroke-linejoin="round" stroke-miterlimit="10" points="
							36.8,437.7 37.1,430.3 45.3,426.7 						"/>
						
							<ellipse id="XMLID_3320_" fill="none" stroke="#F2AE32" stroke-linecap="round" stroke-linejoin="round" stroke-miterlimit="10" cx="31.8" cy="440.2" rx="2.3" ry="2.3"/>
					</g>
					
						<path id="XMLID_3318_" fill="none" stroke="#F2AE32" stroke-linecap="round" stroke-linejoin="round" stroke-miterlimit="10" d="
						M25.9,416c0,0-4.2,1.9,0,5.6"/>
				</g>
			</g>
			<path id="XMLID_3047_" fill="none" stroke="#F2AE32" stroke-linecap="round" stroke-linejoin="round" stroke-miterlimit="10" d="
				M37.1,430.3c-2.1,2.1-6.1,1.3-8.2,0.3c-2.8-1.4-3.2-5.9-1.6-8.4c1.2-1.8,3.6-2.2,5.6-1.7c0.9,0.2,1.6,0.7,2.2,1.3
				c0,0,1.3,1.2,1.3,3.3"/>
			<g id="XMLID_3041_">
				<g id="XMLID_3042_">
					<g id="XMLID_3044_">
						
							<polyline id="XMLID_3046_" fill="none" stroke="#F2AE32" stroke-linecap="round" stroke-linejoin="round" stroke-miterlimit="10" points="
							34.5,435 34.5,446.5 56,446.5 						"/>
						
							<polyline id="XMLID_3045_" fill="none" stroke="#F2AE32" stroke-linecap="round" stroke-linejoin="round" stroke-miterlimit="10" points="
							34,435.2 41.7,434.9 45.3,426.7 						"/>
					</g>
					
						<path id="XMLID_3043_" fill="none" stroke="#F2AE32" stroke-linecap="round" stroke-linejoin="round" stroke-miterlimit="10" d="
						M56,446.1c0,0-1.9,4.2-5.6,0"/>
				</g>
			</g>
			<path id="XMLID_3040_" fill="none" stroke="#F2AE32" stroke-linecap="round" stroke-linejoin="round" stroke-miterlimit="10" d="
				M46.9,435.7c2.1,0,3.3,1.3,3.3,1.3c0.6,0.5,1.1,1.2,1.3,2.2c0.5,1.9,0.1,4.4-1.7,5.6c-2.4,1.6-7,1.2-8.4-1.6
				c-1-2.1-1.8-6.1,0.3-8.2"/>
			
				<circle id="XMLID_3039_" fill="none" stroke="#F2AE32" stroke-linecap="round" stroke-linejoin="round" stroke-miterlimit="10" cx="46.9" cy="437.8" r="2"/>
			
				<circle id="XMLID_3038_" fill="none" stroke="#F2AE32" stroke-linecap="round" stroke-linejoin="round" stroke-miterlimit="10" cx="34.2" cy="425.1" r="2"/>
		</g>
		<g id="XMLID_3009_">
			<g id="XMLID_3029_">
				<g id="XMLID_3030_">
					<g id="XMLID_3033_">
						
							<polyline id="XMLID_3036_" fill="none" stroke="#F2AE32" stroke-linecap="round" stroke-linejoin="round" stroke-miterlimit="10" points="
							261.5,435 261.5,446.5 240,446.5 						"/>
						
							<polyline id="XMLID_3035_" fill="none" stroke="#F2AE32" stroke-linecap="round" stroke-linejoin="round" stroke-miterlimit="10" points="
							261.7,435.2 254.3,434.9 250.7,426.7 						"/>
						
							<ellipse id="XMLID_3034_" fill="none" stroke="#F2AE32" stroke-linecap="round" stroke-linejoin="round" stroke-miterlimit="10" cx="264.2" cy="440.2" rx="2.3" ry="2.3"/>
					</g>
					
						<path id="XMLID_3032_" fill="none" stroke="#F2AE32" stroke-linecap="round" stroke-linejoin="round" stroke-miterlimit="10" d="
						M240,446.1c0,0,1.9,4.2,5.6,0"/>
				</g>
			</g>
			<path id="XMLID_3028_" fill="none" stroke="#F2AE32" stroke-linecap="round" stroke-linejoin="round" stroke-miterlimit="10" d="
				M254.3,434.9c2.1,2.1,1.3,6.1,0.3,8.2c-1.4,2.8-5.9,3.2-8.4,1.6c-1.8-1.2-2.2-3.6-1.7-5.6c0.2-0.9,0.7-1.6,1.3-2.2
				c0,0,1.2-1.3,3.3-1.3"/>
			<g id="XMLID_3015_">
				<g id="XMLID_3016_">
					<g id="XMLID_3018_">
						
							<polyline id="XMLID_3022_" fill="none" stroke="#F2AE32" stroke-linecap="round" stroke-linejoin="round" stroke-miterlimit="10" points="
							259,437.5 270.5,437.5 270.5,416 						"/>
						
							<polyline id="XMLID_3019_" fill="none" stroke="#F2AE32" stroke-linecap="round" stroke-linejoin="round" stroke-miterlimit="10" points="
							259.2,438 258.9,430.3 250.7,426.7 						"/>
					</g>
					
						<path id="XMLID_3017_" fill="none" stroke="#F2AE32" stroke-linecap="round" stroke-linejoin="round" stroke-miterlimit="10" d="
						M270.1,416c0,0,4.2,1.9,0,5.6"/>
				</g>
			</g>
			<path id="XMLID_3014_" fill="none" stroke="#F2AE32" stroke-linecap="round" stroke-linejoin="round" stroke-miterlimit="10" d="
				M259.7,425.1c0-2.1,1.3-3.3,1.3-3.3c0.5-0.6,1.2-1.1,2.2-1.3c1.9-0.5,4.4-0.1,5.6,1.7c1.6,2.4,1.2,7-1.6,8.4
				c-2.1,1-6.1,1.8-8.2-0.3"/>
			
				<circle id="XMLID_3013_" fill="none" stroke="#F2AE32" stroke-linecap="round" stroke-linejoin="round" stroke-miterlimit="10" cx="261.8" cy="425.1" r="2"/>
			
				<circle id="XMLID_3010_" fill="none" stroke="#F2AE32" stroke-linecap="round" stroke-linejoin="round" stroke-miterlimit="10" cx="249.1" cy="437.8" r="2"/>
		</g>
		<g id="XMLID_2949_" opacity="0.5">
			<rect id="XMLID_52_" x="30.7" y="296" fill="none" width="234" height="80"/>
			<text id="XMLID_51_" transform="matrix(1 0 0 1 48.9121 306.6396)"><tspan x="0" y="0" opacity="0.5" fill="#FFFFFF" font-family="'OpenSans'" font-size="14px">Эксперименты и необычные </tspan><tspan x="-14.9" y="20" opacity="0.5" fill="#FFFFFF" font-family="'OpenSans'" font-size="14px">кальяны. Всё началось с кальяна </tspan><tspan x="-7.3" y="40" opacity="0.5" fill="#FFFFFF" font-family="'OpenSans'" font-size="14px">на йогурте - самого простой из </tspan><tspan x="23" y="60" opacity="0.5" fill="#FFFFFF" font-family="'OpenSans'" font-size="14px">необычных кальянов.</tspan></text>
		</g>
		<circle id="XMLID_2948_" fill="#ECB72E" cx="176" cy="100" r="12"/>
		
			<text id="XMLID_2947_" transform="matrix(1 0 0 1 173.5562 105.0518)" fill="#FFFFFF" font-family="'BebasNeueRegular'" font-size="14px" letter-spacing="1">8</text>
	</g>
</g>
<g id="XMLID_2936_" opacity="0.25">
	<radialGradient id="XMLID_29_" cx="148.6911" cy="129.3942" r="160" gradientUnits="userSpaceOnUse">
		<stop  offset="0" style="stop-color:#F2AE32"/>
		<stop  offset="1" style="stop-color:#F2AE32;stop-opacity:0"/>
	</radialGradient>
	<circle id="XMLID_43_" fill="url(#XMLID_29_)" cx="148.7" cy="129.4" r="160"/>
</g>
</svg>
