<?xml version="1.0" encoding="utf-8"?>
<!-- Generator: Adobe Illustrator 19.0.0, SVG Export Plug-In . SVG Version: 6.00 Build 0)  -->
<svg version="1.1" id="Слой_1" xmlns="http://www.w3.org/2000/svg" xmlns:xlink="http://www.w3.org/1999/xlink" x="0px" y="0px"
	 viewBox="-363 275 296 475" style="enable-background:new -363 275 296 475;" xml:space="preserve">
<style type="text/css">
	.st0{fill:#282C34;}
	.st1{fill:none;stroke:#F2AE32;stroke-miterlimit:10;}
	.st2{fill:#F2AE32;}
	.st3{opacity:0.1;}
	.st4{fill:#FFFFFF;}
	.st5{filter:url(#Adobe_OpacityMaskFilter);}
	.st6{mask:url(#XMLID_27_);}
	
		.st7{opacity:0.5;fill:none;stroke:#F2AE31;stroke-width:2;stroke-linecap:round;stroke-linejoin:round;stroke-miterlimit:10;enable-background:new    ;}
	.st8{fill:none;stroke:#F2AE31;stroke-width:2;stroke-linecap:round;stroke-linejoin:round;stroke-miterlimit:10;}
	
		.st9{opacity:0.25;fill:none;stroke:#F2AE31;stroke-width:2;stroke-linecap:round;stroke-linejoin:round;stroke-miterlimit:10;enable-background:new    ;}
	
		.st10{opacity:0.75;fill:none;stroke:#F2AE31;stroke-width:2;stroke-linecap:round;stroke-linejoin:round;stroke-miterlimit:10;enable-background:new    ;}
	.st11{fill:#F2AE31;}
	.st12{clip-path:url(#SVGID_2_);}
	.st13{fill:#E76044;}
	.st14{font-family:'BebasNeueRegular';}
	.st15{font-size:18px;}
	.st16{letter-spacing:1;}
	.st17{font-family:'Lora-Regular';}
	.st18{font-size:16px;}
	.st19{fill:none;stroke:#F2AE32;stroke-linecap:round;stroke-linejoin:round;stroke-miterlimit:10;}
	.st20{opacity:0.5;}
	.st21{fill:none;}
	.st22{opacity:0.5;fill:#FFFFFF;enable-background:new    ;}
	.st23{font-family:'OpenSans';}
	.st24{font-size:14px;}
	.st25{fill:#ECB72E;}
	.st26{opacity:0.25;}
	.st27{fill:url(#XMLID_2_);}
</style>
<g id="XMLID_2933_">
	<g id="XMLID_2934_">
		<rect id="XMLID_3825_" x="-363" y="275" class="st0" width="296" height="475"/>
		<g id="XMLID_3819_">
			<line id="XMLID_3821_" class="st1" x1="-171" y1="678.5" x2="-163" y2="678.5"/>
			<polygon id="XMLID_3820_" class="st2" points="-163,675 -160,678 -163,681 			"/>
		</g>
		<g id="XMLID_3812_" class="st3">
			<path id="XMLID_21_" class="st4" d="M-84,292v438h-262V292H-84 M-83,291h-264v440h264V291L-83,291z"/>
		</g>
		<g id="XMLID_3806_" class="st3">
			<path id="XMLID_18_" class="st4" d="M-215,340c34.7,0,63,28.3,63,63s-28.3,63-63,63s-63-28.3-63-63S-249.7,340-215,340 M-215,339
				c-35.3,0-64,28.7-64,64s28.7,64,64,64s64-28.7,64-64S-179.7,339-215,339L-215,339z"/>
		</g>
		<defs>
			<filter id="Adobe_OpacityMaskFilter" filterUnits="userSpaceOnUse" x="-314.4" y="308.1" width="199.1" height="181.3">
				<feColorMatrix  type="matrix" values="1 0 0 0 0  0 1 0 0 0  0 0 1 0 0  0 0 0 1 0"/>
			</filter>
		</defs>
		<mask maskUnits="userSpaceOnUse" x="-314.4" y="308.1" width="199.1" height="181.3" id="XMLID_27_">
			<g id="XMLID_126_" class="st5">
				<circle id="XMLID_127_" cx="-215" cy="403" r="47"/>
			</g>
		</mask>
		<g id="XMLID_3741_" class="st6">
			<line id="XMLID_3804_" class="st7" x1="-265.8" y1="348" x2="-231.6" y2="382.2"/>
			<line id="XMLID_3803_" class="st8" x1="-245.6" y1="374" x2="-285.9" y2="337.6"/>
			<line id="XMLID_3802_" class="st8" x1="-235.6" y1="387.9" x2="-270.6" y2="366.9"/>
			<line id="XMLID_3801_" class="st8" x1="-251.3" y1="386.3" x2="-300.7" y2="363.3"/>
			<line id="XMLID_3800_" class="st9" x1="-235.4" y1="395.1" x2="-273.7" y2="385.6"/>
			<line id="XMLID_3799_" class="st8" x1="-243" y1="399.2" x2="-313.4" y2="390.2"/>
			<line id="XMLID_3798_" class="st10" x1="-237.3" y1="403.4" x2="-294.1" y2="407.4"/>
			<line id="XMLID_3797_" class="st7" x1="-248.8" y1="408.4" x2="-286.2" y2="417.4"/>
			<line id="XMLID_3796_" class="st10" x1="-243.4" y1="413.9" x2="-290.1" y2="437.4"/>
			<line id="XMLID_3795_" class="st8" x1="-243.7" y1="418.3" x2="-301.3" y2="456.2"/>
			<line id="XMLID_3794_" class="st7" x1="-243.2" y1="426" x2="-270.9" y2="452.8"/>
			<line id="XMLID_3793_" class="st9" x1="-234.9" y1="424.5" x2="-253.8" y2="449.9"/>
			<line id="XMLID_3792_" class="st10" x1="-228.9" y1="423.2" x2="-260" y2="480"/>
			<line id="XMLID_3791_" class="st7" x1="-227.9" y1="433.2" x2="-245" y2="472.7"/>
			<line id="XMLID_3790_" class="st10" x1="-221.4" y1="423.5" x2="-236.9" y2="485.6"/>
			<line id="XMLID_3789_" class="st9" x1="-216.9" y1="435.5" x2="-217.7" y2="461.6"/>
			<line id="XMLID_3788_" class="st10" x1="-214.6" y1="418.6" x2="-205.7" y2="488.4"/>
			<line id="XMLID_3787_" class="st7" x1="-206.1" y1="427.1" x2="-190.2" y2="475.6"/>
			<line id="XMLID_3786_" class="st8" x1="-203.8" y1="420.3" x2="-177.6" y2="460.2"/>
			<line id="XMLID_3785_" class="st8" x1="-189.4" y1="430.6" x2="-145.6" y2="474.5"/>
			<path id="XMLID_3784_" class="st7" d="M-195.7,415.7c0,0,38.4,33.9,38.7,34.2"/>
			<line id="XMLID_3783_" class="st10" x1="-200.8" y1="408.3" x2="-140.9" y2="446.3"/>
			<line id="XMLID_3782_" class="st9" x1="-181.5" y1="412.7" x2="-162.7" y2="419.2"/>
			<line id="XMLID_3781_" class="st8" x1="-191.5" y1="404.6" x2="-125.2" y2="415.4"/>
			<line id="XMLID_3780_" class="st7" x1="-181.5" y1="401.5" x2="-145.9" y2="405.3"/>
			<line id="XMLID_3765_" class="st8" x1="-192.5" y1="397.9" x2="-116.3" y2="394.4"/>
			<line id="XMLID_3758_" class="st9" x1="-196.2" y1="394.2" x2="-159.1" y2="382.9"/>
			<line id="XMLID_3757_" class="st8" x1="-175.6" y1="376.9" x2="-128.7" y2="345.1"/>
			<line id="XMLID_3756_" class="st9" x1="-187.2" y1="376.8" x2="-169.4" y2="359"/>
			<line id="XMLID_3755_" class="st10" x1="-191.5" y1="375.6" x2="-151.6" y2="328.8"/>
			<line id="XMLID_3754_" class="st7" x1="-196.4" y1="374.9" x2="-173" y2="342.5"/>
			<line id="XMLID_3751_" class="st10" x1="-234.4" y1="372.5" x2="-265.9" y2="336.6"/>
			<line id="XMLID_3750_" class="st8" x1="-223.2" y1="379.3" x2="-251.7" y2="328.4"/>
			<line id="XMLID_3749_" class="st7" x1="-225" y1="366.3" x2="-237.8" y2="336.7"/>
			<line id="XMLID_3748_" class="st10" x1="-217.5" y1="378.5" x2="-232.4" y2="314.6"/>
			<line id="XMLID_3747_" class="st9" x1="-213.4" y1="369.6" x2="-213.5" y2="344.7"/>
			<line id="XMLID_3746_" class="st8" x1="-209.1" y1="373.9" x2="-201.6" y2="309.1"/>
			<line id="XMLID_3745_" class="st7" x1="-201.7" y1="367.8" x2="-187.8" y2="330.3"/>
			<line id="XMLID_3744_" class="st8" x1="-196.6" y1="368.2" x2="-165.5" y2="314.8"/>
		</g>
		<g id="XMLID_3736_">
			<path id="XMLID_15_" class="st11" d="M-215,357c25.4,0,46,20.6,46,46s-20.6,46-46,46s-46-20.6-46-46S-240.4,357-215,357
				 M-215,355c-26.5,0-48,21.5-48,48s21.5,48,48,48s48-21.5,48-48S-188.5,355-215,355L-215,355z"/>
		</g>
		<g id="XMLID_3733_">
			<g>
				<defs>
					<circle id="SVGID_1_" cx="-215" cy="403" r="40"/>
				</defs>
				<clipPath id="SVGID_2_">
					<use xlink:href="#SVGID_1_"  style="overflow:visible;"/>
				</clipPath>
				<g id="kgGKot_19_" class="st12">
				</g>
			</g>
		</g>
		<text id="XMLID_3732_" transform="matrix(1 0 0 1 -263.1404 523.6576)" class="st13 st14 st15 st16">Валеев Азат</text>
		<text id="XMLID_3730_" transform="matrix(1 0 0 1 -268.5627 547.6293)" class="st4 st17 st18">«Проворный»</text>
		<g id="XMLID_3695_">
			<g id="XMLID_3720_">
				<g id="XMLID_3721_">
					<g id="XMLID_3723_">
						<polyline id="XMLID_3728_" class="st19" points="-326,309.5 -337.5,309.5 -337.5,331 						"/>
						<polyline id="XMLID_3725_" class="st19" points="-326.2,309.3 -325.9,316.7 -317.7,320.3 						"/>
						<ellipse id="XMLID_3724_" class="st19" cx="-331.2" cy="306.8" rx="2.3" ry="2.3"/>
					</g>
					<path id="XMLID_3722_" class="st19" d="M-337.1,331c0,0-4.2-1.9,0-5.6"/>
				</g>
			</g>
			<path id="XMLID_3719_" class="st19" d="M-326.7,321.9c0,2.1-1.3,3.3-1.3,3.3c-0.5,0.6-1.2,1.1-2.2,1.3c-1.9,0.5-4.4,0.1-5.6-1.7
				c-1.6-2.4-1.2-7,1.6-8.4c2.1-1,6.1-1.8,8.2,0.3"/>
			<g id="XMLID_3703_">
				<g id="XMLID_3704_">
					<g id="XMLID_3715_">
						<polyline id="XMLID_3718_" class="st19" points="-328.5,312 -328.5,300.5 -307,300.5 						"/>
						<polyline id="XMLID_3716_" class="st19" points="-329,311.8 -321.3,312.1 -317.7,320.3 						"/>
					</g>
					<path id="XMLID_3713_" class="st19" d="M-307,300.9c0,0-1.9-4.2-5.6,0"/>
				</g>
			</g>
			<path id="XMLID_3699_" class="st19" d="M-321.3,312.1c-2.1-2.1-1.3-6.1-0.3-8.2c1.4-2.8,5.9-3.2,8.4-1.6c1.8,1.2,2.2,3.6,1.7,5.6
				c-0.2,0.9-0.7,1.6-1.3,2.2c0,0-1.2,1.3-3.3,1.3"/>
			<circle id="XMLID_3698_" class="st19" cx="-316.1" cy="309.2" r="2"/>
			<circle id="XMLID_3696_" class="st19" cx="-328.8" cy="321.9" r="2"/>
		</g>
		<g id="XMLID_3323_">
			<g id="XMLID_3573_">
				<g id="XMLID_3655_">
					<g id="XMLID_3659_">
						<polyline id="XMLID_3664_" class="st19" points="-101.5,312 -101.5,300.5 -123,300.5 						"/>
						<polyline id="XMLID_3662_" class="st19" points="-101.3,311.8 -108.7,312.1 -112.3,320.3 						"/>
						<ellipse id="XMLID_3661_" class="st19" cx="-98.8" cy="306.8" rx="2.3" ry="2.3"/>
					</g>
					<path id="XMLID_3658_" class="st19" d="M-123,300.9c0,0,1.9-4.2,5.6,0"/>
				</g>
			</g>
			<path id="XMLID_3572_" class="st19" d="M-113.9,311.3c-2.1,0-3.3-1.3-3.3-1.3c-0.6-0.5-1.1-1.2-1.3-2.2c-0.5-1.9-0.1-4.4,1.7-5.6
				c2.4-1.6,7-1.2,8.4,1.6c1,2.1,1.8,6.1-0.3,8.2"/>
			<g id="XMLID_3329_">
				<g id="XMLID_3332_">
					<g id="XMLID_3335_">
						<polyline id="XMLID_3337_" class="st19" points="-104,309.5 -92.5,309.5 -92.5,331 						"/>
						<polyline id="XMLID_3336_" class="st19" points="-103.8,309 -104.1,316.7 -112.3,320.3 						"/>
					</g>
					<path id="XMLID_3334_" class="st19" d="M-92.9,331c0,0,4.2-1.9,0-5.6"/>
				</g>
			</g>
			<path id="XMLID_3326_" class="st19" d="M-104.1,316.7c2.1-2.1,6.1-1.3,8.2-0.3c2.8,1.4,3.2,5.9,1.6,8.4c-1.2,1.8-3.6,2.2-5.6,1.7
				c-0.9-0.2-1.6-0.7-2.2-1.3c0,0-1.3-1.2-1.3-3.3"/>
			<circle id="XMLID_3325_" class="st19" cx="-101.2" cy="321.9" r="2"/>
			<circle id="XMLID_3324_" class="st19" cx="-113.9" cy="309.2" r="2"/>
		</g>
		<g id="XMLID_3037_">
			<g id="XMLID_3048_">
				<g id="XMLID_3050_">
					<g id="XMLID_3319_">
						<polyline id="XMLID_3322_" class="st19" points="-326,712.5 -337.5,712.5 -337.5,691 						"/>
						<polyline id="XMLID_3321_" class="st19" points="-326.2,712.7 -325.9,705.3 -317.7,701.7 						"/>
						<ellipse id="XMLID_3320_" class="st19" cx="-331.2" cy="715.2" rx="2.3" ry="2.3"/>
					</g>
					<path id="XMLID_3318_" class="st19" d="M-337.1,691c0,0-4.2,1.9,0,5.6"/>
				</g>
			</g>
			<path id="XMLID_3047_" class="st19" d="M-325.9,705.3c-2.1,2.1-6.1,1.3-8.2,0.3c-2.8-1.4-3.2-5.9-1.6-8.4
				c1.2-1.8,3.6-2.2,5.6-1.7c0.9,0.2,1.6,0.7,2.2,1.3c0,0,1.3,1.2,1.3,3.3"/>
			<g id="XMLID_3041_">
				<g id="XMLID_3042_">
					<g id="XMLID_3044_">
						<polyline id="XMLID_3046_" class="st19" points="-328.5,710 -328.5,721.5 -307,721.5 						"/>
						<polyline id="XMLID_3045_" class="st19" points="-329,710.2 -321.3,709.9 -317.7,701.7 						"/>
					</g>
					<path id="XMLID_3043_" class="st19" d="M-307,721.1c0,0-1.9,4.2-5.6,0"/>
				</g>
			</g>
			<path id="XMLID_3040_" class="st19" d="M-316.1,710.7c2.1,0,3.3,1.3,3.3,1.3c0.6,0.5,1.1,1.2,1.3,2.2c0.5,1.9,0.1,4.4-1.7,5.6
				c-2.4,1.6-7,1.2-8.4-1.6c-1-2.1-1.8-6.1,0.3-8.2"/>
			<circle id="XMLID_3039_" class="st19" cx="-316.1" cy="712.8" r="2"/>
			<circle id="XMLID_3038_" class="st19" cx="-328.8" cy="700.1" r="2"/>
		</g>
		<g id="XMLID_3009_">
			<g id="XMLID_3029_">
				<g id="XMLID_3030_">
					<g id="XMLID_3033_">
						<polyline id="XMLID_3036_" class="st19" points="-101.5,710 -101.5,721.5 -123,721.5 						"/>
						<polyline id="XMLID_3035_" class="st19" points="-101.3,710.2 -108.7,709.9 -112.3,701.7 						"/>
						<ellipse id="XMLID_3034_" class="st19" cx="-98.8" cy="715.2" rx="2.3" ry="2.3"/>
					</g>
					<path id="XMLID_3032_" class="st19" d="M-123,721.1c0,0,1.9,4.2,5.6,0"/>
				</g>
			</g>
			<path id="XMLID_3028_" class="st19" d="M-108.7,709.9c2.1,2.1,1.3,6.1,0.3,8.2c-1.4,2.8-5.9,3.2-8.4,1.6
				c-1.8-1.2-2.2-3.6-1.7-5.6c0.2-0.9,0.7-1.6,1.3-2.2c0,0,1.2-1.3,3.3-1.3"/>
			<g id="XMLID_3015_">
				<g id="XMLID_3016_">
					<g id="XMLID_3018_">
						<polyline id="XMLID_3022_" class="st19" points="-104,712.5 -92.5,712.5 -92.5,691 						"/>
						<polyline id="XMLID_3019_" class="st19" points="-103.8,713 -104.1,705.3 -112.3,701.7 						"/>
					</g>
					<path id="XMLID_3017_" class="st19" d="M-92.9,691c0,0,4.2,1.9,0,5.6"/>
				</g>
			</g>
			<path id="XMLID_3014_" class="st19" d="M-103.3,700.1c0-2.1,1.3-3.3,1.3-3.3c0.5-0.6,1.2-1.1,2.2-1.3c1.9-0.5,4.4-0.1,5.6,1.7
				c1.6,2.4,1.2,7-1.6,8.4c-2.1,1-6.1,1.8-8.2-0.3"/>
			<circle id="XMLID_3013_" class="st19" cx="-101.2" cy="700.1" r="2"/>
			<circle id="XMLID_3010_" class="st19" cx="-113.9" cy="712.8" r="2"/>
		</g>
		<g id="XMLID_2949_" class="st20">
			<rect id="XMLID_52_" x="-332.2" y="571" class="st21" width="234" height="80"/>
			<text transform="matrix(1 0 0 1 -313.9608 581.6396)" class="st22 st23 st24">Эксперименты и необычные </text>
			<text transform="matrix(1 0 0 1 -328.8609 601.6396)" class="st22 st23 st24">кальяны. Всё началось с кальяна </text>
			<text transform="matrix(1 0 0 1 -321.2609 621.6396)" class="st22 st23 st24">на йогурте - самого простой из </text>
			<text transform="matrix(1 0 0 1 -290.9608 641.6396)" class="st22 st23 st24">необычных кальянов.</text>
		</g>
		<circle id="XMLID_2948_" class="st25" cx="-187" cy="375" r="12"/>
		<text id="XMLID_2947_" transform="matrix(1 0 0 1 -189.4438 380.0518)" class="st4 st14 st24">8</text>
	</g>
</g>
<g id="XMLID_2936_" class="st26">
	
		<radialGradient id="XMLID_2_" cx="-214.3" cy="621.6" r="160" gradientTransform="matrix(1 0 0 -1 0 1026)" gradientUnits="userSpaceOnUse">
		<stop  offset="0" style="stop-color:#F2AE32"/>
		<stop  offset="1" style="stop-color:#F2AE32;stop-opacity:0"/>
	</radialGradient>
	<circle id="XMLID_43_" class="st27" cx="-214.3" cy="404.4" r="160"/>
</g>
</svg>
