<svg id="Слой_1" data-name="Слой 1" xmlns="http://www.w3.org/2000/svg" viewBox="0 0 128 128"><defs><style>.cls-1{fill:#fff;}.cls-2{opacity:0.25;}.cls-3{fill:#282c34;}</style></defs><title>1</title><circle class="cls-1" cx="64" cy="64" r="64"/><g class="cls-2"><path class="cls-3" d="M34.21,100.77a0.5,0.5,0,0,1-.34-0.86C44.11,90.26,58,90,58.12,90h0a0.5,0.5,0,0,1,0,1c-0.14,0-13.63.27-23.58,9.64A0.5,0.5,0,0,1,34.21,100.77Z"/><path class="cls-3" d="M93.64,100.77a0.5,0.5,0,0,1-.34-0.14C83.34,91.25,69.86,91,69.72,91a0.5,0.5,0,0,1,0-1h0c0.14,0,14,.27,24.25,9.92A0.5,0.5,0,0,1,93.64,100.77Z"/><path class="cls-3" d="M63.81,104.5a1.11,1.11,0,0,1-.56-0.15A3.37,3.37,0,0,1,62,101.88c-0.07-.38-0.13-0.85-0.21-1.36-0.25-1.75-.62-4.4-1.38-5-0.38-.14-2.17.8-3.35,1.42-2.5,1.31-5.08,2.65-6.23,1.5a1.15,1.15,0,0,1-.37-0.94c0.09-.9,1.22-1.66,2.78-2.72,2-1.34,4.45-3,4.84-5.13,0.47-2.52.17-11.4-1.68-14-1.74-2.47-10.08-6-13.79-6.21-0.68.35-4.16,2.39-2.57,6.36a0.5,0.5,0,1,1-.93.37c-2.09-5.18,3.13-7.67,3.18-7.69a0.53,0.53,0,0,1,.23,0C46.19,68.51,55.14,72,57.27,75s2.37,12,1.85,14.78c-0.47,2.53-3.13,4.33-5.26,5.78-1,.7-2.31,1.56-2.35,2a0.18,0.18,0,0,0,.08.14c0.63,0.64,3.3-.76,5.06-1.68,2.44-1.27,3.74-1.91,4.46-1.29,1,0.89,1.41,3.54,1.71,5.66,0.07,0.5.13,1,.2,1.32,0.26,1.49.69,1.8,0.78,1.8a0.48,0.48,0,0,1,.62.3,0.52,0.52,0,0,1-.32.65A0.84,0.84,0,0,1,63.81,104.5Z"/><path class="cls-3" d="M64,104.5a0.84,0.84,0,0,1-.29,0,0.5,0.5,0,0,1,.3-1c0.11,0,.52-0.34.78-1.8,0.07-.37.13-0.83,0.2-1.32,0.3-2.13.68-4.77,1.71-5.66,0.72-.62,2,0,4.46,1.29,1.76,0.92,4.43,2.32,5.06,1.68a0.18,0.18,0,0,0,.08-0.14c0-.43-1.32-1.29-2.35-2-2.14-1.45-4.79-3.25-5.26-5.78C68.22,87,68.53,77.92,70.59,75s11.08-6.48,14.69-6.64a0.51,0.51,0,0,1,.49.33,3.8,3.8,0,0,0,2.59,2.18,7.47,7.47,0,0,0,3,.36,0.5,0.5,0,0,1,.24,1,7.74,7.74,0,0,1-3.48-.36A4.86,4.86,0,0,1,85,69.38c-3.81.34-11.87,3.77-13.58,6.19-1.85,2.62-2.15,11.5-1.68,14,0.39,2.12,2.86,3.79,4.84,5.13,1.56,1.06,2.69,1.83,2.78,2.72a1.15,1.15,0,0,1-.37.94c-1.15,1.15-3.74-.19-6.23-1.5-1.18-.62-3-1.55-3.37-1.4-0.73.63-1.11,3.28-1.35,5-0.07.51-.14,1-0.21,1.36a3.38,3.38,0,0,1-1.22,2.47A1.12,1.12,0,0,1,64,104.5Zm0.06-1h0Zm0,0h0Zm0,0h0Z"/><path class="cls-3" d="M66.47,72.32a0.5,0.5,0,0,1-.5-0.49l0-.74c-0.39-17.16-1.69-19.55-2.09-19.88a12.88,12.88,0,0,1-12.18-4.83c-4.16-5.34-.26-19.5-0.09-20.1a0.5,0.5,0,1,1,1,.27c0,0.14-3.94,14.27-.09,19.21a11.84,11.84,0,0,0,11.35,4.44,0.49,0.49,0,0,1,.25,0c0.73,0.21,2.43.7,2.88,20.86l0,0.73a0.5,0.5,0,0,1-.48.51h0Z"/><path class="cls-3" d="M52.88,69.16a0.5,0.5,0,0,1-.42-0.24c-0.33-.53-0.75-1.1-1.24-1.77-2.27-3.08-5.71-7.75-7.41-17.63-1.64-9.55,2.64-20.7,2.83-21.17a0.5,0.5,0,0,1,.93.36c0,0.11-4.37,11.36-2.77,20.63,1.66,9.65,5,14.2,7.23,17.21,0.5,0.68.94,1.27,1.29,1.83A0.5,0.5,0,0,1,52.88,69.16Z"/><path class="cls-3" d="M45.18,54a0.5,0.5,0,0,1-.49-0.38c0-.06-1.44-5.77-4.58-7.69a7.14,7.14,0,0,0-5.91-.89,0.5,0.5,0,0,1-.35-0.94,8.15,8.15,0,0,1,6.78,1c3.49,2.14,5,8.05,5,8.3a0.5,0.5,0,0,1-.37.6H45.18Z"/><path class="cls-3" d="M63.61,72.87a0.5,0.5,0,0,1-.5-0.46c0-.07-0.61-6.59-2.48-9.5S56.15,60,52.2,60.14a34.27,34.27,0,0,1-9.14-.7c-8.93-2.09-11.09-7.73-11.18-8a0.5,0.5,0,0,1,.94-0.35c0,0.05,2.1,5.38,10.47,7.34a33.36,33.36,0,0,0,8.89.67c4-.08,7.12-0.16,9.3,3.24,2,3.12,2.61,9.68,2.63,10a0.5,0.5,0,0,1-.45.54h0Z"/><path class="cls-3" d="M49.45,66.15c-6.18,0-16.26-2.35-16.75-2.47a0.5,0.5,0,0,1-.37-0.6,0.49,0.49,0,0,1,.6-0.37c0.14,0,13.79,3.21,18.92,2.26a16.72,16.72,0,0,0,8-3.71,0.5,0.5,0,0,1,.7.72A17.48,17.48,0,0,1,52,66,14.44,14.44,0,0,1,49.45,66.15Z"/><path class="cls-3" d="M60.26,73.54a0.5,0.5,0,0,1-.46-0.3c0-.05-1.43-3.06-7-4.09a0.5,0.5,0,0,1,.18-1c6.18,1.13,7.7,4.54,7.76,4.68A0.5,0.5,0,0,1,60.26,73.54Z"/><path class="cls-3" d="M69.86,72a0.5,0.5,0,0,1-.45-0.72c0.2-.41,4.94-10,12.38-11.73,6.89-1.58,10-18,10-18.14a0.5,0.5,0,1,1,1,.18c-0.13.7-3.26,17.21-10.78,18.93-7,1.6-11.66,11.09-11.7,11.19A0.5,0.5,0,0,1,69.86,72Z"/><path class="cls-3" d="M50.76,39.7H50.5a0.5,0.5,0,0,1-.43-0.56,0.49,0.49,0,0,1,.56-0.43c0.1,0,2.52.24,5.16-3.27,2.77-3.69,4.44-11.33,4.46-11.41a0.5,0.5,0,0,1,1,.21c-0.07.32-1.73,7.92-4.63,11.79C54.05,39.4,51.56,39.7,50.76,39.7Z"/><path class="cls-3" d="M87.16,55.47H87.08c-0.1,0-9.79-1.72-12.48-11.36-1.42-5.1,0-17.94.1-18.49a0.51,0.51,0,0,1,.55-0.44,0.5,0.5,0,0,1,.44.55c0,0.13-1.5,13.19-.13,18.11,2.52,9,11.59,10.63,11.68,10.64A0.5,0.5,0,0,1,87.16,55.47Z"/><path class="cls-3" d="M67.28,60.9a4.82,4.82,0,0,1-1.45-.19,0.5,0.5,0,0,1,.32-0.95c0.11,0,2.78.87,6.1-1.94,2.88-2.44,2.7-7.08,2.69-7.13a0.5,0.5,0,0,1,.48-0.52,0.49,0.49,0,0,1,.52.47c0,0.21.21,5.18-3,7.94A8.68,8.68,0,0,1,67.28,60.9Z"/><path class="cls-3" d="M75.08,44.95a0.48,0.48,0,0,1-.18,0c-0.24-.09-5.92-2.25-8.38-6.06S65.21,24.4,65.26,23.95a0.5,0.5,0,0,1,1,.11c0,0.11-1.15,10.75,1.12,14.26S75.2,44,75.26,44A0.5,0.5,0,0,1,75.08,44.95Z"/><path class="cls-3" d="M59.18,50.69a0.5,0.5,0,0,1-.41-0.78A13.23,13.23,0,0,0,60.47,43c0-4.13-.4-5-0.41-5a0.48,0.48,0,0,1,.15-0.68,0.52,0.52,0,0,1,.7.15c0.13,0.2.56,1.18,0.56,5.54a14,14,0,0,1-1.88,7.46A0.5,0.5,0,0,1,59.18,50.69Z"/><path class="cls-3" d="M81.66,53.2a0.5,0.5,0,0,1-.31-0.89s1.79-1.48,2.81-5.59c1.27-5.09-1.06-15.81-1.08-15.92a0.5,0.5,0,1,1,1-.21C84.16,31,86.46,41.65,85.13,47,84,51.44,82.05,53,82,53.09A0.5,0.5,0,0,1,81.66,53.2Z"/><path class="cls-3" d="M79.37,70.84a0.5,0.5,0,0,1-.5-0.49c0-.15,0-3.78,4.13-6.76,2.65-1.9,12.47-8.22,12.56-8.29a0.5,0.5,0,0,1,.54.84c-0.1.06-9.9,6.37-12.52,8.26-3.73,2.68-3.71,5.9-3.71,5.93a0.5,0.5,0,0,1-.49.51h0Z"/><path class="cls-3" d="M44.09,40.74h0a4.72,4.72,0,0,1-3.27-1.87C39.58,37.19,39.94,34.15,40,34a0.5,0.5,0,0,1,1,.12s-0.33,2.78.65,4.14a3.71,3.71,0,0,0,2.52,1.46A0.5,0.5,0,0,1,44.09,40.74Z"/><path class="cls-3" d="M57.66,33A0.53,0.53,0,0,1,57.38,33c-0.19-.11-0.84-0.66-1.46-3.08a12.8,12.8,0,0,1-.13-5.09,0.49,0.49,0,0,1,.59-0.39,0.5,0.5,0,0,1,.39.59,12,12,0,0,0,.12,4.64,5.36,5.36,0,0,0,1,2.49,0.48,0.48,0,0,1,.15.68A0.5,0.5,0,0,1,57.66,33Z"/><path class="cls-3" d="M66.27,36.86A0.5,0.5,0,0,1,66,35.92a10.17,10.17,0,0,0,3.62-3.55c1.15-2.19.75-7.68,0.74-7.74a0.5,0.5,0,0,1,.46-0.54,0.49,0.49,0,0,1,.54.46c0,0.24.43,5.84-.86,8.28a11,11,0,0,1-4,4A0.5,0.5,0,0,1,66.27,36.86Z"/><path class="cls-3" d="M60.84,44.5a0.49,0.49,0,0,1-.22-0.05,10.57,10.57,0,0,1-2.55-2.2,5.45,5.45,0,0,1-1.3-4.3,0.5,0.5,0,0,1,1,.16,4.51,4.51,0,0,0,1,3.46,10.13,10.13,0,0,0,2.26,2A0.5,0.5,0,0,1,60.84,44.5Z"/><path class="cls-3" d="M60.15,30.37a4.35,4.35,0,0,1-1-.11,0.5,0.5,0,0,1,.24-1,3.4,3.4,0,0,0,3.81-1.71,0.5,0.5,0,0,1,.89.45A4.21,4.21,0,0,1,60.15,30.37Z"/><path class="cls-3" d="M74.83,33.16a0.5,0.5,0,0,1-.11-1A6.59,6.59,0,0,0,79,28a0.5,0.5,0,0,1,.94.35,7.58,7.58,0,0,1-5,4.81H74.83Z"/><path class="cls-3" d="M36.5,50.51a5.24,5.24,0,0,1-4.08-1.6,0.5,0.5,0,0,1,.78-0.63c0.06,0.08,1.4,1.63,4.48,1.13s3.59-2.44,3.61-2.52a0.51,0.51,0,0,1,.61-0.36,0.5,0.5,0,0,1,.37.6c0,0.11-.68,2.66-4.42,3.27A8.35,8.35,0,0,1,36.5,50.51Z"/><path class="cls-3" d="M37,60.59a13,13,0,0,1-5-1.19,0.5,0.5,0,0,1,.43-0.9,11.7,11.7,0,0,0,5.06,1.07,9.2,9.2,0,0,0,4.05-1.22,0.5,0.5,0,0,1,.55.83,10,10,0,0,1-4.53,1.39Z"/><path class="cls-3" d="M84.69,40l-0.14,0a7.56,7.56,0,0,1-4.64-8,0.5,0.5,0,0,1,1,.17,6.53,6.53,0,0,0,1,4.47,6.61,6.61,0,0,0,2.91,2.43A0.5,0.5,0,0,1,84.69,40Z"/><path class="cls-3" d="M90.38,48.16A0.5,0.5,0,0,1,90,47.95a16.42,16.42,0,0,1-2.32-5.31,24,24,0,0,1,.18-7.18A0.49,0.49,0,0,1,88.42,35a0.5,0.5,0,0,1,.41.58,23.47,23.47,0,0,0-.19,6.81,15.64,15.64,0,0,0,2.16,4.95A0.5,0.5,0,0,1,90.38,48.16Z"/><path class="cls-3" d="M91.41,59a0.5,0.5,0,0,1-.49-0.39A7.27,7.27,0,0,1,91.21,55a23.83,23.83,0,0,1,3.15-6.11,0.5,0.5,0,1,1,.8.6,23.28,23.28,0,0,0-3,5.83,6.31,6.31,0,0,0-.27,3.09,0.5,0.5,0,0,1-.38.6H91.41Z"/><path class="cls-3" d="M88.24,71.85a0.5,0.5,0,0,1-.45-0.29c-0.06-.13-1.5-3.34,2.43-7.28a8.69,8.69,0,0,1,5.08-2.38,0.49,0.49,0,0,1,.53.46,0.5,0.5,0,0,1-.46.54A7.8,7.8,0,0,0,90.92,65c-3.41,3.41-2.28,6-2.23,6.15A0.5,0.5,0,0,1,88.24,71.85Z"/><path class="cls-3" d="M35.06,70a0.5,0.5,0,0,1,0-1,7,7,0,0,0,3.8-1.38c1.7-1.38,1.77-2.41,1.77-2.42a0.51,0.51,0,0,1,.5-0.48h0a0.49,0.49,0,0,1,.49.49c0,0.15-.06,1.5-2.14,3.19A7.89,7.89,0,0,1,35.06,70h0Z"/><path class="cls-3" d="M56.37,54.4a8.35,8.35,0,0,1-1.74-.19c-5-1.06-7.43-5.76-7.53-6A0.5,0.5,0,0,1,48,47.81s2.29,4.46,6.84,5.43a6.16,6.16,0,0,0,6.56-2.47,0.5,0.5,0,1,1,.86.51A7.16,7.16,0,0,1,56.37,54.4Z"/><path class="cls-3" d="M69,45.18a8.12,8.12,0,0,1-5.1-2.1,0.5,0.5,0,0,1,.69-0.72A7.22,7.22,0,0,0,69,44.18,8.13,8.13,0,0,0,73,43.32a0.5,0.5,0,0,1,.53.85A8.9,8.9,0,0,1,69,45.18Z"/><path class="cls-3" d="M83.53,49.85H83.47c-0.19,0-1.9-.35-3.58-3.62a7.15,7.15,0,0,1-.61-5.35,0.5,0.5,0,0,1,.94.33,6.27,6.27,0,0,0,.56,4.56c1.44,2.8,2.83,3.08,2.84,3.09a0.51,0.51,0,0,1,.41.57A0.5,0.5,0,0,1,83.53,49.85Z"/><path class="cls-3" d="M87,77.92a0.5,0.5,0,0,1-.44-0.27,8.28,8.28,0,0,1-.53-7.14,0.5,0.5,0,0,1,.9.44,7.3,7.3,0,0,0,.52,6.24A0.5,0.5,0,0,1,87,77.92Z"/><path class="cls-3" d="M70.88,59.69a0.52,0.52,0,0,1-.26-0.07c-0.19-.11-1.18-0.84-1.59-4.2a14.58,14.58,0,0,1,1.19-7.28,0.5,0.5,0,0,1,.9.43A13.8,13.8,0,0,0,70,55.3c0.35,2.87,1.11,3.46,1.12,3.47a0.49,0.49,0,0,1,.17.68A0.5,0.5,0,0,1,70.88,59.69Z"/><path class="cls-3" d="M77.63,62.33A0.5,0.5,0,0,1,77.17,62a11.08,11.08,0,0,1-.44-4.29,6.79,6.79,0,0,1,1.81-4.33,0.5,0.5,0,0,1,.69.73,5.9,5.9,0,0,0-1.5,3.67,10.35,10.35,0,0,0,.37,3.87,0.5,0.5,0,0,1-.29.64A0.51,0.51,0,0,1,77.63,62.33Z"/></g></svg>