<svg id="Слой_1" data-name="Слой 1" xmlns="http://www.w3.org/2000/svg" viewBox="0 0 128 128"><defs><style>.cls-1{fill:#fff;}.cls-2{opacity:0.25;}.cls-3{fill:#282c34;}</style></defs><title>2</title><circle class="cls-1" cx="64" cy="64" r="64"/><g class="cls-2"><path id="_Составной_контур_" data-name="&lt;Составной контур&gt;" class="cls-3" d="M64,104.85a40,40,0,1,1,40-40A40,40,0,0,1,64,104.85Zm0-79.22a39.22,39.22,0,1,0,39.22,39.22A39.26,39.26,0,0,0,64,25.63Z" transform="translate(0 -0.85)"/><path id="_Составной_контур_2" data-name="&lt;Составной контур&gt;" class="cls-3" d="M64,102.32a37.47,37.47,0,1,1,37.47-37.47A37.51,37.51,0,0,1,64,102.32Zm0-74.15a36.68,36.68,0,1,0,36.68,36.68A36.73,36.73,0,0,0,64,28.17Z" transform="translate(0 -0.85)"/><path id="_Составной_контур_3" data-name="&lt;Составной контур&gt;" class="cls-3" d="M64,95.53A30.68,30.68,0,1,1,94.68,64.85,30.71,30.71,0,0,1,64,95.53ZM64,35a29.9,29.9,0,1,0,29.9,29.9A29.93,29.93,0,0,0,64,35Z" transform="translate(0 -0.85)"/><path id="_Составной_контур_4" data-name="&lt;Составной контур&gt;" class="cls-3" d="M64,77.74A12.89,12.89,0,1,1,76.89,64.85,12.9,12.9,0,0,1,64,77.74Zm0-25a12.1,12.1,0,1,0,12.1,12.1A12.12,12.12,0,0,0,64,52.75Z" transform="translate(0 -0.85)"/><path id="_Составной_контур_5" data-name="&lt;Составной контур&gt;" class="cls-3" d="M64,69.27a4.41,4.41,0,1,1,4.41-4.41A4.42,4.42,0,0,1,64,69.27Zm0-8a3.63,3.63,0,1,0,3.63,3.63A3.64,3.64,0,0,0,64,61.22Z" transform="translate(0 -0.85)"/><g id="_Группа_" data-name="&lt;Группа&gt;"><g id="_Группа_2" data-name="&lt;Группа&gt;"><g id="_Группа_3" data-name="&lt;Группа&gt;"><path id="_Контур_" data-name="&lt;Контур&gt;" class="cls-3" d="M48.86,39a0.39,0.39,0,0,1-.34-0.2l-3.39-5.88a0.39,0.39,0,0,1,.68-0.39l3.39,5.88A0.39,0.39,0,0,1,48.86,39Z" transform="translate(0 -0.85)"/><path id="_Составной_контур_6" data-name="&lt;Составной контур&gt;" class="cls-3" d="M64,32.46A1.42,1.42,0,1,1,65.42,31,1.42,1.42,0,0,1,64,32.46Zm0-2.06a0.64,0.64,0,1,0,.64.64A0.64,0.64,0,0,0,64,30.4Z" transform="translate(0 -0.85)"/><g id="_Группа_4" data-name="&lt;Группа&gt;"><path id="_Составной_контур_7" data-name="&lt;Составной контур&gt;" class="cls-3" d="M66.13,43.72H61.87a2.26,2.26,0,1,1,0-4.52h4.26A2.26,2.26,0,1,1,66.13,43.72ZM61.87,40a1.48,1.48,0,1,0,0,3h4.26a1.48,1.48,0,1,0,0-3H61.87Z" transform="translate(0 -0.85)"/><g id="_Группа_5" data-name="&lt;Группа&gt;"><g id="_Группа_6" data-name="&lt;Группа&gt;"><path id="_Контур_2" data-name="&lt;Контур&gt;" class="cls-3" d="M61.71,39.85a0.39,0.39,0,0,1-.39-0.35,7.07,7.07,0,0,0-2.07-4.14,0.39,0.39,0,0,1,.52-0.58,7.79,7.79,0,0,1,2.32,4.64,0.39,0.39,0,0,1-.35.43h0Z" transform="translate(0 -0.85)"/><path id="_Контур_3" data-name="&lt;Контур&gt;" class="cls-3" d="M59.9,53.47a0.39,0.39,0,0,1-.24-0.7,5.3,5.3,0,0,0,1.6-2.87,26.87,26.87,0,0,0,.25-6.4,0.39,0.39,0,0,1,.36-0.42,0.4,0.4,0,0,1,.42.36A27.09,27.09,0,0,1,62,50.07a6,6,0,0,1-1.89,3.32A0.39,0.39,0,0,1,59.9,53.47Z" transform="translate(0 -0.85)"/></g><g id="_Группа_7" data-name="&lt;Группа&gt;"><path id="_Контур_4" data-name="&lt;Контур&gt;" class="cls-3" d="M66.29,39.85h0a0.39,0.39,0,0,1-.35-0.43,7.79,7.79,0,0,1,2.32-4.64,0.39,0.39,0,0,1,.52.58,7.11,7.11,0,0,0-2.07,4.14A0.39,0.39,0,0,1,66.29,39.85Z" transform="translate(0 -0.85)"/><path id="_Контур_5" data-name="&lt;Контур&gt;" class="cls-3" d="M68.1,53.47a0.39,0.39,0,0,1-.24-0.08A6,6,0,0,1,66,50.07a27.09,27.09,0,0,1-.27-6.64,0.39,0.39,0,1,1,.78.06,26.87,26.87,0,0,0,.25,6.4,5.3,5.3,0,0,0,1.6,2.88A0.39,0.39,0,0,1,68.1,53.47Z" transform="translate(0 -0.85)"/></g></g></g></g><g id="_Группа_8" data-name="&lt;Группа&gt;"><path id="_Контур_6" data-name="&lt;Контур&gt;" class="cls-3" d="M33.71,65.24H26.93a0.39,0.39,0,1,1,0-.78h6.79A0.39,0.39,0,0,1,33.71,65.24Z" transform="translate(0 -0.85)"/><path id="_Составной_контур_8" data-name="&lt;Составной контур&gt;" class="cls-3" d="M34.72,49.37A1.42,1.42,0,1,1,36,48.66,1.42,1.42,0,0,1,34.72,49.37Zm0-2.06a0.64,0.64,0,0,0-.56.32,0.64,0.64,0,0,0,.23.88,0.66,0.66,0,0,0,.88-0.23A0.64,0.64,0,0,0,34.72,47.31Z" transform="translate(0 -0.85)"/><g id="_Группа_9" data-name="&lt;Группа&gt;"><path id="_Составной_контур_9" data-name="&lt;Составной контур&gt;" class="cls-3" d="M42.67,57.26h0a2.26,2.26,0,0,1-2-3.39l2.13-3.69a2.27,2.27,0,0,1,3.09-.83,2.27,2.27,0,0,1,.83,3.09l-2.13,3.69A2.27,2.27,0,0,1,42.67,57.26Zm2.14-7.43a1.49,1.49,0,0,0-1.29.74L41.4,54.26a1.48,1.48,0,0,0,1.28,2.22h0A1.49,1.49,0,0,0,44,55.74l2.13-3.69A1.48,1.48,0,0,0,44.81,49.83Z" transform="translate(0 -0.85)"/><g id="_Группа_10" data-name="&lt;Группа&gt;"><g id="_Группа_11" data-name="&lt;Группа&gt;"><path id="_Контур_7" data-name="&lt;Контур&gt;" class="cls-3" d="M40.86,54.53a0.39,0.39,0,0,1-.16,0,7.08,7.08,0,0,0-4.61-.28,0.39,0.39,0,1,1-.24-0.74,7.78,7.78,0,0,1,5.18.31A0.39,0.39,0,0,1,40.86,54.53Z" transform="translate(0 -0.85)"/><path id="_Контур_8" data-name="&lt;Контур&gt;" class="cls-3" d="M51.75,62.9a0.39,0.39,0,0,1-.39-0.34,5.3,5.3,0,0,0-1.69-2.82,26.85,26.85,0,0,0-5.42-3.41,0.39,0.39,0,0,1,.34-0.71,27.11,27.11,0,0,1,5.61,3.55,6,6,0,0,1,1.93,3.29,0.39,0.39,0,0,1-.34.44H51.75Z" transform="translate(0 -0.85)"/></g><g id="_Группа_12" data-name="&lt;Группа&gt;"><path id="_Контур_9" data-name="&lt;Контур&gt;" class="cls-3" d="M43.15,50.56a0.39,0.39,0,0,1-.23-0.07,7.78,7.78,0,0,1-2.86-4.33A0.39,0.39,0,0,1,40.83,46a7.11,7.11,0,0,0,2.55,3.86A0.39,0.39,0,0,1,43.15,50.56Z" transform="translate(0 -0.85)"/><path id="_Контур_10" data-name="&lt;Контур&gt;" class="cls-3" d="M54.22,56.06a7,7,0,0,1-2-.31,27.09,27.09,0,0,1-5.88-3.09A0.39,0.39,0,1,1,46.75,52a26.86,26.86,0,0,0,5.67,3,5.31,5.31,0,0,0,3.29.05,0.39,0.39,0,0,1,.3.72A5,5,0,0,1,54.22,56.06Z" transform="translate(0 -0.85)"/></g></g></g></g><g id="_Группа_13" data-name="&lt;Группа&gt;"><path id="_Контур_11" data-name="&lt;Контур&gt;" class="cls-3" d="M45.46,97.35a0.39,0.39,0,0,1-.34-0.59l3.39-5.88a0.39,0.39,0,1,1,.68.39L45.8,97.16A0.39,0.39,0,0,1,45.46,97.35Z" transform="translate(0 -0.85)"/><path id="_Составной_контур_10" data-name="&lt;Составной контур&gt;" class="cls-3" d="M34.72,83.18a1.42,1.42,0,0,1-1.38-1.79,1.42,1.42,0,0,1,1.37-1.05A1.42,1.42,0,1,1,34.72,83.18Zm0-2.06a0.64,0.64,0,0,0-.55,1,0.66,0.66,0,0,0,.88.23,0.64,0.64,0,0,0,.23-0.88A0.64,0.64,0,0,0,34.72,81.12Z" transform="translate(0 -0.85)"/><g id="_Группа_14" data-name="&lt;Группа&gt;"><path id="_Составной_контур_11" data-name="&lt;Составной контур&gt;" class="cls-3" d="M44.81,80.65h0a2.27,2.27,0,0,1-2-1.13l-2.13-3.69a2.26,2.26,0,0,1,2-3.39,2.27,2.27,0,0,1,2,1.13l2.13,3.69A2.26,2.26,0,0,1,44.81,80.65Zm-2.14-7.43a1.48,1.48,0,0,0-1.28,2.22l2.13,3.69a1.49,1.49,0,0,0,1.29.74h0a1.48,1.48,0,0,0,1.28-2.22L44,74A1.49,1.49,0,0,0,42.67,73.23Z" transform="translate(0 -0.85)"/><g id="_Группа_15" data-name="&lt;Группа&gt;"><g id="_Группа_16" data-name="&lt;Группа&gt;"><path id="_Контур_12" data-name="&lt;Контур&gt;" class="cls-3" d="M40.45,84H40.37a0.39,0.39,0,0,1-.3-0.46,7.79,7.79,0,0,1,2.86-4.33,0.39,0.39,0,1,1,.45.64,7.11,7.11,0,0,0-2.55,3.86A0.39,0.39,0,0,1,40.45,84Z" transform="translate(0 -0.85)"/><path id="_Контур_13" data-name="&lt;Контур&gt;" class="cls-3" d="M46.52,77.76A0.39,0.39,0,0,1,46.3,77,27.09,27.09,0,0,1,52.18,74a6,6,0,0,1,3.82,0,0.39,0.39,0,1,1-.3.72,5.3,5.3,0,0,0-3.29.05,26.84,26.84,0,0,0-5.67,3A0.39,0.39,0,0,1,46.52,77.76Z" transform="translate(0 -0.85)"/></g><g id="_Группа_17" data-name="&lt;Группа&gt;"><path id="_Контур_14" data-name="&lt;Контур&gt;" class="cls-3" d="M38.06,76.54a7.76,7.76,0,0,1-2.21-.31,0.39,0.39,0,0,1,.24-0.74,7.12,7.12,0,0,0,4.61-.28,0.39,0.39,0,1,1,.32.71A7.16,7.16,0,0,1,38.06,76.54Z" transform="translate(0 -0.85)"/><path id="_Контур_15" data-name="&lt;Контур&gt;" class="cls-3" d="M44.43,74.12a0.39,0.39,0,0,1-.17-0.74A26.85,26.85,0,0,0,49.67,70a5.22,5.22,0,0,0,1.69-2.82,0.39,0.39,0,0,1,.78.1,6,6,0,0,1-1.93,3.29,27.1,27.1,0,0,1-5.61,3.55A0.39,0.39,0,0,1,44.43,74.12Z" transform="translate(0 -0.85)"/></g></g></g></g></g><g id="_Группа_18" data-name="&lt;Группа&gt;"><g id="_Группа_19" data-name="&lt;Группа&gt;"><path id="_Контур_16" data-name="&lt;Контур&gt;" class="cls-3" d="M82.54,97.35a0.39,0.39,0,0,1-.34-0.2l-3.39-5.88a0.39,0.39,0,1,1,.68-0.39l3.39,5.88A0.39,0.39,0,0,1,82.54,97.35Z" transform="translate(0 -0.85)"/><path id="_Составной_контур_12" data-name="&lt;Составной контур&gt;" class="cls-3" d="M64,100.09a1.42,1.42,0,1,1,1.42-1.42A1.42,1.42,0,0,1,64,100.09ZM64,98a0.64,0.64,0,1,0,.64.64A0.64,0.64,0,0,0,64,98Z" transform="translate(0 -0.85)"/><g id="_Группа_20" data-name="&lt;Группа&gt;"><path id="_Составной_контур_13" data-name="&lt;Составной контур&gt;" class="cls-3" d="M66.13,90.51H61.87a2.26,2.26,0,1,1,0-4.52h4.26A2.26,2.26,0,1,1,66.13,90.51Zm-4.26-3.74a1.48,1.48,0,1,0,0,3h4.26a1.48,1.48,0,1,0,0-3H61.87Z" transform="translate(0 -0.85)"/><g id="_Группа_21" data-name="&lt;Группа&gt;"><g id="_Группа_22" data-name="&lt;Группа&gt;"><path id="_Контур_17" data-name="&lt;Контур&gt;" class="cls-3" d="M68.48,95a0.39,0.39,0,0,1-.26-0.1,7.79,7.79,0,0,1-2.32-4.64,0.39,0.39,0,1,1,.78-0.08,7.07,7.07,0,0,0,2.07,4.14A0.39,0.39,0,0,1,68.48,95Z" transform="translate(0 -0.85)"/><path id="_Контур_18" data-name="&lt;Контур&gt;" class="cls-3" d="M66.1,86.63a0.39,0.39,0,0,1-.39-0.36A27.1,27.1,0,0,1,66,79.64a6,6,0,0,1,1.89-3.32,0.39,0.39,0,0,1,.47.62,5.3,5.3,0,0,0-1.6,2.87,26.87,26.87,0,0,0-.25,6.4,0.39,0.39,0,0,1-.36.42h0Z" transform="translate(0 -0.85)"/></g><g id="_Группа_23" data-name="&lt;Группа&gt;"><path id="_Контур_19" data-name="&lt;Контур&gt;" class="cls-3" d="M59.52,95a0.39,0.39,0,0,1-.26-0.68,7.11,7.11,0,0,0,2.07-4.14,0.39,0.39,0,1,1,.78.08,7.79,7.79,0,0,1-2.32,4.64A0.39,0.39,0,0,1,59.52,95Z" transform="translate(0 -0.85)"/><path id="_Контур_20" data-name="&lt;Контур&gt;" class="cls-3" d="M61.9,86.63h0a0.39,0.39,0,0,1-.36-0.42,26.87,26.87,0,0,0-.25-6.4,5.3,5.3,0,0,0-1.6-2.88,0.39,0.39,0,0,1,.47-0.62A6,6,0,0,1,62,79.64a27.1,27.1,0,0,1,.27,6.64A0.39,0.39,0,0,1,61.9,86.63Z" transform="translate(0 -0.85)"/></g></g></g></g><g id="_Группа_24" data-name="&lt;Группа&gt;"><path id="_Контур_21" data-name="&lt;Контур&gt;" class="cls-3" d="M101.07,65.24H94.29a0.39,0.39,0,0,1,0-.78h6.79A0.39,0.39,0,0,1,101.07,65.24Z" transform="translate(0 -0.85)"/><path id="_Составной_контур_14" data-name="&lt;Составной контур&gt;" class="cls-3" d="M93.28,83.18a1.42,1.42,0,1,1,1.23-.71A1.42,1.42,0,0,1,93.28,83.18Zm0-2.06a0.64,0.64,0,0,0-.56.32,0.64,0.64,0,0,0,.23.88,0.66,0.66,0,0,0,.88-0.23A0.64,0.64,0,0,0,93.28,81.12Z" transform="translate(0 -0.85)"/><g id="_Группа_25" data-name="&lt;Группа&gt;"><path id="_Составной_контур_15" data-name="&lt;Составной контур&gt;" class="cls-3" d="M83.19,80.65a2.26,2.26,0,0,1-2-3.39l2.13-3.69a2.27,2.27,0,0,1,3.09-.83,2.27,2.27,0,0,1,.83,3.09l-2.13,3.69A2.27,2.27,0,0,1,83.19,80.65Zm2.14-7.43A1.49,1.49,0,0,0,84,74l-2.13,3.69a1.48,1.48,0,0,0,1.28,2.22,1.49,1.49,0,0,0,1.29-.74l2.13-3.69A1.48,1.48,0,0,0,85.33,73.23Z" transform="translate(0 -0.85)"/><g id="_Группа_26" data-name="&lt;Группа&gt;"><g id="_Группа_27" data-name="&lt;Группа&gt;"><path id="_Контур_22" data-name="&lt;Контур&gt;" class="cls-3" d="M89.94,76.54a7.16,7.16,0,0,1-3-.62,0.39,0.39,0,1,1,.32-0.71,7.07,7.07,0,0,0,4.61.28,0.39,0.39,0,1,1,.24.74A7.76,7.76,0,0,1,89.94,76.54Z" transform="translate(0 -0.85)"/><path id="_Контур_23" data-name="&lt;Контур&gt;" class="cls-3" d="M83.57,74.12a0.39,0.39,0,0,1-.17,0,27.1,27.1,0,0,1-5.61-3.55,6,6,0,0,1-1.93-3.29,0.39,0.39,0,0,1,.78-0.1A5.3,5.3,0,0,0,78.33,70a26.84,26.84,0,0,0,5.42,3.41A0.39,0.39,0,0,1,83.57,74.12Z" transform="translate(0 -0.85)"/></g><g id="_Группа_28" data-name="&lt;Группа&gt;"><path id="_Контур_24" data-name="&lt;Контур&gt;" class="cls-3" d="M87.55,84a0.39,0.39,0,0,1-.38-0.31,7.11,7.11,0,0,0-2.55-3.86,0.39,0.39,0,1,1,.45-0.64,7.79,7.79,0,0,1,2.86,4.33,0.39,0.39,0,0,1-.3.46H87.55Z" transform="translate(0 -0.85)"/><path id="_Контур_25" data-name="&lt;Контур&gt;" class="cls-3" d="M81.48,77.76a0.39,0.39,0,0,1-.22-0.07,26.86,26.86,0,0,0-5.67-3,5.23,5.23,0,0,0-3.29-.05,0.39,0.39,0,1,1-.3-0.72,6,6,0,0,1,3.82,0A27.09,27.09,0,0,1,81.7,77,0.39,0.39,0,0,1,81.48,77.76Z" transform="translate(0 -0.85)"/></g></g></g></g><g id="_Группа_29" data-name="&lt;Группа&gt;"><path id="_Контур_26" data-name="&lt;Контур&gt;" class="cls-3" d="M79.14,39a0.39,0.39,0,0,1-.34-0.59l3.39-5.88a0.39,0.39,0,0,1,.68.39l-3.39,5.88A0.39,0.39,0,0,1,79.14,39Z" transform="translate(0 -0.85)"/><path id="_Составной_контур_16" data-name="&lt;Составной контур&gt;" class="cls-3" d="M93.28,49.37A1.42,1.42,0,1,1,94,49.18,1.43,1.43,0,0,1,93.28,49.37Zm0-2.06a0.64,0.64,0,0,0-.55,1,0.66,0.66,0,0,0,.88.23A0.64,0.64,0,0,0,93.28,47.31Z" transform="translate(0 -0.85)"/><g id="_Группа_30" data-name="&lt;Группа&gt;"><path id="_Составной_контур_17" data-name="&lt;Составной контур&gt;" class="cls-3" d="M85.33,57.26h0a2.27,2.27,0,0,1-2-1.13l-2.13-3.69a2.26,2.26,0,0,1,2-3.39,2.27,2.27,0,0,1,2,1.13l2.13,3.69A2.26,2.26,0,0,1,85.33,57.26Zm-2.14-7.43a1.48,1.48,0,0,0-1.28,2.22L84,55.74a1.49,1.49,0,0,0,1.29.74,1.48,1.48,0,0,0,1.28-2.22l-2.13-3.69A1.49,1.49,0,0,0,83.19,49.83Z" transform="translate(0 -0.85)"/><g id="_Группа_31" data-name="&lt;Группа&gt;"><g id="_Группа_32" data-name="&lt;Группа&gt;"><path id="_Контур_27" data-name="&lt;Контур&gt;" class="cls-3" d="M84.85,50.56a0.39,0.39,0,0,1-.23-0.71A7.11,7.11,0,0,0,87.17,46a0.39,0.39,0,0,1,.76.16,7.78,7.78,0,0,1-2.86,4.33A0.39,0.39,0,0,1,84.85,50.56Z" transform="translate(0 -0.85)"/><path id="_Контур_28" data-name="&lt;Контур&gt;" class="cls-3" d="M73.78,56.06A4.94,4.94,0,0,1,72,55.78a0.39,0.39,0,0,1,.3-0.72A5.3,5.3,0,0,0,75.59,55a26.84,26.84,0,0,0,5.67-3,0.39,0.39,0,1,1,.44.64,27.09,27.09,0,0,1-5.88,3.09A7,7,0,0,1,73.78,56.06Z" transform="translate(0 -0.85)"/></g><g id="_Группа_33" data-name="&lt;Группа&gt;"><path id="_Контур_29" data-name="&lt;Контур&gt;" class="cls-3" d="M87.14,54.53A0.39,0.39,0,0,1,87,53.78a7.79,7.79,0,0,1,5.18-.31,0.39,0.39,0,0,1-.24.74,7.12,7.12,0,0,0-4.61.28A0.39,0.39,0,0,1,87.14,54.53Z" transform="translate(0 -0.85)"/><path id="_Контур_30" data-name="&lt;Контур&gt;" class="cls-3" d="M76.25,62.9H76.2a0.39,0.39,0,0,1-.34-0.44,6,6,0,0,1,1.93-3.29,27.11,27.11,0,0,1,5.61-3.55,0.39,0.39,0,0,1,.34.71,26.86,26.86,0,0,0-5.42,3.41,5.22,5.22,0,0,0-1.69,2.82A0.39,0.39,0,0,1,76.25,62.9Z" transform="translate(0 -0.85)"/></g></g></g></g></g></g></g></svg>