<svg id="Слой_1" data-name="Слой 1" xmlns="http://www.w3.org/2000/svg" viewBox="0 0 128 128"><defs><style>.cls-1{fill:#fff;}.cls-2{opacity:0.25;}.cls-3{fill:#282c34;}</style></defs><title>3</title><circle class="cls-1" cx="64" cy="64" r="64"/><g class="cls-2"><path class="cls-3" d="M109.42,64.5h0a0.41,0.41,0,0,0-.09-0.24l0,0a0.41,0.41,0,0,0-.21-0.12h0l-15.82-3a30.22,30.22,0,0,0-.76-4.36L97.06,55a0.42,0.42,0,0,0,.23-0.58,0.88,0.88,0,0,1,0-.65,2.37,2.37,0,0,1,1.52-1.08,10.7,10.7,0,0,1,2.81-.4c1.8-.1,3.65-0.2,5.33-1.68,2.57-2.26,1.77-4.32,1.66-4.59s-1-2.37-4.4-2.18c-2.23.11-3.64,1.33-5,2.51A10.64,10.64,0,0,1,97,48.07a2.39,2.39,0,0,1-1.83.29,0.88,0.88,0,0,1-.48-0.46,0.42,0.42,0,0,0-.23-0.25,0.43,0.43,0,0,0-.34,0l-4.45,1.92a29.92,29.92,0,0,0-3.34-4.75l5-7.46s0,0,0,0a0.41,0.41,0,0,0,.06-0.24v0a0.41,0.41,0,0,0-.11-0.24A0.42,0.42,0,0,0,91,36.72h0a0.41,0.41,0,0,0-.24.06h0l-7.32,5.07a30.16,30.16,0,0,0-4.25-3.14L81,34.36A0.42,0.42,0,0,0,81,34a0.43,0.43,0,0,0-.24-0.23,0.88,0.88,0,0,1-.46-0.49,2.4,2.4,0,0,1,.29-1.83,10.7,10.7,0,0,1,1.67-2.29c1.18-1.36,2.4-2.76,2.51-5,0.17-3.58-2.11-4.37-2.15-4.38s-2.24-1-4.62,1.64c-1.48,1.68-1.58,3.53-1.68,5.33a10.68,10.68,0,0,1-.4,2.81,2.4,2.4,0,0,1-1.06,1.52,0.88,0.88,0,0,1-.66,0,0.42,0.42,0,0,0-.34,0,0.42,0.42,0,0,0-.24.24L72,35.57a30,30,0,0,0-4.61-.93L63.91,19.76v0a0.41,0.41,0,0,0-.13-0.2l0,0a0.41,0.41,0,0,0-.23-0.08h0a0.41,0.41,0,0,0-.24.08l0,0a0.41,0.41,0,0,0-.13.2v0l-3.76,15a30.22,30.22,0,0,0-4.61,1l-1.55-4.08a0.43,0.43,0,0,0-.23-0.24,0.44,0.44,0,0,0-.34,0,0.88,0.88,0,0,1-.67,0,2.4,2.4,0,0,1-1.06-1.51,10.7,10.7,0,0,1-.4-2.81c-0.1-1.79-.2-3.65-1.68-5.33-2.37-2.69-4.53-1.69-4.56-1.67s-2.38.82-2.21,4.41c0.11,2.23,1.33,3.63,2.51,5a10.68,10.68,0,0,1,1.67,2.29,2.4,2.4,0,0,1,.29,1.83,0.88,0.88,0,0,1-.46.48,0.42,0.42,0,0,0-.25.57L47.67,39A29.93,29.93,0,0,0,44,41.8l-6.89-4.29h0a0.41,0.41,0,0,0-.23-0.05h0a0.41,0.41,0,0,0-.22.11h0a0.41,0.41,0,0,0-.11.22v0a0.41,0.41,0,0,0,0,.23s0,0,0,0l4.19,7.1A30.06,30.06,0,0,0,38,49l-4.17-1.87a0.42,0.42,0,0,0-.33,0,0.43,0.43,0,0,0-.23.24,0.88,0.88,0,0,1-.49.46,2.4,2.4,0,0,1-1.82-.32,10.65,10.65,0,0,1-2.27-1.71c-1.34-1.2-2.72-2.44-5-2.58-3.58-.23-4.39,2-4.4,2S18.2,47.54,20.85,50c1.65,1.5,3.51,1.63,5.3,1.76a10.66,10.66,0,0,1,2.8.44,2.4,2.4,0,0,1,1.5,1.08,0.88,0.88,0,0,1,0,.66,0.42,0.42,0,0,0,.22.58l4.23,1.68a30,30,0,0,0-.93,5L18.92,64.09h0a0.41,0.41,0,0,0-.21.13l0,0a0.41,0.41,0,0,0-.09.24h0a0.41,0.41,0,0,0,.09.24l0,0a0.41,0.41,0,0,0,.21.13h0L34.1,68a30.24,30.24,0,0,0,.79,4.07l-4.37,1.66a0.42,0.42,0,0,0-.24.24,0.43,0.43,0,0,0,0,.34,0.87,0.87,0,0,1,0,.67A2.4,2.4,0,0,1,28.75,76a10.71,10.71,0,0,1-2.81.4c-1.8.1-3.65,0.2-5.33,1.68-2.69,2.37-1.69,4.52-1.67,4.56s0.76,2.21,4,2.21h0.38c2.23-.11,3.64-1.33,5-2.51a10.65,10.65,0,0,1,2.29-1.67,2.4,2.4,0,0,1,1.83-.29,0.88,0.88,0,0,1,.48.46,0.42,0.42,0,0,0,.23.25,0.43,0.43,0,0,0,.34,0l4.39-1.89a30,30,0,0,0,3.75,5l-5.14,7.83s0,0,0,0a0.41,0.41,0,0,0-.06.24v0a0.41,0.41,0,0,0,.11.24,0.42,0.42,0,0,0,.3.12,0.42,0.42,0,0,0,.21-0.06h0l7.78-5.36a30.09,30.09,0,0,0,3.65,2.57l-2,4.35a0.42,0.42,0,0,0,.24.57,0.88,0.88,0,0,1,.44.47,2.37,2.37,0,0,1-.31,1.84,10.66,10.66,0,0,1-1.71,2.27c-1.2,1.34-2.44,2.72-2.58,5-0.23,3.58,2,4.39,2,4.4a2.84,2.84,0,0,0,1.22.25,4.68,4.68,0,0,0,3.46-1.8c1.5-1.65,1.63-3.51,1.76-5.3a10.68,10.68,0,0,1,.44-2.8,2.4,2.4,0,0,1,1.08-1.5,0.87,0.87,0,0,1,.66,0,0.42,0.42,0,0,0,.58-0.22l1.76-4.43A29.93,29.93,0,0,0,59,93.6L63.09,110v0a0.41,0.41,0,0,0,.13.2l0,0a0.41,0.41,0,0,0,.24.08h0a0.41,0.41,0,0,0,.23-0.08l0,0a0.41,0.41,0,0,0,.13-0.2v0l4-16.29a30.2,30.2,0,0,0,3.5-.7L73,97.34a0.43,0.43,0,0,0,.57.23,0.88,0.88,0,0,1,.67,0,2.4,2.4,0,0,1,1.06,1.52,10.68,10.68,0,0,1,.4,2.81c0.1,1.79.2,3.65,1.68,5.33a4.67,4.67,0,0,0,3.49,1.87,2.64,2.64,0,0,0,1.08-.2c0.1,0,2.38-.82,2.21-4.41-0.11-2.23-1.33-3.63-2.51-5A10.7,10.7,0,0,1,80,97.23a2.4,2.4,0,0,1-.29-1.83,0.88,0.88,0,0,1,.46-0.48,0.42,0.42,0,0,0,.25-0.57L78.52,90a30.1,30.1,0,0,0,3.65-2.52L89.59,92h0a0.42,0.42,0,0,0,.19.05A0.42,0.42,0,0,0,90,92l0,0a0.41,0.41,0,0,0,.11-0.07h0a0.41,0.41,0,0,0,.11-0.22v0a0.41,0.41,0,0,0,0-.23s0,0,0,0l-4.39-7.35a30,30,0,0,0,3.45-4.64l4.32,1.94a0.43,0.43,0,0,0,.33,0,0.43,0.43,0,0,0,.23-0.24,0.87,0.87,0,0,1,.49-0.46,2.4,2.4,0,0,1,1.82.32,10.68,10.68,0,0,1,2.27,1.71c1.34,1.2,2.72,2.44,5,2.58l0.5,0c3.16,0,3.89-2,3.9-2.06s1.1-2.26-1.56-4.67c-1.65-1.5-3.51-1.63-5.3-1.75a10.66,10.66,0,0,1-2.8-.44,2.4,2.4,0,0,1-1.5-1.08,0.88,0.88,0,0,1,0-.66A0.42,0.42,0,0,0,96.66,74l-4.35-1.73a30.1,30.1,0,0,0,.86-4.3l15.91-3.1h0a0.41,0.41,0,0,0,.21-0.13l0,0a0.41,0.41,0,0,0,.09-0.25h0ZM92.81,61.89h0l11.66,2.19H83.93a20.27,20.27,0,0,0-.43-3.94ZM63.66,83.8A19.44,19.44,0,1,1,83.1,64.36,19.47,19.47,0,0,1,63.66,83.8ZM89.08,50.32a0.42,0.42,0,0,0,.55.17l0,0,4.4-1.9a1.74,1.74,0,0,0,.72.56,3.1,3.1,0,0,0,2.54-.3A11.49,11.49,0,0,0,99.8,47c1.31-1.13,2.54-2.21,4.48-2.3,2.92-.14,3.54,1.56,3.56,1.63l0,0c0,0.07.75,1.69-1.44,3.62-1.46,1.28-3.09,1.37-4.82,1.47a11.54,11.54,0,0,0-3,.44,3.1,3.1,0,0,0-2,1.55,1.74,1.74,0,0,0-.13.9L92.22,56a0.42,0.42,0,0,0-.68.43A28.88,28.88,0,0,1,92.41,61l-9.14-1.72a20.18,20.18,0,0,0-2.64-6l3.88-5.8,1.29-1.92A28.94,28.94,0,0,1,89.08,50.32Zm-9,2.21a20.39,20.39,0,0,0-1.68-2L88,40.67ZM87.52,40l-9.68,9.88a20.44,20.44,0,0,0-2.06-1.75ZM72.16,36.49a0.42,0.42,0,0,0,.52-0.25L74.28,32a1.73,1.73,0,0,0,.9-0.13,3.1,3.1,0,0,0,1.55-2,11.44,11.44,0,0,0,.44-3c0.09-1.73.18-3.36,1.47-4.81,1.93-2.19,3.55-1.47,3.66-1.42s1.77,0.65,1.63,3.56c-0.09,1.94-1.17,3.17-2.3,4.48a11.5,11.5,0,0,0-1.8,2.48,3.1,3.1,0,0,0-.3,2.53,1.73,1.73,0,0,0,.56.72L78.2,38.72a0.42,0.42,0,0,0,.17.53,29.2,29.2,0,0,1,4.29,3.1L75.07,47.6a20.23,20.23,0,0,0-5.2-2.55l-2.25-9.55A28.63,28.63,0,0,1,72.16,36.49Zm-3.22,8.3a20.2,20.2,0,0,0-5-.71V23.48ZM63.08,23.26V44.1a20.23,20.23,0,0,0-5.46.89ZM48.43,39.53A0.42,0.42,0,0,0,48.59,39l-1.88-4.36a1.73,1.73,0,0,0,.56-0.72A3.1,3.1,0,0,0,47,31.4a11.46,11.46,0,0,0-1.8-2.48C44,27.61,43,26.38,42.87,24.44c-0.14-2.91,1.56-3.54,1.68-3.58s1.69-.75,3.62,1.44c1.28,1.46,1.37,3.09,1.47,4.82a11.48,11.48,0,0,0,.44,3,3.1,3.1,0,0,0,1.55,2,1.72,1.72,0,0,0,.9.13l1.56,4.11a0.42,0.42,0,0,0,.53.25,28.72,28.72,0,0,1,4.51-1.07l-2.45,9.75a20.22,20.22,0,0,0-3.89,1.93l-8.05-5A29,29,0,0,1,48.43,39.53ZM52,47.78A20.46,20.46,0,0,0,49.36,50l-9.72-9.87ZM39,40.61l9.83,10a20.4,20.4,0,0,0-2.24,2.89ZM35.84,56a0.42,0.42,0,0,0-.25-0.51l-4.23-1.68a1.74,1.74,0,0,0-.11-0.9,3.1,3.1,0,0,0-2-1.58,11.52,11.52,0,0,0-3-.48c-1.73-.12-3.36-0.23-4.79-1.54-2.16-2-1.4-3.6-1.35-3.72s0.68-1.72,3.58-1.54c1.94,0.12,3.15,1.21,4.44,2.37a11.51,11.51,0,0,0,2.45,1.83,3.1,3.1,0,0,0,2.53.34,1.73,1.73,0,0,0,.73-0.55L38,49.95a0.42,0.42,0,0,0,.54-0.17A29.1,29.1,0,0,1,41.13,46l4.92,8.35a20.14,20.14,0,0,0-2,4.88L34.86,61A29,29,0,0,1,35.84,56Zm8,4.07a20.27,20.27,0,0,0-.45,4h-20Zm-9.27,7.13h0l-11.35-2.3H43.39a20.2,20.2,0,0,0,.56,4.2l-6.84-1.39Zm3.89,11.24a0.42,0.42,0,0,0-.53-0.18l-4.39,1.89a1.74,1.74,0,0,0-.72-0.56,3.11,3.11,0,0,0-2.54.3,11.52,11.52,0,0,0-2.48,1.8c-1.31,1.14-2.54,2.21-4.48,2.3-2.91.13-3.54-1.56-3.58-1.67S19,80.65,21.17,78.73c1.46-1.28,3.09-1.37,4.82-1.47a11.47,11.47,0,0,0,3-.44,3.1,3.1,0,0,0,2-1.55,1.74,1.74,0,0,0,.13-0.9l4.37-1.66a0.42,0.42,0,0,0,.26-0.51,28.82,28.82,0,0,1-.84-4L44.19,70a20.19,20.19,0,0,0,2.88,6l-4.94,7.53A28.92,28.92,0,0,1,38.45,78.46Zm9.16-1.74a20.43,20.43,0,0,0,1.87,2.12L39.59,88.92Zm-3,9.7h0l-4.42,3L50.1,79.41a20.4,20.4,0,0,0,2.19,1.75ZM55.53,92a0.43,0.43,0,0,0-.51.25l-1.76,4.44a1.7,1.7,0,0,0-.9.11,3.1,3.1,0,0,0-1.58,2,11.47,11.47,0,0,0-.48,3c-0.12,1.73-.23,3.36-1.54,4.79-2,2.16-3.6,1.4-3.72,1.35s-1.72-.63-1.54-3.58c0.12-1.94,1.21-3.15,2.37-4.44a11.44,11.44,0,0,0,1.83-2.45A3.1,3.1,0,0,0,48,94.94a1.73,1.73,0,0,0-.55-0.73l2-4.36a0.42,0.42,0,0,0-.18-0.54,28.72,28.72,0,0,1-3.68-2.52l7.48-5.16a20.2,20.2,0,0,0,3.37,1.66l2.35,9.42A28.92,28.92,0,0,1,55.53,92Zm4.24,1.16h0L57.4,83.65a20.19,20.19,0,0,0,5.68,1v21.8Zm7.34,0.05h0l-3.18,13.13V84.63a20.21,20.21,0,0,0,5.46-.82Zm10.67-3.75a0.42,0.42,0,0,0-.18.54l1.88,4.36a1.74,1.74,0,0,0-.56.72,3.1,3.1,0,0,0,.3,2.54,11.5,11.5,0,0,0,1.8,2.48c1.14,1.3,2.21,2.54,2.3,4.48,0.14,2.91-1.56,3.54-1.68,3.58s-1.69.75-3.62-1.44c-1.28-1.46-1.37-3.09-1.47-4.81a11.44,11.44,0,0,0-.44-3,3.09,3.09,0,0,0-1.55-2,1.74,1.74,0,0,0-.68-0.14H73.68L72,92.3A0.42,0.42,0,0,0,71.5,92a29.07,29.07,0,0,1-3.43.74l2.25-9.29a20.2,20.2,0,0,0,3.1-1.37l8,4.88A28.6,28.6,0,0,1,77.78,89.44Zm4.59-2.84h0l-8.13-5a20.36,20.36,0,0,0,3-2.2L87.1,89.5Zm5.28,2.24-9.84-10A20.43,20.43,0,0,0,80.1,76.2l4.81,8ZM96,74.69a1.74,1.74,0,0,0,.11.9,3.1,3.1,0,0,0,2,1.58,11.49,11.49,0,0,0,3,.48c1.73,0.12,3.36.23,4.79,1.54,2.16,2,1.4,3.6,1.35,3.72s-0.63,1.72-3.58,1.53c-1.94-.12-3.15-1.21-4.44-2.37a11.46,11.46,0,0,0-2.45-1.83,4,4,0,0,0-1.75-.49,2.05,2.05,0,0,0-.78.14,1.73,1.73,0,0,0-.73.55l-4.32-1.94a0.42,0.42,0,0,0-.54.17,28.94,28.94,0,0,1-3.36,4.64l-2.9-4.85-1.81-3A20.18,20.18,0,0,0,83.14,70l8.65-1.69,0.51-.1a28.74,28.74,0,0,1-.91,4.26,0.42,0.42,0,0,0,.25.51Zm-3.28-7.45h0l-9.34,1.82a20.2,20.2,0,0,0,.55-4.15h20.71Z" transform="translate(0 -0.85)"/><path class="cls-3" d="M73.92,65.38a0.4,0.4,0,0,0,0-.23l0-.08,0-.07,0,0C70.49,61.15,67,59.31,63.41,59.5c-5.53.29-9.13,5.28-9.28,5.49v0l0,0.08a0.29,0.29,0,0,0,0,.15,0.29,0.29,0,0,0,0,.15l0,0.07v0c2.93,3.59,6.15,5.42,9.56,5.42h0.06c5.75,0,9.92-5.2,10.1-5.42l0,0ZM63.75,70.08c-3.08,0-6-1.63-8.73-4.86,0.8-1,4-4.64,8.43-4.88,3.22-.18,6.42,1.49,9.51,4.91C72,66.3,68.37,70.05,63.75,70.08Z" transform="translate(0 -0.85)"/><path class="cls-3" d="M64.05,61a4.2,4.2,0,1,0,4.2,4.2A4.2,4.2,0,0,0,64.05,61Zm0,7.55a3.35,3.35,0,1,1,3.35-3.35A3.36,3.36,0,0,1,64.05,68.56Z" transform="translate(0 -0.85)"/></g></svg>