<svg id="Слой_1" data-name="Слой 1" xmlns="http://www.w3.org/2000/svg" viewBox="0 0 128 128"><defs><style>.cls-1{fill:#fff;}.cls-2{opacity:0.25;}.cls-3{fill:#282c34;}</style></defs><title>4</title><circle class="cls-1" cx="64" cy="64" r="64"/><g class="cls-2"><path class="cls-3" d="M54.45,84.9H54.39a0.5,0.5,0,0,1-.44-0.55l6-52.18a0.51,0.51,0,0,1,.55-0.44,0.5,0.5,0,0,1,.44.55l-6,52.18A0.5,0.5,0,0,1,54.45,84.9Z" transform="translate(0 -0.85)"/><path class="cls-3" d="M58.76,79.68H58.71a0.5,0.5,0,0,1-.44-0.55l5-42.94a0.51,0.51,0,0,1,.55-0.44,0.5,0.5,0,0,1,.44.55l-5,42.94A0.5,0.5,0,0,1,58.76,79.68Z" transform="translate(0 -0.85)"/><path class="cls-3" d="M63.15,73.86H63.09a0.5,0.5,0,0,1-.44-0.55l4-34.48a0.51,0.51,0,0,1,.55-0.44,0.5,0.5,0,0,1,.44.55l-4,34.48A0.5,0.5,0,0,1,63.15,73.86Z" transform="translate(0 -0.85)"/><path class="cls-3" d="M67.48,68.5H67.43A0.5,0.5,0,0,1,67,67.94l3.18-27.4a0.5,0.5,0,1,1,1,.12L68,68.06A0.5,0.5,0,0,1,67.48,68.5Z" transform="translate(0 -0.85)"/><path class="cls-3" d="M71.9,62.45H71.84a0.5,0.5,0,0,1-.44-0.55L73.8,41.2a0.51,0.51,0,0,1,.55-0.44,0.5,0.5,0,0,1,.44.55L72.39,62A0.5,0.5,0,0,1,71.9,62.45Z" transform="translate(0 -0.85)"/><path class="cls-3" d="M76.35,56.08H76.29a0.5,0.5,0,0,1-.44-0.55l1.7-14.7a0.51,0.51,0,0,1,.55-0.44,0.5,0.5,0,0,1,.44.55l-1.7,14.7A0.5,0.5,0,0,1,76.35,56.08Z" transform="translate(0 -0.85)"/><path class="cls-3" d="M80.71,50.49H80.65a0.5,0.5,0,0,1-.44-0.55L81.46,39.2a0.5,0.5,0,1,1,1,.12L81.2,50.05A0.5,0.5,0,0,1,80.71,50.49Z" transform="translate(0 -0.85)"/><path class="cls-3" d="M48.41,102.34a0.5,0.5,0,0,1-.42-0.23c-0.13-.19-12.56-19.67-10.14-39.4,1.84-15,14-26.38,19.14-30.59a0.5,0.5,0,0,1,.63.77c-5,4.13-17,15.33-18.78,29.93-2.38,19.37,9.86,38.55,10,38.74A0.5,0.5,0,0,1,48.41,102.34Z" transform="translate(0 -0.85)"/><path class="cls-3" d="M48.41,102.34a0.5,0.5,0,0,1-.42-0.23c-0.13-.19-12.56-19.67-10.14-39.4,1.84-15,14-26.38,19.14-30.59a0.5,0.5,0,0,1,.63.77c-5,4.13-17,15.33-18.78,29.93-2.38,19.37,9.86,38.55,10,38.74A0.5,0.5,0,0,1,48.41,102.34Z" transform="translate(0 -0.85)"/><path class="cls-3" d="M47.84,95.38a0.5,0.5,0,0,1-.44-0.26C47.32,95,39,79.48,40.92,63.6a34.91,34.91,0,0,1,3.93-11.9,0.5,0.5,0,0,1,.89.46,33.92,33.92,0,0,0-3.82,11.55C40,79.28,48.2,94.49,48.28,94.64a0.5,0.5,0,0,1-.2.68A0.49,0.49,0,0,1,47.84,95.38Z" transform="translate(0 -0.85)"/><path class="cls-3" d="M49.15,46.24a0.5,0.5,0,0,1-.4-0.79,52.86,52.86,0,0,1,7.75-8.59,0.5,0.5,0,1,1,.66.75A51.82,51.82,0,0,0,49.56,46,0.5,0.5,0,0,1,49.15,46.24Z" transform="translate(0 -0.85)"/><path class="cls-3" d="M49.39,84.35A0.5,0.5,0,0,1,49,83.53c1.21-1.46,29.58-35.82,32.73-38.6a3.13,3.13,0,0,1,2.42-.85c0.42-.77.8-1.84,0.54-2.29a0.9,0.9,0,0,0-.87-0.28,10.31,10.31,0,0,0-3.26,1.06,16.41,16.41,0,0,1-6,1.7c-4.35.14-8.44-1.48-12.19-4.84C58.37,35.86,55,29.29,54.87,29a0.5,0.5,0,0,1,.19-0.66L62.47,24a0.5,0.5,0,0,1,.68.17c0.06,0.09,5.76,9.42,9,11,2.17,1.07,5.14.72,7.76,0.42a27.13,27.13,0,0,1,3.87-.27c3.45,0.13,7.54,2.15,8.33,5.63,1.45,6.42-.89,8.76-1,8.85a0.5,0.5,0,0,1-.7-0.72s2-2.14.71-7.92c-0.68-3-4.31-4.73-7.39-4.85a25.18,25.18,0,0,0-3.71.26c-2.76.32-5.88,0.69-8.32-.51-3.16-1.56-8-9.11-9.2-11L56,29c0.81,1.51,3.76,6.77,7.07,9.72,3.54,3.17,7.4,4.72,11.49,4.58a15.62,15.62,0,0,0,5.62-1.62,10.84,10.84,0,0,1,3.63-1.15,1.8,1.8,0,0,1,1.77.78c0.69,1.2-.48,3.22-0.73,3.61a0.5,0.5,0,0,1-.59.21,2,2,0,0,0-1.85.57C79.3,48.41,50.07,83.81,49.77,84.17A0.5,0.5,0,0,1,49.39,84.35Z" transform="translate(0 -0.85)"/><path class="cls-3" d="M75,41.59A16.13,16.13,0,0,1,64.1,37.07a29.17,29.17,0,0,1-4.75-5.86,0.5,0.5,0,0,1,.84-0.54,28.62,28.62,0,0,0,4.58,5.66,15.12,15.12,0,0,0,10.69,4.26,14.53,14.53,0,0,0,5.23-1.51A10.12,10.12,0,0,1,84.08,38a0.51,0.51,0,0,1,.52.48,0.5,0.5,0,0,1-.48.52,9.59,9.59,0,0,0-3,1,15.32,15.32,0,0,1-5.59,1.59H75Z" transform="translate(0 -0.85)"/><path class="cls-3" d="M68.84,98.07l-0.12,0-8.61-2.17a0.5,0.5,0,0,1-.32-0.73C69.86,76.94,85,49.29,85.31,47.73h0a2.73,2.73,0,0,0-.21-2,1.29,1.29,0,0,0-.78-0.54,0.5,0.5,0,0,1,.15-1,2.27,2.27,0,0,1,1.43.93,3.12,3.12,0,0,1,.49,2,3.93,3.93,0,0,1,3.33.29c1.7,1.11,1.81,3.56,1.81,3.67a0.5,0.5,0,0,1,0,.23L69.29,97.78A0.5,0.5,0,0,1,68.84,98.07Zm-7.85-3L68.56,97l22-46a3.85,3.85,0,0,0-1.36-2.75,3.31,3.31,0,0,0-3,0C84.61,52.25,64.58,88.55,61,95.07Z" transform="translate(0 -0.85)"/><path class="cls-3" d="M49.2,84.33A0.5,0.5,0,0,1,48.74,84c-4.05-9.73-4.64-18.78-1.8-27.65C49.6,48.05,60.74,38,61.21,37.6a0.5,0.5,0,0,1,.67.75c-0.11.1-11.41,10.27-14,18.33-2.76,8.63-2.19,17.45,1.77,27a0.5,0.5,0,0,1-.27.65A0.51,0.51,0,0,1,49.2,84.33Z" transform="translate(0 -0.85)"/><path class="cls-3" d="M54,92.08a0.5,0.5,0,0,1-.41-0.79L85.32,45.75a0.5,0.5,0,1,1,.82.57L54.45,91.86A0.5,0.5,0,0,1,54,92.08Z" transform="translate(0 -0.85)"/><path class="cls-3" d="M51.41,104.12a5.16,5.16,0,0,1-1.64-.24A2.64,2.64,0,0,1,47.93,102c-0.63-2.66,4.16-8.78,5.47-10.38A40.69,40.69,0,0,1,48.75,84a0.5,0.5,0,1,1,.91-0.42,39.85,39.85,0,0,0,4.77,7.64,0.5,0.5,0,0,1,0,.64c-1.7,2-6,7.78-5.52,9.83a1.66,1.66,0,0,0,1.19,1.2c1.93,0.65,5.31-.38,7.71-2.35a25.55,25.55,0,0,0,4.34-4.81,0.5,0.5,0,1,1,.83.55,26.12,26.12,0,0,1-4.54,5A11.91,11.91,0,0,1,51.41,104.12Z" transform="translate(0 -0.85)"/><path class="cls-3" d="M52.81,101.37a2.6,2.6,0,0,1-.83-0.12,1.49,1.49,0,0,1-1-1.08,0.5,0.5,0,1,1,1-.23,0.49,0.49,0,0,0,.37.36,4.12,4.12,0,0,0,3.29-1,11.44,11.44,0,0,0,1.94-2.16,0.5,0.5,0,1,1,.83.55A12.33,12.33,0,0,1,56.22,100,5.77,5.77,0,0,1,52.81,101.37Z" transform="translate(0 -0.85)"/><path class="cls-3" d="M92,46.91a0.5,0.5,0,0,1-.42-0.23,6.2,6.2,0,0,0-2.13-1.81,7.72,7.72,0,0,0-4.36-.79,0.5,0.5,0,0,1-.16-1,8.59,8.59,0,0,1,5,.89,7.08,7.08,0,0,1,2.5,2.15A0.5,0.5,0,0,1,92,46.91Z" transform="translate(0 -0.85)"/></g></svg>