<svg id="Слой_1" data-name="Слой 1" xmlns="http://www.w3.org/2000/svg" viewBox="0 0 128 128"><defs><style>.cls-1{fill:#fff;}.cls-2{opacity:0.25;}.cls-3{fill:#282c34;}</style></defs><title>5</title><circle class="cls-1" cx="64" cy="64" r="64"/><g class="cls-2"><path class="cls-3" d="M56.55,35A3.45,3.45,0,0,1,56,34.94a5.76,5.76,0,0,1-3.73-2.73,2.19,2.19,0,0,1,.62-2.83c1.17-.89,3.2-0.95,3.92-0.35a0.5,0.5,0,1,1-.64.77,3.09,3.09,0,0,0-2.67.38,1.19,1.19,0,0,0-.3,1.63,4.74,4.74,0,0,0,3,2.15,1.88,1.88,0,0,0,1.8-.57,0.5,0.5,0,0,1,.73.69A2.84,2.84,0,0,1,56.55,35Z" transform="translate(0 -0.85)"/><path class="cls-3" d="M56.19,33.54l-0.34,0A3.16,3.16,0,0,1,53.77,32a1.36,1.36,0,0,1,.39-1.73,2.15,2.15,0,0,1,2.3-.17,0.5,0.5,0,0,1-.62.78,1.39,1.39,0,0,0-1.12.23,0.36,0.36,0,0,0,0,.49,2.2,2.2,0,0,0,1.33,1,0.72,0.72,0,0,0,.69-0.22,0.5,0.5,0,0,1,.73.69A1.67,1.67,0,0,1,56.19,33.54Z" transform="translate(0 -0.85)"/><path class="cls-3" d="M55.08,29.58a0.5,0.5,0,0,1-.41-0.79,11.74,11.74,0,0,1,7.47-4.32c5-.72,7.05,1.89,7.41,2.42a0.5,0.5,0,1,1-.83.55c-0.29-.44-2-2.62-6.43-2a10.86,10.86,0,0,0-6.8,3.91A0.5,0.5,0,0,1,55.08,29.58Z" transform="translate(0 -0.85)"/><path class="cls-3" d="M75,28.61a0.5,0.5,0,0,1-.33-0.87,2.2,2.2,0,0,0,.69-1,0.34,0.34,0,0,0-.13-0.21,2.37,2.37,0,0,0-1.88-.34,18.75,18.75,0,0,0-4.94,2.12,0.5,0.5,0,0,1-.5-0.86c0.14-.08,3.54-2.05,5.33-2.25a3.29,3.29,0,0,1,2.66.59,1.29,1.29,0,0,1,.47,1,2.9,2.9,0,0,1-1,1.71A0.5,0.5,0,0,1,75,28.61Z" transform="translate(0 -0.85)"/><path class="cls-3" d="M72,42.21H71.92C68.51,42.13,67,41,67,40.94a0.5,0.5,0,1,1,.63-0.78,7.83,7.83,0,0,0,4.34,1.05H72a9.29,9.29,0,0,0,5.5-2.58,2,2,0,0,0,.34-1.86,11,11,0,0,0-2.32,1,13.39,13.39,0,0,1-3.8,1.45,2.66,2.66,0,0,1-2.72-1,3,3,0,0,1-.26-3c0.77-1.48,2.92-1.9,4.81-2.27,0.6-.12,1.17-0.23,1.64-0.36a2.69,2.69,0,0,0,2-3.15,3.64,3.64,0,0,0-1.78-1.65,0.5,0.5,0,1,1,.43-0.9c0.2,0.1,2,1,2.32,2.31a3.68,3.68,0,0,1-2.67,4.35c-0.51.15-1.1,0.26-1.72,0.38-1.67.33-3.56,0.7-4.11,1.75a2,2,0,0,0,.18,1.94,1.68,1.68,0,0,0,1.75.61,12.45,12.45,0,0,0,3.51-1.35,10.33,10.33,0,0,1,2.77-1.1,0.84,0.84,0,0,1,.82.44,2.86,2.86,0,0,1-.32,3A10.19,10.19,0,0,1,72,42.21Z" transform="translate(0 -0.85)"/><path class="cls-3" d="M59.33,65.08H58.8a6.24,6.24,0,0,1-5.85-4.77,0.5,0.5,0,0,1,.11-0.43,0.49,0.49,0,0,1,.41-0.17c0.81,0,3.05-.1,3.61-1.34s0.24-1.64-2.13-4.87l-0.62-.84c-3.08-4.21-5.05-8.1-4.63-13.37s2.7-7.25,2.8-7.33a0.5,0.5,0,0,1,.66.75h0s-2.08,1.91-2.46,6.66c-0.39,5,1.49,8.66,4.44,12.7l0.62,0.84c2.38,3.23,3,4.1,2.23,5.87-0.7,1.57-2.77,1.88-3.88,1.93a5.12,5.12,0,0,0,4.74,3.37,8.82,8.82,0,0,0,7.2-3.4,0.5,0.5,0,0,1,.82.58A9.7,9.7,0,0,1,59.33,65.08Z" transform="translate(0 -0.85)"/><path class="cls-3" d="M71.86,66.56h0c-0.2,0-4.8-.33-5.7-3.43a6.84,6.84,0,0,1-.09-3c0.19-1.36.3-2.18-1.27-3.15-7.08-4.38-6.56-8.4-6.34-10.11a4.12,4.12,0,0,0,0-.46,0.5,0.5,0,0,1,1,0,5.06,5.06,0,0,1-.05.59c-0.2,1.52-.66,5.09,5.88,9.13,2.12,1.31,1.92,2.75,1.73,4.14a5.92,5.92,0,0,0,.05,2.63c0.54,1.83,3,2.44,4.15,2.63a7.36,7.36,0,0,1,2-5.76c2.86-3.25,4.24-5.9,3.36-10.56-0.22-1.18-1.4-2-2.34-2.74a6.68,6.68,0,0,1-1.17-1,3.45,3.45,0,0,1-.43-4.15,0.5,0.5,0,1,1,.82.58,2.44,2.44,0,0,0,.39,2.94,6.33,6.33,0,0,0,1,.82c1,0.76,2.43,1.79,2.73,3.36,0.95,5-.6,8-3.6,11.41-2.48,2.82-1.71,5.41-1.67,5.52A0.5,0.5,0,0,1,71.86,66.56Z" transform="translate(0 -0.85)"/><path class="cls-3" d="M86.36,62.65l-0.16,0A0.5,0.5,0,0,1,85.89,62a14,14,0,0,0,.36-2.27c0.17-1.63-1-8.26-2.61-11.32-1.07-2.08-2.83-2.82-4.53-3.53a10.38,10.38,0,0,1-2.65-1.42c-1.14-.94-0.76-3-0.72-3.21a0.5,0.5,0,0,1,1,.2c-0.09.43-.2,1.77,0.37,2.25a9.65,9.65,0,0,0,2.4,1.26c1.78,0.74,3.79,1.59,5,4,1.6,3.11,2.92,10,2.71,11.88a13.55,13.55,0,0,1-.4,2.48A0.5,0.5,0,0,1,86.36,62.65Z" transform="translate(0 -0.85)"/><path class="cls-3" d="M37.54,77.56a5,5,0,0,1-2.5-.61c-3.6-2-4.69-6.28-2.93-11.33,0.94-2.7,3.46-5.67,6.13-8.81C41.4,53.09,44.68,49.24,45,46c0.55-6-1.26-7.93-5-9.55-4.15-1.78-8.35.7-8.39,0.73A0.5,0.5,0,0,1,31,36.36c0.19-.11,4.68-2.76,9.3-0.79,4,1.73,6.23,4,5.63,10.56-0.32,3.51-3.7,7.49-7,11.33-2.61,3.07-5.07,6-6,8.49-1.59,4.56-.66,8.34,2.48,10.13,2.55,1.44,6.39-.82,6.42-0.84a0.5,0.5,0,0,1,.51.86A10.9,10.9,0,0,1,37.54,77.56Z" transform="translate(0 -0.85)"/><path class="cls-3" d="M65.89,32.24a2.38,2.38,0,0,1-2.16-1.39,0.5,0.5,0,1,1,.91-0.41,1.37,1.37,0,1,0,2.18-1.58,1.48,1.48,0,0,0-1.15-.4A0.49,0.49,0,0,1,65.14,28a0.5,0.5,0,0,1,.47-0.53,2.52,2.52,0,0,1,1.9.67A2.37,2.37,0,0,1,65.89,32.24Z" transform="translate(0 -0.85)"/><path class="cls-3" d="M65.94,31.14a1.28,1.28,0,0,1-1.16-.75A0.5,0.5,0,0,1,65.69,30a0.28,0.28,0,1,0,.44-0.32,0.3,0.3,0,0,0-.26-0.09,0.5,0.5,0,0,1-.06-1,1.33,1.33,0,0,1,1,.36A1.28,1.28,0,0,1,65.94,31.14Z" transform="translate(0 -0.85)"/><path class="cls-3" d="M63.13,33.61a0.5,0.5,0,0,1-.32-0.89c0.49-.4.6-0.87,0.9-2.32l0.15-.74c0.46-2.17,2.89-3,3-3a0.5,0.5,0,0,1,.32.95s-2,.69-2.33,2.29l-0.15.73c-0.3,1.45-.46,2.25-1.25,2.89A0.5,0.5,0,0,1,63.13,33.61Z" transform="translate(0 -0.85)"/><path class="cls-3" d="M49.76,103.34a0.5,0.5,0,0,1-.5-0.46,3,3,0,0,0-1.48-2.57,6.32,6.32,0,0,0-3.2-1.19c-0.5-.09-1.05-0.2-1.69-0.35C40,98.1,39.68,96,39.77,94.26c0.18-3.61,2.93-3.61,5.84-3.61a13.65,13.65,0,0,0,6.44-1.08c2.65-1.37,3.23-3.58,3.58-5.73A8.58,8.58,0,0,1,59.26,78c1.23-.88,4.74-1.45,8.45-2A63.73,63.73,0,0,0,75,74.5c4.18-1.27,8.35-6,8.39-6.08a0.5,0.5,0,1,1,.76.65c-0.18.21-4.39,5-8.85,6.38a64.38,64.38,0,0,1-7.42,1.47c-3.43.56-7,1.13-8,1.88A7.53,7.53,0,0,0,56.62,84c-0.38,2.29-1,4.87-4.11,6.45a14.44,14.44,0,0,1-6.9,1.19c-3.18,0-4.71.12-4.84,2.66-0.09,1.8.27,3,2.34,3.49,0.63,0.14,1.17.25,1.65,0.34a7.25,7.25,0,0,1,3.64,1.4,4,4,0,0,1,1.85,3.26,0.5,0.5,0,0,1-.45.54h0Z" transform="translate(0 -0.85)"/><path class="cls-3" d="M40.27,105.25a0.51,0.51,0,0,1-.2,0,6.19,6.19,0,0,1-2.31-1.83,3.32,3.32,0,0,0-1.46-1.16c-2.42-.76-3.81-2.42-3.81-4.57A24.26,24.26,0,0,1,33.19,93a17.82,17.82,0,0,0,.49-3V89.45c0-2.57,0-5.47,3-5.58a12.63,12.63,0,0,1,1.92.09c0.94,0.1,1.13.13,2.29-1,0.61-.61.58-1.58,0.55-2.94A12.26,12.26,0,0,1,44,71.26c1.73-2.26,4.79-3.37,7.75-4.45a23.71,23.71,0,0,0,4.64-2C57.62,64,58,63.94,58.3,64a0.62,0.62,0,0,1,.36.27,0.5,0.5,0,0,1-.57.72,4.82,4.82,0,0,0-1.11.6,24.39,24.39,0,0,1-4.85,2.14c-2.82,1-5.74,2.08-7.29,4.11A11.25,11.25,0,0,0,42.46,80c0,1.48.07,2.76-.84,3.67-1.42,1.42-1.91,1.45-3.1,1.32a11.44,11.44,0,0,0-1.78-.08c-2,.07-2.08,1.7-2.07,4.58V90a17.84,17.84,0,0,1-.51,3.19,23.59,23.59,0,0,0-.67,4.45c0,2.3,1.95,3.25,3.11,3.62a4.24,4.24,0,0,1,1.91,1.45,5.52,5.52,0,0,0,1.75,1.47,1.71,1.71,0,0,0,.8-2,2.41,2.41,0,0,0-.59-1.34,0.5,0.5,0,0,1-.15-1A0.84,0.84,0,0,1,41,100,3,3,0,0,1,42,102a2.74,2.74,0,0,1-1.57,3.21A0.49,0.49,0,0,1,40.27,105.25Zm0.32-4.38h0Zm0,0h0Z" transform="translate(0 -0.85)"/><path class="cls-3" d="M44.43,105.35h0c-0.29,0-2.89-.29-3.34-1.86a0.5,0.5,0,0,1,1-.28c0.19,0.65,1.46,1,2.23,1.12,0.37-.4,1.26-1.5.92-2.52s-1.71-1.51-2.23-1.68a0.5,0.5,0,1,1,.31-1c0.24,0.08,2.37.8,2.87,2.31,0.63,1.88-1.27,3.66-1.35,3.73A0.5,0.5,0,0,1,44.43,105.35Z" transform="translate(0 -0.85)"/><path class="cls-3" d="M47.82,104.06H47.67a3.81,3.81,0,0,1-2.35-.83,0.5,0.5,0,0,1,.68-0.74,2.84,2.84,0,0,0,1.71.56,2.41,2.41,0,0,0,1.69-.56,0.5,0.5,0,0,1,.72.69A3.31,3.31,0,0,1,47.82,104.06Z" transform="translate(0 -0.85)"/><path class="cls-3" d="M87.35,100.13a0.5,0.5,0,0,1-.5-0.46,3,3,0,0,0-1.48-2.57,6.08,6.08,0,0,0-2.56-1,16.91,16.91,0,0,1-2.62-.82c-3.21-1.34-5-2.84-5.82-4.87a6.9,6.9,0,0,1,.18-5.58,7.94,7.94,0,0,0,.63-4.2c-0.11-.76-3.73-2.53-7-3.7A0.5,0.5,0,0,1,68.48,76c1.74,0.61,7.44,2.75,7.7,4.49a8.89,8.89,0,0,1-.68,4.69A5.92,5.92,0,0,0,75.31,90c0.7,1.76,2.33,3.09,5.28,4.32a16.06,16.06,0,0,0,2.48.77A6.94,6.94,0,0,1,86,96.33a4,4,0,0,1,1.85,3.26,0.5,0.5,0,0,1-.45.54h0Z" transform="translate(0 -0.85)"/><path class="cls-3" d="M77.87,102a0.51,0.51,0,0,1-.2,0,4.08,4.08,0,0,1-1.83-1.4,5.44,5.44,0,0,0-2-1.62,17.34,17.34,0,0,0-3.32-1.11c-2.65-.72-5.39-1.46-5.74-3.54-0.25-1.46.72-3.83,1.26-5a37.26,37.26,0,0,1-8.36-1.91,7.78,7.78,0,0,1-2.12-1.18,0.5,0.5,0,0,1,.63-0.77,6.88,6.88,0,0,0,1.82,1,35.62,35.62,0,0,0,8.82,1.92,0.5,0.5,0,0,1,.42.73c-0.49,1-1.71,3.71-1.49,5s2.67,2.11,5,2.74a18,18,0,0,1,3.52,1.2A6.43,6.43,0,0,1,76.62,100a3,3,0,0,0,1.23,1,1.71,1.71,0,0,0,.8-2,2.41,2.41,0,0,0-.59-1.34,0.52,0.52,0,0,1-.5-0.36,0.5,0.5,0,0,1,.34-0.62,0.83,0.83,0,0,1,.65.11,3,3,0,0,1,1.07,2A2.74,2.74,0,0,1,78.06,102,0.49,0.49,0,0,1,77.87,102Z" transform="translate(0 -0.85)"/><path class="cls-3" d="M82,102.15h0c-0.29,0-2.89-.29-3.34-1.86a0.5,0.5,0,0,1,1-.28c0.19,0.65,1.46,1,2.23,1.12,0.37-.4,1.27-1.5.92-2.52s-1.71-1.51-2.23-1.68a0.5,0.5,0,0,1,.31-1c0.24,0.08,2.37.8,2.87,2.31,0.63,1.88-1.27,3.66-1.35,3.73A0.5,0.5,0,0,1,82,102.15Z" transform="translate(0 -0.85)"/><path class="cls-3" d="M85.41,100.85H85.26a3.8,3.8,0,0,1-2.35-.83,0.5,0.5,0,0,1,.68-0.74,2.83,2.83,0,0,0,1.71.56A2.23,2.23,0,0,0,87,99.29a0.5,0.5,0,0,1,.72.69A3.32,3.32,0,0,1,85.41,100.85Z" transform="translate(0 -0.85)"/><path class="cls-3" d="M28.11,49a0.5,0.5,0,0,1-.37-0.84c0.43-.47,1.44-1.58.49-5.74a5.36,5.36,0,0,1,2.86-6.12,0.5,0.5,0,0,1,.41.91,4.3,4.3,0,0,0-2.29,5c0.64,2.82.48,4.44,0,5.49a6,6,0,0,0,1.36-.85,0.5,0.5,0,0,1,.63.78A5.39,5.39,0,0,1,28.11,49Z" transform="translate(0 -0.85)"/><path class="cls-3" d="M37.67,79.88a9.79,9.79,0,0,1-3.59-.68C29.4,77.36,28.64,71.27,30,66.05c1-3.79,5.16-8.78,8.23-12.43a40.71,40.71,0,0,0,3-3.82c1.69-2.82,3.45-7-.73-10.85a5.19,5.19,0,0,0-3.8-1,12.15,12.15,0,0,1,1.47,3.89C38.84,45.44,36,49,32.92,50.35c-2.65,1.17-1.38,5.17-1.36,5.21a0.5,0.5,0,0,1-.88.45,10,10,0,0,1-1.46-5.66,7.21,7.21,0,0,1,1.23-3.22,8.74,8.74,0,0,0,1.41-3.63,11.09,11.09,0,0,0-.37-3.9,0.5,0.5,0,0,1,.93-0.36,11.66,11.66,0,0,1,.43,4.3,9.56,9.56,0,0,1-1.53,4.08,6.69,6.69,0,0,0-1.11,2.72,12.37,12.37,0,0,0,.15,1.86,3.7,3.7,0,0,1,2.15-2.77c2.75-1.21,5.25-4.29,4.65-7.35a10.5,10.5,0,0,0-1.75-4.17,0.5,0.5,0,0,1,.29-0.8c0.14,0,3.48-.71,5.44,1.1,5.27,4.83,2,10.3.92,12.1a40,40,0,0,1-3.11,4c-3,3.57-7.12,8.46-8,12-1.22,4.79-.6,10.35,3.52,12a9,9,0,0,0,7.21-.33,0.5,0.5,0,0,1,.5.87A9.6,9.6,0,0,1,37.67,79.88Z" transform="translate(0 -0.85)"/><path class="cls-3" d="M90.27,64.71l-0.24,0a22.38,22.38,0,0,1-4.75-2.46,28.12,28.12,0,0,0-4.85-2.56c-3.6-.83-4.6,1.09-4.61,1.11a0.5,0.5,0,1,1-.9-0.45c0.05-.11,1.37-2.64,5.73-1.64a26.49,26.49,0,0,1,5.13,2.67,25.13,25.13,0,0,0,4.41,2.34c0.42,0.09,1.2-.63,2-1.31,1.36-1.22,3-2.75,5.22-2.57a2.25,2.25,0,0,1,1.8,1.83,0.5,0.5,0,1,1-1,.3,1.47,1.47,0,0,0-.92-1.14c-1.75-.14-3.2,1.17-4.47,2.32C91.91,64,91.1,64.71,90.27,64.71Z" transform="translate(0 -0.85)"/><path class="cls-3" d="M89.18,70.31a3.06,3.06,0,0,1-1.2-.24,13,13,0,0,0-3-.69c-1.42-.22-3.36-0.53-6.3-1.24-5.95-1.44-7.15-3.86-7.19-4a0.5,0.5,0,0,1,.91-0.43s1.12,2.11,6.52,3.42c2.91,0.7,4.82,1,6.22,1.22a13.63,13.63,0,0,1,3.27.76,3.23,3.23,0,0,0,2.71-.42,3.22,3.22,0,0,1,1.28-.42,4.81,4.81,0,0,1,1.13.21,4.91,4.91,0,0,0,3.14.1,3.13,3.13,0,0,0,1.49-1.22,1.43,1.43,0,0,0-.35-1.24c-0.37-.37-1.25-0.76-3.31-0.51l-0.2,0a0.5,0.5,0,0,1,0-1h0.1c2-.24,3.35,0,4.13.79a2.39,2.39,0,0,1,.64,2.05c-0.1,1-1.61,1.81-2.07,2a5.76,5.76,0,0,1-3.8,0,4.53,4.53,0,0,0-.87-0.18,3,3,0,0,0-.85.33A5.43,5.43,0,0,1,89.18,70.31Z" transform="translate(0 -0.85)"/><path class="cls-3" d="M98.28,66.26a0.5,0.5,0,0,1-.11-1,1.74,1.74,0,0,0,1-.83,1.58,1.58,0,0,0-.72-2.2c-1.1-.61-3.29.26-4,0.64A0.5,0.5,0,0,1,94,62c0.32-.17,3.22-1.6,5-0.63a2.57,2.57,0,0,1,1.13,3.53,2.73,2.73,0,0,1-1.69,1.35H98.28Z" transform="translate(0 -0.85)"/><path class="cls-3" d="M84.71,49.9a0.5,0.5,0,0,1-.18-1c1.63-.62,5-5.76,6.35-8.16,0.21-.37-0.19-1.35-0.57-2.29-0.69-1.69-1.56-3.8-.66-5.79A2.27,2.27,0,0,1,92,31.63a0.5,0.5,0,0,1,0,1,1.45,1.45,0,0,0-1.38.49c-0.72,1.6,0,3.4.67,5,0.52,1.27,1,2.36.51,3.16,0,0.08-4.4,7.66-6.86,8.59A0.5,0.5,0,0,1,84.71,49.9Z" transform="translate(0 -0.85)"/><path class="cls-3" d="M87,59.4a1,1,0,0,1-.46-0.1A0.5,0.5,0,0,1,87,58.41s1.19,0.17,4-4.08a23.79,23.79,0,0,0,3.09-7,7.5,7.5,0,0,1,1.28-3,3.24,3.24,0,0,0,.52-2.69,3.22,3.22,0,0,1,0-1.35,4.84,4.84,0,0,1,.58-1,4.88,4.88,0,0,0,1.15-2.92A3.13,3.13,0,0,0,97,34.59a1.43,1.43,0,0,0-1.28-.09c-0.47.23-1.14,0.92-1.6,2.94,0,0.1,0,.17-0.05.19a0.5,0.5,0,0,1-.95-0.32l0-.1c0.44-1.93,1.16-3.15,2.14-3.62a2.39,2.39,0,0,1,2.15.09c0.91,0.44,1.15,2.13,1.21,2.64a5.77,5.77,0,0,1-1.32,3.56,4.53,4.53,0,0,0-.47.76,3,3,0,0,0,0,.91A4.13,4.13,0,0,1,96.12,45a7,7,0,0,0-1.06,2.57,24.67,24.67,0,0,1-3.22,7.28C89.3,58.74,87.77,59.4,87,59.4Z" transform="translate(0 -0.85)"/><path class="cls-3" d="M91,37.09a0.5,0.5,0,0,1-.5-0.44c0-.36-0.41-3.57,1.09-4.9a2.58,2.58,0,0,1,3.7.13,2.73,2.73,0,0,1,.7,2,0.5,0.5,0,1,1-1-.11,1.74,1.74,0,0,0-.43-1.25,1.58,1.58,0,0,0-2.32-.07c-0.94.83-.87,3.19-0.76,4a0.5,0.5,0,0,1-.43.56H91Z" transform="translate(0 -0.85)"/><path class="cls-3" d="M28.11,49a0.5,0.5,0,0,1-.37-0.84c0.43-.47,1.44-1.58.49-5.74a0.5,0.5,0,0,1,1-.22c0.64,2.82.48,4.44,0,5.49a6,6,0,0,0,1.36-.85,0.5,0.5,0,0,1,.63.78A5.39,5.39,0,0,1,28.11,49Z" transform="translate(0 -0.85)"/><path class="cls-3" d="M90.27,64.71l-0.24,0a22.38,22.38,0,0,1-4.75-2.46,28.12,28.12,0,0,0-4.85-2.56,6.61,6.61,0,0,0-2.33-.17,0.49,0.49,0,0,1-.56-0.43A0.5,0.5,0,0,1,78,58.51a7.7,7.7,0,0,1,2.68.18,26.49,26.49,0,0,1,5.13,2.67,25.13,25.13,0,0,0,4.41,2.34c0.42,0.09,1.2-.63,2-1.31,1.36-1.22,3-2.75,5.22-2.57a2.25,2.25,0,0,1,1.8,1.83,0.5,0.5,0,1,1-1,.3,1.47,1.47,0,0,0-.92-1.14c-1.75-.14-3.2,1.17-4.47,2.32C91.91,64,91.1,64.71,90.27,64.71Z" transform="translate(0 -0.85)"/><path class="cls-3" d="M98.28,66.26a0.5,0.5,0,0,1-.11-1,1.74,1.74,0,0,0,1-.83,1.58,1.58,0,0,0-.72-2.2c-1.1-.61-3.29.26-4,0.64A0.5,0.5,0,0,1,94,62c0.32-.17,3.22-1.6,5-0.63a2.57,2.57,0,0,1,1.13,3.53,2.73,2.73,0,0,1-1.69,1.35H98.28Z" transform="translate(0 -0.85)"/><path class="cls-3" d="M91,37.09a0.5,0.5,0,0,1-.5-0.44c0-.36-0.41-3.57,1.09-4.9a2.58,2.58,0,0,1,3.7.13,2.73,2.73,0,0,1,.7,2,0.5,0.5,0,1,1-1-.11,1.74,1.74,0,0,0-.43-1.25,1.58,1.58,0,0,0-2.32-.07c-0.94.83-.87,3.19-0.76,4a0.5,0.5,0,0,1-.43.56H91Z" transform="translate(0 -0.85)"/><path class="cls-3" d="M71.38,55.3h0A0.5,0.5,0,0,1,70.91,55a10.6,10.6,0,0,0-3.12-4.08,7.55,7.55,0,0,0-3.73-1.5,9.38,9.38,0,0,1-4.17-1.62c-1.92-1.44-2.26-2.61-2.23-3.31a8.15,8.15,0,0,1-3.93-1.55,7.21,7.21,0,0,1-2.56-6,0.5,0.5,0,0,1,1,.11,6.2,6.2,0,0,0,2.21,5.15,7.77,7.77,0,0,0,3.94,1.39,0.5,0.5,0,0,1,.4.77h0s-0.46,1,1.79,2.68a8.44,8.44,0,0,0,3.76,1.44,8.47,8.47,0,0,1,4.17,1.72,12.73,12.73,0,0,1,2.88,3.38,6.91,6.91,0,0,0,.16-4.1C69.8,45.18,67.28,44,65.05,43a19.81,19.81,0,0,1-1.77-.9c-2.81-1.67-1.51-6.88-1.46-7.1a0.5,0.5,0,1,1,1,.25s-1.17,4.7,1,6c0.51,0.3,1.08.57,1.68,0.85a11.65,11.65,0,0,1,6.92,7c1,2.42-.49,5.83-0.55,6A0.5,0.5,0,0,1,71.38,55.3Z" transform="translate(0 -0.85)"/><path class="cls-3" d="M62.45,59.19h-0.1A0.5,0.5,0,0,1,62,58.59a3.8,3.8,0,0,0-1.29-3.29c-1.87-1.8-3.31-3.18-4.09-5.6a15.64,15.64,0,0,1-.29-5.89,0.5,0.5,0,1,1,1,.14,14.89,14.89,0,0,0,.25,5.44c0.7,2.18,2,3.41,3.77,5.13a4.86,4.86,0,0,1,1.64,4.27A0.5,0.5,0,0,1,62.45,59.19Z" transform="translate(0 -0.85)"/><path class="cls-3" d="M57.19,61.64a0.5,0.5,0,0,1-.13-1,3.33,3.33,0,0,0,1.86-1.78c0.73-1.45,0-3.09-.79-4.2a14.82,14.82,0,0,0-1.29-1.59,12.43,12.43,0,0,1-2.3-3.33,11.23,11.23,0,0,1-1-7.38,0.5,0.5,0,0,1,1,.28,10.45,10.45,0,0,0,.93,6.68,11.46,11.46,0,0,0,2.14,3.08A15.73,15.73,0,0,1,59,54.12c1.3,1.92,1.6,3.72.85,5.21a4.29,4.29,0,0,1-2.5,2.3Z" transform="translate(0 -0.85)"/><path class="cls-3" d="M68.11,61.38l-0.13,0a0.5,0.5,0,0,1-.35-0.61s0.74-2.8-.4-4.43a6.8,6.8,0,0,0-2.61-2,10.2,10.2,0,0,1-2.13-1.39,5,5,0,0,1-1.34-4.79,0.5,0.5,0,0,1,1,.26,4,4,0,0,0,1,3.79,9.33,9.33,0,0,0,1.93,1.25,7.69,7.69,0,0,1,3,2.32c1.42,2,.59,5.13.55,5.26A0.5,0.5,0,0,1,68.11,61.38Z" transform="translate(0 -0.85)"/><path class="cls-3" d="M69.88,63.7a0.5,0.5,0,0,1-.44-0.25c-0.41-.74-0.23-1.86,0-3.17a12.47,12.47,0,0,0,.24-3.1c-0.2-1.94-1.1-2.55-2.73-3.65l-1-.7c-2.95-2.12-2.25-3.93-2.22-4a0.5,0.5,0,0,1,.93.37S64.27,50.42,66.49,52l1,0.69c1.63,1.1,2.91,2,3.17,4.37a13.18,13.18,0,0,1-.24,3.36A5.38,5.38,0,0,0,70.32,63,0.5,0.5,0,0,1,69.88,63.7Z" transform="translate(0 -0.85)"/><path class="cls-3" d="M74.25,57.35l-0.16,0a0.5,0.5,0,0,1-.31-0.62l0.07-.17a9.58,9.58,0,0,0,.8-5.33c-0.43-2.64-4.52-4.59-4.56-4.61a0.5,0.5,0,0,1,.42-0.91c0.19,0.09,4.61,2.2,5.13,5.35a10.58,10.58,0,0,1-.87,5.88l0,0.09A0.51,0.51,0,0,1,74.25,57.35Z" transform="translate(0 -0.85)"/><path class="cls-3" d="M71.73,60.63a0.5,0.5,0,0,1-.46-0.69,21.07,21.07,0,0,0,1.4-5,2.92,2.92,0,0,0-.84-2.33,0.5,0.5,0,0,1-.07-0.7,0.5,0.5,0,0,1,.7-0.07A3.9,3.9,0,0,1,73.66,55a21.49,21.49,0,0,1-1.47,5.35A0.5,0.5,0,0,1,71.73,60.63Z" transform="translate(0 -0.85)"/><path class="cls-3" d="M70.32,50.82a0.5,0.5,0,0,1-.42-0.23A9.91,9.91,0,0,0,67,47.9a11.68,11.68,0,0,0-2-.92c-1.8-.69-3.85-1.46-5.14-4.21-1.63-3.45.28-7.11,0.37-7.26A0.5,0.5,0,0,1,61,36s-1.76,3.38-.34,6.37c1.13,2.38,2.89,3.05,4.59,3.7a12.73,12.73,0,0,1,2.21,1,10.7,10.7,0,0,1,3.24,3,0.5,0.5,0,0,1-.16.69A0.49,0.49,0,0,1,70.32,50.82Z" transform="translate(0 -0.85)"/><path class="cls-3" d="M56.64,40.79a0.49,0.49,0,0,1-.45-0.29A4.36,4.36,0,0,1,56,38.41a4.14,4.14,0,0,1,.78-2.47,0.5,0.5,0,0,1,.73.68A3.75,3.75,0,0,0,57,38.5a3.63,3.63,0,0,0,.13,1.59,0.5,0.5,0,0,1-.26.66A0.54,0.54,0,0,1,56.64,40.79Z" transform="translate(0 -0.85)"/><path class="cls-3" d="M54,38.79a0.5,0.5,0,0,1-.49-0.4,4.37,4.37,0,0,1,.29-2.08,4.15,4.15,0,0,1,1.33-2.22,0.5,0.5,0,0,1,.55.84,3.75,3.75,0,0,0-.94,1.71,3.64,3.64,0,0,0-.25,1.57,0.5,0.5,0,0,1-.4.58H54Z" transform="translate(0 -0.85)"/></g></svg>