<?xml version="1.0" encoding="utf-8"?>
<!-- Generator: Adobe Illustrator 19.0.0, SVG Export Plug-In . SVG Version: 6.00 Build 0)  -->
<svg version="1.1" id="Слой_1" xmlns="http://www.w3.org/2000/svg" xmlns:xlink="http://www.w3.org/1999/xlink" x="0px" y="0px"
	 viewBox="0 0 16 16" enable-background="new 0 0 16 16" xml:space="preserve">
<g id="Location">
	<path id="XMLID_31_" fill="#FFFFFF" d="M8,0C4.7,0,2,2.7,2,6c0,1.3,0.4,2.6,1.2,3.6l4,6C7.4,15.8,7.7,16,8,16s0.6-0.2,0.8-0.4l4-6
		C13.6,8.6,14,7.3,14,6C14,2.7,11.3,0,8,0z M11.2,8.4L8,13.2L4.8,8.4C4.3,7.7,4,6.9,4,6c0-2.2,1.8-4,4-4s4,1.8,4,4
		C12,6.9,11.7,7.7,11.2,8.4z"/>
	<path id="XMLID_35_" fill="#FFFFFF" d="M7.3,5.3C7.1,5.5,7,5.7,7,6c0,0.3,0.1,0.5,0.3,0.7C7.5,6.9,7.7,7,8,7c0.3,0,0.5-0.1,0.7-0.3
		C8.9,6.5,9,6.3,9,6c0-0.3-0.1-0.5-0.3-0.7C8.3,4.9,7.7,4.9,7.3,5.3z"/>
</g>
</svg>
