<svg xmlns="http://www.w3.org/2000/svg" baseProfile="basic" viewBox="-552 291 175 220">
  <g fill="#d85a45">
    <path d="M-527.7 338.2l-.2-1.2c3.4-.6 6.1-.7 9-.3l-.1 1.2c-2.8-.3-5.4-.2-8.7.3z"/>
    <path d="M-519.9 337.1l.8.8.6.1-.8-1M-550.1 368.6h-.5c-.2 0-.4-.2-.5-.4-.1-.2 0-.5.2-.6 0 0 1.6-1.3 2.6-3.6.3-.7.7-1.9 1.1-3.3 1-3.5 2.5-8.4 4.9-12.1 3.3-4.9 7.3-10.3 14.4-11.5.3-.1.6.2.7.5.1.3-.2.6-.5.7-6.6 1.1-10.5 6.3-13.6 11-2.4 3.6-3.7 8.3-4.8 11.8-.4 1.5-.8 2.7-1.1 3.5-.6 1.3-1.3 2.3-1.8 3 .8-.1 1.8-.5 2.4-1.3.4-.6 1.2-2.6 1.5-3.3.1-.3.5-.5.8-.3.3.1.5.5.3.8-.1.3-1 2.7-1.6 3.6-1.4 1.3-3.5 1.5-4.5 1.5zM-546.3 375.6c-.1 0-.3-.1-.3-.2-.2-3.8 2.9-8.8 3-9 .1-.1.2-.2.4-.1.1.1.2.2.1.4 0 .1-3.1 5.1-2.9 8.7 0 0-.2.2-.3.2z"/>
    <path d="M-550.9 385.3c-.2 0-.4-.1-.5-.2-.2-.2-.1-.5 0-.7.7-.8 2.5-3.4 2.2-5-.4-2.2-.8-7.4.2-9.7.2-.5.6-1.3 1-2.3l1.1.5c-.4 1-.8 1.8-1 2.3-.8 2-.7 6.7-.2 9 .3 1.3-.4 2.8-1 4 2.1-1.3 5.2-3.8 6.3-7.6l1.1.3c-2 6.5-8.8 9.3-9.1 9.4h-.1z"/>
    <path d="M-551.4 393.6h-.2c-.2-.1-.4-.3-.4-.6 0-.1.3-2.9 1.4-4.7.5-.9 1.6-1.8 2.9-2.8 2.3-1.9 5.2-4.3 5.4-7.2.1-1.7-.9-3.4-1.3-4-.2-.3-.1-.6.1-.8.3-.2.6-.1.8.1.6.9 1.7 2.7 1.6 4.8-.3 3.4-3.3 6-5.8 8-1.1.9-2.2 1.8-2.6 2.5-.4.7-.7 1.6-.9 2.4.5-.4 1-.7 1.4-.8.3-.1.6.1.7.5.1.3-.1.6-.5.7-.5.1-1.6 1.1-2.1 1.7-.2.1-.3.2-.5.2z"/>
    <path d="M-546 417c-.2 0-.3-.1-.5-.2-.1-.2-.2-.4-.1-.6 0 0 .5-1.1.7-2.9.2-1.4-1.3-4.2-2.2-5.9-.2-.4-.4-.7-.5-1-.6-1.3-.5-3.5-.3-5l-1 .8c-.2.1-.4.2-.6.1-.2-.1-.3-.2-.4-.4 0-.1-.5-2.5 0-6.4.5-3.9 2.1-5.9 2.1-6 .2-.3.6-.3.8-.1.3.2.3.6.1.8 0 0-1.4 1.9-1.9 5.4-.3 2.2-.2 4-.2 5l1.4-1.1c.2-.2.5-.2.7 0 .2.1.3.4.3.6-.3 1.2-.8 4.5-.1 5.8.1.3.3.6.5 1 1.1 2.1 2.6 4.9 2.4 6.6-.1.8-.3 1.5-.4 2 1.3-.5 3.4-1.7 4.6-3.9 1.5-2.8 1.6-9.5 1.6-9.6 0-.3.2-.5.4-.6.2-.1.5 0 .7.2.4.6 2.4 3.6 2.5 4.9v.2c.2-.6.4-1.2.3-1.8 0-.6-.8-2-1.5-3.4-1.6-3.2-2.5-5.2-1.6-6.2.3-.3.6-.5 1-.5 1.1 0 2.3 1 3.7 2.4.2.2.3.3.5.4 2.1 2 4.7 5.8 5.5 10 .7 3.7-.8 7.3-.8 7.4-.1.3-.5.4-.8.3-.3-.1-.4-.5-.3-.8 0 0 1.4-3.4.7-6.7-.8-3.9-3.1-7.5-5.2-9.3l-.5-.5c-.8-.7-2.2-2.1-2.8-2-.1 0-.1 0-.2.1-.4.5 1.1 3.5 1.8 4.9.8 1.6 1.5 3 1.6 3.9.1 2.1-1.5 4.4-1.6 4.5-.2.2-.4.3-.7.2-.2-.1-.4-.3-.4-.6 0 0 0-1.2-.1-2.4 0-.5-.6-1.7-1.3-2.8-.1 2.3-.5 6.1-1.6 8.2-2.1 3.9-6.3 4.9-6.4 4.9.2.1.2.1.1.1zM-531.5 391.8h-.6c-.3 0-.5-.2-.5-.5s.1-.5.4-.6c0 0 1.9-.6 3-1.9.8-1 1.9-3.8 2.2-4.8.1-.2.2-.3.4-.4.2 0 .4 0 .6.1 0 0 .7.7.8 2.1.5-1 1-2.2 1.1-3.7 0-.6-.1-1.3-.3-2.1-.6-2.4-2-4.9-2-4.9-.1-.2-.1-.5.1-.7.2-.2.5-.2.7-.1l3.6 2c0-.5 0-1.1-.2-1.6-1.2-3.2-3.6-3.5-3.6-3.5-.2 0-.4-.2-.5-.4-.1-.2 0-.5.2-.6.1-.1 3.1-2.9 6.7-1.3 4.8 2.1 3.7 10.1 2.3 13.6-3.5 8.7-12 9.3-14.4 9.3zm5-5.9c-.5 1.2-1.2 2.8-1.8 3.6-.3.4-.7.7-1.1 1 3.2-.4 8.5-2.1 10.9-8.6 1.5-3.9 1.9-10.5-1.7-12.1-1.8-.8-3.5-.1-4.5.4 1 .5 2.5 1.6 3.3 3.9.5 1.4.2 3.1.2 3.1 0 .2-.2.3-.3.4-.2.1-.4.1-.5 0l-2.8-1.5c.4 1 1 2.2 1.3 3.5.3 1 .4 1.8.4 2.5-.1 4.1-3 6.7-3.1 6.8-.2.2-.5.2-.7 0-.2-.2-.3-.5-.2-.7 0 0 .4-1 .6-1.8v-.5z"/>
    <path d="M-526 437.7h-.5c-1.5-.2-3.6-1.2-4.2-3.2-.3-.8-.4-1.6-.4-2.2-.4.3-1 .5-1.7.5-1.2 0-3.1-1.2-5-2.4-1.1-.7-2.4-1.5-2.8-1.6-.8-.1-1.3.1-1.8.5-1 1-1 3.1-.9 3.8 0 .3-.2.6-.5.6-.3.1-.6-.1-.7-.4-.1-.4-1.2-3.9-1-5.3.4-3.3 2.5-6 5.8-7.4.5-.2 1.7-.5 2.7-.7-.5-.2-1-.3-1.7-.2-1.2.3-2.3.9-2.3.9-.2.1-.5.1-.7 0-.2-.2-.3-.4-.2-.7.1-.3 1.4-3.3 3.5-3.6.9-.1 1.7-.1 2.3 0-.1-.8 0-1.9.4-2.8.7-1.3 0-2-.1-2-.2-.1-.3-.4-.2-.6 0-.2.2-.4.4-.5.2 0 3.8-.9 5.5 1.5.5.7.7 1.3.9 1.8.3.7.4.9.8 1 1 .3 1.9.3 2.8-.2 2.2-1.3 3-5.1 3.1-5.4 0-.9-.1-1.7-.1-2.2v-.4c-.3-6-4.3-13.8-5.8-15.1-.2-.2-.3-.6-.1-.8.2-.2.6-.3.8-.1 1.7 1.5 5.8 9.6 6.2 16v.4c.1 1.3.3 4.4-.4 7.6-.4 1.6-.9 3.1-1.4 4.5-.6 1.6-1.2 3.3-1 4 .2.8 2.3 1 3.6.8.2 0 .3 0 .5.1.1.1.2.3.2.4 0 .2 0 4.3-2.2 5.6-1.5.9-3.1.7-4 .4-.2 1-.4 3.4 1.2 6.2.1.2.1.5 0 .7-.2.3-.4.5-1 .5zm-4.4-7.9h.1c.3.1.5.4.4.7 0 0-.4 1.9.2 3.6.5 1.5 2.2 2.2 3.1 2.4-1.9-4-.8-6.9-.7-7 .1-.2.2-.3.3-.3.2-.1.3 0 .5 0 .1 0 1.8 1 3.4 0 1.1-.7 1.5-2.7 1.6-4-1.3 0-3.7-.1-4.2-1.8-.3-1 .3-2.6 1.1-4.7.5-1.4 1.1-2.9 1.4-4.4.1-.3.1-.7.2-1-.5.9-1.3 1.8-2.2 2.3-1.1.7-2.4.8-3.7.3-.9-.3-1.2-1-1.5-1.7-.2-.4-.4-.9-.8-1.5-.8-1.2-2.4-1.3-3.4-1.2.3.6.3 1.5-.2 2.6-.5.9-.3 2.4-.2 2.9 0 .2 0 .5-.2.6-.2.1-.4.2-.6.1 0 0-1-.5-2.5-.2-.6.1-1.2.7-1.7 1.4l.9-.3c2.1-.5 3.8 1.1 3.8 1.2.2.2.2.4.2.6s-.2.4-.4.4c-1.3.3-3.3.7-3.8.9-1.4.6-4.6 2.3-5.1 6.4 0 .4 0 1 .2 1.7.2-.5.5-1 .9-1.4.7-.7 1.6-1 2.7-.8.7.1 1.7.7 3.3 1.7 1.5 1 3.5 2.2 4.4 2.2 1.4 0 1.7-1.2 1.8-1.3.2-.2.4-.4.7-.4z"/>
    <path d="M-540 437.3h-.1c-.1 0-1.4-.3-2.8-1.6-1.3-1.3-1.6-2.4-1.6-2.5-.1-.3.2-.6.5-.7.3-.1.6.2.7.5 0 0 .2.9 1.2 1.9.2.2.4.3.6.5-.4-.8-.7-1.9-.8-3.1-.2-2.6 1.6-3.9 2.6-4.2.3-.1.6.1.7.4.1.3-.1.6-.4.7-.1 0-2 .7-1.8 3 .2 2.5 1.6 4.2 1.6 4.2.2.2.2.5.1.7-.1.1-.3.2-.5.2z"/>
    <path d="M-540 437.3h-.2c-.1 0-1.3-.4-2.7-1.5-1.4-1.1-2-2.9-2.3-4.2-.3-1.4-.4-2.9-.3-3.7.4-3.3 2.5-6 5.8-7.4.5-.2 1.7-.5 2.7-.7-.5-.2-1-.3-1.7-.2-1.2.3-2.3.9-2.3.9-.2.1-.5.1-.7 0-.2-.2-.3-.4-.2-.7.1-.3 1.4-3.3 3.5-3.6.9-.1 1.7-.1 2.3 0-.1-.8 0-1.9.4-2.8.7-1.4-.1-2-.1-2-.2-.1-.3-.4-.2-.6 0-.2.2-.4.4-.5.2 0 3.8-.9 5.5 1.5.3.5.6.9.8 1.2.5.8.7 1.1 1.2 1.3l-.4 1.1c-1-.3-1.4-.9-1.9-1.8-.2-.3-.4-.7-.7-1.1-.8-1.2-2.4-1.3-3.4-1.2.3.6.3 1.5-.2 2.6-.5.9-.3 2.4-.2 2.9 0 .2 0 .5-.2.6-.2.1-.4.2-.6.1 0 0-1-.5-2.5-.2-.6.1-1.2.7-1.7 1.4l.9-.3c2.1-.5 3.8 1.1 3.8 1.2.2.2.2.4.2.6s-.2.4-.4.4c-1.3.3-3.3.7-3.8.9-1.4.6-4.6 2.3-5.1 6.4-.1 1.2.1 5.1 2.2 6.8.2.2.4.3.6.4-.4-.8-.7-1.8-.8-3-.2-2.4 1.4-3.6 2.1-4v.1l1.1.3c0 .1-.2.4-.6.7-.6.3-1.6 1.1-1.4 2.8.2 2.5 1.6 4.2 1.6 4.2.2.2.2.5 0 .7-.1.3-.3.4-.5.4zM-532.8 391.2c-.1 0-.1 0 0 0-.1 0-1.9-.4-3.5-2.8-.9-1.4-1.6-3.2-2.3-5.4 0-.1 0-.3.2-.3.1 0 .3 0 .3.2.6 2.2 1.3 4 2.2 5.3 1.4 2.2 3.1 2.5 3.1 2.5.1 0 .2.2.2.3 0 .2-.1.2-.2.2zM-528 387.3c-.9 0-4-.2-6.5-2.6-1.9-1.9-3.9-6.1-4.7-10 0-.1.1-.3.2-.3s.3.1.3.2c.8 3.8 2.7 7.9 4.6 9.7 2.7 2.6 6.3 2.4 6.3 2.4.1 0 .3.1.3.2s-.1.3-.2.3c-.1.1-.2.1-.3.1z"/>
    <path d="M-546 416.7c-.1 0-.2 0-.2-.1-.1-.1 0-.3.1-.4.1-.1 2.6-1.7 2.3-5.5-.8-9.1.9-14.6 2.1-18.5.4-1.5.8-2.7 1-3.9.9-5.9.4-10.4-.1-15.2-.5-4.9-1-10-.1-16.9.4-2.8 2.6-9.9 6.8-13 6-4.4 13.9-3.1 14-3 .1 0 .2.2.2.3 0 .1-.2.2-.3.2-.1 0-7.7-1.3-13.6 3-4.1 3-6.3 9.9-6.6 12.6-.9 6.8-.4 11.9.1 16.8.5 4.8 1 9.4.1 15.3-.2 1.2-.6 2.5-1 3.9-1.2 3.9-2.8 9.3-2 18.3.4 4.2-2.4 5.9-2.6 6-.1.1-.1.1-.2.1zM-530.8 429c-.1 0-.2-.1-.3-.2 0-.1-.2-1.6.5-3.6.4-1.3 1.6-2.7 2.8-4.1.7-.8 1.3-1.6 1.9-2.4.1-.1.2-.2.4-.1.1.1.2.2.1.4-.5.8-1.2 1.6-1.9 2.4-1.1 1.4-2.3 2.8-2.7 4-.6 1.9-.4 3.4-.4 3.4-.1.1-.2.2-.4.2zM-543.2 427.7h-.1c-.1-.1-.2-.2-.1-.4 0-.1.9-1.5 2.6-2.1 1-.4 2-.4 3.1-.4.8 0 1.5 0 2.1-.1 2.6-.6 5-2.3 6.4-3.6 1.9-1.9 4.2-6.2 4.3-6.3.1-.1.2-.2.4-.1.1.1.2.2.1.4s-2.4 4.4-4.3 6.4c-1.4 1.4-3.9 3.2-6.6 3.8-.7.2-1.4.2-2.2.2-1 0-2 0-2.9.3-1.6.6-2.4 1.9-2.4 1.9-.3-.1-.3 0-.4 0z"/>
    <path d="M-531.6 420.1c-1.4 0-2.7-.4-2.9-.6-.1-.1-.1-.3-.1-.4s.3-.1.4-.1c.3.2 3 1 4.4.1 2.1-1.3 3-3.5 3-3.5.1-.1.2-.2.3-.1.1.1.2.2.1.3 0 .1-1 2.4-3.2 3.8-.6.3-1.3.5-2 .5z"/>
    <path d="M-530.7 417.9c-.3 0-.5 0-.7-.1-1.8-.4-2.2-2.6-2.1-3.7 0-.1.1-.3.3-.2.1 0 .3.1.2.3 0 0-.2 2.8 1.6 3.2.3.1 1.6.3 2.5-.8.1-.1.3-.1.4 0 .1.1.1.3 0 .4-.6.7-1.4.9-2.2.9zM-524.2 411.4c-.2 0-.3-.2-.3-.3 0 0 .2-1.6.1-2.8-.3-4.9-3.4-7.7-6.7-10.7-3.1-2.8-6.3-5.7-7.9-10.8 0-.1 0-.3.2-.3.1 0 .3 0 .3.2 1.5 4.9 4.7 7.7 7.8 10.5 3.4 3 6.5 5.9 6.9 11 .1 1.2-.1 2.9-.1 2.9-.1.2-.2.3-.3.3zM-545.2 412.6c-.2 0-.3-.2-.3-.3 0-.2 0-.7-.1-1.3-.2-1.3-.5-3.5-.4-6.1.1-4 1.6-8 1.6-8.1 0-.1.2-.2.3-.2.1 0 .2.2.2.3 0 0-1.5 4-1.6 7.9-.1 2.6.2 4.7.4 6.1.1.7.2 1.2.1 1.5 0 .1-.1.2-.2.2zM-547.4 398.7c-.2 0-.3-.2-.3-.3.4-2.7 1.7-4.7 2.3-5.8.1-.2.3-.4.3-.6.1-.1.2-.2.4-.1.1.1.2.2.1.4-.1.1-.2.3-.3.6-.6 1.1-1.8 3.1-2.3 5.7 0 0-.1.1-.2.1zM-528.6 382.9h-.7c-3.5-.3-5.7-2.5-6.7-3.8-.6-.8-1.6-2.8-1.6-2.9-.1-.1 0-.3.1-.4.1-.1.3 0 .4.1 0 0 1 2 1.6 2.8 1 1.2 3.1 3.3 6.4 3.6 2.2.2 4.4-.8 4.4-.8.1-.1.3 0 .3.1.1.1 0 .3-.1.3-.2.2-2 1-4.1 1z"/>
    <path d="M-528.6 380.5c-.4 0-.9 0-1.4-.1-2.9-.5-5-2.7-5.1-2.7-.1-.1-.1-.3 0-.4.1-.1.3-.1.4 0 0 0 2.1 2.1 4.8 2.6 2.4.4 4.3-.5 4.3-.5.1-.1.3 0 .4.1.1.1 0 .3-.1.4-.1-.1-1.4.6-3.3.6zM-532.1 376c-.9 0-1.8-.3-2.5-.8-1.6-1-4.5-5.4-4.7-10.5-.4-10.7 4.9-18.6 5.2-19 .2-.2.5-.3.7-.2.3.1.4.4.3.7 0 0-.7 3-.5 4.8.3 2.2 1.4 4.5 2.2 5.9.7-2.8 2.4-8.7 5.2-10.6 2.6-1.8 6.2-1 10.4-.2 3.6.7 7.7 1.5 12.1 1.1 7.2-.7 10.2-3.7 11.4-5.4-3.2.4-9.7 0-14.1-1.7-2.6-1-5.7-2.8-6.5-5.1-.3-.9-.3-1.9.2-2.7.3-.6 1.1-1.3 2.9-1.1.3 0 .5.1.8.1-.2-.5-.4-.9-.6-1.2-.4-.5-1.4-.7-1.7-.8-.2 0-.4-.2-.4-.4s0-.4.2-.6c0 0 1.2-1.1 1.2-3.6 0-1.2-.4-2.2-.7-2.8-.3.7-.7 1.4-1.6 2-.9.6-1.5.7-2 .7-.4 0-.7.1-1.3.5-1.2.9-1.4 2.3-1.4 2.3 0 .3-.3.5-.5.5-.3 0-.5-.1-.6-.4 0 0-.8-1.8-2.1-1.9-1.6-.1-3.3 0-3.7 3-.1 1 .3 1.8.7 2.4.3-.7.8-1.6 1.6-2 .5-.3 1.1-.2 1.7 0 .8.4.9 1.3.9 2.5.1 2 .3 5 3.3 8.6.2.3.2.6-.1.8-.3.2-.6.2-.8-.1-3.2-3.9-3.4-7.3-3.5-9.3 0-.6-.1-1.4-.2-1.5-.3-.1-.5-.1-.6 0-.7.3-1.2 1.7-1.3 2.2 0 .2-.2.4-.4.4-.2.1-.4 0-.6-.1-.1-.1-2-1.9-1.7-4.2.5-3.9 3.1-4.2 5-4.1 1.1.1 1.9.8 2.4 1.5.3-.6.7-1.3 1.4-1.8.8-.6 1.4-.7 1.9-.7.4 0 .8-.1 1.4-.5 1.3-.9 1.4-2.4 1.4-2.5 0-.2.2-.4.4-.5.2-.1.5 0 .6.1.1.1 1.7 1.7 1.8 4.6 0 1.9-.5 3.1-1 3.8.5.2 1 .5 1.4.9.7.8 1.1 2.5 1.2 2.7 0 .2 0 .4-.2.6-.2.1-.4.2-.6.1-.7-.2-2.8-.7-3.4.2-.3.5-.4 1.1-.1 1.7.6 1.6 2.8 3.3 5.8 4.4 5 1.9 12.9 2.1 14.6 1.3.2-.1.5 0 .6.1.2.2.2.4.1.6-.1.3-2.5 6.3-13 7.3-4.7.4-8.8-.4-12.5-1.1-4.1-.8-7.3-1.5-9.5 0-3.1 2.1-5 11.2-5 11.3 0 .2-.2.4-.5.5-.2 0-.5 0-.6-.2-.1-.2-2.7-4-3.2-7.6-.1-.5-.1-1.1 0-1.8-1.5 3.2-3.6 8.8-3.3 15.3.2 4.9 3 8.8 4.1 9.6 1 .7 2.3.8 3.3.3s1.6-1.6 1.7-3c.1-2.1-1-5.8-1-5.8-.1-.2 0-.4.1-.5.1-.2.3-.2.5-.2s4.5 0 6.8 3.3c.2.3.1.6-.2.8-.3.2-.6.1-.8-.2-1.4-2-3.8-2.6-5-2.7.4 1.3 1 3.7.9 5.4-.1 1.9-1 3.3-2.4 4-.7.3-1.3.5-2 .5z"/>
    <path d="M-500.7 344.8c-2.2 0-5.1-.4-8.6-1.6-4.8-1.7-6.3-5.7-6.8-7.9-1.2-5.3 2.8-8.6 2.8-8.7.1-.1.3-.1.4 0 .1.1.1.3 0 .4 0 0-3.7 3.2-2.6 8.2.5 2.1 1.9 5.9 6.5 7.5 4 1.4 7.2 1.6 9.2 1.6 2.2-.1 3.4-.5 3.4-.5.1 0 .3 0 .3.2 0 .1 0 .3-.2.3 0 0-1.6.5-4.4.5zM-401.3 338.2c-3.3-.6-5.9-.7-8.7-.3l-.1-1.2c2.9-.3 5.6-.2 9 .3l-.2 1.2z"/>
    <path d="M-409.1 337.1l-.8.8-.6.1.8-1M-378.9 368.6c-1 0-3.1-.2-4.3-1.8-.6-.8-1.5-3.3-1.6-3.6-.1-.3 0-.6.3-.8.3-.1.6 0 .8.3.3.7 1.1 2.7 1.5 3.3.6.8 1.6 1.1 2.4 1.3-.6-.7-1.3-1.7-1.8-3-.3-.8-.7-2-1.1-3.5-1-3.5-2.4-8.2-4.8-11.8-3.1-4.7-7-9.8-13.6-11-.3-.1-.5-.4-.5-.7.1-.3.4-.5.7-.5 7.1 1.2 11.2 6.6 14.4 11.5 2.5 3.7 3.9 8.5 4.9 12.1.4 1.4.8 2.6 1.1 3.3 1 2.3 2.6 3.6 2.6 3.6.2.2.3.4.2.6-.1.2-.3.4-.5.4-.2.3-.4.3-.7.3zM-382.7 375.6c-.2 0-.3-.1-.3-.3.2-3.6-2.9-8.7-2.9-8.7-.1-.1 0-.3.1-.4.1-.1.3 0 .4.1.1.2 3.2 5.3 3 9 0 .2-.1.3-.3.3z"/>
    <path d="M-378.1 385.3h-.2c-.3-.1-7.1-2.9-9.1-9.4l1.1-.3c1.2 3.8 4.2 6.3 6.3 7.6-.7-1.2-1.3-2.7-1-4 .5-2.4.7-7.1-.2-9-.2-.5-.5-1.3-1-2.3l1.1-.5c.4 1 .8 1.8 1 2.3 1 2.4.7 7.5.2 9.7-.3 1.6 1.4 4.2 2.2 5 .2.2.2.5 0 .7 0 .1-.2.2-.4.2z"/>
    <path d="M-377.6 393.6c-.2 0-.3-.1-.5-.2-.6-.7-1.6-1.6-2.1-1.7-.3-.1-.5-.4-.5-.7.1-.3.4-.5.7-.5.5.1 1 .4 1.4.8-.2-.8-.5-1.7-.9-2.4s-1.5-1.6-2.6-2.5c-2.5-2.1-5.5-4.6-5.8-8-.2-2.1.9-3.9 1.6-4.8.2-.3.6-.3.8-.1.3.2.3.6.1.8-.4.6-1.5 2.3-1.3 4 .2 2.9 3.1 5.3 5.4 7.2 1.3 1.1 2.4 2 2.9 2.8 1.1 1.8 1.4 4.6 1.4 4.7 0 .3-.1.5-.4.6h-.2z"/>
    <path d="M-383 417h-.1c-.2 0-4.4-1-6.4-4.9-1.1-2.1-1.5-5.9-1.6-8.2-.7 1.1-1.3 2.2-1.3 2.8-.1 1.2-.1 2.4-.1 2.4 0 .3-.2.5-.4.6-.2.1-.5 0-.7-.2-.1-.1-1.7-2.3-1.6-4.5.1-.9.8-2.3 1.6-3.9.7-1.4 2.2-4.4 1.8-4.9 0-.1-.1-.1-.2-.1-.7 0-2.1 1.3-2.8 2l-.5.5c-2 1.9-4.4 5.5-5.2 9.3-.7 3.4.7 6.7.7 6.7.1.3 0 .6-.3.8-.3.1-.6 0-.8-.3-.1-.1-1.6-3.7-.8-7.4.8-4.1 3.4-8 5.5-10 .1-.1.3-.3.5-.4 1.4-1.4 2.6-2.4 3.7-2.4.4 0 .7.2 1 .5.9 1 0 3-1.6 6.2-.7 1.4-1.4 2.8-1.5 3.4 0 .6.1 1.2.3 1.8v-.2c.1-1.3 2.1-4.3 2.5-4.9.1-.2.4-.3.7-.2.2.1.4.3.4.6 0 .1 0 6.8 1.6 9.6 1.2 2.3 3.3 3.4 4.6 3.9-.1-.5-.3-1.2-.4-2-.2-1.8 1.3-4.6 2.4-6.6.2-.4.4-.7.5-1 .7-1.3.2-4.6-.1-5.8-.1-.2.1-.5.3-.6.2-.1.5-.1.7 0l1.4 1.1c.1-1 .1-2.8-.2-5-.5-3.6-1.9-5.4-1.9-5.4-.2-.3-.2-.6.1-.8.3-.2.6-.2.8.1.1.1 1.6 2.1 2.1 6 .5 3.8.1 6.3 0 6.4 0 .2-.2.4-.4.4-.2.1-.4 0-.6-.1l-1-.8c.2 1.5.4 3.8-.3 5-.1.3-.3.6-.5 1-.9 1.7-2.4 4.6-2.2 5.9.2 1.8.7 2.9.7 2.9.1.2.1.4-.1.6 0 .1-.1.1-.3.1zM-397.5 391.8c-2.4 0-10.9-.6-14.1-9.5-1.3-3.5-2.4-11.5 2.3-13.6 3.5-1.6 6.5 1.2 6.7 1.3.2.2.2.4.2.6-.1.2-.3.4-.5.4-.1 0-2.4.3-3.6 3.5-.2.6-.2 1.2-.2 1.6l3.6-2c.2-.1.5-.1.7.1.2.2.2.5.1.7 0 0-1.4 2.6-2 4.9-.2.9-.3 1.6-.3 2.1.1 1.5.5 2.8 1.1 3.7 0-1.4.7-2.1.8-2.1.1-.1.4-.2.6-.1.2 0 .4.2.4.4.3 1 1.4 3.8 2.2 4.8 1.1 1.3 2.9 1.9 3 1.9.3.1.5.3.4.6 0 .3-.3.5-.5.5-.3.2-.5.2-.9.2zm-9.5-22.4c-.6 0-1.2.1-1.8.4-3.6 1.6-3.2 8.2-1.7 12.1 2.4 6.5 7.7 8.2 10.9 8.6-.4-.3-.7-.6-1.1-1-.7-.8-1.4-2.4-1.8-3.6 0 .2 0 .3.1.5.1.8.6 1.8.6 1.8.1.3 0 .6-.2.7-.2.2-.5.1-.7 0-.1-.1-3-2.7-3.1-6.8 0-.7.1-1.5.4-2.5.3-1.2.9-2.5 1.3-3.5l-2.8 1.5c-.2.1-.4.1-.5 0-.2-.1-.3-.2-.3-.4 0-.1-.3-1.7.2-3.1.9-2.4 2.3-3.4 3.3-3.9-.8-.4-1.7-.8-2.8-.8z"/>
    <path d="M-403 437.7c-.6 0-.8-.2-.9-.3-.1-.2-.2-.5 0-.7 1.6-2.9 1.4-5.2 1.2-6.2-.9.3-2.5.6-4-.4-2.2-1.4-2.2-5.4-2.2-5.6 0-.2.1-.3.2-.4.1-.1.3-.2.5-.1 1.3.1 3.4 0 3.6-.8.2-.7-.4-2.3-1-4-.5-1.4-1.1-3-1.4-4.5-.7-3.2-.5-6.3-.4-7.6v-.4c.3-6.4 4.5-14.5 6.2-16 .2-.2.6-.2.8.1.2.2.2.6-.1.8-1.5 1.3-5.5 9.2-5.8 15.1v.4c0 .5-.1 1.2-.1 2.2.1.3.9 4.1 3.1 5.4.8.5 1.7.5 2.8.2.4-.1.5-.3.8-1 .2-.5.5-1.1.9-1.8 1.8-2.5 5.4-1.6 5.5-1.5.2.1.4.2.4.5 0 .2 0 .5-.2.6-.1.1-.8.7-.1 2 .4.8.5 2 .4 2.8.6-.1 1.3-.2 2.3 0 2.1.3 3.3 3.3 3.5 3.6.1.2 0 .5-.2.7-.2.2-.5.2-.7 0 0 0-1-.6-2.3-.9-.6-.1-1.2 0-1.7.2 1 .2 2.2.5 2.7.7 3.3 1.4 5.4 4.1 5.8 7.4.2 1.4-.9 5-1 5.3-.1.3-.4.5-.7.4-.3-.1-.5-.3-.5-.6.1-.7.1-2.9-.9-3.8-.4-.4-1-.6-1.8-.5-.5.1-1.7.9-2.8 1.6-1.8 1.2-3.7 2.4-5 2.4-.7 0-1.2-.2-1.7-.5 0 .7-.1 1.5-.4 2.2-.7 2-2.7 3-4.2 3.2-.3-.2-.5-.2-.6-.2zm.6-8.7h.2c.2.1.3.2.3.3.1.1 1.2 3-.7 7 1-.2 2.6-.8 3.1-2.4.6-1.7.2-3.6.2-3.6-.1-.3.1-.6.4-.7.3-.1.6.1.7.4 0 .1.4 1.3 1.8 1.3.9 0 2.8-1.2 4.4-2.2 1.6-1 2.6-1.7 3.3-1.7 1.1-.1 2 .1 2.7.8.4.4.7.9.9 1.4.1-.7.2-1.4.2-1.7-.4-4.1-3.7-5.9-5.1-6.4-.6-.2-3-.8-3.8-.9-.2 0-.4-.2-.4-.4-.1-.2 0-.4.2-.6.1-.1 1.7-1.7 3.8-1.2l.9.3c-.5-.7-1.1-1.3-1.7-1.4-1.6-.2-2.5.2-2.5.2-.2.1-.4.1-.6-.1-.2-.1-.3-.4-.2-.6.1-.5.3-2.1-.2-2.9-.6-1.1-.5-2-.2-2.6-1-.1-2.5 0-3.4 1.2-.4.6-.6 1.1-.8 1.5-.3.7-.6 1.4-1.5 1.7-1.4.5-2.6.4-3.7-.3-.9-.5-1.7-1.4-2.2-2.3.1.3.1.7.2 1 .3 1.5.9 3 1.4 4.4.8 2 1.3 3.7 1.1 4.7-.4 1.7-2.9 1.8-4.2 1.8.1 1.2.5 3.3 1.6 4 1.6 1 3.4.1 3.4 0 .2.1.3 0 .4 0z"/>
    <path d="M-389 437.3c-.2 0-.4-.1-.5-.3-.1-.2-.1-.5.1-.7 0 0 1.4-1.7 1.6-4.2.2-2.3-1.7-2.9-1.8-3-.3-.1-.5-.4-.4-.7.1-.3.4-.5.7-.4 1 .3 2.8 1.6 2.6 4.2-.1 1.2-.5 2.3-.8 3.1.2-.1.4-.3.6-.5 1.1-1 1.2-1.9 1.2-1.9.1-.3.4-.5.7-.5.3.1.5.4.5.7 0 .1-.2 1.3-1.6 2.5-1.3 1.3-2.7 1.5-2.8 1.6l-.1.1z"/>
    <path d="M-389 437.3c-.2 0-.4-.1-.5-.3-.1-.2-.1-.5 0-.7 0 0 1.4-1.7 1.6-4.2.2-1.7-.8-2.5-1.4-2.8-.4-.2-.6-.6-.6-.7l1.1-.3v-.1c.7.4 2.3 1.5 2.1 4-.1 1.2-.4 2.2-.8 3 .2-.1.4-.3.6-.4 2.1-1.7 2.3-5.6 2.2-6.8-.4-4.1-3.7-5.9-5.1-6.4-.6-.2-3-.8-3.8-.9-.2 0-.4-.2-.4-.4-.1-.2 0-.4.2-.6.1-.1 1.7-1.7 3.8-1.2l.9.3c-.5-.7-1.1-1.3-1.7-1.4-1.6-.2-2.5.2-2.5.2-.2.1-.4.1-.6-.1-.2-.1-.3-.4-.2-.6.1-.5.3-2.1-.2-2.9-.6-1.1-.5-2-.2-2.6-1-.1-2.5 0-3.4 1.2-.3.4-.5.8-.7 1.1-.5.8-.9 1.4-1.9 1.8l-.4-1.1c.6-.2.7-.4 1.2-1.3.2-.3.5-.7.8-1.2 1.8-2.5 5.4-1.6 5.5-1.5.2.1.4.2.4.5 0 .2 0 .5-.2.6-.1.1-.8.7-.1 2 .4.8.5 2 .4 2.8.6-.1 1.3-.2 2.3 0 2.1.3 3.3 3.3 3.5 3.6.1.2 0 .5-.2.7-.2.2-.5.2-.7 0 0 0-1-.6-2.3-.9-.6-.1-1.2 0-1.7.2 1 .2 2.2.5 2.7.7 3.3 1.4 5.4 4.1 5.8 7.4.1.8 0 2.3-.3 3.7-.3 1.3-1 3.1-2.3 4.2-1.4 1.1-2.6 1.5-2.7 1.5-.1-.1-.2-.1-.2-.1zM-396.2 391.2c-.1 0-.2-.1-.3-.2 0-.1.1-.3.2-.3 0 0 1.7-.4 3.1-2.5.9-1.3 1.6-3.1 2.2-5.3 0-.1.2-.2.3-.2.1 0 .2.2.2.3-.6 2.2-1.4 4.1-2.3 5.4-1.4 2.5-3.2 2.8-3.4 2.8.1 0 .1 0 0 0zM-401 387.3h-.2c-.1 0-.3-.1-.2-.3 0-.1.1-.3.3-.2 0 0 3.6.2 6.3-2.4 1.9-1.8 3.8-5.9 4.6-9.7 0-.1.2-.2.3-.2.1 0 .2.2.2.3-.8 3.9-2.8 8.1-4.7 10-2.6 2.3-5.7 2.5-6.6 2.5z"/>
    <path d="M-383 416.7h-.1c-.1-.1-2.9-1.8-2.6-6 .8-9-.8-14.4-2-18.3-.4-1.5-.8-2.7-1-3.9-.9-5.9-.4-10.5.1-15.3.5-4.9 1-10 .1-16.8-.4-2.7-2.5-9.6-6.6-12.6-5.8-4.3-13.5-3-13.6-3-.1 0-.3-.1-.3-.2s.1-.3.2-.3 8-1.4 14 3c4.2 3.1 6.5 10.2 6.8 13 .9 6.9.4 12-.1 16.9-.5 4.8-1 9.3-.1 15.2.2 1.2.6 2.4 1 3.9 1.2 4 2.9 9.4 2.1 18.5-.3 3.8 2.3 5.5 2.3 5.5.1.1.2.2.1.4h-.3zM-398.2 429c-.2 0-.3-.1-.3-.3 0 0 .2-1.5-.4-3.4-.4-1.2-1.5-2.6-2.7-4-.7-.8-1.4-1.6-1.9-2.4-.1-.1 0-.3.1-.4.1-.1.3 0 .4.1.5.8 1.2 1.6 1.9 2.4 1.2 1.4 2.4 2.8 2.8 4.1.6 2 .5 3.5.5 3.6-.1.2-.3.3-.4.3zM-385.8 427.7c-.1 0-.2 0-.2-.1 0 0-.8-1.3-2.4-1.9-.9-.3-1.9-.3-2.9-.3-.8 0-1.5 0-2.2-.2-2.7-.6-5.2-2.4-6.6-3.8-2-2-4.3-6.2-4.3-6.4-.1-.1 0-.3.1-.4.1-.1.3 0 .4.1 0 0 2.3 4.4 4.3 6.3 1.4 1.4 3.8 3.1 6.4 3.6.6.1 1.3.1 2.1.1 1 0 2.1 0 3.1.4 1.7.6 2.6 2.1 2.6 2.1.1.1 0 .3-.1.4-.2 0-.2.1-.3.1z"/>
    <path d="M-397.4 420.1c-.7 0-1.5-.1-2.1-.5-2.2-1.3-3.2-3.7-3.2-3.8-.1-.1 0-.3.1-.3.1-.1.3 0 .3.1 0 0 1 2.3 3 3.5 1.4.9 4.2.1 4.4-.1.1-.1.3-.1.4.1.1.1.1.3-.1.4-.1.1-1.4.6-2.8.6z"/>
    <path d="M-398.3 417.9c-.8 0-1.7-.3-2.3-1-.1-.1-.1-.3 0-.4.1-.1.3-.1.4 0 .8 1.1 2.2.8 2.5.8 1.9-.4 1.6-3.1 1.6-3.2 0-.1.1-.3.2-.3s.3.1.3.2c.1 1.1-.2 3.3-2.1 3.7-.1.2-.3.2-.6.2zM-404.8 411.4c-.1 0-.2-.1-.3-.2 0-.1-.2-1.7-.1-2.9.3-5.1 3.5-8 6.9-11 3.1-2.8 6.2-5.6 7.8-10.5 0-.1.2-.2.3-.2.1 0 .2.2.2.3-1.6 5-4.8 7.9-7.9 10.8-3.3 3-6.4 5.8-6.7 10.7-.1 1.2.1 2.8.1 2.8 0 .1-.1.2-.3.2zM-383.8 412.6c-.1 0-.2-.1-.3-.2 0-.3 0-.7.1-1.5.2-1.4.5-3.5.4-6.1-.1-3.9-1.6-7.9-1.6-7.9 0-.1 0-.3.2-.3.1 0 .3 0 .3.2 0 0 1.5 4.1 1.6 8.1.1 2.6-.2 4.8-.4 6.1-.1.6-.2 1.1-.1 1.3.1.1 0 .2-.2.3zM-381.6 398.7c-.1 0-.2-.1-.3-.2-.4-2.6-1.6-4.6-2.3-5.7-.1-.2-.3-.4-.3-.6-.1-.1 0-.3.1-.4.1-.1.3 0 .4.1.1.1.2.3.3.6.7 1.1 1.9 3.2 2.3 5.8.1.3 0 .4-.2.4zM-400.4 382.9c-2.1 0-3.9-.8-4-.8-.1-.1-.2-.2-.1-.3.1-.1.2-.2.3-.1 0 0 2.2 1 4.4.8 3.3-.3 5.4-2.4 6.4-3.6.6-.7 1.6-2.8 1.6-2.8.1-.1.2-.2.4-.1.1.1.2.2.1.4 0 .1-1 2.1-1.6 2.9-1 1.3-3.2 3.4-6.7 3.8-.4-.2-.6-.2-.8-.2z"/>
    <path d="M-400.4 380.5c-1.9 0-3.2-.7-3.2-.7-.1-.1-.2-.2-.1-.4.1-.1.2-.2.4-.1 0 0 1.9.9 4.3.5 2.7-.5 4.8-2.6 4.8-2.6.1-.1.3-.1.4 0 .1.1.1.3 0 .4-.1.1-2.2 2.3-5.1 2.7-.6.1-1.1.2-1.5.2zM-396.9 376c-.7 0-1.3-.1-1.9-.4-1.4-.7-2.2-2.1-2.4-4-.1-1.7.5-4.2.8-5.4-1.3.2-3.6.7-5 2.7-.2.3-.6.3-.8.2-.3-.2-.3-.6-.2-.8 2.3-3.3 6.6-3.3 6.8-3.3.2 0 .4.1.5.2.1.2.1.3.1.5 0 0-1.2 3.7-1 5.8.1 1.4.7 2.5 1.7 3s2.3.4 3.3-.3c1.1-.7 4-4.6 4.1-9.6.2-6.5-1.8-12.1-3.3-15.3 0 .6.1 1.2 0 1.8-.4 3.6-3.1 7.5-3.2 7.6-.1.2-.4.3-.6.2-.2 0-.4-.2-.5-.5 0-.1-1.9-9.1-5-11.3-2.2-1.5-5.4-.8-9.5 0-3.7.7-7.8 1.6-12.5 1.1-10.5-1-12.9-7-13-7.3-.1-.2 0-.5.1-.6.2-.2.4-.2.6-.1 1.7.7 9.6.6 14.6-1.3 3-1.1 5.2-2.9 5.8-4.4.2-.6.2-1.2-.1-1.7-.5-.9-2.7-.5-3.4-.2-.2.1-.4 0-.6-.1-.2-.1-.2-.4-.2-.6 0-.2.4-1.9 1.2-2.7.4-.4.9-.7 1.4-.9-.5-.7-1-2-1-3.8.1-2.9 1.7-4.5 1.8-4.6.2-.2.4-.2.6-.1.2.1.4.3.4.5 0 0 .1 1.6 1.4 2.5.6.5 1 .5 1.4.5.5 0 1.1.1 1.9.7.7.5 1.2 1.2 1.4 1.8.5-.7 1.3-1.4 2.4-1.5 1.9-.1 4.5.1 5 4.1.3 2.3-1.7 4.1-1.7 4.2-.2.1-.4.2-.6.1-.2-.1-.4-.2-.4-.4-.2-.7-.7-1.9-1.3-2.2-.1-.1-.3-.1-.6 0-.2.1-.2.9-.2 1.5-.1 2-.3 5.4-3.5 9.3-.2.3-.6.3-.8.1-.3-.2-.3-.6-.1-.8 3-3.6 3.1-6.6 3.3-8.6.1-1.2.1-2.1.9-2.5.6-.3 1.1-.3 1.7 0 .8.4 1.3 1.3 1.6 2 .4-.6.9-1.5.7-2.4-.4-3-2.1-3.2-3.7-3-1.3.1-2.1 1.9-2.1 1.9-.1.2-.3.4-.6.4s-.5-.2-.5-.5c0 0-.3-1.5-1.4-2.3-.5-.4-.8-.4-1.3-.5-.5 0-1.1-.1-2-.7-.8-.6-1.3-1.3-1.6-2-.4.7-.7 1.6-.7 2.8-.1 2.5 1.1 3.6 1.2 3.6.2.1.2.4.2.6-.1.2-.2.4-.4.4-.3.1-1.3.4-1.7.8-.2.2-.4.7-.6 1.2.2 0 .5-.1.8-.1 1.8-.2 2.6.5 2.9 1.1.5.8.6 1.8.2 2.7-.8 2.3-3.9 4.1-6.5 5.1-4.4 1.7-10.9 2.1-14.1 1.7 1.2 1.7 4.2 4.8 11.4 5.4 4.5.4 8.6-.4 12.1-1.1 4.2-.8 7.8-1.6 10.4.2 2.7 1.9 4.5 7.8 5.2 10.6.8-1.4 2-3.7 2.2-5.9.2-1.7-.5-4.7-.5-4.8-.1-.3.1-.6.3-.7.3-.1.6 0 .7.2.2.3 5.6 8.2 5.2 19-.2 5.1-3.1 9.5-4.7 10.5-.8.4-1.6.7-2.5.7z"/>
    <path d="M-428.3 344.8c-2.7 0-4.3-.6-4.4-.6-.1 0-.2-.2-.2-.3 0-.1.2-.2.3-.2 0 0 1.3.4 3.4.5 2 .1 5.2-.1 9.2-1.6 4.6-1.7 6-5.4 6.5-7.5 1.1-5-2.6-8.1-2.6-8.2-.1-.1-.1-.3 0-.4s.3-.1.4 0c0 0 4 3.4 2.8 8.7-.5 2.2-2 6.2-6.8 7.9-3.5 1.4-6.5 1.7-8.6 1.7z"/>
    <circle cx="-459.4" cy="329.6" r=".5"/>
    <circle cx="-459.6" cy="326.8" r=".5"/>
    <circle cx="-459.6" cy="324" r=".5"/>
    <circle cx="-459.4" cy="321" r=".5"/>
    <path d="M-451.8 329.9c-.3 0-.6-.2-.6-.6-.2-3.7.9-7.2 1.7-10.2.7-2.4 1.3-4.6 1.3-6.5 0-3.7-1.1-7-3.2-9.4-2.2-2.5-5.2-3.8-8.8-3.8-4 0-8 1.2-11 3.3-3.5 2.4-5.5 5.9-5.9 10 0 .3-.3.6-.6.5-.3 0-.6-.3-.5-.6.4-4.5 2.6-8.2 6.4-10.9 3.2-2.2 7.4-3.5 11.7-3.5 7.7 0 13.2 5.9 13.2 14.4 0 2.1-.7 4.4-1.4 6.9-.9 3-1.9 6.3-1.7 9.8 0 .3-.3.6-.6.6z"/>
    <path d="M-453.4 327.5c-.1 0-.3-.1-.3-.3-.1-3.2.7-6.2 1.5-8.8.6-2.1 1.2-4 1.2-5.7 0-6.9-4.4-11.7-10.6-11.7-.1 0-.3-.1-.3-.3s.1-.3.3-.3c6.6 0 11.2 5 11.2 12.2 0 1.8-.6 3.8-1.2 5.9-.8 2.6-1.6 5.5-1.5 8.6-.1.3-.2.4-.3.4zM-467.2 301.9c-.1 0-.2-.1-.3-.2 0-.1 0-.3.2-.3.9-.3 1.8-.5 2.8-.7.1 0 .3.1.3.2s-.1.3-.2.3c-1 .2-1.9.5-2.8.7zM-471.8 337.7c-.3 0-.5-.2-.6-.5-.4-3.4-1.4-6-2.5-9.2-.1-.3 0-.6.4-.8.3-.1.6 0 .8.4 1.2 3.3 2.1 5.9 2.6 9.5 0 .2-.3.5-.7.6.1 0 .1 0 0 0z"/>
    <path d="M-478.4 327.9c-.1 0-.2-.1-.3-.2 0 0-.6-4.1-3.1-8.6-.7-1.3-3.8-5.4-3.8-5.5-.1-.1-.1-.2 0-.3.1-.1.2-.1.3-.1.1 0 8.2 4.2 16.9 2.8 3.5-.6 9.3-3.1 10-3.6.1-.1.3-.1.4 0 .1.1.1.3 0 .4-.8.7-6.8 3.2-10.3 3.8-7.1 1.1-13.9-1.4-16.3-2.4.9 1.3 2.7 3.7 3.2 4.7 2.2 3.9 3 7.6 3.1 8.6l11-.2 10.7-13c.1-.1.3-.1.4 0 .1.1.1.3 0 .4l-10.8 13.1c0 .1-.1.1-.2.1h-11.2z"/>
    <path d="M-455.8 314.5c-1.4 0-2.6-1.2-2.6-2.6 0-1.4 1.2-2.6 2.6-2.6 1.4 0 2.6 1.2 2.6 2.6 0 1.4-1.1 2.6-2.6 2.6zm0-4.7c-1.2 0-2.1.9-2.1 2.1s.9 2.1 2.1 2.1 2.1-.9 2.1-2.1-.9-2.1-2.1-2.1z"/>
    <path d="M-455.8 313c-.6 0-1.1-.5-1.1-1.1s.5-1.1 1.1-1.1 1.1.5 1.1 1.1-.5 1.1-1.1 1.1zm0-1.7c-.3 0-.5.2-.5.5s.2.5.5.5.5-.2.5-.5c.1-.2-.2-.5-.5-.5zM-457.2 331.3c-.1 0-.2-.1-.3-.2 0-.2-.7-4.9-.4-8.1.5-4.6 1.8-8.8 1.8-8.8 0-.1.2-.2.3-.2.1 0 .2.2.2.3 0 0-1.3 4.2-1.8 8.7-.3 3.1.4 7.9.4 8 .1.2 0 .3-.2.3zM-458.3 311.7s-.1 0 0 0c-.1 0-6.9-1.1-9.7-1.9-6.4-1.8-8-4-8.1-4.1-.1-.1-.1-.3.1-.4.1-.1.3-.1.4.1 0 0 1.7 2.2 7.8 3.9 2.8.8 9.6 1.8 9.6 1.8.1 0 .2.2.2.3-.1.2-.2.3-.3.3z"/>
    <path d="M-458.9 310.1c-.1 0-.1 0 0 0-.1 0-5.9-.7-9.5-1.9-6.2-2.1-6.8-3.7-6.9-3.8 0-.1 0-.3.2-.3.1 0 .3 0 .3.2 0 0 .7 1.5 6.5 3.5 3.6 1.2 9.3 1.9 9.3 1.9.1 0 .2.1.2.3.1 0 0 .1-.1.1zM-470.2 337.8c-.9 0-1.6-.1-1.6-.1-.1 0-.2-.2-.2-.3 0-.1.2-.2.3-.2 0 0 3.7.7 6.3-1.4 5.7-4.6 13.4-6.7 13.5-6.7.1 0 .3 0 .3.2 0 .1 0 .3-.2.3-.1 0-7.6 2.1-13.3 6.6-1.6 1.3-3.7 1.6-5.1 1.6z"/>
    <path d="M-470.3 342.6c-1.2 0-2.5-.1-4.1-.2-3.4-.3-8.1-1.4-8.3-1.4-.2 0-.4-.2-.4-.4-.1-.2 0-.4.1-.6l9.1-9.3c.2-.2.6-.2.8 0 .2.2.2.6 0 .8l-8.3 8.5c1.6.3 4.8 1 7.1 1.2 5.6.5 7.7.2 13.6-1.6.3-.1.6.1.7.4.1.3-.1.6-.4.7-4.3 1.4-6.7 1.9-9.9 1.9z"/>
    <path d="M-453.2 341.9c-.8 0-1.7 0-2.5-.1-2.3-.2-4.9-1-5-1-.3-.1-.5-.4-.4-.7.1-.3.4-.5.7-.4 0 0 2.6.8 4.7 1 4.5.3 8.9-.3 10.7-.7l-7.5-10.3c-.2-.3-.1-.6.1-.8.3-.2.6-.1.8.1l8 11.1c.1.2.1.4.1.6-.1.2-.2.3-.4.4 0-.1-4.2.8-9.3.8zM-485.4 313.7c-.1 0-.2 0-.2-.1-.1-.1 0-.3.1-.4.2-.1 6-3.6 7.1-4.1.1-.1.3 0 .3.1.1.1 0 .3-.1.3-1.1.5-6.9 4-7 4.1-.1.1-.2.1-.2.1zM-469.7 314.4c-4.5 0-9.2-1.2-9.2-1.2-.1 0-.2-.2-.2-.3 0-.1.2-.2.3-.2 0 0 4.6 1.2 9.1 1.2 3.4 0 11.3-1.5 11.4-1.5.1 0 .3.1.3.2s-.1.3-.2.3c-.3 0-8.1 1.5-11.5 1.5zM-475.2 325c-.1 0-.2-.1-.3-.2-.9-4.1-2.2-5.9-2.2-6-.1-.1-.1-.3.1-.4.1-.1.3-.1.4.1.1.1 1.4 1.9 2.3 6.1-.1.3-.1.4-.3.4zM-470.5 324c-.1 0-.2-.1-.3-.2-.6-3.1-1.5-4.6-1.5-4.6-.1-.1 0-.3.1-.4.1-.1.3 0 .4.1 0 .1 1 1.5 1.6 4.8 0 .1-.1.3-.3.3.1 0 0 0 0 0zM-466.1 322c-.1 0-.2-.1-.3-.2-.4-2.3-1.1-3.4-1.1-3.4-.1-.1 0-.3.1-.4.1-.1.3 0 .4.1 0 0 .8 1.2 1.2 3.6 0 .1-.1.2-.3.3.1 0 0 0 0 0z"/>
    <path d="M-461 340.4c-.1 0-.2-.1-.3-.2 0-.1 0-.3.2-.3 2.7-.9 6.4-3.6 7.3-4.2l-3.7-5c-.1-.1-.1-.3.1-.4.1-.1.3-.1.4.1l3.8 5.2c.1.1.1.3-.1.4-.1 0-4.5 3.3-7.7 4.4.1 0 .1 0 0 0zM-530.5 457.5h-15.6c-.3 0-.5-.2-.6-.4-.1-.2 0-.5.2-.7l10.4-7.5-10.4-7.1c-.2-.1-.3-.4-.2-.7.1-.2.3-.4.6-.4h21c.2 0 4.2-.1 6.2.5 1.5.5 2.4 1.4 2.4 2.6 0 3.7-8 6.8-8.9 7.1-.3.1-.6 0-.8-.3-.1-.3 0-.6.3-.8 3.1-1.2 8.1-3.8 8.1-6 0-.9-1.2-1.3-1.6-1.5-1.8-.6-5.8-.4-5.8-.4h-19.1l9.5 6.5c.2.1.3.3.3.5s-.1.4-.2.5l-9.6 6.9h13.7c.3 0 .6.3.6.6.1.3-.2.6-.5.6z"/>
    <path d="M-464.5 503.8c-13.7 0-27.8-3.9-40.7-11.2-11.3-6.4-21.5-15.4-28.8-25.3-.7-1-1.5-2.1-2.1-3.1-.1-.2-.1-.5 0-.7l10-13.5c.1-.2.3-.2.5-.2s.4.1.5.3c6.4 9.8 15.3 18.7 25.1 25 11.2 7.2 23.5 11 35.5 11 .3 0 .6.3.6.6s-.3.6-.6.6c-12.2 0-24.7-3.9-36.1-11.2-9.7-6.3-18.6-15-25-24.6l-9.2 12.5c.6.9 1.2 1.8 1.9 2.7 7.2 9.8 17.3 18.7 28.4 25 12.7 7.2 26.6 11.1 40.1 11.1.3 0 .6.3.6.6-.1.1-.4.4-.7.4z"/>
    <path d="M-519 459.1s-.1 0 0 0c-.4 0-.6-.3-.6-.7l1.9-14.7c0-.3.3-.6.7-.5.3 0 .6.3.5.7l-1.9 14.7c-.1.3-.3.5-.6.5zM-382.9 457.5h-15.6c-.3 0-.6-.3-.6-.6s.3-.6.6-.6h13.7l-9.6-6.9c-.2-.1-.2-.3-.2-.5s.1-.4.3-.5l9.5-6.5h-19.1c-.1 0-4.1-.1-5.8.4-.4.1-1.6.6-1.6 1.5 0 2.2 5 4.8 8.1 6 .3.1.5.5.3.8-.1.3-.5.5-.8.3-.9-.3-8.9-3.4-8.9-7.1 0-1.1.9-2.1 2.4-2.6 2-.6 6-.5 6.2-.5h21c.3 0 .5.2.6.4.1.2 0 .5-.2.7L-393 449l10.4 7.5c.2.1.3.4.2.7 0 .1-.3.3-.5.3z"/>
    <path d="M-464.5 503.8c-.3 0-.6-.3-.6-.6s.3-.6.6-.6c13.5 0 27.4-3.8 40.1-11.1 11.1-6.3 21.2-15.2 28.4-25 .7-.9 1.3-1.8 1.9-2.7l-9.2-12.5c-6.4 9.6-15.3 18.4-25 24.6-11.4 7.3-23.9 11.2-36.1 11.2-.3 0-.6-.3-.6-.6s.3-.6.6-.6c12 0 24.2-3.8 35.5-11 9.8-6.3 18.8-15.2 25.1-25 .1-.2.3-.3.5-.3s.4.1.5.2l10 13.5c.1.2.2.5 0 .7-.7 1.1-1.4 2.1-2.1 3.1-7.3 9.9-17.5 18.9-28.8 25.3-13 7.5-27.1 11.4-40.8 11.4z"/>
    <path d="M-410 459.1c-.3 0-.5-.2-.6-.5l-1.9-14.7c0-.3.2-.6.5-.7.3 0 .6.2.7.5l1.9 14.7c.1.4-.2.7-.6.7.1 0 0 0 0 0zM-464.4 423.9c-.2 0-.3-.1-.4-.2 0 0-.8-1.2-1.3-1.6-.4-.4-.3-1.1-.2-1.6 0-.2.1-.5.1-.6-.1-.1-.1-.1-.2-.1-.1.1-.3.3-.4.5-.1.2-.3.4-.4.6-.5.5-1.5-.1-1.9-.4-.1-.1-.7-.6-.7-1.4 0-1.1 2.5-1.8 2.5-1.8 1.7-.5 4.4-.5 5.7 0 2.5.9 2.5 1.6 2.5 1.8 0 .8-.6 1.3-.7 1.4-.4.3-1.4.9-1.9.4-.2-.2-.3-.4-.4-.6-.1-.2-.3-.4-.4-.5-.1-.1-.1-.1-.2.1 0 .1 0 .4.1.6.1.5.3 1.2-.2 1.6-.5.5-1.2 1.6-1.3 1.6-.1.1-.2.2-.3.2zm-1.9-4.9c.3 0 .6.2.8.5.2.3.1.7 0 1.1-.1.3-.2.8-.1.9.3.3.8.9 1 1.3.3-.4.7-1 1-1.3.1-.1 0-.6-.1-.9-.1-.4-.2-.8 0-1.1.3-.5.8-.6 1.3-.3.3.2.5.5.7.8.1.2.2.3.3.4.2 0 .6-.2.9-.4 0 0 .4-.3.4-.7 0-.1-.5-.6-1.9-1.1-1.2-.4-3.7-.4-5.3 0-.8.2-1.9.8-1.9 1.1 0 .4.4.7.4.7.3.2.7.4.9.4.1-.1.2-.3.3-.4.2-.3.4-.6.7-.8.3-.2.5-.2.6-.2zM-487.4 397.5c-.4 0-.9-.4-1.8-2.6-1.8-4.2-5.3-16-3.8-17 .2-.1.5-.1.9 0 2.7 1.1 11 10 11.6 12.6v.1c-.1.5-.3 1-.8 1.3-1.2.8-3.2.5-4 .3-.1 1.2-.4 4.9-1.9 5.3h-.2zm-5.2-19.1c-.1 0-.1 0 0 0-.1 0-.6.4.3 4.7 1.4 6.4 4.1 13.8 4.9 13.9 1-.2 1.5-3.2 1.5-5.1 0-.1 0-.2.1-.2s.1-.1.2 0c0 0 2.7.7 3.9-.2.3-.2.5-.5.5-.9-.7-2.5-8.7-11.2-11.3-12.2h-.1zM-474.7 408.4c-1.9 0-3.5-1.6-3.5-3.5 0-.6.2-1.2.4-1.7 0-.1.1-.1.2-.1.3 0 .6-.1.9-.1.1 0 .2 0 .2.1.1.1.1.2 0 .3-.2.3-.3.7-.3 1.1 0 1.3 1 2.3 2.3 2.3 1.1 0 2.1-.9 2.3-2 0-.1.1-.2.2-.2s.2 0 .3.1c.1.2.2.3.3.5v.1c-.1 1.8-1.6 3.1-3.3 3.1zm-2.7-4.8c-.2.4-.3.9-.3 1.3 0 1.6 1.3 3 3 3 1.2 0 2.2-.7 2.7-1.7-.5.7-1.4 1.2-2.3 1.2-1.6 0-2.9-1.3-2.9-2.9 0-.3.1-.6.2-1-.2.1-.3.1-.4.1z"/>
    <path d="M-475.4 410.1c-2 0-4-1.3-4.7-3.3-.3-.8-.4-1.6-.2-2.5 0-.1.1-.2.2-.2s.2.1.2.2c-.1.8-.1 1.6.2 2.3.9 2.4 3.5 3.6 5.9 2.8.1 0 .2 0 .3.1 0 .1 0 .2-.1.3-.7.3-1.2.3-1.8.3z"/>
    <path d="M-471.1 407.8c-.2 0-.3-.1-.3-.3 0 0 .1-1.8-1-2.9-.7-.7-1.7-1.1-3.1-1.1-1.6 0-2.9.2-4 .4-2.3.4-4.1.7-6.5-.9-.1-.1-.2-.2-.1-.4.1-.1.2-.2.4-.1 2.3 1.5 3.9 1.2 6.1.8 1.2-.2 2.5-.4 4.1-.4 1.5 0 2.6.4 3.4 1.3 1.3 1.3 1.2 3.2 1.1 3.3.1.2 0 .3-.1.3z"/>
    <path d="M-479.8 403.9c-1 0-3.2-.4-4.2-3.5 0-.1 0-.2.1-.2s.2 0 .2.1c1.1 3.7 4 3.2 4.2 3.2.1 0 .2.1.2.2s-.1.2-.2.2c.2-.1 0 0-.3 0zM-476 416.6c-.1 0-.2-.1-.3-.2 0-.1.1-.3.2-.3 5.5-1.3 5-5.9 4.9-6.1 0-.1.1-.3.2-.3s.3.1.3.2c.1.1.7 5.2-5.3 6.7z"/>
    <path d="M-469.4 419.4c-.1 0-.2 0-.2-.1-.1-.1-.8-1.6 1-7 1.9-5.5-.5-12.7-4.9-14.4-.1-.1-.2-.2-.1-.3.1-.1.2-.2.3-.1 4.6 1.9 7.2 9.2 5.2 15.1-1.8 5.2-1.1 6.6-1 6.6.1.1 0 .3-.1.4-.1-.2-.2-.2-.2-.2zM-475.4 393.3c-.1 0-.2-.1-.2-.2-3-7.5.2-14.3.2-14.4 0-.1.1-.1.2-.1l2.8-.9c.1 0 .2 0 .3.1.1.1.1.2 0 .3-4.6 7.3-3.1 14.8-3 14.8 0 .2-.1.3-.3.4.1 0 .1 0 0 0zm.5-14.2c-.3.8-2.3 5.6-.9 11.4-.1-2.8.3-7.4 3-12.1l-2.1.7zM-468.8 392.1c-.1 0-.2-.1-.2-.2-3-7.5.2-14.7.2-14.8 0-.1.1-.1.2-.2l2.6-.2c.1 0 .2 0 .2.1.1.1.1.2 0 .3-4.6 7.3-2.9 14.5-2.9 14.6.1.2.1.4-.1.4zm.4-14.6c-.4.9-2.2 5.8-1 11.5-.1-2.8.3-7.2 3-11.7l-2 .2zM-443.1 416.8c-.1 0-.1-.1-.1-.1-.7-5.2-4.4-8.1-4.4-8.2-.1 0-.1-.1 0-.2 0-.1.1-.1.2 0 4.4 2.3 5.5 6.8 5.5 6.8v.1l-1 1.5c-.1.1-.1.1-.2.1zm-3.4-7.6c1.1 1.2 3 3.6 3.5 7.1l.8-1.2c-.2-.4-1.2-3.7-4.3-5.9zM-445.7 419.7c-.1 0-.1-.1-.1-.1-.7-5.2-4.4-8-4.4-8-.1 0-.1-.1 0-.2 0-.1.1-.1.2 0 4.4 2.3 5.7 7 5.7 7v.1l-1.4 1.2c.1 0 .1 0 0 0zm-3.3-7.3c1.2 1.2 2.9 3.5 3.4 6.9l.9-.9c-.1-.5-1.3-3.8-4.3-6z"/>
    <path d="M-443.1 416.8c-.1 0-.1-.1-.1-.1-.7-5.2-4.4-8.1-4.4-8.2-.1 0-.1-.1 0-.2 0-.1.1-.1.2 0 4.4 2.3 5.5 6.8 5.5 6.8v.1l-1 1.5c-.1.1-.1.1-.2.1zm-3.4-7.6c1.1 1.2 3 3.6 3.5 7.1l.8-1.2c-.2-.4-1.2-3.7-4.3-5.9zM-445.7 419.7c-.1 0-.1-.1-.1-.1-.7-5.2-4.4-8-4.4-8-.1 0-.1-.1 0-.2 0-.1.1-.1.2 0 4.4 2.3 5.7 7 5.7 7v.1l-1.4 1.2c.1 0 .1 0 0 0zm-3.3-7.3c1.2 1.2 2.9 3.5 3.4 6.9l.9-.9c-.1-.5-1.3-3.8-4.3-6zM-485.7 416.8s-.1 0-.1-.1l-1-1.5v-.1s1.2-4.5 5.5-6.8h.2v.2s-3.7 2.9-4.4 8.2c-.1 0-.2.1-.2.1zm-.9-1.7l.8 1.2c.6-3.5 2.4-5.9 3.5-7.1-3.1 2.2-4.2 5.5-4.3 5.9zM-483.1 419.7c-.1 0-.1 0 0 0l-1.3-1.2v-.1s1.3-4.7 5.7-7h.2v.2s-3.7 2.7-4.4 8c-.1.1-.2.1-.2.1zm-1.1-1.3l.9.9c.5-3.4 2.3-5.7 3.4-6.9-3 2.2-4.1 5.5-4.3 6zM-441.5 397.5h-.1c-1.5-.4-1.9-4.1-1.9-5.3-.8.2-2.9.5-4-.3-.4-.3-.7-.7-.8-1.3v-.1c.6-2.6 8.9-11.5 11.6-12.6.4-.2.7-.2.9 0 1.5 1-2 12.8-3.8 17-1.1 2.2-1.6 2.6-1.9 2.6zm-1.8-5.9c.1 0 .1 0 .2.1.1 0 .1.1.1.2.1 1.8.6 4.9 1.6 5.1.8-.1 3.5-7.5 4.9-13.9.9-4.3.4-4.7.4-4.7s-.1-.1-.5.1c-2.6 1-10.6 9.7-11.3 12.2.1.4.2.6.5.9 1.3.7 4 .1 4.1 0-.1 0-.1 0 0 0zM-460.8 429.5c-.3 0-.7 0-1-.1-1.3-.3-2.3-.9-2.7-1.7-.5.8-1.5 1.4-2.7 1.7-1.7.3-3.8-.2-4.8-2.6-1.6-3.9-2.9-3.9-2.9-3.9-.1 0-.3-.1-.3-.2s.1-.3.2-.3c.2 0 1.6-.1 3.5 4.2 1.1 2.7 3.5 2.4 4.2 2.3 1.4-.3 2.6-1.2 2.6-2 0-.1.1-.3.3-.3s.3.1.3.3c0 .8 1.2 1.7 2.6 2 .7.1 3.2.4 4.3-2.3 1.8-4.4 3.3-4.2 3.5-4.2.1 0 .2.2.2.3 0 .1-.2.2-.3.2 0 0-1.3 0-2.9 3.9-1 2-2.6 2.7-4.1 2.7zM-454.2 408.4c-1.7 0-3.2-1.3-3.5-3v-.1c.1-.2.2-.3.3-.5.1-.1.2-.1.3-.1.1 0 .2.1.2.2.2 1.1 1.2 2 2.3 2 1.3 0 2.3-1 2.3-2.3 0-.4-.1-.8-.3-1.1v-.3c.1-.1.1-.1.2-.1.3 0 .6.1.9.1.1 0 .2.1.2.1.3.5.4 1.1.4 1.7.2 1.9-1.3 3.4-3.3 3.4zm-2.7-2.2c.5 1 1.5 1.7 2.7 1.7 1.6 0 3-1.3 3-3 0-.5-.1-.9-.3-1.3h-.3c.1.3.2.6.2 1 0 1.6-1.3 2.9-2.9 2.9-1-.1-1.8-.6-2.4-1.3z"/>
    <path d="M-453.5 410.1c-.6 0-1.1-.1-1.7-.3-.1 0-.2-.1-.1-.3 0-.1.2-.2.3-.1 2.4.9 5-.4 5.9-2.8.3-.7.3-1.5.2-2.3 0-.1.1-.2.2-.2s.2.1.2.2c.1.8.1 1.7-.2 2.5-.9 2.1-2.8 3.3-4.8 3.3z"/>
    <path d="M-457.8 407.8c-.1 0-.3-.1-.3-.2s-.1-2 1.1-3.3c.8-.9 2-1.3 3.4-1.3 1.6 0 2.9.2 4.1.4 2.2.4 3.9.7 6.1-.8.1-.1.3 0 .4.1.1.1 0 .3-.1.4-2.5 1.6-4.3 1.3-6.5.9-1.1-.2-2.4-.4-4-.4-1.3 0-2.4.4-3.1 1.1-1.1 1.2-1 2.9-1 2.9.2.1.1.2-.1.2z"/>
    <path d="M-449.1 403.9h-.4c-.1 0-.2-.1-.2-.2s.1-.2.2-.2 3.1.5 4.2-3.2c0-.1.1-.2.2-.1.1 0 .2.1.1.2-.9 3.1-3.2 3.5-4.1 3.5zM-452.9 416.6c-6-1.4-5.4-6.6-5.4-6.6 0-.1.1-.2.3-.2.1 0 .2.2.2.3 0 .2-.5 4.8 4.9 6.1.1 0 .2.2.2.3 0 0-.1.1-.2.1z"/>
    <path d="M-459.5 419.4h-.1c-.1-.1-.2-.2-.1-.4 0 0 .7-1.4-1-6.6-2-5.9.5-13.2 5.2-15.1.1-.1.3 0 .3.1.1.1 0 .3-.1.3-4.3 1.7-6.7 8.9-4.9 14.4 1.8 5.4 1.1 6.9 1 7-.1.3-.2.3-.3.3zM-454.6 394.2h-.1c-.1-.1-.2-.2-.1-.3 0-.1 3-7.1 0-15.1 0-.1 0-.2.1-.3s.2-.1.3-.1l2.6 1.1c.1 0 .1.1.2.2 0 .1 1.8 7.7-2.7 14.4-.1 0-.2.1-.3.1zm.5-15.2c1.8 5.1 1.2 9.8.6 12.5 2.5-5.4 1.6-10.8 1.4-11.7l-2-.8zM-460.6 392.4h-.1c-.1-.1-.2-.2-.1-.3 0-.1 3.2-6.6.2-14.7v-.3c.1-.1.2-.1.2-.1l2.5.4c.1 0 .2.1.2.2s1.7 7.9-2.7 14.7c-.1 0-.1.1-.2.1zm.5-14.8c1.7 4.8 1.3 9 .6 11.7 2.2-5.2 1.4-10.4 1.2-11.4l-1.8-.3zM-483.8 429.4s-.1 0-.1-.1 0-.1.1-.2c9.6-4.8 16-4.7 16.1-4.7.1 0 .1.1.1.1 0 .1-.1.1-.1.1-.1.1-6.5 0-16.1 4.8.1 0 0 0 0 0zM-487.7 422.8c-.1 0-.1 0-.1-.1s0-.1.1-.2c12.1-3.3 20.3-.5 20.3-.5.1 0 .1.1.1.2s-.1.1-.2.1-8.2-2.8-20.2.5zM-489.1 420.6c-.1 0-.1 0-.1-.1s0-.1.1-.2c7.4-2.7 18.5 0 18.6 0 .1 0 .1.1.1.2s-.1.1-.2.1-11.1-2.7-18.5 0zM-474.7 405.3c-.5 0-.9-.4-.9-.9s.4-.9.9-.9.9.4.9.9c.1.4-.4.9-.9.9zm0-1.7c-.4 0-.7.3-.7.7 0 .4.3.7.7.7.4 0 .7-.3.7-.7 0-.4-.3-.7-.7-.7zM-454.4 405.3c-.5 0-.9-.4-.9-.9s.4-.9.9-.9.9.4.9.9c0 .4-.4.9-.9.9zm0-1.7c-.4 0-.7.3-.7.7 0 .4.3.7.7.7.4 0 .7-.3.7-.7 0-.4-.3-.7-.7-.7zM-484.2 425.3s-.1 0-.1-.1 0-.1.1-.2c6.9-3.2 15.8-1.8 15.9-1.8.1 0 .1.1.1.2s-.1.1-.2.1c-.2.1-9-1.4-15.8 1.8zM-445.6 429.4c-9.6-4.8-16-4.7-16-4.7-.1 0-.1-.1-.1-.1 0-.1.1-.1.1-.1.1 0 6.5-.1 16.1 4.7.1 0 .1.1.1.2h-.2zM-441.6 422.8c-12.1-3.3-20.1-.5-20.2-.5-.1 0-.1 0-.2-.1 0-.1 0-.1.1-.2.1 0 8.2-2.9 20.3.5.1 0 .1.1.1.2s-.1.1-.1.1z"/>
    <path d="M-440.2 420.6c-.1 0-.1 0 0 0-7.4-2.7-18.4 0-18.5 0-.1 0-.1 0-.2-.1 0-.1 0-.1.1-.2.1 0 11.2-2.7 18.6 0 .1 0 .1.1.1.2s-.1.1-.1.1zM-445.1 425.3c-6.8-3.2-15.7-1.8-15.8-1.8-.1 0-.1 0-.2-.1 0-.1 0-.1.1-.2.1 0 9-1.5 15.9 1.8.1 0 .1.1.1.2s-.1.1-.1.1zM-464.5 427.1c-.1 0-.3-.1-.3-.3v-3.4c0-.1.1-.3.3-.3s.3.1.3.3v3.4c0 .2-.2.3-.3.3z"/>
    <path d="M-464.5 436.3c-1.8 0-3.6-.3-5.2-1-.9-.4-1.6-.8-2.3-1.4-.7-.7-1.4-1.6-2.2-2.5l-2.1 1.1c-.1.1-.3.1-.5.1s-.3-.1-.4-.3l-.7-1.3-.6.7c-.2.2-.4.2-.6.2-.2-.1-.4-.2-.4-.5l-.3-1.3-.7.8c-.1.2-.4.2-.6.2-.2-.1-.4-.2-.4-.4l-.2-.9-1.7 1c-.2.1-.4.1-.6 0-.2-.1-.3-.3-.3-.5l-.1-2.2-2.3.1c-.3 0-.6-.2-.6-.5l-.2-1.6h-2.1c-.2 0-.4-.1-.5-.2-.1-.1-.2-.3-.1-.5l.5-1.7-1.5.1c-.2 0-.4-.1-.5-.2-.1-.1-.2-.3-.1-.5l.4-1.6-.6.3c-.2.1-.4.1-.6 0-.2-.1-.3-.3-.2-.5l.2-1.8-1.4.5c-.2.1-.5 0-.7-.2-.2-.2-.2-.5 0-.7l1.3-1.8h-.8c-.2 0-.4-.1-.5-.3-.1-.2-.1-.4 0-.6l1.4-2.3-1-.7c-.2-.1-.3-.3-.3-.6 0-.2.2-.4.4-.5l1.3-.5-.8-.7c-.1-.1-.2-.3-.2-.4 0-.2.1-.3.2-.4 0 0 2.6-2.3 3.7-7.3l.6-3.7c-.6-.8-2.7-3.9-4.1-8.7-.2-.6-.3-1.3-.5-1.9-1.3-4.8-2.5-8.9-1.1-12 .1-.3.5-.7 1.2-.8 2.6-.4 8.5 2.9 10.8 5.1l1.3 1.3c2.4-2.3 7.4-5.7 16.9-5.7v1.2c-3.4 0-11.7.6-16.5 5.7-.1.1-.3.2-.4.2-.2 0-.3-.1-.4-.2-.4-.5-1-1-1.7-1.7-2.2-2.2-7.8-5.1-9.7-4.8-.3 0-.3.1-.3.2-1.2 2.6-.1 6.6 1.1 11.2.2.6.3 1.2.5 1.9 1.4 5.3 4 8.5 4 8.5.1.1.2.3.1.5l-.7 3.9c-.9 4.1-2.8 6.5-3.6 7.5l1 1c.2.1.2.4.2.6 0 .2-.2.4-.4.4l-1.2.4.5.3c.3.2.3.5.2.8l-1.1 1.8h.9c.2 0 .4.1.5.3.1.2.1.4 0 .6l-.9 1.2.5-.2c.2-.1.4 0 .6.1.2.1.2.3.2.5l-.2 1.7.8-.4c.2-.1.4-.1.6.1.2.1.3.4.2.6l-.5 2 1.5-.1c.2 0 .4.1.5.2.1.2.2.4.1.5l-.5 1.8h1.9c.3 0 .6.2.6.5l.2 1.6 2.3-.1c.2 0 .3.1.4.2.1.1.2.3.2.4v1.8l1.6-.9c.2-.1.4-.1.5 0 .2.1.3.2.3.4l.1.6.7-.8c.2-.2.4-.2.6-.2.2.1.4.2.4.5l.3 1.4.4-.4c.1-.1.3-.2.5-.2s.4.1.4.3l.8 1.5 1.4-.8-4.1-5.1c-.2-.2-.2-.6.1-.8.2-.2.6-.2.8 0 1.2 1.2 2.4 2.8 3.6 4.4 1.1 1.5 2.2 3 3.3 4.1.6.5 1.2.9 2 1.2 3.7 1.6 8.7 1.1 11.4-1.2 1.1-1.1 2.2-2.6 3.3-4.1 1.2-1.5 2.4-3.1 3.6-4.4.2-.2.6-.2.8 0 .2.2.3.6.1.8l-4 5 1.5.8.8-1.5c.1-.2.3-.3.4-.3.2 0 .4 0 .5.2l.4.4.3-1.4c0-.2.2-.4.4-.5.2-.1.4 0 .6.2l.7.8.1-.6c0-.2.2-.3.3-.4.2-.1.4-.1.5 0l1.6.9v-1.8c0-.2.1-.3.2-.4.1-.1.3-.2.4-.2l2.3.1.2-1.6c0-.3.3-.5.6-.5h1.9l-.5-1.8c-.1-.2 0-.4.1-.5.1-.1.3-.2.5-.2l1.5.1-.5-2c-.1-.2 0-.5.2-.6.2-.1.4-.2.6-.1l.8.4-.2-1.7c0-.2.1-.4.2-.5.2-.1.4-.2.6-.1l.5.2-.9-1.2c-.1-.2-.1-.4 0-.6.1-.2.3-.3.5-.3h.9l-1.1-1.8c-.2-.3-.1-.6.2-.8l.5-.3-1.2-.4c-.2-.1-.3-.2-.4-.4 0-.2 0-.4.2-.6l1-1c-.9-.9-2.7-3.3-3.6-7.5l-.9-4c0-.2 0-.4.1-.5 0 0 2.6-3.2 4-8.5.2-.6.3-1.3.5-1.9 1.3-4.6 2.4-8.5 1.1-11.2 0 0-.1-.1-.3-.2-1.9-.3-7.5 2.6-9.7 4.8l-1.7 1.7c-.2.2-.6.2-.9 0-4.9-5.2-13.2-5.7-16.5-5.7v-1.2c9.5 0 14.6 3.4 16.9 5.7l1.3-1.3c2.3-2.3 8.2-5.6 10.8-5.1.7.1 1.1.5 1.2.8 1.4 3 .3 7.2-1.1 12-.2.6-.3 1.2-.5 1.9-1.3 4.8-3.4 7.9-4 8.7l.8 3.7c1.1 5 3.7 7.3 3.7 7.3.1.1.2.3.2.4 0 .2-.1.3-.2.4l-.8.7 1.3.5c.2.1.4.3.4.5s-.1.4-.3.6l-1 .7 1.4 2.3c.1.2.1.4 0 .6-.1.2-.3.3-.5.3h-.8l1.3 1.8c.1.2.1.5 0 .7-.2.2-.4.3-.7.2l-1.4-.5.2 1.8c0 .2-.1.4-.2.5-.2.1-.4.1-.6 0l-.6-.3.4 1.6c0 .2 0 .4-.1.5-.1.1-.3.2-.5.2l-1.5-.1.5 1.7c.1.2 0 .4-.1.5-.1.1-.3.2-.5.2h-2.1l-.2 1.6c0 .3-.3.5-.6.5l-2.3-.1-.1 2.2c0 .2-.1.4-.3.5-.2.1-.4.1-.6 0l-1.7-1-.2.9c0 .2-.2.4-.4.4-.2.1-.4 0-.6-.2l-.7-.8-.3 1.3c0 .2-.2.4-.4.5-.2.1-.4 0-.6-.2l-.6-.7-.7 1.3c-.1.1-.2.2-.4.3-.2 0-.3 0-.5-.1l-2.1-1.2c-.7 1-1.5 1.9-2.2 2.6-1 1.8-3.8 2.6-6.7 2.6z"/>
    <path d="M-481.3 420.6c-3.9-1-6.2-6.9-6.3-7.2 0-.1 0-.1.1-.2.1 0 .1 0 .2.1 0 .1 2.4 6 6.1 7 .1 0 .1.1.1.2-.1.1-.1.1-.2.1zM-447.5 420.6c-.1 0-.1 0-.1-.1s0-.1.1-.2c3.8-1 6.1-6.9 6.1-7 0-.1.1-.1.2-.1s.1.1.1.2c-.2.3-2.5 6.2-6.4 7.2z"/>
    <path d="M-464.1 349.7c-.2-.2-.6-.2-.8 0-6.8 5.9-15.5 9.2-24.5 9.2-7.9 0-15.5-2.4-21.9-7.1-.2-.1-.4-.1-.6 0-.2.1-.3.3-.3.5V413c0 9.6 2.5 18.8 7.4 27.2 3.9 6.7 9.4 13 16.3 18.6 11.7 9.6 23.6 14.1 23.7 14.1h.4c.1 0 12-4.5 23.7-14.1 6.9-5.6 12.4-11.9 16.3-18.6 4.9-8.4 7.4-17.6 7.4-27.2v-60.7c0-.2-.1-.4-.3-.5-.2-.1-.4-.1-.6 0-6.4 4.6-14 7.1-21.9 7.1-8.8 0-17.5-3.2-24.3-9.2zM-418 413c0 9.4-2.4 18.4-7.3 26.6-3.9 6.6-9.3 12.7-16 18.3-10.7 8.8-21.6 13.2-23.2 13.9-1.6-.6-12.5-5.1-23.2-13.9-6.8-5.5-12.2-11.7-16.1-18.3-4.8-8.2-7.3-17.2-7.3-26.6v-59.5c6.4 4.4 13.8 6.6 21.6 6.6 9.1 0 18-3.2 24.9-9.2 7 5.9 15.8 9.2 24.9 9.2 7.8 0 15.2-2.3 21.6-6.6V413z"/>
    <path d="M-464.4 354c-.1-.1-.2-.1-.3 0-6.6 5.4-14.8 8.4-23.1 8.4-6.3 0-14.2-.6-20.6-4.8-.1-.1-.2-.1-.3 0-.1 0-.1.1-.1.2V414c0 8.4 2.3 16.5 6.9 24.1 3.7 6.1 8.8 11.9 15.2 17.2 10.9 9.1 22 13.8 22.1 13.8h.2c.1 0 11.2-4.7 22.1-13.8 6.4-5.3 11.5-11.1 15.2-17.2 4.6-7.6 6.9-15.7 6.9-24.1v-56.2c0-.1-.1-.2-.1-.2h-.3c-3.3 2.3-8.7 4.8-20.6 4.8-8.4 0-16.6-3-23.2-8.4zm43.6 59.9c0 8.3-2.3 16.3-6.8 23.8-3.6 6-8.7 11.8-15.1 17.1-10.3 8.6-20.7 13.2-21.8 13.7-1.1-.5-11.5-5.1-21.8-13.7-6.4-5.3-11.4-11-15.1-17.1-4.5-7.5-6.8-15.5-6.8-23.8v-55.7c3.4 2.2 8.9 4.7 20.5 4.7 8.3 0 16.6-3 23.3-8.4 6.7 5.4 14.9 8.4 23.3 8.4 6.2 0 14.1-.5 20.5-4.7v55.7z"/>
  </g>
</svg>
