<svg xmlns="http://www.w3.org/2000/svg" viewBox="-631 393 16 16">
	<path fill="#C14253" d="M-619.7 409c-1.9 0-5-2.3-7-4.3-.6-.6-6-6.1-3.8-8.3l2.8-3c.1-.3.4-.4.7-.4s.5.1.7.3l3 3.1c.3.3.4.7.2 1.1l-.9 1.9c.1.3.4.8 1.1 1.5.7.7 1.2 1 1.5 1.1l1.9-.9c.4-.2.8-.1 1.1.2l3.1 3c.2.2.3.5.3.7 0 .3-.1.5-.3.7l-3.1 2.8c-.2.2-.6.5-1.3.5zm-9.3-11.3c0 .6 1.1 2.9 3.8 5.6 2.6 2.6 4.8 3.7 5.6 3.7l2.2-2-1.8-1.8-1.2.6c-.2.1-.5.2-.8.2-1.2 0-2.6-1.3-3-1.7-.5-.4-1.8-1.8-1.8-3 0-.4.1-.6.2-.8l.6-1.2-1.8-1.8-2 2.2z"/>
</svg>
