<?xml version="1.0" encoding="utf-8"?>
<!-- Generator: Adobe Illustrator 19.0.0, SVG Export Plug-In . SVG Version: 6.00 Build 0)  -->
<svg version="1.1" id="Слой_1" xmlns="http://www.w3.org/2000/svg" xmlns:xlink="http://www.w3.org/1999/xlink" x="0px" y="0px"
	 viewBox="0 0 96 96" enable-background="new 0 0 96 96" xml:space="preserve">
<g id="XMLID_96_">
	<path id="XMLID_97_" fill="#F2AE31" d="M21.2,37.6h8.7c0.2,0,0.4-0.2,0.4-0.4s-0.2-0.4-0.4-0.4h-8.7c-0.2,0-0.4,0.2-0.4,0.4
		S21,37.6,21.2,37.6z"/>
	<path id="XMLID_103_" fill="#F2AE31" d="M6.9,33.8h8.7c0.2,0,0.4-0.2,0.4-0.4s-0.2-0.4-0.4-0.4H6.9c-0.2,0-0.4,0.2-0.4,0.4
		S6.7,33.8,6.9,33.8z"/>
	<path id="XMLID_104_" fill="#F2AE31" d="M53.2,14.6c0,0.2,0.2,0.4,0.4,0.4H77c0.2,0,0.4-0.2,0.4-0.4s-0.2-0.4-0.4-0.4H53.6
		C53.4,14.2,53.2,14.3,53.2,14.6z"/>
	<path id="XMLID_105_" fill="#F2AE31" d="M29.6,8.9h27.5c0.3,0,0.6-0.3,0.6-0.6s-0.3-0.6-0.6-0.6H29.6c-0.3,0-0.6,0.3-0.6,0.6
		S29.3,8.9,29.6,8.9z"/>
	<path id="XMLID_106_" fill="#F2AE31" d="M12.5,20.8h15.1c0.2,0,0.4-0.2,0.4-0.4S27.9,20,27.7,20H12.5c-0.2,0-0.4,0.2-0.4,0.4
		S12.3,20.8,12.5,20.8z"/>
	<path id="XMLID_107_" fill="#F2AE31" d="M3.9,45.4h5c0.1,0,0.2-0.1,0.2-0.2S9,45,8.9,45h-5c-0.1,0-0.2,0.1-0.2,0.2
		S3.8,45.4,3.9,45.4z"/>
	<path id="XMLID_108_" fill="#F2AE31" d="M18.1,41.3h-5c-0.1,0-0.2,0.1-0.2,0.2s0.1,0.2,0.2,0.2h5c0.1,0,0.2-0.1,0.2-0.2
		S18.2,41.3,18.1,41.3z"/>
	<path id="XMLID_109_" fill="#F2AE31" d="M16.4,47.7h-2.1c-0.1,0-0.1,0-0.1,0.1s0,0.1,0.1,0.1h2.1C16.4,47.9,16.5,47.9,16.4,47.7
		C16.5,47.8,16.4,47.7,16.4,47.7z"/>
	<path id="XMLID_110_" fill="#F2AE31" d="M26.6,46.7h-2.1c-0.1,0-0.1,0-0.1,0.1s0,0.1,0.1,0.1h2.1C26.6,46.8,26.7,46.8,26.6,46.7
		C26.7,46.7,26.6,46.7,26.6,46.7z"/>
	<path id="XMLID_113_" fill="#F2AE31" d="M48,0C21.5,0,0,21.5,0,48c0,26.5,21.5,48,48,48c26.5,0,48-21.5,48-48C96,21.5,74.5,0,48,0z
		 M38.7,24.1l6.7,0.1c0.1,0,0.2,0,0.3-0.1c0.1-0.1,0.1-0.2,0.1-0.3v-3.9h5.7v3.9c0,0.1,0,0.2,0.1,0.3s0.2,0.1,0.3,0.1l6.8-0.1
		c0.2,0,0.4-0.2,0.4-0.4v-3.8l5.3,0v21.2h-5.8c-0.3,0-0.6,0.3-0.6,0.6s0.3,0.6,0.6,0.6h5.8V61v13.4h-7l0-4.6c0,0,0,0,0-0.1
		s0,0,0-0.1l0-4.5c0,0,0,0,0-0.1s0,0,0-0.1l0-3.2c0-0.2,0.3-3.9-2.1-6.5c-0.3-0.4-0.7-0.7-1.1-0.9c0,0,0,0,0,0c0,0,0,0,0,0
		c-1.4-0.9-3.1-1.4-5.2-1.4c-0.1,0-0.1,0-0.1,0c0,0,0,0,0,0c0,0,0,0,0,0c-2.1,0-3.9,0.5-5.3,1.5c0,0,0,0,0,0c0,0,0,0,0,0
		c-0.3,0.2-0.7,0.5-0.9,0.8c-2.5,2.5-2.4,6.1-2.4,6.3v3.5c0,0,0,0,0,0s0,0,0,0v4.5c0,0,0,0,0,0s0,0,0,0v4.6H33V52.1V19.9h5.4v3.8
		C38.3,23.9,38.5,24.1,38.7,24.1z M32.6,75.1h32.1h0h19.4h0h1.7C77.3,86.8,63.5,94.5,48,94.5s-29.3-7.7-37.8-19.4H32.6z M43.3,55
		l2.1,3.2c-0.2,0.1-0.4,0.3-0.6,0.5c-0.7,0.8-1.1,1.7-1.3,2.4l-3.1-1.5c0.3-1.2,0.9-2.7,2.1-3.9C42.8,55.4,43,55.2,43.3,55z
		 M54.9,55.6c1.1,1.2,1.6,2.7,1.9,3.9L53.6,61c-0.1-0.7-0.4-1.6-1.1-2.4c-0.2-0.2-0.4-0.4-0.6-0.6l2.1-3.2
		C54.3,55.1,54.6,55.3,54.9,55.6z M40.2,65.3h3.2v4.2h-3.2V65.3z M43.8,69.7C43.8,69.7,43.8,69.7,43.8,69.7
		C43.8,69.7,43.8,69.7,43.8,69.7l0-4.6c0,0,0,0,0,0s0,0,0,0l0-2.7c0,0-0.1-2.2,1.3-3.6c0.8-0.9,2-1.3,3.5-1.3c1.6,0,2.8,0.4,3.6,1.3
		c1.2,1.3,1.1,3.2,1.1,3.2v12.3H48h-4.2L43.8,69.7z M56.9,69.5h-3.2l0-4.2h3.2V69.5z M53.7,74.3l0-4.4h3.2v4.4H53.7z M53.7,65l0-2.9
		c0,0,0-0.3,0-0.7l3.1-1.5c0.2,1.1,0.1,1.9,0.1,1.9V65H53.7z M51.5,57.9c-0.7-0.4-1.6-0.6-2.7-0.7v-3.9c1.9,0,3.6,0.4,4.8,1.3
		L51.5,57.9z M48.4,57.2c-1,0-1.9,0.3-2.7,0.7l-2.1-3.2c1.3-0.9,2.9-1.3,4.8-1.4V57.2z M40.4,60l3.1,1.5c-0.1,0.6-0.1,1-0.1,1V65
		h-3.2v-3.3C40.2,61.6,40.2,60.9,40.4,60z M40.2,69.9h3.2v4.4h-3.2V69.9z M65,61.6c2.1,1,4.1,2.1,6.1,3.3c0.4,0.2,0.8,0.5,1.2,0.7
		c0.3,0.2,0.5,0.3,0.8,0.5c0.3,0.2,0.7,0.4,1,0.7c0.2,0.1,0.4,0.3,0.6,0.4c0.5,0.3,0.9,0.6,1.4,1c0.1,0.1,0.2,0.2,0.3,0.3
		c0.4,0.3,0.8,0.6,1.1,0.9c0.1,0.1,0.3,0.2,0.4,0.3c0.5,0.4,0.9,0.7,1.4,1.1c0.1,0,0.1,0.1,0.2,0.1c0.4,0.4,0.8,0.7,1.2,1.1
		c0.1,0.1,0.2,0.2,0.3,0.3c0.4,0.4,0.9,0.8,1.3,1.2c0.1,0.1,0.1,0.1,0.2,0.2c0.2,0.2,0.5,0.5,0.7,0.7H65V61.6z M84.3,74.3
		c-0.1-0.1-0.1-0.1-0.2-0.2c-0.3-0.3-0.7-0.7-1-1c-0.1-0.1-0.3-0.2-0.4-0.4c-0.3-0.3-0.7-0.7-1.1-1c-0.1-0.1-0.2-0.2-0.3-0.2
		c-0.4-0.4-0.9-0.8-1.3-1.2c-0.1-0.1-0.2-0.2-0.4-0.3c-0.3-0.3-0.7-0.6-1-0.8c-0.2-0.1-0.3-0.3-0.5-0.4c-0.4-0.3-0.7-0.6-1.1-0.9
		c-0.2-0.1-0.3-0.2-0.5-0.4c-0.4-0.3-0.8-0.6-1.2-0.9c-0.2-0.2-0.4-0.3-0.7-0.5c-0.3-0.2-0.6-0.4-0.8-0.6c-0.2-0.2-0.5-0.3-0.7-0.5
		c-0.4-0.2-0.8-0.5-1.1-0.7c-0.1-0.1-0.2-0.2-0.4-0.2c7.7-10,19.5-11.9,22.7-12.2c-0.7,8.2-3.6,15.8-8,22.2H84.3z M94.5,48
		c0,1.1,0,2.2-0.1,3.4c-3.1,0.3-15.5,2.2-23.4,12.6c-1.9-1.1-3.9-2.2-5.9-3.2V42.2h17.6c0.3,0,0.6-0.3,0.6-0.6s-0.3-0.6-0.6-0.6H65
		v-10c7.9-2.2,16.2-3.4,24.8-3.4C92.8,33.8,94.5,40.7,94.5,48z M32.2,51.7c-0.7-0.1-1.4-0.2-2-0.2c0.4-0.4,1.1-1.1,2-2.1V51.7z
		 M32.2,52.4v21.9H9.7c-4.5-6.5-7.3-14.1-8-22.3C4.8,51.7,17.2,50.6,32.2,52.4z M48,1.5c15.7,0,29.6,7.8,38,19.8H72
		c-0.3,0-0.6,0.3-0.6,0.6s0.3,0.6,0.6,0.6h14.7c1,1.6,2,3.2,2.8,4.9c-8.5,0-16.8,1.2-24.6,3.4V19.5c0-0.2-0.2-0.4-0.4-0.4l-6.1,0
		c0,0,0,0,0,0c-0.1,0-0.2,0-0.3,0.1c-0.1,0.1-0.1,0.2-0.1,0.3v3.8l-6.1,0.1v-3.9c0-0.2-0.2-0.4-0.4-0.4h-6.4c-0.2,0-0.4,0.2-0.4,0.4
		v3.9l-5.9-0.1v-3.8c0-0.2-0.2-0.4-0.4-0.4h-6.1c-0.2,0-0.4,0.2-0.4,0.4v9.9H19.8c-0.3,0-0.6,0.3-0.6,0.6s0.3,0.6,0.6,0.6h12.4v18.3
		c-1.3,1.2-2.1,2.1-2.5,2.5C15.9,50,4.6,51,1.6,51.3c-0.1-1.1-0.1-2.2-0.1-3.3C1.5,22.4,22.4,1.5,48,1.5z"/>
	<path id="XMLID_134_" fill="#F2AE31" d="M45.8,39.3h5.4c0.1,0,0.2-0.1,0.2-0.2l0-7c0,0-0.3-1.8-2.9-1.8c-2.5,0-2.9,2-3,2v6.8
		C45.7,39.2,45.7,39.3,45.8,39.3z M48.6,30.7c2.2,0,2.5,1.4,2.5,1.4V39H46l0-6.5C46,32.4,46.4,30.7,48.6,30.7z"/>
	<path id="XMLID_135_" fill="#F2AE31" d="M36.8,42.7c-0.1,0-0.2,0.1-0.2,0.2s0.1,0.2,0.2,0.2h3.9v1.1H40c-0.1,0-0.2,0.1-0.2,0.2
		s0.1,0.2,0.2,0.2h4.8c0.1,0,0.2-0.1,0.2-0.2s-0.1-0.2-0.2-0.2H41v-1.1h1.6c0.1,0,0.2-0.1,0.2-0.2s-0.1-0.2-0.2-0.2H36.8z"/>
	<path id="XMLID_136_" fill="#F2AE31" d="M54.6,51.1h3.9v1.1h-0.7c-0.1,0-0.2,0.1-0.2,0.2s0.1,0.2,0.2,0.2h4.8
		c0.1,0,0.2-0.1,0.2-0.2s-0.1-0.2-0.2-0.2h-3.8v-1.1h1.6c0.1,0,0.2-0.1,0.2-0.2s-0.1-0.2-0.2-0.2h-5.8c-0.1,0-0.2,0.1-0.2,0.2
		S54.5,51.1,54.6,51.1z"/>
	<path id="XMLID_137_" fill="#F2AE31" d="M40.2,55.5h-5.8c-0.1,0-0.2,0.1-0.2,0.2s0.1,0.2,0.2,0.2h2.3v1.6c0,0.1,0.1,0.2,0.2,0.2
		s0.2-0.1,0.2-0.2v-1.6h3.1c0.1,0,0.2-0.1,0.2-0.2S40.4,55.5,40.2,55.5z"/>
	<path id="XMLID_138_" fill="#F2AE31" d="M54.7,35.4h4.8c0.1,0,0.2-0.1,0.2-0.2s-0.1-0.2-0.2-0.2h-2.4V34h4.5c0.1,0,0.2-0.1,0.2-0.2
		s-0.1-0.2-0.2-0.2h-5.8c-0.1,0-0.2,0.1-0.2,0.2s0.1,0.2,0.2,0.2h1v1.1h-2c-0.1,0-0.2,0.1-0.2,0.2S54.6,35.4,54.7,35.4z"/>
	<path id="XMLID_139_" fill="#F2AE31" d="M35.7,25.7c-0.1,0-0.2,0.1-0.2,0.2s0.1,0.2,0.2,0.2h1.5v1.1h-0.4c-0.1,0-0.2,0.1-0.2,0.2
		s0.1,0.2,0.2,0.2h4.6c0.1,0,0.2-0.1,0.2-0.2s-0.1-0.2-0.2-0.2h-3.9v-1.1h1.6c0.1,0,0.2-0.1,0.2-0.2s-0.1-0.2-0.2-0.2H35.7z"/>
</g>
</svg>
