<?xml version="1.0" encoding="utf-8"?>
<!-- Generator: Adobe Illustrator 19.0.0, SVG Export Plug-In . SVG Version: 6.00 Build 0)  -->
<svg version="1.1" id="Слой_1" xmlns="http://www.w3.org/2000/svg" xmlns:xlink="http://www.w3.org/1999/xlink" x="0px" y="0px"
	 viewBox="0 0 256 256" enable-background="new 0 0 256 256" xml:space="preserve">
<g id="XMLID_681_">
	<path id="XMLID_796_" fill="#F2AE32" d="M66.6,54.9c-8.5-0.6-8.7-7.8-8.7-8.5c0,0,0-0.1,0-0.1c0-0.3-0.2-0.5-0.5-0.5
		s-0.5,0.2-0.5,0.5c0,0,0,0,0,0.1c0,0.8-0.2,7.9-8.7,8.5c-0.3,0-0.5,0.2-0.5,0.5c0,0.3,0.2,0.5,0.5,0.5c5.4,0,8,4.5,8.7,8.7
		c0,0.2,0.2,0.4,0.5,0.4c0,0,0,0,0,0c0.3,0,0.5-0.2,0.5-0.5c0.3-4.3,3.4-8.6,8.7-8.6c0.3,0,0.5-0.2,0.5-0.5
		C67,55.1,66.8,54.9,66.6,54.9z M57.3,62c-1-3-2.9-5.7-6.1-6.7c3.8-1.2,5.5-4,6.2-6.1c0.7,2.2,2.3,4.9,6.1,6.1
		C60.3,56.4,58.2,59,57.3,62z"/>
	<path id="XMLID_819_" fill="#F2AE32" d="M200.4,55.9c5.4,0,8,4.5,8.7,8.7c0,0.2,0.2,0.4,0.5,0.4c0,0,0,0,0,0c0.3,0,0.5-0.2,0.5-0.5
		c0.3-4.3,3.4-8.6,8.7-8.6c0.3,0,0.5-0.2,0.5-0.5c0-0.3-0.2-0.5-0.5-0.5c-8.5-0.6-8.7-7.8-8.7-8.5c0,0,0-0.1,0-0.1
		c0-0.3-0.2-0.5-0.5-0.5s-0.5,0.2-0.5,0.5c0,0,0,0,0,0.1c0,0.7-0.2,7.9-8.7,8.5c-0.3,0-0.5,0.2-0.5,0.5
		C199.9,55.7,200.2,55.9,200.4,55.9z M209.6,49.2c0.7,2.2,2.3,4.9,6.1,6.1c-3.2,1-5.3,3.7-6.2,6.7c-1-3-2.9-5.7-6.1-6.7
		C207.3,54.1,208.9,51.4,209.6,49.2z"/>
	<path id="XMLID_822_" fill="#F2AE32" d="M161.7,28c2.8,0,4.2,2.4,4.5,4.6c0,0.2,0.2,0.4,0.5,0.4c0,0,0,0,0,0c0.3,0,0.5-0.2,0.5-0.5
		c0.2-2.3,1.8-4.5,4.5-4.5c0.3,0,0.5-0.2,0.5-0.5c0-0.3-0.2-0.5-0.5-0.5c-4.5-0.3-4.6-4.2-4.6-4.5c0,0,0,0,0,0
		c0-0.3-0.2-0.5-0.5-0.5s-0.5,0.2-0.5,0.5c0,0,0,0,0,0c0,0.4-0.1,4.2-4.6,4.5c-0.3,0-0.5,0.2-0.5,0.5C161.2,27.8,161.4,28,161.7,28z
		 M166.7,24.7c0.4,1,1.2,2.1,2.7,2.7c-1.3,0.6-2.3,1.7-2.8,3c-0.5-1.3-1.4-2.4-2.7-3C165.5,26.8,166.3,25.7,166.7,24.7z"/>
	<path id="XMLID_825_" fill="#F2AE32" d="M41,72.5c-4.5-0.3-4.6-4.2-4.6-4.5c0,0,0,0,0,0c0-0.3-0.2-0.5-0.5-0.5s-0.5,0.2-0.5,0.5
		c0,0,0,0,0,0c0,0.4-0.1,4.2-4.6,4.5c-0.3,0-0.5,0.2-0.5,0.5c0,0.3,0.2,0.5,0.5,0.5c2.8,0,4.2,2.4,4.5,4.6c0,0.2,0.2,0.4,0.5,0.4
		c0,0,0,0,0,0c0.3,0,0.5-0.2,0.5-0.5c0.2-2.3,1.8-4.5,4.5-4.5c0.3,0,0.5-0.2,0.5-0.5C41.5,72.8,41.3,72.6,41,72.5z M35.9,76.1
		c-0.5-1.3-1.4-2.4-2.7-3c1.5-0.6,2.3-1.7,2.8-2.7c0.4,1,1.2,2.1,2.7,2.7C37.3,73.6,36.4,74.8,35.9,76.1z"/>
	<path id="XMLID_828_" fill="#F2AE32" d="M172.2,55.6c0,0.4-0.2,2.3-2.5,2.4c-0.3,0-0.5,0.2-0.5,0.5c0,0.3,0.2,0.5,0.5,0.5
		c1.6,0,2.3,1.3,2.5,2.6c0,0.2,0.2,0.4,0.5,0.4c0,0,0,0,0,0c0.3,0,0.5-0.2,0.5-0.5c0.1-1.3,1-2.5,2.5-2.5c0.3,0,0.5-0.2,0.5-0.5
		c0-0.3-0.2-0.5-0.5-0.5c-2.4-0.2-2.5-2-2.5-2.4c0,0,0,0,0-0.1c0-0.3-0.2-0.5-0.5-0.5S172.2,55.3,172.2,55.6
		C172.2,55.6,172.2,55.6,172.2,55.6z M172.7,57.4c0.3,0.4,0.7,0.9,1.2,1.2c-0.5,0.3-0.9,0.8-1.2,1.3c-0.3-0.6-0.7-1-1.2-1.3
		C172.1,58.3,172.5,57.8,172.7,57.4z"/>
	<path id="XMLID_1764_" fill="#F2AE32" d="M215.6,80.5c-2.4-0.2-2.5-2-2.5-2.4c0,0,0,0,0-0.1c0-0.3-0.2-0.5-0.5-0.5
		s-0.5,0.2-0.5,0.5c0,0,0,0,0,0.1c0,0.4-0.2,2.3-2.5,2.4c-0.3,0-0.5,0.2-0.5,0.5c0,0.3,0.2,0.5,0.5,0.5c1.6,0,2.3,1.3,2.5,2.6
		c0,0.2,0.2,0.4,0.5,0.4c0,0,0,0,0,0c0.3,0,0.5-0.2,0.5-0.5c0.1-1.2,0.9-2.5,2.5-2.5c0.3,0,0.5-0.2,0.5-0.5
		C216.1,80.8,215.9,80.6,215.6,80.5z M212.6,82.4c-0.3-0.6-0.7-1-1.2-1.3c0.6-0.3,1-0.7,1.2-1.2c0.3,0.4,0.7,0.9,1.2,1.2
		C213.3,81.4,212.9,81.8,212.6,82.4z"/>
	<path id="XMLID_1767_" fill="#F2AE32" d="M66.6,32c-2.4-0.2-2.5-2-2.5-2.4c0,0,0,0,0-0.1c0-0.3-0.2-0.5-0.5-0.5S63,29.2,63,29.5
		c0,0,0,0,0,0.1c0,0.4-0.2,2.3-2.5,2.4c-0.3,0-0.5,0.2-0.5,0.5c0,0.3,0.2,0.5,0.5,0.5c1.6,0,2.3,1.3,2.5,2.6c0,0.2,0.2,0.4,0.5,0.4
		c0,0,0,0,0,0c0.3,0,0.5-0.2,0.5-0.5c0.1-1.2,0.9-2.5,2.5-2.5c0.3,0,0.5-0.2,0.5-0.5C67,32.2,66.8,32,66.6,32z M63.5,33.8
		c-0.3-0.6-0.7-1-1.2-1.3c0.6-0.3,1-0.7,1.2-1.2c0.3,0.4,0.7,0.9,1.2,1.2C64.2,32.8,63.8,33.3,63.5,33.8z"/>
	<path id="XMLID_1768_" fill="#F2AE32" d="M117.8,49.1c-8.9-5.7-16.8,0-16.8,0c-0.2,0.2-0.3,0.5-0.1,0.7c0.2,0.2,0.5,0.3,0.7,0.1
		c0.1-0.1,7.4-5.3,15.7,0c0.1,0.1,0.2,0.1,0.3,0.1c0.2,0,0.3-0.1,0.4-0.2C118.1,49.5,118.1,49.2,117.8,49.1z"/>
	<path id="XMLID_1769_" fill="#F2AE32" d="M93,35.2c0.1,0,6.7,1.4,15.1,1.4c5.9,0,12.7-0.7,18.7-2.9c0.3-0.1,0.4-0.4,0.3-0.6
		c-0.1-0.3-0.4-0.4-0.6-0.3c-14.2,5.4-33.1,1.6-33.3,1.5c-0.3-0.1-0.5,0.1-0.6,0.4C92.6,34.9,92.8,35.2,93,35.2z"/>
	<path id="XMLID_1772_" fill="#F2AE32" d="M128,0C57.4,0,0,57.4,0,128s57.4,128,128,128s128-57.4,128-128S198.6,0,128,0z
		 M251.8,120.7l-7.3-5.3c-0.3-0.2-0.7-0.3-1-0.1c-0.3,0.2-0.5,0.5-0.5,0.9v10.1l-3.2-2.7c-2.3-9-4.9-16.9-7.5-22l17.2,0.9
		C250.6,108.4,251.4,114.5,251.8,120.7z M239.2,73.2l-6.9-1.3l4.4-3.7C237.5,69.9,238.4,71.6,239.2,73.2z M147.9,5.6
		c37.6,6.1,69.5,29.1,87.8,60.9l-6.3,5.3c-0.3,0.2-0.4,0.6-0.3,1c0.1,0.4,0.4,0.7,0.8,0.7l9.3,1.7l-21.4,14.6
		c-0.5,0.3-0.6,0.9-0.3,1.4c0.2,0.3,0.5,0.4,0.8,0.4c0.2,0,0.4-0.1,0.6-0.2l21.9-15c3.5,7.6,6.2,15.6,8.1,23.9L231,99.5
		c-1.7-2.7-3.4-4.3-5.1-4.3c-2.3,0-8.4-1.6-18.1-4.6c-4.8-5.2-11.8-8.5-19.4-8.5h-2.3c-1,0-2,0.1-3,0.2c-20.3-7.2-40.9-14.9-43.7-16
		l0-14.9c4.7-3.9,8.1-7.5,8.3-9.9C147.9,39.4,148,27.3,147.9,5.6z M210.7,194c-0.2,0.4-0.5,0.9-0.8,1.3c-0.2,0.2-0.3,0.5-0.5,0.7
		c-0.3,0.4-0.6,0.8-0.8,1.2c-0.2,0.2-0.4,0.5-0.6,0.7c-0.3,0.4-0.6,0.7-1,1.1c-0.2,0.2-0.4,0.4-0.6,0.6c-0.4,0.4-0.7,0.7-1.1,1
		c-4.5,4-10.5,6.5-17,6.5h-2.3c-7.7,0-14.9-3.4-19.7-9.4c-0.1-0.3-0.1-0.5-0.2-0.7c0,0,0-0.1,0-0.1c0,0,0-0.1,0-0.1
		c-0.2-0.7-0.3-1.2-0.3-1.2v-31c0,0,0,0,0,0c0.2,0,0.3-0.1,0.5-0.1c0.1,0,0.2-0.1,0.2-0.1c0.1,0,0.2-0.1,0.2-0.1
		c0.1,0,0.2-0.1,0.3-0.2c0.1,0,0.1-0.1,0.2-0.1c0.1-0.1,0.2-0.1,0.3-0.2c0.1,0,0.1-0.1,0.2-0.1c0.1-0.1,0.2-0.2,0.3-0.3
		c0,0,0.1-0.1,0.1-0.1c0.1-0.1,0.2-0.2,0.3-0.3c0-0.1,0.1-0.1,0.1-0.2c0.1-0.1,0.2-0.2,0.2-0.4c0-0.1,0.1-0.1,0.1-0.2
		c0.1-0.1,0.2-0.3,0.2-0.4c0-0.1,0.1-0.1,0.1-0.2c0.1-0.1,0.1-0.3,0.2-0.4c0-0.1,0.1-0.1,0.1-0.2c0.1-0.2,0.1-0.3,0.2-0.5
		c0-0.1,0-0.1,0.1-0.2c1.8,0.4,8.8,1.9,17.5,1.9c8.2,0,18-1.3,26.7-6.1v25.6c0,0,0,0,0,0c0,0.5,0,1,0,1.5c0,0.1,0,0.3,0,0.4
		c0,0.4-0.1,0.7-0.1,1.1c0,0.1,0,0.3-0.1,0.4c0,0.4-0.1,0.7-0.2,1.1c0,0.1,0,0.2-0.1,0.3c-0.1,0.4-0.2,0.8-0.3,1.2
		c0,0.1,0,0.1,0,0.2c-0.1,0.5-0.2,0.9-0.4,1.4c0,0.1-0.1,0.3-0.1,0.4c-0.1,0.3-0.2,0.6-0.3,0.9c-0.1,0.2-0.2,0.5-0.3,0.7
		c-0.1,0.2-0.1,0.4-0.2,0.5c-0.1,0.3-0.2,0.5-0.4,0.8c0,0.1-0.1,0.2-0.1,0.3C211.1,193.3,210.9,193.6,210.7,194z M210.8,195.8
		c0,0.1-0.1,0.3-0.1,0.6c0,0,0,0,0,0.1c0,0.1,0,0.2-0.1,0.3c0,0,0,0.1,0,0.1c0,0.1,0,0.2-0.1,0.3c0,0.1,0,0.1,0,0.2
		c0,0.1,0,0.2-0.1,0.3c0,0.1,0,0.2-0.1,0.3c0,0.1-0.1,0.2-0.1,0.4c0,0.1,0,0.2-0.1,0.3c0,0.1-0.1,0.2-0.1,0.4c0,0.1-0.1,0.2-0.1,0.4
		c0,0.1-0.1,0.3-0.1,0.4c0,0.1-0.1,0.3-0.1,0.4c0,0.1-0.1,0.3-0.1,0.4c0,0.1-0.1,0.3-0.1,0.4c0,0.1-0.1,0.3-0.1,0.4
		c0,0.2-0.1,0.3-0.2,0.5c0,0.1-0.1,0.3-0.1,0.4c-0.1,0.2-0.1,0.3-0.2,0.5c0,0.1-0.1,0.2-0.1,0.4c-0.1,0.2-0.2,0.5-0.3,0.7
		c0,0.1-0.1,0.1-0.1,0.2c-0.1,0.3-0.3,0.6-0.4,0.9c0,0.1-0.1,0.2-0.1,0.3c-0.1,0.2-0.2,0.4-0.3,0.6c-0.1,0.1-0.1,0.2-0.2,0.4
		c-0.1,0.2-0.2,0.4-0.3,0.6c-0.1,0.1-0.1,0.3-0.2,0.4c-0.1,0.2-0.2,0.4-0.3,0.5c-0.1,0.1-0.2,0.3-0.2,0.4c-0.1,0.2-0.2,0.3-0.3,0.5
		c-0.1,0.1-0.2,0.3-0.3,0.4c-0.1,0.2-0.2,0.3-0.3,0.5c-0.1,0.1-0.2,0.3-0.3,0.4c-0.1,0.2-0.2,0.3-0.4,0.5c-0.1,0.1-0.2,0.3-0.3,0.4
		c-0.1,0.2-0.3,0.3-0.4,0.5c-0.1,0.1-0.2,0.2-0.3,0.4c-0.1,0.2-0.3,0.3-0.4,0.5c-0.1,0.1-0.2,0.2-0.3,0.3c-0.2,0.2-0.3,0.3-0.5,0.4
		c-0.1,0.1-0.2,0.2-0.3,0.3c-0.2,0.1-0.4,0.3-0.5,0.4c-0.1,0.1-0.2,0.2-0.3,0.3c-0.2,0.1-0.4,0.3-0.6,0.4c-0.1,0.1-0.2,0.1-0.3,0.2
		c-0.3,0.2-0.6,0.3-0.9,0.5c0,0-0.1,0.1-0.1,0.1c-0.3,0.2-0.7,0.3-1.1,0.5c-0.1,0-0.2,0.1-0.2,0.1c-0.3,0.1-0.6,0.2-0.9,0.3
		c-0.1,0-0.3,0.1-0.4,0.1c-0.3,0.1-0.5,0.2-0.8,0.2c-0.2,0-0.3,0.1-0.5,0.1c-0.2,0.1-0.5,0.1-0.8,0.1c-0.2,0-0.3,0-0.5,0.1
		c-0.2,0-0.3,0-0.5,0.1l0-4.3c6.8-0.9,10.2-6.4,11.9-10.9c0.1-0.1,0.2-0.2,0.4-0.3c0,0,0.1-0.1,0.1-0.1c0.5-0.5,1.1-1,1.6-1.6
		c0.1-0.1,0.1-0.1,0.2-0.2c0.8-0.9,1.5-1.8,2.1-2.7c0.1-0.1,0.2-0.2,0.2-0.4C210.6,196.2,210.7,196,210.8,195.8z M161.8,163.6
		c0.2-0.2,0.4-0.4,0.5-0.6c0,0,0.1-0.1,0.1-0.1c0.1-0.2,0.3-0.4,0.4-0.6c0-0.1,0.1-0.1,0.1-0.2c0.1-0.2,0.3-0.5,0.4-0.7
		c0,0,0-0.1,0-0.1c0.1-0.3,0.2-0.6,0.4-0.9c0-0.1,0.1-0.2,0.1-0.2c0.1-0.3,0.2-0.5,0.2-0.8c0-0.1,0-0.2,0.1-0.2
		c0.1-0.3,0.2-0.7,0.2-1c0-0.1,0-0.1,0-0.2c0-0.3,0.1-0.6,0.1-0.9c0-0.1,0-0.2,0-0.3c0-0.4,0-0.8,0-1.2c0-0.4,0-0.8,0-1.2
		c0-0.1,0-0.2,0-0.3c0-0.3-0.1-0.6-0.1-0.9c0-0.1,0-0.2,0-0.2c-0.1-0.4-0.1-0.7-0.2-1c0-0.1,0-0.2-0.1-0.2c-0.1-0.3-0.1-0.5-0.2-0.8
		c0-0.1-0.1-0.2-0.1-0.3c-0.1-0.3-0.2-0.6-0.4-0.9c0,0,0-0.1,0-0.1c-0.1-0.2-0.2-0.5-0.4-0.7c0-0.1-0.1-0.1-0.1-0.2
		c-0.1-0.2-0.3-0.4-0.4-0.6c0,0-0.1-0.1-0.1-0.1c-0.2-0.2-0.3-0.4-0.5-0.6c0,0,0,0-0.1-0.1h3.6c2.2,0,4,3.7,4,8.1
		c0,4.4-1.8,8.1-4,8.1L161.8,163.6C161.8,163.6,161.8,163.6,161.8,163.6z M159.4,163.7c-2.2,0-4.1-3.7-4.1-8.1
		c0-0.8,0.1-1.6,0.2-2.4c0.5-3.3,2.1-5.8,3.9-5.8c0,0,0,0,0,0c2.2,0,4.1,3.8,4.1,8.1c0,0.3,0,0.5,0,0.8
		C163.3,160.3,161.5,163.6,159.4,163.7z M169.9,159.3c0-0.1,0-0.2,0.1-0.3c0-0.1,0-0.2,0.1-0.3c0-0.2,0.1-0.3,0.1-0.5
		c0-0.1,0-0.3,0.1-0.4c0-0.1,0-0.3,0.1-0.4c0-0.2,0-0.3,0-0.5c0-0.1,0-0.2,0-0.4c0-0.3,0-0.6,0-0.9c0-1-0.1-1.9-0.2-2.8
		c2.1,0.3,8.7,1.2,16.6,1.2c8.9,0,19.4-1.1,27.1-5.5v6.4C196.3,164.9,173.4,160.1,169.9,159.3z M169.9,151.7
		c-0.8-3.2-2.5-5.3-4.5-5.3h-4.7v-37.8c0-0.8,0-1.6,0.1-2.4c0-0.2,0-0.3,0.1-0.5c0.1-0.6,0.1-1.3,0.3-1.9c0.1-0.3,0.1-0.5,0.2-0.8
		c0.1-0.5,0.2-1,0.4-1.5c0.1-0.2,0.2-0.5,0.2-0.7c0.2-0.5,0.3-1,0.5-1.5c0.1-0.2,0.2-0.5,0.3-0.7c0.2-0.5,0.4-1,0.6-1.4
		c0.1-0.2,0.2-0.4,0.4-0.7c0.2-0.5,0.5-0.9,0.7-1.3c0.1-0.2,0.3-0.4,0.4-0.6c0.3-0.4,0.6-0.9,0.9-1.3c0.1-0.2,0.3-0.3,0.4-0.5
		c0.3-0.4,0.7-0.8,1-1.2c0.2-0.2,0.3-0.3,0.5-0.5c0.4-0.4,0.7-0.8,1.1-1.1c0.2-0.2,0.4-0.3,0.5-0.5c0.4-0.4,0.8-0.7,1.2-1
		c0.2-0.1,0.4-0.3,0.6-0.4c0.4-0.3,0.8-0.6,1.3-0.9c0.2-0.1,0.4-0.2,0.6-0.4c0.4-0.3,0.9-0.5,1.3-0.8c0.2-0.1,0.5-0.2,0.7-0.3
		c0.5-0.2,0.9-0.5,1.4-0.7c0.2-0.1,0.5-0.2,0.7-0.3c0.5-0.2,1-0.4,1.5-0.5c0.3-0.1,0.5-0.1,0.8-0.2c0.5-0.1,1-0.3,1.5-0.4
		c0.3-0.1,0.6-0.1,0.8-0.1c0.5-0.1,1-0.2,1.5-0.3c0,0,0.1,0,0.1,0c1-0.1,1.9-0.2,2.9-0.2h2.3c7.7,0,14.5,3.4,19.2,8.8
		c0.3,0.3,0.6,0.7,0.8,1c0.2,0.3,0.4,0.5,0.6,0.8c0.3,0.4,0.5,0.8,0.8,1.2c0.1,0.2,0.3,0.4,0.4,0.7c0.3,0.5,0.5,0.9,0.8,1.4
		c0.1,0.2,0.2,0.4,0.3,0.5c0.3,0.5,0.5,1.1,0.7,1.7c0.1,0.2,0.1,0.3,0.2,0.5c0.2,0.6,0.4,1.2,0.6,1.8c0,0.1,0.1,0.3,0.1,0.4
		c0.2,0.6,0.3,1.3,0.5,1.9c0,0.1,0,0.2,0.1,0.3c0.1,0.7,0.2,1.4,0.3,2.1c0,0.1,0,0.2,0,0.2c0.1,0.7,0.1,1.5,0.1,2.2v38.8
		C199.1,156.1,173.1,152.2,169.9,151.7z M109.7,118.6c-0.4-0.1-0.8,0-1,0.3s-0.3,0.7-0.1,1.1l8.2,16.1l-3.1-0.4
		c0.6-0.8,0.9-1.7,0.9-2.7c0-2.5-2.1-4.6-4.6-4.6s-4.6,2.1-4.6,4.6c0,0.6,0.1,1.1,0.3,1.6l-4.1-0.6l0-32.8c0.2-0.3,0.5-0.5,0.7-0.8
		c0,0,0.1-0.1,0.1-0.1c0.4-0.5,0.8-0.9,1.1-1.4c0,0,0,0,0,0c0.2,0.2,0.4,0.4,0.6,0.6c0,0,0,0,0,0c0.7,0.6,1.6,0.9,2.5,0.9h0h6.4h0
		c1.3,0,2.4-0.6,3.1-1.5c0,0,0,0,0,0c0.4,0.5,0.7,0.9,1.1,1.4c0.1,0.1,0.1,0.2,0.2,0.3c0.2,0.3,0.4,0.5,0.7,0.8V121L109.7,118.6z
		 M118.3,123v11.7l-6.9-13.6L118.3,123z M113.5,132.9c0,1-0.4,1.9-1.1,2.5l-5.6-0.8c-0.3-0.5-0.5-1.1-0.5-1.7c0-2,1.6-3.6,3.6-3.6
		C111.9,129.3,113.5,130.9,113.5,132.9z M74.6,132.1l25.9,3.7l0,106.8C84.1,203,67,150,69.9,106.3c1.5-23,8.1-34.6,10.5-38.1v4.8
		c0,0.2,0.1,0.4,0.3,0.4l24,12.2c-0.6,0.3-1.1,0.8-1.4,1.3h0c-1.6-1-16.2-9.5-23.1-6.6c-1.8,0.7-2.9,2.2-3.4,4.3
		c0,0.2-1.6,15.9,6.8,26c0,0.1,1,1.3,3.1,1.3c0,0,0.1,0,0.1,0c2.6,0,7-1.8,13.9-9.6l0,31.5l-25.6-3.6c-0.5-0.1-1.1,0.3-1.1,0.8
		C73.7,131.5,74.1,132,74.6,132.1z M108.4,86h4.8c0,0,0.1,0,0.1,0c1.1,0,2,0.6,2.6,1.5c0,0,0,0,0,0c0,0.1,0.1,0.1,0.1,0.2
		c0.2,0.4,0.4,0.9,0.4,1.5v4.7L108.4,86z M116.2,96.5c-0.1,0.4-0.2,0.7-0.3,1.1c0,0,0,0.1-0.1,0.1c-0.6,0.9-1.6,1.5-2.7,1.5h-6.4
		c0,0-0.1,0-0.1,0c-0.1,0-0.3,0-0.4,0c-0.1,0-0.2,0-0.3-0.1c0,0-0.1,0-0.1,0c-0.8-0.2-1.5-0.8-1.9-1.5c0,0,0,0,0,0c0,0,0,0,0,0
		c0,0,0,0,0,0c-0.2-0.4-0.4-1-0.4-1.5v-7c0-0.3,0-0.5,0.1-0.8c0,0,0,0,0,0c0.1-0.3,0.2-0.5,0.3-0.7c0,0,0,0,0,0
		c0.4-0.7,1-1.2,1.7-1.4L116.2,96.5z M113.2,85C113.2,85,113.2,85,113.2,85L113.2,85l-5.9,0l-4.5-4.5c-0.4-0.4-1-0.4-1.4,0
		c-0.4,0.4-0.4,1,0,1.4l1.8,1.7l-21.8-11V52.3c0.1,0.1,0.3,0.2,0.4,0.3c0.3,0.2,0.5,0.4,0.8,0.6c0.2,0.1,0.3,0.3,0.5,0.4
		c0.4,0.3,0.7,0.6,1.1,0.9c0.1,0.1,0.2,0.2,0.3,0.2c0.4,0.3,0.8,0.6,1.2,1c0.1,0,0.1,0.1,0.2,0.1c0.5,0.3,0.9,0.7,1.4,1c0,0,0,0,0,0
		c1.9,1.4,3.6,2.7,5.1,3.7c0.7,0.5,1.3,0.9,1.8,1.3c0,0,0.1,0,0.1,0.1c0,0,0,0,0,0c0.9,0.7,1.6,1.2,1.8,1.4c0.2,0.2,0.5,0.4,0.8,0.5
		c0,0,0,0,0.1,0c1.1,0.5,2.8,0.6,4.7,0.6c1.5,0,3.2-0.1,4.8-0.2c1.4-0.1,2.7-0.1,3.8-0.1c1.1,0,2.4,0.1,3.7,0.2
		c0.6,0,1.3,0.1,1.9,0.1c0.2,0,0.4,0,0.5,0c0.7,0,1.4,0.1,2,0.1c0,0,0,0,0,0c0,0,0,0,0,0c0,0,0,0,0,0c0.4,0,0.8,0,1.2,0
		c0.1,0,0.2,0,0.3,0c0.4,0,0.8-0.1,1.1-0.1c0.1,0,0.1,0,0.2,0c0.3-0.1,0.6-0.1,0.9-0.2c0.1,0,0.1,0,0.2,0c0.3-0.1,0.6-0.2,0.9-0.4
		c0.1,0,0.1-0.1,0.2-0.1c0.3-0.2,0.5-0.3,0.7-0.5c0.3-0.3,1-0.9,2-1.6c0.7-0.5,1.4-1,2.3-1.7c0.1,0,0.1-0.1,0.2-0.1
		c2.8-2.1,6.5-4.8,10-7.6l0,14.4c0,0,0,0,0,0l0,5.9L113.6,85C113.5,85,113.3,85,113.2,85z M86.7,110.9
		C86.7,110.9,86.6,110.9,86.7,110.9c-1.7,0-2.4-0.9-2.4-0.9c-8.1-9.8-6.6-25.1-6.6-25.2c0.4-1.7,1.3-2.9,2.8-3.5
		c0.9-0.4,1.9-0.5,3.1-0.5c7.4,0,18.9,6.9,19.3,7.1c0,0,0,0.1,0,0.1c-0.1,0.2-0.1,0.3-0.1,0.5c0,0.1,0,0.3,0,0.5c0,0.1,0,0.2,0,0.2
		v0v7v0c0,0.6,0.1,1.1,0.3,1.6c-0.1,0.1-0.2,0.2-0.2,0.3c-0.4,0.5-0.7,0.9-1.1,1.3c-0.2,0.2-0.4,0.4-0.5,0.6
		C93.7,108.9,89.2,110.9,86.7,110.9z M118.2,99.5c-0.3-0.4-0.6-0.8-0.9-1.1c-0.1-0.2-0.3-0.3-0.4-0.5c0.1-0.2,0.1-0.3,0.2-0.5
		l8.6,8.5c0.3,0.3,0.6,0.4,1,0.2c0.4-0.1,0.6-0.4,0.7-0.8l2.7-12.9l9.2,11.1c-0.9,2.2-2.2,4.4-3.8,6.4c0,0-0.7,0.9-2.3,0.9
		c0,0-0.1,0-0.1,0c-2.5,0-7-2-14.3-10.7C118.6,100,118.4,99.8,118.2,99.5z M117.3,88.7c0-0.1,0-0.2,0-0.4c0-0.2-0.1-0.4-0.2-0.6
		c0,0,0,0,0-0.1c1.6-0.9,15.9-9.2,22.2-6.5c1.5,0.6,2.4,1.8,2.8,3.5c0,0.1,0.9,8.5-2,16.8l-9.8-11.9c-0.2-0.3-0.6-0.4-1-0.3
		c-0.4,0.1-0.7,0.4-0.7,0.8l-2.7,13.2l-8.5-8.4v-5.7v0C117.3,88.9,117.3,88.8,117.3,88.7z M119.3,172.5l15.5-10
		c0.3-0.2,0.5-0.5,0.5-0.9c0-0.4-0.2-0.7-0.5-0.8l-10.5-5.6l24.1-12.4c-4.6,34.4-17,70.5-29,99.7V172.5z M121.6,154.4
		c-0.3,0.2-0.5,0.5-0.5,0.9c0,0.4,0.2,0.7,0.5,0.9l10.7,5.7l-13,8.3v-32.3c0.2-0.3,0.2-0.7,0.1-1l-0.1-0.1v-13.4l30.3,8.4
		c-0.2,2.9-0.5,5.8-0.9,8.7L121.6,154.4z M119.3,121.2v-18.9c6.8,7.7,11.1,9.5,13.7,9.5c0,0,0.1,0,0.1,0c2.1,0,3.1-1.3,3.1-1.3
		c1.6-1.9,2.8-4,3.7-6.1l10.2,12.3c0,0,0.1,0,0.1,0.1c0,4.2-0.2,8.5-0.5,12.9L119.3,121.2z M140.8,102.3c3.1-8.7,2.2-17.7,2.2-17.9
		c-0.5-2.1-1.6-3.5-3.4-4.2c-6.8-2.9-21.1,5.3-23.1,6.5c-0.4-0.6-1-1.1-1.6-1.4l24.2-12c0.2-0.1,0.3-0.3,0.3-0.4l0-4.8
		c2.4,3.5,9,15.1,10.5,38.3c0.2,2.4,0.2,4.8,0.3,7.3L140.8,102.3z M73.3,16.8c10.1-5,21.1-8.7,32.5-10.8c0,0,0,0,0,0.1
		c0,0.4-0.7,8.3-1.2,14.7c-3.3-0.9-5.1,1.9-5.1,2c0,0,0,0,0,0c-0.1,0.1-3.5,5.6-10.3,7.8c-2.1,0.7-3.2,1.7-3.5,3
		c-0.4,2.6,3.2,5.2,3.3,5.3c0.1,0.1,0.2,0.1,0.3,0.1c0.2,0,0.3-0.1,0.4-0.2c0.2-0.2,0.1-0.5-0.1-0.7c-0.9-0.7-3.2-2.7-2.9-4.4
		c0.1-0.9,1.1-1.7,2.8-2.2c7.2-2.4,10.7-8,10.8-8.2c0,0,0,0,0,0c0,0,0,0,0,0c0.1-0.1,1-1.7,3-1.7c-1.3,0.6-3,1.7-3.4,3.2
		c-0.3,1.2,0.2,2.4,1.4,3.6c4.2,4.2,8.1,3.9,8.7,3.9c0.1,0,0.3,0,0.6,0c1.3,0,4.6-0.4,8.1-3.9c1.1-1.1,1.6-2.3,1.4-3.3
		c2,1.3,5.4,3.4,9.5,5.2c0,0,4.9,2.4,3,9.1c-0.1,0.3,0.1,0.5,0.3,0.6c0,0,0.1,0,0.1,0c0.2,0,0.4-0.1,0.5-0.4
		c2.1-7.5-3.5-10.3-3.6-10.3c-6.6-2.8-11.2-6.3-11.2-6.4c0,0,0,0,0,0c-1.5-1.3-3.6-2-3.7-2c0,0-0.1,0-0.1,0L113.4,6
		c0-0.3-0.3-0.5-0.5-0.4c-0.3,0-0.5,0.3-0.4,0.5l2.2,21c0,0.3,0.2,0.4,0.5,0.4c0,0,0,0,0.1,0c0.3,0,0.5-0.3,0.4-0.5l-0.5-5
		c1.2,0.4,3.6,1.5,4,3.1c0.2,0.8-0.2,1.7-1.1,2.6c-4.1,4.1-7.9,3.6-7.9,3.6c0,0-0.1,0-0.1,0c0,0-3.8,0.5-7.9-3.6
		c-0.9-0.9-1.3-1.8-1.1-2.6c0.3-1.4,2.3-2.4,3.6-2.9c-0.2,1.9-0.3,3.6-0.4,4.8c0,0.3,0.2,0.5,0.5,0.5c0,0,0,0,0,0
		c0.3,0,0.5-0.2,0.5-0.5c0.2-2.1,1.8-20.5,1.8-21c0-0.1,0-0.2-0.1-0.2c6.9-1.2,14-1.8,21.3-1.8c6.4,0,12.7,0.5,18.9,1.4
		c0,21.8,0,33.9-0.2,36c-0.2,2.2-3.8,5.8-8.1,9.4c0,0,0,0,0,0c-0.4,0.4-0.9,0.7-1.4,1.1c0,0-0.1,0.1-0.1,0.1
		c-0.4,0.3-0.8,0.6-1.2,0.9c-0.1,0.1-0.3,0.2-0.4,0.3c-0.3,0.2-0.6,0.5-0.9,0.7c-0.2,0.2-0.4,0.3-0.6,0.5c-0.3,0.2-0.5,0.4-0.8,0.6
		c-0.2,0.2-0.4,0.3-0.6,0.5c-0.3,0.2-0.5,0.4-0.8,0.6c-0.2,0.2-0.5,0.3-0.7,0.5c-0.1,0.1-0.2,0.2-0.3,0.2c-1.1,0.8-2.2,1.6-3.1,2.3
		c-0.1,0.1-0.2,0.1-0.2,0.2l9.2-11.2c0.2-0.2,0.1-0.5-0.1-0.7c-0.2-0.2-0.5-0.1-0.7,0.1l-11.7,14.1c0,0-0.1,0.1-0.1,0.1
		c-0.4,0.3-0.6,0.5-0.8,0.7c-1.6,1.5-5.8,1.2-9.4,1c-1.4-0.1-2.7-0.2-3.8-0.2c-1.1,0-2.4,0.1-3.8,0.1c-3.1,0.2-7.2,0.4-9-0.3
		L84.2,47.5c-0.2-0.2-0.5-0.2-0.7-0.1c-0.2,0.2-0.2,0.5-0.1,0.7l10.5,12.3c-0.3-0.2-0.6-0.4-1-0.7c-3.1-2.2-7.8-5.6-11.7-8.9
		c0,0,0,0,0,0c-3.7-3.1-6.8-6.2-7.6-8.5C73.4,40,73.3,31.4,73.3,16.8z M72.3,17.3c0,14.5,0.1,23,0.4,25.3c0,0,0,0.1,0,0.1
		c0.9,2.5,4,5.6,7.7,8.8v14.9c-2.6,1.9-32.6,22.8-71.7,27.8C18.2,60.6,41.6,32.7,72.3,17.3z M82,243.1
		c-30.7-51.6-48.8-127.7-50.4-134.6l17-3c0.3,0,0.5-0.3,0.4-0.6c0-0.3-0.3-0.5-0.6-0.4l-17.5,3.1c-0.1,0-0.3,0.1-0.3,0.2
		c-0.1,0.1-0.1,0.3-0.1,0.4c0.2,0.8,18.2,80.3,50,134.3C35.6,223.8,4,179.5,4,128c0-11.3,1.5-22.3,4.4-32.8
		C43.2,90.9,70.8,74,78.8,68.7c-2.9,4.6-8.5,16-9.9,37.4c-3,44.8,14.9,99.2,31.6,139.2c0,0,0,0,0,0c0.1,0.3,0.2,0.6,0.4,0.9
		c0.5,1.1,0.9,2.1,1.4,3.2C95.3,247.8,88.5,245.8,82,243.1z M103.5,249.6c-0.5-1.2-1-2.4-1.5-3.5c-0.2-0.4-0.3-0.7-0.5-1.1l0-109
		l5.9,0.8c0.7,0.5,1.6,0.7,2.5,0.7c0.4,0,0.9-0.1,1.3-0.2l7.1,1v32.5l-4.1,2.6c-0.8-1.2-2.2-2-3.7-2c-2.5,0-4.6,2.1-4.6,4.6
		c0,0.8,0.2,1.6,0.6,2.3l-1.6,1c-0.5,0.3-0.6,0.9-0.3,1.4c0.2,0.3,0.5,0.5,0.8,0.5c0.2,0,0.4-0.1,0.5-0.2l1.9-1.2
		c0.7,0.5,1.6,0.8,2.6,0.8c2.5,0,4.6-2.1,4.6-4.6c0-0.3,0-0.5-0.1-0.7l3.3-2.1V245c-0.1,0.2-0.2,0.4-0.2,0.6
		c-0.8,1.9-1.6,3.9-2.5,5.8C111.5,251,107.4,250.4,103.5,249.6z M114.1,175.9c0,0,0,0.1,0,0.1c0,2-1.6,3.6-3.6,3.6
		c-0.6,0-1.1-0.2-1.6-0.4L114.1,175.9z M107.4,177.8c-0.3-0.5-0.5-1.1-0.5-1.8c0-2,1.6-3.6,3.6-3.6c1.2,0,2.2,0.6,2.9,1.5
		L107.4,177.8z M128,252c-3.8,0-7.6-0.2-11.4-0.5c0.8-1.8,1.5-3.5,2.3-5.4c0.1-0.3,0.2-0.5,0.3-0.8c0,0,0,0,0,0
		c12.5-29.8,25.5-67.4,30.2-103l2-1c0.5-0.3,0.7-0.9,0.4-1.3c-0.3-0.5-0.9-0.7-1.3-0.4l-0.7,0.4c0.3-2.6,0.6-5.3,0.8-7.9l0.1,0
		c0.5,0.1,1.1-0.2,1.2-0.7c0.1-0.5-0.2-1.1-0.7-1.2l-0.5-0.1c0.3-4.4,0.5-8.7,0.5-12.9c0.1,0,0.2-0.1,0.3-0.2c0.4-0.4,0.5-1,0.1-1.4
		l-0.5-0.5c0-2.9-0.1-5.7-0.3-8.6c-1.5-23.3-8-34.9-10.6-38.7c5.3,2,22.9,8.6,40.6,14.9c0,0-0.1,0-0.1,0c-0.7,0.1-1.3,0.3-2,0.5
		c-0.1,0-0.2,0.1-0.3,0.1c-0.6,0.2-1.3,0.4-1.9,0.6c-0.1,0-0.2,0.1-0.3,0.1c-0.6,0.2-1.2,0.5-1.8,0.8c-0.1,0-0.2,0.1-0.2,0.1
		c-0.6,0.3-1.2,0.6-1.8,1c-0.1,0-0.1,0.1-0.2,0.1c-0.6,0.4-1.2,0.7-1.7,1.1c0,0-0.1,0.1-0.1,0.1c-0.6,0.4-1.1,0.9-1.7,1.3
		c0,0,0,0,0,0c-0.5,0.5-1.1,1-1.6,1.5c0,0-0.1,0.1-0.1,0.1c-0.5,0.5-0.9,1-1.4,1.5c0,0.1-0.1,0.1-0.1,0.2c-0.4,0.5-0.8,1-1.2,1.6
		c-0.1,0.1-0.1,0.1-0.2,0.2c-0.4,0.5-0.7,1.1-1.1,1.7c-0.1,0.1-0.1,0.2-0.2,0.3c-0.3,0.6-0.6,1.1-0.9,1.7c0,0.1-0.1,0.2-0.1,0.3
		c-0.3,0.6-0.5,1.2-0.8,1.8c0,0.1-0.1,0.2-0.1,0.3c-0.2,0.6-0.4,1.3-0.6,1.9c0,0.1,0,0.2-0.1,0.3c-0.2,0.7-0.3,1.3-0.5,2
		c0,0.1,0,0.2,0,0.2c-0.1,0.7-0.2,1.4-0.3,2.1c0,0,0,0.1,0,0.1c-0.1,0.7-0.1,1.5-0.1,2.3v37.8h-0.2c0,0,0,0-0.1,0
		c-2.9,0-5.1,4-5.1,9.1c0,5.1,2.3,9.1,5.2,9.1h0.2l0,31c0,0,0.1,0.7,0.4,1.9c-8.8,21.7-18.1,39.9-27.7,54.3
		C130.9,252,129.5,252,128,252z M180.7,240.2c-14.4,6.8-30.4,10.9-47.1,11.6c9.3-14.1,18.3-31.8,26.9-52.7c0,0.2,0.1,0.3,0.2,0.5
		c0,0.1,0,0.1,0.1,0.2c0.1,0.2,0.1,0.4,0.2,0.6c0,0.1,0.1,0.2,0.1,0.2c0.1,0.2,0.1,0.4,0.2,0.6c0,0.1,0.1,0.2,0.1,0.3
		c0.1,0.2,0.2,0.4,0.2,0.6c0,0.1,0.1,0.2,0.1,0.3c0.1,0.2,0.2,0.4,0.3,0.6c0,0.1,0.1,0.2,0.1,0.3c0.1,0.2,0.2,0.4,0.3,0.6
		c0.1,0.1,0.1,0.2,0.2,0.4c0.1,0.2,0.2,0.4,0.3,0.6c0.1,0.1,0.1,0.2,0.2,0.4c0.1,0.2,0.2,0.4,0.3,0.6c0.1,0.1,0.1,0.3,0.2,0.4
		c0.1,0.2,0.2,0.4,0.4,0.6c0.1,0.1,0.2,0.3,0.2,0.4c0.1,0.2,0.3,0.4,0.4,0.6c0.1,0.1,0.2,0.3,0.3,0.4c0.1,0.2,0.3,0.4,0.4,0.6
		c0.1,0.1,0.2,0.3,0.3,0.4c0.1,0.2,0.3,0.4,0.4,0.5c0.1,0.1,0.2,0.3,0.3,0.4c0.1,0.2,0.3,0.3,0.5,0.5c0.1,0.1,0.2,0.3,0.4,0.4
		c0.2,0.2,0.3,0.3,0.5,0.5c0.1,0.1,0.3,0.3,0.4,0.4c0.2,0.2,0.3,0.3,0.5,0.5c0.2,0.1,0.3,0.3,0.5,0.4c0.2,0.1,0.4,0.3,0.5,0.4
		c0.2,0.1,0.3,0.3,0.5,0.4c0.2,0.1,0.4,0.3,0.6,0.4c0.2,0.1,0.4,0.3,0.5,0.4c0.2,0.1,0.4,0.2,0.6,0.3c0.2,0.1,0.4,0.2,0.6,0.3
		c0.2,0.1,0.4,0.2,0.6,0.3c0.2,0.1,0.4,0.2,0.6,0.3c0.2,0.1,0.4,0.2,0.6,0.3c0.2,0.1,0.5,0.2,0.7,0.3c0.2,0.1,0.4,0.1,0.7,0.2
		c0.2,0.1,0.5,0.2,0.7,0.2c0.2,0.1,0.5,0.1,0.7,0.2c0.3,0.1,0.5,0.1,0.8,0.2c0.2,0,0.5,0.1,0.7,0.1c0.3,0,0.6,0.1,0.9,0.1
		c0.2,0,0.5,0.1,0.7,0.1c0.2,0,0.4,0.1,0.7,0.1V240.2z M180.7,216.8c-0.2,0-0.3,0-0.5,0c-0.3,0-0.5-0.1-0.8-0.1
		c-0.2,0-0.5-0.1-0.7-0.1c-0.3,0-0.5-0.1-0.8-0.1c-0.2,0-0.5-0.1-0.7-0.2c-0.2-0.1-0.5-0.1-0.7-0.2c-0.2-0.1-0.4-0.1-0.7-0.2
		c-0.2-0.1-0.5-0.1-0.7-0.2c-0.2-0.1-0.4-0.2-0.6-0.3c-0.2-0.1-0.4-0.2-0.6-0.3c-0.2-0.1-0.4-0.2-0.6-0.3c-0.2-0.1-0.4-0.2-0.6-0.3
		c-0.2-0.1-0.4-0.2-0.6-0.3c-0.2-0.1-0.4-0.2-0.5-0.3c-0.2-0.1-0.4-0.2-0.5-0.4c-0.2-0.1-0.3-0.2-0.5-0.4c-0.2-0.1-0.3-0.3-0.5-0.4
		c-0.2-0.1-0.3-0.3-0.5-0.4c-0.2-0.1-0.3-0.3-0.5-0.4c-0.1-0.1-0.3-0.3-0.4-0.4c-0.2-0.1-0.3-0.3-0.5-0.5c-0.1-0.1-0.3-0.3-0.4-0.4
		c-0.1-0.2-0.3-0.3-0.4-0.5c-0.1-0.1-0.3-0.3-0.4-0.4c-0.1-0.2-0.3-0.3-0.4-0.5c-0.1-0.1-0.2-0.3-0.3-0.4c-0.1-0.2-0.2-0.3-0.4-0.5
		c-0.1-0.1-0.2-0.3-0.3-0.4c-0.1-0.2-0.2-0.3-0.3-0.5c-0.1-0.1-0.2-0.3-0.3-0.4c-0.1-0.2-0.2-0.3-0.3-0.5c-0.1-0.2-0.2-0.3-0.3-0.5
		c-0.1-0.2-0.2-0.3-0.3-0.5c-0.1-0.1-0.2-0.3-0.2-0.4c-0.1-0.2-0.2-0.3-0.3-0.5c-0.1-0.1-0.2-0.3-0.2-0.4c-0.1-0.2-0.2-0.3-0.2-0.5
		c-0.1-0.1-0.1-0.3-0.2-0.4c-0.1-0.2-0.1-0.3-0.2-0.5c-0.1-0.1-0.1-0.3-0.2-0.4c-0.1-0.2-0.1-0.3-0.2-0.5c-0.1-0.1-0.1-0.3-0.2-0.4
		c-0.1-0.1-0.1-0.3-0.2-0.4c0-0.1-0.1-0.3-0.1-0.4c0-0.1-0.1-0.3-0.1-0.4c0-0.1-0.1-0.3-0.1-0.4c0-0.1-0.1-0.2-0.1-0.4
		c0-0.1-0.1-0.3-0.1-0.4c0-0.1-0.1-0.2-0.1-0.3c0-0.1-0.1-0.3-0.1-0.4c0-0.1,0-0.2-0.1-0.3c0-0.1-0.1-0.2-0.1-0.3
		c0-0.1,0-0.2-0.1-0.2c0-0.1-0.1-0.2-0.1-0.3c0-0.1,0-0.1,0-0.2c0-0.1,0-0.2-0.1-0.3c0,0,0,0,0,0c0-0.1-0.1-0.2-0.1-0.3
		c0,0,0,0,0-0.1c-0.1-0.3-0.1-0.5-0.1-0.5v-31h4.2l0,31v0.1c0,0,0.1,1,0.5,2.4c0,0,0,0.1,0,0.1c1.3,4.4,5.1,13.2,15.3,14.3V216.8z
		 M192.9,217.3L192.9,217.3v16.3c-3.6,2.2-7.4,4.3-11.2,6.1v-22.4c0,0,0,0,0,0v-4c1.2,0.7,3.5,1,5.6,1c2.1,0,4.3-0.3,5.6-1V217.3z
		 M181.7,212c0-0.4,1.9-1.4,5.6-1.4c3.6,0,5.5,0.9,5.6,1.4c-0.1,0.4-1.9,1.3-5.6,1.3C183.6,213.4,181.7,212.4,181.7,212z
		 M187.3,209.7c-2.9,0-5.9,0.6-6.5,1.8c-8-0.9-11.9-6.9-13.6-11.3c5,5.1,11.7,8,18.9,8h2.3c5.9,0,11.4-2,15.8-5.2
		c-1.8,3.8-4.9,7.8-10.4,8.6C193.1,210.2,190.1,209.7,187.3,209.7z M193.9,233l0-15.2c0.2,0,0.3,0,0.5-0.1c0.2,0,0.5-0.1,0.7-0.1
		c0.2,0,0.5-0.1,0.7-0.1s0.4-0.1,0.7-0.1c0.2-0.1,0.4-0.1,0.6-0.2c0.2-0.1,0.4-0.1,0.6-0.2c0.2-0.1,0.4-0.1,0.6-0.2
		c0.2-0.1,0.4-0.2,0.6-0.2c0.2-0.1,0.4-0.2,0.6-0.3c0.2-0.1,0.4-0.2,0.6-0.3c0.2-0.1,0.3-0.2,0.5-0.3c0.2-0.1,0.4-0.2,0.5-0.3
		c0.2-0.1,0.3-0.2,0.5-0.3c0.2-0.1,0.3-0.2,0.5-0.4c0.2-0.1,0.3-0.2,0.5-0.4c0.2-0.1,0.3-0.3,0.5-0.4c0.1-0.1,0.3-0.3,0.4-0.4
		c0.2-0.1,0.3-0.3,0.5-0.4c0.1-0.1,0.3-0.3,0.4-0.4c0.1-0.2,0.3-0.3,0.4-0.5c0.1-0.1,0.2-0.3,0.4-0.4c0.1-0.2,0.3-0.3,0.4-0.5
		c0.1-0.1,0.2-0.3,0.3-0.4c0.1-0.2,0.3-0.3,0.4-0.5c0.1-0.1,0.2-0.3,0.3-0.4c0.1-0.2,0.2-0.4,0.4-0.5c0.1-0.1,0.2-0.3,0.3-0.4
		c0.1-0.2,0.2-0.4,0.3-0.5c0.1-0.1,0.2-0.3,0.2-0.4c0.1-0.2,0.2-0.4,0.3-0.6c0.1-0.1,0.2-0.3,0.2-0.4c0.1-0.2,0.2-0.4,0.3-0.6
		c0.1-0.1,0.1-0.3,0.2-0.4c0.1-0.2,0.2-0.4,0.3-0.6c0.1-0.1,0.1-0.3,0.2-0.4c0.1-0.2,0.2-0.4,0.2-0.6c0.1-0.1,0.1-0.3,0.2-0.4
		c0.1-0.2,0.2-0.4,0.2-0.6c0-0.1,0.1-0.3,0.1-0.4c0.1-0.2,0.1-0.4,0.2-0.6c0-0.1,0.1-0.2,0.1-0.4c0.1-0.2,0.1-0.4,0.2-0.6
		c0-0.1,0.1-0.2,0.1-0.3c0.1-0.2,0.1-0.4,0.2-0.5c0-0.1,0.1-0.2,0.1-0.3c0-0.2,0.1-0.4,0.1-0.5c0-0.1,0-0.2,0.1-0.3
		c0-0.2,0.1-0.4,0.1-0.5c0-0.1,0-0.1,0.1-0.2c0-0.2,0.1-0.3,0.1-0.5c0-0.1,0-0.1,0-0.2c0-0.2,0.1-0.3,0.1-0.5c0,0,0-0.1,0-0.1
		c0-0.2,0.1-0.3,0.1-0.4c0,0,0,0,0-0.1c0-0.1,0.1-0.3,0.1-0.4c0,0,0,0,0,0c0.1-0.6,0.1-0.9,0.2-1V194c0.1-0.2,0.2-0.4,0.3-0.7
		c0.1-0.1,0.1-0.2,0.2-0.4c0.1-0.3,0.3-0.5,0.4-0.8c0.1-0.2,0.2-0.4,0.2-0.6c0.1-0.2,0.2-0.5,0.3-0.7c0.1-0.4,0.3-0.7,0.4-1.1
		c0-0.1,0.1-0.2,0.1-0.2c0.2-0.5,0.3-1,0.4-1.5c0-0.1,0-0.2,0.1-0.3c0.1-0.4,0.2-0.8,0.3-1.2c0-0.1,0-0.2,0.1-0.4
		c0.1-0.4,0.1-0.8,0.2-1.1c0-0.1,0-0.3,0.1-0.4c0-0.4,0.1-0.8,0.1-1.1c0-0.1,0-0.3,0-0.4c0-0.5,0-1,0-1.5c0,0,0,0,0,0v0v-73.1
		c0-0.7,0-1.4-0.1-2c0-0.1,0-0.2,0-0.4c-0.1-0.6-0.1-1.3-0.2-1.9c0-0.1,0-0.2-0.1-0.4c-0.1-0.7-0.2-1.3-0.4-1.9c0,0,0-0.1,0-0.1
		c-0.2-0.6-0.3-1.2-0.5-1.7c-0.1-0.2-0.1-0.3-0.2-0.5c-0.2-0.5-0.4-1.1-0.6-1.6c-0.1-0.2-0.2-0.4-0.3-0.6c-0.2-0.5-0.5-1-0.7-1.4
		c-0.1-0.2-0.3-0.4-0.4-0.7c-0.2-0.3-0.4-0.6-0.6-1c-0.2-0.3-0.4-0.7-0.7-1c-0.2-0.3-0.4-0.6-0.6-0.9c-0.1-0.1-0.2-0.3-0.3-0.4
		c9,2.8,14.5,4.2,16.8,4.2c1.1,0,2.4,1.1,3.8,3.2l-9-0.5c-0.5,0-1,0.4-1,0.9c0,0.6,0.4,1,0.9,1l10.3,0.5c2.3,4.4,4.9,11.4,7.5,21
		l-15.2-12.7c-0.4-0.4-1.1-0.3-1.4,0.1c-0.4,0.4-0.3,1.1,0.1,1.4l17.3,14.5c2.6,10.1,5.1,22.8,7.5,38
		C238,192.8,218.9,217.2,193.9,233z M240.5,126.9l2.7,2.3c0.2,0.2,0.4,0.2,0.6,0.2c0.1,0,0.3,0,0.4-0.1c0.4-0.2,0.6-0.5,0.6-0.9
		v-10.3l7,5.1c0.1,1.6,0.1,3.2,0.1,4.8c0,11.7-1.6,22.9-4.6,33.7C245.6,150.9,243.3,138.3,240.5,126.9z"/>
	<path id="XMLID_1811_" fill="#F2AE32" d="M109.3,215.6c-2.5,0-4.6,2.1-4.6,4.6s2.1,4.6,4.6,4.6s4.6-2.1,4.6-4.6
		S111.9,215.6,109.3,215.6z M109.3,223.8c-2,0-3.6-1.6-3.6-3.6c0-2,1.6-3.6,3.6-3.6c2,0,3.6,1.6,3.6,3.6
		C112.9,222.2,111.3,223.8,109.3,223.8z"/>
	<path id="XMLID_1814_" fill="#F2AE32" d="M168.8,93.4c-1.6,0-2.9,1.3-2.9,2.9s1.3,2.9,2.9,2.9s2.9-1.3,2.9-2.9
		S170.4,93.4,168.8,93.4z M168.8,98.2c-1.1,0-1.9-0.9-1.9-1.9s0.9-1.9,1.9-1.9s1.9,0.9,1.9,1.9S169.9,98.2,168.8,98.2z"/>
	<path id="XMLID_1817_" fill="#F2AE32" d="M172.5,107.3c-0.8,0-1.4,0.6-1.4,1.4V146c0,0.8,0.6,1.4,1.4,1.4s1.4-0.6,1.4-1.4v-37.3
		C173.9,107.9,173.3,107.3,172.5,107.3z M172.9,146c0,0.2-0.2,0.4-0.4,0.4s-0.4-0.2-0.4-0.4v-37.3c0-0.2,0.2-0.4,0.4-0.4
		s0.4,0.2,0.4,0.4V146z"/>
	<path id="XMLID_1820_" fill="#F2AE32" d="M166,127.5c-0.9-0.1-1.9,0.2-2.5,0.8c-0.7,0.7-1,1.6-0.8,2.5c0.2,1.2,1.2,2.2,2.4,2.4
		c0.2,0,0.3,0,0.5,0c0.8,0,1.5-0.3,2.1-0.9c0.7-0.7,1-1.6,0.8-2.5C168.2,128.7,167.2,127.7,166,127.5z M166.9,131.8
		c-0.4,0.4-1,0.6-1.7,0.5h0c-0.8-0.1-1.5-0.8-1.6-1.6c-0.1-0.6,0.1-1.2,0.5-1.7c0.4-0.4,0.8-0.6,1.4-0.6c0.1,0,0.2,0,0.3,0
		c0.8,0.1,1.5,0.8,1.6,1.6C167.5,130.7,167.3,131.3,166.9,131.8z"/>
	<path id="XMLID_1823_" fill="#F2AE32" d="M166,139.8c-0.9-0.1-1.9,0.2-2.5,0.8c-0.7,0.7-1,1.6-0.8,2.5c0.2,1.2,1.2,2.2,2.4,2.4
		c0,0,0,0,0,0c0.2,0,0.3,0,0.5,0c0.8,0,1.5-0.3,2.1-0.9c0.7-0.7,1-1.6,0.8-2.5C168.2,141,167.2,140,166,139.8z M166.9,144
		c-0.4,0.4-1,0.6-1.7,0.5c-0.8-0.1-1.5-0.8-1.6-1.6c-0.1-0.6,0.1-1.2,0.5-1.7c0.4-0.4,1-0.6,1.7-0.5c0.8,0.1,1.5,0.8,1.6,1.6
		C167.5,143,167.3,143.6,166.9,144z"/>
	<path id="XMLID_1826_" fill="#F2AE32" d="M165.5,103c-1.6,0-2.9,1.3-2.9,2.9s1.3,2.9,2.9,2.9s2.9-1.3,2.9-2.9S167.2,103,165.5,103z
		 M165.5,107.9c-1.1,0-1.9-0.9-1.9-1.9s0.9-1.9,1.9-1.9s1.9,0.9,1.9,1.9S166.6,107.9,165.5,107.9z"/>
	<path id="XMLID_1829_" fill="#F2AE32" d="M166,115.4c-0.9-0.1-1.9,0.2-2.5,0.8c-0.7,0.7-1,1.6-0.8,2.5c0.2,1.2,1.2,2.2,2.4,2.4
		c0,0,0,0,0,0c0.2,0,0.3,0,0.5,0c0.8,0,1.5-0.3,2.1-0.9c0.7-0.7,1-1.6,0.8-2.5C168.2,116.6,167.2,115.6,166,115.4z M166.9,119.7
		c-0.4,0.4-1,0.6-1.7,0.5c-0.8-0.1-1.5-0.8-1.6-1.6c-0.1-0.6,0.1-1.2,0.5-1.7c0.4-0.4,1-0.6,1.7-0.5c0.8,0.1,1.5,0.8,1.6,1.6
		C167.5,118.6,167.3,119.2,166.9,119.7z"/>
	<path id="XMLID_1832_" fill="#F2AE32" d="M201.6,93.4c-1.6,0-2.9,1.3-2.9,2.9s1.3,2.9,2.9,2.9s2.9-1.3,2.9-2.9
		S203.3,93.4,201.6,93.4z M201.6,98.2c-1.1,0-1.9-0.9-1.9-1.9s0.9-1.9,1.9-1.9s1.9,0.9,1.9,1.9S202.7,98.2,201.6,98.2z"/>
	<path id="XMLID_1835_" fill="#F2AE32" d="M201.6,106.5c-1.6,0-2.9,1.3-2.9,2.9s1.3,2.9,2.9,2.9s2.9-1.3,2.9-2.9
		S203.3,106.5,201.6,106.5z M201.6,111.4c-1.1,0-1.9-0.9-1.9-1.9s0.9-1.9,1.9-1.9s1.9,0.9,1.9,1.9S202.7,111.4,201.6,111.4z"/>
	<path id="XMLID_1838_" fill="#F2AE32" d="M196.5,154.5c-9.3,1.4-19,0.6-23.4-0.7c-0.7-0.2-1.6,0.2-1.8,0.9
		c-0.2,0.7,0.2,1.6,0.9,1.8c3.2,1,8.3,1.6,13.9,1.6c3.7,0,7.5-0.3,10.8-0.8c0.8-0.1,1.3-0.8,1.2-1.6
		C198,155,197.3,154.4,196.5,154.5z M197.1,156.2c-0.1,0.1-0.2,0.2-0.3,0.2c0,0,0,0,0,0c-3.3,0.5-7,0.7-10.7,0.7
		c-5.5,0-10.5-0.6-13.6-1.6c-0.2-0.1-0.3-0.3-0.3-0.5c0.1-0.2,0.2-0.3,0.4-0.3c0,0,0.1,0,0.1,0c4.5,1.4,14.4,2.2,23.9,0.8
		c0.2,0,0.5,0.1,0.5,0.4C197.2,156,197.1,156.1,197.1,156.2z"/>
	<path id="XMLID_1841_" fill="#F2AE32" d="M180.7,201.8c-5.1-3-8.1-8.6-8.1-12.4v-26.1c0-0.8-0.6-1.4-1.4-1.4s-1.4,0.6-1.4,1.4v26.1
		c0,4.5,3.3,11.2,9.5,14.9c0.2,0.1,0.5,0.2,0.7,0.2c0.5,0,1-0.3,1.2-0.7c0.2-0.3,0.2-0.7,0.1-1.1C181.3,202.3,181.1,202,180.7,201.8
		z M180.4,203.3L180.4,203.3c-0.1,0.2-0.4,0.3-0.6,0.2c-5.9-3.4-9-9.8-9-14v-26.1c0-0.2,0.2-0.4,0.4-0.4c0.2,0,0.4,0.2,0.4,0.4v26.1
		c0,4,3.2,10.1,8.6,13.3c0.1,0.1,0.2,0.2,0.2,0.3C180.5,203.1,180.4,203.2,180.4,203.3z"/>
	<path id="XMLID_1844_" fill="#F2AE32" d="M190.2,98.2c-1.6,0-2.9,1.3-2.9,2.9s1.3,2.9,2.9,2.9s2.9-1.3,2.9-2.9
		S191.8,98.2,190.2,98.2z M190.2,103c-1.1,0-1.9-0.9-1.9-1.9s0.9-1.9,1.9-1.9s1.9,0.9,1.9,1.9S191.2,103,190.2,103z"/>
	<path id="XMLID_1847_" fill="#F2AE32" d="M199.8,88.2c0-1.3-1.3-2.3-3-2.3s-3,1-3,2.3s1.3,2.3,3,2.3S199.8,89.5,199.8,88.2z
		 M196.9,89.5c-1.1,0-2-0.6-2-1.3s0.9-1.3,2-1.3s2,0.6,2,1.3S197.9,89.5,196.9,89.5z"/>
	<path id="XMLID_1850_" fill="#F2AE32" d="M188.2,90.2c0.1-0.3,0.1-0.7-0.1-1c-0.4-0.7-1.2-0.9-1.8-0.6c-8.2,4.3-7.7,17.1-7.7,17.7
		c0,0.7,0.6,1.3,1.4,1.3c0,0,0,0,0,0c0.8,0,1.3-0.7,1.3-1.4c0-0.1-0.5-11.6,6.2-15.1C187.9,90.8,188.1,90.5,188.2,90.2z M187.3,89.9
		c0,0.1-0.1,0.2-0.2,0.2c-7.3,3.9-6.7,15.9-6.7,16c0,0.2-0.1,0.4-0.4,0.4c-0.2,0-0.4-0.2-0.4-0.3c0-0.5-0.5-12.7,7.1-16.7
		c0.1,0,0.1,0,0.2,0c0,0,0.1,0,0.1,0c0.1,0,0.2,0.1,0.2,0.2C187.3,89.7,187.3,89.8,187.3,89.9z"/>
	<path id="XMLID_1853_" fill="#F2AE32" d="M180,114.4c-0.8,0-1.4,0.6-1.4,1.4v32.1c0,0.8,0.6,1.4,1.4,1.4s1.4-0.6,1.4-1.4v-32.1
		C181.3,115,180.7,114.4,180,114.4z M180.3,147.9c0,0.2-0.2,0.4-0.4,0.4s-0.4-0.2-0.4-0.4v-32.1c0-0.2,0.2-0.4,0.4-0.4
		s0.4,0.2,0.4,0.4V147.9z"/>
	<path id="XMLID_1856_" fill="#F2AE32" d="M172.4,105.6c0,0,0.1,0,0.1,0c0.7,0,1.3-0.5,1.4-1.2c0-0.1,1.5-13.6,12.1-16.8
		c0.7-0.2,1.1-1,0.9-1.7c-0.2-0.7-1-1.1-1.7-0.9c-5.2,1.6-9.2,5.4-11.8,11.1c-1.9,4.2-2.3,7.9-2.3,8.1
		C171.1,104.8,171.6,105.5,172.4,105.6z M174.4,96.4c2.4-5.4,6.3-9,11.2-10.5c0.2-0.1,0.4,0.1,0.5,0.2c0,0.1,0,0.2,0,0.3
		c0,0.1-0.1,0.2-0.2,0.2c-11.3,3.4-12.8,17.5-12.8,17.7c0,0.2-0.2,0.3-0.4,0.3c0,0,0,0,0,0c-0.2,0-0.4-0.2-0.3-0.4
		C172.2,104.1,172.5,100.5,174.4,96.4z"/>
	<path id="XMLID_1859_" fill="#F2AE32" d="M188.5,203c-5.1-3-8.1-8.6-8.1-12.4v-26.1c0-0.8-0.6-1.4-1.4-1.4s-1.4,0.6-1.4,1.4v26.1
		c0,4.5,3.3,11.3,9.5,14.9c0.2,0.1,0.5,0.2,0.7,0.2c0.5,0,1-0.3,1.2-0.7C189.4,204.3,189.2,203.4,188.5,203z M188.1,204.4
		c-0.1,0.2-0.4,0.3-0.6,0.2c-5.9-3.4-9-9.8-9-14v-26.1c0-0.2,0.2-0.4,0.4-0.4c0.2,0,0.4,0.2,0.4,0.4v26.1c0,4,3.2,10.1,8.6,13.3
		C188.2,204,188.3,204.2,188.1,204.4z"/>
	<path id="XMLID_1862_" fill="#F2AE32" d="M190.6,135c-0.9-0.1-1.9,0.2-2.5,0.8c-0.7,0.7-1,1.6-0.8,2.5c0.2,1.2,1.2,2.2,2.4,2.4
		c0,0,0,0,0,0c0.2,0,0.3,0,0.5,0c0.8,0,1.5-0.3,2.1-0.9c0.7-0.7,1-1.6,0.8-2.5C192.8,136.1,191.8,135.1,190.6,135z M191.5,139.2
		c-0.4,0.4-1,0.6-1.7,0.5c-0.8-0.1-1.5-0.8-1.6-1.6c-0.1-0.6,0.1-1.2,0.5-1.7c0.4-0.4,1-0.6,1.7-0.5c0.8,0.1,1.5,0.8,1.6,1.6
		C192.1,138.1,191.9,138.8,191.5,139.2z"/>
	<path id="XMLID_1865_" fill="#F2AE32" d="M190.6,145.4c-0.9-0.1-1.9,0.2-2.5,0.8c-0.7,0.7-1,1.6-0.8,2.5c0.2,1.2,1.2,2.2,2.4,2.4
		c0,0,0,0,0,0c0.2,0,0.3,0,0.5,0c0.8,0,1.5-0.3,2.1-0.9c0.7-0.7,1-1.6,0.8-2.5C192.8,146.6,191.8,145.6,190.6,145.4z M191.5,149.6
		c-0.4,0.4-1,0.6-1.7,0.5c-0.8-0.1-1.5-0.8-1.6-1.6c-0.1-0.6,0.1-1.2,0.5-1.7c0.4-0.4,1-0.6,1.7-0.5c0.8,0.1,1.5,0.8,1.6,1.6
		C192.1,148.6,191.9,149.2,191.5,149.6z"/>
	<path id="XMLID_1868_" fill="#F2AE32" d="M190.6,122.7c-0.9-0.1-1.9,0.2-2.5,0.8c-0.7,0.7-1,1.6-0.8,2.5c0.2,1.2,1.2,2.2,2.4,2.4
		c0,0,0,0,0,0c0.2,0,0.3,0,0.5,0c0.8,0,1.5-0.3,2.1-0.9c0.7-0.7,1-1.6,0.8-2.5C192.8,123.9,191.8,122.9,190.6,122.7z M191.5,126.9
		c-0.4,0.4-1,0.6-1.7,0.5c-0.8-0.1-1.5-0.8-1.6-1.6c-0.1-0.6,0.1-1.2,0.5-1.7c0.4-0.4,1-0.6,1.7-0.5c0.8,0.1,1.5,0.8,1.6,1.6
		C192.1,125.9,191.9,126.5,191.5,126.9z"/>
	<path id="XMLID_1871_" fill="#F2AE32" d="M201.6,120.2c-1.6,0-2.9,1.3-2.9,2.9s1.3,2.9,2.9,2.9s2.9-1.3,2.9-2.9
		S203.3,120.2,201.6,120.2z M201.6,125.1c-1.1,0-1.9-0.9-1.9-1.9c0-1.1,0.9-1.9,1.9-1.9s1.9,0.9,1.9,1.9
		C203.6,124.2,202.7,125.1,201.6,125.1z"/>
	<path id="XMLID_1874_" fill="#F2AE32" d="M201.6,132.5c-1.6,0-2.9,1.3-2.9,2.9s1.3,2.9,2.9,2.9s2.9-1.3,2.9-2.9
		S203.3,132.5,201.6,132.5z M201.6,137.3c-1.1,0-1.9-0.9-1.9-1.9s0.9-1.9,1.9-1.9s1.9,0.9,1.9,1.9S202.7,137.3,201.6,137.3z"/>
	<path id="XMLID_1877_" fill="#F2AE32" d="M201.6,142.2c-1.6,0-2.9,1.3-2.9,2.9s1.3,2.9,2.9,2.9s2.9-1.3,2.9-2.9
		S203.3,142.2,201.6,142.2z M201.6,147c-1.1,0-1.9-0.9-1.9-1.9c0-1.1,0.9-1.9,1.9-1.9s1.9,0.9,1.9,1.9
		C203.6,146.1,202.7,147,201.6,147z"/>
	<path id="XMLID_1880_" fill="#F2AE32" d="M190.6,110.6c-0.9-0.1-1.9,0.2-2.5,0.8c-0.7,0.7-1,1.6-0.8,2.5c0.2,1.2,1.2,2.2,2.4,2.4
		c0,0,0,0,0,0c0.2,0,0.3,0,0.5,0c0.8,0,1.5-0.3,2.1-0.9c0.7-0.7,1-1.6,0.8-2.5C192.8,111.8,191.8,110.8,190.6,110.6z M191.5,114.8
		c-0.4,0.4-1,0.6-1.7,0.5c-0.8-0.1-1.5-0.8-1.6-1.6c-0.1-0.6,0.1-1.2,0.5-1.7c0.4-0.4,1-0.6,1.7-0.5c0.8,0.1,1.5,0.8,1.6,1.6
		C192.1,113.8,191.9,114.4,191.5,114.8z"/>
	<path id="XMLID_1883_" fill="#F2AE32" d="M158.9,150.9c-1.6,0-2.9,2-2.9,4.6s1.3,4.6,2.9,4.6s2.9-2,2.9-4.6
		S160.5,150.9,158.9,150.9z M158.9,159.2c-0.9,0-1.9-1.5-1.9-3.6s1-3.6,1.9-3.6s1.9,1.5,1.9,3.6S159.8,159.2,158.9,159.2z"/>
</g>
</svg>
