<?xml version="1.0" encoding="utf-8"?>
<!-- Generator: Adobe Illustrator 19.0.0, SVG Export Plug-In . SVG Version: 6.00 Build 0)  -->
<svg version="1.1" id="Слой_1" xmlns="http://www.w3.org/2000/svg" xmlns:xlink="http://www.w3.org/1999/xlink" x="0px" y="0px"
	 viewBox="61.8 -69.8 160 160" enable-background="new 61.8 -69.8 160 160" xml:space="preserve">
<g id="XMLID_3684_">
	<g id="XMLID_3696_">
		<path id="XMLID_17_" fill="#F2AE32" d="M141.8,51.6c-22.8,0-41.6-18.6-41.6-41.5s18.6-41.5,41.6-41.5s41.6,18.7,41.6,41.5
			S164.8,51.6,141.8,51.6z M141.8-29.2c-21.7,0-39.4,17.6-39.4,39.4c0,21.7,17.7,39.4,39.4,39.4c21.7,0,39.4-17.6,39.4-39.4
			S163.6-29.2,141.8-29.2z"/>
		<g id="XMLID_20_">
			<g id="XMLID_63_">
				<path id="XMLID_67_" fill="#F2AE32" d="M141.8,51.6c-22.8,0-41.6-18.6-41.6-41.5s18.6-41.5,41.6-41.5s41.6,18.7,41.6,41.5
					S164.8,51.6,141.8,51.6z M141.8-29.2c-21.7,0-39.4,17.6-39.4,39.4c0,21.7,17.7,39.4,39.4,39.4c21.7,0,39.4-17.6,39.4-39.4
					S163.6-29.2,141.8-29.2z"/>
				<g id="XMLID_70_">
					<path id="XMLID_71_" fill="#F2AE32" d="M157.8,35.9l-15.9,30.5L126,35.9h-2.4L141,69.1c0.2,0.3,0.5,0.5,1,0.5s0.7-0.2,1-0.5
						l17.2-33.3H157.8z"/>
					<path id="XMLID_72_" fill="#F2AE32" d="M190.6-23.7c-0.2-0.3-0.5-0.5-1-0.5H94c-0.3,0-0.7,0.2-1,0.5c-0.2,0.3-0.2,0.7,0,1.1
						l15.2,29.1V2L95.7-22.1h92.2L175.4,2v4.5l15.2-29.3C190.8-23,190.8-23.4,190.6-23.7z"/>
				</g>
			</g>
		</g>
	</g>
	<g id="XMLID_3685_">
		<path id="XMLID_16_" fill="#F2AE32" d="M175.3-13.4c0-0.8-0.6-1.8-2-1.8s-2.9,0.1-4.2,0.2c-1.2,0.1-2.4,0.1-3.6,0.2
			c1.1,1,2.2,1.8,3.4,1.8c0.2,0,0.4,0.1,0.5,0.2c1.3-0.1,2.5-0.2,3.8-0.1l0.2,46.6c0,0.1,0,0.1-0.1,0.2h-26.8
			c-0.7,0-1.6,0.4-2.4,0.8c-0.7,0.3-1.6,0.7-2.2,0.8c-0.6-0.1-1.5-0.4-2.2-0.8c-0.8-0.4-1.7-0.8-2.4-0.8h-26.9
			c-0.1-0.1-0.1-0.2-0.1-0.3l0.1-46.6c1.1,0,2.3,0,3.5,0.1c0.2-0.2,0.5-0.3,0.8-0.3c1.1,0,2.2-0.7,3.3-1.7c-1.1,0-2.1-0.1-3.2-0.1
			c-1.5-0.1-3.1-0.1-4.5-0.1c-1.8,0.1-2,1.2-2,1.7l-0.2,46.8c0,0.6,0.3,1.5,0.8,1.9c0.4,0.4,1,0.5,1.2,0.5h27c0.3,0,1,0.3,1.6,0.6
			c1,0.4,2,1,3.1,1.1c0,0,0,0,0.1,0c0,0,0,0,0.1,0c1.1-0.1,2.1-0.5,3.1-1.1c0.5-0.3,1.3-0.6,1.6-0.6h27c0.4,0,1-0.2,1.3-0.5
			c0.4-0.4,0.7-1.2,0.7-1.8L175.3-13.4z"/>
		<path id="XMLID_7_" fill="#F2AE32" d="M169,31.1h-54.4c-0.2,0-0.4-0.1-0.7-0.3c-0.3-0.3-0.5-0.8-0.5-1.4l0.2-41.3
			c0-0.6,0.5-1.3,1.3-1.3c1.6,0,3.3-1.6,4.5-2.9l0.4-0.4c1.6-1.5,3.4-2.6,5.3-3.4c5.5-2.2,11-2,16.8,0.4c5.8-2.5,11.3-2.6,16.8-0.4
			c1.8,0.7,3.6,1.9,5.3,3.5c0.2,0.2,0.3,0.3,0.5,0.5c1.3,1.2,2.9,2.7,4.4,2.7c0.7,0,1.3,0.7,1.3,1.4l0.1,41.2c0,0.4-0.2,1.1-0.5,1.4
			C169.4,31.1,169.2,31.1,169,31.1z M132.8-20.3c-2.4,0-5,0.5-7.4,1.5c-1.8,0.7-3.4,1.8-5,3.2l-0.4,0.4c-1.4,1.3-3.3,3.1-5.3,3.1
			c-0.1,0-0.2,0.1-0.2,0.2l-0.1,41.4c0,0.2,0.2,0.5,0.3,0.6H169c0.1-0.1,0.2-0.4,0.2-0.6l-0.1-41.2c0-0.1-0.1-0.3-0.2-0.3
			c-2,0-3.8-1.8-5.2-3.1c-0.2-0.2-0.3-0.3-0.5-0.5c-1.6-1.5-3.2-2.5-5-3.3c-5.3-2.1-10.7-2-16.2,0.5c-0.1,0.1-0.3,0.1-0.4,0
			C138.6-19.6,135.7-20.3,132.8-20.3z"/>
		<path id="XMLID_6_" fill="#F2AE32" d="M161.4,25.9c-2.3,0-4.8-0.4-7.1-1.3c-1.1-0.4-2-0.8-3-1.4c-1.6-0.8-3.1-1.6-5-1.7
			c-1.4-0.1-3.1,0-4.4,0.4c-0.1,0-0.2,0-0.3,0c-1.4-0.4-3.1-0.6-4.4-0.4c-1.9,0.2-3.4,1-5,1.7c-1,0.4-1.9,1-3,1.4
			c-3.2,1.1-6.3,1.5-9.3,1.2c-0.7-0.1-1.2-0.6-1.2-1.3v-39.9c0-0.3,0.2-0.5,0.5-0.5l0,0c0.3,0,0.5,0.2,0.5,0.5v39.9
			c0,0,0,0.2,0.2,0.2c2.7,0.3,5.8,0,8.9-1.1c1.1-0.3,1.9-0.8,2.9-1.3c1.6-0.8,3.3-1.6,5.3-1.8c1.5-0.1,3.3,0,4.7,0.4
			c1.4-0.4,3.2-0.6,4.7-0.4c2.1,0.2,3.7,1.1,5.3,1.8c0.8,0.4,1.8,1,2.9,1.3c3,1.1,6,1.4,8.9,1.1c0.2,0,0.2-0.1,0.2-0.2v-39.9
			c0-0.3,0.2-0.5,0.5-0.5l0,0c0.3,0,0.5,0.2,0.5,0.5v39.9c0,0.6-0.5,1.2-1.2,1.3C163,25.9,162.2,25.9,161.4,25.9z"/>
		<g id="XMLID_3687_">
			<path id="XMLID_3_" fill="#F2AE32" d="M146.8,31.1h-9.9c-0.1,0-0.3-0.1-0.4-0.2c-0.1-0.1-0.1-0.3-0.1-0.4
				c0.3-2.2,2.4-5.9,5.3-7.2c0.1-0.1,0.3-0.1,0.4,0c2.9,1.3,5,5,5.3,7.2c0,0.1,0,0.3-0.1,0.4C147.1,31.1,147,31.1,146.8,31.1z
				 M137.5,30.1h8.7c-0.5-1.9-2.1-4.6-4.3-5.7C139.7,25.5,138.1,28.2,137.5,30.1z"/>
		</g>
		<path id="XMLID_2_" fill="#F2AE32" d="M141.8,23.7c-0.3,0-0.5-0.2-0.5-0.5v-42.2c0-0.3,0.2-0.5,0.5-0.5c0.3,0,0.5,0.2,0.5,0.5
			v42.2C142.3,23.5,142.1,23.7,141.8,23.7z"/>
	</g>
</g>
<g id="XMLID_34_">
	<path id="XMLID_43_" fill="#F2AE32" d="M144.7,65.6c-0.2,1.3-0.4,2.4-0.6,3.7c-0.7,4.4-1.5,8.8-2.1,13.2c-0.7-4.4-1.5-8.9-2.2-13.2
		c-0.2-1.2-0.4-2.3-0.6-3.5l-3.2-6c0.5,3.4,1.2,6.7,1.7,9.9c1.1,6.4,2.2,13.1,3.3,19.6c0.1,0.5,0.5,0.8,1.1,0.8l0,0
		c0.5,0,1-0.4,1.1-0.8c1.1-6.4,2.1-13,3.2-19.5c0.5-3.4,1.1-6.7,1.6-10L144.7,65.6z"/>
	<path id="XMLID_48_" fill="#F2AE32" d="M119.1,42.2c-0.3-0.4-1-0.6-1.5-0.2c-5.3,3.8-10.7,7.7-16.1,11.5c-3.6,2.6-7.3,5.3-10.9,7.8
		c2.6-3.7,5.3-7.3,7.8-10.9c3.8-5.3,7.7-10.8,11.5-16.1c0.3-0.4,0.2-1.2-0.2-1.5c-0.4-0.3-1.2-0.2-1.5,0.2
		c-3.8,5.3-7.7,10.8-11.5,16.2c-3.8,5.3-7.7,10.9-11.6,16.2c-0.3,0.4-0.2,1,0.1,1.4c0.2,0.2,0.5,0.3,0.7,0.3c0.2,0,0.4-0.1,0.6-0.2
		c5.3-3.8,10.7-7.7,16.2-11.6c5.4-3.9,10.8-7.7,16.1-11.5C119.3,43.4,119.4,42.7,119.1,42.2z"/>
	<path id="XMLID_42_" fill="#F2AE32" d="M128.6,49.4c-1.3,1.9-2.4,3.9-3.7,5.8c-2.3,3.7-4.7,7.3-7,10.9c1.1-4.1,2-8.3,3.1-12.5
		c0.5-2.2,1.1-4.5,1.7-6.8c-0.3-0.2-0.6-0.3-1-0.5c-0.5,2.3-1.2,4.6-1.7,7.1c-1.3,5.3-2.5,10.5-3.8,15.6c-0.1,0.2,0.1,0.5,0.3,0.6
		c0.1,0,0.1,0,0.2,0c0.2,0,0.3-0.1,0.4-0.2c2.9-4.5,5.7-9.1,8.7-13.6c1.3-2,2.5-4,3.8-6C129.3,49.7,129,49.5,128.6,49.4z"/>
	<path id="XMLID_29_" fill="#F2AE32" d="M155-29.2c1.3-2,2.5-3.9,3.7-5.9c2.3-3.7,4.7-7.3,6.9-10.9c-1.1,4.1-2,8.3-3.1,12.6
		c-0.5,2.2-1.1,4.5-1.6,6.8c0.3,0.2,0.6,0.3,1,0.5c0.5-2.3,1.2-4.6,1.7-7c1.3-5.3,2.5-10.6,3.8-15.7c0.1-0.2-0.1-0.5-0.3-0.6
		s-0.5,0-0.6,0.2c-2.9,4.4-5.7,9.1-8.7,13.6c-1.3,2-2.5,4.1-3.9,6.1C154.3-29.4,154.7-29.3,155-29.2z"/>
	<path id="XMLID_30_" fill="#F2AE32" d="M136.7-31c1-6,2-12,3-18c0.7-4.3,1.5-8.8,2.2-13.2c0.7,4.3,1.5,8.8,2.1,13.2
		c1,6,2,12.1,3,18.1c0.7,0.1,1.5,0.2,2.2,0.3c-1.1-6.1-2-12.5-3.1-18.8c-1.1-6.5-2.1-13.1-3.2-19.5c-0.1-0.5-0.5-0.8-1.1-0.8
		s-1,0.4-1.1,0.8c-1.1,6.4-2.1,13.2-3.3,19.6c-1.1,6.1-2.1,12.5-3.1,18.7C135.2-30.8,136-30.9,136.7-31z"/>
	<path id="XMLID_31_" fill="#F2AE32" d="M120.8-33.5c0.5,2.3,1.1,4.8,1.6,7.1c0.3-0.2,0.6-0.3,1-0.5c-0.5-2.2-1.1-4.5-1.5-6.8
		c-1-4.2-1.9-8.4-2.9-12.6c2.2,3.6,4.4,7.3,6.7,11c1.2,2,2.4,4,3.6,6c0.3-0.1,0.7-0.2,1.1-0.3c-1.3-2.1-2.5-4.1-3.8-6.2
		c-2.7-4.6-5.6-9.2-8.4-13.7c-0.1-0.2-0.4-0.3-0.6-0.2c-0.2,0.1-0.4,0.3-0.3,0.6C118.4-44.1,119.6-38.8,120.8-33.5z"/>
	<path id="XMLID_35_" fill="#F2AE32" d="M100.7,15.3c-6-1-12.2-2-18.1-3c-4.3-0.7-8.8-1.5-13.2-2.2c4.3-0.7,8.8-1.5,13.2-2.1
		c6-1,12.2-2,18.1-3c0.1-0.7,0.2-1.5,0.3-2.2c-6.1,1.1-12.5,2-18.8,3.1C75.6,6.9,69,8,62.6,9c-0.5,0.1-0.8,0.5-0.8,1.1
		c0,0.5,0.4,1,0.8,1.1c6.5,1.1,13.1,2.1,19.6,3.3c6.1,1.1,12.5,2.1,18.7,3.1C100.9,16.7,100.8,16,100.7,15.3z"/>
	<path id="XMLID_41_" fill="#F2AE32" d="M104.7,28.6c-2.2,0.5-4.5,1-6.8,1.5c-4.2,1-8.5,1.9-12.7,2.9c3.6-2.2,7.3-4.4,11-6.7
		c2-1.2,4-2.4,5.9-3.6c-0.1-0.3-0.2-0.7-0.3-1.1c-2,1.3-4.1,2.5-6.2,3.8c-4.7,2.9-9.3,5.6-13.7,8.3c-0.2,0.1-0.3,0.4-0.2,0.6
		c0.1,0.2,0.3,0.3,0.5,0.3h0.1c5.2-1.2,10.5-2.3,15.8-3.5c2.3-0.5,4.7-1.1,7-1.6C105,29.2,104.8,28.9,104.7,28.6z"/>
	<path id="XMLID_25_" fill="#F2AE32" d="M201.3,34.7c-4.4-2.9-9.1-5.7-13.6-8.7c-2-1.3-4.1-2.5-6.1-3.9c-0.1,0.3-0.2,0.7-0.3,1.1
		c2,1.3,3.9,2.4,5.9,3.7c3.7,2.3,7.3,4.6,10.9,6.9c-4.1-1.1-8.4-2-12.6-3.1c-2.2-0.5-4.4-1.1-6.8-1.6c-0.2,0.3-0.3,0.6-0.5,1
		c2.3,0.5,4.7,1.2,7,1.7c5.3,1.3,10.6,2.5,15.8,3.8h0.1c0.2,0,0.4-0.1,0.5-0.3C201.6,35.1,201.6,34.8,201.3,34.7z"/>
	<path id="XMLID_26_" fill="#F2AE32" d="M221,9c-6.5-1.1-13-2.1-19.6-3.2c-6.3-1.1-12.6-2-18.8-3.1c0.1,0.7,0.2,1.5,0.3,2.2
		c5.9,1,12.1,2,18.1,3c4.4,0.7,8.8,1.5,13.2,2.1c-4.4,0.7-8.9,1.5-13.2,2.2c-5.9,1-12.1,2-18.1,3l0,0c-0.1,0.7-0.2,1.5-0.3,2.2l0,0
		c6.2-1,12.6-2.1,18.7-3.1c6.5-1.1,13.1-2.2,19.6-3.3c0.5-0.1,0.8-0.5,0.8-1.1C221.8,9.6,221.5,9.1,221,9z"/>
	<path id="XMLID_46_" fill="#F2AE32" d="M100.1-24.2h2.6c-1.4-2-2.9-4-4.2-5.9c-2.5-3.6-5.2-7.3-7.8-10.9c3.6,2.5,7.2,5.2,10.9,7.8
		c4.2,3.1,8.5,6,12.6,9.1h3.6c-5-3.6-9.9-7.2-15-10.8c-5.4-3.9-10.8-7.8-16.2-11.6c-0.4-0.3-1-0.2-1.4,0.1c-0.3,0.3-0.4,1-0.1,1.4
		c3.9,5.3,7.8,10.8,11.6,16.2C97.8-27.4,99-25.8,100.1-24.2z"/>
	<path id="XMLID_23_" fill="#F2AE32" d="M162.8,53.7c-0.5-2.3-1.1-4.6-1.6-7.1c-0.3,0.2-0.6,0.3-1,0.5c0.5,2.2,1.1,4.5,1.6,6.8
		c1,4.2,1.9,8.4,2.9,12.6c-2.2-3.7-4.5-7.4-6.8-11.1c-1.2-1.9-2.4-3.9-3.6-5.8c-0.3,0.1-0.7,0.2-1.1,0.3c1.3,2,2.5,4,3.7,6.1
		c2.9,4.6,5.7,9.3,8.5,13.8c0.1,0.2,0.3,0.2,0.4,0.2s0.1,0,0.2,0c0.2-0.1,0.4-0.3,0.3-0.6C165.3,64.3,164.1,59,162.8,53.7z"/>
	<path id="XMLID_24_" fill="#F2AE32" d="M198.6,65.3c-3.8-5.3-7.7-10.7-11.6-16.1c-3.7-5.2-7.5-10.3-11.1-15.4
		c-0.4,0.6-0.8,1.2-1.3,1.8c3.5,5,7.1,9.9,10.7,14.9c2.6,3.6,5.2,7.3,7.8,10.9c-3.6-2.6-7.3-5.3-10.9-7.8
		c-4.9-3.5-9.9-7.1-14.9-10.7c-0.6,0.4-1.2,0.8-1.8,1.3c5.1,3.7,10.4,7.4,15.4,11.1c5.3,3.8,10.8,7.7,16.2,11.5
		c0.2,0.1,0.4,0.2,0.6,0.2c0.3,0,0.5-0.1,0.7-0.3C198.8,66.3,198.9,65.7,198.6,65.3z"/>
	<path id="XMLID_32_" fill="#F2AE32" d="M198.5-46.4c-0.3-0.3-1-0.4-1.4-0.1c-5.3,3.8-10.8,7.8-16.2,11.5c-5,3.5-10,7.2-15,10.8h3.6
		c4.2-3.1,8.5-6,12.7-9.1c3.6-2.5,7.3-5.2,10.9-7.8c-2.5,3.6-5.2,7.2-7.8,10.9c-1.5,2-2.9,4-4.3,6h2.6c1.2-1.6,2.3-3.2,3.4-4.8
		c3.9-5.4,7.8-10.8,11.6-16.1C198.9-45.5,198.8-46.1,198.5-46.4z"/>
	<path id="XMLID_28_" fill="#F2AE32" d="M85.8-13.8c4.1,1.1,8.4,2,12.5,3.1c0.4,0.1,0.8,0.2,1.3,0.3l-0.7-1.3c-0.1,0-0.2,0-0.3-0.1
		C93.2-13,88-14.3,82.8-15.6c-0.2-0.1-0.5,0.1-0.6,0.3c-0.1,0.2,0,0.5,0.2,0.6C86.9-11.8,91.5-8.9,96-6c2,1.3,4,2.6,6.1,3.9
		c0.1-0.3,0.2-0.7,0.3-1.1c-1.9-1.3-3.9-2.5-5.8-3.7C92.9-9.1,89.4-11.5,85.8-13.8z"/>
	<path id="XMLID_33_" fill="#F2AE32" d="M201.9-14.2c-0.1-0.2-0.3-0.4-0.6-0.3c-5.2,1.2-10.5,2.3-15.8,3.6c-0.4,0.1-0.7,0.2-1.2,0.2
		l-0.6,1.3c0.6-0.1,1.4-0.3,2-0.4c4.2-1,8.5-1.9,12.6-2.9c-3.7,2.2-7.4,4.4-11,6.8c-2,1.2-3.9,2.4-5.9,3.6c0.1,0.3,0.2,0.7,0.3,1.1
		c2-1.3,4.1-2.5,6.1-3.8c4.7-2.9,9.2-5.7,13.9-8.4C201.9-13.7,202-13.9,201.9-14.2z"/>
</g>
</svg>
