<?xml version="1.0" encoding="utf-8"?>
<!-- Generator: Adobe Illustrator 19.0.0, SVG Export Plug-In . SVG Version: 6.00 Build 0)  -->
<svg version="1.1" id="Слой_1" xmlns="http://www.w3.org/2000/svg" xmlns:xlink="http://www.w3.org/1999/xlink" x="0px" y="0px"
	 viewBox="0 0 32 32" style="enable-background:new 0 0 32 32;" xml:space="preserve">
<style type="text/css">
	.st0{opacity:0.75;fill:#7946D6;enable-background:new    ;}
</style>
<path id="left_x5F_top_1_" class="st0" d="M32,1.9c0-0.3-0.2-0.5-0.4-0.5c-0.4-0.6-1.1-1.3-2.1-1.4c-1-0.2-2.1,0.3-3.3,1.4H10.7
	c-0.3,0-0.5,0.2-0.5,0.5v4.3c-0.5-0.6-1.3-1-2.1-1c-1.5,0-2.8,1.2-2.8,2.8c0,0.8,0.4,1.6,0.9,2.1H1.9c-0.3,0-0.5,0.2-0.5,0.5v15.5
	c-1.1,1.1-1.6,2.2-1.4,3.3c0.2,1,0.9,1.7,1.4,2.1c0,0.2,0.2,0.4,0.5,0.4C2,32,2,32,2.1,32c0.1,0,0.1,0,0.2,0c0.2,0,0.4-0.1,0.5-0.3
	c0.1-0.3,0-0.6-0.3-0.7c0,0,0,0-0.1,0v-4.3c0.1-0.1,0.1-0.1,0.2-0.2c0.2-0.2,0.2-0.5,0.1-0.7c-0.1-0.1-0.2-0.1-0.2-0.1V24
	c0.2,0.7,0.4,1.3,0.7,1.8c1,1.5,2.7,2.1,4.4,2.1c0.5,0,1.1-0.1,1.6-0.2c1-0.2,1.8-0.7,2.3-1.4c0.1-0.1,1.4-1.4,1.4-3.6
	c0-1.4-1.1-2.5-2.5-2.5S8,21.3,8,22.7s1.1,2.5,2.5,2.5c0.3,0,0.5-0.1,0.7-0.1c-0.2,0.3-0.4,0.5-0.4,0.5c-0.5,0.5-1.1,0.9-1.8,1.1
	c-1.6,0.4-3.8,0.1-4.8-1.5c-0.8-1.3-1-3.2-0.6-4.8c0.2-0.8,0.8-2,1.9-2.6c2-1,5.6-1.6,7.4,0.2l0.1,0.1l0,0l8,3.5c0.1,0,0.1,0,0.2,0
	l0,0l0,0c0.1,0,0.1,0,0.2,0l0,0c0,0,0,0,0.1,0c0.1,0,0.1-0.1,0.2-0.2l0,0l0,0v-0.1v-0.1v-0.1V21l0,0l-3.5-8l0,0l-0.1-0.1
	c-1.8-1.8-1.2-5.4-0.2-7.4c0.6-1.2,1.7-1.7,2.5-1.9C22,3,24,3.3,25.2,4.2c1.6,1,1.9,3.2,1.5,4.8c-0.2,0.7-0.6,1.4-1.1,1.9
	c0,0-0.2,0.2-0.5,0.4c0.1-0.2,0.1-0.5,0.1-0.8c0-1.4-1.1-2.5-2.5-2.5c-1.4,0-2.5,1.1-2.5,2.5s1.1,2.5,2.5,2.5c2.2,0,3.5-1.3,3.5-1.3
	c0.7-0.6,1.2-1.4,1.4-2.4c0.5-2,0.1-4.7-1.9-6c-0.5-0.3-1.1-0.6-1.8-0.7h1.6c0,0.1,0.1,0.2,0.1,0.2c0.1,0.1,0.2,0.1,0.3,0.1
	c0.1,0,0.3-0.1,0.4-0.2c0.1-0.1,0.1-0.1,0.2-0.2H31v0.1c0.1,0.3,0.4,0.4,0.7,0.3c0.2-0.1,0.4-0.4,0.3-0.7C32,2,32,1.9,32,1.9z
	 M10.4,24.1c-0.8,0-1.5-0.7-1.5-1.5c0-0.8,0.7-1.5,1.5-1.5s1.5,0.7,1.5,1.5C11.9,23.4,11.2,24.1,10.4,24.1z M21.2,10.4
	c0-0.8,0.7-1.5,1.5-1.5s1.5,0.7,1.5,1.5s-0.7,1.5-1.5,1.5C21.9,11.9,21.2,11.2,21.2,10.4z M29.3,1c0.3,0,0.6,0.2,0.9,0.4h-2.3
	C28.4,1,28.9,0.9,29.3,1z M8.1,6.4c1,0,1.7,0.8,1.7,1.7c0,1-0.8,1.7-1.7,1.7C7,9.8,6.3,9,6.3,8.1C6.2,7.1,7,6.4,8.1,6.4z M10.2,9.9
	v0.3H9.9C10,10.1,10.1,10,10.2,9.9z M1.4,27.8v2.3C1.2,29.9,1,29.6,1,29.2C0.9,28.8,1,28.4,1.4,27.8z M4.9,16.9
	c-1.2,0.6-2.1,1.7-2.5,3.2v0.1v-9h7.7v1.2c-0.3,0-0.5,0.2-0.5,0.5s0.2,0.5,0.5,0.5h0.1c0.1,0.1,0.2,0.2,0.4,0.2
	c0.2,0,0.3-0.1,0.4-0.2l1.4,0.1l0.1,3.1C10.3,15.2,6.7,16,4.9,16.9z M12.4,11.2l0.1,1.2l-1.2-0.1v-1.2h1.1V11.2z M17.3,13.7l2.8,6.5
	l-6.5-2.8l-0.2-3.8L17.3,13.7z M20.1,2.4c-1.5,0.4-2.6,1.3-3.2,2.5c-0.9,1.8-1.6,5.3-0.3,7.6l-3.1-0.1l-0.1-1.4
	c0.1-0.1,0.2-0.2,0.2-0.4c0-0.2-0.1-0.4-0.3-0.5C13.2,10,13,9.9,12.8,9.9s-0.3,0.1-0.4,0.2h-1.3V2.4H20.1
	C20.2,2.4,20.1,2.4,20.1,2.4z"/>
</svg>
