<svg xmlns="http://www.w3.org/2000/svg" viewBox="-579 381 120 40">
	<!-- Знак -->
	<g fill="#7946D6">
		<path d="M-565.5 402.7c.1.1.2.1.3.3.6 1.1 2 .8 2 .8-.2-.4-.6-.8-1-.9-.6-.4-1.3-.2-1.3-.2zm11.7.1c-.4.2-.7.5-1 .9 0 0 1.4.2 2-.8l.3-.3c.1.1-.6-.1-1.3.2z"/>
		<path d="M-559 381c-11 0-20 9-20 20s9 20 20 20 20-9 20-20-9-20-20-20zm10.8 33.9c-1.9 1.5-3.7 1.2-3.7 1.2-1.1 0-1.4-1.3-1.5-1.7v-.1c0-.2-.3-.4-.6-.5-.2-.1-.5-.3-.7-.5-.3-.4-.2-.6-.1-.9.1-.1.1-.2.1-.4v-.2c-.1-.2-.4-.2-.7-.2-.1 0-.2 0-.3-.1-.2-.1-.2-.5-.2-.8v-.6c0-.2-.3-.3-.6-.5-.3-.1-.7-.3-.8-.6-.2-.4.1-1.5.3-2.4.1-.5.2-.9.2-1.2.1-.8 0-1.4-.3-2.4-.4-1.1-.3-2.9-.1-3.6.2-.7.3-1.8 0-2.3-.4-.8-.5-1.6-.4-2.7 0-.8.6-.8 1.6-.8h1.3c.6 0 1.1-.2 1.4-.5.3-.4.3-.7.3-.8h-4.7v-.6c.7-.5.7-1.3.7-1.3h-.6c0-.4.3-.7.6-.9.2-.2.5-.4.6-.7 0-.2 0-.4-.1-.5-.2-.3-.6-.3-.7-.4 0-.6-.6-.8-.6-.8-1.2-.6-2.4 0-2.4 0s-.6.2-.6.8c-.1 0-.5.1-.7.4-.1.1-.1.3-.1.5.1.2.4.4.6.6.3.2.6.5.6.9h-.6s0 .8.6 1.1v.6h-4.7s0 .4.3.8c.3.3.7.5 1.4.5h1.3c1 0 1.6 0 1.6.8.1 1.1 0 1.9-.4 2.7-.3.5-.2 1.6 0 2.3.2.7.3 2.5-.1 3.6-.3 1-.4 1.6-.3 2.4 0 .3.1.7.2 1.2.2.9.5 2 .3 2.4-.1.3-.5.5-.8.6-.3.1-.6.2-.6.5v.6c0 .4 0 .8-.2.8-.1 0-.2 0-.3.1-.3 0-.5.1-.7.2 0 .1-.1.1 0 .2 0 .1.1.2.1.4.1.3.3.6-.1.9-.2.2-.5.4-.7.5-.3.1-.5.3-.6.5v.1c-.1.5-.3 1.8-1.5 1.7 0 0-1.9.2-3.6-1.2-4.1-2.9-6.8-8-6.8-13.6 0-7.9 5.4-14.7 12.6-16.8-.1.5 0 1.6 1.5 1.9 1.8.3 3.3-.7 3.4.3 0-1.9-3.6.1-3.4-1.7.1-1.3 3 .1 4.7-.1.7-.1.9-.5.9-.8 8.7.8 15.5 8.2 15.5 17.2 0 5.6-2.7 10.7-6.8 13.9z"/>
	</g>
	<!-- Текст -->
	<path fill="#FFF" d="M-527 396.6c-.4 2.1-1.2 3.2-3.8 3.1V398c1 .1 1.5-.1 1.7-1v-.1l-2.6-9.2h1.9l1 4.1.6 2.8.4-2.8.8-4.1h2l-2 8.9zm4.6 3h-1.9v-11.9h1.9v5.1h2.1v-5.1h1.9v11.9h-1.9v-5.1h-2.1v5.1zm7.4 0h-2v-11.9h1.7v7.6l.7-2.6 1.5-4.9h2.1v11.9h-1.7v-8.4l-.8 2.9-1.5 5.4zm7.8-4.7l-.6 1.1v3.7h-1.9v-12h1.9v5.2l2.5-5.2h1.9l-2.7 5.3 2.6 6.6h-1.9l-1.8-4.7zm10.7 4.7h-1.9l-.3-2.2h-2.3l-.3 2.2h-1.7l1.9-11.9h2.7l1.9 11.9zm-4.3-3.7h1.8l-.9-6-.9 6zm4.6 2.1c.9 0 1.1-.1 1.2-1.2l.3-9h5.3v11.9h-1.9v-10.3h-1.7l-.2 7.2c-.1 2.2-.9 3-2.7 3h-.3V398zm8.2 1.6v-11.9h1.9v4.5h.9c1.9 0 2.8 1 2.8 3v1.6c0 1.9-.9 3-2.8 3h-2.8v-.2zm2.8-1.7c.6 0 .9-.3.9-1.1V395c0-.9-.3-1.1-.9-1.1h-.9v4h.9zm5.8 1.7h-1.9v-11.9h1.9v5.1h2.1v-5.1h1.9v11.9h-1.9v-5.1h-2.1v5.1zm5.4 0v-11.9h1.9v4.5h.9c1.9 0 2.8 1 2.8 3v1.6c0 1.9-.9 3-2.8 3h-2.8v-.2zm2.8-1.7c.6 0 .9-.3.9-1.1V395c0-.9-.3-1.1-.9-1.1h-.9v4h.9zm3.8 1.7v-11.9h1.9v11.9h-1.9zm5.2-6.9h2.6v1.7h-2.6v3.5h3.2v1.7h-5.1v-11.9h5.1v1.7h-3.2v3.3zm-66.5 16.8l-.6 1.1v3.7h-1.9v-11.9h1.9v5.2l2.5-5.2h1.8l-2.6 5.3 2.6 6.6h-1.9l-1.8-4.8zm10.6 4.8h-1.9l-.3-2.2h-2.3l-.3 2.2h-1.7l1.9-11.9h2.7l1.9 11.9zm-4.2-3.8h1.8l-.9-6-.9 6zm4.6 2.1c.9 0 1.1-.1 1.2-1.2l.3-9h5.2v11.9h-1.9v-10.2h-1.6l-.2 7.2c-.1 2.2-.9 3-2.7 3h-.3v-1.7zm8.2 1.7v-11.9h1.9v4.5h.9c1.9 0 2.8 1 2.8 3v1.6c0 1.9-.9 3-2.8 3h-2.8v-.2zm2.7-1.7c.6 0 .9-.3.9-1.1v-1.8c0-.9-.3-1.1-.9-1.1h-.9v4h.9zm3.6 1.7c.2-.4.2-.9.2-1.5V411c0-1.2.3-2.1 1.2-2.5-.8-.4-1.2-1.2-1.2-2.4v-.9c0-1.8.8-2.7 2.8-2.7h2.8v11.9h-1.9v-4.9h-.6c-.9 0-1.2.4-1.2 1.5v1.9c0 1-.1 1.2-.2 1.5h-1.9v-.1zm3.1-10.2c-.7 0-1 .4-1 1.2v1.2c0 1 .4 1.3 1.1 1.3h.7v-3.7h-.8zm6 10.2h-1.9v-11.9h1.9v5.1h2.1v-5.1h2v11.9h-2v-5.1h-2.1v5.1zm7.3 0h-1.9v-11.9h1.9v5.1h2.1v-5.1h1.9v11.9h-1.9v-5.1h-2.1v5.1zm5.4 0v-11.9h1.9v4.5h.9c1.9 0 2.8 1 2.8 3v1.6c0 1.9-.9 3-2.8 3h-2.8v-.2zm2.8-1.7c.6 0 .9-.3.9-1.1v-1.8c0-.9-.3-1.1-.9-1.1h-.9v4h.9zm3.8 1.7v-11.9h1.9v11.9h-1.9zm5.2-6.9h2.6v1.7h-2.6v3.5h3.2v1.7h-5.1v-11.9h5.1v1.7h-3.2v3.3z"/>
</svg>