<svg xmlns="http://www.w3.org/2000/svg" viewBox="0 0 296 475" enable-background="new 0 0 296 475">
  <style>
    .st0{fill:url(#BG_2_);}
    .st1{opacity:0.1;fill:none;stroke:#FFFFFF;stroke-miterlimit:10;}
    .st2{opacity:0.2;enable-background:new ;}
    .st3{fill:#7AC36C;}
    .st4{opacity:0.4;enable-background:new ;}

    .hm_name{
      fill: #FFFFFF;

      font-size: 24px;
      font-family: BebasNeueRegular;
      letter-spacing: 2;
    }
   
    .hm_city{
      fill: #FFFFFF;
      opacity:0.5;

      font-size: 15px;
      font-family: Lora-Regular;
      letter-spacing: 2;
    }

    .st12{opacity:0.75;enable-background:new ;}
    .st13{font-family:&apos;OpenSans&apos;;}
    .st14{font-size:14px;} .st15{filter:url(#Adobe_OpacityMaskFilter);}
    .st16{mask:url(#Sun_2_);}
    .st17{opacity:0.5;fill:#7AC36C;enable-background:new ;}
    .st18{opacity:0.25;fill:#7AC36C;enable-background:new ;}
    .st19{opacity:0.75;fill:#7AC36C;enable-background:new ;}
    .st20{opacity:5.000000e-02;fill:#89C37C;}
    .st21{display:none;opacity:0.25;fill:url(#Glow_1_);}
  </style>

  <g id="Text">

    <text transform="translate(72.73 296)" class="hm_name">
      Булатов Денис
    </text>
    
    <text transform="translate(112.554 324)" class="hm_city">
      «Резерв»
    </text>
 
  </g>

  <g id="Button">

    <text transform="translate(119.558 388)" class="st3 st13 st14">
      Открыть
    </text>

    <g>
      <path class="st3" d="M208 365.6c10.1 0 18.4 8.3 18.4 18.4 0 10.1-8.3 18.4-18.4 18.4H88c-10.1 0-18.4-8.3-18.4-18.4 0-10.1 8.3-18.4 18.4-18.4h120m0-1.6H88c-11 0-20 9-20 20s9 20 20 20h120c11 0 20-9 20-20s-9-20-20-20z"/>
    </g>
    
  </g>
  

  <g id="BG">
    
    <linearGradient id="BG_2_" x1="148" x2="148" y1="480" y2="480" gradientUnits="userSpaceOnUse">
      <stop offset="0" stop-color="#282C34"/>
      <stop offset="1" stop-color="#353941"/>
    </linearGradient>
    
    <path id="BG_1_" d="M0 0h296v480H0z" class="st0"/>
    
    <path id="White_stroke_1_" d="M148 84c-35.3 0-64 28.7-64 64s28.7 64 64 64 64-28.7 64-64-28.7-64-64-64z" class="st1"/>
    
    <g id="Stroke_x5F_inner" class="st2">
      <path id="XMLID_13_" d="M280 16v448H16V16h264m2-2H14v452h268V14z" class="st3"/>
    </g>
    
    <g id="Stroke_x5F_outer" class="st4">
      <path id="XMLID_19_" d="M284 12v456H12V12h272m2-2H10v460h276V10z" class="st3"/>
    </g>

  </g>
  
  <g id="Photo">
    
    <defs>
      <filter id="Adobe_OpacityMaskFilter" width="199.1" height="181.3" x="48.5" y="57.3" filterUnits="userSpaceOnUse">
        <feFlood result="back" flood-color="#fff" flood-opacity="1"/>
        <feBlend in="SourceGraphic" in2="back"/>
      </filter>
    </defs>
    
    <mask id="Sun_2_" width="199.1" height="181.3" x="48.5" y="57.3" maskUnits="userSpaceOnUse">
      <g id="XMLID_97_" class="st15">
        <g id="XMLID_100_">
          <path id="XMLID_39_" d="M148 100c-26.5 0-48 21.5-48 48s21.5 48 48 48 48-21.5 48-48-21.5-48-48-48z"/>
        </g>
      </g>
    </mask>
   
    <g id="Sun_1_" class="st16">
      <path id="XMLID_133_" d="M131.2 132.5c-.3 0-.5-.1-.7-.3L96.3 98c-.4-.4-.4-1 0-1.4s1-.4 1.4 0l34.2 34.2c.4.4.4 1 0 1.4-.1.2-.4.3-.7.3z" class="st17"/>
      <path id="XMLID_132_" d="M117.2 124.2c-.2 0-.5-.1-.7-.3L76.3 87.6c-.4-.4-.4-1-.1-1.4.4-.4 1-.4 1.4-.1l40.3 36.4c.4.4.4 1 .1 1.4-.2.2-.5.3-.8.3z" class="st3"/>
      <path id="XMLID_131_" d="M127.2 138.1c-.2 0-.4 0-.5-.1l-35-21c-.5-.3-.6-.9-.3-1.4.3-.5.9-.6 1.4-.3l35 21c.5.3.6.9.3 1.4-.2.3-.5.4-.9.4z" class="st3"/>
      <path id="XMLID_130_" d="M111.5 136.5c-.1 0-.3 0-.4-.1l-49.4-23c-.5-.2-.7-.8-.5-1.3.2-.5.8-.7 1.3-.5l49.4 23c.5.2.7.8.5 1.3-.1.4-.5.6-.9.6z" class="st3"/>
      <path id="XMLID_129_" d="M127.5 145.4h-.2L89 135.9c-.5-.1-.9-.7-.7-1.2.1-.5.7-.9 1.2-.7l38.3 9.5c.5.1.9.7.7 1.2-.2.3-.6.7-1 .7z" class="st18"/>
      <path id="XMLID_128_" d="M119.9 149.5h-.1l-70.4-9c-.5-.1-.9-.6-.9-1.1.1-.5.6-.9 1.1-.9l70.4 9c.5.1.9.6.9 1.1-.1.5-.6.9-1 .9z" class="st3"/>
      <path id="XMLID_127_" d="M68.7 157.6c-.5 0-1-.4-1-.9 0-.6.4-1 .9-1.1l56.8-4c.5 0 1 .4 1.1.9 0 .6-.4 1-.9 1.1l-56.9 4c.1 0 .1 0 0 0z" class="st19"/>
      <path id="XMLID_126_" d="M76.6 167.6c-.5 0-.9-.3-1-.8-.1-.5.2-1.1.7-1.2l37.4-9c.5-.1 1.1.2 1.2.7.1.5-.2 1.1-.7 1.2l-37.4 9c0 .1-.1.1-.2.1z" class="st17"/>
      <path id="XMLID_125_" d="M72.8 187.6c-.4 0-.7-.2-.9-.6-.2-.5 0-1.1.4-1.3l46.7-23.5c.5-.2 1.1 0 1.3.4.2.5 0 1.1-.4 1.3l-46.7 23.5c-.1.2-.3.2-.4.2z" class="st19"/>
      <path id="XMLID_124_" d="M61.6 206.5c-.3 0-.6-.2-.8-.5-.3-.5-.2-1.1.3-1.4l57.6-37.9c.5-.3 1.1-.2 1.4.3.3.5.2 1.1-.3 1.4l-57.6 37.9c-.3.1-.5.2-.6.2z" class="st3"/>
      <path id="XMLID_123_" d="M92 203c-.3 0-.5-.1-.7-.3-.4-.4-.4-1 0-1.4l27.7-26.8c.4-.4 1-.4 1.4 0 .4.4.4 1 0 1.4l-27.7 26.8c-.2.3-.5.3-.7.3z" class="st17"/>
      <path id="XMLID_122_" d="M109 200.1c-.2 0-.4-.1-.6-.2-.4-.3-.5-1-.2-1.4l18.9-25.4c.3-.4 1-.5 1.4-.2.4.3.5 1 .2 1.4l-18.9 25.4c-.1.3-.4.4-.8.4z" class="st18"/>
      <path id="XMLID_121_" d="M102.8 230.2c-.2 0-.3 0-.5-.1-.5-.3-.7-.9-.4-1.4l31.1-56.8c.3-.5.9-.7 1.4-.4.5.3.7.9.4 1.4l-31.1 56.8c-.2.4-.5.5-.9.5z" class="st19"/>
      <path id="XMLID_120_" d="M117.8 223c-.1 0-.3 0-.4-.1-.5-.2-.7-.8-.5-1.3l17.1-39.5c.2-.5.8-.7 1.3-.5.5.2.7.8.5 1.3l-17.1 39.5c-.1.3-.5.6-.9.6z" class="st17"/>
      <path id="XMLID_119_" d="M126 235.9h-.2c-.5-.1-.9-.7-.7-1.2l15.5-62.1c.1-.5.7-.9 1.2-.7.5.1.9.7.7 1.2L127 235.2c-.2.3-.6.7-1 .7z" class="st19"/>
      <path id="XMLID_118_" d="M145.2 211.9c-.1 0-.1 0 0 0-.6 0-1-.5-1-1l.8-26.1c0-.5.5-1 1-1 .6 0 1 .5 1 1l-.8 26.1c-.1.5-.5 1-1 1z" class="st18"/>
      <path id="XMLID_117_" d="M157.1 238.6c-.5 0-.9-.4-1-.9l-8.9-69.8c-.1-.5.3-1 .9-1.1.5-.1 1 .3 1.1.9l8.9 69.8c.1.5-.3 1-.9 1.1h-.1z" class="st19"/>
      <path id="XMLID_116_" d="M172.7 225.9c-.4 0-.8-.3-1-.7l-15.9-48.5c-.2-.5.1-1.1.6-1.3.5-.2 1.1.1 1.3.6l15.9 48.5c.2.5-.1 1.1-.6 1.3-.1 0-.2.1-.3.1z" class="st17"/>
      <path id="XMLID_115_" d="M185.3 210.5c-.3 0-.6-.2-.8-.5l-26.2-39.9c-.3-.5-.2-1.1.3-1.4.5-.3 1.1-.2 1.4.3l26.2 39.9c.3.5.2 1.1-.3 1.4-.3.1-.5.2-.6.2z" class="st3"/>
      <path id="XMLID_114_" d="M217.2 224.8c-.3 0-.5-.1-.7-.3l-43.8-43.9c-.4-.4-.4-1 0-1.4.4-.4 1-.4 1.4 0L218 223c.4.4.4 1 0 1.4-.2.3-.5.4-.8.4z" class="st3"/>
      <path id="XMLID_103_" d="M205.8 200.1c-.3 0-.5-.1-.7-.3-.5-.5-25.5-22.6-38.7-34.2-.4-.4-.5-1-.1-1.4.4-.4 1-.5 1.4-.1 6.4 5.7 38.4 33.9 38.7 34.2.4.4.4 1 0 1.4 0 .4-.3.4-.6.4z" class="st17"/>
      <path id="XMLID_102_" d="M221.9 196.5c-.2 0-.4-.1-.5-.2l-59.9-38c-.5-.3-.6-.9-.3-1.4.3-.5.9-.6 1.4-.3l59.9 38c.5.3.6.9.3 1.4-.2.4-.5.5-.9.5z" class="st19"/>
      <path id="XMLID_101_" d="M200.2 169.5c-.1 0-.2 0-.3-.1l-18.8-6.5c-.5-.2-.8-.8-.6-1.3.2-.5.7-.8 1.3-.6l18.8 6.5c.5.2.8.8.6 1.3-.2.4-.6.7-1 .7z" class="st18"/>
      <path id="XMLID_99_" d="M237.7 165.6h-.2l-66.3-10.8c-.5-.1-.9-.6-.8-1.1s.6-.9 1.1-.8l66.3 10.8c.5.1.9.6.8 1.1 0 .5-.5.8-.9.8z" class="st3"/>
      <path id="XMLID_98_" d="M217 155.5h-.1l-35.6-3.8c-.5-.1-.9-.6-.9-1.1s.5-.9 1.1-.9l35.6 3.8c.5.1.9.6.9 1.1-.1.6-.5.9-1 .9z" class="st17"/>
      <path id="XMLID_96_" d="M170.3 148.1c-.5 0-1-.4-1-1s.4-1 1-1l76.2-3.5c.5 0 1 .4 1 1s-.4 1-1 1l-76.2 3.5c.1 0 .1 0 0 0z" class="st3"/>
      <path id="XMLID_94_" d="M166.7 144.5c-.4 0-.8-.3-1-.7-.2-.5.1-1.1.7-1.2l37.1-11.3c.5-.2 1.1.1 1.2.7.2.5-.1 1.1-.7 1.2l-37.1 11.3c-.1-.1-.2 0-.2 0z" class="st18"/>
      <path id="XMLID_93_" d="M187.3 127.1c-.3 0-.6-.2-.8-.4-.3-.5-.2-1.1.3-1.4l46.9-31.8c.5-.3 1.1-.2 1.4.3s.2 1.1-.3 1.4l-47 31.8c-.2.1-.4.1-.5.1z" class="st3"/>
      <path id="XMLID_91_" d="M175.7 127c-.3 0-.5-.1-.7-.3-.4-.4-.4-1 0-1.4l17.8-17.8c.4-.4 1-.4 1.4 0s.4 1 0 1.4l-17.8 17.8c-.2.3-.5.3-.7.3z" class="st18"/>
      <path id="XMLID_90_" d="M171.3 125.9c-.2 0-.5-.1-.6-.2-.4-.4-.5-1-.1-1.4l39.9-46.8c.4-.4 1-.5 1.4-.1.4.4.5 1 .1 1.4l-39.9 46.8c-.2.1-.5.3-.8.3z" class="st19"/>
      <path id="XMLID_55_" d="M166.4 125.1c-.2 0-.4-.1-.6-.2-.4-.3-.5-.9-.2-1.4L189 91.2c.3-.4.9-.5 1.4-.2.4.3.5.9.2 1.4l-23.4 32.4c-.1.2-.4.3-.8.3z" class="st17"/>
      <path id="XMLID_54_" d="M128.5 122.8c-.3 0-.6-.1-.8-.3l-31.5-36c-.4-.4-.3-1 .1-1.4.4-.4 1-.3 1.4.1l31.5 35.9c.4.4.3 1-.1 1.4-.2.2-.4.3-.6.3z" class="st19"/>
      <path id="XMLID_44_" d="M139.7 129.5c-.4 0-.7-.2-.9-.5l-28.5-50.9c-.3-.5-.1-1.1.4-1.4.5-.3 1.1-.1 1.4.4l28.5 50.9c.3.5.1 1.1-.4 1.4-.2.1-.4.1-.5.1z" class="st3"/>
      <path id="XMLID_43_" d="M137.9 116.6c-.4 0-.8-.2-.9-.6l-12.8-29.6c-.2-.5 0-1.1.5-1.3s1.1 0 1.3.5l12.8 29.6c.2.5 0 1.1-.5 1.3-.2 0-.3.1-.4.1z" class="st17"/>
      <path id="XMLID_42_" d="M145.3 128.8c-.5 0-.9-.3-1-.8l-14.9-63.9c-.1-.5.2-1.1.7-1.2.5-.1 1.1.2 1.2.7l14.9 63.9c.1.5-.2 1.1-.7 1.2 0 0-.1.1-.2.1z" class="st19"/>
      <path id="XMLID_40_" d="M149.5 119.9c-.6 0-1-.4-1-1l-.2-24.9c0-.6.4-1 1-1s1 .4 1 1l.1 24.9c.1.5-.4.9-.9 1z" class="st18"/>
      <path id="XMLID_38_" d="M153.8 124.1h-.1c-.5-.1-.9-.6-.9-1.1l7.5-64.8c.1-.5.6-.9 1.1-.9.5.1.9.6.9 1.1l-7.5 64.8c-.1.6-.5.9-1 .9z" class="st3"/>
      <path id="XMLID_36_" d="M161.2 118.1c-.1 0-.2 0-.3-.1-.5-.2-.8-.8-.6-1.3l13.9-37.5c.2-.5.8-.8 1.3-.6.5.2.8.8.6 1.3l-13.9 37.5c-.3.4-.6.7-1 .7z" class="st17"/>
      <path id="XMLID_35_" d="M166.2 118.5c-.2 0-.3 0-.5-.1-.5-.3-.6-.9-.4-1.4l31.1-53.4c.3-.5.9-.6 1.4-.4.5.3.6.9.4 1.4L167.1 118c-.2.3-.5.5-.9.5z" class="st3"/>
    </g>
    
    <circle id="Circle_1_" cx="148" cy="148" r="32" class="st20"/>
    
    <path id="_x3F__1_" d="M155 140c0 7.6-6.3 9.1-6.3 15.2v.1c0 .9-.7 1.6-1.6 1.6-.9 0-1.6-.7-1.6-1.5v-.3c0-6.9 5.9-8 5.9-15.3 0-2.9-1-4.7-3.6-4.7s-3.6 1.9-3.6 4.7v1.2c0 .9-.7 1.6-1.6 1.6h-.1c-.9 0-1.6-.7-1.6-1.6v-1c0-4.8 2.2-8.1 7-8.1 5 .1 7.1 3.3 7.1 8.1zm-6 21.2v1.2c0 .9-.7 1.6-1.6 1.6h-.2c-.9 0-1.6-.7-1.6-1.6v-1.2c0-.9.7-1.6 1.6-1.6h.2c.9 0 1.6.7 1.6 1.6z" class="st18"/>
    
    <path id="Color_stroke_1_" d="M148 102c25.4 0 46 20.6 46 46s-20.6 46-46 46-46-20.6-46-46 20.6-46 46-46m0-2c-26.5 0-48 21.5-48 48s21.5 48 48 48 48-21.5 48-48-21.5-48-48-48z" class="st3"/>
  
  </g>
  
  <g id="Corners">
    <path id="right_x5F_bottom_1_" d="M236 450.1c0 .3.2.5.4.5.4.6 1.1 1.3 2.1 1.4 1 .2 2.1-.3 3.3-1.4h15.5c.3 0 .5-.2.5-.5v-4.3c.5.6 1.3 1 2.1 1 1.5 0 2.8-1.2 2.8-2.8 0-.8-.4-1.6-.9-2.1h4.2c.3 0 .5-.2.5-.5v-15.5c1.1-1.1 1.6-2.2 1.4-3.3-.2-1-.9-1.7-1.4-2.1 0-.2-.2-.4-.5-.4h-.4c-.2 0-.4.1-.5.3-.1.3 0 .6.3.7h.1v4.3l-.2.2c-.2.2-.2.5-.1.7.1.1.2.1.2.1v1.7c-.2-.7-.4-1.3-.7-1.8-1-1.5-2.7-2.1-4.4-2.1-.5 0-1.1.1-1.6.2-1 .2-1.8.7-2.3 1.4-.1.1-1.4 1.4-1.4 3.6 0 1.4 1.1 2.5 2.5 2.5s2.5-1.1 2.5-2.5-1.1-2.5-2.5-2.5c-.3 0-.5.1-.7.1.2-.3.4-.5.4-.5.5-.5 1.1-.9 1.8-1.1 1.6-.4 3.8-.1 4.8 1.5.8 1.3 1 3.2.6 4.8-.2.8-.8 2-1.9 2.6-2 1-5.6 1.6-7.4-.2l-.1-.1-8-3.5h-.5l-.2.2v.4l3.5 8 .1.1c1.8 1.8 1.2 5.4.2 7.4-.6 1.2-1.7 1.7-2.5 1.9-1.6.5-3.6.2-4.8-.6-1.6-1-1.9-3.2-1.5-4.8.2-.7.6-1.4 1.1-1.9 0 0 .2-.2.5-.4-.1.2-.1.5-.1.8 0 1.4 1.1 2.5 2.5 2.5s2.5-1.1 2.5-2.5-1.1-2.5-2.5-2.5c-2.2 0-3.5 1.3-3.5 1.3-.7.6-1.2 1.4-1.4 2.4-.5 2-.1 4.7 1.9 6 .5.3 1.1.6 1.8.7h-1.6c0-.1-.1-.2-.1-.2-.1-.1-.2-.1-.3-.1-.1 0-.3.1-.4.2l-.2.2H237v-.1c-.1-.3-.4-.4-.7-.3-.2.1-.4.4-.3.7v.2zm21.6-22.2c.8 0 1.5.7 1.5 1.5s-.7 1.5-1.5 1.5-1.5-.7-1.5-1.5.7-1.5 1.5-1.5zm-10.8 13.7c0 .8-.7 1.5-1.5 1.5s-1.5-.7-1.5-1.5.7-1.5 1.5-1.5 1.5.7 1.5 1.5zm-8.1 9.4c-.3 0-.6-.2-.9-.4h2.3c-.5.4-1 .5-1.4.4zm21.2-5.4c-1 0-1.7-.8-1.7-1.7 0-1 .8-1.7 1.7-1.7 1 0 1.7.8 1.7 1.7.2 1-.6 1.7-1.7 1.7zm-2.1-3.5v-.3h.3l-.3.3zm8.8-17.9v-2.3c.2.2.4.5.4.9.1.4 0 .8-.4 1.4zm-3.5 10.9c1.2-.6 2.1-1.7 2.5-3.2v-.1 9h-7.7v-1.2c.3 0 .5-.2.5-.5s-.2-.5-.5-.5h-.1c-.1-.1-.2-.2-.4-.2s-.3.1-.4.2l-1.4-.1-.1-3.1c2.2 1.4 5.8.6 7.6-.3zm-7.5 5.7l-.1-1.2 1.2.1v1.2h-1.1v-.1zm-4.9-2.5l-2.8-6.5 6.5 2.8.2 3.8-3.9-.1zm-2.8 11.3c1.5-.4 2.6-1.3 3.2-2.5.9-1.8 1.6-5.3.3-7.6l3.1.1.1 1.4c-.1.1-.2.2-.2.4s.1.4.3.5c.1.2.3.3.5.3s.3-.1.4-.2h1.3v7.6h-9c-.1 0 0 0 0 0z" class="st19"/>
    
    <path id="left_x5F_bottom_1_" d="M29.9 420c-.3 0-.5.2-.5.4-.6.4-1.3 1.1-1.4 2.1-.2 1 .3 2.1 1.4 3.3v15.5c0 .3.2.5.5.5h4.3c-.6.5-1 1.3-1 2.1 0 1.5 1.2 2.8 2.8 2.8.8 0 1.6-.4 2.1-.9v4.2c0 .3.2.5.5.5h15.5c1.1 1.1 2.2 1.6 3.3 1.4 1-.2 1.7-.9 2.1-1.4.2 0 .4-.2.4-.5v-.4c0-.2-.1-.4-.3-.5-.3-.1-.6 0-.7.3v.1h-4.3l-.2-.2c-.2-.2-.5-.2-.7-.1-.1.1-.1.2-.1.2H52c.7-.2 1.3-.4 1.8-.7 1.5-1 2.1-2.7 2.1-4.4 0-.5-.1-1.1-.2-1.6-.2-1-.7-1.8-1.4-2.3-.1-.1-1.4-1.4-3.6-1.4-1.4 0-2.5 1.1-2.5 2.5s1.1 2.5 2.5 2.5 2.5-1.1 2.5-2.5c0-.3-.1-.5-.1-.7.3.2.5.4.5.4.5.5.9 1.1 1.1 1.8.4 1.6.1 3.8-1.5 4.8-1.3.8-3.2 1-4.8.6-.8-.2-2-.8-2.6-1.9-1-2-1.6-5.6.2-7.4l.1-.1 3.5-8v-.5l-.2-.2H49l-8 3.5-.1.1c-1.8 1.8-5.4 1.2-7.4.2-1.2-.6-1.7-1.7-1.9-2.5-.5-1.6-.2-3.6.6-4.8 1-1.6 3.2-1.9 4.8-1.5.7.2 1.4.6 1.9 1.1 0 0 .2.2.4.5-.2-.1-.5-.1-.8-.1-1.4 0-2.5 1.1-2.5 2.5s1.1 2.5 2.5 2.5 2.5-1.1 2.5-2.5c0-2.2-1.3-3.5-1.3-3.5-.6-.7-1.4-1.2-2.4-1.4-2-.5-4.7-.1-6 1.9-.3.5-.6 1.1-.7 1.8v-1.6c.1 0 .2-.1.2-.1.1-.1.1-.2.1-.3s-.1-.3-.2-.4l-.2-.2V421h.1c.3-.1.4-.4.3-.7-.1-.2-.4-.4-.7-.3h-.3zm22.2 21.6c0 .8-.7 1.5-1.5 1.5s-1.5-.7-1.5-1.5.7-1.5 1.5-1.5 1.5.7 1.5 1.5zm-13.7-10.8c-.8 0-1.5-.7-1.5-1.5s.7-1.5 1.5-1.5 1.5.7 1.5 1.5-.7 1.5-1.5 1.5zm-9.4-8.1c0-.3.2-.6.4-.9v2.3c-.4-.5-.5-1-.4-1.4zm5.4 21.2c0-1 .8-1.7 1.7-1.7 1 0 1.7.8 1.7 1.7 0 1-.8 1.7-1.7 1.7-1 .2-1.7-.6-1.7-1.7zm3.5-2.1h.3v.3l-.3-.3zm17.9 8.8h2.3c-.2.2-.5.4-.9.4-.4.1-.8 0-1.4-.4zm-10.9-3.5c.6 1.2 1.7 2.1 3.2 2.5h.1-9v-7.7h1.2c0 .3.2.5.5.5s.5-.2.5-.5v-.1c.1-.1.2-.2.2-.4s-.1-.3-.2-.4l.1-1.4 3.1-.1c-1.4 2.2-.6 5.8.3 7.6zm-5.7-7.5l1.2-.1-.1 1.2h-1.2v-1.1h.1zm2.5-4.9l6.5-2.8-2.8 6.5-3.8.2.1-3.9zm-11.3-2.8c.4 1.5 1.3 2.6 2.5 3.2 1.8.9 5.3 1.6 7.6.3l-.1 3.1-1.4.1c-.1-.1-.2-.2-.4-.2s-.4.1-.5.3c-.2.1-.3.3-.3.5s.1.3.2.4v1.3h-7.6v-9c0-.1 0 0 0 0z" class="st19"/>
    
    <path id="right_x5F_top_1_" d="M266.1 60c.3 0 .5-.2.5-.4.6-.4 1.3-1.1 1.4-2.1.2-1-.3-2.1-1.4-3.3V38.7c0-.3-.2-.5-.5-.5h-4.3c.6-.5 1-1.3 1-2.1 0-1.5-1.2-2.8-2.8-2.8-.8 0-1.6.4-2.1.9V30c0-.3-.2-.5-.5-.5h-15.5c-1.1-1.1-2.2-1.6-3.3-1.4-1 .2-1.7.9-2.1 1.4-.2 0-.4.2-.4.5v.4c0 .2.1.4.3.5.3.1.6 0 .7-.3v-.1h4.3l.2.2c.2.2.5.2.7.1.1-.1.1-.2.1-.2h1.7c-.7.2-1.3.4-1.8.7-1.5 1-2.1 2.7-2.1 4.4 0 .5.1 1.1.2 1.6.2 1 .7 1.8 1.4 2.3.1.1 1.4 1.4 3.6 1.4 1.4 0 2.5-1.1 2.5-2.5s-1.1-2.5-2.5-2.5-2.5 1.1-2.5 2.5c0 .3.1.5.1.7-.3-.2-.5-.4-.5-.4-.5-.5-.9-1.1-1.1-1.8-.4-1.6-.1-3.8 1.5-4.8 1.3-.8 3.2-1 4.8-.6.8.2 2 .8 2.6 1.9 1 2 1.6 5.6-.2 7.4l-.1.1-3.5 8v.5c0 .1.1.1.2.2h.4l8-3.5.1-.1c1.8-1.8 5.4-1.2 7.4-.2 1.2.6 1.7 1.7 1.9 2.5.5 1.6.2 3.6-.6 4.8-1 1.6-3.2 1.9-4.8 1.5-.7-.2-1.4-.6-1.9-1.1 0 0-.2-.2-.4-.5.2.1.5.1.8.1 1.4 0 2.5-1.1 2.5-2.5s-1.1-2.5-2.5-2.5-2.5 1.1-2.5 2.5c0 2.2 1.3 3.5 1.3 3.5.6.7 1.4 1.2 2.4 1.4 2 .5 4.7.1 6-1.9.3-.5.6-1.1.7-1.8v1.6c-.1 0-.2.1-.2.1-.1.1-.1.2-.1.3s.1.3.2.4l.2.2V59h-.1c-.3.1-.4.4-.3.7.1.2.4.4.7.3h.2zm-22.2-21.6c0-.8.7-1.5 1.5-1.5s1.5.7 1.5 1.5-.7 1.5-1.5 1.5-1.5-.7-1.5-1.5zm13.7 10.8c.8 0 1.5.7 1.5 1.5s-.7 1.5-1.5 1.5-1.5-.7-1.5-1.5.7-1.5 1.5-1.5zm9.4 8.1c0 .3-.2.6-.4.9v-2.3c.4.5.5 1 .4 1.4zm-5.4-21.2c0 1-.8 1.7-1.7 1.7-1 0-1.7-.8-1.7-1.7 0-1 .8-1.7 1.7-1.7 1-.2 1.7.6 1.7 1.7zm-3.5 2.1h-.3v-.3l.3.3zm-17.9-8.8h-2.3c.2-.2.5-.4.9-.4.4-.1.8 0 1.4.4zm10.9 3.5c-.6-1.2-1.7-2.1-3.2-2.5h-.1 9v7.7h-1.2c0-.3-.2-.5-.5-.5s-.5.2-.5.5v.1c-.1.1-.2.2-.2.4s.1.3.2.4l-.1 1.4-3.1.1c1.4-2.2.6-5.8-.3-7.6zm5.7 7.5l-1.2.1.1-1.2h1.2v1.1h-.1zm-2.5 4.9l-6.5 2.8 2.8-6.5 3.8-.2-.1 3.9zm11.3 2.8c-.4-1.5-1.3-2.6-2.5-3.2-1.8-.9-5.3-1.6-7.6-.3l.1-3.1 1.4-.1c.1.1.2.2.4.2s.4-.1.5-.3c.2-.1.3-.3.3-.5s-.1-.3-.2-.4v-1.3h7.6v9c0 .1 0 0 0 0z" class="st19"/>
    
    <path id="left_x5F_top_1_" d="M60 29.9c0-.3-.2-.5-.4-.5-.4-.6-1.1-1.3-2.1-1.4-1-.2-2.1.3-3.3 1.4H38.7c-.3 0-.5.2-.5.5v4.3c-.5-.6-1.3-1-2.1-1-1.5 0-2.8 1.2-2.8 2.8 0 .8.4 1.6.9 2.1H30c-.3 0-.5.2-.5.5v15.5c-1.1 1.1-1.6 2.2-1.4 3.3.2 1 .9 1.7 1.4 2.1 0 .2.2.4.5.4h.4c.2 0 .4-.1.5-.3.1-.3 0-.6-.3-.7h-.1v-4.3l.2-.2c.2-.2.2-.5.1-.7-.1-.1-.2-.1-.2-.1V52c.2.7.4 1.3.7 1.8 1 1.5 2.7 2.1 4.4 2.1.5 0 1.1-.1 1.6-.2 1-.2 1.8-.7 2.3-1.4.1-.1 1.4-1.4 1.4-3.6 0-1.4-1.1-2.5-2.5-2.5S36 49.3 36 50.7s1.1 2.5 2.5 2.5c.3 0 .5-.1.7-.1-.2.3-.4.5-.4.5-.5.5-1.1.9-1.8 1.1-1.6.4-3.8.1-4.8-1.5-.8-1.3-1-3.2-.6-4.8.2-.8.8-2 1.9-2.6 2-1 5.6-1.6 7.4.2l.1.1 8 3.5h.5c.1 0 .1-.1.2-.2V49l-3.5-8-.1-.1c-1.8-1.8-1.2-5.4-.2-7.4.6-1.2 1.7-1.7 2.5-1.9 1.6-.5 3.6-.2 4.8.6 1.6 1 1.9 3.2 1.5 4.8-.2.7-.6 1.4-1.1 1.9 0 0-.2.2-.5.4.1-.2.1-.5.1-.8 0-1.4-1.1-2.5-2.5-2.5s-2.5 1.1-2.5 2.5 1.1 2.5 2.5 2.5c2.2 0 3.5-1.3 3.5-1.3.7-.6 1.2-1.4 1.4-2.4.5-2 .1-4.7-1.9-6-.5-.3-1.1-.6-1.8-.7h1.6c0 .1.1.2.1.2.1.1.2.1.3.1s.3-.1.4-.2l.2-.2H59v.1c.1.3.4.4.7.3.2-.1.4-.4.3-.7v-.3zM38.4 52.1c-.8 0-1.5-.7-1.5-1.5s.7-1.5 1.5-1.5 1.5.7 1.5 1.5-.7 1.5-1.5 1.5zm10.8-13.7c0-.8.7-1.5 1.5-1.5s1.5.7 1.5 1.5-.7 1.5-1.5 1.5-1.5-.7-1.5-1.5zm8.1-9.4c.3 0 .6.2.9.4h-2.3c.5-.4 1-.5 1.4-.4zm-21.2 5.4c1 0 1.7.8 1.7 1.7 0 1-.8 1.7-1.7 1.7-1 0-1.7-.8-1.7-1.7-.2-1 .6-1.7 1.7-1.7zm2.1 3.5v.3h-.3l.3-.3zm-8.8 17.9v2.3c-.2-.2-.4-.5-.4-.9-.1-.4 0-.8.4-1.4zm3.5-10.9c-1.2.6-2.1 1.7-2.5 3.2v.1-9h7.7v1.2c-.3 0-.5.2-.5.5s.2.5.5.5h.1c.1.1.2.2.4.2s.3-.1.4-.2l1.4.1.1 3.1c-2.2-1.4-5.8-.6-7.6.3zm7.5-5.7l.1 1.2-1.2-.1v-1.2h1.1v.1zm4.9 2.5l2.8 6.5-6.5-2.8-.2-3.8 3.9.1zm2.8-11.3c-1.5.4-2.6 1.3-3.2 2.5-.9 1.8-1.6 5.3-.3 7.6l-3.1-.1-.1-1.4c.1-.1.2-.2.2-.4s-.1-.4-.3-.5c-.1-.2-.3-.3-.5-.3s-.3.1-.4.2h-1.3v-7.6h9c.1 0 0 0 0 0z" class="st19"/>
  </g>

</svg>
