<?xml version="1.0" encoding="utf-8"?>
<!-- Generator: Adobe Illustrator 19.0.0, SVG Export Plug-In . SVG Version: 6.00 Build 0)  -->
<svg version="1.1" baseProfile="basic" id="Слой_1"
	 xmlns="http://www.w3.org/2000/svg" xmlns:xlink="http://www.w3.org/1999/xlink" x="0px" y="0px" viewBox="0 0 256 120"
	 xml:space="preserve">
<g id="XMLID_1_">
	<path id="XMLID_91_" fill="#F1AD32" d="M38.9,9.5H35L0,83.6v3.2h35.7v23.8h3.2V86.7h8.7v-3h-8.7V9.5z M35.7,83.7H3l32.7-68.6V83.7z
		"/>
	<path id="XMLID_98_" fill="#F1AD32" d="M247.3,83.7V9.5h-3.9l-35,74.1v3.2h35.7v23.8h3.2V86.7h8.7v-3H247.3z M244.1,83.7h-32.7
		l32.7-68.6V83.7z"/>
	<path id="XMLID_101_" fill="#F1AD32" d="M158,61.4c0-0.2,0-0.3-0.1-0.5c-0.1-0.2-0.3-0.4-0.6-0.5l-5.1-7.2c0,0,0,0,0,0
		c0-0.1-0.1-0.1-0.1-0.2c0,0,0,0,0,0c0,0,0,0,0,0c0,0-0.1,0-0.1-0.1c0,0-0.1,0-0.1-0.1l-8.8-4l3.4-1.8c0.1-0.1,0.2-0.2,0.3-0.3
		c0,0,0-0.1,0.1-0.1c0.1-0.1,0.1-0.2,0.1-0.3c0,0,0,0,0,0c0,0,0-0.1,0-0.1c0-0.1,0-0.2,0-0.3c0-0.1,0-0.1-0.1-0.2c0-0.1,0-0.1,0-0.2
		c0,0,0,0,0-0.1c0,0,0,0,0-0.1l-15.9-22.5c0,0,0,0,0,0c0-0.1-0.1-0.1-0.2-0.2c0,0,0,0-0.1-0.1c0,0-0.1,0-0.1,0
		c-0.1,0-0.1-0.1-0.2-0.1c0,0,0,0,0,0c-0.1,0-0.1,0-0.2,0c0,0-0.1,0-0.1,0c-0.1,0-0.1,0-0.2,0c0,0-0.1,0-0.1,0c0,0,0,0,0,0
		c-0.1,0-0.1,0.1-0.2,0.1c0,0-0.1,0-0.1,0c0,0,0,0-0.1,0.1c-0.1,0.1-0.1,0.1-0.2,0.2c0,0,0,0,0,0l-15.9,22.5
		c-0.2,0.2-0.2,0.5-0.2,0.8s0.3,0.5,0.5,0.7l3.4,1.8l-8.8,4c0,0-0.1,0-0.1,0.1c0,0-0.1,0-0.1,0.1c0,0,0,0,0,0c0,0,0,0,0,0
		c-0.1,0-0.1,0.1-0.1,0.2c0,0,0,0,0,0l-5.1,7.2c-0.2,0.1-0.4,0.2-0.6,0.5c-0.1,0.2-0.1,0.3-0.1,0.5l-22,31c-0.2,0.2-0.2,0.5-0.2,0.8
		c0.1,0.3,0.3,0.5,0.5,0.7l49.1,26c0,0,0.1,0,0.1,0.1c0,0,0.1,0,0.1,0c0.1,0,0.2,0,0.3,0c0.1,0,0.2,0,0.3,0c0,0,0.1,0,0.1,0
		c0,0,0.1,0,0.1-0.1l49.1-26c0.3-0.1,0.4-0.4,0.5-0.7c0.1-0.3,0-0.6-0.2-0.8L158,61.4z M169,97.1C169,97.1,169,97.2,169,97.1
		l-7.9,4.3c-0.8-3.9-3-6.2-4.2-7.2l8-4.2C165.4,90.3,168.4,92.6,169,97.1z M92.8,78.1l1.7,0.9c0.1,0,0.1,0.1,0.2,0.1l5.7,3
		c-1.2,1.1-2.9,3.2-3.7,6.3l-8.2-4.3L92.8,78.1z M103.6,62.8l1.5,0.8c-1.2,1.1-2.9,3.2-3.6,6.3l-2.1-1.1L103.6,62.8z M160.7,68.8
		l-2.1,1.1c-0.7-3.1-2.4-5.2-3.6-6.3l1.5-0.8L160.7,68.8z M165.8,76.6c-0.1-0.4-0.2-0.9-0.4-1.3l0.8,1.1L165.8,76.6z M161.6,89.4
		l-8.4,4.5c-0.7-3.1-2.4-5.2-3.6-6.4l8.3-4.4C158.7,83.8,160.9,85.8,161.6,89.4z M143.7,98.9c-0.7-3.1-2.4-5.2-3.6-6.4l6.4-3.4
		c0.1,0,0.2-0.1,0.2-0.1l1-0.5c1,0.8,3,2.8,3.7,6.3L143.7,98.9z M118.3,99.9c0.6-3.5,2.7-5.5,3.7-6.3l7.1,3.8v8.3L118.3,99.9z
		 M108.8,94.8c0.7-3.5,2.7-5.6,3.7-6.3l1,0.5c0.1,0.1,0.1,0.1,0.2,0.1l6.4,3.4c-1.2,1.1-2.9,3.2-3.6,6.4L108.8,94.8z M98.5,89.4
		c0.7-3.6,2.8-5.6,3.8-6.3l8.3,4.4c-1.2,1.1-2.9,3.2-3.6,6.4L98.5,89.4z M99.9,71.3l7.5,4c-1.2,1.1-2.9,3.2-3.6,6.3l-7.7-4.1
		C96.9,74,99,72,99.9,71.3z M107,64.5l2.5,1.3c0,0,0,0,0.1,0l3.4,1.8c-1.2,1.1-2.9,3.2-3.7,6.3l-6-3.2C103.9,67.3,106,65.3,107,64.5
		z M114.9,58.2l8.2,4.3c-1.2,1.1-2.9,3.2-3.7,6.3l-8.3-4.4C111.9,60.9,114,58.9,114.9,58.2z M148.9,64.5l-8.3,4.4
		c-0.8-3.1-2.5-5.2-3.7-6.3l4.7-2.5l3.5-1.9C146,58.9,148.2,60.9,148.9,64.5z M150.6,65.9l2.5-1.3c0.9,0.8,3,2.8,3.7,6.3l-6,3.2
		c-0.8-3.1-2.5-5.2-3.7-6.3L150.6,65.9C150.5,65.9,150.6,65.9,150.6,65.9z M154.5,82.6l-7,3.7c-0.2,0-0.3,0.1-0.5,0.3l-0.3,0.1
		c-0.8-3.1-2.5-5.2-3.7-6.3l7.7-4.1C151.7,77.1,153.8,79.1,154.5,82.6z M138.4,80.6c-0.8-3.2-2.5-5.2-3.7-6.3l10.5-5.6
		c0.9,0.7,3,2.7,3.7,6.3L138.4,80.6z M131.5,84.3c-0.2,0-0.3,0.1-0.4,0.2v-8.2l1.8-0.9c0.9,0.7,3.1,2.7,3.8,6.3L131.5,84.3z
		 M122.1,91.3l-6.9-3.7c0.7-3.6,2.9-5.6,3.8-6.2l2.9,1.6c0,0,0,0,0,0l4.7,2.5c-1.2,1.1-2.9,3.2-3.6,6.3l-0.3-0.2
		C122.5,91.5,122.3,91.4,122.1,91.3z M113.1,86.6c-0.1-0.1-0.3-0.2-0.5-0.2l-7-3.7c0.7-3.5,2.7-5.5,3.7-6.3l7.7,4.1
		c-1.2,1.1-2.9,3.1-3.7,6.3L113.1,86.6z M114.9,68.7l10.5,5.6c-1.2,1.1-2.9,3.2-3.7,6.3L111.1,75C111.8,71.5,114,69.4,114.9,68.7z
		 M125,63.5l4.1,2.1V74l-7.8-4.1C121.9,66.3,124.1,64.3,125,63.5z M138.9,69.8L131,74v-8.3l4.1-2.1C136,64.2,138.2,66.3,138.9,69.8z
		 M123.5,81.6c0.7-3.6,2.9-5.6,3.8-6.3l1.8,0.9v8.2c-0.1-0.1-0.3-0.2-0.4-0.2L123.5,81.6z M128.5,86.5l0.6,0.3V95l-4.3-2.3
		C125.5,89.3,127.5,87.2,128.5,86.5z M131,86.8l0.6-0.3c1,0.8,3,2.8,3.7,6.3L131,95V86.8z M137.4,91.6l-0.3,0.2
		c-0.7-3.1-2.4-5.2-3.6-6.3l4.7-2.5c0,0,0,0,0,0l2.9-1.6c0.9,0.7,3.1,2.7,3.8,6.2l-6.9,3.7C137.8,91.4,137.6,91.5,137.4,91.6z
		 M156.3,81.6c-0.7-3.1-2.4-5.2-3.6-6.3l7.5-4c0.9,0.7,3,2.7,3.8,6.2L156.3,81.6z M153,62.4c-0.2,0-0.3,0.1-0.4,0.2l-1.8,0.9
		c-0.8-3.2-2.5-5.2-3.7-6.3l4-2.1l4.3,6L153,62.4z M109,55.1l4,2.1c-1.2,1.1-2.9,3.2-3.7,6.3l-1.8-0.9c-0.1-0.1-0.3-0.2-0.4-0.2
		l-2.4-1.3L109,55.1z M94.3,76.6l-0.4-0.2l0.8-1.1C94.6,75.7,94.4,76.2,94.3,76.6z M95.3,90l8,4.2c-1.2,1-3.5,3.3-4.2,7.2l-7.9-4.2
		c0,0,0-0.1,0-0.1C91.7,92.6,94.7,90.4,95.3,90z M105.1,95.3C105.1,95.3,105.1,95.2,105.1,95.3l8.3,4.3c-1.2,1.1-3.4,3.4-4.2,7.3
		l-8.4-4.4C101.5,97.6,104.9,95.4,105.1,95.3z M115.3,100.6C115.3,100.6,115.3,100.6,115.3,100.6l9.5,5c-1.2,1-3.5,3.3-4.3,7.2
		l-9.5-5C111.7,102.9,115.2,100.7,115.3,100.6z M126.6,106.7c0.1,0,0.1-0.1,0.1-0.1l2.3,1.2v9.5l-6.7-3.5
		C123.1,109,126.5,106.8,126.6,106.7z M131,97.3l7.1-3.8c1,0.8,3,2.8,3.7,6.3l-10.8,5.7V97.3z M144.8,100.6
		C144.8,100.6,144.8,100.6,144.8,100.6c0.2,0.1,3.6,2.3,4.3,7.2l-9.5,5c-0.8-3.9-3.1-6.2-4.3-7.2L144.8,100.6z M146.7,99.5l8.2-4.3
		c0,0,0.1,0.1,0.1,0.1c0,0,3.5,2.2,4.2,7.1l-8.4,4.4C150.2,102.9,148,100.6,146.7,99.5z M163.4,88.4c-0.8-3.2-2.5-5.2-3.7-6.3l5.7-3
		c0.1,0,0.1-0.1,0.2-0.1l1.7-0.9l4.3,6L163.4,88.4z M118.9,47.5c0.7-3.5,2.8-5.6,3.7-6.3l5.2,2.8c-1.2,1.1-2.9,3.2-3.7,6.3
		L118.9,47.5z M125.3,32.1l1.3,0.7c-1.2,1.1-2.9,3.2-3.7,6.3l-1.9-1L125.3,32.1z M139,38.1l-1.9,1c-0.8-3.1-2.5-5.2-3.7-6.3l1.3-0.7
		L139,38.1z M144.5,45.8l-1.4,0.7c-0.8-3.1-2.5-5.2-3.7-6.3l0.8-0.4L144.5,45.8z M128.5,33.8l0.5,0.3v8.2l-4.2-2.2
		C125.5,36.6,127.6,34.6,128.5,33.8z M135.3,40.1l-4.2,2.2v-8.2l0.5-0.3C132.5,34.6,134.6,36.6,135.3,40.1z M137.5,41.2
		c0.9,0.7,3,2.8,3.7,6.3l-5.3,2.8c-0.8-3.2-2.5-5.2-3.7-6.3L137.5,41.2z M131,31.8v-5l2.6,3.6L131,31.8z M129,45.6v7.3l-3.1-1.6
		C126.5,48.4,128,46.6,129,45.6z M131,52.9v-7.3c1,1,2.5,2.9,3.1,5.7l-2.4,1.3L131,52.9z M129,31.8l-2.6-1.4l2.6-3.6V31.8z
		 M119.9,39.8l0.8,0.4c-1.2,1.1-2.9,3.2-3.7,6.3l-1.4-0.7L119.9,39.8z M129.6,55.4c0,0,0.1,0,0.1,0.1c0,0,0,0,0.1,0c0,0,0,0,0,0
		c0.1,0,0.2,0,0.3,0c0,0,0,0,0,0s0,0,0,0c0.1,0,0.2,0,0.2,0c0,0,0,0,0,0c0,0,0.1,0,0.1,0c0,0,0.1,0,0.1-0.1l10.2-5.4l8.4,3.8
		L130,63.9L111,53.9l8.4-3.8L129.6,55.4z M87.3,85.8l6,3.2c-1.3,1.1-3.4,3.5-4.1,7.3l-6.8-3.6L87.3,85.8z M131,107.8l2.3-1.2
		c0,0,0.1,0.1,0.1,0.1c0,0,3.5,2.2,4.2,7l-6.7,3.5V107.8z M170.9,96.2c-0.7-3.8-2.8-6.2-4.1-7.3l6-3.2l4.9,6.9L170.9,96.2z"/>
	<path id="XMLID_166_" fill="#F1AD32" d="M130.3,17.4c0.6,0,1-0.5,1-1V1c0-0.6-0.4-1-1-1s-1,0.5-1,1v15.4
		C129.3,17,129.7,17.4,130.3,17.4z"/>
	<path id="XMLID_167_" fill="#F1AD32" d="M123.6,18.3c0.1,0.4,0.5,0.7,1,0.7c0.1,0,0.2,0,0.3-0.1c0.5-0.2,0.8-0.7,0.6-1.3l-2.4-7.2
		c-0.2-0.5-0.7-0.8-1.3-0.6c-0.5,0.2-0.8,0.7-0.6,1.3L123.6,18.3z"/>
	<path id="XMLID_168_" fill="#F1AD32" d="M119.6,23.3c0.2,0.2,0.5,0.3,0.7,0.3c0.3,0,0.5-0.1,0.7-0.3c0.4-0.4,0.4-1,0-1.4l-8.3-8.5
		c-0.4-0.4-1-0.4-1.4,0c-0.4,0.4-0.4,1,0,1.4L119.6,23.3z"/>
	<path id="XMLID_169_" fill="#F1AD32" d="M117.2,28.8c0.4,0,0.7-0.2,0.9-0.6c0.2-0.5,0-1.1-0.4-1.4l-4.9-2.5c-0.5-0.2-1.1,0-1.3,0.4
		c-0.2,0.5,0,1.1,0.4,1.4l4.9,2.5C116.9,28.8,117.1,28.8,117.2,28.8z"/>
	<path id="XMLID_170_" fill="#F1AD32" d="M112.6,31.3c-0.5-0.1-1.1,0.2-1.2,0.8c-0.1,0.5,0.2,1.1,0.8,1.2l2.3,0.5c0.1,0,0.1,0,0.2,0
		c0.5,0,0.9-0.3,1-0.8c0.1-0.5-0.2-1.1-0.8-1.2L112.6,31.3z"/>
	<path id="XMLID_171_" fill="#F1AD32" d="M135.2,19c0.1,0,0.2,0.1,0.3,0.1c0.4,0,0.8-0.3,1-0.7l2.4-7.2c0.2-0.5-0.1-1.1-0.6-1.3
		c-0.5-0.2-1.1,0.1-1.3,0.6l-2.4,7.2C134.4,18.2,134.7,18.8,135.2,19z"/>
	<path id="XMLID_172_" fill="#F1AD32" d="M139.1,23.3c0.2,0.2,0.4,0.3,0.7,0.3c0.3,0,0.5-0.1,0.7-0.3l8.3-8.5c0.4-0.4,0.4-1,0-1.4
		c-0.4-0.4-1-0.4-1.4,0l-8.3,8.5C138.7,22.3,138.7,22.9,139.1,23.3z"/>
	<path id="XMLID_173_" fill="#F1AD32" d="M148.7,24.8c-0.2-0.5-0.8-0.7-1.3-0.4l-4.9,2.5c-0.5,0.2-0.7,0.9-0.4,1.4
		c0.2,0.4,0.5,0.6,0.9,0.6c0.2,0,0.3,0,0.4-0.1l4.9-2.5C148.8,25.9,149,25.3,148.7,24.8z"/>
	<path id="XMLID_174_" fill="#F1AD32" d="M147.5,31.3l-2.3,0.5c-0.5,0.1-0.9,0.7-0.8,1.2c0.1,0.5,0.5,0.8,1,0.8c0.1,0,0.1,0,0.2,0
		l2.3-0.5c0.5-0.1,0.9-0.7,0.8-1.2C148.6,31.5,148.1,31.2,147.5,31.3z"/>
</g>
</svg>
