<?xml version="1.0" encoding="utf-8"?>
<!-- Generator: Adobe Illustrator 19.0.0, SVG Export Plug-In . SVG Version: 6.00 Build 0)  -->
<svg version="1.1" id="Слой_1" xmlns="http://www.w3.org/2000/svg" xmlns:xlink="http://www.w3.org/1999/xlink" x="0px" y="0px"
	 viewBox="0 0 16 16" enable-background="new 0 0 16 16" xml:space="preserve">
<g id="XMLID_1338_">
	<g id="XMLID_53_">
		<g id="XMLID_56_">
			<path id="XMLID_57_" fill="#ECB72E" d="M8,16c-4.4,0-8-3.6-8-8s3.6-8,8-8s8,3.6,8,8S12.4,16,8,16z M8,2C4.7,2,2,4.7,2,8
				s2.7,6,6,6s6-2.7,6-6S11.3,2,8,2z"/>
		</g>
		<g id="XMLID_54_">
			<path id="XMLID_55_" fill="#ECB72E" d="M11.1,9H8C7.4,9,7,8.5,7,8V5c0-0.6,0.4-1,1-1s1,0.4,1,1v2h2.1c0.6,0,1,0.4,1,1
				C12.1,8.5,11.6,9,11.1,9z"/>
		</g>
	</g>
</g>
</svg>
