<?xml version="1.0" encoding="utf-8"?>
<!-- Generator: Adobe Illustrator 19.0.0, SVG Export Plug-In . SVG Version: 6.00 Build 0)  -->
<svg version="1.1" id="Слой_1" xmlns="http://www.w3.org/2000/svg" xmlns:xlink="http://www.w3.org/1999/xlink" x="0px" y="0px"
	 viewBox="0 0 433.8 347.7" enable-background="new 0 0 433.8 347.7" xml:space="preserve">
<g id="XMLID_14_">
	<path id="XMLID_15_" fill="#FFFFFF" d="M14.1,90.6H0V1h44.4v89.6H30.1V13.8h-16V90.6z"/>
	<path id="XMLID_17_" fill="#FFFFFF" d="M66.3,22.5C66.3,8.2,73.9,0,87.7,0s21.4,8.2,21.4,22.5v46.6c0,14.3-7.6,22.5-21.4,22.5
		s-21.4-8.2-21.4-22.5V22.5z M80.4,70c0,6.4,2.8,8.8,7.3,8.8c4.5,0,7.3-2.4,7.3-8.8V21.6c0-6.4-2.8-8.8-7.3-8.8
		c-4.5,0-7.3,2.4-7.3,8.8V70z"/>
	<path id="XMLID_20_" fill="#FFFFFF" d="M127,78c6.4,0,8.4-0.9,8.7-9.2L138,1h39.8v89.6h-14.3V13.8h-12.3L149.6,68
		c-0.5,16.4-6.4,22.8-20.5,22.8H127V78z"/>
	<path id="XMLID_22_" fill="#FFFFFF" d="M215.4,38.8h19.3v12.8h-19.3v26.2h24.3v12.8h-38.4V1h38.4v12.8h-24.3V38.8z"/>
	<path id="XMLID_24_" fill="#FFFFFF" d="M288.4,23c0-8.1-2.8-10.2-7.3-10.2s-7.4,2.4-7.4,8.8v7.3h-12.9v-6.7
		c0-14.3,6.9-22.3,20.7-22.3s21,8.2,21,22.5v2.3c0,9.6-3.1,15.6-9.9,18.4c7,3.1,9.9,9.7,9.9,18.8v7c0,14.3-7.2,22.5-21,22.5
		s-21-8.2-21-22.5v-9.9h13.3V70c0,6.4,2.8,8.8,7.3,8.8s7.3-2.2,7.3-10.1v-7c0-8.3-2.8-11.4-9.2-11.4h-3.5V37.5h4.2
		c5.2,0,8.4-2.3,8.4-9.5V23z"/>
	<path id="XMLID_26_" fill="#FFFFFF" d="M338.8,90.6h-14.1V1h14.1v38.4h16V1h14.3v89.6h-14.3V52.2h-16V90.6z"/>
	<path id="XMLID_28_" fill="#FFFFFF" d="M391,22.5C391,8.2,398.6,0,412.4,0s21.4,8.2,21.4,22.5v46.6c0,14.3-7.6,22.5-21.4,22.5
		S391,83.5,391,69.1V22.5z M405.1,70c0,6.4,2.8,8.8,7.3,8.8c4.5,0,7.3-2.4,7.3-8.8V21.6c0-6.4-2.8-8.8-7.3-8.8
		c-4.5,0-7.3,2.4-7.3,8.8V70z"/>
	<path id="XMLID_31_" fill="#FFFFFF" d="M90.9,218.6V129h39.4v12.8H105v22.9h8.2c14.1,0,21.2,7.8,21.2,22.1v9.6
		c0,14.3-7.2,22.1-21.2,22.1H90.9z M113.2,205.8c4.5,0,7.2-2,7.2-8.4V186c0-6.4-2.7-8.4-7.2-8.4H105v28.3H113.2z"/>
	<path id="XMLID_34_" fill="#FFFFFF" d="M156.7,218.6V129h14.1v33.7h6.7c14.1,0,21,7.8,21,22.1v11.6c0,14.3-6.9,22.1-21,22.1H156.7z
		 M177.4,205.8c4.5,0,6.9-2,6.9-8.4v-13.4c0-6.4-2.4-8.4-6.9-8.4h-6.7v30.3H177.4z M206.5,218.6V129h14.1v89.6H206.5z"/>
	<path id="XMLID_38_" fill="#FFFFFF" d="M239.5,129H283v12.8h-14.7v76.8h-14.1v-76.8h-14.7V129z"/>
	<path id="XMLID_40_" fill="#FFFFFF" d="M301.9,218.6V129H316v33.7h6.7c14.1,0,21,7.8,21,22.1v11.6c0,14.3-6.9,22.1-21,22.1H301.9z
		 M322.7,205.8c4.5,0,6.9-2,6.9-8.4v-13.4c0-6.4-2.4-8.4-6.9-8.4H316v30.3H322.7z"/>
	<path id="XMLID_43_" fill="#FFFFFF" d="M98.7,313.2v11.9c0,14.3-7.2,22.5-21,22.5c-13.8,0-21-8.2-21-22.5v-46.6
		c0-14.3,7.2-22.5,21-22.5c13.8,0,21,8.2,21,22.5v8.7H85.4v-9.6c0-6.4-2.8-8.8-7.3-8.8c-4.5,0-7.3,2.4-7.3,8.8V326
		c0,6.4,2.8,8.7,7.3,8.7c4.5,0,7.3-2.3,7.3-8.7v-12.8H98.7z"/>
	<path id="XMLID_45_" fill="#FFFFFF" d="M162.2,277.6v3.2c0,9.2-2.8,15.1-9.1,18c7.6,2.9,10.5,9.7,10.5,19.2v7.3
		c0,13.8-7.3,21.2-21.4,21.2h-22.1V257h21.2C155.9,257,162.2,263.8,162.2,277.6z M134.1,269.8v23.7h5.5c5.2,0,8.4-2.3,8.4-9.5v-5
		c0-6.4-2.2-9.2-7.2-9.2H134.1z M134.1,306.3v27.5h8.1c4.7,0,7.3-2.2,7.3-8.8v-7.8c0-8.3-2.7-10.9-9.1-10.9H134.1z"/>
	<path id="XMLID_49_" fill="#FFFFFF" d="M183.7,278.5c0-14.3,7.6-22.5,21.4-22.5s21.4,8.2,21.4,22.5v46.6c0,14.3-7.6,22.5-21.4,22.5
		s-21.4-8.2-21.4-22.5V278.5z M197.8,326c0,6.4,2.8,8.8,7.3,8.8c4.5,0,7.3-2.4,7.3-8.8v-48.4c0-6.4-2.8-8.8-7.3-8.8
		c-4.5,0-7.3,2.4-7.3,8.8V326z"/>
	<path id="XMLID_52_" fill="#FFFFFF" d="M262.8,346.6h-14.5V257h12.5v56.7L266,294l11.5-37H293v89.6h-12.7v-63.1l-5.8,22
		L262.8,346.6z"/>
	<path id="XMLID_54_" fill="#FFFFFF" d="M345.6,320.6l9.6-63.6h19.6v89.6h-13.3v-64.3l-9.7,64.3h-13.3l-10.5-63.4v63.4h-12.3V257
		h19.6L345.6,320.6z"/>
</g>
</svg>
