<svg id="Слой_1" data-name="Слой 1" xmlns="http://www.w3.org/2000/svg" width="556.8" height="389.6" viewBox="0 0 556.8 389.6"><defs><style>.cls-1,.cls-5,.cls-7{fill:#fff;}.cls-1{opacity:0.01;}.cls-1,.cls-8,.cls-9{isolation:isolate;}.cls-2,.cls-8,.cls-9{opacity:0.02;}.cls-3,.cls-6,.cls-8,.cls-9{fill:none;}.cls-3,.cls-6,.cls-7,.cls-8,.cls-9{stroke:#fff;stroke-linecap:round;stroke-linejoin:round;}.cls-3,.cls-7,.cls-9{stroke-width:2px;}.cls-4{opacity:0.5;}.cls-6{stroke-width:4px;}.cls-8{stroke-width:3px;}.cls-10{opacity:0.04;}</style></defs><title>evil_sun</title><ellipse class="cls-1" cx="281" cy="276.4" rx="72" ry="72.1"/><g class="cls-2"><path class="cls-3" d="M231.7,260.7c3.2,2.3,15.4,14,30,0"/><g class="cls-4"><path class="cls-3" d="M240,257.3a7.63,7.63,0,0,0-.5,2.7,7.4,7.4,0,0,0,14.8,0,8.08,8.08,0,0,0-.5-2.7A29.15,29.15,0,0,0,240,257.3Z"/></g><ellipse class="cls-5" cx="247" cy="260.1" rx="3.4" ry="3.3"/><path class="cls-6" d="M222.4,266.8a24.31,24.31,0,1,1,48.6,1.6"/><path class="cls-7" d="M261.7,260.7c-15.2-9.6-30.1,0-30,0h0c-0.1,0,14.9-17.8,30,0"/></g><g class="cls-2"><path class="cls-3" d="M330.3,260.7c-3.2,2.3-15.4,14-30,0"/><g class="cls-4"><path class="cls-3" d="M322,257.3a7.64,7.64,0,0,1,.5,2.7,7.4,7.4,0,0,1-14.8,0,8.08,8.08,0,0,1,.5-2.7A29.15,29.15,0,0,1,322,257.3Z"/></g><ellipse class="cls-5" cx="315" cy="260.1" rx="3.4" ry="3.3"/><path class="cls-6" d="M339.6,266.8a24.31,24.31,0,1,0-48.6,1.6"/><path class="cls-7" d="M300.3,260.7c15.2-9.6,30.1,0,30,0h0c0.1,0-14.9-17.8-30,0"/></g><path class="cls-8" d="M294.9,279.6a3.53,3.53,0,0,1,3.2,4.8c-2.4,4.9-7.9.5-10.3,1.8-3.1,1.7-3.2,4.5-6.8,4.5s-3.7-2.8-6.8-4.5c-2.4-1.3-7.9,3.1-10.3-1.8a3.53,3.53,0,0,1,3.2-4.8"/><path class="cls-9" d="M232.4,307.3a20.7,20.7,0,0,0,20.7-20.8"/><path class="cls-9" d="M329.6,307.3a20.7,20.7,0,0,1-20.7-20.8"/><path class="cls-9" d="M295.8,327.7c-2.2-6.2-10.8-6.1-14.8-6.1s-12.6-.1-14.8,6.1"/><g class="cls-2"><line class="cls-6" x1="279.9" y1="55.4" x2="279.9" y2="182.7"/><line class="cls-6" x1="169.3" y1="85.1" x2="232.9" y2="195.3"/><line class="cls-6" x1="222.6" y1="62.9" x2="255.6" y2="185.9"/><line class="cls-6" x1="123.4" y1="120.2" x2="213.4" y2="210.2"/><line class="cls-6" x1="66.1" y1="219.4" x2="189.1" y2="252.4"/><line class="cls-6" x1="88.2" y1="166.1" x2="198.5" y2="229.7"/><line class="cls-6" x1="58.6" y1="276.7" x2="185.9" y2="276.7"/><line class="cls-6" x1="88.2" y1="387.4" x2="198.5" y2="323.7"/><line class="cls-6" x1="66.1" y1="334" x2="189.1" y2="301.1"/><line class="cls-6" x1="390.6" y1="85.1" x2="326.9" y2="195.3"/><line class="cls-6" x1="337.2" y1="62.9" x2="304.3" y2="185.9"/><line class="cls-6" x1="436.4" y1="120.2" x2="346.4" y2="210.2"/><line class="cls-6" x1="493.7" y1="219.4" x2="370.7" y2="252.4"/><line class="cls-6" x1="471.6" y1="166.1" x2="361.4" y2="229.7"/><line class="cls-6" x1="501.2" y1="276.7" x2="374" y2="276.7"/><line class="cls-6" x1="471.6" y1="387.4" x2="361.4" y2="323.7"/><line class="cls-6" x1="493.7" y1="334" x2="370.7" y2="301.1"/></g><g class="cls-10"><line class="cls-6" x1="311.9" y1="2" x2="292.6" y2="161"/><line class="cls-6" x1="169.2" y1="22.3" x2="232" y2="169.6"/><line class="cls-6" x1="239.2" y1="2.8" x2="261.8" y2="161.3"/><line class="cls-6" x1="106.6" y1="59.3" x2="205.4" y2="185.3"/><line class="cls-6" x1="20.1" y1="174.5" x2="168.7" y2="234.3"/><line class="cls-6" x1="55.8" y1="111.2" x2="183.8" y2="207.4"/><line class="cls-6" x1="2" y1="244.9" x2="161" y2="264.2"/><line class="cls-6" x1="22.3" y1="387.6" x2="169.6" y2="324.8"/><line class="cls-6" x1="2.8" y1="317.6" x2="161.3" y2="295.1"/><path class="cls-6" d="M185.3,351.4"/><line class="cls-6" x1="445.6" y1="55.8" x2="349.5" y2="183.8"/><line class="cls-6" x1="382.3" y1="20.1" x2="322.5" y2="168.7"/><line class="cls-6" x1="497.5" y1="106.6" x2="371.5" y2="205.4"/><line class="cls-6" x1="554.1" y1="239.2" x2="395.5" y2="261.8"/><line class="cls-6" x1="534.5" y1="169.2" x2="387.2" y2="232"/><line class="cls-6" x1="554.8" y1="311.9" x2="395.8" y2="292.6"/><line class="cls-6" x1="536.7" y1="382.3" x2="388.2" y2="322.5"/></g><g class="cls-2"><path class="cls-5" d="M286.3,300.2l7.7,5.6s-1,4.5-12.9,4.5-12.9-4.5-12.9-4.5l7.7-5.6a44.15,44.15,0,0,0,5.3.8,39.34,39.34,0,0,0,5.1-.8m0-2h-0.4a43.75,43.75,0,0,1-4.9.7,43.74,43.74,0,0,1-4.9-.7h-0.4a1.92,1.92,0,0,0-1.2.4l-7.7,5.6a2.35,2.35,0,0,0-.8,2.1c0.2,1,2,6.1,14.9,6.1s14.6-5,14.9-6.1a2,2,0,0,0-.8-2.1l-7.7-5.6a1.16,1.16,0,0,0-1-.4h0Z"/><path class="cls-3" d="M268.1,305.7a44.74,44.74,0,0,1,25.8,0"/></g></svg>