<?xml version="1.0" encoding="utf-8"?>
<!-- Generator: Adobe Illustrator 19.2.0, SVG Export Plug-In . SVG Version: 6.00 Build 0)  -->
<svg version="1.1" id="Слой_1" xmlns="http://www.w3.org/2000/svg" xmlns:xlink="http://www.w3.org/1999/xlink" x="0px" y="0px"
	 viewBox="0 0 556.8 389.6" style="enable-background:new 0 0 556.8 389.6;" xml:space="preserve">
<style type="text/css">
	.st0{opacity:1.000000e-02;fill:#FFFFFF;}
	.st1{opacity:2.000000e-02;}
	.st2{fill:none;stroke:#FFFFFF;stroke-width:2;stroke-linecap:round;stroke-linejoin:round;stroke-miterlimit:10;}
	.st3{opacity:0.5;}
	.st4{fill:#FFFFFF;}
	.st5{fill:none;stroke:#FFFFFF;stroke-width:4;stroke-linecap:round;stroke-linejoin:round;stroke-miterlimit:10;}
	.st6{fill:#FFFFFF;stroke:#FFFFFF;stroke-width:2;stroke-linecap:round;stroke-linejoin:round;stroke-miterlimit:10;}
	
		.st7{opacity:2.000000e-02;fill:none;stroke:#FFFFFF;stroke-width:3;stroke-linecap:round;stroke-linejoin:round;stroke-miterlimit:10;}
	
		.st8{opacity:2.000000e-02;fill:none;stroke:#FFFFFF;stroke-width:2;stroke-linecap:round;stroke-linejoin:round;stroke-miterlimit:10;}
	.st9{opacity:4.000000e-02;}
</style>
<ellipse class="st0" cx="281" cy="276.4" rx="72" ry="72.1"/>
<g class="st1">
	<path class="st2" d="M231.7,260.7c3.2,2.3,15.4,14,30,0"/>
	<g class="st3">
		<path class="st2" d="M240,257.3c-0.3,0.8-0.5,1.7-0.5,2.7c0,4,3.3,7.3,7.4,7.3c4.1,0,7.4-3.2,7.4-7.3c0-0.9-0.2-1.9-0.5-2.7
			C248.7,256,243.9,256.4,240,257.3z"/>
	</g>
	<ellipse class="st4" cx="247" cy="260.1" rx="3.4" ry="3.3"/>
	<path class="st5" d="M222.4,266.8c0.4-13.4,11.7-24,25.1-23.5c13.4,0.4,24,11.7,23.5,25.1"/>
	<path class="st6" d="M261.7,260.7c-15.2-9.6-30.1,0-30,0l0,0C231.6,260.7,246.6,242.9,261.7,260.7"/>
</g>
<g class="st1">
	<path class="st2" d="M330.3,260.7c-3.2,2.3-15.4,14-30,0"/>
	<g class="st3">
		<path class="st2" d="M322,257.3c0.3,0.8,0.5,1.7,0.5,2.7c0,4-3.3,7.3-7.4,7.3c-4.1,0-7.4-3.2-7.4-7.3c0-0.9,0.2-1.9,0.5-2.7
			C313.3,256,318.1,256.4,322,257.3z"/>
	</g>
	<ellipse class="st4" cx="315" cy="260.1" rx="3.4" ry="3.3"/>
	<path class="st5" d="M339.6,266.8c-0.4-13.4-11.7-24-25.1-23.5c-13.4,0.4-24,11.7-23.5,25.1"/>
	<path class="st6" d="M300.3,260.7c15.2-9.6,30.1,0,30,0l0,0C330.4,260.7,315.4,242.9,300.3,260.7"/>
</g>
<path class="st7" d="M294.9,279.6c3.2,0.1,3.9,3.5,3.2,4.8c-2.4,4.9-7.9,0.5-10.3,1.8c-3.1,1.7-3.2,4.5-6.8,4.5s-3.7-2.8-6.8-4.5
	c-2.4-1.3-7.9,3.1-10.3-1.8c-0.7-1.3,0-4.7,3.2-4.8"/>
<path class="st8" d="M232.4,307.3c11.5,0,20.7-9.3,20.7-20.8"/>
<path class="st8" d="M329.6,307.3c-11.5,0-20.7-9.3-20.7-20.8"/>
<path class="st8" d="M295.8,327.7c-2.2-6.2-10.8-6.1-14.8-6.1s-12.6-0.1-14.8,6.1"/>
<g class="st1">
	<g>
		<g>
			<g>
				<g>
					<line class="st5" x1="279.9" y1="55.4" x2="279.9" y2="182.7"/>
				</g>
				<g>
					<line class="st5" x1="169.3" y1="85.1" x2="232.9" y2="195.3"/>
				</g>
				<g>
					<line class="st5" x1="222.6" y1="62.9" x2="255.6" y2="185.9"/>
				</g>
			</g>
			<g>
				<g>
					<line class="st5" x1="123.4" y1="120.2" x2="213.4" y2="210.2"/>
				</g>
				<g>
					<line class="st5" x1="66.1" y1="219.4" x2="189.1" y2="252.4"/>
				</g>
				<g>
					<line class="st5" x1="88.2" y1="166.1" x2="198.5" y2="229.7"/>
				</g>
			</g>
		</g>
		<g>
			<g>
				<g>
					<line class="st5" x1="58.6" y1="276.7" x2="185.9" y2="276.7"/>
				</g>
				<g>
					<line class="st5" x1="88.2" y1="387.4" x2="198.5" y2="323.7"/>
				</g>
				<g>
					<line class="st5" x1="66.1" y1="334" x2="189.1" y2="301.1"/>
				</g>
			</g>
		</g>
	</g>
	<g>
		<g>
			<g>
				<g>
					<line class="st5" x1="390.6" y1="85.1" x2="326.9" y2="195.3"/>
				</g>
				<g>
					<line class="st5" x1="337.2" y1="62.9" x2="304.3" y2="185.9"/>
				</g>
			</g>
			<g>
				<g>
					<line class="st5" x1="436.4" y1="120.2" x2="346.4" y2="210.2"/>
				</g>
				<g>
					<line class="st5" x1="493.7" y1="219.4" x2="370.7" y2="252.4"/>
				</g>
				<g>
					<line class="st5" x1="471.6" y1="166.1" x2="361.4" y2="229.7"/>
				</g>
			</g>
		</g>
		<g>
			<g>
				<g>
					<line class="st5" x1="501.2" y1="276.7" x2="374" y2="276.7"/>
				</g>
				<g>
					<line class="st5" x1="471.6" y1="387.4" x2="361.4" y2="323.7"/>
				</g>
				<g>
					<line class="st5" x1="493.7" y1="334" x2="370.7" y2="301.1"/>
				</g>
			</g>
		</g>
	</g>
</g>
<g class="st9">
	<g>
		<g>
			<g>
				<g>
					<line class="st5" x1="311.9" y1="2" x2="292.6" y2="161"/>
				</g>
				<g>
					<line class="st5" x1="169.2" y1="22.3" x2="232" y2="169.6"/>
				</g>
				<g>
					<line class="st5" x1="239.2" y1="2.8" x2="261.8" y2="161.3"/>
				</g>
			</g>
			<g>
				<g>
					<line class="st5" x1="106.6" y1="59.3" x2="205.4" y2="185.3"/>
				</g>
				<g>
					<line class="st5" x1="20.1" y1="174.5" x2="168.7" y2="234.3"/>
				</g>
				<g>
					<line class="st5" x1="55.8" y1="111.2" x2="183.8" y2="207.4"/>
				</g>
			</g>
		</g>
		<g>
			<g>
				<g>
					<line class="st5" x1="2" y1="244.9" x2="161" y2="264.2"/>
				</g>
				<g>
					<line class="st5" x1="22.3" y1="387.6" x2="169.6" y2="324.8"/>
				</g>
				<g>
					<line class="st5" x1="2.8" y1="317.6" x2="161.3" y2="295.1"/>
				</g>
			</g>
			<g>
				<g>
					<path class="st5" d="M185.3,351.4"/>
				</g>
			</g>
		</g>
	</g>
	<g>
		<g>
			<g>
				<g>
					<line class="st5" x1="445.6" y1="55.8" x2="349.5" y2="183.8"/>
				</g>
				<g>
					<line class="st5" x1="382.3" y1="20.1" x2="322.5" y2="168.7"/>
				</g>
			</g>
			<g>
				<g>
					<line class="st5" x1="497.5" y1="106.6" x2="371.5" y2="205.4"/>
				</g>
				<g>
					<line class="st5" x1="554.1" y1="239.2" x2="395.5" y2="261.8"/>
				</g>
				<g>
					<line class="st5" x1="534.5" y1="169.2" x2="387.2" y2="232"/>
				</g>
			</g>
		</g>
		<g>
			<g>
				<g>
					<line class="st5" x1="554.8" y1="311.9" x2="395.8" y2="292.6"/>
				</g>
				<g>
					<line class="st5" x1="536.7" y1="382.3" x2="388.2" y2="322.5"/>
				</g>
			</g>
		</g>
	</g>
</g>
<g class="st1">
	<g>
		<path class="st4" d="M286.3,300.2l7.7,5.6c0,0-1,4.5-12.9,4.5s-12.9-4.5-12.9-4.5l7.7-5.6c0,0,3.9,0.8,5.3,0.8
			S286.3,300.2,286.3,300.2 M286.3,298.2c-0.1,0-0.3,0-0.4,0c-1.6,0.3-4.1,0.7-4.9,0.7s-3.3-0.4-4.9-0.7c-0.1,0-0.3,0-0.4,0
			c-0.4,0-0.8,0.1-1.2,0.4l-7.7,5.6c-0.6,0.5-0.9,1.3-0.8,2.1c0.2,1,2,6.1,14.9,6.1c12.8,0,14.6-5,14.9-6.1c0.2-0.8-0.1-1.6-0.8-2.1
			l-7.7-5.6C287.1,298.3,286.7,298.2,286.3,298.2L286.3,298.2z"/>
	</g>
	<path class="st2" d="M268.1,305.7c0,0,5.8-1.9,12.9-1.9c7.1,0,12.9,1.9,12.9,1.9"/>
</g>
</svg>
