<?xml version="1.0" encoding="utf-8"?>
<!-- Generator: Adobe Illustrator 18.1.1, SVG Export Plug-In . SVG Version: 6.00 Build 0)  -->
<svg version="1.1" id="Слой_1" xmlns="http://www.w3.org/2000/svg" xmlns:xlink="http://www.w3.org/1999/xlink" x="0px" y="0px"
	 viewBox="0 0 315.6 320" enable-background="new 0 0 315.6 320" xml:space="preserve">
<g id="XMLID_7899_">
	<g id="XMLID_7955_" opacity="0.1">
		<path fill="#FFFFFF" d="M155.6,97c34.7,0,63,28.3,63,63s-28.3,63-63,63s-63-28.3-63-63S120.9,97,155.6,97 M155.6,96
			c-35.3,0-64,28.7-64,64s28.7,64,64,64s64-28.7,64-64S191,96,155.6,96L155.6,96z"/>
	</g>
	<defs>
		<filter id="Adobe_OpacityMaskFilter" filterUnits="userSpaceOnUse" x="56.2" y="65.1" width="199.1" height="181.3">
			<feFlood  style="flood-color:white;flood-opacity:1" result="back"/>
			<feBlend  in="SourceGraphic" in2="back" mode="normal"/>
		</filter>
	</defs>
	<mask maskUnits="userSpaceOnUse" x="56.2" y="65.1" width="199.1" height="181.3" id="XMLID_2_">
		<g id="XMLID_18_" filter="url(#Adobe_OpacityMaskFilter)">
			<circle id="XMLID_19_" fill="#010202" cx="155.6" cy="160" r="47"/>
		</g>
	</mask>
	<g id="XMLID_7911_" mask="url(#XMLID_2_)">
		
			<line id="XMLID_7954_" opacity="0.5" fill="none" stroke="#F2AF31" stroke-width="2" stroke-linecap="round" stroke-linejoin="round" stroke-miterlimit="10" x1="104.8" y1="105" x2="139.1" y2="139.2"/>
		
			<line id="XMLID_7953_" fill="none" stroke="#F2AF31" stroke-width="2" stroke-linecap="round" stroke-linejoin="round" stroke-miterlimit="10" x1="125" y1="131" x2="84.7" y2="94.6"/>
		
			<line id="XMLID_7952_" fill="none" stroke="#F2AF31" stroke-width="2" stroke-linecap="round" stroke-linejoin="round" stroke-miterlimit="10" x1="135" y1="144.9" x2="100" y2="123.9"/>
		
			<line id="XMLID_7951_" fill="none" stroke="#F2AF31" stroke-width="2" stroke-linecap="round" stroke-linejoin="round" stroke-miterlimit="10" x1="119.4" y1="143.3" x2="70" y2="120.3"/>
		
			<line id="XMLID_7949_" opacity="0.25" fill="none" stroke="#F2AF31" stroke-width="2" stroke-linecap="round" stroke-linejoin="round" stroke-miterlimit="10" x1="135.2" y1="152.1" x2="96.9" y2="142.6"/>
		
			<line id="XMLID_7948_" fill="none" stroke="#F2AF31" stroke-width="2" stroke-linecap="round" stroke-linejoin="round" stroke-miterlimit="10" x1="127.6" y1="156.2" x2="57.2" y2="147.2"/>
		
			<line id="XMLID_7947_" opacity="0.75" fill="none" stroke="#F2AF31" stroke-width="2" stroke-linecap="round" stroke-linejoin="round" stroke-miterlimit="10" x1="133.4" y1="160.4" x2="76.5" y2="164.4"/>
		
			<line id="XMLID_7945_" opacity="0.5" fill="none" stroke="#F2AF31" stroke-width="2" stroke-linecap="round" stroke-linejoin="round" stroke-miterlimit="10" x1="121.9" y1="165.4" x2="84.4" y2="174.4"/>
		
			<line id="XMLID_7943_" opacity="0.75" fill="none" stroke="#F2AF31" stroke-width="2" stroke-linecap="round" stroke-linejoin="round" stroke-miterlimit="10" x1="127.2" y1="170.9" x2="80.5" y2="194.4"/>
		
			<line id="XMLID_7941_" fill="none" stroke="#F2AF31" stroke-width="2" stroke-linecap="round" stroke-linejoin="round" stroke-miterlimit="10" x1="126.9" y1="175.3" x2="69.3" y2="213.2"/>
		
			<line id="XMLID_7940_" opacity="0.5" fill="none" stroke="#F2AF31" stroke-width="2" stroke-linecap="round" stroke-linejoin="round" stroke-miterlimit="10" x1="127.4" y1="183" x2="99.8" y2="209.8"/>
		
			<line id="XMLID_7939_" opacity="0.25" fill="none" stroke="#F2AF31" stroke-width="2" stroke-linecap="round" stroke-linejoin="round" stroke-miterlimit="10" x1="135.8" y1="181.5" x2="116.8" y2="206.9"/>
		
			<line id="XMLID_7938_" opacity="0.75" fill="none" stroke="#F2AF31" stroke-width="2" stroke-linecap="round" stroke-linejoin="round" stroke-miterlimit="10" x1="141.8" y1="180.2" x2="110.6" y2="237"/>
		
			<line id="XMLID_7937_" opacity="0.5" fill="none" stroke="#F2AF31" stroke-width="2" stroke-linecap="round" stroke-linejoin="round" stroke-miterlimit="10" x1="142.8" y1="190.2" x2="125.6" y2="229.7"/>
		
			<line id="XMLID_7936_" opacity="0.75" fill="none" stroke="#F2AF31" stroke-width="2" stroke-linecap="round" stroke-linejoin="round" stroke-miterlimit="10" x1="149.2" y1="180.5" x2="133.8" y2="242.6"/>
		
			<line id="XMLID_7935_" opacity="0.25" fill="none" stroke="#F2AF31" stroke-width="2" stroke-linecap="round" stroke-linejoin="round" stroke-miterlimit="10" x1="153.8" y1="192.5" x2="152.9" y2="218.6"/>
		
			<line id="XMLID_7934_" opacity="0.75" fill="none" stroke="#F2AF31" stroke-width="2" stroke-linecap="round" stroke-linejoin="round" stroke-miterlimit="10" x1="156" y1="175.6" x2="164.9" y2="245.4"/>
		
			<line id="XMLID_7933_" opacity="0.5" fill="none" stroke="#F2AF31" stroke-width="2" stroke-linecap="round" stroke-linejoin="round" stroke-miterlimit="10" x1="164.5" y1="184.1" x2="180.4" y2="232.6"/>
		
			<line id="XMLID_7932_" fill="none" stroke="#F2AF31" stroke-width="2" stroke-linecap="round" stroke-linejoin="round" stroke-miterlimit="10" x1="166.8" y1="177.3" x2="193.1" y2="217.2"/>
		
			<line id="XMLID_7931_" fill="none" stroke="#F2AF31" stroke-width="2" stroke-linecap="round" stroke-linejoin="round" stroke-miterlimit="10" x1="181.2" y1="187.6" x2="225.1" y2="231.5"/>
		
			<path id="XMLID_7930_" opacity="0.5" fill="none" stroke="#F2AF31" stroke-width="2" stroke-linecap="round" stroke-linejoin="round" stroke-miterlimit="10" d="
			M174.9,172.7c0,0,38.4,33.9,38.7,34.2"/>
		
			<line id="XMLID_7929_" opacity="0.75" fill="none" stroke="#F2AF31" stroke-width="2" stroke-linecap="round" stroke-linejoin="round" stroke-miterlimit="10" x1="169.8" y1="165.3" x2="229.7" y2="203.3"/>
		
			<line id="XMLID_7928_" opacity="0.25" fill="none" stroke="#F2AF31" stroke-width="2" stroke-linecap="round" stroke-linejoin="round" stroke-miterlimit="10" x1="189.1" y1="169.7" x2="207.9" y2="176.2"/>
		
			<line id="XMLID_7927_" fill="none" stroke="#F2AF31" stroke-width="2" stroke-linecap="round" stroke-linejoin="round" stroke-miterlimit="10" x1="179.2" y1="161.6" x2="245.5" y2="172.4"/>
		
			<line id="XMLID_7926_" opacity="0.5" fill="none" stroke="#F2AF31" stroke-width="2" stroke-linecap="round" stroke-linejoin="round" stroke-miterlimit="10" x1="189.1" y1="158.5" x2="224.7" y2="162.3"/>
		
			<line id="XMLID_7925_" fill="none" stroke="#F2AF31" stroke-width="2" stroke-linecap="round" stroke-linejoin="round" stroke-miterlimit="10" x1="178.1" y1="154.9" x2="254.3" y2="151.4"/>
		
			<line id="XMLID_7924_" opacity="0.25" fill="none" stroke="#F2AF31" stroke-width="2" stroke-linecap="round" stroke-linejoin="round" stroke-miterlimit="10" x1="174.4" y1="151.2" x2="211.5" y2="139.9"/>
		
			<line id="XMLID_7923_" fill="none" stroke="#F2AF31" stroke-width="2" stroke-linecap="round" stroke-linejoin="round" stroke-miterlimit="10" x1="195" y1="133.9" x2="241.9" y2="102.1"/>
		
			<line id="XMLID_7922_" opacity="0.25" fill="none" stroke="#F2AF31" stroke-width="2" stroke-linecap="round" stroke-linejoin="round" stroke-miterlimit="10" x1="183.4" y1="133.8" x2="201.2" y2="116"/>
		
			<line id="XMLID_7921_" opacity="0.75" fill="none" stroke="#F2AF31" stroke-width="2" stroke-linecap="round" stroke-linejoin="round" stroke-miterlimit="10" x1="179.1" y1="132.6" x2="219" y2="85.8"/>
		
			<line id="XMLID_7920_" opacity="0.5" fill="none" stroke="#F2AF31" stroke-width="2" stroke-linecap="round" stroke-linejoin="round" stroke-miterlimit="10" x1="174.2" y1="131.9" x2="197.6" y2="99.5"/>
		
			<line id="XMLID_7919_" opacity="0.75" fill="none" stroke="#F2AF31" stroke-width="2" stroke-linecap="round" stroke-linejoin="round" stroke-miterlimit="10" x1="136.2" y1="129.5" x2="104.7" y2="93.6"/>
		
			<line id="XMLID_7918_" fill="none" stroke="#F2AF31" stroke-width="2" stroke-linecap="round" stroke-linejoin="round" stroke-miterlimit="10" x1="147.4" y1="136.3" x2="119" y2="85.4"/>
		
			<line id="XMLID_7917_" opacity="0.5" fill="none" stroke="#F2AF31" stroke-width="2" stroke-linecap="round" stroke-linejoin="round" stroke-miterlimit="10" x1="145.6" y1="123.3" x2="132.8" y2="93.7"/>
		
			<line id="XMLID_7916_" opacity="0.75" fill="none" stroke="#F2AF31" stroke-width="2" stroke-linecap="round" stroke-linejoin="round" stroke-miterlimit="10" x1="153.1" y1="135.5" x2="138.2" y2="71.6"/>
		
			<line id="XMLID_7915_" opacity="0.25" fill="none" stroke="#F2AF31" stroke-width="2" stroke-linecap="round" stroke-linejoin="round" stroke-miterlimit="10" x1="157.2" y1="126.6" x2="157.1" y2="101.7"/>
		
			<line id="XMLID_7914_" fill="none" stroke="#F2AF31" stroke-width="2" stroke-linecap="round" stroke-linejoin="round" stroke-miterlimit="10" x1="161.5" y1="130.9" x2="169" y2="66.1"/>
		
			<line id="XMLID_7913_" opacity="0.5" fill="none" stroke="#F2AF31" stroke-width="2" stroke-linecap="round" stroke-linejoin="round" stroke-miterlimit="10" x1="168.9" y1="124.8" x2="182.8" y2="87.3"/>
		
			<line id="XMLID_7912_" fill="none" stroke="#F2AF31" stroke-width="2" stroke-linecap="round" stroke-linejoin="round" stroke-miterlimit="10" x1="174" y1="125.2" x2="205.1" y2="71.8"/>
	</g>
	<g id="XMLID_7907_">
		<path fill="#F2AF31" d="M155.6,114c25.4,0,46,20.6,46,46s-20.6,46-46,46c-25.4,0-46-20.6-46-46S130.3,114,155.6,114 M155.6,112
			c-26.5,0-48,21.5-48,48s21.5,48,48,48c26.5,0,48-21.5,48-48S182.1,112,155.6,112L155.6,112z"/>
	</g>
	<g id="XMLID_7904_">
		<defs>
			<circle id="XMLID_7905_" cx="155.6" cy="160" r="40"/>
		</defs>
		<clipPath id="XMLID_6_">
			<use xlink:href="#XMLID_7905_"  overflow="visible"/>
		</clipPath>
	</g>
	<circle id="XMLID_7903_" fill="#ECB72E" cx="183.6" cy="132" r="12"/>
	
		<text id="XMLID_7902_" transform="matrix(1 0 0 1 181.177 137.0516)" fill="#FFFFFF" font-family="'BebasNeueRegular'" font-size="14" letter-spacing="1">8</text>
	<g id="XMLID_7900_" opacity="0.25">
		<radialGradient id="SVGID_1_" cx="155.6209" cy="160" r="160" gradientUnits="userSpaceOnUse">
			<stop  offset="0" style="stop-color:#F2AE31"/>
			<stop  offset="1" style="stop-color:#F2AE31;stop-opacity:0"/>
		</radialGradient>
		<circle fill="url(#SVGID_1_)" cx="155.6" cy="160" r="160"/>
	</g>
</g>
</svg>
