<?xml version="1.0" encoding="utf-8"?>
<!-- Generator: Adobe Illustrator 15.0.2, SVG Export Plug-In  -->
<!DOCTYPE svg PUBLIC "-//W3C//DTD SVG 1.1//EN" "http://www.w3.org/Graphics/SVG/1.1/DTD/svg11.dtd" [
	<!ENTITY ns_flows "http://ns.adobe.com/Flows/1.0/">
]>
<svg version="1.1"
	 xmlns="http://www.w3.org/2000/svg" xmlns:xlink="http://www.w3.org/1999/xlink" xmlns:a="http://ns.adobe.com/AdobeSVGViewerExtensions/3.0/"
	 x="0px" y="0px" width="89px" height="76px" viewBox="0.5 0.5 89 76" enable-background="new 0.5 0.5 89 76" xml:space="preserve">
<defs>
</defs>
<polygon  class="" fill="#282C34" points="44.9199219,0.5 0.5,76.7172852 89.0483398,76.7172852 "/>
<polygon  class="" fill="none" stroke="#EAB22F"  stroke-linecap="round" stroke-linejoin="round" stroke-miterlimit="10" points="
	44.9199219,0.5 0.5,76.7172852 89.0483398,76.7172852 "/>
<path class="" fill="#EAB22F" d="M10.8076172,72.0493164c0,0.5742188-0.4658203,1.0410156-1.0400391,1.0410156
	c-0.5751953,0-1.0410156-0.4667969-1.0410156-1.0410156s0.4658203-1.0410156,1.0410156-1.0410156
	C10.3417969,71.0083008,10.8076172,71.4750977,10.8076172,72.0493164"/>
<path class="" fill="#EAB22F" d="M80.847168,72.0512695c0,0.5722656-0.4648438,1.0390625-1.0390625,1.0390625
	s-1.0410156-0.4667969-1.0410156-1.0390625c0-0.5761719,0.4667969-1.0410156,1.0410156-1.0410156
	S80.847168,71.4750977,80.847168,72.0512695"/>
<path class="" fill="none" stroke="#EAB22F" stroke-linecap="round" stroke-linejoin="round" stroke-miterlimit="10" d="
	M23.8349609,37.0537109c0,0,15.9257813-14.5751953,37.8325195-7.4150391"/>
<path class="" fill="none" stroke="#EAB22F" stroke-linecap="round" stroke-linejoin="round" stroke-miterlimit="10" d="
	M10.8076172,59.5063477c0,0,9.8222656,10.5976563,29.1992188,10.7988281
	c9.9301758,0.1035156,23.3813477-4.4667969,35.0727539-17.4394531"/>
<path class="" fill="none" stroke="#EAB22F" stroke-linecap="round" stroke-linejoin="round" stroke-miterlimit="10" d="
	M30.7685547,25.1015625c0,0,8.9628906-9.8647461,24.809082-5.9829102"/>
<path class="" fill="none" stroke="#EAB22F" stroke-linecap="round" stroke-linejoin="round" stroke-miterlimit="10" d="
	M80.847168,62.7641602c0,0-4.4804688,10.0507813-21.8867188,14.1660156"/>
<path class="" fill="none" stroke="#EAB22F" stroke-linecap="round" stroke-linejoin="round" stroke-miterlimit="10" d="
	M62.7338867,51.7387695c0,0-4.1914063,6.5800781-13.0039063,8.0488281c-8.8120117,1.46875-18.0454102-3.8339844-23.3696289-1.96875
	c-0.6445313,0.2265625-1,0.3320313-1.3857422,0.2851563c-0.8759766-0.1074219-1.2988281-0.8261719-1.2988281-1.4863281
	c0-1.8359375,1.6123047-1.7304688,2.2177734-2.0332031c0.9560547-0.4785156,5.5957031-9.7226563,17.9609375-10.6796875
	C49.9526367,43.4331055,55.440918,45.1196289,62.7338867,51.7387695z"/>
<path class="" fill="none" stroke="#EAB22F" stroke-linecap="round" stroke-linejoin="round" stroke-miterlimit="10" d="
	M43.8544922,43.9047852c-3.7578125,0.2910156-6.7988281,1.3496094-9.2421875,2.6923828
	c-0.0859375,0.5107422-0.1416016,1.0332031-0.1416016,1.5683594c0,5.2255859,4.2373047,9.4619141,9.4619141,9.4619141
	c5.2250977,0,9.4633789-4.2363281,9.4633789-9.4619141c0-1.0400391-0.1757813-2.0380859-0.484375-2.9755859
	C49.8413086,43.9790039,46.925293,43.6674805,43.8544922,43.9047852z"/>
<path class="" fill="none" stroke="#EAB22F" stroke-linecap="round" stroke-linejoin="round" stroke-miterlimit="10" d="
	M62.972168,51.9399414c0,0,1.796875,0.9257813,3.0976563,0.3300781"/>
<path class="" fill="none" stroke="#EAB22F" stroke-linecap="round" stroke-linejoin="round" stroke-miterlimit="10" d="
	M21.6552734,54.9829102c0,0,2.7851563,0.5351563,4.2382813-0.5371094"/>
<path class="" fill="none" stroke="#EAB22F" stroke-linecap="round" stroke-linejoin="round" stroke-miterlimit="10" d="
	M24.3789063,48.6987305c0,0,19.7509766-20.4038086,39.7612305-1.7373047"/>
<path class="" fill="none" stroke="#EAB22F" stroke-linecap="round" stroke-linejoin="round" stroke-miterlimit="10" d="
	M25.6982422,54.7758789c0.9277344,0,1.6816406,0.7519531,1.6816406,1.6796875s-0.7539063,1.6816406-1.6816406,1.6816406"/>
<line class="" fill="none" stroke="#EAB22F" stroke-linecap="round" stroke-linejoin="round" stroke-miterlimit="10" x1="44.2568359" y1="31.1987305" x2="44.5996094" y2="39.0385742"/>
<line class="" fill="none" stroke="#EAB22F" stroke-linecap="round" stroke-linejoin="round" stroke-miterlimit="10" x1="36.3642578" y1="32.6450195" x2="38.7138672" y2="40.1318359"/>
<line class="" fill="none" stroke="#EAB22F" stroke-linecap="round" stroke-linejoin="round" stroke-miterlimit="10" x1="30.0791016" y1="36.0561523" x2="33.2744141" y2="42.3637695"/>
<line class="" fill="none" stroke="#EAB22F" stroke-linecap="round" stroke-linejoin="round" stroke-miterlimit="10" x1="40.3300781" y1="34.4433594" x2="41.4550781" y2="39.3803711"/>
<line class="" fill="none" stroke="#EAB22F" stroke-linecap="round" stroke-linejoin="round" stroke-miterlimit="10" x1="33.9326172" y1="36.5458984" x2="35.9345703" y2="41.1977539"/>
<line class="" fill="none" stroke="#EAB22F" stroke-linecap="round" stroke-linejoin="round" stroke-miterlimit="10" x1="28.2626953" y1="39.7207031" x2="30.4150391" y2="43.7192383"/>
<line class="" fill="none" stroke="#EAB22F" stroke-linecap="round" stroke-linejoin="round" stroke-miterlimit="10" x1="25.2080078" y1="40.7954102" x2="27.8740234" y2="45.5317383"/>
<line class="" fill="none" stroke="#EAB22F" stroke-linecap="round" stroke-linejoin="round" stroke-miterlimit="10" x1="24.2363281" y1="45.4418945" x2="25.5986328" y2="47.3071289"/>
<line class="" fill="none" stroke="#EAB22F" stroke-linecap="round" stroke-linejoin="round" stroke-miterlimit="10" x1="60.6323242" y1="38.3652344" x2="58.6030273" y2="42.4282227"/>
<line class="" fill="none" stroke="#EAB22F" stroke-linecap="round" stroke-linejoin="round" stroke-miterlimit="10" x1="63.9370117" y1="39.3608398" x2="60.8725586" y2="43.8305664"/>
<line class="" fill="none" stroke="#EAB22F" stroke-linecap="round" stroke-linejoin="round" stroke-miterlimit="10" x1="64.690918" y1="43.644043" x2="63.3842773" y2="45.5493164"/>
<line class="" fill="none" stroke="#EAB22F" stroke-linecap="round" stroke-linejoin="round" stroke-miterlimit="10" x1="51.8862305" y1="31.6811523" x2="50.2163086" y2="38.9980469"/>
<line class="" fill="none" stroke="#EAB22F" stroke-linecap="round" stroke-linejoin="round" stroke-miterlimit="10" x1="58.6459961" y1="34.5224609" x2="55.9213867" y2="41.0874023"/>
<line class="" fill="none" stroke="#EAB22F" stroke-linecap="round" stroke-linejoin="round" stroke-miterlimit="10" x1="47.9702148" y1="33.824707" x2="47.253418" y2="38.8427734"/>
<line class="" fill="none" stroke="#EAB22F" stroke-linecap="round" stroke-linejoin="round" stroke-miterlimit="10" x1="54.7299805" y1="35.3515625" x2="53.1791992" y2="39.8916016"/>
<path class="" fill="none" stroke="#EAB22F" stroke-linecap="round" stroke-linejoin="round" stroke-miterlimit="10" d="
	M26.3232422,61.8598633c0,0,3.7988281-1.0117188,7.7753906,0.2304688c5.1416016,1.6054688,10.7148438,2.4765625,13.684082,2.1894531
	c4.9902344-0.4824219,10.5957031-1.6464844,14.8125-6.4609375"/>
<circle class="" fill="none" stroke="#EAB22F" stroke-linecap="round" stroke-linejoin="round" stroke-miterlimit="10" cx="47.939209" cy="49.152832" r="2.5856934"/>
<path fill="none" stroke="#EAB22F" stroke-linecap="round" stroke-linejoin="round" stroke-miterlimit="10" d="
	M43.8544922,43.9047852c-1.3632813,0.1054688-2.6269531,0.3164063-3.8066406,0.6005859
	c-0.9013672,0.9570313-1.4580078,2.2421875-1.4580078,3.6601563c0,2.9501953,2.3935547,5.3427734,5.3427734,5.3427734
	c1.5771484,0,2.9907227-0.6875,3.9672852-1.7734375c-1.4082031-0.0214844-2.5463867-1.1660156-2.5463867-2.5820313
	c0-1.4277344,1.1577148-2.5859375,2.5854492-2.5859375c0.4238281,0,0.8183594,0.1123047,1.1699219,0.2929688
	c-0.3046875-1.2109375-1.0234375-2.2558594-1.9941406-2.9794922C46.0385742,43.809082,44.9570313,43.8208008,43.8544922,43.9047852z
	"/>
<path fill="#EAB22F" d="M45.8139648,10.2875977c0,0.5737305-0.465332,1.0395508-1.0395508,1.0395508
	c-0.5751953,0-1.0410156-0.4658203-1.0410156-1.0395508c0-0.5751953,0.4658203-1.0410156,1.0410156-1.0410156
	C45.3486328,9.246582,45.8139648,9.7124023,45.8139648,10.2875977"/>

	<!-- (' path , line ,  circle , polygon ') -->

	<style>

		path , line ,  circle , polygon {
			animation 					: hide 2s ease-out;
			animation-fill-mode			: forwards;
			-webkit-animation 			: hide 2s ease-out;
    		-webkit-animation-fill-mode	: forwards;
			stroke-dashoffset			: 1000;
			stroke-dasharray			: 1000;
		}

		@keyframes 	hide {
			from{ stroke-dashoffset: 0; }
			to { stroke-dashoffset: 1000;}
		}
		
		@-webkit-keyframes hide {
			from{ stroke-dashoffset: 0; }
			to { stroke-dashoffset: 1000;}
		}

		<!-- +++++++++++++++++++++++++++++++++++++++++++++++ -->

		path.show , line.show ,  circle.show , polygon.show {
			display 					: block;
			animation 					: showe  1s ease-in;
			animation-fill-mode 		: forwards;
			-webkit-animation 			: showe 1s ease-in;
			-webkit-animation-fill-mode : forwards;
		}

		@-webkit-keyframes showe {
			from { stroke-dashoffset: 1000;}
			to 	 { stroke-dashoffset: 0;}
		}

		@keyframes showe {
			from { stroke-dashoffset: 1000;}
			to{ stroke-dashoffset: 0; }
		}
		

	</style>


</svg>
