<?xml version="1.0" encoding="utf-8"?>
<!-- Generator: Adobe Illustrator 19.0.0, SVG Export Plug-In . SVG Version: 6.00 Build 0)  -->
<svg version="1.1" id="Слой_1" xmlns="http://www.w3.org/2000/svg" xmlns:xlink="http://www.w3.org/1999/xlink" x="0px" y="0px"
	 viewBox="0 0 320 320" enable-background="new 0 0 320 320" xml:space="preserve">
<g id="XMLID_21652_">
	
		<path id="XMLID_21653_" fill="none" stroke="#F2AE32" stroke-width="2" stroke-linecap="round" stroke-linejoin="round" stroke-miterlimit="10" d="
		M156.7,163c0.7,0,1.5,0,2,0.5c0.4,0.3,0.6,0.8,0.7,1.3c0.2,0.6,0.5,2,1.6,2.2c0.6,0.1,1.3-0.2,1.6-0.4c0.7-0.5,1.6-0.2,2.4,0.1
		c2,0.6,4.3,0.8,6.3,0c4.3-1.6,5.1-7.1,3.1-10.8c-1.4-2.8-5-4.1-8-3.2c-0.8,0.2-1.6,0.6-2.5,0.7c-0.6,0.1-1.1,0-1.6-0.3
		c-0.5-0.3-1-0.4-1.6-0.3c-0.3,0.1-0.6,0.4-0.8,0.7c-0.4,0.7-0.4,1.5-0.7,2.2c-0.3,0.7-1,1.1-1.8,1.2c-0.2,0-0.9,0.1-0.9,0.1
		s-0.8,0.9-0.8,3.2S156.7,163,156.7,163z"/>
	<path id="XMLID_21654_" fill="none" stroke="#F2AE32" stroke-linecap="round" stroke-linejoin="round" stroke-miterlimit="10" d="
		M162.6,158c-0.5-0.4-0.8-1-0.9-1.7c-0.1-0.6-0.1-1.2,0.2-1.7c0.3-0.4,0.9-0.5,1.4-0.5c0.2,0,0.4,0,0.5,0.1c0.3,0.1,0.7,0.3,0.9,0.6
		c0.8,1,0.8,3.1-0.7,3.4C163.5,158.5,163,158.4,162.6,158z"/>
	<path id="XMLID_21655_" fill="none" stroke="#F2AE32" stroke-linecap="round" stroke-linejoin="round" stroke-miterlimit="10" d="
		M162.6,161.7c-0.5,0.4-0.8,1-0.9,1.7c-0.1,0.6-0.1,1.2,0.2,1.7c0.3,0.4,0.9,0.5,1.4,0.5c0.2,0,0.4,0,0.5-0.1
		c0.3-0.1,0.7-0.3,0.9-0.6c0.8-1,0.8-3.1-0.7-3.4C163.5,161.2,163,161.4,162.6,161.7z"/>
	<path id="XMLID_21656_" fill="none" stroke="#F2AE32" stroke-linecap="round" stroke-linejoin="round" stroke-miterlimit="10" d="
		M159.4,159.8c-0.3,0-0.6-0.3-0.7-0.5c-0.1-0.2,0-0.5,0.2-0.6c0.2-0.1,0.4-0.2,0.6-0.1c0.8,0.1,2.4,1.3,2.4,1.3s-1.5,1-2.4,1.2
		c-0.3,0.1-0.6-0.1-0.7-0.1c-0.2-0.1-0.2-0.4-0.1-0.6C158.8,160.1,159.2,159.9,159.4,159.8z"/>
	<path id="XMLID_21657_" fill="none" stroke="#F2AE32" stroke-linecap="round" stroke-linejoin="round" stroke-miterlimit="10" d="
		M171.3,150.3c0,0,3.4-0.8,6,0.2c2.6,1,4.8,3.8,4.8,3.8s-3.6,0.8-6.1-0.1S171.3,150.3,171.3,150.3z"/>
	<path id="XMLID_21658_" fill="none" stroke="#F2AE32" stroke-linecap="round" stroke-linejoin="round" stroke-miterlimit="10" d="
		M167.2,147.8c0,0,2.5-2.4,5.3-2.9c2.8-0.5,6,0.9,6,0.9s-2.7,2.5-5.3,3C170.6,149.3,167.2,147.8,167.2,147.8z"/>
	<path id="XMLID_21659_" fill="none" stroke="#F2AE32" stroke-linecap="round" stroke-linejoin="round" stroke-miterlimit="10" d="
		M159.8,149.4c0,0,1-3.4,3.2-5.2c2.1-1.8,5.6-2.2,5.6-2.2s-1.1,3.5-3.1,5.2C163.4,149,159.8,149.4,159.8,149.4z"/>
	<path id="XMLID_21660_" fill="none" stroke="#F2AE32" stroke-linecap="round" stroke-linejoin="round" stroke-miterlimit="10" d="
		M154.6,154.4c0,0-0.8-3.4,0.2-6.1c1-2.6,3.8-4.8,3.8-4.8s0.8,3.6-0.1,6.1S154.6,154.4,154.6,154.4z"/>
	<path id="XMLID_21661_" fill="none" stroke="#F2AE32" stroke-linecap="round" stroke-linejoin="round" stroke-miterlimit="10" d="
		M171.3,170.3c0,0,3.4,0.8,6-0.2c2.6-1,4.8-3.8,4.8-3.8s-3.6-0.8-6.1,0.1S171.3,170.3,171.3,170.3z"/>
	<path id="XMLID_21662_" fill="none" stroke="#F2AE32" stroke-linecap="round" stroke-linejoin="round" stroke-miterlimit="10" d="
		M167.2,172.8c0,0,2.5,2.4,5.3,2.9c2.8,0.5,6-0.9,6-0.9s-2.7-2.5-5.3-3C170.6,171.3,167.2,172.8,167.2,172.8z"/>
	<path id="XMLID_21663_" fill="none" stroke="#F2AE32" stroke-linecap="round" stroke-linejoin="round" stroke-miterlimit="10" d="
		M159.8,171.2c0,0,1,3.4,3.2,5.2c2.1,1.8,5.6,2.2,5.6,2.2s-1.1-3.5-3.1-5.2C163.4,171.6,159.8,171.2,159.8,171.2z"/>
	<path id="XMLID_21664_" fill="none" stroke="#F2AE32" stroke-linecap="round" stroke-linejoin="round" stroke-miterlimit="10" d="
		M154.6,166.2c0,0-0.8,3.4,0.2,6.1c1,2.6,3.8,4.8,3.8,4.8s0.8-3.6-0.1-6.1C157.5,168.4,154.6,166.2,154.6,166.2z"/>
	<g id="XMLID_21665_">
		<path id="XMLID_21666_" fill="none" stroke="#F2AE32" stroke-linecap="round" stroke-linejoin="round" stroke-miterlimit="10" d="
			M153,161.5c0,0-2.4,2.6-2.9,5.3c-0.5,2.8,0.9,6,0.9,6s2.5-2.7,3-5.3S153,161.5,153,161.5z"/>
		<path id="XMLID_21667_" fill="none" stroke="#F2AE32" stroke-linecap="round" stroke-linejoin="round" stroke-miterlimit="10" d="
			M153,161.5c0,0-0.3-2.5-2.5-4.6c0,0-1.5-1.3-1.9-2.4l-0.8,0.8c0,0-0.4,1.6,1.9,3c3,1.8,2.4,4.4,2.4,4.4L153,161.5z"/>
		<path id="XMLID_21668_" fill="none" stroke="#F2AE32" stroke-linecap="round" stroke-miterlimit="10" d="M152.3,163.8
			c0,0,0-0.9,0-1c0-0.4,0-1.5,0-1.5l0.3-0.5l0.3,1.1L152.3,163.8z"/>
	</g>
	<g id="XMLID_21669_">
		<path id="XMLID_21670_" fill="none" stroke="#F2AE32" stroke-linecap="round" stroke-linejoin="round" stroke-miterlimit="10" d="
			M153,158.7c0,0-2.4-2.6-2.9-5.3c-0.5-2.8,0.9-6,0.9-6s2.5,2.7,3,5.3S153,158.7,153,158.7z"/>
		<path id="XMLID_21671_" fill="none" stroke="#F2AE32" stroke-linecap="round" stroke-linejoin="round" stroke-miterlimit="10" d="
			M153,158.7c0,0-0.3,2.5-2.5,4.6c0,0-1.5,1.3-1.9,2.4l-0.8-0.8c0,0-0.4-1.6,1.9-3c3-1.8,2.4-4.4,2.4-4.4L153,158.7z"/>
		<path id="XMLID_21672_" fill="none" stroke="#F2AE32" stroke-linecap="round" stroke-miterlimit="10" d="M152.3,156.4
			c0,0,0,0.9,0,1c0,0.4,0,1.5,0,1.5l0.3,0.5l0.3-1.1L152.3,156.4z"/>
	</g>
	
		<path id="XMLID_21673_" fill="none" stroke="#F2AE32" stroke-width="2" stroke-linecap="round" stroke-linejoin="round" stroke-miterlimit="10" d="
		M85.5,134.3"/>
	
		<ellipse id="XMLID_21674_" fill="none" stroke="#F2AE32" stroke-linecap="round" stroke-linejoin="round" stroke-miterlimit="10" cx="165" cy="159.9" rx="21.7" ry="21.7"/>
	
		<path id="XMLID_21675_" fill="none" stroke="#F2AE32" stroke-width="2" stroke-linecap="round" stroke-linejoin="round" stroke-miterlimit="10" d="
		M165,188.3c15.5,0,28.1-12.7,28.1-28.3s-12.6-28-28.1-28c-14.2,0-25.9,9.9-27.9,24.4h-24.6v7.7h24.6
		C139.1,177.7,150.8,188.3,165,188.3z"/>
	
		<path id="XMLID_21676_" fill="none" stroke="#F2AE32" stroke-width="2" stroke-linecap="round" stroke-linejoin="round" stroke-miterlimit="10" d="
		M142.2,174.7"/>
	<g id="XMLID_21677_">
		
			<path id="XMLID_21678_" fill="none" stroke="#F2AE32" stroke-width="2" stroke-linecap="round" stroke-linejoin="round" stroke-miterlimit="10" d="
			M206.4,160.2c0,0,2.9-1.7,3.8-4.5"/>
		<g id="XMLID_21679_">
			
				<path id="XMLID_21680_" fill="none" stroke="#F2AE32" stroke-width="2" stroke-linecap="round" stroke-linejoin="round" stroke-miterlimit="10" d="
				M220,160.2c-2.6,3.9-9.8,4.5-9.8,4.5c-0.9-2.9-3.8-4.5-3.8-4.5"/>
			
				<path id="XMLID_21681_" fill="none" stroke="#F2AE32" stroke-width="2" stroke-linecap="round" stroke-linejoin="round" stroke-miterlimit="10" d="
				M210.2,155.6c0,0,7.3,0.7,9.8,4.5"/>
		</g>
	</g>
	
		<path id="XMLID_21682_" fill="none" stroke="#F2AE32" stroke-width="2" stroke-linecap="round" stroke-linejoin="round" stroke-miterlimit="10" d="
		M136.2,143.4c-0.6,0.7-1.7,0.8-2.4,0.2c-0.9-0.8-1-2.2-0.2-3.1c1-1.2,3.4-1,4.8,0.6c4.6,5.7-2.9,15.2-9.8,14.6
		c-3-0.3-4.8-3.5-4.1-6.5c0.5-2.3,2.7-3.7,5-3.2c1.7,0.4,2.8,2.1,2.4,3.8c-0.3,1.3-1.6,2.2-2.9,1.9c-1-0.2-1.7-1.2-1.4-2.3"/>
	
		<path id="XMLID_21683_" fill="none" stroke="#F2AE32" stroke-width="2" stroke-linecap="round" stroke-linejoin="round" stroke-miterlimit="10" d="
		M194.8,173.1c0.7-0.6,1.8-0.4,2.3,0.3c0.7,1,0.5,2.3-0.4,3.1c-1.3,0.9-3.6,0.2-4.5-1.7c-3.3-6.5,6.2-14.2,12.8-12.1
		c2.9,0.9,3.9,4.5,2.6,7.2c-1,2.1-3.5,3-5.6,2c-1.6-0.8-2.3-2.7-1.5-4.3c0.6-1.2,2-1.8,3.3-1.2c1,0.4,1.4,1.6,0.9,2.5"/>
	
		<path id="XMLID_21684_" fill="none" stroke="#F2AE32" stroke-width="2" stroke-linecap="round" stroke-linejoin="round" stroke-miterlimit="10" d="
		M194.8,147.4c0.7,0.6,1.8,0.4,2.3-0.3c0.7-1,0.5-2.3-0.4-3.1c-1.3-0.9-3.6-0.2-4.5,1.7c-3.3,6.5,6.2,14.2,12.8,12.1
		c2.9-0.9,3.9-4.5,2.6-7.2c-1-2.1-3.5-3-5.6-2c-1.6,0.8-2.3,2.7-1.5,4.3c0.6,1.2,2,1.8,3.3,1.2c1-0.4,1.4-1.6,0.9-2.5"/>
	
		<path id="XMLID_21685_" fill="none" stroke="#F2AE32" stroke-width="2" stroke-linecap="round" stroke-linejoin="round" stroke-miterlimit="10" d="
		M85.5,150.7"/>
	
		<polyline id="XMLID_21686_" fill="none" stroke="#F2AE32" stroke-width="2" stroke-linecap="round" stroke-linejoin="round" stroke-miterlimit="10" points="
		86.5,157.4 98.1,157.4 98.1,150.6 94.2,150.6 94.2,147.7 98.1,147.7 98.1,134.1 88.4,134.1 88.4,139 96.1,139 96.1,142.8 
		88.4,142.8 88.4,150.6 	"/>
	
		<polyline id="XMLID_21687_" fill="none" stroke="#F2AE32" stroke-width="2" stroke-linecap="round" stroke-linejoin="round" stroke-miterlimit="10" points="
		88.4,150.6 85.5,150.6 85.5,142.8 77.8,142.8 77.8,139 85.5,139 85.5,135.1 85.5,134.1 75.9,134.1 75.9,147.7 80.7,147.7 
		80.7,150.6 75.9,150.6 75.9,157.4 87.5,157.4 	"/>
	
		<path id="XMLID_21688_" fill="none" stroke="#F2AE32" stroke-width="2" stroke-linecap="round" stroke-linejoin="round" stroke-miterlimit="10" d="
		M140.8,134.6c0.3-0.1,0.6-0.2,0.9-0.4c1.3-1.2,1.5-3.2,0.3-4.5c-1.6-1.9-4.5-2-6.4-0.4c-2.6,2.3-2.9,6.3-0.5,8.9
		c0.1,0.1,0.2,0.3,0.4,0.4c4.2,4.3,11.3,3,12.3-5c0.5-4.1-0.4-10.1,3.8-15c1.6-1.9,4.1-2.9,6.6-2.4c4.3,0.9,4.9,5.4,2.4,7.5
		c-0.3,0.3-0.7,0.4-1.2,0.5c-3.5,0.4-4.3-2.6-2.7-3.9c0.6-0.5,1.6-0.4,2.1,0.2"/>
	
		<path id="XMLID_21689_" fill="none" stroke="#F2AE32" stroke-width="2" stroke-linecap="round" stroke-linejoin="round" stroke-miterlimit="10" d="
		M136.2,176.6c-0.6-0.7-1.7-0.8-2.4-0.2c-0.9,0.8-1,2.2-0.2,3.1c1,1.2,3.4,1,4.8-0.6c4.6-5.7-2.9-15.2-9.8-14.6
		c-3,0.3-4.8,3.5-4.1,6.5c0.5,2.3,2.7,3.7,5,3.2c1.7-0.4,2.8-2.1,2.4-3.8c-0.3-1.3-1.6-2.2-2.9-1.9c-1,0.2-1.7,1.2-1.4,2.3"/>
	
		<path id="XMLID_21690_" fill="none" stroke="#F2AE32" stroke-width="2" stroke-linecap="round" stroke-linejoin="round" stroke-miterlimit="10" d="
		M140.8,185.4c0.3,0.1,0.6,0.2,0.9,0.4c1.3,1.2,1.5,3.2,0.3,4.5c-1.6,1.9-4.5,2-6.4,0.4c-2.6-2.3-2.9-6.3-0.5-8.9
		c0.1-0.1,0.2-0.3,0.4-0.4c4.2-4.3,11.3-3,12.3,5c0.5,4.1-0.4,10.1,3.8,15c1.6,1.9,4.1,2.9,6.6,2.4c4.3-0.9,4.9-5.4,2.4-7.5
		c-0.3-0.3-0.7-0.4-1.2-0.5c-3.5-0.4-4.3,2.6-2.7,3.9c0.6,0.5,1.6,0.4,2.1-0.2"/>
	
		<rect id="XMLID_21691_" x="72" y="157.4" fill="none" stroke="#F2AE32" stroke-width="2" stroke-linecap="round" stroke-linejoin="round" stroke-miterlimit="10" width="40.6" height="5.8"/>
</g>
<g id="XMLID_1283_" opacity="0.25">
	<radialGradient id="XMLID_17_" cx="160" cy="160" r="160" gradientUnits="userSpaceOnUse">
		<stop  offset="0" style="stop-color:#F2AE32"/>
		<stop  offset="1" style="stop-color:#F2AE32;stop-opacity:0"/>
	</radialGradient>
	<circle id="XMLID_14_" fill="url(#XMLID_17_)" cx="160" cy="160" r="160"/>
</g>
</svg>
