<?xml version="1.0" encoding="utf-8"?>
<!-- Generator: Adobe Illustrator 19.0.0, SVG Export Plug-In . SVG Version: 6.00 Build 0)  -->
<svg version="1.1" id="Слой_1" xmlns="http://www.w3.org/2000/svg" xmlns:xlink="http://www.w3.org/1999/xlink" x="0px" y="0px"
	 viewBox="-166.5 1 256 256" enable-background="new -166.5 1 256 256" xml:space="preserve">
<g>
	
		<line fill="none" stroke="#EAB22F" stroke-linecap="round" stroke-linejoin="round" stroke-miterlimit="10" x1="-38.9" y1="204.4" x2="-38.9" y2="53.6"/>
	
		<line fill="none" stroke="#EAB22F" stroke-linecap="round" stroke-linejoin="round" stroke-miterlimit="10" x1="39.2" y1="128.3" x2="-116.2" y2="129.7"/>
	
		<line fill="none" stroke="#EAB22F" stroke-linecap="round" stroke-linejoin="round" stroke-miterlimit="10" x1="-80.4" y1="82.4" x2="3.4" y2="175.6"/>
	
		<line fill="none" stroke="#EAB22F" stroke-linecap="round" stroke-linejoin="round" stroke-miterlimit="10" x1="-53.2" y1="68.8" x2="-23.8" y2="189.2"/>
	
		<line fill="none" stroke="#EAB22F" stroke-linecap="round" stroke-linejoin="round" stroke-miterlimit="10" x1="-53.2" y1="189.2" x2="-23.8" y2="68.8"/>
	
		<line fill="none" stroke="#EAB22F" stroke-linecap="round" stroke-linejoin="round" stroke-miterlimit="10" x1="23.5" y1="142.9" x2="-100.5" y2="115.1"/>
	
		<line fill="none" stroke="#EAB22F" stroke-linecap="round" stroke-linejoin="round" stroke-miterlimit="10" x1="-100.5" y1="142.9" x2="23.5" y2="115.1"/>
	
		<line fill="none" stroke="#EAB22F" stroke-linecap="round" stroke-linejoin="round" stroke-miterlimit="10" x1="-115" y1="73.6" x2="38" y2="184.4"/>
	
		<line fill="none" stroke="#EAB22F" stroke-linecap="round" stroke-linejoin="round" stroke-miterlimit="10" x1="-115" y1="184.4" x2="38" y2="73.6"/>
	
		<line fill="none" stroke="#EAB22F" stroke-linecap="round" stroke-linejoin="round" stroke-miterlimit="10" x1="-76.7" y1="49.5" x2="-0.3" y2="208.5"/>
	
		<line fill="none" stroke="#EAB22F" stroke-linecap="round" stroke-linejoin="round" stroke-miterlimit="10" x1="-76.7" y1="208.5" x2="-0.3" y2="49.5"/>
	
		<line fill="none" stroke="#EAB22F" stroke-linecap="round" stroke-linejoin="round" stroke-miterlimit="10" x1="-118" y1="93.5" x2="41" y2="164.5"/>
	
		<line fill="none" stroke="#EAB22F" stroke-linecap="round" stroke-linejoin="round" stroke-miterlimit="10" x1="-118" y1="164.5" x2="41" y2="93.5"/>
	
		<line fill="none" stroke="#EAB22F" stroke-linecap="round" stroke-linejoin="round" stroke-miterlimit="10" x1="-80.4" y1="175.6" x2="3.4" y2="82.4"/>
</g>
<g>
	
		<polygon fill="#282C34" stroke="#EAB22F" stroke-width="2" stroke-linecap="round" stroke-linejoin="round" stroke-miterlimit="10" points="
		-38.4,90.8 -82.8,167 5.8,167 	"/>
	<path fill="#EAB22F" d="M-72.5,162.3c0,0.6-0.5,1-1,1c-0.6,0-1-0.5-1-1s0.5-1,1-1C-72.9,161.3-72.5,161.8-72.5,162.3"/>
	<path fill="#EAB22F" d="M-2.4,162.3c0,0.6-0.5,1-1,1s-1-0.5-1-1c0-0.6,0.5-1,1-1S-2.4,161.8-2.4,162.3"/>
	<path fill="none" stroke="#EAB22F" stroke-linecap="round" stroke-linejoin="round" stroke-miterlimit="10" d="M-59.4,127.3
		c0,0,15.9-14.6,37.8-7.4"/>
	<path fill="none" stroke="#EAB22F" stroke-linecap="round" stroke-linejoin="round" stroke-miterlimit="10" d="M-72.5,149.8
		c0,0,9.8,10.6,29.2,10.8c9.9,0.1,23.4-4.5,35.1-17.4"/>
	<path fill="none" stroke="#EAB22F" stroke-linecap="round" stroke-linejoin="round" stroke-miterlimit="10" d="M-52.5,115.4
		c0,0,9-9.9,24.8-6"/>
	<path fill="none" stroke="#EAB22F" stroke-linecap="round" stroke-linejoin="round" stroke-miterlimit="10" d="M-2.4,153
		c0,0-4.5,10.1-21.9,14.2"/>
	<path fill="none" stroke="#EAB22F" stroke-linecap="round" stroke-linejoin="round" stroke-miterlimit="10" d="M-20.5,142
		c0,0-4.2,6.6-13,8c-8.8,1.5-18-3.8-23.4-2c-0.6,0.2-1,0.3-1.4,0.3c-0.9-0.1-1.3-0.8-1.3-1.5c0-1.8,1.6-1.7,2.2-2
		c1-0.5,5.6-9.7,18-10.7C-33.3,133.7-27.8,135.4-20.5,142z"/>
	<path fill="none" stroke="#EAB22F" stroke-linecap="round" stroke-linejoin="round" stroke-miterlimit="10" d="M-39.4,134.2
		c-3.8,0.3-6.8,1.3-9.2,2.7c-0.1,0.5-0.1,1-0.1,1.6c0,5.2,4.2,9.5,9.5,9.5c5.2,0,9.5-4.2,9.5-9.5c0-1-0.2-2-0.5-3
		C-33.4,134.3-36.3,134-39.4,134.2z"/>
	<path fill="none" stroke="#EAB22F" stroke-linecap="round" stroke-linejoin="round" stroke-miterlimit="10" d="M-20.3,142.2
		c0,0,1.8,0.9,3.1,0.3"/>
	<path fill="none" stroke="#EAB22F" stroke-linecap="round" stroke-linejoin="round" stroke-miterlimit="10" d="M-61.6,145.3
		c0,0,2.8,0.5,4.2-0.5"/>
	<path fill="none" stroke="#EAB22F" stroke-width="2" stroke-linecap="round" stroke-linejoin="round" stroke-miterlimit="10" d="
		M-58.9,139c0,0,19.8-20.4,39.8-1.7"/>
	<path fill="none" stroke="#EAB22F" stroke-linecap="round" stroke-linejoin="round" stroke-miterlimit="10" d="M-57.6,145.1
		c0.9,0,1.7,0.8,1.7,1.7s-0.8,1.7-1.7,1.7"/>
	
		<line fill="none" stroke="#EAB22F" stroke-linecap="round" stroke-linejoin="round" stroke-miterlimit="10" x1="-39" y1="121.5" x2="-38.7" y2="129.3"/>
	
		<line fill="none" stroke="#EAB22F" stroke-linecap="round" stroke-linejoin="round" stroke-miterlimit="10" x1="-46.9" y1="122.9" x2="-44.6" y2="130.4"/>
	
		<line fill="none" stroke="#EAB22F" stroke-linecap="round" stroke-linejoin="round" stroke-miterlimit="10" x1="-53.2" y1="126.3" x2="-50" y2="132.6"/>
	
		<line fill="none" stroke="#EAB22F" stroke-linecap="round" stroke-linejoin="round" stroke-miterlimit="10" x1="-42.9" y1="124.7" x2="-41.8" y2="129.7"/>
	
		<line fill="none" stroke="#EAB22F" stroke-linecap="round" stroke-linejoin="round" stroke-miterlimit="10" x1="-49.3" y1="126.8" x2="-47.3" y2="131.5"/>
	
		<line fill="none" stroke="#EAB22F" stroke-linecap="round" stroke-linejoin="round" stroke-miterlimit="10" x1="-55" y1="130" x2="-52.9" y2="134"/>
	
		<line fill="none" stroke="#EAB22F" stroke-linecap="round" stroke-linejoin="round" stroke-miterlimit="10" x1="-58.1" y1="131.1" x2="-55.4" y2="135.8"/>
	
		<line fill="none" stroke="#EAB22F" stroke-linecap="round" stroke-linejoin="round" stroke-miterlimit="10" x1="-59" y1="135.7" x2="-57.7" y2="137.6"/>
	
		<line fill="none" stroke="#EAB22F" stroke-linecap="round" stroke-linejoin="round" stroke-miterlimit="10" x1="-22.6" y1="128.7" x2="-24.7" y2="132.7"/>
	
		<line fill="none" stroke="#EAB22F" stroke-linecap="round" stroke-linejoin="round" stroke-miterlimit="10" x1="-19.3" y1="129.6" x2="-22.4" y2="134.1"/>
	
		<line fill="none" stroke="#EAB22F" stroke-linecap="round" stroke-linejoin="round" stroke-miterlimit="10" x1="-18.6" y1="133.9" x2="-19.9" y2="135.8"/>
	
		<line fill="none" stroke="#EAB22F" stroke-linecap="round" stroke-linejoin="round" stroke-miterlimit="10" x1="-31.4" y1="122" x2="-33.1" y2="129.3"/>
	
		<line fill="none" stroke="#EAB22F" stroke-linecap="round" stroke-linejoin="round" stroke-miterlimit="10" x1="-24.6" y1="124.8" x2="-27.4" y2="131.4"/>
	
		<line fill="none" stroke="#EAB22F" stroke-linecap="round" stroke-linejoin="round" stroke-miterlimit="10" x1="-35.3" y1="124.1" x2="-36" y2="129.1"/>
	
		<line fill="none" stroke="#EAB22F" stroke-linecap="round" stroke-linejoin="round" stroke-miterlimit="10" x1="-28.5" y1="125.6" x2="-30.1" y2="130.2"/>
	<path fill="none" stroke="#EAB22F" stroke-linecap="round" stroke-linejoin="round" stroke-miterlimit="10" d="M-57,152.1
		c0,0,3.8-1,7.8,0.2c5.1,1.6,10.7,2.5,13.7,2.2c5-0.5,10.6-1.6,14.8-6.5"/>
	
		<circle fill="none" stroke="#EAB22F" stroke-linecap="round" stroke-linejoin="round" stroke-miterlimit="10" cx="-35.3" cy="139.4" r="2.6"/>
	<path fill="none" stroke="#EAB22F" stroke-linecap="round" stroke-linejoin="round" stroke-miterlimit="10" d="M-39.4,134.2
		c-1.4,0.1-2.6,0.3-3.8,0.6c-0.9,1-1.5,2.2-1.5,3.7c0,3,2.4,5.3,5.3,5.3c1.6,0,3-0.7,4-1.8c-1.4,0-2.5-1.2-2.5-2.6
		c0-1.4,1.2-2.6,2.6-2.6c0.4,0,0.8,0.1,1.2,0.3c-0.3-1.2-1-2.3-2-3C-37.2,134.1-38.3,134.1-39.4,134.2z"/>
	<path fill="#EAB22F" d="M-37.5,100.6c0,0.6-0.5,1-1,1c-0.6,0-1-0.5-1-1c0-0.6,0.5-1,1-1C-37.9,99.5-37.5,100-37.5,100.6"/>
</g>
</svg>
