<?xml version="1.0" encoding="utf-8"?>
<!-- Generator: Adobe Illustrator 19.0.0, SVG Export Plug-In . SVG Version: 6.00 Build 0)  -->
<svg version="1.1" id="Слой_1" xmlns="http://www.w3.org/2000/svg" xmlns:xlink="http://www.w3.org/1999/xlink" x="0px" y="0px"
	 viewBox="0 0 16 16" enable-background="new 0 0 16 16" xml:space="preserve">
<path id="menu" fill="#FFFFFF" d="M15.2,1l-5-1c0,0-0.1,0-0.1,0c0,0,0,0-0.1,0c0,0,0,0-0.1,0C9.9,0,9.8,0,9.7,0.1c0,0-0.1,0-0.1,0
	c0,0,0,0,0,0L5.9,2L1.2,1C0.9,1,0.6,1,0.4,1.2C0.1,1.4,0,1.7,0,2v12c0,0.5,0.3,0.9,0.8,1l5,1c0.1,0,0.1,0,0.2,0c0.2,0,0.3,0,0.4-0.1
	c0,0,0,0,0,0l3.7-1.8l4.7,0.9c0.3,0.1,0.6,0,0.8-0.2c0.2-0.2,0.4-0.5,0.4-0.8V2C16,1.5,15.7,1.1,15.2,1z M7,3.6l2-1v9.8l-2,1V3.6z
	 M2,3.2l3,0.6v10l-3-0.6V3.2z M14,12.8l-3-0.6v-10l3,0.6V12.8z"/>
</svg>
