<?xml version="1.0" encoding="utf-8"?>
<!-- Generator: Adobe Illustrator 19.0.0, SVG Export Plug-In . SVG Version: 6.00 Build 0)  -->
<svg version="1.1" id="Слой_1" xmlns="http://www.w3.org/2000/svg" xmlns:xlink="http://www.w3.org/1999/xlink" x="0px" y="0px"
	 viewBox="-110 120.9 26 18" enable-background="new -110 120.9 26 18" xml:space="preserve">
<path fill="#F2AE32" d="M-85,138.9h-24c-0.6,0-1-0.4-1-1s0.4-1,1-1h24c0.6,0,1,0.4,1,1S-84.4,138.9-85,138.9z"/>
<path fill="#F2AE32" d="M-85,130.4h-24c-0.6,0-1-0.4-1-1s0.4-1,1-1h24c0.6,0,1,0.4,1,1S-84.4,130.4-85,130.4z"/>
<path fill="#F2AE32" d="M-85,122.9h-24c-0.6,0-1-0.4-1-1s0.4-1,1-1h24c0.6,0,1,0.4,1,1S-84.4,122.9-85,122.9z"/>
</svg>
