<?xml version="1.0" encoding="utf-8"?>
<!-- Generator: Adobe Illustrator 19.0.0, SVG Export Plug-In . SVG Version: 6.00 Build 0)  -->
<svg version="1.1" id="Слой_1" xmlns="http://www.w3.org/2000/svg" xmlns:xlink="http://www.w3.org/1999/xlink" x="0px" y="0px"
	 viewBox="0 0 64 64" enable-background="new 0 0 64 64" xml:space="preserve">
<g id="XMLID_49_">
	<g id="XMLID_50_">
		
			<line id="XMLID_3939_" fill="none" stroke="#F0AC31" stroke-linecap="round" stroke-linejoin="round" stroke-miterlimit="10" x1="31.9" y1="53.6" x2="31.9" y2="61.9"/>
		
			<line id="XMLID_3938_" fill="none" stroke="#F0AC31" stroke-linecap="round" stroke-linejoin="round" stroke-miterlimit="10" x1="39.3" y1="52.4" x2="42.1" y2="60.2"/>
		
			<line id="XMLID_3937_" fill="none" stroke="#F0AC31" stroke-linecap="round" stroke-linejoin="round" stroke-miterlimit="10" x1="45.8" y1="48.5" x2="51.1" y2="54.9"/>
		
			<line id="XMLID_3936_" fill="none" stroke="#F0AC31" stroke-linecap="round" stroke-linejoin="round" stroke-miterlimit="10" x1="50.7" y1="42.9" x2="58" y2="46.9"/>
		
			<line id="XMLID_3935_" fill="none" stroke="#F0AC31" stroke-linecap="round" stroke-linejoin="round" stroke-miterlimit="10" x1="24.5" y1="52.4" x2="21.7" y2="60.2"/>
		
			<line id="XMLID_3934_" fill="none" stroke="#F0AC31" stroke-linecap="round" stroke-linejoin="round" stroke-miterlimit="10" x1="18" y1="48.5" x2="12.7" y2="54.9"/>
		
			<line id="XMLID_3933_" fill="none" stroke="#F0AC31" stroke-linecap="round" stroke-linejoin="round" stroke-miterlimit="10" x1="13.1" y1="42.9" x2="5.8" y2="46.9"/>
		
			<line id="XMLID_3932_" fill="none" stroke="#F0AC31" stroke-linecap="round" stroke-linejoin="round" stroke-miterlimit="10" x1="31.9" y1="11.8" x2="31.9" y2="3.5"/>
		
			<line id="XMLID_3931_" fill="none" stroke="#F0AC31" stroke-linecap="round" stroke-linejoin="round" stroke-miterlimit="10" x1="24.9" y1="12.8" x2="22" y2="5"/>
		
			<line id="XMLID_3930_" fill="none" stroke="#F0AC31" stroke-linecap="round" stroke-linejoin="round" stroke-miterlimit="10" x1="18.4" y1="16.1" x2="13.1" y2="9.8"/>
		
			<line id="XMLID_3929_" fill="none" stroke="#F0AC31" stroke-linecap="round" stroke-linejoin="round" stroke-miterlimit="10" x1="12.9" y1="21.2" x2="5.6" y2="17.2"/>
		
			<line id="XMLID_3928_" fill="none" stroke="#F0AC31" stroke-linecap="round" stroke-linejoin="round" stroke-miterlimit="10" x1="38.9" y1="12.8" x2="41.8" y2="5"/>
		
			<line id="XMLID_3927_" fill="none" stroke="#F0AC31" stroke-linecap="round" stroke-linejoin="round" stroke-miterlimit="10" x1="45.4" y1="16.1" x2="50.7" y2="9.8"/>
		
			<line id="XMLID_3926_" fill="none" stroke="#F0AC31" stroke-linecap="round" stroke-linejoin="round" stroke-miterlimit="10" x1="50.9" y1="21.2" x2="58.2" y2="17.2"/>
		
			<path id="XMLID_51_" fill="none" stroke="#F0AC31" stroke-width="2" stroke-linecap="round" stroke-linejoin="round" stroke-miterlimit="10" d="
			M8.3,33.4c0,0,7.1-16.7,23.4-16.7s23.4,16.7,23.4,16.7"/>
		
			<path id="XMLID_3924_" fill="none" stroke="#F0AC31" stroke-width="2" stroke-linecap="round" stroke-linejoin="round" stroke-miterlimit="10" d="
			M39.1,30c-0.6,1.4-2,2.4-3.6,2.4c-2.2,0-3.9-1.7-3.9-3.9c0-1.6,1-3,2.4-3.6l0,0c-0.7-0.2-1.3-0.3-2.1-0.3c-4.2,0-7.5,3.3-7.5,7.4
			s3.4,7.4,7.5,7.4s7.5-3.3,7.5-7.4C39.4,31.3,39.3,30.6,39.1,30L39.1,30z"/>
		<path id="XMLID_52_" fill="none" stroke="#F0AC31" stroke-linecap="round" stroke-linejoin="round" stroke-miterlimit="10" d="
			M43.5,27.5c0.6,1.4,0.9,2.9,0.9,4.5c0,6.8-5.6,12.3-12.5,12.3S19.4,38.8,19.4,32c0-1.6,0-2.8,0.7-4.4"/>
		
			<path id="XMLID_53_" fill="none" stroke="#F0AC31" stroke-width="2" stroke-linecap="round" stroke-linejoin="round" stroke-miterlimit="10" d="
			M51.5,36.3c0,0-5.9,12.2-19.6,12.2S12.3,36.3,12.3,36.3s5.9-12.2,19.6-12.2S51.5,36.3,51.5,36.3z"/>
	</g>
	<rect id="XMLID_3920_" fill="none" width="64" height="64"/>
	<rect id="XMLID_3919_" fill="none" width="64" height="64"/>
</g>
</svg>
