<?xml version="1.0" encoding="utf-8"?>
<!-- Generator: Adobe Illustrator 19.0.0, SVG Export Plug-In . SVG Version: 6.00 Build 0)  -->
<svg version="1.1" id="Слой_1" xmlns="http://www.w3.org/2000/svg" xmlns:xlink="http://www.w3.org/1999/xlink" x="0px" y="0px"
	 viewBox="0 0 64 64" enable-background="new 0 0 64 64" xml:space="preserve">
<g id="XMLID_54_">
	
		<path id="XMLID_16_" fill="none" stroke="#F0AC31" stroke-width="2" stroke-linecap="round" stroke-linejoin="round" stroke-miterlimit="10" d="
		M24.1,59c3.5,0,6.4-2.9,6.4-6.4v-5.3H52"/>
	
		<path id="XMLID_3923_" fill="none" stroke="#F0AC31" stroke-width="2" stroke-linecap="round" stroke-linejoin="round" stroke-miterlimit="10" d="
		M24,59c-3.5,0-6.4-2.9-6.4-6.4V20H4.9v-5.3c0-3.5,2.9-6.4,6.4-6.4h34.3c3.5,0,6.4,2.9,6.4,6.4v32.6h0h7.1v5.3
		c0,3.5-2.9,6.4-6.4,6.4H24L24,59z"/>
	
		<line id="XMLID_55_" fill="none" stroke="#F0AC31" stroke-width="2" stroke-linecap="square" stroke-linejoin="bevel" stroke-miterlimit="10" x1="24.1" y1="29.4" x2="37.6" y2="29.4"/>
	
		<line id="XMLID_56_" fill="none" stroke="#F0AC31" stroke-width="2" stroke-linecap="square" stroke-linejoin="bevel" stroke-miterlimit="10" x1="24.1" y1="38.6" x2="31.1" y2="38.6"/>
	<rect id="XMLID_15_" fill="none" width="64" height="64"/>
	<rect id="XMLID_1_" y="0" fill="none" width="64" height="64"/>
</g>
</svg>
