<?xml version="1.0" encoding="utf-8"?>
<!-- Generator: Adobe Illustrator 19.0.0, SVG Export Plug-In . SVG Version: 6.00 Build 0)  -->
<svg version="1.1" id="Слой_1" xmlns="http://www.w3.org/2000/svg" xmlns:xlink="http://www.w3.org/1999/xlink" x="0px" y="0px"
	 viewBox="0 0 64 64" enable-background="new 0 0 64 64" xml:space="preserve">
<g id="XMLID_57_">
	<path id="XMLID_3938_" fill="none" stroke="#F0AC31" stroke-width="2" stroke-miterlimit="10" d="M36.9,56.8h-9.2v-9.5
		c0-2.5,2.1-4.6,4.6-4.6h0c2.5,0,4.6,2.1,4.6,4.6V56.8z"/>
	
		<polygon id="XMLID_58_" fill="none" stroke="#F0AC31" stroke-width="2" stroke-linecap="round" stroke-linejoin="round" stroke-miterlimit="10" points="
		49,11.4 49,1.8 44,1.8 44,6.5 35.5,6.5 35.5,1.8 28.9,1.8 28.9,6.5 20.5,6.5 20.5,1.8 15,1.8 15,11.4 17.4,11.4 17.4,24.8 
		15.7,24.8 15.7,34 18.1,34 15.7,62.2 48.3,62.2 45.6,34 48.3,34 48.3,24.8 46.6,24.8 46.6,11.4 	"/>
	<circle id="XMLID_59_" fill="none" stroke="#F0AC31" stroke-width="2" stroke-miterlimit="10" cx="32" cy="18.3" r="3"/>
	<line id="XMLID_60_" fill="none" stroke="#F0AC31" stroke-miterlimit="10" x1="48.3" y1="27.6" x2="43.8" y2="27.6"/>
	<line id="XMLID_61_" fill="none" stroke="#F0AC31" stroke-miterlimit="10" x1="45.9" y1="19.8" x2="41.4" y2="19.8"/>
	<line id="XMLID_62_" fill="none" stroke="#F0AC31" stroke-miterlimit="10" x1="45.9" y1="14.9" x2="41.4" y2="14.9"/>
	<line id="XMLID_63_" fill="none" stroke="#F0AC31" stroke-miterlimit="10" x1="21.5" y1="17.4" x2="17" y2="17.4"/>
	<line id="XMLID_64_" fill="none" stroke="#F0AC31" stroke-miterlimit="10" x1="46" y1="37.7" x2="41.3" y2="37.7"/>
	<line id="XMLID_65_" fill="none" stroke="#F0AC31" stroke-miterlimit="10" x1="46.5" y1="43.5" x2="43.4" y2="43.5"/>
	<line id="XMLID_66_" fill="none" stroke="#F0AC31" stroke-miterlimit="10" x1="47" y1="48.8" x2="42.7" y2="48.8"/>
	<line id="XMLID_67_" fill="none" stroke="#F0AC31" stroke-miterlimit="10" x1="47" y1="53.8" x2="43.8" y2="53.8"/>
	<line id="XMLID_68_" fill="none" stroke="#F0AC31" stroke-miterlimit="10" x1="47" y1="58.2" x2="42.2" y2="58.2"/>
	<line id="XMLID_69_" fill="none" stroke="#F0AC31" stroke-miterlimit="10" x1="18.1" y1="40.5" x2="22.8" y2="40.5"/>
	<line id="XMLID_70_" fill="none" stroke="#F0AC31" stroke-miterlimit="10" x1="18" y1="46.2" x2="21.3" y2="46.2"/>
	<line id="XMLID_71_" fill="none" stroke="#F0AC31" stroke-miterlimit="10" x1="17" y1="51.6" x2="21.3" y2="51.6"/>
	<line id="XMLID_72_" fill="none" stroke="#F0AC31" stroke-miterlimit="10" x1="16.4" y1="56.6" x2="19.6" y2="56.6"/>
	<line id="XMLID_73_" fill="none" stroke="#F0AC31" stroke-width="2" stroke-miterlimit="10" x1="45.6" y1="34" x2="18.1" y2="34"/>
	
		<line id="XMLID_74_" fill="none" stroke="#F0AC31" stroke-width="2" stroke-miterlimit="10" x1="46.6" y1="24.8" x2="17.4" y2="24.8"/>
	
		<line id="XMLID_75_" fill="none" stroke="#F0AC31" stroke-width="2" stroke-linecap="round" stroke-linejoin="round" stroke-miterlimit="10" x1="46.6" y1="11.4" x2="17.4" y2="11.4"/>
	<line id="XMLID_76_" fill="none" stroke="#F0AC31" stroke-miterlimit="10" x1="15.7" y1="30.9" x2="21.5" y2="30.9"/>
</g>
</svg>
