<?xml version="1.0" encoding="utf-8"?>
<!-- Generator: Adobe Illustrator 19.0.0, SVG Export Plug-In . SVG Version: 6.00 Build 0)  -->
<svg version="1.1" id="Слой_1" xmlns="http://www.w3.org/2000/svg" xmlns:xlink="http://www.w3.org/1999/xlink" x="0px" y="0px"
	 viewBox="-79 81 64 64" enable-background="new -79 81 64 64" xml:space="preserve">
<g id="XMLID_1_">
	<rect id="XMLID_3942_" x="-79" y="81" fill="none" width="64" height="64"/>
	<g id="XMLID_20_">
		<path id="XMLID_21_" fill="none" stroke="#F0AD31" stroke-width="2" stroke-miterlimit="10" d="M-48.4,86.2c0.7,0.8,2.1,0.8,2.8,0
			c0.7-0.8,0.5-2.2-0.3-2.8c-0.4-0.3-0.9-0.4-1.4-0.3c-0.5,0.1-0.9,0.4-1.2,0.8C-49,84.5-48.9,85.5-48.4,86.2z"/>
		<ellipse id="XMLID_22_" fill="#F0AD31" cx="-52.2" cy="117.9" rx="1.5" ry="1.6"/>
		<path id="XMLID_23_" fill="none" stroke="#F0AD31" stroke-miterlimit="10" d="M-48.8,124.7c0.5,0.4,1.2,0.7,1.8,0.7
			s1.3-0.2,1.8-0.6"/>
		<path id="XMLID_24_" fill="none" stroke="#F0AD31" stroke-miterlimit="10" d="M-41.3,121.4c1.4,1.4,4.3,6.7,0.3,10.2
			c-1.7-0.8-4.3-1.9-6-2.6c-1.7,0.8-4.3,1.9-6,2.6c-4-3.5-1.1-8.8,0.3-10.2"/>
		<path id="XMLID_25_" fill="none" stroke="#F0AD31" stroke-miterlimit="10" d="M-39.5,124.3c1.4-1.6,3.6-4,5-5.6
			c0.3-3.1-2.9-12.5-12.4-11.1H-47c-9.5-1.5-12.7,7.9-12.4,11.1c1.4,1.6,3.6,4,5,5.6"/>
		<path id="XMLID_26_" fill="none" stroke="#F0AD31" stroke-miterlimit="10" d="M-42.5,130.9c0,1.1,0.2,2.4-0.6,3.2
			c-0.8,0.9-2.5-0.6-3.9-0.6c-1.5,0-3.1,1.4-3.9,0.6c-0.8-0.9-0.6-2.1-0.6-3.2"/>
		<line id="XMLID_27_" fill="none" stroke="#F0AD31" stroke-miterlimit="10" x1="-47" y1="128.9" x2="-47" y2="125.4"/>
		<polygon id="XMLID_3923_" fill="#F0AD31" points="-49.1,119.3 -53.9,114.3 -52.5,114.3 -49.1,117.8 		"/>
		<ellipse id="XMLID_28_" fill="#F0AD31" cx="-41.8" cy="117.9" rx="1.5" ry="1.6"/>
		<polygon id="XMLID_3921_" fill="#F0AD31" points="-44.9,119.3 -40.1,114.3 -41.5,114.3 -44.9,117.8 		"/>
		<path id="XMLID_29_" fill="#F0AD31" d="M-35.4,102.5v-3.9h-0.3C-34.6,97-34,95.5-34,94c0-3.4-2.5-5-4.8-5c-0.2,0-0.4,0-0.5,0
			c-1-0.9-2.3-1.4-3.6-1.4c-1.5,0-3,0.8-4,1.9c-1-1.1-2.6-1.9-4-1.9c-1.4,0-2.7,0.5-3.6,1.4c-0.2,0-0.3,0-0.5,0
			c-2.3,0-4.8,1.6-4.8,5c0,1.5,0.6,3,1.7,4.6h-0.3v3.9c-8.8,3.7-8.8,16.8-8.8,17.4l0,1.3l2.3-0.6c-0.1,1.7-0.1,4.6,0.9,7.7
			c1.5,4.8,4.3,7.7,4.5,7.8l1.1,1l0.8-1.8c1.7,2.7,5.3,7.7,10.6,9.6l0.4,0.1l0.4-0.1c5.2-2,8.9-6.9,10.6-9.6l0.8,1.8l1.1-1
			c0.1-0.1,3-3,4.5-7.8c1-3.1,1-6,0.9-7.7l2.3,0.6l0-1.3C-26.7,119.3-26.7,106.2-35.4,102.5z M-36,94c0,1.8-1.4,3.7-2.6,4.9
			l-0.2,0.2h-2.9c1.4-1.6,2.8-3.7,2.8-5.9c0-0.8-0.1-1.5-0.4-2.1c0.1,0,0.2,0,0.5,0C-38.3,91-36,91.1-36,94z M-39.7,100.1
			L-39.7,100.1l2.2,0l0,2.9h-19.1v-2.9h0.4v0H-39.7z M-47.9,91.7h1.9c0.4-1,1.7-2.1,3.1-2.1c0.7,0,1.6,0.3,2.3,0.9
			c0.5,0.7,0.8,1.5,0.8,2.6c0,2.3-1.7,4.5-3.1,5.9H-51c-1.5-1.5-3.1-3.7-3.1-5.9c0-1.1,0.3-1.9,0.8-2.6c0.7-0.6,1.6-0.9,2.3-0.9
			C-49.7,89.7-48.3,90.7-47.9,91.7z M-55.2,91c0.3,0,0.3,0,0.5,0c-0.2,0.6-0.4,1.3-0.4,2.1c0,2.3,1.4,4.4,2.8,5.9h-2.9l-0.2-0.2
			c-1.2-1.2-2.6-3-2.6-4.9C-58,91.1-55.7,91-55.2,91z M-31.4,117.7l0.3,1.6c0,0,0.7,3.9-0.7,8.3c-0.8,2.6-2.1,4.6-3,5.8l-1.2-2.9
			l-1,2c0,0.1-3.9,7.8-10.2,10.4c-6.3-2.6-10.1-10.3-10.2-10.4l-1-2l-1.2,2.9c-0.9-1.2-2.2-3.2-3-5.8c-1.3-4.3-0.7-8.2-0.7-8.3
			l0.3-1.6l-2.6,0.8c0.2-3.4,1.5-12,7.9-14.3l0.7-0.1h19.5l0.5,0.1c6.4,2.3,7.7,11,7.9,14.3L-31.4,117.7z"/>
	</g>
</g>
</svg>
