<?xml version="1.0" encoding="utf-8"?>
<!-- Generator: Adobe Illustrator 19.0.0, SVG Export Plug-In . SVG Version: 6.00 Build 0)  -->
<svg version="1.1" id="Слой_1" xmlns="http://www.w3.org/2000/svg" xmlns:xlink="http://www.w3.org/1999/xlink" x="0px" y="0px"
	 viewBox="0 0 64 64" enable-background="new 0 0 64 64" xml:space="preserve">
<g id="XMLID_36_">
	<g id="XMLID_37_">
		
			<line id="XMLID_38_" fill="none" stroke="#F0AC31" stroke-width="2" stroke-linecap="round" stroke-linejoin="round" stroke-miterlimit="10" x1="22.4" y1="59.4" x2="22.4" y2="53.2"/>
		
			<line id="XMLID_39_" fill="none" stroke="#F0AC31" stroke-width="2" stroke-linecap="round" stroke-linejoin="round" stroke-miterlimit="10" x1="37.5" y1="53.6" x2="37.5" y2="59.3"/>
		<path id="XMLID_40_" fill="none" stroke="#F0AC31" stroke-linecap="round" stroke-linejoin="round" stroke-miterlimit="10" d="
			M29.3,43.3c5-5,10.3-1.3,10.3-1.3"/>
		
			<line id="XMLID_3940_" fill="none" stroke="#F0AC31" stroke-linecap="round" stroke-linejoin="round" stroke-miterlimit="10" x1="9.8" y1="42.3" x2="0.6" y2="44.7"/>
		
			<line id="XMLID_3939_" fill="none" stroke="#F0AC31" stroke-linecap="round" stroke-linejoin="round" stroke-miterlimit="10" x1="15" y1="47.1" x2="6.8" y2="51.8"/>
		
			<line id="XMLID_3938_" fill="none" stroke="#F0AC31" stroke-linecap="round" stroke-linejoin="round" stroke-miterlimit="10" x1="17.2" y1="55" x2="10.5" y2="61.7"/>
		
			<line id="XMLID_3937_" fill="none" stroke="#F0AC31" stroke-linecap="round" stroke-linejoin="round" stroke-miterlimit="10" x1="9.8" y1="27" x2="0.6" y2="24.6"/>
		
			<line id="XMLID_3936_" fill="none" stroke="#F0AC31" stroke-linecap="round" stroke-linejoin="round" stroke-miterlimit="10" x1="15" y1="22.2" x2="6.8" y2="17.5"/>
		
			<line id="XMLID_3935_" fill="none" stroke="#F0AC31" stroke-linecap="round" stroke-linejoin="round" stroke-miterlimit="10" x1="17.2" y1="14.3" x2="10.5" y2="7.6"/>
		
			<line id="XMLID_41_" fill="none" stroke="#F0AC31" stroke-linecap="round" stroke-linejoin="round" stroke-miterlimit="10" x1="50.3" y1="34.6" x2="59.8" y2="34.6"/>
		
			<line id="XMLID_3933_" fill="none" stroke="#F0AC31" stroke-linecap="round" stroke-linejoin="round" stroke-miterlimit="10" x1="53.5" y1="42.3" x2="62.6" y2="44.7"/>
		
			<line id="XMLID_3932_" fill="none" stroke="#F0AC31" stroke-linecap="round" stroke-linejoin="round" stroke-miterlimit="10" x1="48.2" y1="47.1" x2="56.4" y2="51.8"/>
		
			<line id="XMLID_3931_" fill="none" stroke="#F0AC31" stroke-linecap="round" stroke-linejoin="round" stroke-miterlimit="10" x1="46.1" y1="55" x2="52.8" y2="61.7"/>
		<path id="XMLID_42_" fill="none" stroke="#F0AC31" stroke-linecap="round" stroke-linejoin="round" stroke-miterlimit="10" d="
			M50.3,34.6"/>
		
			<line id="XMLID_3929_" fill="none" stroke="#F0AC31" stroke-linecap="round" stroke-linejoin="round" stroke-miterlimit="10" x1="53.5" y1="27" x2="62.6" y2="24.6"/>
		
			<line id="XMLID_3928_" fill="none" stroke="#F0AC31" stroke-linecap="round" stroke-linejoin="round" stroke-miterlimit="10" x1="48.2" y1="22.2" x2="56.4" y2="17.5"/>
		
			<line id="XMLID_3927_" fill="none" stroke="#F0AC31" stroke-linecap="round" stroke-linejoin="round" stroke-miterlimit="10" x1="46.1" y1="14.3" x2="52.8" y2="7.6"/>
		
			<line id="XMLID_43_" fill="none" stroke="#F0AC31" stroke-linecap="round" stroke-linejoin="round" stroke-miterlimit="10" x1="12.9" y1="34.6" x2="3.5" y2="34.6"/>
		
			<path id="XMLID_44_" fill="none" stroke="#F0AC31" stroke-width="2" stroke-linecap="round" stroke-linejoin="round" stroke-miterlimit="10" d="
			M25.5,54.4c-3.2,0-5.3-3.9-5.8-5.9c-0.4-1.9-0.3-5.3-0.2-7.3l0.5-21c0-1.5,0.9-2.7,2.1-2.7s2.1,1.2,2.1,2.7v-3.5
			c0-1.9,1.1-3.4,2.6-3.4c1.4,0,2.6,1.5,2.6,3.4v-1.9c0-1.9,1.2-3.5,2.7-3.5c1.5,0,2.7,1.6,2.7,3.5l0,1.7c0-1.7,1.1-3,2.3-3
			c1.3,0,2.3,1.4,2.3,3c0,0,0.3,22.8,0.3,25.4c1.5-1.1,3.1-2.2,4.6-3.3c1-0.7,3.7-2.9,5-1.4s0.4,3.3-0.3,4.1
			c-3.8,4.7-9.7,13-14.9,13"/>
		<path id="XMLID_45_" fill="none" stroke="#F0AC31" stroke-linecap="round" stroke-linejoin="round" stroke-miterlimit="10" d="
			M22,34.7c3.2-3,8.7-4.4,13-3.7"/>
		
			<line id="XMLID_46_" fill="none" stroke="#F0AC31" stroke-linecap="round" stroke-linejoin="round" stroke-miterlimit="10" x1="34.7" y1="16.6" x2="34.7" y2="31"/>
		
			<line id="XMLID_47_" fill="none" stroke="#F0AC31" stroke-linecap="round" stroke-linejoin="round" stroke-miterlimit="10" x1="29.3" y1="31.2" x2="29.3" y2="16.7"/>
		
			<line id="XMLID_48_" fill="none" stroke="#F0AC31" stroke-linecap="round" stroke-linejoin="round" stroke-miterlimit="10" x1="24.2" y1="33.1" x2="24.2" y2="20.2"/>
	</g>
	<rect id="XMLID_3919_" fill="none" width="64" height="64"/>
</g>
</svg>
