<?xml version="1.0" encoding="utf-8"?>
<!-- Generator: Adobe Illustrator 19.0.0, SVG Export Plug-In . SVG Version: 6.00 Build 0)  -->
<svg version="1.1" id="Слой_1" xmlns="http://www.w3.org/2000/svg" xmlns:xlink="http://www.w3.org/1999/xlink" x="0px" y="0px"
	 viewBox="0 0 73.4 87" style="enable-background:new 0 0 73.4 87;" xml:space="preserve">
<style type="text/css">
	.st0{fill:none;stroke:#F2AE31;stroke-linecap:round;stroke-linejoin:round;stroke-miterlimit:10;}
	.st1{fill:#282C35;stroke:#F2AE31;stroke-linecap:round;stroke-linejoin:round;stroke-miterlimit:10;}
</style>
<g id="XMLID_9109_">
	<path id="XMLID_10182_" class="st0" d="M24.8,41c0,0-3,1.8-3.5,5.9"/>
	<path id="XMLID_10181_" class="st0" d="M32.3,45c0,0-3,1.8-3.5,5.9"/>
	<path id="XMLID_10179_" class="st0" d="M18.9,45.7c0,0-3,1.8-3.5,5.9"/>
	<path id="XMLID_10178_" class="st0" d="M24.8,48.8c0,0-3,1.8-3.5,5.9"/>
	<path id="XMLID_10177_" class="st0" d="M34,53.7c0,0-3,1.8-3.5,5.9"/>
	<path id="XMLID_10176_" class="st0" d="M13.6,50.8c0,0-3,1.8-3.5,5.9"/>
	<path id="XMLID_10173_" class="st0" d="M20.7,54.4c0,0-3,1.8-3.5,5.9"/>
	<path id="XMLID_10172_" class="st0" d="M27.8,58.3c0,0-3,1.8-3.5,5.9"/>
	<path id="XMLID_10167_" class="st0" d="M35,61.9c0,0-3,1.8-3.5,5.9"/>
	<path id="XMLID_10166_" class="st0" d="M15.3,59.5c0,0-3,1.8-3.5,5.9"/>
	<path id="XMLID_10165_" class="st0" d="M23,63.4c0,0-3,1.8-3.5,5.9"/>
	<path id="XMLID_10162_" class="st0" d="M30.1,67.2c0,0-3,1.8-3.5,5.9"/>
	<path id="XMLID_10161_" class="st0" d="M9.9,64.7c0,0-3,1.8-3.5,5.9"/>
	<path id="XMLID_10160_" class="st0" d="M17.1,68.7c0,0-3,1.8-3.5,5.9"/>
	<path id="XMLID_10159_" class="st0" d="M24.8,72.7c0,0-3,1.8-3.5,5.9"/>
	<path id="XMLID_10158_" class="st0" d="M33.2,77.3c0,0-3,1.8-3.5,5.9"/>
	<g id="XMLID_10150_">
		<line id="XMLID_10157_" class="st0" x1="36.2" y1="78.3" x2="4" y2="61.3"/>
		<line id="XMLID_10156_" class="st0" x1="36.2" y1="47" x2="20.3" y2="38.6"/>
		<line id="XMLID_10155_" class="st0" x1="36.2" y1="70.4" x2="8.1" y2="55.6"/>
		<line id="XMLID_10154_" class="st0" x1="36.2" y1="62.6" x2="12.1" y2="50"/>
		<line id="XMLID_10153_" class="st0" x1="36.2" y1="54.8" x2="16.1" y2="44.2"/>
	</g>
	<polygon id="XMLID_10149_" class="st0" points="20.6,38.6 0,67.7 36.9,87 36.9,47 	"/>
	<g id="XMLID_9926_">
		<path id="XMLID_10148_" class="st0" d="M47.6,41c0,0,3,1.8,3.5,5.9"/>
		<path id="XMLID_10141_" class="st0" d="M40.1,45c0,0,3,1.8,3.5,5.9"/>
		<path id="XMLID_10140_" class="st0" d="M53.5,45.7c0,0,3,1.8,3.5,5.9"/>
		<path id="XMLID_10139_" class="st0" d="M47.6,48.8c0,0,3,1.8,3.5,5.9"/>
		<path id="XMLID_10138_" class="st0" d="M38.4,53.7c0,0,3,1.8,3.5,5.9"/>
		<path id="XMLID_10137_" class="st0" d="M58.9,50.8c0,0,3,1.8,3.5,5.9"/>
		<path id="XMLID_10134_" class="st0" d="M51.7,54.4c0,0,3,1.8,3.5,5.9"/>
		<path id="XMLID_10133_" class="st0" d="M44.6,58.3c0,0,3,1.8,3.5,5.9"/>
		<path id="XMLID_10132_" class="st0" d="M37.4,61.9c0,0,3,1.8,3.5,5.9"/>
		<path id="XMLID_10131_" class="st0" d="M57.1,59.5c0,0,3,1.8,3.5,5.9"/>
		<path id="XMLID_10130_" class="st0" d="M49.4,63.4c0,0,3,1.8,3.5,5.9"/>
		<path id="XMLID_10129_" class="st0" d="M42.3,67.2c0,0,3,1.8,3.5,5.9"/>
		<path id="XMLID_10128_" class="st0" d="M62.6,64.7c0,0,3,1.8,3.5,5.9"/>
		<path id="XMLID_10105_" class="st0" d="M55.3,68.7c0,0,3,1.8,3.5,5.9"/>
		<path id="XMLID_10103_" class="st0" d="M47.6,72.7c0,0,3,1.8,3.5,5.9"/>
		<path id="XMLID_10102_" class="st0" d="M39.2,77.3c0,0,3,1.8,3.5,5.9"/>
		<g id="XMLID_9954_">
			<line id="XMLID_10100_" class="st0" x1="36.2" y1="78.3" x2="68.4" y2="61.3"/>
			<line id="XMLID_10099_" class="st0" x1="36.2" y1="47" x2="52.2" y2="38.6"/>
			<line id="XMLID_10097_" class="st0" x1="36.2" y1="70.4" x2="64.3" y2="55.6"/>
			<line id="XMLID_9959_" class="st0" x1="36.2" y1="62.6" x2="60.3" y2="50"/>
			<line id="XMLID_9955_" class="st0" x1="36.2" y1="54.8" x2="56.4" y2="44.2"/>
		</g>
		<polygon id="XMLID_9952_" class="st0" points="52.5,38.6 73.4,67.7 36.9,87 36.9,47 		"/>
	</g>
	<polygon id="XMLID_9925_" class="st0" points="36.2,31.3 20.3,38.6 36.2,47 52.2,38.6 	"/>
	<g id="XMLID_9615_">
		<g id="XMLID_9627_">
			<polygon id="XMLID_9648_" class="st1" points="36.9,39.1 36.9,16.2 48.8,32.9 			"/>
			<line id="XMLID_9645_" class="st0" x1="36.2" y1="39.1" x2="48.1" y2="32.9"/>
			<line id="XMLID_9644_" class="st0" x1="36.2" y1="31.3" x2="44.1" y2="27.2"/>
			<path id="XMLID_9642_" class="st0" d="M37.4,22.9c0,0,3,1.8,3.5,5.9"/>
			<path id="XMLID_9637_" class="st0" d="M41.9,28.3c0,0,3,1.8,3.5,5.9"/>
			<path id="XMLID_9631_" class="st0" d="M36.5,31.1c0,0,3,1.8,3.5,5.9"/>
			<line id="XMLID_9630_" class="st0" x1="36.2" y1="23.5" x2="40" y2="21.5"/>
		</g>
		<g id="XMLID_9618_">
			<polygon id="XMLID_9626_" class="st1" points="36.9,39.1 36.9,16.2 25,32.9 			"/>
			<line id="XMLID_9625_" class="st0" x1="36.2" y1="31.3" x2="28.4" y2="27.2"/>
			<path id="XMLID_9624_" class="st0" d="M35,22.9c0,0-3,1.8-3.5,5.9"/>
			<path id="XMLID_9621_" class="st0" d="M30.6,28.3c0,0-3,1.8-3.5,5.9"/>
			<path id="XMLID_9620_" class="st0" d="M35.9,31.1c0,0-3,1.8-3.5,5.9"/>
			<line id="XMLID_9619_" class="st0" x1="36.2" y1="23.5" x2="32.4" y2="21.5"/>
		</g>
	</g>
	<line id="XMLID_9614_" class="st0" x1="36.9" y1="0" x2="36.9" y2="11.4"/>
	<line id="XMLID_9613_" class="st0" x1="30.3" y1="6.6" x2="32.1" y2="12"/>
	<line id="XMLID_9612_" class="st0" x1="22.7" y1="9.1" x2="28.9" y2="15.4"/>
	<line id="XMLID_9609_" class="st0" x1="22.9" y1="17.4" x2="26.6" y2="19.2"/>
	<line id="XMLID_9608_" class="st0" x1="23" y1="22.6" x2="24.7" y2="23"/>
	<g id="XMLID_9110_">
		<line id="XMLID_9114_" class="st0" x1="42.1" y1="6.6" x2="40.3" y2="12"/>
		<line id="XMLID_9113_" class="st0" x1="49.7" y1="9.1" x2="43.5" y2="15.4"/>
		<line id="XMLID_9112_" class="st0" x1="49.5" y1="17.4" x2="45.8" y2="19.2"/>
		<line id="XMLID_9111_" class="st0" x1="49.5" y1="22.6" x2="47.8" y2="23"/>
	</g>
</g>
</svg>
