<?xml version="1.0" encoding="utf-8"?>
<!-- Generator: Adobe Illustrator 19.0.0, SVG Export Plug-In . SVG Version: 6.00 Build 0)  -->
<svg version="1.1" id="Слой_1" xmlns="http://www.w3.org/2000/svg" xmlns:xlink="http://www.w3.org/1999/xlink" x="0px" y="0px"
	 viewBox="0 0 16 16" enable-background="new 0 0 16 16" xml:space="preserve">
<path id="Search" fill="#FFFFFF" d="M15.7,14.3l-3-3c0,0-0.1-0.1-0.1-0.1C13.5,10,14,8.6,14,7c0-3.9-3.1-7-7-7C3.1,0,0,3.1,0,7
	s3.1,7,7,7c1.6,0,3-0.5,4.2-1.4c0,0,0,0.1,0.1,0.1l3,3c0.2,0.2,0.5,0.3,0.7,0.3s0.5-0.1,0.7-0.3C16.1,15.3,16.1,14.7,15.7,14.3z
	 M7,12c-2.8,0-5-2.2-5-5s2.2-5,5-5s5,2.2,5,5S9.8,12,7,12z"/>
</svg>
