<?xml version="1.0" encoding="utf-8"?>
<!-- Generator: Adobe Illustrator 19.0.0, SVG Export Plug-In . SVG Version: 6.00 Build 0)  -->
<svg version="1.1" id="Слой_1" xmlns="http://www.w3.org/2000/svg" xmlns:xlink="http://www.w3.org/1999/xlink" x="0px" y="0px"
	 viewBox="-383 145 512 512" style="enable-background:new -383 145 512 512;" xml:space="preserve">
<style type="text/css">
	.st0{fill:#F2AE32;}
	.st1{fill:none;stroke:#F2AE32;stroke-width:2;stroke-linecap:round;stroke-linejoin:round;stroke-miterlimit:10;}
</style>
<g id="XMLID_14354_">
	<g id="XMLID_14379_">
		<g id="XMLID_14380_">
			<path id="XMLID_80_" class="st0" d="M-126.9,337.9v4c15.6,0,30.4,6.1,41.5,17.1s17.4,25.7,17.5,41.4c0.2,15.8-5.8,30.7-16.9,42
				c-11,11.3-25.8,17.6-41.6,17.7c-0.2,0-0.4,0-0.6,0c-15.6,0-30.4-6.1-41.5-17.1s-17.4-25.7-17.5-41.4c-0.2-15.8,5.8-30.7,16.9-42
				c11-11.3,25.8-17.6,41.6-17.7c0.2,0,0.4,0,0.6,0V337.9 M-126.9,337.9c-0.2,0-0.5,0-0.7,0c-34.8,0.4-62.7,28.9-62.4,63.7
				c0.4,34.6,28.5,62.4,63,62.4c0.2,0,0.5,0,0.7,0c34.8-0.4,62.7-28.9,62.4-63.7C-64.2,365.7-92.4,337.9-126.9,337.9L-126.9,337.9z"
				/>
		</g>
	</g>
	<g id="XMLID_14356_">
		<line id="XMLID_14378_" class="st1" x1="-158.5" y1="348.2" x2="-139.2" y2="348"/>
		<line id="XMLID_14377_" class="st1" x1="-147.2" y1="342.4" x2="-128" y2="342.2"/>
		<path id="XMLID_14376_" class="st1" d="M-166.1,354.1c0.6-0.2,18.9-0.2,18.9-0.2"/>
		<path id="XMLID_14375_" class="st1" d="M-171.4,359.6c0.5,0.1,23.5-0.2,23.5-0.2"/>
		<line id="XMLID_14374_" class="st1" x1="-176" y1="365.3" x2="-148.2" y2="365"/>
		<line id="XMLID_14373_" class="st1" x1="-179" y1="370.2" x2="-160.9" y2="370"/>
		<path id="XMLID_14372_" class="st1" d="M-181.3,374.9c0.6,0,24.1-0.3,24.1-0.3"/>
		<line id="XMLID_14371_" class="st1" x1="-183.3" y1="379.2" x2="-152.4" y2="378.9"/>
		<line id="XMLID_14370_" class="st1" x1="-185" y1="384.3" x2="-150.6" y2="384"/>
		<path id="XMLID_14369_" class="st1" d="M-186,390.1c1,0.2,35.8-0.4,35.8-0.4"/>
		<path id="XMLID_14368_" class="st1" d="M-186.8,396.7c0.6,0,27.8-0.3,27.8-0.3"/>
		<line id="XMLID_14367_" class="st1" x1="-187.1" y1="402.3" x2="-155.4" y2="401.9"/>
		<line id="XMLID_14366_" class="st1" x1="-186.7" y1="407.5" x2="-155.8" y2="407.2"/>
		<line id="XMLID_14365_" class="st1" x1="-185.7" y1="413.2" x2="-156.2" y2="412.9"/>
		<line id="XMLID_14364_" class="st1" x1="-184.4" y1="418.8" x2="-161.8" y2="418.6"/>
		<line id="XMLID_14363_" class="st1" x1="-181.9" y1="425.7" x2="-162.3" y2="425.5"/>
		<line id="XMLID_14362_" class="st1" x1="-179.1" y1="431.6" x2="-152.3" y2="431.3"/>
		<line id="XMLID_14361_" class="st1" x1="-175.3" y1="437.8" x2="-153.2" y2="437.5"/>
		<line id="XMLID_14360_" class="st1" x1="-171.4" y1="442.7" x2="-149.9" y2="442.5"/>
		<line id="XMLID_14359_" class="st1" x1="-165.1" y1="449" x2="-141" y2="448.7"/>
		<line id="XMLID_14358_" class="st1" x1="-156.7" y1="454.4" x2="-136.1" y2="454.2"/>
		<line id="XMLID_14357_" class="st1" x1="-143.8" y1="460.9" x2="-130.5" y2="460.7"/>
	</g>
</g>
</svg>
