<?xml version="1.0" encoding="utf-8"?>
<!-- Generator: Adobe Illustrator 19.0.0, SVG Export Plug-In . SVG Version: 6.00 Build 0)  -->
<svg version="1.1" id="Слой_1" xmlns="http://www.w3.org/2000/svg" xmlns:xlink="http://www.w3.org/1999/xlink" x="0px" y="0px" width="32" height="32"
	 viewBox="0 0 32 32" enable-background="new 0 0 32 32" xml:space="preserve">
<path id="XMLID_1704_" opacity="0.75" fill="#7AC36C" d="M32,2c0-0.3-0.2-0.5-0.4-0.5c-0.4-0.6-1.1-1.3-2.1-1.4
	c-1-0.2-2.1,0.3-3.3,1.4H10.7c-0.3,0-0.5,0.2-0.5,0.5v4.3c-0.5-0.6-1.3-1-2.1-1c-1.5,0-2.8,1.2-2.8,2.8c0,0.8,0.4,1.6,0.9,2.1H2
	c-0.3,0-0.5,0.2-0.5,0.5v15.5c-1.1,1.1-1.6,2.2-1.4,3.3c0.2,1,0.9,1.7,1.4,2.1C1.5,31.8,1.7,32,2,32c0.1,0,0.1,0,0.2,0
	c0.1,0,0.1,0,0.2,0c0.2,0,0.4-0.1,0.5-0.3c0.1-0.3,0-0.6-0.3-0.7c0,0,0,0-0.1,0v-4.3c0.1-0.1,0.1-0.1,0.2-0.2
	c0.2-0.2,0.2-0.5,0.1-0.7c-0.1-0.1-0.2-0.1-0.2-0.1v-1.7c0.2,0.7,0.4,1.3,0.7,1.8c1,1.5,2.7,2.1,4.4,2.1c0.5,0,1.1-0.1,1.6-0.2
	c1-0.2,1.8-0.7,2.3-1.4c0.1-0.1,1.4-1.4,1.4-3.6c0-1.4-1.1-2.5-2.5-2.5s-2.5,1.1-2.5,2.5s1.1,2.5,2.5,2.5c0.3,0,0.5-0.1,0.7-0.1
	c-0.2,0.3-0.4,0.5-0.4,0.5c-0.5,0.5-1.1,0.9-1.8,1.1c-1.6,0.4-3.8,0.1-4.8-1.5c-0.8-1.3-1-3.2-0.6-4.8c0.2-0.8,0.8-2,1.9-2.6
	c2-1,5.6-1.6,7.4,0.2c0,0,0.1,0.1,0.1,0.1c0,0,0,0,0,0l8,3.5c0.1,0,0.1,0,0.2,0h0l0,0c0.1,0,0.1,0,0.2,0c0,0,0,0,0,0c0,0,0,0,0.1,0
	c0.1,0,0.1-0.1,0.2-0.2c0,0,0,0,0,0c0,0,0,0,0,0c0,0,0-0.1,0-0.1c0,0,0-0.1,0-0.1c0,0,0-0.1,0-0.1c0,0,0-0.1,0-0.1c0,0,0,0,0,0
	l-3.5-8c0,0,0,0,0,0c0,0-0.1-0.1-0.1-0.1c-1.8-1.8-1.2-5.4-0.2-7.4c0.6-1.2,1.7-1.7,2.5-1.9c1.6-0.5,3.6-0.2,4.8,0.6
	c1.6,1,1.9,3.2,1.5,4.8c-0.2,0.7-0.6,1.4-1.1,1.9c0,0-0.2,0.2-0.5,0.4c0.1-0.2,0.1-0.5,0.1-0.8c0-1.4-1.1-2.5-2.5-2.5
	c-1.4,0-2.5,1.1-2.5,2.5c0,1.4,1.1,2.5,2.5,2.5c2.2,0,3.5-1.3,3.5-1.3c0.7-0.6,1.2-1.4,1.4-2.4c0.5-2,0.1-4.7-1.9-6
	c-0.5-0.3-1.1-0.6-1.8-0.7h1.6c0,0.1,0.1,0.2,0.1,0.2c0.1,0.1,0.2,0.1,0.3,0.1c0.1,0,0.3-0.1,0.4-0.2c0.1-0.1,0.1-0.1,0.2-0.2H31
	c0,0,0,0.1,0,0.1c0.1,0.3,0.4,0.4,0.7,0.3c0.2-0.1,0.4-0.4,0.3-0.7C32,2.1,32,2,32,2z M10.4,24.1c-0.8,0-1.5-0.7-1.5-1.5
	s0.7-1.5,1.5-1.5s1.5,0.7,1.5,1.5S11.2,24.1,10.4,24.1z M21.2,10.4c0-0.8,0.7-1.5,1.5-1.5c0.8,0,1.5,0.7,1.5,1.5
	c0,0.8-0.7,1.5-1.5,1.5C21.9,11.9,21.2,11.2,21.2,10.4z M29.3,1.1c0.3,0,0.6,0.2,0.9,0.4h-2.3C28.4,1.1,28.9,1,29.3,1.1z M8.1,6.4
	c1,0,1.7,0.8,1.7,1.7c0,1-0.8,1.7-1.7,1.7c-1,0-1.7-0.8-1.7-1.7C6.3,7.1,7.1,6.4,8.1,6.4z M10.2,9.9v0.3H9.9
	C10,10.1,10.1,10,10.2,9.9z M1.5,27.8v2.3c-0.2-0.2-0.4-0.5-0.4-0.9C1,28.8,1.1,28.4,1.5,27.8z M5,16.9c-1.2,0.6-2.1,1.7-2.5,3.2
	c0,0,0,0.1,0,0.1v-9h7.7v1.2c-0.3,0-0.5,0.2-0.5,0.5c0,0.3,0.2,0.5,0.5,0.5l0.1,0c0.1,0.1,0.2,0.2,0.4,0.2c0.2,0,0.3-0.1,0.4-0.2
	l1.4,0.1l0.1,3.1C10.3,15.2,6.8,16,5,16.9z M12.4,11.2l0.1,1.2l-1.2-0.1v-1.2H12.4z M17.3,13.7l2.8,6.5l-6.5-2.8l-0.2-3.8L17.3,13.7
	z M20.1,2.5c-1.5,0.4-2.6,1.3-3.2,2.5c-0.9,1.8-1.6,5.3-0.3,7.6l-3.1-0.1l-0.1-1.4c0.1-0.1,0.2-0.2,0.2-0.4c0-0.2-0.1-0.4-0.3-0.5
	c-0.1-0.2-0.3-0.3-0.5-0.3c-0.2,0-0.3,0.1-0.4,0.2h-1.3V2.5h9C20.2,2.5,20.1,2.5,20.1,2.5z"/>
</svg>
