<?xml version="1.0" encoding="utf-8"?>
<!-- Generator: Adobe Illustrator 19.0.0, SVG Export Plug-In . SVG Version: 6.00 Build 0)  -->
<svg version="1.1" id="Слой_1" xmlns="http://www.w3.org/2000/svg" xmlns:xlink="http://www.w3.org/1999/xlink" x="0px" y="0px"
	 viewBox="0 0 64 64" style="enable-background:new 0 0 64 64;" xml:space="preserve">
<style type="text/css">
	.st0{opacity:0.5;fill:#da6f50;enable-background:new    ;}
	.st1{opacity:5.000000e-02;fill:#89C37C;enable-background:new    ;}
</style>
<g id="_x3F_">
	<path id="_x3F__1_" class="st0" d="M38.2,25c0,6.7-5.5,8-5.5,13.3c0,0,0,0,0,0.1c0,0.8-0.6,1.4-1.4,1.4l0,0c-0.8,0-1.4-0.6-1.4-1.3
		c0-0.1,0-0.2,0-0.2c0-6.1,5.2-7,5.2-13.4c0-2.5-0.9-4.1-3.2-4.1s-3.2,1.6-3.2,4.1V26c0,0.8-0.6,1.4-1.4,1.4h-0.1
		c-0.8,0-1.4-0.6-1.4-1.4v-1c0-4.2,1.9-7,6.1-7C36.3,18,38.2,20.8,38.2,25z M32.9,43.5v1.1c0,0.8-0.6,1.4-1.4,1.4h-0.2
		c-0.8,0-1.4-0.6-1.4-1.4v-1.1c0-0.8,0.6-1.4,1.4-1.4h0.2C32.3,42.2,32.9,42.8,32.9,43.5z"/>
</g>
<g id="Circle">
	<circle id="Circle_1_" class="st1" cx="32" cy="32" r="32"/>
</g>
</svg>
