<?xml version="1.0" encoding="utf-8"?>
<!-- Generator: Adobe Illustrator 19.0.0, SVG Export Plug-In . SVG Version: 6.00 Build 0)  -->
<svg version="1.1" id="Слой_1" xmlns="http://www.w3.org/2000/svg" xmlns:xlink="http://www.w3.org/1999/xlink" x="0px" y="0px"
	 viewBox="0 0 224 224" enable-background="new 0 0 224 224" xml:space="preserve">
<g id="XMLID_626_">
	<g id="Щитодержатели_1_">
		<g id="XMLID_4717_">
			<g id="XMLID_4724_">
				<path id="XMLID_4791_" fill="#7AC36C" d="M51.6,170.6c-0.2,0-0.3-0.1-0.4-0.2c-0.1-0.1-8.1-7.2-15.9-16.9
					c-10.5-13.2-15.6-24.5-15.2-33.9c0.6-12.6,7.8-24,13-32.3c2.3-3.7,4.2-6.6,4.7-8.6c0.1-0.4,0.5-0.6,0.8-0.5
					c0.4,0.1,0.6,0.5,0.5,0.8c-0.6,2.1-2.5,5.1-4.9,8.9c-5.1,8.2-12.2,19.4-12.8,31.6c-1.1,21.5,30.3,49.5,30.6,49.7
					c0.3,0.2,0.3,0.7,0.1,1C52,170.6,51.8,170.6,51.6,170.6z"/>
				<g id="XMLID_4780_">
					<g id="XMLID_4786_">
						<path id="XMLID_4788_" fill="#7AC36C" d="M32.3,90.4c-0.1,0-0.2,0-0.2-0.1c-0.1-0.2-3.3-4.4-3.7-8.2c-0.3-2.4,0.3-5.8,0.8-8.5
							c0.3-1.5,0.5-2.9,0.5-3.6c0-1.7-0.2-3.3-0.2-3.3c0-0.1,0.1-0.2,0.2-0.3c0.1-0.1,0.2,0,0.3,0.1c0.2,0.1,3.8,3.6,4.6,6.3
							c1.6,5.4-0.3,11-2.4,14.1c-0.6,0.8-0.4,1.9-0.4,1.9c0,0,0,0,0,0c0.4,0.6,0.7,1,0.7,1c0.1,0.1,0.1,0.3-0.1,0.4
							C32.4,90.4,32.3,90.4,32.3,90.4z M30.1,67.5c0,0.6,0.1,1.6,0.1,2.5c0,0.8-0.2,2.1-0.5,3.7c-0.5,2.7-1.1,6-0.8,8.3
							c0.2,2.1,1.4,4.3,2.3,5.9c0.1-0.4,0.2-0.9,0.5-1.3c2-3.1,3.9-8.5,2.3-13.6C33.4,71,31.2,68.6,30.1,67.5z"/>
						<path id="XMLID_4787_" fill="#7AC36C" d="M31.2,89c-0.2,0-0.3-0.1-0.3-0.3c0-0.2-0.6-5.2,0.3-8.9c1-4.2,0.1-9.2,0.1-9.2
							c0-0.2,0.1-0.3,0.2-0.3c0.2,0,0.3,0.1,0.3,0.2c0,0.2,0.9,5.2-0.1,9.5c-0.9,3.6-0.3,8.7-0.3,8.7C31.5,88.8,31.4,88.9,31.2,89
							C31.2,89,31.2,89,31.2,89z"/>
					</g>
					<g id="XMLID_4781_">
						<path id="XMLID_4783_" fill="#7AC36C" d="M34.7,90.6c-1.4,0-2.4-0.1-2.5-0.1c-0.2,0-0.3-0.2-0.3-0.3c0-0.2,0.2-0.3,0.3-0.3
							c0,0,0.5,0.1,1.3,0.1c0,0,0,0,0,0c0,0,1-0.4,1.5-1.3c1.6-3.4,5.5-7.9,10.9-9.3c2.8-0.7,7.6,0.6,7.8,0.7c0.1,0,0.2,0.1,0.2,0.3
							c0,0.1-0.1,0.2-0.2,0.3c0,0-1.5,0.7-2.9,1.5c-0.6,0.4-1.6,1.3-2.8,2.3c-2.1,1.8-4.6,4-6.8,5.1C39.2,90.4,36.6,90.6,34.7,90.6z
							 M34.7,89.6C34.7,89.6,34.7,89.6,34.7,89.6c1.8,0,4.3,0,6.3-0.9c2.1-1,4.7-3.1,6.7-4.9c1.2-1.1,2.3-1.9,2.9-2.3
							c0.8-0.5,1.7-0.9,2.2-1.2c-1.5-0.4-4.7-1-6.7-0.5c-5.2,1.3-8.9,5.5-10.5,8.8C35.4,89.2,35,89.6,34.7,89.6z"/>
						<path id="XMLID_4782_" fill="#7AC36C" d="M34,90.6c-0.1,0-0.2-0.1-0.3-0.2c-0.1-0.2,0-0.3,0.1-0.4c0,0,4.7-2.1,7.3-4.7
							c3.2-3.1,7.9-4.9,8.1-4.9c0.2-0.1,0.3,0,0.4,0.2c0.1,0.2,0,0.3-0.2,0.4c0,0-4.8,1.8-7.9,4.8c-2.7,2.7-7.3,4.8-7.5,4.8
							C34.1,90.6,34.1,90.6,34,90.6z"/>
					</g>
				</g>
				<g id="XMLID_4769_">
					<g id="XMLID_4775_">
						<path id="XMLID_4777_" fill="#7AC36C" d="M24.7,103.9c-0.1,0-0.2,0-0.2-0.1c-0.1-0.2-3.4-4.3-3.8-8.2
							c-0.3-2.4,0.3-5.8,0.7-8.5c0.3-1.6,0.5-2.9,0.5-3.6c0-1.7-0.2-3.3-0.2-3.3c0-0.1,0.1-0.2,0.2-0.3c0.1-0.1,0.2,0,0.3,0
							c0.2,0.1,3.8,3.5,4.7,6.3c1.7,5.3-0.2,11-2.2,14.2c-0.5,0.8-0.4,1.9-0.4,1.9c0,0,0,0,0,0c0.4,0.6,0.7,1,0.7,1
							c0.1,0.1,0.1,0.3-0.1,0.4C24.8,103.9,24.7,103.9,24.7,103.9z M22.3,81c0.1,0.6,0.1,1.6,0.1,2.5c0,0.8-0.2,2.1-0.5,3.7
							c-0.5,2.7-1,6-0.7,8.3c0.3,2.1,1.4,4.3,2.4,5.9c0-0.4,0.2-0.9,0.5-1.3c2-3.1,3.8-8.5,2.2-13.7C25.6,84.5,23.4,82,22.3,81z"/>
						<path id="XMLID_4776_" fill="#7AC36C" d="M23.6,102.4c-0.1,0-0.3-0.1-0.3-0.3c0-0.2-0.6-5.2,0.2-8.9c1-4.2,0-9.2,0-9.2
							c0-0.2,0.1-0.3,0.2-0.4c0.2,0,0.3,0.1,0.4,0.2c0,0.2,1,5.1,0,9.5c-0.8,3.6-0.2,8.7-0.2,8.7C24,102.3,23.8,102.4,23.6,102.4
							C23.7,102.4,23.7,102.4,23.6,102.4z"/>
					</g>
					<g id="XMLID_4770_">
						<path id="XMLID_4772_" fill="#7AC36C" d="M26.8,104c-1.2,0-2.1-0.1-2.2-0.1c-0.2,0-0.3-0.2-0.3-0.3c0-0.2,0.2-0.3,0.3-0.3
							c0,0,0.5,0,1.3,0.1c0,0,0,0,0,0c0,0,1-0.4,1.5-1.3c1.6-3.4,5.4-8,10.8-9.4c2.8-0.7,7.6,0.6,7.8,0.6c0.1,0,0.2,0.1,0.2,0.3
							c0,0.1-0.1,0.2-0.2,0.3c0,0-1.4,0.7-2.9,1.6c-0.6,0.4-1.6,1.3-2.8,2.3c-2,1.8-4.6,4.1-6.8,5.1C31.5,103.8,28.7,104,26.8,104z
							 M40.3,93c-0.7,0-1.3,0.1-1.9,0.2c-5.2,1.4-8.9,5.8-10.4,9.1c-0.2,0.5-0.6,0.8-0.9,1.1c1.8,0,4.3-0.2,6.2-1.1
							c2.1-1,4.6-3.2,6.6-5c1.2-1.1,2.2-2,2.9-2.4c0.8-0.5,1.7-0.9,2.2-1.2C44,93.3,42.1,93,40.3,93z"/>
						<path id="XMLID_4771_" fill="#7AC36C" d="M26.5,104c-0.1,0-0.2-0.1-0.3-0.2c-0.1-0.1,0-0.3,0.1-0.4c0,0,4.6-2.2,7.3-4.8
							c3.1-3.1,7.8-5,8-5c0.2-0.1,0.3,0,0.4,0.2c0.1,0.2,0,0.3-0.2,0.4c0,0-4.8,1.8-7.8,4.9c-2.7,2.7-7.2,4.8-7.4,4.9
							C26.6,104,26.5,104,26.5,104z"/>
					</g>
				</g>
				<g id="XMLID_4758_">
					<g id="XMLID_4764_">
						<path id="XMLID_4766_" fill="#7AC36C" d="M20.9,120.3c-0.1,0-0.1,0-0.2-0.1c-0.2-0.1-4.5-3.2-6-6.7c-1-2.2-1.4-5.6-1.8-8.3
							c-0.2-1.6-0.4-2.9-0.6-3.6c-0.5-1.6-1.2-3.1-1.2-3.1c0-0.1,0-0.2,0.1-0.3c0.1-0.1,0.2-0.1,0.3-0.1c0.2,0.1,4.7,2.3,6.3,4.7
							c3.1,4.6,3,10.6,2,14.2c-0.3,1,0.2,2,0.2,2c0,0,0,0,0,0c0.6,0.5,1,0.8,1,0.8c0.1,0.1,0.2,0.3,0.1,0.4
							C21.1,120.3,21,120.3,20.9,120.3z M12.1,99.1c0.2,0.6,0.6,1.5,0.9,2.4c0.2,0.7,0.4,2.1,0.6,3.7c0.3,2.7,0.8,6,1.7,8.2
							c0.8,1.9,2.6,3.7,4,5c-0.1-0.4-0.1-0.9,0-1.4c1-3.5,1.1-9.2-1.9-13.7C16.2,101.5,13.4,99.8,12.1,99.1z"/>
						<path id="XMLID_4765_" fill="#7AC36C" d="M19.5,119.2c-0.1,0-0.2-0.1-0.3-0.2c-0.1-0.2-2.1-4.8-2.4-8.6
							c-0.3-4.3-2.7-8.8-2.7-8.8c-0.1-0.1,0-0.3,0.1-0.4c0.1-0.1,0.3,0,0.4,0.1c0.1,0.2,2.5,4.6,2.8,9.1c0.3,3.7,2.3,8.3,2.3,8.4
							c0.1,0.2,0,0.3-0.2,0.4C19.6,119.2,19.5,119.2,19.5,119.2z"/>
					</g>
					<g id="XMLID_4759_">
						<path id="XMLID_4761_" fill="#7AC36C" d="M20.9,120.3c-0.1,0-0.3-0.1-0.3-0.2c0-0.2,0.1-0.3,0.2-0.4c0,0,0.5-0.1,1.2-0.3
							c0,0,0,0,0,0c0,0,0.9-0.7,1-1.7c0.5-3.8,2.9-9.2,7.6-12.2c2.4-1.5,7.4-1.7,7.6-1.7c0.1,0,0.2,0.1,0.3,0.2c0,0.1,0,0.2-0.1,0.3
							c0,0-1.2,1.1-2.3,2.4c-0.5,0.5-1.2,1.7-2,3c-1.4,2.3-3.2,5.2-5,6.9C26.4,119.3,21.2,120.3,20.9,120.3
							C21,120.3,20.9,120.3,20.9,120.3z M37.6,104.5c-1.5,0.1-4.8,0.5-6.5,1.5c-4.6,2.8-6.8,8.1-7.3,11.7c-0.1,0.5-0.3,1-0.5,1.3
							c1.7-0.5,4.1-1.5,5.6-2.9c1.7-1.6,3.5-4.4,4.9-6.7c0.8-1.4,1.6-2.6,2.1-3.1C36.5,105.6,37.1,105,37.6,104.5z"/>
						<path id="XMLID_4760_" fill="#7AC36C" d="M22.7,119.9c-0.1,0-0.2,0-0.2-0.1c-0.1-0.1-0.1-0.3,0-0.4c0,0,3.8-3.4,5.6-6.7
							c2.1-3.9,6.1-7,6.2-7.1c0.1-0.1,0.3-0.1,0.4,0.1c0.1,0.1,0.1,0.3-0.1,0.4c0,0-4,3.1-6.1,7c-1.8,3.4-5.5,6.7-5.7,6.9
							C22.8,119.9,22.7,119.9,22.7,119.9z"/>
					</g>
				</g>
				<g id="XMLID_4747_">
					<g id="XMLID_4753_">
						<path id="XMLID_4755_" fill="#7AC36C" d="M25.3,137.8C25.3,137.8,25.2,137.8,25.3,137.8c-0.3,0-5.5-0.9-8.4-3.4
							c-1.9-1.6-3.7-4.4-5.3-6.7c-0.9-1.3-1.6-2.4-2.1-3c-1.2-1.2-2.4-2.3-2.4-2.3c-0.1-0.1-0.1-0.2-0.1-0.3c0-0.1,0.2-0.2,0.3-0.2
							c0.2,0,5.2,0,7.7,1.4c4.9,2.8,7.4,8.1,8,11.9c0.2,1,1.1,1.7,1.1,1.7c0,0,0,0,0,0c0.7,0.2,1.2,0.2,1.2,0.3
							c0.2,0,0.3,0.2,0.2,0.3C25.6,137.6,25.4,137.8,25.3,137.8z M8.1,122.6c0.5,0.4,1.2,1.1,1.8,1.8c0.5,0.6,1.3,1.7,2.2,3.1
							c1.5,2.3,3.3,5.1,5.1,6.6c1.6,1.4,4,2.2,5.7,2.7c-0.2-0.3-0.5-0.8-0.6-1.3c-0.7-3.6-3.1-8.8-7.8-11.5
							C12.9,122.9,9.6,122.6,8.1,122.6z"/>
						<path id="XMLID_4754_" fill="#7AC36C" d="M23.5,137.4c-0.1,0-0.1,0-0.2-0.1c-0.2-0.1-4-3.4-5.9-6.7c-2.2-3.7-6.3-6.7-6.3-6.7
							c-0.1-0.1-0.2-0.3-0.1-0.4c0.1-0.1,0.3-0.2,0.4-0.1c0.2,0.1,4.2,3.1,6.5,6.9c1.9,3.2,5.8,6.5,5.8,6.5c0.1,0.1,0.1,0.3,0,0.4
							C23.7,137.4,23.6,137.4,23.5,137.4z"/>
					</g>
					<g id="XMLID_4748_">
						<path id="XMLID_4750_" fill="#7AC36C" d="M25.3,137.8c-0.1,0-0.2,0-0.2-0.1c-0.1-0.1-0.1-0.3,0.1-0.4c0,0,0.4-0.3,1-0.8
							c0,0,0,0,0,0c0,0,0.5-1,0.2-2c-1.2-3.6-1.5-9.5,1.5-14.3c1.5-2.4,5.9-4.8,6.1-4.9c0.1-0.1,0.2,0,0.3,0
							c0.1,0.1,0.1,0.2,0.1,0.3c0,0-0.6,1.5-1.1,3.1c-0.2,0.7-0.3,2-0.5,3.6c-0.2,2.7-0.6,6.1-1.5,8.4c-1.4,3.6-5.6,6.8-5.8,6.9
							C25.4,137.7,25.3,137.8,25.3,137.8z M33.4,116.2c-1.3,0.8-4.1,2.5-5.2,4.3c-2.9,4.6-2.5,10.3-1.4,13.8c0.2,0.5,0.2,1,0.1,1.4
							c1.3-1.3,3-3.1,3.8-5.1c0.9-2.2,1.2-5.5,1.4-8.2c0.1-1.6,0.3-3,0.5-3.7C32.9,117.7,33.2,116.8,33.4,116.2z"/>
						<path id="XMLID_4749_" fill="#7AC36C" d="M26.7,136.6c0,0-0.1,0-0.1,0c-0.2-0.1-0.2-0.2-0.2-0.4c0,0,1.9-4.8,2-8.5
							c0.1-4.4,2.3-9,2.4-9.2c0.1-0.1,0.3-0.2,0.4-0.1c0.1,0.1,0.2,0.3,0.1,0.4c0,0-2.2,4.6-2.4,8.9c-0.1,3.8-2,8.5-2.1,8.7
							C26.9,136.5,26.8,136.6,26.7,136.6z"/>
					</g>
				</g>
				<g id="XMLID_4736_">
					<g id="XMLID_4742_">
						<path id="XMLID_4744_" fill="#7AC36C" d="M31.4,151.8c-1.7,0-3.8-0.2-5.5-0.9c-2.3-0.9-4.9-3.1-7-4.8c-1.2-1-2.3-1.8-2.9-2.2
							c-1.5-0.8-3-1.4-3-1.4c-0.1,0-0.2-0.2-0.2-0.3c0-0.1,0.1-0.2,0.2-0.3c0.2-0.1,5-1.6,7.8-1c5.5,1.2,9.5,5.5,11.3,8.9
							c0.5,0.9,1.5,1.3,1.5,1.3c0,0,0,0,0,0c0.8-0.1,1.2-0.1,1.3-0.1c0.2,0,0.3,0.1,0.3,0.3c0,0.2-0.1,0.3-0.3,0.3
							C34.7,151.6,33.2,151.8,31.4,151.8z M13.9,142.4c0.6,0.3,1.4,0.7,2.3,1.1c0.7,0.4,1.8,1.2,3,2.2c2.1,1.7,4.7,3.8,6.9,4.7
							c1.9,0.8,4.5,0.9,6.3,0.8c-0.3-0.2-0.7-0.6-1-1.1c-1.7-3.2-5.6-7.4-10.9-8.6C18.5,141.2,15.3,141.9,13.9,142.4z"/>
						<path id="XMLID_4743_" fill="#7AC36C" d="M33,151.8c0,0-0.1,0-0.1,0c-0.2-0.1-4.8-2-7.7-4.5c-3.2-2.9-8-4.5-8.1-4.5
							c-0.2-0.1-0.2-0.2-0.2-0.4c0.1-0.2,0.2-0.2,0.4-0.2c0.2,0.1,5,1.6,8.3,4.6c2.7,2.5,7.4,4.4,7.5,4.4c0.2,0.1,0.2,0.2,0.2,0.4
							C33.2,151.7,33.1,151.8,33,151.8z"/>
					</g>
					<g id="XMLID_4737_">
						<path id="XMLID_4739_" fill="#7AC36C" d="M34.8,151.6c-0.1,0-0.1,0-0.2-0.1c-0.1-0.1-0.2-0.3-0.1-0.4c0,0,0.3-0.4,0.7-1.1
							c0,0,0,0,0,0c0,0,0.1-1.1-0.5-1.9c-2.2-3.1-4.3-8.6-3-14c0.7-2.8,4.2-6.4,4.3-6.5c0.1-0.1,0.2-0.1,0.3-0.1
							c0.1,0.1,0.2,0.2,0.2,0.3c0,0-0.1,1.6-0.1,3.3c0,0.7,0.3,2,0.7,3.6c0.6,2.7,1.3,6,1.2,8.4c-0.3,3.8-3.3,8.2-3.4,8.3
							C35,151.6,34.9,151.6,34.8,151.6z M36,128.6c-1,1.1-3.1,3.7-3.6,5.6c-1.3,5.2,0.7,10.6,2.9,13.5c0.3,0.4,0.5,0.9,0.5,1.3
							c0.9-1.6,1.9-3.9,2.1-6c0.2-2.3-0.6-5.6-1.2-8.3c-0.3-1.6-0.6-2.9-0.7-3.7C36,130.2,36,129.2,36,128.6z"/>
						<path id="XMLID_4738_" fill="#7AC36C" d="M35.8,150C35.8,150,35.7,150,35.8,150c-0.2,0-0.3-0.1-0.3-0.3c0-0.1,0.4-5.1-0.7-8.7
							c-1.2-4.3-0.5-9.2-0.5-9.4c0-0.2,0.2-0.3,0.3-0.2c0.2,0,0.3,0.2,0.3,0.3c0,0.1-0.7,5.1,0.5,9.2c1,3.7,0.7,8.6,0.7,8.8
							C36,149.9,35.9,150,35.8,150z"/>
					</g>
				</g>
				<g id="XMLID_4725_">
					<g id="XMLID_4731_">
						<path id="XMLID_4733_" fill="#7AC36C" d="M38.6,164.6c-0.9,0-1.7-0.1-2.5-0.3c-2.4-0.6-5.3-2.2-7.7-3.6
							c-1.4-0.8-2.6-1.4-3.2-1.7c-1.6-0.5-3.2-0.9-3.2-0.9c-0.1,0-0.2-0.1-0.2-0.3s0-0.2,0.2-0.3c0.2-0.1,4.6-2.4,7.5-2.2
							c5.6,0.3,10.3,3.9,12.6,6.9c0.6,0.8,1.7,1,1.7,1c0,0,0,0,0,0c0.7-0.2,1.2-0.3,1.2-0.3c0.2-0.1,0.3,0,0.4,0.2
							c0.1,0.2,0,0.3-0.2,0.4C44.9,163.6,41.7,164.6,38.6,164.6z M22.9,157.8c0.6,0.2,1.5,0.4,2.4,0.7c0.7,0.2,1.9,0.9,3.3,1.7
							c2.3,1.3,5.3,3,7.6,3.5c2,0.5,4.6,0.2,6.3-0.2c-0.4-0.2-0.8-0.5-1.1-0.9c-2.2-2.9-6.7-6.4-12.1-6.7
							C27.3,155.9,24.3,157.2,22.9,157.8z"/>
						<path id="XMLID_4732_" fill="#7AC36C" d="M43.2,164.1C43.2,164.1,43.2,164.1,43.2,164.1c-0.3-0.1-5.2-1.2-8.4-3.3
							c-3.6-2.3-8.6-3.1-8.7-3.1c-0.2,0-0.3-0.2-0.3-0.3c0-0.2,0.2-0.3,0.3-0.3c0.2,0,5.2,0.8,8.9,3.2c3.1,2,8.1,3.2,8.1,3.2
							c0.2,0,0.3,0.2,0.2,0.4C43.5,164,43.4,164.1,43.2,164.1z"/>
					</g>
					<g id="XMLID_4726_">
						<path id="XMLID_4728_" fill="#7AC36C" d="M45,163.6c0,0-0.1,0-0.1,0c-0.1-0.1-0.2-0.3-0.1-0.4c0,0,0.2-0.5,0.5-1.2
							c0,0,0,0,0,0c0,0-0.1-1.1-0.8-1.8c-2.7-2.7-5.7-7.8-5.2-13.4c0.3-2.9,3.1-6.9,3.2-7.1c0.1-0.1,0.2-0.1,0.3-0.1
							c0.1,0,0.2,0.1,0.2,0.3c0,0,0.2,1.6,0.5,3.3c0.1,0.7,0.6,2,1.2,3.4c1,2.5,2.3,5.7,2.5,8.1c0.4,3.8-1.9,8.6-2,8.8
							C45.2,163.5,45.1,163.6,45,163.6z M42.6,140.7c-0.8,1.3-2.5,4.1-2.7,6.2c-0.5,5.4,2.4,10.3,5,12.9c0.4,0.4,0.6,0.8,0.7,1.2
							c0.6-1.7,1.3-4.2,1.1-6.3c-0.2-2.3-1.5-5.5-2.5-8c-0.6-1.5-1.1-2.8-1.3-3.5C42.8,142.2,42.6,141.3,42.6,140.7z"/>
						<path id="XMLID_4727_" fill="#7AC36C" d="M45.7,161.9c-0.2,0-0.3-0.1-0.3-0.3c0-0.1-0.5-5.1-2-8.5c-1.9-4-2-9.1-2-9.3
							c0-0.2,0.1-0.3,0.3-0.3c0.2,0,0.3,0.1,0.3,0.3c0,0.1,0.1,5.1,1.9,9c1.6,3.4,2.1,8.5,2.1,8.7C46,161.8,45.9,161.9,45.7,161.9
							C45.7,161.9,45.7,161.9,45.7,161.9z"/>
					</g>
				</g>
			</g>
			<g id="XMLID_4718_">
				<g id="XMLID_4719_">
					<path id="XMLID_4721_" fill="#7AC36C" d="M38.4,80.3c-0.1,0-0.3-0.1-0.3-0.2c-0.4-1.7-0.9-5-0.3-7.6c0.6-2.4,2.4-5.3,3.8-7.6
						c0.8-1.4,1.5-2.5,1.8-3.2c0.6-1.6,1-3.1,1-3.2c0-0.1,0.1-0.2,0.3-0.2c0.1,0,0.2,0.1,0.3,0.2c0.1,0.2,2.3,4.7,2.1,7.5
						c-0.4,5.6-4.1,10.2-7.2,12.4c-0.8,0.6-1,1.7-1,1.7c0,0,0,0.1,0,0.1C38.7,80.2,38.6,80.2,38.4,80.3
						C38.5,80.3,38.4,80.3,38.4,80.3z M44.7,59.3c-0.2,0.6-0.5,1.5-0.8,2.4c-0.3,0.7-1,1.9-1.8,3.3c-1.4,2.3-3.1,5.2-3.7,7.5
						c-0.5,2-0.3,4.6,0.1,6.3c0.2-0.4,0.5-0.8,0.9-1.1c3-2.2,6.6-6.6,7-12C46.5,63.8,45.3,60.7,44.7,59.3z"/>
					<path id="XMLID_4720_" fill="#7AC36C" d="M38.3,79.9C38.3,79.9,38.3,79.9,38.3,79.9c-0.2,0-0.3-0.2-0.3-0.4
						c0.1-0.2,1.3-5.1,3.4-8.2c2.4-3.6,3.3-8.5,3.3-8.6c0-0.2,0.2-0.3,0.3-0.2c0.2,0,0.3,0.2,0.2,0.3c0,0.2-0.9,5.2-3.4,8.8
						c-2.1,3.1-3.3,8-3.4,8C38.6,79.8,38.5,79.9,38.3,79.9z"/>
				</g>
			</g>
		</g>
		<g id="XMLID_4642_">
			<g id="XMLID_4649_">
				<path id="XMLID_4716_" fill="#7AC36C" d="M172.4,170.6c-0.2,0-0.4-0.1-0.5-0.2c-0.2-0.3-0.2-0.7,0.1-1
					c0.3-0.3,31.7-28.2,30.6-49.7c-0.6-12.2-7.6-23.5-12.8-31.6c-2.4-3.8-4.3-6.8-4.9-8.9c-0.1-0.4,0.1-0.7,0.5-0.8
					c0.4-0.1,0.7,0.1,0.8,0.5c0.6,1.9,2.4,4.9,4.7,8.6c5.2,8.3,12.4,19.7,13,32.3c0.5,9.3-4.6,20.7-15.2,33.9
					c-7.8,9.7-15.8,16.9-15.9,16.9C172.7,170.6,172.5,170.6,172.4,170.6z"/>
				<g id="XMLID_4705_">
					<g id="XMLID_4711_">
						<path id="XMLID_4713_" fill="#7AC36C" d="M191.7,90.4c-0.1,0-0.1,0-0.2-0.1c-0.1-0.1-0.2-0.3-0.1-0.4c0,0,0.3-0.4,0.7-1
							c0,0,0,0,0,0c0,0,0.2-1.1-0.4-1.9c-2.1-3.2-4-8.8-2.4-14.1c0.8-2.7,4.4-6.2,4.6-6.3c0.1-0.1,0.2-0.1,0.3-0.1
							c0.1,0.1,0.2,0.2,0.2,0.3c0,0-0.2,1.6-0.2,3.3c0,0.7,0.2,2.1,0.5,3.6c0.5,2.7,1.1,6,0.8,8.5c-0.4,3.8-3.6,8-3.7,8.2
							C191.9,90.4,191.8,90.4,191.7,90.4z M193.9,67.5c-1.1,1.1-3.3,3.5-3.9,5.5c-1.5,5.2,0.3,10.6,2.3,13.6
							c0.3,0.4,0.4,0.9,0.5,1.3c0.9-1.6,2.1-3.8,2.3-5.9c0.3-2.3-0.3-5.6-0.8-8.3c-0.3-1.6-0.5-2.9-0.5-3.7
							C193.8,69.1,193.9,68.1,193.9,67.5z"/>
						<path id="XMLID_4712_" fill="#7AC36C" d="M192.8,89C192.8,89,192.8,89,192.8,89c-0.2,0-0.3-0.2-0.3-0.3c0-0.1,0.6-5.1-0.3-8.7
							c-1-4.3-0.1-9.3-0.1-9.5c0-0.2,0.2-0.3,0.3-0.2c0.2,0,0.3,0.2,0.2,0.3c0,0-0.9,5,0.1,9.2c0.9,3.7,0.3,8.7,0.3,8.9
							C193.1,88.9,192.9,89,192.8,89z"/>
					</g>
					<g id="XMLID_4706_">
						<path id="XMLID_4708_" fill="#7AC36C" d="M189.3,90.6c-1.9,0-4.5-0.2-6.5-1.1c-2.2-1-4.8-3.3-6.8-5.1c-1.2-1-2.2-1.9-2.8-2.3
							c-1.5-0.9-2.9-1.5-2.9-1.5c-0.1-0.1-0.2-0.2-0.2-0.3c0-0.1,0.1-0.2,0.2-0.3c0.2-0.1,5-1.4,7.8-0.7c5.4,1.4,9.3,5.9,10.9,9.3
							c0.4,0.9,1.5,1.3,1.5,1.3c0,0,0,0,0,0c0.8,0,1.2-0.1,1.3-0.1c0.2,0,0.3,0.1,0.3,0.3c0,0.2-0.1,0.3-0.3,0.3
							C191.7,90.5,190.7,90.6,189.3,90.6z M171.2,80.4c0.6,0.3,1.4,0.7,2.2,1.2c0.7,0.4,1.7,1.3,2.9,2.4c2,1.8,4.6,3.8,6.7,4.8
							c1.9,0.9,4.4,0.9,6.2,0.9c0,0,0,0,0,0c-0.3,0-0.7-0.4-0.9-0.9c-1.6-3.3-5.3-7.6-10.5-8.9C175.9,79.3,172.7,80,171.2,80.4z"/>
						<path id="XMLID_4707_" fill="#7AC36C" d="M190,90.6c0,0-0.1,0-0.1,0c-0.2-0.1-4.8-2.2-7.5-4.8c-3.1-3-7.8-4.8-7.9-4.8
							c-0.2-0.1-0.2-0.2-0.2-0.4c0.1-0.2,0.2-0.2,0.4-0.2c0.2,0.1,4.9,1.8,8.1,4.9c2.6,2.6,7.3,4.7,7.3,4.7c0.2,0.1,0.2,0.2,0.1,0.4
							C190.2,90.5,190.1,90.6,190,90.6z"/>
					</g>
				</g>
				<g id="XMLID_4694_">
					<g id="XMLID_4700_">
						<path id="XMLID_4702_" fill="#7AC36C" d="M199.3,103.9c-0.1,0-0.1,0-0.2-0.1c-0.1-0.1-0.2-0.3-0.1-0.4c0,0,0.3-0.4,0.7-1
							c0,0,0,0,0,0c0,0,0.2-1.1-0.4-1.9c-2.1-3.2-3.9-8.8-2.2-14.2c0.8-2.7,4.5-6.1,4.7-6.3c0.1-0.1,0.2-0.1,0.3,0
							c0.1,0.1,0.2,0.2,0.2,0.3c0,0-0.2,1.6-0.2,3.3c0,0.7,0.2,2.1,0.5,3.6c0.5,2.7,1,6.1,0.7,8.5c-0.5,3.8-3.7,8-3.8,8.2
							C199.5,103.9,199.4,103.9,199.3,103.9z M201.7,81c-1.1,1.1-3.3,3.5-3.9,5.4c-1.6,5.1,0.2,10.6,2.2,13.7
							c0.3,0.4,0.4,0.9,0.5,1.3c1-1.6,2.1-3.8,2.4-5.9c0.3-2.3-0.3-5.6-0.7-8.3c-0.3-1.6-0.5-2.9-0.5-3.7
							C201.6,82.5,201.7,81.6,201.7,81z"/>
						<path id="XMLID_4701_" fill="#7AC36C" d="M200.4,102.4C200.3,102.4,200.3,102.4,200.4,102.4c-0.2,0-0.3-0.2-0.3-0.3
							c0-0.1,0.6-5.1-0.2-8.7c-1-4.3,0-9.3,0-9.5c0-0.2,0.2-0.3,0.4-0.2c0.2,0,0.3,0.2,0.2,0.4c0,0-1,5,0,9.2
							c0.9,3.7,0.2,8.7,0.2,8.9C200.6,102.3,200.5,102.4,200.4,102.4z"/>
					</g>
					<g id="XMLID_4695_">
						<path id="XMLID_4697_" fill="#7AC36C" d="M197.2,104c-1.9,0-4.6-0.2-6.8-1.2c-2.2-1-4.7-3.3-6.8-5.1c-1.2-1-2.2-2-2.8-2.3
							c-1.5-0.9-2.9-1.6-2.9-1.6c-0.1-0.1-0.2-0.2-0.2-0.3c0-0.1,0.1-0.2,0.2-0.3c0.2-0.1,5-1.4,7.8-0.6c5.4,1.4,9.2,6,10.8,9.4
							c0.4,0.9,1.4,1.3,1.5,1.3c0,0,0,0,0,0c0.8,0,1.2-0.1,1.3-0.1c0.2,0,0.3,0.1,0.3,0.3c0,0.2-0.1,0.3-0.3,0.3
							C199.3,103.9,198.4,104,197.2,104z M178.9,93.6c0.6,0.3,1.4,0.7,2.2,1.2c0.7,0.4,1.7,1.3,2.9,2.4c2,1.8,4.5,4,6.6,5
							c1.9,0.9,4.4,1.1,6.2,1.1c-0.3-0.3-0.7-0.6-0.9-1.1c-1.6-3.3-5.2-7.7-10.4-9.1C183.6,92.6,180.4,93.3,178.9,93.6z"/>
						<path id="XMLID_4696_" fill="#7AC36C" d="M197.5,104c0,0-0.1,0-0.1,0c-0.2-0.1-4.7-2.2-7.4-4.9c-3-3.1-7.8-4.9-7.8-4.9
							c-0.2-0.1-0.2-0.2-0.2-0.4c0.1-0.2,0.2-0.2,0.4-0.2c0.2,0.1,4.9,1.9,8,5c2.6,2.6,7.2,4.8,7.3,4.8c0.1,0.1,0.2,0.2,0.1,0.4
							C197.7,103.9,197.6,104,197.5,104z"/>
					</g>
				</g>
				<g id="XMLID_4683_">
					<g id="XMLID_4689_">
						<path id="XMLID_4691_" fill="#7AC36C" d="M203.1,120.3c-0.1,0-0.2,0-0.2-0.1c-0.1-0.1-0.1-0.3,0.1-0.4c0,0,0.4-0.3,1-0.8
							c0,0,0,0,0,0c0,0,0.5-1,0.2-2c-1-3.7-1.2-9.6,2-14.2c1.6-2.4,6.1-4.6,6.3-4.7c0.1-0.1,0.2,0,0.3,0.1c0.1,0.1,0.1,0.2,0.1,0.3
							c0,0-0.6,1.5-1.2,3.1c-0.2,0.7-0.4,2-0.6,3.6c-0.3,2.7-0.8,6.1-1.8,8.3c-1.6,3.5-5.8,6.6-6,6.7
							C203.2,120.3,203.1,120.3,203.1,120.3z M211.9,99.1c-1.3,0.7-4.2,2.4-5.3,4.1c-3,4.5-2.9,10.2-1.9,13.7c0.1,0.5,0.1,1,0,1.4
							c1.4-1.2,3.1-3,4-4.9c0.9-2.2,1.4-5.5,1.7-8.2c0.2-1.6,0.4-3,0.6-3.7C211.4,100.5,211.7,99.7,211.9,99.1z"/>
						<path id="XMLID_4690_" fill="#7AC36C" d="M204.5,119.2c0,0-0.1,0-0.1,0c-0.2-0.1-0.2-0.2-0.2-0.4c0,0,2.1-4.7,2.3-8.4
							c0.3-4.4,2.7-8.9,2.8-9.1c0.1-0.1,0.3-0.2,0.4-0.1c0.1,0.1,0.2,0.3,0.1,0.4c0,0-2.4,4.5-2.7,8.8c-0.3,3.8-2.3,8.4-2.4,8.6
							C204.7,119.2,204.6,119.2,204.5,119.2z"/>
					</g>
					<g id="XMLID_4684_">
						<path id="XMLID_4686_" fill="#7AC36C" d="M203.1,120.3C203.1,120.3,203,120.3,203.1,120.3c-0.3,0-5.4-1.1-8.3-3.7
							c-1.8-1.6-3.6-4.5-5-6.9c-0.8-1.3-1.5-2.5-2-3c-1.2-1.3-2.3-2.3-2.3-2.4c-0.1-0.1-0.1-0.2-0.1-0.3c0-0.1,0.2-0.2,0.3-0.2
							c0.2,0,5.2,0.2,7.6,1.7c4.8,3,7.1,8.4,7.6,12.2c0.1,1,1,1.7,1,1.7c0,0,0,0,0,0c0.7,0.2,1.2,0.3,1.2,0.3c0.2,0,0.3,0.2,0.2,0.4
							C203.3,120.2,203.2,120.3,203.1,120.3z M186.4,104.5c0.5,0.4,1.1,1.1,1.8,1.8c0.5,0.6,1.2,1.8,2.1,3.1
							c1.4,2.3,3.2,5.2,4.9,6.7c1.6,1.4,3.9,2.3,5.6,2.9c-0.2-0.3-0.5-0.8-0.5-1.3c-0.5-3.6-2.8-8.9-7.3-11.7
							C191.2,105,187.9,104.6,186.4,104.5z"/>
						<path id="XMLID_4685_" fill="#7AC36C" d="M201.3,119.9c-0.1,0-0.1,0-0.2-0.1c-0.2-0.1-3.9-3.5-5.7-6.9c-2-3.8-6-6.9-6.1-7
							c-0.1-0.1-0.2-0.3-0.1-0.4c0.1-0.1,0.3-0.2,0.4-0.1c0.2,0.1,4.1,3.2,6.2,7.1c1.7,3.3,5.5,6.7,5.6,6.7c0.1,0.1,0.1,0.3,0,0.4
							C201.5,119.9,201.4,119.9,201.3,119.9z"/>
					</g>
				</g>
				<g id="XMLID_4672_">
					<g id="XMLID_4678_">
						<path id="XMLID_4680_" fill="#7AC36C" d="M198.7,137.8c-0.1,0-0.3-0.1-0.3-0.3c0-0.2,0.1-0.3,0.2-0.3c0,0,0.5-0.1,1.2-0.3
							c0,0,0,0,0,0c0,0,0.9-0.7,1.1-1.7c0.7-3.7,3.2-9.1,8-11.9c2.5-1.4,7.5-1.4,7.7-1.4c0.1,0,0.2,0.1,0.3,0.2c0,0.1,0,0.2-0.1,0.3
							c0,0-1.2,1-2.4,2.3c-0.5,0.5-1.3,1.6-2.1,3c-1.5,2.3-3.4,5.1-5.3,6.7C204.2,136.9,199,137.7,198.7,137.8
							C198.8,137.8,198.7,137.8,198.7,137.8z M215.9,122.6c-1.5,0.1-4.8,0.3-6.6,1.3c-4.7,2.7-7.1,7.8-7.8,11.5
							c-0.1,0.5-0.3,1-0.6,1.3c1.8-0.5,4.1-1.3,5.7-2.7c1.8-1.5,3.7-4.3,5.1-6.6c0.9-1.3,1.6-2.5,2.2-3.1
							C214.8,123.6,215.5,123,215.9,122.6z"/>
						<path id="XMLID_4679_" fill="#7AC36C" d="M200.5,137.4c-0.1,0-0.2,0-0.2-0.1c-0.1-0.1-0.1-0.3,0-0.4c0,0,3.9-3.3,5.8-6.5
							c2.2-3.8,6.3-6.8,6.5-6.9c0.1-0.1,0.3-0.1,0.4,0.1c0.1,0.1,0.1,0.3-0.1,0.4c0,0-4.1,3-6.3,6.7c-1.9,3.3-5.8,6.5-5.9,6.7
							C200.6,137.4,200.6,137.4,200.5,137.4z"/>
					</g>
					<g id="XMLID_4673_">
						<path id="XMLID_4675_" fill="#7AC36C" d="M198.7,137.8c-0.1,0-0.1,0-0.2-0.1c-0.2-0.1-4.4-3.3-5.8-6.9
							c-0.9-2.3-1.2-5.7-1.5-8.4c-0.1-1.6-0.3-2.9-0.5-3.6c-0.5-1.6-1.1-3.1-1.1-3.1c0-0.1,0-0.2,0.1-0.3c0.1-0.1,0.2-0.1,0.3,0
							c0.2,0.1,4.6,2.4,6.1,4.9c3,4.7,2.6,10.7,1.5,14.3c-0.3,0.9,0.1,2,0.2,2c0,0,0,0,0,0c0.6,0.5,1,0.8,1,0.8
							c0.1,0.1,0.2,0.3,0.1,0.4C198.9,137.7,198.8,137.8,198.7,137.8z M190.6,116.2c0.2,0.6,0.5,1.5,0.8,2.4
							c0.2,0.7,0.3,2.1,0.5,3.7c0.2,2.7,0.5,6,1.4,8.2c0.8,1.9,2.5,3.8,3.8,5.1c-0.1-0.4-0.1-0.9,0.1-1.4c1.1-3.5,1.5-9.2-1.4-13.8
							C194.7,118.7,191.9,117,190.6,116.2z"/>
						<path id="XMLID_4674_" fill="#7AC36C" d="M197.3,136.6c-0.1,0-0.2-0.1-0.3-0.2c-0.1-0.2-1.9-4.9-2.1-8.7
							c-0.1-4.3-2.3-8.9-2.4-8.9c-0.1-0.1,0-0.3,0.1-0.4c0.1-0.1,0.3,0,0.4,0.1c0.1,0.2,2.3,4.7,2.4,9.2c0.1,3.7,2,8.4,2,8.5
							c0.1,0.2,0,0.3-0.2,0.4C197.4,136.6,197.4,136.6,197.3,136.6z"/>
					</g>
				</g>
				<g id="XMLID_4661_">
					<g id="XMLID_4667_">
						<path id="XMLID_4669_" fill="#7AC36C" d="M192.6,151.8c-1.9,0-3.4-0.2-3.5-0.2c-0.2,0-0.3-0.2-0.3-0.3c0-0.2,0.2-0.3,0.3-0.3
							c0,0,0.5,0.1,1.3,0.1c0,0,0,0,0,0c0,0,1.1-0.4,1.5-1.3c1.8-3.4,5.8-7.7,11.3-8.9c2.8-0.6,7.6,0.9,7.8,1c0.1,0,0.2,0.1,0.2,0.3
							c0,0.1-0.1,0.2-0.2,0.3c0,0-1.5,0.6-3,1.4c-0.6,0.3-1.7,1.2-2.9,2.2c-2.1,1.7-4.8,3.9-7,4.8
							C196.5,151.7,194.4,151.8,192.6,151.8z M191.6,151.2c1.8,0.1,4.4,0,6.3-0.8c2.2-0.9,4.8-3,6.9-4.7c1.3-1,2.3-1.9,3-2.2
							c0.9-0.5,1.7-0.9,2.3-1.1c-1.5-0.4-4.7-1.2-6.7-0.8c-5.3,1.1-9.2,5.3-10.9,8.6C192.3,150.6,192,151,191.6,151.2z"/>
						<path id="XMLID_4668_" fill="#7AC36C" d="M191,151.8c-0.1,0-0.2-0.1-0.3-0.2c-0.1-0.2,0-0.3,0.2-0.4c0,0,4.8-2,7.5-4.4
							c3.3-3,8.1-4.5,8.3-4.6c0.2-0.1,0.3,0,0.4,0.2c0.1,0.2,0,0.3-0.2,0.4c0,0-4.9,1.6-8.1,4.5c-2.8,2.6-7.5,4.5-7.7,4.5
							C191.1,151.8,191,151.8,191,151.8z"/>
					</g>
					<g id="XMLID_4662_">
						<path id="XMLID_4664_" fill="#7AC36C" d="M189.2,151.6c-0.1,0-0.2,0-0.2-0.1c-0.1-0.2-3.1-4.5-3.4-8.3
							c-0.2-2.4,0.6-5.8,1.2-8.4c0.3-1.5,0.6-2.9,0.7-3.6c0-1.7-0.1-3.3-0.1-3.3c0-0.1,0.1-0.2,0.2-0.3c0.1-0.1,0.2,0,0.3,0.1
							c0.1,0.2,3.6,3.7,4.3,6.5c1.4,5.4-0.7,11-3,14c-0.6,0.8-0.5,1.9-0.5,1.9c0,0,0,0,0,0c0.4,0.7,0.7,1.1,0.7,1.1
							c0.1,0.1,0.1,0.3-0.1,0.4C189.3,151.6,189.3,151.6,189.2,151.6z M188,128.6c0,0.6,0,1.6,0,2.5c0,0.8-0.3,2.1-0.7,3.7
							c-0.6,2.6-1.3,5.9-1.2,8.3c0.1,2.1,1.2,4.4,2.1,6c0.1-0.4,0.2-0.9,0.5-1.3c2.1-3,4.2-8.3,2.9-13.5
							C191.1,132.3,189,129.7,188,128.6z"/>
						<path id="XMLID_4663_" fill="#7AC36C" d="M188.2,150c-0.2,0-0.3-0.1-0.3-0.2c0-0.2-0.4-5.2,0.7-8.9c1.2-4.2,0.5-9.1,0.5-9.2
							c0-0.2,0.1-0.3,0.3-0.3c0.2,0,0.3,0.1,0.3,0.3c0,0.2,0.7,5.2-0.5,9.5c-1,3.6-0.7,8.6-0.7,8.6C188.6,149.9,188.4,150,188.2,150
							C188.3,150,188.2,150,188.2,150z"/>
					</g>
				</g>
				<g id="XMLID_4650_">
					<g id="XMLID_4656_">
						<path id="XMLID_4658_" fill="#7AC36C" d="M185.4,164.6c-3.2,0-6.3-1-6.5-1.1c-0.2-0.1-0.2-0.2-0.2-0.4
							c0.1-0.2,0.2-0.2,0.4-0.2c0,0,0.5,0.2,1.2,0.3c0,0,0,0,0,0c0,0,1.1-0.2,1.7-1c2.3-3,7-6.7,12.6-6.9c2.9-0.1,7.3,2.1,7.5,2.2
							c0.1,0.1,0.2,0.2,0.2,0.3c0,0.1-0.1,0.2-0.2,0.3c0,0-1.6,0.4-3.2,0.9c-0.7,0.2-1.9,0.9-3.2,1.7c-2.4,1.4-5.3,3-7.7,3.6
							C187.1,164.6,186.3,164.6,185.4,164.6z M181.4,163.6c1.8,0.4,4.3,0.7,6.3,0.2c2.3-0.5,5.2-2.2,7.6-3.5
							c1.4-0.8,2.6-1.5,3.3-1.7c0.9-0.3,1.8-0.6,2.4-0.7c-1.4-0.6-4.4-1.9-6.5-1.8c-5.4,0.3-9.9,3.8-12.1,6.7
							C182.2,163.1,181.8,163.4,181.4,163.6z"/>
						<path id="XMLID_4657_" fill="#7AC36C" d="M180.8,164.1c-0.1,0-0.3-0.1-0.3-0.2c0-0.2,0.1-0.3,0.2-0.4c0,0,5-1.2,8.1-3.2
							c3.7-2.4,8.7-3.2,8.9-3.2c0.2,0,0.3,0.1,0.3,0.3c0,0.2-0.1,0.3-0.3,0.3c-0.1,0-5.1,0.8-8.7,3.1
							C185.9,162.9,181,164,180.8,164.1C180.8,164.1,180.8,164.1,180.8,164.1z"/>
					</g>
					<g id="XMLID_4651_">
						<path id="XMLID_4653_" fill="#7AC36C" d="M179,163.6c-0.1,0-0.2-0.1-0.3-0.2c-0.1-0.2-2.4-5-2-8.8c0.2-2.4,1.5-5.6,2.5-8.1
							c0.6-1.5,1.1-2.7,1.2-3.4c0.3-1.7,0.5-3.3,0.5-3.3c0-0.1,0.1-0.2,0.2-0.3c0.1,0,0.2,0,0.3,0.1c0.1,0.2,3,4.3,3.2,7.1
							c0.5,5.6-2.5,10.7-5.2,13.4c-0.7,0.7-0.8,1.8-0.8,1.8c0,0,0,0,0,0c0.3,0.7,0.5,1.1,0.5,1.2c0.1,0.1,0,0.3-0.1,0.4
							C179.1,163.6,179.1,163.6,179,163.6z M181.4,140.7c-0.1,0.6-0.2,1.6-0.4,2.5c-0.1,0.8-0.7,2.1-1.3,3.5c-1,2.5-2.2,5.6-2.5,8
							c-0.2,2.1,0.5,4.5,1.1,6.3c0.1-0.4,0.4-0.8,0.7-1.2c2.6-2.6,5.5-7.5,5-12.9C183.9,144.8,182.3,142,181.4,140.7z"/>
						<path id="XMLID_4652_" fill="#7AC36C" d="M178.3,161.9C178.3,161.9,178.3,161.9,178.3,161.9c-0.2,0-0.3-0.2-0.3-0.3
							c0-0.2,0.5-5.2,2.1-8.7c1.8-3.9,1.9-9.2,1.9-9.3c0-0.2,0.1-0.5,0.3-0.5c0,0,0,0,0,0c0.2,0,0.3,0.4,0.3,0.5
							c0,0.2-0.1,5.4-2,9.4c-1.6,3.4-2,8.5-2,8.5C178.6,161.8,178.5,161.9,178.3,161.9z"/>
					</g>
				</g>
			</g>
			<g id="XMLID_4643_">
				<g id="XMLID_4644_">
					<path id="XMLID_4646_" fill="#7AC36C" d="M185.6,80.3C185.6,80.3,185.5,80.3,185.6,80.3c-0.2,0-0.3-0.1-0.3-0.2
						c0,0,0-0.1,0-0.1c0,0-0.2-1.1-1-1.7c-3.1-2.2-6.8-6.8-7.2-12.4c-0.2-2.9,2-7.4,2.1-7.5c0.1-0.1,0.2-0.2,0.3-0.2
						c0.1,0,0.2,0.1,0.3,0.2c0,0,0.4,1.6,1,3.2c0.2,0.7,0.9,1.8,1.8,3.2c1.4,2.4,3.2,5.3,3.8,7.6c0.7,2.6,0.1,5.9-0.3,7.6
						C185.8,80.2,185.7,80.3,185.6,80.3z M179.3,59.3c-0.6,1.4-1.8,4.5-1.7,6.5c0.4,5.4,4,9.8,7,12c0.4,0.3,0.7,0.7,0.9,1.1
						c0.3-1.8,0.6-4.3,0.1-6.3c-0.6-2.3-2.3-5.2-3.7-7.5c-0.8-1.4-1.5-2.6-1.8-3.3C179.7,60.9,179.5,60,179.3,59.3z"/>
					<path id="XMLID_4645_" fill="#7AC36C" d="M185.7,79.9c-0.1,0-0.3-0.1-0.3-0.2c0,0-1.3-5-3.4-8c-2.5-3.7-3.4-8.6-3.4-8.8
						c0-0.2,0.1-0.3,0.2-0.3c0.2,0,0.3,0.1,0.3,0.2c0,0,0.9,5,3.3,8.6c2.1,3.1,3.4,8,3.4,8.2C186,79.6,185.9,79.8,185.7,79.9
						C185.7,79.9,185.7,79.9,185.7,79.9z"/>
				</g>
			</g>
		</g>
	</g>
	<g id="Геральдический_щит_1_">
		<g id="XMLID_4633_">
			<g id="XMLID_4638_">
				<path id="XMLID_4639_" fill="#7AC36C" d="M112.2,188L112.2,188c-0.3,0-0.5-0.2-0.6-0.4c0-0.1-2.7-4.8-9.2-7.7
					c-5.1-2.3-10.8-2.6-16.2-3c-6.1-0.4-12-0.7-16.5-3.7c-7.1-4.7-11.4-12.6-11.4-21.2V62.5c0,0,0.1-4.2-1.4-6.4
					c-1.5-2.2-6.2-4.5-6.2-4.5c-0.3-0.1-0.4-0.3-0.3-0.6c0.1-0.3,0.4-0.4,0.7-0.4h122.4c0.3,0,0.6,0.1,0.7,0.4
					c0.1,0.3-0.1,0.5-0.4,0.7c0,0-5,2.3-6.5,4.5c-1.5,2.2-1.7,6.3-1.7,6.3v89.5c0,8.6-4,16.5-11.1,21.2c-4.5,3-10.1,3.3-16.2,3.7
					c-5.5,0.3-11.1,0.7-16.2,3c-6.5,2.9-9.1,7.7-9.1,7.7C112.6,187.8,112.4,188,112.2,188z M53.7,51.6c1.6,1,3.7,2.3,4.6,3.7
					c1.8,2.6,1.9,7,1.9,7.2v89.5c0,8.2,3.8,15.7,10.5,20.1c4.2,2.8,9.7,3.1,15.6,3.5c5.6,0.3,11.3,0.7,16.7,3.1
					c5.2,2.3,8.1,5.7,9.2,7.4c1.1-1.6,4-5,9.2-7.4c5.4-2.4,11.1-2.7,16.7-3.1c5.9-0.4,11.5-0.7,15.7-3.5c6.7-4.4,10.7-12,10.7-20.1
					V62.5c0-0.2,0-4.6,1.8-7.2c1-1.4,2.9-2.7,4.5-3.7H53.7z"/>
			</g>
			<path id="XMLID_4637_" fill="#7AC36C" d="M112.4,187.5c-0.2,0-0.5-0.1-0.5-0.3v-8.6c0-0.2,0.3-0.3,0.5-0.3s0.5,0.1,0.5,0.3v8.6
				C112.8,187.4,112.5,187.5,112.4,187.5z"/>
			<g id="XMLID_4634_">
				<path id="XMLID_4636_" fill="#7AC36C" d="M112.2,178.7c-0.2,0-0.4-0.1-0.5-0.3c0,0-2.5-3-8.2-5.6c-4.5-2-9.6-2.3-14.6-2.5
					c-5.5-0.3-10.8-0.6-15.1-3.1c-5.9-3.5-8.7-9.7-8.7-19V70.2l0.1-12.1c0-0.2,0.1-0.3,0.2-0.4c0.1-0.1,0.3-0.2,0.5-0.2h46.2
					c0.4,0,0.7,0.1,0.7,0.5c0,0.4-0.3,0.5-0.7,0.5H66.6l0.4,11.8v78.1c-1,8.8,2.3,14.6,7.7,17.8c4,2.4,8.9,2.6,14.3,2.9
					c5.1,0.3,10.3,0.5,15,2.6c6.1,2.7,8.6,5.8,8.7,6c0.2,0.3,0.2,0.7-0.1,0.9C112.5,178.7,112.3,178.7,112.2,178.7z"/>
				<path id="XMLID_4635_" fill="#7AC36C" d="M112.2,178.7c-0.1,0-0.3,0-0.4-0.1c-0.3-0.2-0.3-0.7-0.1-0.9c0.1-0.1,2.6-3.3,8.7-6
					c4.7-2.1,10-2.4,15.1-2.6c5.4-0.3,10.4-0.5,14.3-2.9c5.4-3.2,7.9-9.1,7.9-17.8V70.2l0.1-11.8h-45.6c-0.4,0-0.7-0.1-0.7-0.5
					c0-0.4,0.3-0.5,0.7-0.5h46.2c0.2,0,0.4,0,0.5,0.2c0.1,0.1,0,0.3,0,0.5l-0.2,12.1v78.1c1,9.3-2.5,15.5-8.3,19
					c-4.3,2.5-9.4,2.8-14.9,3.1c-5,0.3-10,0.5-14.5,2.5c-5.7,2.5-8.1,5.5-8.2,5.6C112.6,178.6,112.4,178.7,112.2,178.7z"/>
			</g>
		</g>
		<g id="XMLID_4630_">
			<path id="XMLID_4632_" fill="#7AC36C" d="M66,58.4c-0.1,0-0.1,0-0.2-0.1c-4.7-4.1-14.7-7-14.8-7c-0.2,0-0.3-0.2-0.2-0.4
				c0-0.2,0.2-0.3,0.4-0.2c0.4,0.1,10.3,2.9,15.1,7.1c0.1,0.1,0.1,0.3,0,0.4C66.1,58.3,66,58.4,66,58.4z"/>
			<path id="XMLID_4631_" fill="#7AC36C" d="M158.4,58.4c-0.1,0-0.2,0-0.2-0.1c-0.1-0.1-0.1-0.3,0-0.4c4.8-4.2,14.7-7,15.1-7.1
				c0.2,0,0.3,0,0.4,0.2c0,0.2,0,0.3-0.2,0.4c-0.1,0-10.2,2.9-14.8,7C158.5,58.3,158.4,58.4,158.4,58.4z"/>
		</g>
	</g>
	<g id="Геральдический_шлем_1_">
		<g id="XMLID_4619_">
			<g id="XMLID_4625_">
				<path id="XMLID_4629_" fill="#7AC36C" d="M104.4,18c-0.1,0-0.2-0.1-0.3-0.2c-0.1-0.2,0-0.3,0.2-0.4c1.2-0.4,2.5-0.7,3.8-0.9
					c0.2,0,0.3,0.1,0.3,0.2c0,0.2-0.1,0.3-0.2,0.3C106.9,17.3,105.7,17.6,104.4,18C104.5,18,104.4,18,104.4,18z"/>
				<path id="XMLID_4628_" fill="#7AC36C" d="M96.3,22.2c-0.1,0-0.2,0-0.2-0.1C96,22,96,21.8,96.1,21.7c1.3-1,2.7-1.9,4.1-2.7
					c0.1-0.1,0.3,0,0.4,0.1c0.1,0.1,0,0.3-0.1,0.4c-1.4,0.7-2.8,1.6-4,2.6C96.4,22.2,96.4,22.2,96.3,22.2z"/>
				<path id="XMLID_4627_" fill="#7AC36C" d="M89.2,30.8c0,0-0.1,0-0.1,0c-0.1-0.1-0.2-0.3-0.1-0.4c0.4-0.8,0.9-1.6,1.4-2.4
					c0.4-0.6,0.9-1.3,1.3-1.9c0.1-0.1,0.3-0.2,0.4-0.1c0.1,0.1,0.2,0.3,0.1,0.4c-0.5,0.6-0.9,1.2-1.3,1.8c-0.5,0.8-1,1.6-1.4,2.4
					C89.5,30.8,89.4,30.8,89.2,30.8z"/>
				<path id="XMLID_4626_" fill="#7AC36C" d="M86.7,38.9C86.7,38.9,86.7,38.9,86.7,38.9c-0.2,0-0.3-0.2-0.3-0.3c0.2-1.5,0.5-3,1-4.4
					c0.1-0.2,0.2-0.2,0.4-0.2c0.2,0.1,0.2,0.2,0.2,0.4c-0.5,1.4-0.8,2.8-1,4.3C87,38.8,86.9,38.9,86.7,38.9z"/>
			</g>
			<g id="XMLID_4620_">
				<path id="XMLID_4624_" fill="#7AC36C" d="M120,18C120,18,119.9,18,120,18c-1.3-0.4-2.5-0.7-3.8-0.9c-0.2,0-0.3-0.2-0.2-0.3
					c0-0.2,0.2-0.3,0.3-0.2c1.3,0.2,2.6,0.5,3.8,0.9c0.2,0,0.2,0.2,0.2,0.4C120.2,17.9,120.1,18,120,18z"/>
				<path id="XMLID_4623_" fill="#7AC36C" d="M128.1,22.2c-0.1,0-0.1,0-0.2-0.1c-1.3-1-2.6-1.9-4-2.6c-0.1-0.1-0.2-0.3-0.1-0.4
					s0.3-0.2,0.4-0.1c1.5,0.8,2.8,1.6,4.1,2.7c0.1,0.1,0.2,0.3,0.1,0.4C128.3,22.2,128.2,22.2,128.1,22.2z"/>
				<path id="XMLID_4622_" fill="#7AC36C" d="M135.1,30.8c-0.1,0-0.2-0.1-0.3-0.2c-0.4-0.8-0.9-1.6-1.4-2.4
					c-0.4-0.6-0.8-1.2-1.3-1.8c-0.1-0.1-0.1-0.3,0.1-0.4c0.1-0.1,0.3-0.1,0.4,0.1c0.5,0.6,0.9,1.2,1.3,1.9c0.5,0.8,1,1.6,1.4,2.4
					c0.1,0.1,0,0.3-0.1,0.4C135.2,30.8,135.2,30.8,135.1,30.8z"/>
				<path id="XMLID_4621_" fill="#7AC36C" d="M137.6,38.9c-0.1,0-0.3-0.1-0.3-0.3c-0.2-1.5-0.5-2.9-1-4.3c-0.1-0.2,0-0.3,0.2-0.4
					c0.2-0.1,0.3,0,0.4,0.2c0.5,1.4,0.8,2.9,1,4.4C138,38.7,137.9,38.8,137.6,38.9C137.7,38.9,137.7,38.9,137.6,38.9z"/>
			</g>
		</g>
		<g id="XMLID_4614_">
			<g id="XMLID_4615_">
				<g id="XMLID_4617_">
					<path id="XMLID_4618_" fill="#7AC36C" d="M108,29.8c0,0-0.1,0-0.1,0c-0.4-0.1-0.6-0.4-0.6-0.8l4.2-28.5c0-0.3,0.3-0.6,0.7-0.6
						h0c0.3,0,0.6,0.2,0.7,0.6L117,29c0.1,0.4-0.2,0.7-0.6,0.8c-0.4,0.1-0.7-0.2-0.8-0.6l-3.5-23.9l-3.6,23.9
						C108.6,29.6,108.3,29.8,108,29.8z"/>
				</g>
				<path id="XMLID_4616_" fill="#7AC36C" d="M112.4,29c-0.2,0-0.5-0.1-0.5-0.3v-28c0-0.2,0.3-0.3,0.5-0.3s0.5,0.1,0.5,0.3v28
					C112.8,28.8,112.5,29,112.4,29z"/>
			</g>
		</g>
		<g id="XMLID_4605_">
			<g id="XMLID_4610_">
				<g id="XMLID_4612_">
					<path id="XMLID_4613_" fill="#7AC36C" d="M125.1,47c-0.3,0-0.6-0.2-0.7-0.6c-0.1-0.4,0.2-0.7,0.6-0.8l23.9-3.5L125,38.6
						c-0.4-0.1-0.6-0.4-0.6-0.8c0.1-0.4,0.4-0.6,0.8-0.6l28.5,4.2c0.3,0,0.6,0.3,0.6,0.7c0,0.3-0.2,0.6-0.6,0.7L125.1,47
						C125.2,47,125.2,47,125.1,47z"/>
				</g>
				<path id="XMLID_4611_" fill="#7AC36C" d="M153.6,42.9h-28c-0.2,0-0.3-0.3-0.3-0.5c0-0.2,0.1-0.5,0.3-0.5h28
					c0.2,0,0.3,0.3,0.3,0.5C153.9,42.5,153.8,42.9,153.6,42.9z"/>
			</g>
			<g id="XMLID_4606_">
				<g id="XMLID_4608_">
					<path id="XMLID_4609_" fill="#7AC36C" d="M99.2,47C99.1,47,99.1,47,99.2,47l-28.6-4.1c-0.3,0-0.6-0.3-0.6-0.7
						c0-0.3,0.2-0.6,0.6-0.7l28.5-4.2c0.4-0.1,0.7,0.2,0.8,0.6c0.1,0.4-0.2,0.7-0.6,0.8l-23.9,3.6l23.9,3.5c0.4,0.1,0.6,0.4,0.6,0.8
						C99.8,46.7,99.5,47,99.2,47z"/>
				</g>
				<path id="XMLID_4607_" fill="#7AC36C" d="M98.7,42.9h-28c-0.2,0-0.3-0.3-0.3-0.5c0-0.2,0.1-0.5,0.3-0.5h28
					c0.2,0,0.3,0.3,0.3,0.5C99,42.5,98.8,42.9,98.7,42.9z"/>
			</g>
		</g>
		<g id="XMLID_4599_">
			<g id="XMLID_4600_">
				<g id="XMLID_4601_">
					<g id="XMLID_4603_">
						<path id="XMLID_4604_" fill="#7AC36C" d="M123.9,36c-0.1,0-0.3,0-0.4-0.1c-0.3-0.2-0.4-0.6-0.1-0.9l11.2-15.1l-15.1,11.3
							c-0.3,0.2-0.7,0.2-0.9-0.1c-0.2-0.3-0.2-0.7,0.1-0.9l18.8-14c0.3-0.2,0.6-0.2,0.9,0.1c0.2,0.2,0.3,0.6,0.1,0.9l-13.9,18.8
							C124.3,35.9,124.1,36,123.9,36z"/>
					</g>
					<path id="XMLID_4602_" fill="#7AC36C" d="M121.8,32.8c-0.1,0-0.2,0-0.2-0.1c-0.1-0.1-0.1-0.3,0-0.4l16-16
						c0.1-0.1,0.3-0.1,0.4,0c0.1,0.1,0.1,0.3,0,0.4l-16,16C121.9,32.8,121.8,32.8,121.8,32.8z"/>
				</g>
			</g>
		</g>
		<g id="XMLID_4593_">
			<g id="XMLID_4594_">
				<g id="XMLID_4595_">
					<g id="XMLID_4597_">
						<path id="XMLID_4598_" fill="#7AC36C" d="M100.4,36c-0.2,0-0.4-0.1-0.5-0.3L86,16.9c-0.2-0.3-0.2-0.6,0.1-0.9
							c0.2-0.2,0.6-0.3,0.9-0.1l18.8,14c0.3,0.2,0.4,0.6,0.1,0.9c-0.2,0.3-0.6,0.4-0.9,0.1L89.8,19.8L101,34.9
							c0.2,0.3,0.2,0.7-0.1,0.9C100.7,35.9,100.6,36,100.4,36z"/>
					</g>
					<path id="XMLID_4596_" fill="#7AC36C" d="M102.5,32.8c-0.1,0-0.2,0-0.2-0.1l-16-16c-0.1-0.1-0.1-0.3,0-0.4s0.3-0.1,0.4,0l16,16
						c0.1,0.1,0.1,0.3,0,0.4C102.7,32.8,102.6,32.8,102.5,32.8z"/>
				</g>
			</g>
		</g>
		<g id="XMLID_4580_">
			<g id="XMLID_4587_">
				<g id="XMLID_4588_">
					<g id="XMLID_4589_">
						<g id="XMLID_4591_">
							<path id="XMLID_4592_" fill="#7AC36C" d="M119.7,30.2C119.7,30.2,119.6,30.1,119.7,30.2c-0.2,0-0.3-0.2-0.3-0.4l3.1-12.4
								l-6,10c-0.1,0.1-0.3,0.2-0.4,0.1c-0.1-0.1-0.2-0.3-0.1-0.4l7-11.8c0.1-0.1,0.2-0.2,0.4-0.1c0.1,0.1,0.2,0.2,0.2,0.3L120,29.9
								C120,30.1,119.8,30.2,119.7,30.2z"/>
						</g>
						<path id="XMLID_4590_" fill="#7AC36C" d="M117.4,30c0,0-0.1,0-0.1,0c-0.2-0.1-0.2-0.2-0.2-0.4l5.9-14.2
							c0.1-0.2,0.2-0.2,0.4-0.2c0.2,0.1,0.2,0.2,0.2,0.4l-5.9,14.2C117.6,29.9,117.5,30,117.4,30z"/>
					</g>
				</g>
			</g>
			<g id="XMLID_4581_">
				<g id="XMLID_4582_">
					<g id="XMLID_4583_">
						<g id="XMLID_4585_">
							<path id="XMLID_4586_" fill="#7AC36C" d="M104.6,30.2c-0.1,0-0.3-0.1-0.3-0.2l-3.6-14.4c0-0.1,0-0.3,0.2-0.3
								c0.1-0.1,0.3,0,0.4,0.1l7,11.8c0.1,0.1,0,0.3-0.1,0.4c-0.1,0.1-0.3,0-0.4-0.1l-6-10l3.1,12.4
								C104.9,29.9,104.8,30.1,104.6,30.2C104.7,30.1,104.6,30.2,104.6,30.2z"/>
						</g>
						<path id="XMLID_4584_" fill="#7AC36C" d="M106.9,30c-0.1,0-0.2-0.1-0.3-0.2l-5.9-14.2c-0.1-0.2,0-0.3,0.2-0.4
							c0.2-0.1,0.3,0,0.4,0.2l5.9,14.2c0.1,0.2,0,0.3-0.2,0.4C107,30,106.9,30,106.9,30z"/>
					</g>
				</g>
			</g>
		</g>
		<g id="XMLID_4567_">
			<g id="XMLID_4574_">
				<g id="XMLID_4575_">
					<g id="XMLID_4576_">
						<g id="XMLID_4578_">
							<path id="XMLID_4579_" fill="#7AC36C" d="M97.3,38.3c-0.1,0-0.1,0-0.2,0l-11.8-7c-0.1-0.1-0.2-0.2-0.1-0.4
								c0.1-0.1,0.2-0.2,0.3-0.2l14.4,3.6c0.2,0,0.3,0.2,0.2,0.4c0,0.2-0.2,0.3-0.4,0.2l-12.4-3.1l10,6c0.1,0.1,0.2,0.3,0.1,0.4
								C97.5,38.3,97.4,38.3,97.3,38.3z"/>
						</g>
						<path id="XMLID_4577_" fill="#7AC36C" d="M99.7,37.2c0,0-0.1,0-0.1,0l-14.2-5.9c-0.2-0.1-0.2-0.2-0.2-0.4
							c0.1-0.2,0.2-0.2,0.4-0.2l14.2,5.9c0.2,0.1,0.2,0.2,0.2,0.4C100,37.1,99.8,37.2,99.7,37.2z"/>
					</g>
				</g>
			</g>
			<g id="XMLID_4568_">
				<g id="XMLID_4569_">
					<g id="XMLID_4570_">
						<g id="XMLID_4572_">
							<path id="XMLID_4573_" fill="#7AC36C" d="M127,38.5c-0.1,0-0.2-0.1-0.3-0.1c-0.1-0.1,0-0.3,0.1-0.4l10-6l-12.6,3.2
								c-0.2,0-0.3-0.1-0.4-0.2c0-0.2,0.1-0.3,0.2-0.4l14.5-3.7c0.1,0,0.3,0,0.4,0.2c0.1,0.1,0,0.3-0.1,0.4l-11.8,7.1
								C127.1,38.5,127.1,38.5,127,38.5z"/>
						</g>
						<path id="XMLID_4571_" fill="#7AC36C" d="M124.6,37.4c-0.1,0-0.2-0.1-0.3-0.2c-0.1-0.2,0-0.3,0.2-0.4l14.2-5.9
							c0.2-0.1,0.3,0,0.4,0.2c0.1,0.2,0,0.3-0.2,0.4l-14.2,5.9C124.7,37.3,124.7,37.4,124.6,37.4z"/>
					</g>
				</g>
			</g>
		</g>
		<path id="XMLID_4564_" fill="#7AC36C" d="M125,46.7H99.3c-0.3,0-0.6-0.1-0.6-0.3C98.2,45,98,43.6,98,42.1
			c0-7.8,6.3-14.1,14.1-14.1c7.8,0,14.1,6.4,14.1,14.2c0,1.5-0.2,2.9-0.7,4.3C125.5,46.7,125.2,46.7,125,46.7z M99.8,45.8h24.6
			c0.3-1,0.5-2.4,0.5-3.6c0-7.1-5.7-12.8-12.8-12.8c-7.1,0-12.8,5.8-12.8,12.8C99.4,43.4,99.5,44.8,99.8,45.8z"/>
		<path id="XMLID_4561_" fill="#7AC36C" d="M122.5,46.7h-20.7c-0.1,0-0.2-0.1-0.3-0.3c-0.6-1.4-0.8-2.8-0.8-4.3
			c0-6.3,5.1-11.5,11.5-11.5c6.3,0,11.5,5.1,11.5,11.5c0,1.5-0.3,3-0.8,4.4C122.7,46.6,122.6,46.7,122.5,46.7z M102,45.8h20.3
			c0.5-1,0.7-2.4,0.7-3.8c0-6-4.9-10.8-10.9-10.8S101.3,36,101.3,42C101.3,43.3,101.5,44.8,102,45.8z"/>
	</g>
	<g id="Гербовая_фигура_1_">
		<g id="XMLID_4552_">
			<g id="XMLID_4558_">
				<g id="XMLID_4559_">
					<path id="XMLID_4560_" fill="#7AC36C" d="M86.3,145.6c-0.1,0-0.2,0-0.2-0.1c-0.1-0.1-0.1-0.3,0-0.5c9-8.5,21.2-8.7,21.3-8.7
						c0,0,0,0,0,0c0.2,0,0.3,0.2,0.3,0.3c0,0.2-0.1,0.3-0.3,0.3c-0.1,0-12.1,0.2-20.9,8.5C86.5,145.6,86.4,145.6,86.3,145.6z"/>
				</g>
			</g>
			<g id="XMLID_4553_">
				<g id="XMLID_4556_">
					<path id="XMLID_4557_" fill="#7AC36C" d="M138.7,145.6c-0.1,0-0.1,0-0.2-0.1c-8.8-8.3-20.8-8.5-20.9-8.5
						c-0.2,0-0.3-0.2-0.3-0.3c0-0.2,0.1-0.3,0.3-0.3c0,0,0,0,0,0c0.1,0,12.3,0.3,21.3,8.7c0.1,0.1,0.1,0.3,0,0.4
						C138.8,145.6,138.8,145.6,138.7,145.6z"/>
				</g>
			</g>
		</g>
		<g id="XMLID_4507_">
			<g id="XMLID_4508_">
				<path id="XMLID_4551_" fill="#7AC36C" d="M112.4,148.9c-0.1,0-0.3,0-0.4-0.1c-0.5-0.3-0.8-1-1-2.1c-0.1-0.3-0.1-0.8-0.2-1.2
					c-0.2-1.6-0.6-3.9-1.3-4.5c-0.3-0.2-2.1,0.7-3.1,1.2c-2.2,1.1-4.4,2.3-5.3,1.3c-0.3-0.3-0.3-0.5-0.3-0.7c0.1-0.7,1-1.4,2.4-2.3
					c1.8-1.2,4-2.7,4.3-4.6c0.4-2.2,0.1-10.1-1.5-12.5c-1.4-1.9-8.4-5.3-12.3-5.5c-0.5,0.3-3.8,2.1-2.4,5.8c0.1,0.2,0,0.3-0.2,0.4
					c-0.2,0.1-0.3,0-0.4-0.2c-1.8-4.4,2.7-6.6,2.7-6.6c0,0,0.1,0,0.1,0c1.6,0.1,4.3,0.9,7,2c1.4,0.6,4.7,2.2,5.8,3.8
					c1.8,2.5,2,10.5,1.6,12.9c-0.4,2.2-2.7,3.7-4.6,5c-1,0.7-2.1,1.4-2.1,1.9c0,0.1,0,0.1,0.1,0.2c0.6,0.6,2.9-0.6,4.6-1.5
					c2-1.1,3.2-1.6,3.8-1.2c0.9,0.8,1.2,3.1,1.5,4.9c0.1,0.4,0.1,0.8,0.2,1.2c0.2,1.2,0.5,1.5,0.7,1.6c0.1,0.1,0.2,0.1,0.2,0.1
					c0.2-0.1,0.3,0,0.4,0.2s0,0.3-0.2,0.4C112.6,148.9,112.5,148.9,112.4,148.9z"/>
				<path id="XMLID_4510_" fill="#7AC36C" d="M112.6,148.9c-0.1,0-0.2,0-0.2,0c-0.2-0.1-0.2-0.2-0.2-0.4c0.1-0.2,0.2-0.2,0.4-0.2
					c0,0,0.1,0,0.2-0.1c0.2-0.1,0.5-0.5,0.7-1.6c0.1-0.3,0.1-0.7,0.2-1.2c0.3-1.8,0.6-4.2,1.5-4.9c0.6-0.5,1.7,0.1,3.8,1.2
					c1.7,0.9,4,2.1,4.6,1.5c0.1-0.1,0.1-0.2,0.1-0.2c0-0.4-1.1-1.2-2.1-1.9c-1.9-1.3-4.2-2.8-4.6-5c-0.4-2.4-0.2-10.4,1.6-12.9
					c1.1-1.6,4.5-3.2,5.8-3.8c2.7-1.1,5.4-1.9,7-2c0.1,0,0.3,0.1,0.3,0.2c0,0.1,0.6,1.5,2.4,2c1.9,0.5,2.7,0.3,2.7,0.3
					c0.2,0,0.3,0.1,0.4,0.2c0,0.2-0.1,0.3-0.2,0.4c0,0-0.9,0.2-3-0.3c-1.7-0.5-2.5-1.7-2.7-2.2c-3.9,0.3-10.8,3.6-12.2,5.5
					c-1.6,2.3-1.9,10.2-1.5,12.5c0.4,1.9,2.6,3.4,4.3,4.6c1.3,0.9,2.3,1.6,2.4,2.3c0,0.2,0,0.5-0.3,0.7c-0.9,0.9-3.2-0.2-5.3-1.3
					c-1.1-0.6-2.8-1.5-3.1-1.2c-0.7,0.6-1,3-1.3,4.5c-0.1,0.4-0.1,0.9-0.2,1.2c-0.2,1.1-0.5,1.8-1,2.1
					C112.9,148.9,112.7,148.9,112.6,148.9z"/>
				<path id="XMLID_4509_" fill="#7AC36C" d="M114.7,120.8c-0.2,0-0.3-0.2-0.3-0.4c0-0.1,0-0.4,0-0.7c-0.3-15.3-1.5-17.4-2-17.7
					c-0.8,0.1-6.6,1-10.7-4.2c-1.5-2-2-5.5-1.4-10.6c0.4-3.7,1.3-7,1.3-7c0-0.2,0.2-0.3,0.4-0.2c0.2,0,0.3,0.2,0.2,0.4
					c0,0.1-3.5,12.6-0.1,17.1c4.1,5.3,10.1,4,10.1,4c0,0,0.1,0,0.1,0c0.9,0.3,2.1,2.4,2.4,18.2c0,0.3,0,0.6,0,0.7
					C115,120.5,114.9,120.8,114.7,120.8C114.7,120.8,114.7,120.8,114.7,120.8z"/>
			</g>
		</g>
		<path id="XMLID_4506_" fill="#7AC36C" d="M102.8,117.8c-0.1,0-0.2,0-0.3-0.1c-0.3-0.5-0.7-1-1.1-1.6c-2-2.7-5-6.8-6.5-15.5
			c-1.4-8.4,2.4-18.5,2.5-18.6c0.1-0.2,0.2-0.2,0.4-0.2c0.2,0.1,0.2,0.2,0.2,0.4c0,0.1-3.9,10-2.5,18.3c1.5,8.5,4.4,12.6,6.4,15.2
			c0.4,0.6,0.8,1.1,1.1,1.6c0.1,0.1,0,0.3-0.1,0.4C102.9,117.8,102.8,117.8,102.8,117.8z"/>
		<path id="XMLID_4505_" fill="#7AC36C" d="M96,104.4c-0.1,0-0.3-0.1-0.3-0.2c0-0.1-1.3-5.1-4.1-6.9c-2.8-1.7-5.3-0.8-5.3-0.8
			c-0.2,0.1-0.3,0-0.4-0.2c-0.1-0.2,0-0.3,0.2-0.4c0.1,0,2.8-1,5.9,0.8c3,1.9,4.3,7,4.4,7.2C96.3,104.2,96.2,104.4,96,104.4
			C96,104.4,96,104.4,96,104.4z"/>
		<path id="XMLID_4504_" fill="#7AC36C" d="M112.2,121.1c-0.2,0-0.3-0.1-0.3-0.3c0-0.1-0.5-5.8-2.2-8.4c-1.7-2.6-4.2-2.6-7.6-2.5
			c-2.3,0.1-4.9,0.1-8-0.6c-7.8-1.8-9.7-6.7-9.8-6.9c-0.1-0.2,0-0.3,0.2-0.4c0.2-0.1,0.3,0,0.4,0.2c0,0,0.5,1.2,1.8,2.6
			c1.3,1.3,3.6,3,7.5,3.9c3,0.7,5.6,0.6,7.9,0.6c3.5-0.1,6.2-0.1,8.1,2.8c1.7,2.7,2.3,8.5,2.3,8.7
			C112.5,120.9,112.4,121,112.2,121.1C112.2,121.1,112.2,121.1,112.2,121.1z"/>
		<path id="XMLID_4503_" fill="#7AC36C" d="M99.7,115.1c-5.4,0-14.3-2.1-14.7-2.2c-0.2,0-0.3-0.2-0.2-0.4c0-0.2,0.2-0.3,0.4-0.2
			c0.1,0,12.2,2.8,16.7,2c4.5-0.8,7.1-3.3,7.1-3.3c0.1-0.1,0.3-0.1,0.4,0c0.1,0.1,0.1,0.3,0,0.4c-0.1,0.1-2.7,2.6-7.4,3.5
			C101.4,115.1,100.6,115.1,99.7,115.1z"/>
		<path id="XMLID_4502_" fill="#7AC36C" d="M109.3,121.6c-0.1,0-0.2-0.1-0.3-0.2c0,0-1.3-2.8-6.3-3.7c-0.2,0-0.3-0.2-0.2-0.3
			c0-0.2,0.2-0.3,0.3-0.2c5.4,1,6.7,3.9,6.7,4c0.1,0.2,0,0.3-0.2,0.4C109.4,121.6,109.3,121.6,109.3,121.6z"/>
		<path id="XMLID_4501_" fill="#7AC36C" d="M117.7,120.3c0,0-0.1,0-0.1,0c-0.1-0.1-0.2-0.3-0.1-0.4c0.2-0.4,4.3-8.8,10.8-10.3
			c6.2-1.4,8.9-16,8.9-16.1c0-0.2,0.2-0.3,0.3-0.2c0.2,0,0.3,0.2,0.2,0.3c0,0-0.7,3.8-2.2,7.7c-2,5.3-4.4,8.3-7.2,8.9
			c-3.2,0.7-5.9,3.4-7.5,5.5c-1.8,2.3-2.9,4.4-2.9,4.5C117.9,120.2,117.8,120.3,117.7,120.3z"/>
		<path id="XMLID_4500_" fill="#7AC36C" d="M100.9,91.8c-0.1,0-0.2,0-0.2,0c-0.2,0-0.3-0.2-0.3-0.3c0-0.2,0.2-0.3,0.3-0.3
			c0,0,2.3,0.2,4.7-2.9c2.5-3.3,3.9-10,4-10.1c0-0.2,0.2-0.3,0.4-0.2c0.2,0,0.3,0.2,0.2,0.4c-0.1,0.3-1.5,7-4.1,10.3
			C103.7,91.6,101.6,91.8,100.9,91.8z"/>
		<path id="XMLID_4499_" fill="#7AC36C" d="M133,105.7C133,105.7,132.9,105.7,133,105.7c-0.1,0-8.6-1.5-10.9-9.9
			c-1.2-4.5,0-15.8,0.1-16.2c0-0.2,0.2-0.3,0.3-0.3c0.2,0,0.3,0.2,0.3,0.3c0,0.1-1.3,11.7-0.1,16c2.2,8,10.3,9.5,10.4,9.5
			c0.2,0,0.3,0.2,0.2,0.3C133.2,105.6,133.1,105.7,133,105.7z"/>
		<path id="XMLID_4498_" fill="#7AC36C" d="M115.5,110.5c-0.7,0-1.2-0.1-1.2-0.2c-0.2-0.1-0.2-0.2-0.2-0.4c0.1-0.2,0.2-0.2,0.4-0.2
			c0.1,0,2.5,0.8,5.5-1.7c2.6-2.2,2.4-6.4,2.4-6.4c0-0.2,0.1-0.3,0.3-0.3c0.2,0,0.3,0.1,0.3,0.3c0,0.2,0.2,4.5-2.6,6.9
			C118.3,110.2,116.6,110.5,115.5,110.5z"/>
		<path id="XMLID_956_" fill="#7AC36C" d="M122.3,96.5c0,0-0.1,0-0.1,0c-0.2-0.1-5.2-2-7.3-5.3c-2.1-3.3-1.1-12.7-1.1-13.1
			c0-0.2,0.2-0.3,0.3-0.3c0.2,0,0.3,0.2,0.3,0.3c0,0.1-1,9.5,1,12.7c2,3.1,7,5,7,5c0.2,0.1,0.2,0.2,0.2,0.4
			C122.6,96.4,122.5,96.5,122.3,96.5z"/>
		<path id="XMLID_955_" fill="#7AC36C" d="M108.3,101.5c-0.1,0-0.1,0-0.2-0.1c-0.1-0.1-0.2-0.3-0.1-0.4c0,0,1.5-2.3,1.5-6.2
			c0-3.7-0.4-4.5-0.4-4.5c-0.1-0.1,0-0.3,0.1-0.4c0.1-0.1,0.3,0,0.4,0.1c0.1,0.1,0.5,0.9,0.5,4.8c0,4.1-1.6,6.4-1.6,6.5
			C108.5,101.5,108.4,101.5,108.3,101.5z"/>
		<path id="XMLID_954_" fill="#7AC36C" d="M128.1,103.7c-0.1,0-0.2,0-0.2-0.1c-0.1-0.1-0.1-0.3,0.1-0.4c0,0,1.6-1.3,2.5-5
			c1.1-4.5-0.9-14-1-14.1c0-0.2,0.1-0.3,0.2-0.4c0.2,0,0.3,0.1,0.4,0.2c0.1,0.4,2.1,9.7,0.9,14.4c-1,3.9-2.7,5.3-2.7,5.3
			C128.3,103.7,128.2,103.7,128.1,103.7z"/>
		<path id="XMLID_953_" fill="#7AC36C" d="M126.1,118.8c-0.2,0-0.3,0.1-0.3-0.1c0-0.1,0-3.1,3.6-5.7c2.3-1.7,11-7.2,11.1-7.2
			c0.1-0.1,0.3,0,0.4,0.1c0.1,0.1,0,0.3-0.1,0.4c-0.1,0.1-8.7,5.6-11,7.3c-3.3,2.4-3.3,5.1-3.3,5.1
			C126.4,118.9,126.3,118.8,126.1,118.8C126.1,118.8,126.1,118.8,126.1,118.8z"/>
		<path id="XMLID_952_" fill="#7AC36C" d="M95,92.5C95,92.5,95,92.5,95,92.5c-0.1,0-1.7,0-2.8-1.5c-1-1.4-0.7-4-0.7-4.1
			c0-0.2,0.2-0.3,0.3-0.2c0.2,0,0.3,0.2,0.3,0.3c0,0-0.3,2.5,0.6,3.8c0.9,1.2,2.3,1.3,2.3,1.3c0.2,0,0.3,0,0.3,0.2
			C95.3,92.5,95.2,92.5,95,92.5z"/>
		<path id="XMLID_1155_" fill="#7AC36C" d="M107,86c-0.1,0-0.1,0-0.2,0c-0.1-0.1-0.7-0.5-1.2-2.6c-0.6-2.2-0.1-4.3-0.1-4.4
			c0-0.2,0.2-0.3,0.4-0.2c0.2,0,0.3,0.2,0.2,0.4c0,0-0.4,2.1,0.1,4.2c0.5,1.9,1,2.3,1,2.3c0.1,0.1,0.2,0.3,0.1,0.4
			C107.2,85.9,107.1,86,107,86z"/>
		<path id="XMLID_1144_" fill="#7AC36C" d="M114.6,89.3c-0.1,0-0.2-0.1-0.3-0.2c-0.1-0.1,0-0.3,0.1-0.4c0,0,2.2-1.2,3.2-3.2
			c1-2,0.7-6.8,0.7-6.9c0-0.2,0.1-0.3,0.3-0.3c0.2,0,0.3,0.1,0.3,0.3c0,0.2,0.4,5.1-0.7,7.2c-1.1,2.1-3.4,3.4-3.5,3.4
			C114.7,89.3,114.6,89.3,114.6,89.3z"/>
		<path id="XMLID_1088_" fill="#7AC36C" d="M109.8,96.1c0,0-0.1,0-0.1,0c0,0-0.8-0.4-2.2-1.9c-1.4-1.6-1.1-3.6-1.1-3.7
			c0-0.2,0.2-0.3,0.3-0.2c0.2,0,0.3,0.2,0.2,0.3c0,0-0.3,1.8,1,3.2c1.3,1.4,2,1.8,2,1.8c0.1,0.1,0.2,0.3,0.1,0.4
			C110,96,109.9,96.1,109.8,96.1z"/>
		<path id="XMLID_1087_" fill="#7AC36C" d="M109.2,83.6c-0.5,0-0.9-0.1-0.9-0.1c-0.2,0-0.3-0.2-0.2-0.4c0-0.2,0.2-0.3,0.4-0.2l0,0
			c0.1,0,2.4,0.6,3.5-1.6c0.1-0.1,0.3-0.2,0.4-0.1c0.1,0.1,0.2,0.3,0.1,0.4C111.7,83.3,110.1,83.6,109.2,83.6z"/>
		<path id="XMLID_951_" fill="#7AC36C" d="M122.1,86.1c-0.1,0-0.3-0.1-0.3-0.2c0-0.2,0.1-0.3,0.2-0.4l0,0c0.1,0,2.7-0.7,3.9-3.8
			c0.1-0.2,0.2-0.2,0.4-0.2c0.2,0.1,0.2,0.2,0.2,0.4C125.2,85.3,122.3,86,122.1,86.1C122.2,86.1,122.1,86.1,122.1,86.1z"/>
		<path id="XMLID_950_" fill="#7AC36C" d="M88.3,101.4c-2.4,0-3.4-1.3-3.5-1.4c-0.1-0.1-0.1-0.3,0-0.4c0.1-0.1,0.3-0.1,0.4,0
			c0.1,0.1,1.3,1.5,4.1,1c2.8-0.5,3.3-2.2,3.3-2.3c0-0.2,0.2-0.3,0.4-0.2c0.2,0,0.3,0.2,0.2,0.4c0,0.1-0.6,2.3-3.8,2.8
			C89.1,101.3,88.7,101.4,88.3,101.4z"/>
		<path id="XMLID_1076_" fill="#7AC36C" d="M88.7,110.2c-2.2,0-4.3-1-4.4-1c-0.1-0.1-0.2-0.3-0.1-0.4c0.1-0.1,0.3-0.2,0.4-0.1
			c0,0,2.3,1.1,4.5,1c2.2-0.2,3.6-1.1,3.6-1.1c0.1-0.1,0.3-0.1,0.4,0.1c0.1,0.1,0.1,0.3-0.1,0.4c-0.1,0-1.6,1-3.9,1.2
			C89.1,110.2,88.9,110.2,88.7,110.2z"/>
		<path id="XMLID_949_" fill="#7AC36C" d="M130.8,92.1C130.8,92.1,130.7,92.1,130.8,92.1c-0.1,0-1.6-0.5-3-2.4c-1.5-2-1.1-4.4-1-4.5
			c0-0.2,0.2-0.3,0.3-0.2c0.2,0,0.3,0.2,0.2,0.3c0,0-0.4,2.3,0.9,4c1.3,1.8,2.6,2.2,2.6,2.2c0.2,0,0.2,0.2,0.2,0.4
			C131,92,130.9,92.1,130.8,92.1z"/>
		<path id="XMLID_1069_" fill="#7AC36C" d="M135.8,99.3c-0.1,0-0.2,0-0.2-0.1c-0.1-0.1-1.5-2.2-2-4.6c-0.5-2.4,0.1-6.1,0.2-6.3
			c0-0.2,0.2-0.3,0.3-0.2c0.2,0,0.3,0.2,0.2,0.3c0,0-0.6,3.8-0.2,6.1c0.5,2.3,1.9,4.4,1.9,4.4c0.1,0.1,0.1,0.3-0.1,0.4
			C135.9,99.3,135.9,99.3,135.8,99.3z"/>
		<path id="XMLID_1068_" fill="#7AC36C" d="M136.7,108.8c-0.1,0-0.3-0.1-0.3-0.2c0-0.1-0.3-1.4,0.3-3.1c1-3,2.7-5.3,2.8-5.3
			c0.1-0.1,0.3-0.2,0.4-0.1c0.1,0.1,0.2,0.3,0.1,0.4c0,0-1.7,2.3-2.7,5.2c-0.5,1.5-0.2,2.8-0.2,2.8
			C137,108.6,136.9,108.8,136.7,108.8C136.8,108.8,136.7,108.8,136.7,108.8z"/>
		<path id="XMLID_948_" fill="#7AC36C" d="M133.9,120.2c-0.1,0-0.2-0.1-0.3-0.2c-0.1-0.1-1.3-2.9,2.1-6.3c1.9-1.9,4.3-2.1,4.4-2.1
			c0.2,0,0.3,0.1,0.3,0.3c0,0.2-0.1,0.3-0.3,0.3c0,0-2.3,0.2-4,1.9c-3.1,3.1-2,5.5-2,5.6c0.1,0.2,0,0.3-0.1,0.4
			C134,120.2,134,120.2,133.9,120.2z"/>
		<path id="XMLID_947_" fill="#7AC36C" d="M87.1,118.8c-0.2,0-0.3-0.3-0.3-0.4c0-0.2,0.1-0.4,0.3-0.4c0,0,2-0.1,3.4-1.3
			c1.6-1.3,1.6-2.3,1.6-2.4c0-0.2,0.1-0.4,0.3-0.4c0,0,0,0,0,0c0.2,0,0.3,0.2,0.3,0.4c0,0,0,1.4-1.8,2.9
			C89.2,118.6,87.1,118.8,87.1,118.8C87.1,118.8,87.1,118.8,87.1,118.8z"/>
		<path id="XMLID_946_" fill="#7AC36C" d="M105.8,104.8c-0.5,0-1,0-1.5-0.2c-4.4-0.9-6.5-5-6.5-5.2c-0.1-0.1,0-0.3,0.1-0.4
			c0.1-0.1,0.3,0,0.4,0.1c0,0,2,4,6.1,4.9c4,0.8,5.9-2.1,5.9-2.2c0.1-0.1,0.3-0.2,0.4-0.1c0.1,0.1,0.2,0.3,0.1,0.4
			c0,0-0.5,0.9-1.6,1.6C108.5,104.2,107.4,104.8,105.8,104.8z"/>
		<path id="XMLID_945_" fill="#7AC36C" d="M117,96.7c-2.5,0-4.3-1.7-4.4-1.8c-0.1-0.1-0.1-0.3,0-0.4c0.1-0.1,0.3-0.1,0.4,0
			c0,0,1.8,1.6,4,1.6c2.3,0,3.5-0.8,3.5-0.8c0.1-0.1,0.3,0,0.4,0.1s0,0.3-0.1,0.4C120.8,95.8,119.4,96.7,117,96.7z"/>
		<path id="XMLID_944_" fill="#7AC36C" d="M129.8,100.8C129.8,100.8,129.8,100.8,129.8,100.8c-0.1,0-1.6-0.3-3.1-3.1
			c-1.3-2.5-0.6-4.5-0.5-4.6c0.1-0.2,0.2-0.2,0.4-0.2c0.2,0.1,0.2,0.2,0.2,0.4l0,0c0,0-0.6,1.9,0.5,4.1c1.3,2.5,2.6,2.8,2.6,2.8
			c0.2,0,0.3,0.2,0.2,0.3C130,100.7,129.9,100.8,129.8,100.8z"/>
		<path id="XMLID_943_" fill="#7AC36C" d="M132.9,125.5c-0.1,0-0.2-0.1-0.3-0.2c-1.8-3.4-0.5-6.1-0.5-6.2c0.1-0.1,0.3-0.2,0.4-0.1
			c0.1,0.1,0.2,0.3,0.1,0.4c0,0-1.2,2.5,0.5,5.6c0.1,0.1,0,0.3-0.1,0.4C132.9,125.5,132.9,125.5,132.9,125.5z"/>
		<path id="XMLID_942_" fill="#7AC36C" d="M118.6,109.4c0,0-0.1,0-0.1,0c-0.1-0.1-1-0.6-1.3-3.6c-0.4-3.3,1-6.2,1-6.3
			c0.1-0.1,0.3-0.2,0.4-0.1c0.1,0.1,0.2,0.2,0.1,0.4c0,0-1.4,2.9-1,6c0.3,2.6,1,3.1,1,3.2c0.1,0.1,0.2,0.3,0.1,0.4
			C118.8,109.4,118.7,109.4,118.6,109.4z"/>
		<path id="XMLID_941_" fill="#7AC36C" d="M124.6,111.8c-0.1,0-0.2-0.1-0.3-0.2c0-0.1-0.5-1.4-0.4-3.7c0.1-2.4,1.5-3.7,1.6-3.7
			c0.1-0.1,0.3-0.1,0.4,0c0.1,0.1,0.1,0.3,0,0.4l0,0c0,0-1.2,1.2-1.4,3.3c-0.1,2.2,0.3,3.5,0.3,3.5c0.1,0.2,0,0.3-0.2,0.4
			C124.6,111.8,124.6,111.8,124.6,111.8z"/>
	</g>
	<g id="Девиз_1_">
		<g id="XMLID_929_">
			<g id="XMLID_934_">
				<path id="XMLID_940_" fill="#7AC36C" d="M48.9,200.2c-8.6,0-12.6-3.2-14.7-4.9l0,0c-2.4-1.9-2-6.5-1-7.9
					c0.2-0.3,0.6-0.4,0.9-0.2c0.3,0.2,0.4,0.6,0.2,0.9c-0.5,0.7-1.1,4.5,0.7,6l0,0c2.2,1.7,5.7,4.6,13.9,4.6
					c8.2,0,62.7-8.1,63.2-8.2c0.4-0.1,0.7,0.2,0.8,0.6c0.1,0.4-0.2,0.7-0.6,0.8C110,192.3,57.2,200.2,48.9,200.2z"/>
				<path id="XMLID_939_" fill="#7AC36C" d="M48.8,223.5c-8.6,0-12.6-3.2-14.7-4.9l0,0c-1.1-0.9-1.7-2.4-1.8-4.2
					c0-0.4,0.3-0.7,0.7-0.7c0.4,0,0.7,0.3,0.7,0.7c0,0.8,0.2,2.4,1.3,3.2l0,0c2.2,1.7,5.7,4.6,13.9,4.6c8.2,0,62.7-8.1,63.2-8.2
					c0.4-0.1,0.7,0.2,0.8,0.6c0.1,0.4-0.2,0.7-0.6,0.8C110,215.6,57.1,223.5,48.8,223.5z"/>
				<path id="XMLID_938_" fill="#7AC36C" d="M33,215c-0.4,0-1-0.3-1-0.7V191c0-0.4,0.6-0.7,1-0.7c0.4,0,1,0.3,1,0.7v23.3
					C34,214.6,33.4,215,33,215z"/>
			</g>
			<path id="XMLID_933_" fill="#7AC36C" d="M76.2,197.1c-0.2,0-0.4-0.1-0.6-0.3c-0.2-0.3-0.1-0.7,0.2-0.9c0.5-0.3,3.5-3.7,6.5-7.2
				c-1.8,0.5-4.4,0.9-7.3,0.4c-1.6-0.3-3.6-1-5.7-1.7c-3.2-1.1-6.8-2.4-8.1-1.7c-0.1,0.1-0.2,0.2-0.3,0.3c0.4,0.2,1.4,0.5,2.1,0.7
				c1.9,0.5,3.7,1,3.8,2.3c0.1,0.8-0.3,1.5-0.9,1.9c-1.7,1.3-5.4,0.6-7.5-0.2c-1.3-0.5-2.6-1.6-4.1-2.8c-2.4-2-5.2-4.3-8.7-4.5
				c-9.3-0.5-11.2,4.6-11.2,4.8c-0.1,0.4-0.5,0.5-0.9,0.4c-0.4-0.1-0.5-0.5-0.4-0.8c0.1-0.3,2.2-6.3,12.6-5.7c4,0.2,7,2.8,9.5,4.9
				c1.4,1.2,2.6,2.2,3.7,2.6c2.2,0.8,5.2,1.2,6.2,0.4c0.2-0.2,0.3-0.4,0.3-0.7c-0.2-0.4-1.9-0.8-2.8-1.1c-1.7-0.4-2.7-0.7-3-1.4
				c-0.1-0.2-0.2-0.5-0.1-0.8c0.2-0.6,0.6-1,1.1-1.3c1.8-0.9,5.4,0.3,9.2,1.6c2,0.7,4,1.4,5.5,1.7c4.9,0.9,8.9-1.2,8.9-1.2
				c0.3-0.2,0.6-0.1,0.8,0.2c0.2,0.3,0.2,0.6,0,0.9c-1.2,1.5-7.4,8.8-8.4,9.5C76.5,197.1,76.4,197.1,76.2,197.1z"/>
			<path id="XMLID_932_" fill="#7AC36C" d="M66.1,198.5c-0.4,0-1-0.3-1-0.7v-8.9c0-0.4,0.6-0.7,1-0.7c0.4,0,1,0.3,1,0.7v8.9
				C67.1,198.2,66.5,198.5,66.1,198.5z"/>
			<path id="XMLID_931_" fill="#7AC36C" d="M60.3,191.1c-0.4,0-1-0.3-1-0.7V186c0-0.4,0.6-0.7,1-0.7s1,0.3,1,0.7v4.3
				C61.2,190.8,60.6,191.1,60.3,191.1z"/>
		</g>
		<g id="XMLID_627_">
			<g id="XMLID_741_">
				<path id="XMLID_870_" fill="#7AC36C" d="M190.6,218.7c-0.1,0-0.3,0-0.4-0.1c-0.3-0.2-0.4-0.6-0.2-0.9c0.5-0.7,1.1-4.5-0.7-6l0,0
					c-2.2-1.7-5.8-4.6-13.9-4.6c-8.2,0-62.7,8.1-63.2,8.2c-0.4,0.1-0.7-0.2-0.8-0.6c-0.1-0.4,0.2-0.7,0.6-0.8
					c2.2-0.3,55.1-8.2,63.4-8.2c8.6,0,12.6,3.2,14.7,4.9l0,0c2.4,1.9,2,6.5,1,7.9C191,218.6,190.8,218.7,190.6,218.7z"/>
				<path id="XMLID_745_" fill="#7AC36C" d="M191.3,191.9c-0.4,0-0.7-0.1-0.7-0.5c0-0.8-0.2-2.3-1.3-3.1l0,0
					c-2.2-1.7-5.8-4.6-13.9-4.6c-8.2,0-62.7,8.2-63.2,8.2c-0.4,0.1-0.7-0.2-0.8-0.6c-0.1-0.4,0.2-0.7,0.6-0.8
					c2.2-0.3,55.1-8.2,63.4-8.2c8.6,0,12.6,3.2,14.7,4.9l0,0c1.1,0.9,1.7,2.2,1.8,4.1C192,191.7,191.7,191.9,191.3,191.9
					C191.3,191.9,191.3,191.9,191.3,191.9z"/>
				<path id="XMLID_744_" fill="#7AC36C" d="M191.2,215.5c-0.4,0-0.5-0.3-0.5-0.7v-23.3c0-0.4,0.1-0.7,0.5-0.7
					c0.4,0,0.5,0.3,0.5,0.7v23.3C191.7,215.2,191.6,215.5,191.2,215.5z"/>
			</g>
			<path id="XMLID_637_" fill="#7AC36C" d="M180,224c-0.4,0-0.9,0-1.4,0c-4-0.2-7-2.8-9.5-4.9c-1.4-1.2-2.6-2.2-3.7-2.6
				c-2.2-0.8-5.2-1.2-6.2-0.4c-0.2,0.2-0.3,0.4-0.3,0.7c0.2,0.4,1.9,0.8,2.8,1.1c1.7,0.4,2.7,0.7,3,1.4c0.1,0.2,0.2,0.5,0.1,0.8
				c-0.2,0.6-0.6,1-1.1,1.3c-1.8,0.9-5.4-0.3-9.2-1.6c-2-0.7-4-1.4-5.5-1.7c-4.9-0.9-8.9,1.2-8.9,1.2c-0.3,0.2-0.6,0.1-0.8-0.2
				c-0.2-0.3-0.2-0.6,0-0.9c1.2-1.5,7.4-8.8,8.4-9.5c0.3-0.2,0.7-0.1,0.9,0.2c0.2,0.3,0.1,0.7-0.2,0.9c-0.5,0.3-3.5,3.7-6.5,7.2
				c1.8-0.5,4.4-0.9,7.3-0.4c1.6,0.3,3.6,1,5.7,1.7c3.2,1.1,6.8,2.4,8.1,1.7c0.1-0.1,0.2-0.2,0.3-0.3c-0.4-0.2-1.4-0.5-2.1-0.7
				c-1.9-0.5-3.7-1-3.8-2.3c-0.1-0.8,0.3-1.5,0.9-1.9c1.7-1.3,5.4-0.6,7.5,0.2c1.3,0.5,2.6,1.6,4.1,2.8c2.4,2,5.2,4.3,8.7,4.5
				c9.4,0.5,11.2-4.8,11.2-4.8c0.1-0.4,0.5-0.5,0.9-0.4c0.4,0.1,0.5,0.5,0.4,0.9C191.2,218.5,189.2,224,180,224z"/>
			<path id="XMLID_636_" fill="#7AC36C" d="M158.1,217.6c-0.4,0-0.5-0.3-0.5-0.7V208c0-0.4,0.1-0.7,0.5-0.7s0.5,0.3,0.5,0.7v8.9
				C158.6,217.3,158.5,217.6,158.1,217.6z"/>
			<path id="XMLID_633_" fill="#7AC36C" d="M164,220.5c-0.4,0-0.5-0.3-0.5-0.7v-4.3c0-0.4,0.1-0.7,0.5-0.7c0.4,0,0.5,0.3,0.5,0.7
				v4.3C164.5,220.2,164.3,220.5,164,220.5z"/>
		</g>
	</g>
</g>
</svg>
