<?xml version="1.0" encoding="utf-8"?>
<!-- Generator: Adobe Illustrator 19.0.0, SVG Export Plug-In . SVG Version: 6.00 Build 0)  -->
<svg version="1.1" id="Слой_1" xmlns="http://www.w3.org/2000/svg" xmlns:xlink="http://www.w3.org/1999/xlink" x="0px" y="0px"
	 viewBox="0 0 80 24" enable-background="new 0 0 80 24" xml:space="preserve">
<path id="XMLID_3356_" fill="#FFFFFF" d="M12.4,6h1.8c0.3,0,0.7,0.3,0.7,0.6V8h0c0.8-1,2-2,3.6-2c3.4,0,5.4,2.7,5.4,6.1
	c0,3.4-2.1,5.8-5.3,5.8c-2.1,0-3-0.9-3.6-1.9h0v7.4c0,0.3-0.3,0.6-0.7,0.6h-1.8c-0.3,0-0.5-0.3-0.5-0.6V6.6C11.8,6.3,12,6,12.4,6z
	 M17.8,8.4c-2.1,0-3.3,1.9-3.3,3.6s1.3,3.7,3.3,3.7c2.2,0,3-1.9,3-3.6C20.9,10.3,20,8.4,17.8,8.4z"/>
<path id="XMLID_3351_" fill="#FFFFFF" d="M36.5,18h-1.8c-0.3,0-0.8-0.3-0.8-0.6V16H34c-0.8,1-2,2-3.6,2c-3.4,0-5.4-2.7-5.4-6.1
	c0-3.4,2.1-5.8,5.3-5.8c2.1,0,3,0.9,3.6,1.9h-0.2V0.6c0-0.3,0.5-0.6,0.8-0.6l1.8,0c0.3,0,0.3,0.3,0.3,0.6v16.8
	C36.8,17.7,36.8,18,36.5,18z M30.7,15.6c2.1,0,3.3-1.9,3.3-3.6s-1.3-3.7-3.3-3.7c-2.2,0-3,1.9-3,3.6C27.7,13.7,28.6,15.6,30.7,15.6z
	"/>
<path id="XMLID_3345_" fill="#FFFFFF" d="M38.8,17.4V0.6c0-0.3,0.8-0.6,1.1-0.6l1.8,0c0.3,0,0.1,0.3,0.1,0.6V8h0.6
	C43,7,44,6.1,46,6.1c3.2,0,5.3,2.5,5.3,5.9c0,3.3-1.9,6-5.4,6c-1.6,0-2.8-1-3.6-2h-0.5v1.4c0,0.3,0.2,0.6-0.1,0.6h-1.8
	C39.6,18,38.8,17.7,38.8,17.4z M48.4,12c0-1.8-0.9-3.6-3-3.6c-2.1,0-3.3,1.9-3.3,3.7s1.3,3.6,3.3,3.6C47.6,15.6,48.4,13.7,48.4,12z"
	/>
<path id="XMLID_3342_" fill="#FFFFFF" d="M52.8,17.4V0.6c0-0.3,0.3-0.6,0.6-0.6l1.8,0c0.3,0,0.6,0.3,0.6,0.6V8h0.1
	c0.6-1,1.6-1.9,3.6-1.9c3.2,0,5.3,2.5,5.3,5.9c0,3.3-1.9,6-5.4,6c-1.6,0-2.8-1-3.6-2h0v1.4c0,0.3-0.3,0.6-0.6,0.6h-1.8
	C53.1,18,52.8,17.7,52.8,17.4z M61.9,12c0-1.8-0.9-3.6-3-3.6c-2.1,0-3.3,1.9-3.3,3.7s1.3,3.6,3.3,3.6C61.1,15.6,61.9,13.7,61.9,12z"
	/>
<path id="XMLID_3340_" fill="#FFFFFF" d="M66.9,0h1.8c0.3,0,0.1,0.3,0.1,0.6V11h0.6l4.3-5c0.1-0.1,0.3,0,0.4,0h2.1
	c0.5,0,0.8,0.6,0.4,1l-4.3,4.7l4.3,5.3c0.3,0.4,0,1-0.5,1H74c-0.2,0-0.4-0.1-0.5-0.3L69.4,12h-0.6v5.4c0,0.3,0.2,0.6-0.1,0.6h-1.8
	c-0.3,0-1.1-0.3-1.1-0.6V0.6C65.8,0.3,66.6,0,66.9,0z"/>
<path id="XMLID_3338_" fill="#FFFFFF" d="M8.8,9.1c-0.2,0.2-0.6,0.2-0.8,0c-0.5-0.4-1.3-0.7-2-0.7C4,8.4,3,10.2,3,12
	s1.1,3.6,3.2,3.6c0.7,0,1.5-0.2,2-0.7C8.4,14.8,8.7,14.8,9,15L9.9,16c0.3,0.3,0.2,0.7-0.1,0.9C8.9,17.6,7.6,18,6.1,18
	C2.8,18,0,15.8,0,12c0-3.7,2.7-6,6.1-6c1.4,0,2.8,0.5,3.8,1.3c0.3,0.2,0.3,0.7,0,0.9L8.8,9.1z"/>
</svg>
