<?xml version="1.0" encoding="utf-8"?>
<!-- Generator: Adobe Illustrator 19.0.0, SVG Export Plug-In . SVG Version: 6.00 Build 0)  -->
<svg version="1.1" id="Слой_1" xmlns="http://www.w3.org/2000/svg" xmlns:xlink="http://www.w3.org/1999/xlink" x="0px" y="0px"
	 viewBox="30 -30 80 80" enable-background="new 30 -30 80 80" xml:space="preserve">
<g>
	<path fill="#F0AC31" d="M69.7-18.1c-0.3,0-0.5-0.2-0.5-0.5v-11c0-0.3,0.2-0.5,0.5-0.5s0.5,0.2,0.5,0.5v11
		C70.2-18.3,70-18.1,69.7-18.1z"/>
	<path fill="#F0AC31" d="M60.3-17.1c-0.2,0-0.4-0.1-0.5-0.3l-3.7-10.3c-0.1-0.3,0-0.6,0.3-0.7c0.3-0.1,0.6,0,0.7,0.3l3.7,10.3
		c0.1,0.3,0,0.6-0.3,0.7C60.4-17.1,60.4-17.1,60.3-17.1z"/>
	<path fill="#F0AC31" d="M50.7-13.9c-0.1,0-0.3-0.1-0.4-0.2l-7-8.4c-0.2-0.2-0.2-0.5,0.1-0.7c0.2-0.2,0.5-0.2,0.7,0.1l7,8.4
		c0.2,0.2,0.2,0.5-0.1,0.7C50.9-13.9,50.8-13.9,50.7-13.9z"/>
	<path fill="#F0AC31" d="M42.4-7c-0.1,0-0.2,0-0.2-0.1l-9.6-5.3c-0.2-0.1-0.3-0.4-0.2-0.7c0.1-0.2,0.5-0.3,0.7-0.2L42.6-8
		c0.2,0.1,0.3,0.4,0.2,0.7C42.7-7.1,42.6-7,42.4-7z"/>
	<path fill="#F0AC31" d="M79.3-17.1c-0.1,0-0.1,0-0.2,0c-0.3-0.1-0.4-0.4-0.3-0.7l3.7-10.3c0.1-0.3,0.4-0.4,0.7-0.3
		c0.3,0.1,0.4,0.4,0.3,0.7l-3.7,10.3C79.7-17.3,79.5-17.1,79.3-17.1z"/>
	<path fill="#F0AC31" d="M88.9-13.9c-0.1,0-0.2,0-0.3-0.1c-0.2-0.2-0.2-0.5-0.1-0.7l7-8.4c0.2-0.2,0.5-0.2,0.7-0.1
		c0.2,0.2,0.2,0.5,0.1,0.7l-7,8.4C89.2-14,89.1-13.9,88.9-13.9z"/>
	<path fill="#F0AC31" d="M97.2-7c-0.2,0-0.4-0.1-0.4-0.3c-0.1-0.2,0-0.6,0.2-0.7l9.6-5.3c0.2-0.1,0.6,0,0.7,0.2
		c0.1,0.2,0,0.6-0.2,0.7l-9.6,5.3C97.4-7,97.3-7,97.2-7z"/>
</g>
<g>
	<ellipse fill="#212932" cx="42.6" cy="41.7" rx="6" ry="1.3"/>
	<path fill="#F0AC1B" d="M42.6,43.5c-1.1,0-6.5-0.1-6.5-1.8c0-1.8,5.4-1.8,6.5-1.8s6.5,0.1,6.5,1.8C49.2,43.4,43.7,43.5,42.6,43.5z
		 M37.2,41.7c0.5,0.3,2.3,0.8,5.4,0.8s4.9-0.5,5.4-0.8c-0.5-0.3-2.3-0.8-5.4-0.8C39.5,40.8,37.7,41.3,37.2,41.7z"/>
</g>
<g>
	<ellipse fill="#212932" cx="99.1" cy="31.5" rx="5.1" ry="1.1"/>
	<path fill="#F0AC1B" d="M99.1,33.1c-0.9,0-5.6-0.1-5.6-1.7c0-1.6,4.7-1.7,5.6-1.7c0.9,0,5.6,0.1,5.6,1.7
		C104.8,33.1,100.1,33.1,99.1,33.1z M94.6,31.5c0.5,0.3,2.1,0.6,4.5,0.6c2.4,0,4-0.4,4.5-0.6c-0.5-0.3-2.1-0.6-4.5-0.6
		C96.7,30.9,95.1,31.2,94.6,31.5z"/>
</g>
<g>
	<g>
		<polygon fill="#212932" points="104.2,31.5 104.2,31.5 104.2,31.5 		"/>
		<path fill="#F0AC1B" d="M104.3,32c-0.3,0-0.5-0.2-0.5-0.5s0.2-0.5,0.5-0.5h0c0.3,0,0.5,0.2,0.5,0.5S104.5,32,104.3,32z"/>
	</g>
	<g>
		<path fill="#212932" d="M94,31.5L94,31.5c0,0.6,2.3,1.1,5.1,1.1c2.8,0,5.1-0.5,5.1-1.1v3.1c0,0.6-2.3,1.1-5.1,1.1
			c-2.8,0-5.1-0.5-5.1-1.1V31.5L94,31.5z"/>
		<path fill="#F0AC1B" d="M99.1,36.2c-0.9,0-5.6-0.1-5.6-1.7v-3.1c0-0.3,0.2-0.5,0.5-0.5c0.3,0,0.5,0.2,0.5,0.4
			c0.3,0.3,1.9,0.7,4.6,0.7c2.7,0,4.3-0.5,4.6-0.7c0-0.2,0.3-0.4,0.5-0.4c0.3,0,0.5,0.2,0.5,0.5v3.1
			C104.8,36.2,100.1,36.2,99.1,36.2z M94.5,34.5c0.3,0.3,1.9,0.7,4.6,0.7c2.7,0,4.3-0.5,4.6-0.7v-2c-1.4,0.6-4,0.6-4.6,0.6
			c-0.7,0-3.2,0-4.6-0.6V34.5z"/>
	</g>
</g>
<g>
	<ellipse fill="#212932" cx="96.8" cy="27.7" rx="5.1" ry="1.1"/>
	<path fill="#F0AC1B" d="M96.8,29.3c-0.9,0-5.6-0.1-5.6-1.7c0-1.6,4.7-1.7,5.6-1.7c0.9,0,5.6,0.1,5.6,1.7
		C102.4,29.3,97.7,29.3,96.8,29.3z M92.3,27.7c0.5,0.3,2.1,0.6,4.5,0.6c2.4,0,4-0.4,4.5-0.6c-0.5-0.3-2.1-0.6-4.5-0.6
		C94.3,27.1,92.8,27.4,92.3,27.7z"/>
</g>
<g>
	<g>
		<polygon fill="#212932" points="101.9,27.7 101.9,27.7 101.9,27.7 		"/>
		<path fill="#F0AC1B" d="M101.9,28.2c-0.3,0-0.5-0.2-0.5-0.5s0.2-0.5,0.5-0.5h0c0.3,0,0.5,0.2,0.5,0.5S102.2,28.2,101.9,28.2z"/>
	</g>
	<g>
		<path fill="#212932" d="M91.6,27.7L91.6,27.7c0,0.6,2.3,1.1,5.1,1.1c2.8,0,5.1-0.5,5.1-1.1v3.1c0,0.6-2.3,1.1-5.1,1.1
			c-2.8,0-5.1-0.5-5.1-1.1V27.7L91.6,27.7z"/>
		<path fill="#F0AC1B" d="M96.8,32.4c-0.9,0-5.6-0.1-5.6-1.7v-3.1c0-0.3,0.2-0.5,0.5-0.5c0.3,0,0.5,0.2,0.5,0.4
			c0.3,0.3,1.9,0.7,4.6,0.7c2.7,0,4.3-0.5,4.6-0.7c0-0.2,0.3-0.4,0.5-0.4c0.3,0,0.5,0.2,0.5,0.5v3.1C102.4,32.4,97.7,32.4,96.8,32.4
			z M92.1,30.7c0.3,0.3,1.9,0.7,4.6,0.7c2.7,0,4.3-0.5,4.6-0.7v-2c-1.4,0.6-4,0.6-4.6,0.6c-0.7,0-3.2,0-4.6-0.6V30.7z"/>
	</g>
</g>
<g>
	<ellipse fill="#212932" cx="99.1" cy="23.9" rx="5.1" ry="1.1"/>
	<path fill="#F0AC1B" d="M99.1,25.6c-0.9,0-5.6-0.1-5.6-1.7c0-1.6,4.7-1.7,5.6-1.7c0.9,0,5.6,0.1,5.6,1.7
		C104.8,25.5,100.1,25.6,99.1,25.6z M94.6,23.9c0.5,0.3,2.1,0.6,4.5,0.6c2.4,0,4-0.4,4.5-0.6c-0.5-0.3-2.1-0.6-4.5-0.6
		C96.7,23.3,95.1,23.7,94.6,23.9z"/>
</g>
<g>
	<g>
		<polygon fill="#212932" points="104.2,23.9 104.2,23.9 104.2,23.9 		"/>
		<path fill="#F0AC1B" d="M104.3,24.4c-0.3,0-0.5-0.2-0.5-0.5s0.2-0.5,0.5-0.5h0c0.3,0,0.5,0.2,0.5,0.5S104.5,24.4,104.3,24.4z"/>
	</g>
	<g>
		<path fill="#212932" d="M94,23.9L94,23.9c0,0.6,2.3,1.1,5.1,1.1c2.8,0,5.1-0.5,5.1-1.1V27c0,0.6-2.3,1.1-5.1,1.1
			c-2.8,0-5.1-0.5-5.1-1.1V23.9L94,23.9z"/>
		<path fill="#F0AC1B" d="M99.1,28.7c-0.9,0-5.6-0.1-5.6-1.7v-3.1c0-0.3,0.2-0.5,0.5-0.5c0.3,0,0.5,0.2,0.5,0.4
			c0.3,0.3,1.9,0.7,4.6,0.7c2.7,0,4.3-0.5,4.6-0.7c0-0.2,0.3-0.4,0.5-0.4c0.3,0,0.5,0.2,0.5,0.5V27C104.8,28.6,100.1,28.7,99.1,28.7
			z M94.5,27c0.3,0.3,1.9,0.7,4.6,0.7c2.7,0,4.3-0.5,4.6-0.7v-2c-1.4,0.6-4,0.6-4.6,0.6c-0.7,0-3.2,0-4.6-0.6V27z"/>
	</g>
</g>
<g>
	<ellipse fill="#212932" cx="94.8" cy="20.4" rx="5.1" ry="1.1"/>
	<path fill="#F0AC1B" d="M94.8,22.1c-0.9,0-5.6-0.1-5.6-1.7c0-1.6,4.7-1.7,5.6-1.7c0.9,0,5.6,0.1,5.6,1.7
		C100.4,22,95.7,22.1,94.8,22.1z M90.3,20.4c0.5,0.3,2.1,0.6,4.5,0.6c2.4,0,4-0.4,4.5-0.6c-0.5-0.3-2.1-0.6-4.5-0.6
		C92.3,19.8,90.8,20.2,90.3,20.4z"/>
</g>
<g>
	<g>
		<polygon fill="#212932" points="99.9,20.4 99.9,20.4 99.9,20.4 		"/>
		<path fill="#F0AC1B" d="M99.9,21c-0.3,0-0.5-0.2-0.5-0.5s0.2-0.5,0.5-0.5h0c0.3,0,0.5,0.2,0.5,0.5S100.2,21,99.9,21z"/>
	</g>
	<g>
		<path fill="#212932" d="M89.6,20.4L89.6,20.4c0,0.6,2.3,1.1,5.1,1.1c2.8,0,5.1-0.5,5.1-1.1v3.1c0,0.6-2.3,1.1-5.1,1.1
			c-2.8,0-5.1-0.5-5.1-1.1V20.4L89.6,20.4z"/>
		<path fill="#F0AC1B" d="M94.8,25.2c-0.9,0-5.6-0.1-5.6-1.7v-3.1c0-0.3,0.2-0.5,0.5-0.5c0.3,0,0.5,0.2,0.5,0.4
			c0.3,0.3,1.9,0.7,4.6,0.7s4.3-0.5,4.6-0.7c0-0.2,0.3-0.4,0.5-0.4c0.3,0,0.5,0.2,0.5,0.5v3.1C100.4,25.1,95.7,25.2,94.8,25.2z
			 M90.1,23.5c0.3,0.3,1.9,0.7,4.6,0.7s4.3-0.5,4.6-0.7v-2c-1.4,0.6-4,0.6-4.6,0.6c-0.7,0-3.2,0-4.6-0.6V23.5z"/>
	</g>
</g>
<path fill="none" stroke="#F0AC31" stroke-linecap="round" stroke-linejoin="round" stroke-miterlimit="10" d="M69.4-10"/>
<path fill="#F0AC31" d="M52.2,42.8c-0.1,0-0.2,0-0.3-0.1c-0.5-0.2-0.8-0.8-0.6-1.3c0.2-0.6,0.3-1.2,0.3-1.8c0-2.9-2.4-5.3-5.3-5.3
	c-0.6,0-1.2,0.1-1.7,0.3c-0.5,0.2-1.1-0.1-1.3-0.6c-0.2-0.5,0.1-1.1,0.6-1.3c0.8-0.3,1.6-0.4,2.4-0.4c4.1,0,7.4,3.3,7.4,7.4
	c0,0.8-0.1,1.7-0.4,2.4C53,42.6,52.6,42.8,52.2,42.8z"/>
<path fill="none" stroke="#F0AC31" stroke-width="2" stroke-linecap="round" stroke-linejoin="round" stroke-miterlimit="10" d="
	M43.6,12.2"/>
<g>
	<path fill="#212932" d="M93.3,10.1h2.6v31.7H44.1V10.1h2.2l0,0l-2.2-9.9c0-4.3,3.5-7.7,7.7-7.7h36.2c4.3,0,7.7,3.5,7.7,7.7
		L93.3,10.1L93.3,10.1z"/>
	<path fill="#F0AC31" d="M95.8,42.9H44.1c-0.6,0-1-0.5-1-1V10.1c0-0.6,0.5-1,1-1h0.9l-1.9-8.7c0-0.1,0-0.1,0-0.2
		c0-4.8,3.9-8.8,8.8-8.8h36.2c4.8,0,8.8,3.9,8.8,8.8c0,0.1,0,0.2,0,0.3l-2.2,8.6h1.2c0.6,0,1,0.5,1,1v31.7
		C96.8,42.4,96.4,42.9,95.8,42.9z M45.2,40.8h49.6V11.1h-1.5c-0.6,0-1-0.5-1-1c0-0.1,0-0.3,0.1-0.4l2.5-9.6c-0.1-3.6-3-6.6-6.7-6.6
		H51.9c-3.7,0-6.6,2.9-6.7,6.6l2.2,9.8c0.1,0.3,0,0.6-0.2,0.9c-0.2,0.2-0.5,0.4-0.8,0.4h-1.2V40.8z"/>
</g>
<path fill="none" stroke="#F0AC31" stroke-linecap="round" stroke-linejoin="round" stroke-miterlimit="10" d="M70,3.5"/>
<path fill="#F0AC31" d="M95.8,0.7H44.1c-0.3,0-0.5-0.2-0.5-0.5s0.2-0.5,0.5-0.5h51.7c0.3,0,0.5,0.2,0.5,0.5S96.1,0.7,95.8,0.7z"/>
<g>
	<path fill="#212932" d="M70,4.8L70,4.8c-1.1,0-2.1-0.9-2.1-2.1v-4.3h4.1v4.3C72.1,3.9,71.1,4.8,70,4.8z"/>
	<path fill="#F0AC31" d="M70,5.3c-1.4,0-2.6-1.2-2.6-2.6v-4.3c0-0.3,0.2-0.5,0.5-0.5h4.1c0.3,0,0.5,0.2,0.5,0.5v4.3
		C72.6,4.1,71.4,5.3,70,5.3z M68.4-1.1v3.8c0,0.9,0.7,1.5,1.5,1.5c0.9,0,1.5-0.7,1.5-1.5v-3.8H68.4z"/>
</g>
<path fill="#F0AC31" d="M94.6-3.4h-8.5c-0.3,0-0.5-0.2-0.5-0.5s0.2-0.5,0.5-0.5h8.5c0.3,0,0.5,0.2,0.5,0.5S94.9-3.4,94.6-3.4z"/>
<path fill="#F0AC31" d="M83.6-3.4h-2.6c-0.3,0-0.5-0.2-0.5-0.5s0.2-0.5,0.5-0.5h2.6c0.3,0,0.5,0.2,0.5,0.5S83.8-3.4,83.6-3.4z"/>
<path fill="#F0AC31" d="M49.1-3.2h-3.9c-0.3,0-0.5-0.2-0.5-0.5s0.2-0.5,0.5-0.5h3.9c0.3,0,0.5,0.2,0.5,0.5S49.4-3.2,49.1-3.2z"/>
<path fill="#F0AC31" d="M54.1-3.2h-2c-0.3,0-0.5-0.2-0.5-0.5s0.2-0.5,0.5-0.5h2c0.3,0,0.5,0.2,0.5,0.5S54.4-3.2,54.1-3.2z"/>
<path fill="#F0AC31" d="M93.3,10.6H46.3c-0.3,0-0.5-0.2-0.5-0.5s0.2-0.5,0.5-0.5h46.9c0.3,0,0.5,0.2,0.5,0.5S93.5,10.6,93.3,10.6z"
	/>
<path fill="#F0AC31" d="M87.6,14.3H52.3c-0.3,0-0.5-0.2-0.5-0.5s0.2-0.5,0.5-0.5h35.3c0.3,0,0.5,0.2,0.5,0.5S87.9,14.3,87.6,14.3z"
	/>
<g>
	<path fill="#212932" d="M73.6,21.6h-7.3c-1.1,0-2.1-0.9-2.1-2.1v-7.3c0-1.1,0.9-2.1,2.1-2.1h7.3c1.1,0,2.1,0.9,2.1,2.1v7.3
		C75.7,20.6,74.8,21.6,73.6,21.6z"/>
	<path fill="#F0AC31" d="M73.6,22.1h-7.3c-1.4,0-2.6-1.1-2.6-2.6v-7.3c0-1.4,1.1-2.6,2.6-2.6h7.3c1.4,0,2.6,1.1,2.6,2.6v7.3
		C76.2,20.9,75.1,22.1,73.6,22.1z M66.3,10.6c-0.8,0-1.5,0.7-1.5,1.5v7.3c0,0.8,0.7,1.5,1.5,1.5h7.3c0.8,0,1.5-0.7,1.5-1.5v-7.3
		c0-0.8-0.7-1.5-1.5-1.5H66.3z"/>
</g>
<path fill="#F0AC31" d="M70.9,19.9H69c-0.3,0-0.5-0.2-0.5-0.5v-3c-0.7-0.5-1.1-1.3-1.1-2.1c0-1.4,1.2-2.6,2.6-2.6
	c1.4,0,2.6,1.2,2.6,2.6c0,0.9-0.4,1.7-1.1,2.1v3C71.4,19.7,71.2,19.9,70.9,19.9z M69.6,18.9h0.8v-2.8c0-0.2,0.1-0.4,0.3-0.5
	c0.5-0.3,0.9-0.8,0.9-1.4c0-0.9-0.7-1.6-1.6-1.6c-0.9,0-1.6,0.7-1.6,1.6c0,0.6,0.3,1.1,0.9,1.4c0.2,0.1,0.3,0.3,0.3,0.5V18.9z"/>
<path fill="#F0AC31" d="M93.8,19c-3.8,0-6.9-3.1-6.9-6.9c0-0.8,0.1-1.5,0.4-2.2c0.1-0.3,0.4-0.4,0.7-0.3c0.3,0.1,0.4,0.4,0.3,0.7
	c-0.2,0.6-0.3,1.2-0.3,1.9c0,3.2,2.6,5.8,5.8,5.8c0.6,0,1.3-0.1,1.9-0.3c0.3-0.1,0.6,0.1,0.6,0.3c0.1,0.3-0.1,0.6-0.3,0.6
	C95.3,18.9,94.5,19,93.8,19z"/>
<path fill="#F0AC31" d="M92,34.1c-0.3,0-0.5-0.2-0.5-0.5V18.3c0-0.3,0.2-0.5,0.5-0.5s0.5,0.2,0.5,0.5v15.4
	C92.5,33.9,92.3,34.1,92,34.1z"/>
<path fill="#F0AC31" d="M87.8,42.3c-0.2,0-0.4-0.1-0.5-0.3c-0.3-0.7-0.4-1.5-0.4-2.3c0-3.8,3.1-6.9,6.9-6.9c0.7,0,1.5,0.1,2.2,0.4
	c0.3,0.1,0.4,0.4,0.3,0.6c-0.1,0.3-0.4,0.4-0.6,0.3c-0.6-0.2-1.2-0.3-1.9-0.3c-3.2,0-5.8,2.6-5.8,5.8c0,0.7,0.1,1.3,0.3,1.9
	c0.1,0.3,0,0.6-0.3,0.7C87.9,42.3,87.8,42.3,87.8,42.3z"/>
<path fill="#F0AC31" d="M87.6,38.6H52.3c-0.3,0-0.5-0.2-0.5-0.5s0.2-0.5,0.5-0.5h35.3c0.3,0,0.5,0.2,0.5,0.5S87.9,38.6,87.6,38.6z"
	/>
<g>
	<g>
		<polygon fill="#212932" points="36.7,41.7 36.7,41.7 36.7,41.7 		"/>
		<path fill="#F0AC1B" d="M36.7,42.2c-0.3,0-0.5-0.2-0.5-0.5s0.2-0.5,0.5-0.5h0c0.3,0,0.5,0.2,0.5,0.5S37,42.2,36.7,42.2z"/>
	</g>
	<g>
		<path fill="#212932" d="M48.6,41.7L48.6,41.7c0,0.7-2.7,1.3-6,1.3c-3.3,0-6-0.6-6-1.3v3.6c0,0.7,2.7,1.3,6,1.3c3.3,0,6-0.6,6-1.3
			V41.7L48.6,41.7z"/>
		<path fill="#F0AC1B" d="M42.6,47.1c-1.1,0-6.5-0.1-6.5-1.8v-3.6c0-0.3,0.2-0.5,0.5-0.5s0.5,0.2,0.5,0.5c0.2,0.2,2.1,0.8,5.5,0.8
			c3.3,0,5.2-0.6,5.5-0.9c0,0,0-0.1,0-0.1c0-0.2,0.2-0.4,0.5-0.4c0.3,0,0.5,0.3,0.5,0.6v3.6C49.2,47,43.7,47.1,42.6,47.1z
			 M37.2,42.8v2.5c0.2,0.2,2.1,0.8,5.5,0.8c3.4,0,5.3-0.6,5.5-0.9l0-2.4c-1.6,0.7-4.7,0.7-5.5,0.7C41.9,43.5,38.8,43.4,37.2,42.8z"
			/>
	</g>
</g>
<g>
	<ellipse fill="#212932" cx="63" cy="44.6" rx="6" ry="1.3"/>
	<path fill="#F0AC1B" d="M63,46.5c-1.1,0-6.5-0.1-6.5-1.8c0-1.8,5.4-1.8,6.5-1.8s6.5,0.1,6.5,1.8C69.5,46.4,64.1,46.5,63,46.5z
		 M57.6,44.6c0.5,0.3,2.3,0.8,5.4,0.8c3.1,0,4.9-0.5,5.4-0.8c-0.5-0.3-2.3-0.8-5.4-0.8C59.9,43.8,58.1,44.3,57.6,44.6z"/>
</g>
<g>
	<g>
		<polygon fill="#212932" points="57,44.6 57,44.6 57,44.6 		"/>
		<path fill="#F0AC1B" d="M57.1,45.1c-0.3,0-0.5-0.2-0.5-0.5s0.2-0.5,0.5-0.5h0c0.3,0,0.5,0.2,0.5,0.5S57.3,45.1,57.1,45.1z"/>
	</g>
	<g>
		<path fill="#212932" d="M69,44.6L69,44.6c0,0.7-2.7,1.3-6,1.3c-3.3,0-6-0.6-6-1.3v3.6c0,0.7,2.7,1.3,6,1.3c3.3,0,6-0.6,6-1.3V44.6
			L69,44.6z"/>
		<path fill="#F0AC1B" d="M63,50.1c-1.1,0-6.5-0.1-6.5-1.8v-3.6c0-0.3,0.2-0.5,0.5-0.5s0.5,0.2,0.5,0.5c0.2,0.2,2.1,0.8,5.5,0.8
			c3.3,0,5.2-0.6,5.5-0.9c0,0,0-0.1,0-0.1c0-0.2,0.2-0.4,0.5-0.4c0.3,0,0.5,0.3,0.5,0.6v3.6C69.5,50,64.1,50.1,63,50.1z M57.6,45.7
			v2.5c0.2,0.2,2.1,0.8,5.5,0.8c3.4,0,5.3-0.6,5.5-0.9l0-2.4c-1.6,0.7-4.7,0.7-5.5,0.7C62.2,46.5,59.2,46.4,57.6,45.7z"/>
	</g>
</g>
<g>
	<ellipse fill="#212932" cx="85.3" cy="41" rx="6" ry="1.3"/>
	<path fill="#F0AC1B" d="M85.3,42.8c-1.1,0-6.5-0.1-6.5-1.8c0-1.8,5.4-1.8,6.5-1.8c1.1,0,6.5,0.1,6.5,1.8
		C91.8,42.7,86.4,42.8,85.3,42.8z M79.9,41c0.5,0.3,2.3,0.8,5.4,0.8c3.1,0,4.9-0.5,5.4-0.8c-0.5-0.3-2.3-0.8-5.4-0.8
		C82.2,40.2,80.4,40.7,79.9,41z"/>
</g>
<g>
	<g>
		<polygon fill="#212932" points="79.3,41 79.3,41 79.3,41 		"/>
		<path fill="#F0AC1B" d="M79.3,41.5c-0.3,0-0.5-0.2-0.5-0.5s0.2-0.5,0.5-0.5h0c0.3,0,0.5,0.2,0.5,0.5S79.6,41.5,79.3,41.5z"/>
	</g>
	<g>
		<path fill="#212932" d="M91.3,41L91.3,41c0,0.7-2.7,1.3-6,1.3s-6-0.6-6-1.3v3.6c0,0.7,2.7,1.3,6,1.3s6-0.6,6-1.3V41L91.3,41z"/>
		<path fill="#F0AC1B" d="M85.3,46.5c-1.1,0-6.5-0.1-6.5-1.8V41c0-0.3,0.2-0.5,0.5-0.5s0.5,0.2,0.5,0.5c0.2,0.2,2.1,0.8,5.5,0.8
			c3.3,0,5.2-0.6,5.5-0.9c0,0,0-0.1,0-0.1c0-0.2,0.2-0.4,0.5-0.4c0.3,0,0.5,0.3,0.5,0.6v3.6C91.8,46.4,86.4,46.5,85.3,46.5z
			 M79.8,42.1v2.5c0.2,0.2,2.1,0.8,5.5,0.8c3.4,0,5.3-0.6,5.5-0.9l0-2.4c-1.6,0.7-4.7,0.7-5.5,0.7C84.5,42.8,81.5,42.8,79.8,42.1z"
			/>
	</g>
</g>
<g>
	<ellipse fill="#212932" cx="60.1" cy="41" rx="6" ry="1.3"/>
	<path fill="#F0AC1B" d="M60.1,42.8c-1.1,0-6.5-0.1-6.5-1.8c0-1.8,5.4-1.8,6.5-1.8s6.5,0.1,6.5,1.8C66.7,42.7,61.2,42.8,60.1,42.8z
		 M54.7,41c0.5,0.3,2.3,0.8,5.4,0.8s4.9-0.5,5.4-0.8c-0.5-0.3-2.3-0.8-5.4-0.8S55.2,40.7,54.7,41z"/>
</g>
<g>
	<g>
		<polygon fill="#212932" points="54.2,41 54.2,41 54.2,41 		"/>
		<path fill="#F0AC1B" d="M54.2,41.5c-0.3,0-0.5-0.2-0.5-0.5s0.2-0.5,0.5-0.5h0c0.3,0,0.5,0.2,0.5,0.5S54.5,41.5,54.2,41.5z"/>
	</g>
	<g>
		<path fill="#212932" d="M66.1,41L66.1,41c0,0.7-2.7,1.3-6,1.3s-6-0.6-6-1.3v3.6c0,0.7,2.7,1.3,6,1.3s6-0.6,6-1.3V41L66.1,41z"/>
		<path fill="#F0AC1B" d="M60.1,46.5c-1.1,0-6.5-0.1-6.5-1.8V41c0-0.3,0.2-0.5,0.5-0.5s0.5,0.2,0.5,0.5c0.2,0.2,2.1,0.8,5.5,0.8
			c3.3,0,5.2-0.6,5.5-0.9c0,0,0-0.1,0-0.1c0-0.2,0.2-0.4,0.5-0.4c0.3,0,0.5,0.3,0.5,0.6v3.6C66.7,46.4,61.2,46.5,60.1,46.5z
			 M54.7,42.1v2.5c0.2,0.2,2.1,0.8,5.5,0.8c3.4,0,5.3-0.6,5.5-0.9l0-2.4c-1.6,0.7-4.7,0.7-5.5,0.7C59.4,42.8,56.3,42.8,54.7,42.1z"
			/>
	</g>
</g>
<g>
	<g>
		<polygon fill="#212932" points="39.7,37.8 39.7,37.8 39.7,37.8 		"/>
		<path fill="#F0AC1B" d="M39.8,38.4c-0.3,0-0.5-0.2-0.5-0.5s0.2-0.5,0.5-0.5h0c0.3,0,0.5,0.2,0.5,0.5S40,38.4,39.8,38.4z"/>
	</g>
	<g>
		<path fill="#212932" d="M51.7,37.8L51.7,37.8c0,0.7-2.7,1.3-6,1.3c-3.3,0-6-0.6-6-1.3v3.6c0,0.7,2.7,1.3,6,1.3c3.3,0,6-0.6,6-1.3
			V37.8L51.7,37.8z"/>
		<path fill="#F0AC1B" d="M45.7,43.3c-1.1,0-6.5-0.1-6.5-1.8v-3.6c0-0.3,0.2-0.5,0.5-0.5s0.5,0.2,0.5,0.5c0.2,0.2,2.1,0.8,5.5,0.8
			c3.3,0,5.2-0.6,5.5-0.9c0,0,0-0.1,0-0.1c0-0.2,0.2-0.4,0.5-0.4c0.3,0,0.5,0.3,0.5,0.6v3.6C52.2,43.2,46.8,43.3,45.7,43.3z
			 M40.3,38.9v2.5c0.2,0.2,2.1,0.8,5.5,0.8c3.4,0,5.3-0.6,5.5-0.9l0-2.4c-1.6,0.7-4.7,0.7-5.5,0.7C44.9,39.7,41.9,39.6,40.3,38.9z"
			/>
	</g>
</g>
<g>
	<ellipse fill="#212932" cx="45.7" cy="37.8" rx="6" ry="1.3"/>
	<path fill="#F0AC1B" d="M45.7,39.7c-1.1,0-6.5-0.1-6.5-1.8c0-1.8,5.4-1.8,6.5-1.8c1.1,0,6.5,0.1,6.5,1.8
		C52.2,39.6,46.8,39.7,45.7,39.7z M40.3,37.8c0.5,0.3,2.3,0.8,5.4,0.8c3.1,0,4.9-0.5,5.4-0.8c-0.5-0.3-2.3-0.8-5.4-0.8
		C42.6,37,40.8,37.5,40.3,37.8z"/>
</g>
<path fill="#F0AC31" d="M47.9,34.1c-0.3,0-0.5-0.2-0.5-0.5V18.3c0-0.3,0.2-0.5,0.5-0.5s0.5,0.2,0.5,0.5v15.3
	C48.4,33.9,48.1,34.1,47.9,34.1z"/>
<g>
	<g>
		<polygon fill="#212932" points="37.5,34 37.5,34 37.5,34 		"/>
		<path fill="#F0AC1B" d="M37.5,34.5c-0.3,0-0.5-0.2-0.5-0.5s0.2-0.5,0.5-0.5h0c0.3,0,0.5,0.2,0.5,0.5S37.8,34.5,37.5,34.5z"/>
	</g>
	<g>
		<path fill="#212932" d="M49.5,34L49.5,34c0,0.7-2.7,1.3-6,1.3s-6-0.6-6-1.3v3.6c0,0.7,2.7,1.3,6,1.3s6-0.6,6-1.3V34L49.5,34z"/>
		<path fill="#F0AC1B" d="M43.5,39.5c-1.1,0-6.5-0.1-6.5-1.8V34c0-0.3,0.2-0.5,0.5-0.5S38,33.7,38,34c0.2,0.2,2.1,0.8,5.5,0.8
			c3.3,0,5.2-0.6,5.5-0.9c0,0,0-0.1,0-0.1c0-0.2,0.2-0.4,0.5-0.4c0.3,0,0.5,0.3,0.5,0.6v3.6C50,39.4,44.6,39.5,43.5,39.5z M38,35.1
			v2.5c0.2,0.2,2.1,0.8,5.5,0.8s5.3-0.6,5.5-0.9l0-2.4c-1.6,0.7-4.7,0.7-5.5,0.7C42.7,35.9,39.7,35.8,38,35.1z"/>
	</g>
</g>
<g>
	<ellipse fill="#212932" cx="43.5" cy="34" rx="6" ry="1.3"/>
	<path fill="#F0AC1B" d="M43.5,35.9c-1.1,0-6.5-0.1-6.5-1.8c0-1.8,5.4-1.8,6.5-1.8c1.1,0,6.5,0.1,6.5,1.8
		C50,35.8,44.6,35.9,43.5,35.9z M38.1,34c0.5,0.3,2.3,0.8,5.4,0.8s4.9-0.5,5.4-0.8c-0.5-0.3-2.3-0.8-5.4-0.8
		C40.4,33.2,38.6,33.7,38.1,34z"/>
</g>
<g>
	<g>
		<polygon fill="#212932" points="34,30.4 34,30.4 34,30.4 		"/>
		<path fill="#F0AC1B" d="M34.1,31c-0.3,0-0.5-0.2-0.5-0.5s0.2-0.5,0.5-0.5h0c0.3,0,0.5,0.2,0.5,0.5S34.3,31,34.1,31z"/>
	</g>
	<g>
		<path fill="#212932" d="M46,30.4L46,30.4c0,0.7-2.7,1.3-6,1.3s-6-0.6-6-1.3v3.6c0,0.7,2.7,1.3,6,1.3s6-0.6,6-1.3V30.4L46,30.4z"/>
		<path fill="#F0AC1B" d="M40,35.9c-1.1,0-6.5-0.1-6.5-1.8v-3.6c0-0.3,0.2-0.5,0.5-0.5s0.5,0.2,0.5,0.5c0.2,0.2,2.1,0.8,5.5,0.8
			c3.3,0,5.2-0.6,5.5-0.9c0,0,0-0.1,0-0.1c0-0.2,0.2-0.4,0.5-0.4c0.3,0,0.5,0.3,0.5,0.6v3.6C46.5,35.8,41.1,35.9,40,35.9z
			 M34.6,31.5v2.5c0.2,0.2,2.1,0.8,5.5,0.8s5.3-0.6,5.5-0.9l0-2.4c-1.6,0.7-4.7,0.7-5.5,0.7C39.2,32.3,36.2,32.2,34.6,31.5z"/>
	</g>
</g>
<g>
	<ellipse fill="#212932" cx="40" cy="30.4" rx="6" ry="1.3"/>
	<path fill="#F0AC1B" d="M40,32.3c-1.1,0-6.5-0.1-6.5-1.8c0-1.8,5.4-1.8,6.5-1.8s6.5,0.1,6.5,1.8C46.5,32.2,41.1,32.3,40,32.3z
		 M34.6,30.4c0.5,0.3,2.3,0.8,5.4,0.8c3.1,0,4.9-0.5,5.4-0.8c-0.5-0.3-2.3-0.8-5.4-0.8S35.1,30.1,34.6,30.4z"/>
</g>
<g>
	<g>
		<polygon fill="#212932" points="37.5,26.8 37.5,26.8 37.5,26.8 		"/>
		<path fill="#F0AC1B" d="M37.5,27.3c-0.3,0-0.5-0.2-0.5-0.5s0.2-0.5,0.5-0.5h0c0.3,0,0.5,0.2,0.5,0.5S37.8,27.3,37.5,27.3z"/>
	</g>
	<g>
		<path fill="#212932" d="M49.5,26.8L49.5,26.8c0,0.7-2.7,1.3-6,1.3s-6-0.6-6-1.3v3.6c0,0.7,2.7,1.3,6,1.3s6-0.6,6-1.3V26.8
			L49.5,26.8z"/>
		<path fill="#F0AC1B" d="M43.5,32.3c-1.1,0-6.5-0.1-6.5-1.8v-3.6c0-0.3,0.2-0.5,0.5-0.5s0.5,0.2,0.5,0.5c0.2,0.2,2.1,0.8,5.5,0.8
			c3.3,0,5.2-0.6,5.5-0.9c0,0,0-0.1,0-0.1c0-0.2,0.2-0.4,0.5-0.4c0.3,0,0.5,0.3,0.5,0.6v3.6C50,32.2,44.6,32.3,43.5,32.3z M38,27.9
			v2.5c0.2,0.2,2.1,0.8,5.5,0.8c3.4,0,5.3-0.6,5.5-0.9l0-2.4c-1.6,0.7-4.7,0.7-5.5,0.7C42.7,28.7,39.7,28.6,38,27.9z"/>
	</g>
</g>
<g>
	<ellipse fill="#212932" cx="43.5" cy="26.8" rx="6" ry="1.3"/>
	<path fill="#F0AC1B" d="M43.5,28.7c-1.1,0-6.5-0.1-6.5-1.8c0-1.8,5.4-1.8,6.5-1.8s6.5,0.1,6.5,1.8C50,28.6,44.6,28.7,43.5,28.7z
		 M38.1,26.8c0.5,0.3,2.3,0.8,5.4,0.8c3.1,0,4.9-0.5,5.4-0.8c-0.5-0.3-2.3-0.8-5.4-0.8S38.6,26.5,38.1,26.8z"/>
</g>
<g>
	<g>
		<polygon fill="#212932" points="34.9,22.9 34.9,22.9 34.9,22.9 		"/>
		<path fill="#F0AC1B" d="M34.9,23.4c-0.3,0-0.5-0.2-0.5-0.5s0.2-0.5,0.5-0.5h0c0.3,0,0.5,0.2,0.5,0.5S35.2,23.4,34.9,23.4z"/>
	</g>
	<g>
		<path fill="#212932" d="M46.8,22.9L46.8,22.9c0,0.7-2.7,1.3-6,1.3s-6-0.6-6-1.3v3.6c0,0.7,2.7,1.3,6,1.3s6-0.6,6-1.3V22.9
			L46.8,22.9z"/>
		<path fill="#F0AC1B" d="M40.8,28.4c-1.1,0-6.5-0.1-6.5-1.8v-3.6c0-0.3,0.2-0.5,0.5-0.5s0.5,0.2,0.5,0.5c0.2,0.2,2.1,0.8,5.5,0.8
			c3.3,0,5.2-0.6,5.5-0.9c0,0,0-0.1,0-0.1c0-0.2,0.2-0.4,0.5-0.4c0.3,0,0.5,0.3,0.5,0.6v3.6C47.3,28.3,41.9,28.4,40.8,28.4z
			 M35.4,24v2.5c0.2,0.2,2.1,0.8,5.5,0.8c3.4,0,5.3-0.6,5.5-0.9l0-2.4c-1.6,0.7-4.7,0.7-5.5,0.7C40.1,24.7,37,24.7,35.4,24z"/>
	</g>
</g>
<g>
	<ellipse fill="#212932" cx="40.8" cy="22.9" rx="6" ry="1.3"/>
	<path fill="#F0AC1B" d="M40.8,24.7c-1.1,0-6.5-0.1-6.5-1.8s5.4-1.8,6.5-1.8s6.5,0.1,6.5,1.8S41.9,24.7,40.8,24.7z M35.4,22.9
		c0.5,0.3,2.3,0.8,5.4,0.8c3.1,0,4.9-0.5,5.4-0.8c-0.5-0.3-2.3-0.8-5.4-0.8S35.9,22.6,35.4,22.9z"/>
</g>
<path fill="#F0AC31" d="M46.2,19c-0.8,0-1.5-0.1-2.2-0.4c-0.3-0.1-0.4-0.4-0.3-0.6c0.1-0.3,0.4-0.4,0.6-0.3c0.6,0.2,1.2,0.3,1.9,0.3
	c3.2,0,5.8-2.6,5.8-5.8c0-0.7-0.1-1.3-0.3-1.9c-0.1-0.3,0-0.6,0.3-0.7c0.3-0.1,0.6,0,0.7,0.3c0.3,0.7,0.4,1.5,0.4,2.3
	C53.1,15.9,50,19,46.2,19z"/>
<g>
	<path fill="#F0AC31" d="M81.7,19.9h-3.2c-0.3,0-0.5-0.2-0.5-0.5s0.2-0.5,0.5-0.5h3.2c0.3,0,0.5,0.2,0.5,0.5S82,19.9,81.7,19.9z"/>
	<path fill="#F0AC31" d="M92.1,19.9h-6.8c-0.3,0-0.5-0.2-0.5-0.5s0.2-0.5,0.5-0.5h6.8c0.3,0,0.5,0.2,0.5,0.5S92.4,19.9,92.1,19.9z"
		/>
	<path fill="#F0AC31" d="M80.9,34.3h-2c-0.3,0-0.5-0.2-0.5-0.5s0.2-0.5,0.5-0.5h2c0.3,0,0.5,0.2,0.5,0.5S81.1,34.3,80.9,34.3z"/>
	<path fill="#F0AC31" d="M91.6,34.3h-7.8c-0.3,0-0.5-0.2-0.5-0.5s0.2-0.5,0.5-0.5h7.8c0.3,0,0.5,0.2,0.5,0.5S91.9,34.3,91.6,34.3z"
		/>
	<path fill="#F0AC31" d="M65.1,33.5h-6.5c-0.3,0-0.5-0.2-0.5-0.5s0.2-0.5,0.5-0.5h6.5c0.3,0,0.5,0.2,0.5,0.5S65.4,33.5,65.1,33.5z"
		/>
	<path fill="#F0AC31" d="M56,33.5h-1.8c-0.3,0-0.5-0.2-0.5-0.5s0.2-0.5,0.5-0.5H56c0.3,0,0.5,0.2,0.5,0.5S56.3,33.5,56,33.5z"/>
	<path fill="#F0AC31" d="M59.6,25.6h-2c-0.3,0-0.5-0.2-0.5-0.5s0.2-0.5,0.5-0.5h2c0.3,0,0.5,0.2,0.5,0.5S59.9,25.6,59.6,25.6z"/>
	<path fill="#F0AC31" d="M54.4,25.6h-6.5c-0.3,0-0.5-0.2-0.5-0.5s0.2-0.5,0.5-0.5h6.5c0.3,0,0.5,0.2,0.5,0.5S54.7,25.6,54.4,25.6z"
		/>
	<path fill="#F0AC31" d="M72.4,27.6h-1.8c-0.3,0-0.5-0.2-0.5-0.5c0-0.3,0.2-0.5,0.5-0.5h1.8c0.3,0,0.5,0.2,0.5,0.5
		C72.9,27.4,72.7,27.6,72.4,27.6z"/>
	<path fill="#F0AC31" d="M92,27.6H75.7c-0.3,0-0.5-0.2-0.5-0.5c0-0.3,0.2-0.5,0.5-0.5H92c0.3,0,0.5,0.2,0.5,0.5
		C92.5,27.4,92.3,27.6,92,27.6z"/>
</g>
<g>
	<g>
		<path fill="#212932" d="M34.9,16.5c-0.4-2.2-1.7-4.3-4.3-4.3c4.4-0.3,4.3-4.3,4.3-4.3l0,0c0,0-0.1,4,4.3,4.3
			C36.6,12.2,35,14.3,34.9,16.5L34.9,16.5z"/>
		<path fill="#F0AC32" d="M34.9,17c-0.3,0-0.5-0.2-0.5-0.4c-0.3-1.9-1.5-3.9-3.8-3.9c-0.3,0-0.5-0.2-0.5-0.5c0-0.3,0.2-0.5,0.5-0.5
			c3.9-0.3,3.9-3.6,3.9-3.8c0,0,0,0,0,0c0-0.3,0.2-0.5,0.5-0.5s0.5,0.2,0.5,0.5c0,0,0,0,0,0l0,0c0,0.1,0,3.5,3.9,3.8
			c0.3,0,0.5,0.3,0.5,0.5c0,0.3-0.2,0.5-0.5,0.5c-2.3,0-3.7,1.9-3.8,3.8C35.3,16.8,35.1,17,34.9,17C34.9,17,34.9,17,34.9,17z
			 M32.7,12.2c1,0.5,1.7,1.4,2.1,2.4c0.4-1,1.2-1.9,2.2-2.4c-1.1-0.5-1.8-1.4-2.2-2.2C34.5,10.8,33.8,11.7,32.7,12.2z"/>
	</g>
</g>
<g>
	<g>
		<path fill="#212932" d="M106.6,22.3c-0.2-1.5-1.2-2.9-2.9-2.9c2.9-0.2,2.9-2.9,2.9-2.9l0,0c0,0-0.1,2.7,2.9,2.9
			C107.8,19.4,106.7,20.8,106.6,22.3L106.6,22.3z"/>
		<path fill="#F0AC32" d="M106.6,22.8c-0.3,0-0.5-0.2-0.5-0.4c-0.2-1.2-0.9-2.4-2.4-2.4c-0.3,0-0.5-0.2-0.5-0.5
			c0-0.3,0.2-0.5,0.5-0.5c2.2-0.2,2.4-2,2.4-2.3c0,0,0,0,0-0.1c0-0.3,0.2-0.5,0.5-0.5l0,0c0.3,0,0.5,0.2,0.5,0.5c0,0,0,0,0,0.1
			c0,0.4,0.2,2.1,2.4,2.3c0.3,0,0.5,0.3,0.5,0.5c0,0.3-0.2,0.5-0.5,0.5c-1.5,0-2.3,1.2-2.4,2.4C107.1,22.6,106.9,22.8,106.6,22.8
			C106.6,22.8,106.6,22.8,106.6,22.8z M105.5,19.4c0.4,0.3,0.8,0.7,1.1,1.2c0.3-0.5,0.6-0.9,1.1-1.2c-0.5-0.3-0.8-0.7-1.1-1.1
			C106.3,18.7,106,19.1,105.5,19.4z"/>
	</g>
</g>
<g>
	<g>
		<path fill="#212932" d="M101.9,5.4c-0.3-1.9-1.5-3.8-3.8-3.8c3.9-0.3,3.8-3.8,3.8-3.8l0,0c0,0-0.1,3.5,3.8,3.8
			C103.4,1.6,102,3.4,101.9,5.4L101.9,5.4z"/>
		<path fill="#F0AC32" d="M101.9,5.9c-0.3,0-0.5-0.2-0.5-0.4c-0.3-1.6-1.3-3.4-3.3-3.4c-0.3,0-0.5-0.2-0.5-0.5
			c0-0.3,0.2-0.5,0.5-0.5c3.3-0.2,3.3-3.2,3.3-3.3l0,0c0,0,0,0,0,0c0-0.3,0.2-0.5,0.5-0.5s0.5,0.2,0.5,0.5c0,0,0,0,0,0l0,0
			c0,0.1,0,3,3.3,3.3c0.3,0,0.5,0.3,0.5,0.5c0,0.3-0.2,0.5-0.5,0.5c-2,0-3.2,1.7-3.3,3.3C102.4,5.7,102.2,5.9,101.9,5.9
			C101.9,5.9,101.9,5.9,101.9,5.9z M100.1,1.6c0.8,0.5,1.4,1.2,1.8,2c0.4-0.8,1-1.5,1.8-2c-0.9-0.4-1.4-1.1-1.8-1.8
			C101.6,0.5,101,1.1,100.1,1.6z"/>
	</g>
</g>
</svg>
