<?xml version="1.0" encoding="utf-8"?>
<!-- Generator: Adobe Illustrator 19.0.0, SVG Export Plug-In . SVG Version: 6.00 Build 0)  -->
<svg version="1.1" id="Слой_1" xmlns="http://www.w3.org/2000/svg" xmlns:xlink="http://www.w3.org/1999/xlink" x="0px" y="0px"
	 viewBox="40 -30 80 80" enable-background="new 40 -30 80 80" xml:space="preserve">
<path fill="#F0AC31" d="M51.1,35.1c-0.2,0-0.3-0.1-0.4-0.2c-10.2-13.8-9.9-33,0.6-46.5c0.2-0.2,0.5-0.3,0.7-0.1
	c0.2,0.2,0.3,0.5,0.1,0.7C41.8,2.2,41.6,20.9,51.5,34.3c0.2,0.2,0.1,0.5-0.1,0.7C51.3,35.1,51.2,35.1,51.1,35.1z"/>
<path fill="#F0AC31" d="M109.7-10.5c-0.2,0-0.3-0.1-0.4-0.2c-11.6-15.8-33.9-19.2-49.7-7.6c-0.2,0.2-0.5,0.1-0.7-0.1
	c-0.2-0.2-0.1-0.5,0.1-0.7c16.2-11.9,39.2-8.4,51.1,7.8c0.2,0.2,0.1,0.5-0.1,0.7C109.9-10.5,109.8-10.5,109.7-10.5z"/>
<path fill="#F0AC31" d="M102.4,37.2c-0.2,0-0.3-0.1-0.4-0.2c-0.2-0.2-0.1-0.5,0.1-0.7c12.3-9.1,17-25.3,11.4-39.5
	c-0.1-0.3,0-0.5,0.3-0.6c0.3-0.1,0.5,0,0.6,0.3c5.8,14.6,1,31.3-11.7,40.6C102.6,37.2,102.5,37.2,102.4,37.2z"/>
<path fill="#F0AC31" d="M83.3,43.5c-4.9,0-9.8-1.1-14.3-3.2c-4.8-2.3-9-5.8-12.2-10.1c-0.2-0.2-0.1-0.5,0.1-0.7
	c0.2-0.2,0.5-0.1,0.7,0.1c3.1,4.2,7.2,7.6,11.8,9.8c7.6,3.7,16.5,4.1,24.4,1.3c0.3-0.1,0.5,0,0.6,0.3c0.1,0.3,0,0.5-0.3,0.6
	C90.7,42.9,87,43.5,83.3,43.5z"/>
<path fill="#F0AC31" d="M53.3,23.1c-0.2,0-0.4-0.1-0.5-0.3c-5-13-0.6-27.8,10.6-36.1c13-9.6,31.5-6.8,41,6.3
	c5.1,6.9,6.7,15.6,4.4,23.9c-0.1,0.3-0.3,0.4-0.6,0.3c-0.3-0.1-0.4-0.3-0.3-0.6c2.2-8,0.7-16.4-4.2-23.1c-9.3-12.6-27-15.3-39.6-6.1
	C53.2-4.5,49,9.9,53.8,22.5c0.1,0.3,0,0.5-0.3,0.6C53.5,23.1,53.4,23.1,53.3,23.1z"/>
<path fill="#F0AC31" d="M83.1,37c-1.3,0-2.7-0.1-4-0.3c-6.9-1.1-13.1-4.8-17.2-10.4c-6.3-8.5-6.5-20.1-0.5-28.9
	c0.2-0.2,0.5-0.3,0.7-0.1c0.2,0.2,0.3,0.5,0.1,0.7c-5.8,8.4-5.6,19.5,0.4,27.7c4,5.4,9.9,9,16.6,10c6.7,1,13.4-0.6,18.8-4.6
	c0.2-0.2,0.5-0.1,0.7,0.1c0.2,0.2,0.1,0.5-0.1,0.7C94,35.2,88.6,37,83.1,37z"/>
<path fill="#F0AC31" d="M99.7-2.7c-0.2,0-0.3-0.1-0.4-0.2c-7.4-10-21.5-12.2-31.6-4.8c-0.2,0.2-0.5,0.1-0.7-0.1
	c-0.2-0.2-0.1-0.5,0.1-0.7c10.5-7.7,25.3-5.4,33,5c0.2,0.2,0.1,0.5-0.1,0.7C99.9-2.8,99.8-2.7,99.7-2.7z"/>
<path fill="#F0AC31" d="M82.8,31.8c-6.5,0-12.9-3-17.1-8.6c-6.5-8.9-4.6-21.5,4.3-28c4.1-3,9.1-4.2,14.1-3.5c5,0.8,9.4,3.4,12.4,7.5
	c5.9,8,4.1,19.3-3.8,25.1c-7.6,5.6-18.2,3.9-23.8-3.6c-5.3-7.2-3.7-17.3,3.4-22.5c6.8-5,16.4-3.5,21.4,3.3
	c4.7,6.4,3.3,15.5-3.1,20.2c-3,2.2-6.6,3.1-10.2,2.5c-3.6-0.6-6.8-2.5-9-5.4c-2.1-2.8-2.9-6.2-2.4-9.7s2.4-6.5,5.2-8.5
	c2.7-1.9,5.9-2.7,9.2-2.3c3.3,0.5,6.1,2.2,8.1,4.9c1.8,2.5,2.6,5.6,2.1,8.7c-0.5,3.1-2.1,5.8-4.6,7.7c-4.9,3.6-11.9,2.6-15.5-2.4
	c-3.4-4.7-2.4-11.3,2.2-14.7c4.4-3.3,10.7-2.3,13.9,2.1c1.5,2,2.1,4.5,1.7,7c-0.4,2.5-1.7,4.7-3.7,6.2c-1.9,1.4-4.3,2-6.7,1.6
	c-2.4-0.4-4.5-1.6-5.9-3.6c-2.8-3.8-2-9.1,1.8-11.9c1.7-1.3,3.9-1.8,6-1.5c2.1,0.3,4,1.5,5.3,3.2c2.5,3.4,1.8,8.2-1.6,10.7
	c-1.6,1.1-3.5,1.6-5.4,1.3c-1.9-0.3-3.6-1.3-4.8-2.9c-1.1-1.5-1.5-3.3-1.3-5.1s1.3-3.4,2.7-4.5c1.4-1,3.1-1.5,4.9-1.2
	C84.5,4.3,86,5.2,87,6.6c1,1.3,1.4,3,1.1,4.6c-0.3,1.6-1.1,3.1-2.5,4.1c-1.3,0.9-2.8,1.3-4.4,1.1c-1.6-0.2-2.9-1.1-3.9-2.3
	c-1.8-2.5-1.3-6,1.2-7.9c1.2-0.8,2.6-1.2,4-1c1.4,0.2,2.7,1,3.5,2.1c0.8,1.1,1.1,2.4,0.9,3.8s-0.9,2.5-2,3.3c-1,0.8-2.3,1.1-3.6,0.9
	c-1.3-0.2-2.4-0.9-3.2-1.9c-1.4-1.9-1.1-4.5,0.6-6.1c-1.7,1.6-2,4.2-0.6,6.2c0.8,1.1,1.9,1.8,3.2,1.9c1.3,0.2,2.6-0.1,3.7-0.9
	c1.1-0.8,1.9-2,2.1-3.4c0.2-1.4-0.1-2.8-1-3.9c-1.8-2.5-5.3-3-7.8-1.2c-2.6,1.9-3.2,5.6-1.3,8.3c1,1.3,2.5,2.2,4.1,2.5
	c1.7,0.3,3.3-0.2,4.7-1.1c3-2.2,3.6-6.4,1.4-9.3c-1.1-1.5-2.8-2.5-4.6-2.8c-1.9-0.3-3.7,0.2-5.3,1.3c-3.3,2.5-4.1,7.2-1.6,10.5
	c1.3,1.7,3.1,2.8,5.2,3.2c2.1,0.3,4.2-0.2,5.9-1.5c3.8-2.8,4.6-8.1,1.8-11.8C87.4,3.3,85.4,2,83,1.7c-2.4-0.4-4.7,0.2-6.7,1.6
	c-2,1.5-3.4,3.7-3.8,6.2c-0.4,2.5,0.2,5,1.7,7.1c1.6,2.2,3.9,3.6,6.6,4c2.7,0.4,5.3-0.2,7.5-1.8c4.7-3.5,5.8-10.2,2.3-14.9
	c-1.8-2.4-4.4-4-7.4-4.5c-3-0.5-6,0.3-8.4,2.1c-2.6,1.9-4.3,4.7-4.8,7.9c-0.5,3.2,0.3,6.3,2.2,8.9c2,2.7,5,4.5,8.3,5
	c3.4,0.5,6.7-0.3,9.5-2.3C96,16.5,97.3,8,92.9,2c-2.3-3.1-5.6-5.1-9.4-5.7C79.8-4.2,76-3.3,73-1c-6.7,4.9-8.2,14.4-3.2,21.2
	c5.2,7.1,15.3,8.7,22.4,3.4c7.5-5.5,9.2-16.2,3.6-23.7C92.9-4,88.7-6.6,84-7.3C79.2-8,74.5-6.9,70.6-4c-8.5,6.2-10.3,18.2-4.1,26.6
	c6.6,9,19.2,10.9,28.2,4.3c0.2-0.2,0.5-0.1,0.7,0.1c0.2,0.2,0.1,0.5-0.1,0.7C91.6,30.5,87.2,31.8,82.8,31.8z"/>
<g>
	<polygon fill="#212932" points="85.2,46.2 105.3,24.2 97.4,-25.2 70,-29 55.1,-21.5 55.7,-15.6 61.9,-12.3 60.9,5.3 53.7,11.6 
		63,33.7 	"/>
	<path fill="#F0AC31" d="M85.2,47.2c-0.2,0-0.3,0-0.5-0.1L62.5,34.6c-0.2-0.1-0.3-0.3-0.4-0.5l-9.3-22.1c-0.2-0.4-0.1-0.9,0.3-1.1
		l6.9-6l1-16.5l-5.7-3.1c-0.3-0.2-0.5-0.4-0.5-0.8l-0.6-5.9c0-0.4,0.2-0.8,0.5-1l14.9-7.5c0.2-0.1,0.4-0.1,0.6-0.1l27.4,3.8
		c0.4,0.1,0.8,0.4,0.8,0.8l7.9,49.5c0,0.3,0,0.6-0.2,0.8L85.9,46.9C85.7,47.1,85.4,47.2,85.2,47.2z M63.8,33L85,44.9l19.2-21
		l-7.7-48.3L70.1-28l-14,7l0.5,4.7l5.8,3.1c0.3,0.2,0.5,0.5,0.5,0.9l-1,17.6c0,0.3-0.1,0.5-0.3,0.7l-6.7,5.8L63.8,33z"/>
</g>
<g>
	<path fill="#F0AC31" d="M73.5,16.8c0.3,0.9,1.7,1.2,3,0.7c1.3-0.5,2-1.6,1.7-2.5l0,0l0.7,1.8l0,0c0.3,0.7-0.6,1.7-1.8,2.2
		c-1.3,0.5-2.5,0.3-2.8-0.4l0,0L73.5,16.8L73.5,16.8z"/>
	<path fill="#F0AC31" d="M75.6,19.8c-0.9,0-1.5-0.3-1.8-0.9c0,0,0-0.1,0-0.1L73.1,17c0-0.1,0-0.3,0-0.4c0.1-0.1,0.2-0.2,0.3-0.3
		c0.3-0.1,0.5,0,0.6,0.3c0.1,0.4,0.5,0.5,0.8,0.6c0.5,0.1,1,0.1,1.5-0.1c0.5-0.2,1-0.5,1.2-0.9c0.1-0.2,0.3-0.6,0.2-1
		c-0.1-0.3,0-0.5,0.3-0.6c0.3-0.1,0.5,0,0.6,0.3l0.7,1.8c0,0,0,0.1,0,0.1c0.3,1-0.6,2.2-2.1,2.7C76.7,19.6,76.1,19.8,75.6,19.8z
		 M74.6,18.3C74.7,18.4,74.7,18.4,74.6,18.3c0.2,0.4,1.1,0.6,2.2,0.2c1.1-0.4,1.7-1.2,1.5-1.5c0,0,0,0,0,0l-0.1-0.1
		c-0.4,0.5-1,1-1.7,1.2c-0.7,0.3-1.4,0.3-2.1,0.2L74.6,18.3z"/>
</g>
<g>
	
		<ellipse transform="matrix(-0.9336 0.3583 -0.3583 -0.9336 152.3927 3.6249)" fill="#212932" cx="75.9" cy="15.9" rx="2.5" ry="1.7"/>
	<path fill="#F0AC31" d="M75.3,18.3c-1,0-1.9-0.5-2.2-1.3v0c-0.2-0.6-0.1-1.3,0.3-1.9c0.4-0.6,1-1,1.7-1.3c0.7-0.3,1.5-0.3,2.1-0.2
		c0.7,0.2,1.2,0.6,1.5,1.2c0.5,1.2-0.4,2.6-2,3.2C76.2,18.2,75.7,18.3,75.3,18.3z M74,16.6c0.2,0.6,1.3,0.8,2.3,0.4
		c1-0.4,1.7-1.2,1.4-1.9c-0.1-0.4-0.5-0.5-0.8-0.6c-0.5-0.1-1-0.1-1.5,0.1c-0.5,0.2-1,0.5-1.2,0.9C74.1,15.9,73.9,16.3,74,16.6
		L74,16.6z"/>
</g>
<g>
	<path fill="#F0AC31" d="M66,13.5c0.3,0.9,1.7,1.2,3,0.7s2-1.6,1.7-2.5l0,0l0.7,1.8l0,0c0.3,0.7-0.6,1.7-1.8,2.2S67,16,66.7,15.3
		l0,0L66,13.5L66,13.5z"/>
	<path fill="#F0AC31" d="M68.1,16.5c-0.9,0-1.5-0.3-1.8-0.9c0,0,0-0.1,0-0.1l-0.7-1.8c-0.1-0.1,0-0.3,0-0.4c0.1-0.1,0.2-0.2,0.3-0.3
		c0.2-0.1,0.5,0.1,0.6,0.3c0.2,0.6,1.3,0.8,2.3,0.5c1-0.4,1.7-1.2,1.4-1.9l0,0c0,0,0,0,0,0c-0.1-0.3,0-0.5,0.3-0.6
		c0.3-0.1,0.5,0,0.6,0.3l0.7,1.8c0,0,0,0.1,0,0.1c0.3,1-0.6,2.2-2.1,2.7C69.1,16.4,68.6,16.5,68.1,16.5z M67.1,15.1
		C67.1,15.1,67.1,15.1,67.1,15.1c0.2,0.4,1.1,0.6,2.2,0.2c1.1-0.4,1.7-1.2,1.5-1.5c0,0,0,0,0,0l-0.1-0.1c-0.4,0.5-0.9,1-1.7,1.2
		c-0.7,0.3-1.4,0.3-2.1,0.2L67.1,15.1z"/>
</g>
<g>
	
		<ellipse transform="matrix(-0.9336 0.3583 -0.3583 -0.9336 136.6421 -1.975514e-02)" fill="#212932" cx="68.3" cy="12.6" rx="2.5" ry="1.7"/>
	<path fill="#F0AC31" d="M67.7,15c-1,0-1.9-0.5-2.2-1.3v0c-0.5-1.2,0.4-2.6,2-3.2c0.7-0.3,1.5-0.3,2.1-0.2c0.7,0.2,1.2,0.6,1.5,1.2
		c0.2,0.6,0.1,1.3-0.3,1.9c-0.4,0.6-1,1-1.7,1.3C68.7,14.9,68.2,15,67.7,15z M66.5,13.4c0.2,0.6,1.3,0.8,2.3,0.4
		c0.5-0.2,1-0.5,1.2-0.9c0.1-0.2,0.3-0.6,0.2-1c-0.1-0.4-0.5-0.5-0.8-0.6c-0.5-0.1-1-0.1-1.5,0.1C66.9,11.9,66.2,12.7,66.5,13.4
		L66.5,13.4z"/>
</g>
<path fill="#F0AC31" d="M85.2,47.2c-0.4,0-0.8-0.3-0.9-0.7l-7.5-22.7c-0.1-0.4,0-0.8,0.3-1l8.7-8.2l1-19.6l-6.5-2.9
	c-0.3-0.1-0.6-0.5-0.6-0.8L79-15.6c0-0.4,0.2-0.8,0.5-1l17.4-9.6c0.5-0.3,1.1-0.1,1.4,0.4c0.3,0.5,0.1,1.1-0.4,1.4L81-15.1l0.5,5.6
	l6.6,2.9c0.4,0.2,0.6,0.6,0.6,1l-1.1,20.7c0,0.3-0.1,0.5-0.3,0.7l-8.5,8l7.3,22.1c0.2,0.5-0.1,1.1-0.6,1.3
	C85.4,47.2,85.3,47.2,85.2,47.2z"/>
<path fill="#F0AC31" d="M86.6,15.5c-0.1,0-0.1,0-0.2,0L60.8,5.8c-0.3-0.1-0.4-0.4-0.3-0.6c0.1-0.3,0.4-0.4,0.6-0.3l25.7,9.7
	c0.3,0.1,0.4,0.4,0.3,0.6C87,15.4,86.8,15.5,86.6,15.5z"/>
<path fill="#F0AC31" d="M80.6-8.3c0,0-0.1,0-0.1,0l-24.9-6.8c-0.3-0.1-0.4-0.3-0.3-0.6c0.1-0.3,0.3-0.4,0.6-0.3l24.9,6.8
	C81-9.2,81.1-9,81-8.7C81-8.5,80.8-8.3,80.6-8.3z"/>
<g>
	
		<ellipse transform="matrix(-0.9185 0.3955 -0.3955 -0.9185 121.7664 -3.5336)" fill="#212932" cx="61.2" cy="10.8" rx="3.2" ry="2.1"/>
	<path fill="#F0AC31" d="M60.4,13.6c-0.2,0-0.5,0-0.7-0.1c-0.9-0.2-1.5-0.6-1.8-1.3l0,0c-0.3-0.7-0.2-1.5,0.3-2.2
		c0.4-0.7,1.2-1.3,2-1.7C61.1,8,62,7.9,62.8,8c0.9,0.2,1.5,0.6,1.8,1.3c0.6,1.4-0.4,3.1-2.3,3.9C61.7,13.5,61,13.6,60.4,13.6z
		 M62.1,8.9c-0.5,0-1,0.1-1.5,0.3c-0.7,0.3-1.3,0.8-1.6,1.3c-0.3,0.5-0.4,0.9-0.2,1.3c0,0,0,0,0,0c0.2,0.4,0.5,0.6,1.1,0.7
		c0.6,0.1,1.3,0,2-0.3c1.3-0.6,2.2-1.8,1.8-2.6c-0.2-0.4-0.5-0.6-1.1-0.7C62.5,9,62.3,8.9,62.1,8.9z"/>
</g>
<g>
	<path fill="#212932" d="M60.3,10.4c-0.3-0.6-4.6-4.3-1.6-5.6s2.8,4.5,3,5C61.9,10.3,60.5,11,60.3,10.4z"/>
	<path fill="#F0AC31" d="M60.7,11.1c0,0-0.1,0-0.1,0c-0.3,0-0.6-0.2-0.7-0.5c-0.1-0.1-0.3-0.4-0.5-0.6c-1-1.1-2.5-2.8-2.2-4.3
		c0.1-0.6,0.6-1.1,1.3-1.4c0.7-0.3,1.4-0.3,1.9,0c1.3,0.8,1.6,3.2,1.7,4.6c0,0.3,0.1,0.6,0.1,0.7c0.1,0.3,0.1,0.6-0.1,0.9
		C61.7,10.9,61.2,11.1,60.7,11.1z M59.4,5.1c-0.2,0-0.4,0-0.6,0.1c-0.6,0.3-0.7,0.6-0.7,0.7c-0.2,1,1.2,2.5,1.9,3.4
		c0.4,0.4,0.6,0.6,0.7,0.8c0.1,0,0.4-0.1,0.5-0.2c0-0.2-0.1-0.4-0.1-0.8C61,8,60.8,5.7,59.9,5.2C59.7,5.1,59.6,5.1,59.4,5.1z"/>
</g>
<path fill="#F0AC31" d="M80-15.1c0,0-0.1,0-0.1,0L55-21c-0.3-0.1-0.4-0.3-0.4-0.6c0.1-0.3,0.3-0.4,0.6-0.4l24.9,5.9
	c0.3,0.1,0.4,0.3,0.4,0.6C80.4-15.3,80.2-15.1,80-15.1z"/>
<path fill="#F0AC31" d="M80.4,10.1c-0.2,0-0.3,0-0.5,0c-0.1,0-3.9-0.7-8.8-2.6c-4.9-1.9-6.2-2.9-6.3-2.9l0,0
	c-0.7-0.5-0.8-0.8-1.1-1.7c0-0.2-0.3-2.2-0.2-5.2c0.2-3.6,0.6-5.5,0.7-5.5c0.3-0.8,0.9-1.3,1.7-1.3c0,0,0,0,0.1,0
	c0.6,0,3.7,0.1,8,1.2c4.7,1.2,7.7,2.7,7.9,2.7c1.1,0.6,1.7,1.4,1.9,2.5c0,0,0.3,1.3,0.1,5.2c-0.2,4.2-0.5,5.2-0.5,5.2
	C83,9.5,81.7,10.1,80.4,10.1z M65.5,3.8c0,0,1.4,1,6.1,2.8c4.8,1.9,8.5,2.6,8.6,2.6c0.6,0.1,2,0.1,2.3-1.6c0,0,0.2-1.1,0.5-5.1
	c0.2-3.7-0.1-4.9-0.1-4.9c-0.2-0.9-0.6-1.4-1.4-1.9c0,0-3-1.4-7.6-2.6c-4.6-1.2-7.8-1.2-7.9-1.2c0,0,0,0,0,0c-0.4,0-0.6,0.2-0.7,0.6
	l0,0c0,0-0.4,1.9-0.6,5.3c-0.2,2.8,0.2,4.9,0.2,4.9C65,3.3,65,3.4,65.5,3.8L65.5,3.8z"/>
<path fill="#F0AC31" d="M77.6,24c-0.1,0-0.2,0-0.2-0.1L53.5,12c-0.2-0.1-0.3-0.4-0.2-0.7c0.1-0.2,0.4-0.3,0.7-0.2L77.9,23
	c0.2,0.1,0.3,0.4,0.2,0.7C78,23.9,77.8,24,77.6,24z"/>
<path fill="#F0AC31" d="M83.5,50c-0.1,0-0.1,0-0.2,0c-0.3-0.1-0.4-0.4-0.3-0.6l0.4-1.2c0-0.1,0.1-0.3,0.1-0.4
	c0.1-0.9,0.5-1.7,0.8-2.5c0.1-0.2,0.2-0.5,0.3-0.7l3.9-11.9c0.2-0.4,0.3-0.7,0.5-1.1l0.1-0.3c0.3-0.8,0.8-2.1,2-2.2
	c1.1-0.2,2.2,1.3,2.5,2.3l0.4,2c0.5,2.5,1,5.1,1.6,7.6c0.1,0.3-0.1,0.5-0.4,0.6c-0.3,0.1-0.5-0.1-0.6-0.4c-0.6-2.5-1.1-5.1-1.6-7.7
	l-0.4-2c-0.3-0.9-1-1.7-1.4-1.6c-0.5,0.1-0.9,0.9-1.2,1.6l-0.1,0.3c-0.1,0.3-0.3,0.7-0.4,1l-0.1,0.4l-3.8,11.5
	c-0.1,0.3-0.2,0.5-0.3,0.8c-0.3,0.8-0.6,1.5-0.7,2.3c-0.1,0.2-0.1,0.3-0.1,0.5L84,49.7C83.9,49.9,83.8,50,83.5,50z"/>
<path fill="#F0AC31" d="M79.4,49.1c0,0-0.1,0-0.1,0C79,49,78.9,48.7,79,48.4l0.3-1.1c1-3.3,2-6.6,2.8-9.9l0.3-1.1
	c0.4-1,0.8-1.9,1.3-2.7c0.2-0.4,0.4-0.8,0.6-1.1c1-1.9,1.9-4,2.2-6.6c0.2-1.2,0.1-2.4-0.2-3.7c-0.1-0.2-0.1-0.5-0.2-0.7
	c-0.1-0.4-0.3-0.8-0.4-1.2c-0.1-0.2-0.2-0.4-0.2-0.6c-0.1-0.2-0.1-0.3-0.2-0.3c-1-0.8-1.8-1.8-2.3-3c-0.1-0.2-0.2-0.5-0.2-0.7
	c0-0.1-0.1-0.3-0.1-0.4c-0.1-0.4-0.2-0.9-0.2-1.4c0,0,0-0.1,0-0.2c0-0.1,0-0.2,0-0.3c-0.1-0.2-0.2-0.4-0.3-0.6
	c-0.1-0.2-0.2-0.4-0.4-0.6c-0.6-1.4-0.9-2.7-0.9-3.7c0-0.5,0-1,0.1-1.5c0-0.2,0-0.3,0-0.4c-0.1-0.6-0.4-1.2-0.6-1.8
	c-0.1-0.3-0.3-0.7-0.4-1c-0.1-0.3-0.2-0.6-0.3-1c0-0.4-0.1-0.7-0.2-1.1c0-0.2-0.1-0.5-0.2-0.7c0,0,0-0.1,0-0.1
	c0.1-1.4,0.4-2.6,0.7-3.7l0.2-0.7c0.2-0.4,0.3-0.8,0.4-1.2L80.7-5c0.1-0.2,0.2-0.5,0.3-0.7c0.3-0.6,0.8-1,1.2-1.3
	c0,0,0.1-0.1,0.1-0.1c0,0,0.1-0.1,0.1-0.1c0,0,0,0,0,0c0.1-0.1,0.2-0.1,0.2-0.1c0.2-0.1,0.4-0.2,0.6-0.3c1.3-0.6,2.8-1.3,4.4-0.7
	c0.3,0.2,0.6,0.4,1,0.6c0.5,0.4,1.1,0.9,1.7,1.4c0.1,0.2,0.2,0.3,0.4,0.5l0.1,0.1c0.1,0.2,0.2,0.3,0.4,0.5c0.1,0.2,0.3,0.4,0.4,0.5
	c0.2,0.2,0.5,0.4,0.7,0.5c0.5,0.4,1.1,0.8,1.5,1.5c0.3,0.5,0.5,1.1,0.5,1.7l0,0.1c0,0.2,0,0.4,0,0.5c0,0.3,0,0.5,0,0.8
	c0,0.3-0.1,0.5-0.1,0.8c0,0.1-0.1,0.3-0.1,0.5c0,0.1-0.1,0.2-0.1,0.4c0,1.2,0.8,3.6,1.3,5c0.2,0.5,0.3,1,0.4,1.2
	c0,0.1,0.1,0.3,0.2,0.5L95.8,9c0,0.3,0.1,0.5,0,0.7c-0.1,1.1-0.2,2.1-0.4,3.3c-0.1,0.8,0,1.5,0.3,2.2c0.2,0.4,0,0.8-0.1,1
	c0,0.1-0.1,0.3-0.1,0.4c-0.1,0.5,0.1,1.1,0.3,1.7c0.1,0.5,0.3,1,0.3,1.6c0,0.2,0,0.4,0.1,0.6c0,0.2,0,0.4,0,0.6c0,0.2,0,0.4,0,0.6
	c0,0.3-0.1,0.6-0.1,0.8c0,0.1,0,0.4,0,0.7c0,0.3,0,0.5,0,0.8c0,3.7,0.6,6.8,1.9,9.5c0,0,0,0.1,0,0.2c0,0.2,0,0.4,0.1,0.7
	c0,0.3,0,0.5,0.1,0.7c0,0.3-0.2,0.5-0.4,0.6c-0.3,0-0.5-0.2-0.6-0.4c0-0.2-0.1-0.5-0.1-0.7c0-0.2,0-0.4,0-0.6c-1.4-2.8-2-6-2-9.9
	c0-0.3,0-0.6,0-0.8c0-0.3,0-0.5,0-0.8c0.1-0.3,0.1-0.4,0.1-0.7c0-0.2,0-0.4,0-0.6c0-0.2,0-0.4,0-0.6c0-0.2,0-0.4,0-0.6
	c0-0.5-0.2-0.9-0.3-1.4c-0.2-0.6-0.4-1.3-0.3-2c0-0.2,0.1-0.4,0.2-0.6c0.1-0.2,0.1-0.3,0.1-0.3c-0.4-0.8-0.5-1.8-0.4-2.7
	c0.2-1.2,0.3-2.2,0.4-3.3c0-0.2,0-0.3,0-0.5L94.8,9c-0.1-0.2-0.1-0.3-0.2-0.5c-0.1-0.2-0.2-0.6-0.4-1.1c-0.6-1.6-1.4-4-1.4-5.4
	c0-0.3,0.1-0.5,0.1-0.6c0-0.1,0.1-0.2,0.1-0.3c0.1-0.3,0.1-0.5,0.1-0.7c0-0.2,0-0.4,0-0.7c0-0.2,0-0.4,0-0.5l0-0.1
	c0-0.4-0.1-0.8-0.3-1.2c-0.3-0.5-0.8-0.9-1.3-1.2c-0.3-0.2-0.6-0.4-0.8-0.6c-0.2-0.2-0.4-0.4-0.5-0.6C90.2-4.8,90-5,89.9-5.1
	l-0.1-0.1c-0.1-0.1-0.2-0.2-0.3-0.4c-0.6-0.5-1.1-1-1.6-1.3c-0.3-0.2-0.6-0.4-0.8-0.5c-1.1-0.4-2.4,0.2-3.6,0.7
	c-0.2,0.1-0.5,0.2-0.7,0.3c-0.1,0-0.1,0.1-0.2,0.1C82.3-6,82-5.7,81.8-5.4c-0.1,0.2-0.2,0.4-0.2,0.6l-0.1,0.2
	c-0.1,0.4-0.3,0.8-0.4,1.2l-0.2,0.6c-0.3,1-0.6,2.2-0.7,3.5c0,0.2,0.1,0.4,0.1,0.6c0.1,0.4,0.2,0.8,0.2,1.2c0.1,0.3,0.1,0.6,0.2,0.8
	c0.1,0.3,0.2,0.7,0.4,1c0.2,0.6,0.5,1.3,0.7,2c0,0.2,0.1,0.4,0,0.7c0,0.5-0.1,0.9-0.1,1.4c0,0.9,0.3,2.1,0.8,3.3
	c0.1,0.2,0.2,0.4,0.3,0.5c0,0,0,0.1,0.1,0.1c0.1,0.2,0.2,0.4,0.3,0.6c0.1,0.3,0.1,0.6,0.1,0.8c0,0.1,0,0.1,0,0.2
	c0,0.4,0.1,0.7,0.2,1.1c0,0.1,0.1,0.3,0.1,0.4c0,0.2,0.1,0.4,0.2,0.6c0.4,1,1.1,1.9,2,2.6c0.3,0.2,0.4,0.6,0.5,0.8
	c0.1,0.1,0.1,0.4,0.2,0.6c0.2,0.4,0.3,0.8,0.4,1.3c0.1,0.3,0.2,0.5,0.2,0.8c0.3,1.4,0.4,2.8,0.3,4.1c-0.4,2.7-1.3,4.9-2.3,6.9
	c-0.2,0.4-0.4,0.8-0.6,1.2c-0.4,0.9-0.9,1.7-1.2,2.6l-0.3,1.1c-0.9,3.3-1.9,6.6-2.9,9.9l-0.3,1.1C79.9,48.9,79.7,49.1,79.4,49.1z"/>
<path fill="#F0AC31" d="M100.9,30.7c-0.3,0-0.5-0.2-0.5-0.5c-0.2-2.9-0.2-5.9-0.2-8.8c0-2.9-0.1-6-0.3-8.9c0-0.3,0-0.6-0.1-0.9
	l-0.2-1.6c0-0.2,0-0.4-0.1-0.5c0-0.2-0.1-0.3-0.1-0.4c-0.1-0.1-0.1-0.4,0-0.6c0.2-1.1,0.2-2.2-0.1-3.3c-0.2-0.6-0.3-1.2-0.3-1.8
	c0-0.2,0-0.4-0.1-0.6c0-0.2-0.1-0.3-0.1-0.5c0-0.2-0.1-0.3-0.1-0.5c-0.2-0.6-0.3-1.2-0.4-1.9c0-0.3-0.1-0.6-0.2-1
	c-0.1-0.2-0.1-0.5-0.2-0.7l-0.1-0.4c-0.2-0.5-0.4-1-0.6-1.6l-0.1-0.4C97-4.5,97-4.7,96.9-4.9l0-0.2c0-0.2-0.1-0.4-0.1-0.6
	c-0.1-0.3-0.2-0.6-0.3-0.9c-0.1-0.1-0.1-0.3-0.2-0.4c-0.1-0.1-0.2-0.3-0.3-0.4c-0.1-0.3-0.3-0.5-0.4-0.8c-0.2-0.4-0.5-0.9-0.8-1.3
	c0,0-0.1-0.1-0.1-0.1c-0.1-0.2-0.2-0.4-0.2-0.6c-0.1-0.2-0.2-0.4-0.3-0.5c-0.2-0.4-0.4-0.7-0.6-1c-0.2-0.3-0.5-0.5-0.7-0.8l-0.1-0.1
	c-0.1-0.1-0.3-0.2-0.4-0.4c-0.1-0.2-0.3-0.3-0.4-0.5c-0.2-0.2-0.3-0.4-0.5-0.5c-0.2-0.2-0.4-0.4-0.7-0.6l-0.2-0.2
	c-0.3-0.3-0.6-0.6-0.9-0.9c-2.2-2.3-3.7-4.3-4.6-6.6c-0.1-0.3,0-0.5,0.3-0.6c0.3-0.1,0.5,0,0.6,0.3c0.9,2.2,2.2,4.2,4.4,6.3
	c0.3,0.3,0.6,0.6,0.9,0.8l0.2,0.2c0.2,0.2,0.5,0.4,0.7,0.6c0.2,0.2,0.4,0.4,0.5,0.6c0.1,0.2,0.3,0.4,0.4,0.5
	c0.1,0.1,0.1,0.2,0.2,0.2l0.1,0.1c0.3,0.2,0.6,0.6,0.9,0.9c0.3,0.4,0.5,0.8,0.7,1c0.1,0.2,0.2,0.4,0.3,0.6c0.1,0.2,0.2,0.4,0.3,0.6
	c0.3,0.4,0.6,0.9,0.9,1.4c0.1,0.2,0.2,0.5,0.4,0.7c0.1,0.1,0.2,0.3,0.3,0.4c0.1,0.2,0.2,0.3,0.2,0.5c0.1,0.3,0.2,0.7,0.3,1.1
	c0.1,0.2,0.1,0.5,0.1,0.7l0,0.2c0,0.2,0,0.3,0.1,0.4l0.2,0.5c0.2,0.5,0.4,1.1,0.6,1.6l0.1,0.4C99-1.9,99-1.6,99.1-1.4
	c0.1,0.5,0.2,0.8,0.2,1.2c0,0.6,0.2,1.1,0.3,1.7c0.1,0.2,0.1,0.3,0.1,0.5c0,0.2,0.1,0.4,0.1,0.6c0,0.2,0.1,0.5,0.1,0.7
	c0,0.5,0.1,1,0.3,1.6c0.3,1.3,0.4,2.5,0.1,3.8c0,0.1,0,0.1,0,0.2c0.1,0.2,0.1,0.4,0.1,0.6c0,0.2,0,0.4,0.1,0.6l0.2,1.6
	c0,0.3,0,0.6,0.1,0.9c0.2,3,0.2,6.1,0.3,9c0,2.9,0.1,5.8,0.2,8.7C101.4,30.5,101.2,30.7,100.9,30.7
	C100.9,30.7,100.9,30.7,100.9,30.7z"/>
<path fill="#F0AC31" d="M77.9,44.5c0,0-0.1,0-0.1,0c-0.3-0.1-0.4-0.3-0.4-0.6c0-0.2,0.1-0.3,0.1-0.5c0.1-0.6,0.1-1.1,0-1.6
	c0-0.1,0-0.1,0-0.2l0.3-1.4c0-0.1,0.1-0.2,0.1-0.3c0,0,0-0.1,0-0.1c0.1-0.2,0.2-0.5,0.3-0.7c0.1-0.2,0.1-0.3,0.1-0.4
	c0.2-0.3,0.3-0.6,0.4-0.8c0-0.1,0.1-0.2,0.1-0.3c0.1-0.1,0.1-0.2,0.1-0.3c0-0.1,0.1-0.2,0.1-0.3c0-0.1,0.1-0.2,0.1-0.4l0.1-0.3
	c0-0.1,0-0.1,0.1-0.2c0,0,0,0,0,0c0,0,0,0,0,0c0-0.1,0-0.3,0-0.4c0,0,0-0.1,0-0.1c0,0,0,0,0-0.1c0-0.1,0-0.2,0-0.2c0,0,0,0,0,0
	c0-0.1,0-0.2,0.1-0.3c0,0,0-0.1,0-0.1l0-0.2c0-0.2,0.1-0.5,0.2-0.7c0.6-1,0.8-2.2,1.1-3.5c0.1-0.6,0.3-1.1,0.4-1.7
	c0.1-0.2,0.1-0.4,0.2-0.6l0.1-0.2c0.4-1.8-0.2-4-0.9-6.1l-0.2-0.7c-0.1-0.3,0.1-0.5,0.3-0.6c0.3-0.1,0.5,0.1,0.6,0.3l0.2,0.7
	c0.7,2.2,1.3,4.5,0.9,6.6l-0.1,0.3c-0.1,0.2-0.1,0.3-0.2,0.5c-0.2,0.5-0.3,1.1-0.4,1.6c-0.3,1.3-0.6,2.6-1.2,3.8
	c-0.1,0.1-0.1,0.3-0.1,0.5l0,0.2c0,0.1,0,0.2-0.1,0.3c0,0.1,0,0.2,0,0.3c0,0.1,0,0.2,0,0.3c0,0.2,0,0.4-0.1,0.6c0,0,0,0.1-0.1,0.2
	c0,0.1-0.1,0.2-0.1,0.3c0,0.1-0.1,0.2-0.1,0.2c0,0,0,0.1,0,0.1c0,0,0,0,0,0.1c0,0,0,0.1,0,0.1c0,0.1-0.1,0.2-0.1,0.4
	c0,0.1-0.1,0.2-0.1,0.3c-0.1,0.3-0.3,0.6-0.5,0.9c0,0,0,0.1-0.1,0.2c-0.1,0.3-0.2,0.7-0.4,0.9c0,0,0,0.1-0.1,0.2l-0.3,1.3
	c0.1,0.5,0.1,1.1,0,1.8c0,0.2-0.1,0.4-0.1,0.6C78.3,44.3,78.1,44.5,77.9,44.5z"/>
<polyline fill="none" points="80,-15.6 80.5,-8.8 87.7,-5.7 86.6,15 77.6,23.5 85.1,46.2 105.2,24.2 97.3,-25.2 "/>
</svg>
