<?xml version="1.0" encoding="utf-8"?>
<!-- Generator: Adobe Illustrator 19.0.0, SVG Export Plug-In . SVG Version: 6.00 Build 0)  -->
<svg version="1.1" id="Слой_1" xmlns="http://www.w3.org/2000/svg" xmlns:xlink="http://www.w3.org/1999/xlink" x="0px" y="0px"
	 viewBox="40 -30 80 80" enable-background="new 40 -30 80 80" xml:space="preserve">
<path fill="#F0AC31" d="M54.1,36.7c-0.2,0-0.3-0.1-0.4-0.2c-0.1-0.2-0.1-0.4,0-0.6L79.1,3.1L56.3-14.3c-0.2-0.1-0.2-0.4-0.2-0.6
	c0.1-0.2,0.3-0.3,0.5-0.3c0,0,0,0,0,0l36.7,0.3c0.2,0,0.4,0.1,0.4,0.3c0.1,0.2,0.1,0.4-0.1,0.5l-13.2,17l30.9,23.6
	c0.2,0.1,0.2,0.3,0.2,0.5c0,0.2-0.2,0.3-0.4,0.4L54.1,36.7C54.2,36.7,54.1,36.7,54.1,36.7z M79.9,3.7L55.3,35.5l54.6-8.8L79.9,3.7z
	 M58.1-14.2L79.7,2.3l12.6-16.2L58.1-14.2z"/>
<path fill="#F0AC31" d="M111.1,27.5c-0.2,0-0.4-0.1-0.5-0.3L92.8-14.2c-0.1-0.3,0-0.5,0.3-0.7c0.3-0.1,0.5,0,0.7,0.3l17.8,41.4
	c0.1,0.3,0,0.5-0.3,0.7C111.2,27.5,111.2,27.5,111.1,27.5z"/>
<path fill="#F0AC31" d="M54.1,36.7C54.1,36.7,54.1,36.7,54.1,36.7c-0.3,0-0.5-0.2-0.5-0.5l2.5-50.9c0-0.3,0.2-0.5,0.5-0.5
	c0.3,0,0.5,0.2,0.5,0.5l-2.5,50.9C54.6,36.5,54.4,36.7,54.1,36.7z"/>
<g>
	<path fill="none" stroke="#F0AC31" stroke-linecap="round" stroke-linejoin="round" stroke-miterlimit="10" d="M76.4,25.5"/>
	<path fill="#F0AC31" d="M70,25.8c-0.1,0-0.2,0-0.3-0.1c-0.2-0.2-0.3-0.5-0.1-0.7c0.9-1.2,1.8-2.7,2.1-3.2c0.1-0.2,0.4-0.3,0.7-0.2
		c0.2,0.1,0.3,0.4,0.2,0.7c-0.3,0.6-1.3,2.1-2.1,3.3C70.3,25.7,70.1,25.8,70,25.8z"/>
	<g>
		<path fill="#282C35" d="M73.6,30c-0.8,1-1.9,1.4-3.5,0.3c-0.9-0.6-1.5-1.8-1.3-2.7c0.1-0.6,0.6-1.5,1.2-2.4c0,0-0.9,1.3-1.2,1.6
			c-0.9,1-2.1,1.4-3.8,0.3c-1-0.7-1.7-2.1-1.4-3c0.4-1,1-1.9,1.5-2.7l0,0c-0.5,0.6-0.9,1.1-1.1,1.4c-0.8,0.8-1.8,1.1-3.1,0.1
			c-0.8-0.6-1.2-1.7-1-2.5c0.1-0.3,0.5-1,0.5-1c-0.4-0.3-1.4-0.9-2.6-1.5l0,0c-1.2,2.2-2.4,3.5-3.3,3.2l0,0l-12.4-3.4l0,0
			c-1.7-0.5-1.5-6.5,0.3-13.4s4.7-12.2,6.3-11.8l12.4,3.4c0.7,0.2,1.1,1.6,1.1,3.6l0,0c2.7,0.2,4.9-0.1,5.6-0.3
			c1.5-0.5,2.9-1.2,4.3-1.7c2-0.6,3.5-0.6,5.4,0.1l0,0c0.1-0.1,0.2-0.2,0.3-0.2c1.5-1,3.8-1.9,5.5-1.8c5.1,0.2,8.9,2.8,8.9,2.8
			c1.3,0,3.5-0.4,5.4-0.9l0,0c0.2-0.8,0.5-1.5,1-1.6l12.4-3.4c1.7-0.5,4.5,4.8,6.3,11.8s2,13,0.3,13.4l0,0l-12.4,3.4l0,0
			c-1,0.3-2.4-1.3-3.7-4.1l0,0c-0.5,0.2-1,0.3-1.4,0.4l0,0c-0.1,1.8-1.6,3.2-2.9,3.2c0,0,0.3,0.6,0.3,0.9c0.3,1.3-0.1,3-1.3,3.7
			c-2.1,1.2-4.1,0-4.1,0c0.2,0.4,0.9,2.4-0.5,3.6c-0.9,0.8-3.5,0.6-4.6-0.2c0,0,0.3,1.6-0.7,2.5c-0.8,0.8-2.1,0.9-3.1,0.7
			c-0.3,0-2-0.7-4.2-2c0,0-0.9,1.6-1.2,1.9c-0.6,0.8-1.5,1.2-2.8,0.4c-0.7-0.5-1.3-1.4-1.1-2.2c0.1-0.4,0.4-1,0.8-1.6
			C74.8,28.3,73.8,29.7,73.6,30"/>
		<path fill="#F0AC31" d="M76.5,33.5c-0.6,0-1.2-0.2-1.9-0.6c-0.6-0.3-1-0.9-1.3-1.4c-1.1,0.7-2.4,0.6-3.8-0.3
			c-0.9-0.6-1.5-1.6-1.8-2.5c-1,0.3-2.2,0.1-3.3-0.8c-1.1-0.7-1.9-2.1-1.9-3.4c-0.7,0-1.5-0.3-2.2-0.8c-1.1-0.8-1.7-2.4-1.4-3.6
			c0-0.1,0.1-0.2,0.1-0.3c-0.3-0.1-0.6-0.3-0.9-0.5c-1,1.7-2.4,3.2-3.8,2.9c0,0-0.1,0-0.1,0L42,18.8c0,0-0.1,0-0.1,0
			c-3.1-0.9-1.7-9.6-0.4-14.6c1.3-4.8,3.6-10.9,6-12.3c0.7-0.4,1.2-0.3,1.6-0.3L61.5-5c1,0.3,1.7,1.5,1.8,3.6
			c2.1,0.1,3.8-0.2,4.3-0.3c0.7-0.2,1.3-0.5,2-0.8c0.8-0.3,1.5-0.6,2.4-0.9c2-0.6,3.6-0.6,5.5-0.1c1.5-1,4-2,6.1-1.9
			c4.6,0.2,8.1,2.2,9.1,2.8C93.8-2.7,95.4-3,97-3.3C97.3-4,97.7-4.8,98.5-5l12.4-3.4c0.3-0.1,0.9-0.1,1.6,0.3
			c2.4,1.4,4.7,7.5,6,12.3c1.3,5,2.7,13.8-0.4,14.6c0,0-0.1,0-0.1,0l-12.3,3.4c0,0-0.1,0-0.1,0c-1.7,0.4-3.3-1.7-4.4-3.8
			c0,0,0,0,0,0c-0.3,1.5-1.4,2.6-2.5,3.1c0.4,1.6-0.1,3.8-1.8,4.7c-1.2,0.7-2.3,0.7-3.3,0.6c0,0.9-0.2,2-1.2,2.9
			c-1,0.9-2.8,0.9-4.3,0.5c-0.1,0.6-0.4,1.3-1,1.8c-0.9,0.8-2.4,1.2-3.9,0.9c-0.5-0.1-2-0.7-3.7-1.7c-0.3,0.5-0.6,1-0.8,1.2
			C78.1,33.1,77.4,33.5,76.5,33.5z M74.8,27.3c0.2,0,0.4,0,0.5,0.2c0.5,0.3,0.6,0.9,0.3,1.4C75.1,29.7,75,30,75,30.1
			c0,0.3,0.2,0.9,0.7,1.1c0.9,0.5,1.2,0.3,1.5-0.1c0.1-0.2,0.7-1.1,1.1-1.8c0.3-0.5,0.9-0.6,1.4-0.3c2.1,1.2,3.7,1.9,3.9,1.9
			c0.4,0.1,1.5,0.2,2.2-0.5c0.6-0.5,0.4-1.6,0.4-1.6c-0.1-0.4,0.1-0.8,0.4-1c0.3-0.2,0.8-0.2,1.1,0c0.9,0.6,2.9,0.7,3.3,0.3
			c1-0.9,0.3-2.4,0.3-2.4c-0.2-0.4-0.1-0.9,0.2-1.2c0.3-0.3,0.8-0.4,1.2-0.2c0.1,0,1.6,0.9,3.1,0c0.7-0.4,1.1-1.5,0.8-2.5
			c0-0.1-0.2-0.4-0.3-0.7c-0.1-0.3-0.1-0.7,0.1-0.9c0.2-0.3,0.5-0.5,0.8-0.5c0.7,0,1.9-0.9,2-2.2c0-0.4,0.3-0.8,0.7-0.9
			c0.4-0.1,0.9-0.3,1.4-0.4c0.5-0.1,1,0.1,1.2,0.5c1.3,2.8,2.3,3.5,2.6,3.5l12.4-3.4c0,0,0,0,0,0c0.6-0.6,0.8-5.1-1-12.2
			c-1.9-7.1-4.3-10.9-5.2-11.1L99.1-3.1c-0.1,0.1-0.2,0.4-0.3,0.8c-0.1,0.4-0.3,0.7-0.7,0.8c0,0,0,0,0,0c-1.6,0.4-4,0.8-5.6,0.9
			c-0.2,0-0.4-0.1-0.6-0.2c0,0-3.6-2.4-8.4-2.7c-1.4-0.1-3.5,0.6-4.9,1.6l-0.3,0.2c-0.3,0.2-0.6,0.2-0.9,0.1c-1.7-0.6-3-0.6-4.8,0
			c-0.7,0.2-1.4,0.5-2.1,0.8c-0.7,0.3-1.4,0.6-2.2,0.8c-0.9,0.3-3.2,0.6-6,0.3c-0.5,0-0.9-0.5-0.9-1c0-1.7-0.4-2.5-0.5-2.6L48.5-6.5
			c-0.8,0.2-3.2,4-5.1,11.1c-1.8,7-1.6,11.6-1,12.2l12.3,3.3c0,0,0.1,0,0.1,0c0.2-0.1,1-0.8,2.1-2.7c0,0,0,0,0,0
			c0.2-0.5,0.8-0.7,1.3-0.5c0,0,0,0,0,0c1.2,0.6,2.3,1.2,2.8,1.6c0.4,0.3,0.5,0.9,0.2,1.3c-0.2,0.3-0.4,0.7-0.4,0.8
			c-0.1,0.3,0.2,1,0.7,1.4c1,0.7,1.4,0.4,1.8,0c0.1-0.1,0.4-0.4,1-1.3c0,0,0,0,0,0l0,0c0,0,0,0,0,0c0.3-0.4,0.9-0.5,1.4-0.2
			c0.4,0.3,0.6,0.9,0.2,1.4c-0.6,0.9-1.1,1.7-1.4,2.5c-0.1,0.3,0.3,1.3,1,1.8c1.2,0.8,1.8,0.6,2.5-0.1c0.1-0.2,0.7-0.9,1.1-1.5
			c0.3-0.4,0.9-0.6,1.4-0.2c0.4,0.3,0.6,0.9,0.3,1.4c-0.9,1.4-1,1.9-1.1,2c-0.1,0.4,0.3,1.3,0.9,1.7c1.1,0.7,1.6,0.5,2.2-0.2
			c0.1-0.2,0.7-1,1.1-1.7C74.1,27.4,74.5,27.3,74.8,27.3z"/>
	</g>
	<path fill="#F0AC31" d="M54.6,21.6c0,0-0.1,0-0.1,0c-2.3-0.6-1.7-7.5,0-14C56,1.5,58.3-3.3,60.2-4.4c0.4-0.2,0.8-0.3,1.2-0.2
		c0.3,0.1,0.4,0.3,0.4,0.6c-0.1,0.3-0.3,0.4-0.6,0.4c-0.1,0-0.3,0-0.4,0.1c-1.4,0.8-3.6,4.9-5.3,11.3c-2,7.4-1.7,12.5-0.7,12.8
		c0.3,0.1,0.4,0.3,0.4,0.6C55,21.5,54.8,21.6,54.6,21.6z"/>
	<g>
		<path fill="#F0AC31" d="M62.4,0C62.4,0,62.3,0,62.4,0c-1.5-0.1-2.9-0.4-4.2-0.9c-0.3-0.1-0.4-0.4-0.3-0.6c0.1-0.3,0.4-0.4,0.6-0.3
			C59.7-1.4,61-1.2,62.4-1c0.3,0,0.5,0.3,0.5,0.5C62.8-0.2,62.6,0,62.4,0z"/>
	</g>
	<path fill="#F0AC31" d="M57.8,18.4c-0.1,0-0.1,0-0.2-0.1l-0.8-0.4c-1.6-0.8-3.1-1.5-3.6-1.9c-0.2-0.2-0.3-0.5-0.1-0.7
		c0.2-0.2,0.5-0.3,0.7-0.1c0.4,0.3,2,1.1,3.4,1.8l0.9,0.4c0.2,0.1,0.3,0.4,0.2,0.7C58.2,18.3,58,18.4,57.8,18.4z"/>
	<path fill="#F0AC31" d="M70,25.8c-0.1,0-0.2,0-0.3-0.1c-0.2-0.2-0.3-0.5-0.1-0.7c0.7-1.1,1.5-2.1,1.9-2.6c0.2-0.2,0.5-0.2,0.7,0
		c0.2,0.2,0.2,0.5,0,0.7c-0.3,0.3-1,1.3-1.8,2.4C70.3,25.7,70.1,25.8,70,25.8z"/>
	<path fill="#F0AC31" d="M60.4,19.9c-0.1,0-0.2,0-0.3-0.1c-0.2-0.1-0.3-0.5-0.2-0.7c0.8-1.3,2.1-2.8,2.6-3.2c1.5-1.4,3-1.7,4.2-0.9
		c1.7,1.1,1,3.4,0.5,4.2c-0.1,0.2-0.5,0.3-0.7,0.2c-0.2-0.1-0.3-0.5-0.2-0.7c0.3-0.5,0.9-2.1-0.2-2.9c-0.9-0.6-1.8-0.3-3,0.8
		c-0.4,0.4-1.7,1.9-2.4,3C60.8,19.8,60.6,19.9,60.4,19.9z"/>
	<path fill="#F0AC31" d="M65.2,21.9c-0.1,0-0.2,0-0.3-0.1c-0.2-0.2-0.3-0.5-0.1-0.7c0.7-0.9,1.4-2,1.7-2.4c0.1-0.2,0.5-0.3,0.7-0.2
		c0.2,0.1,0.3,0.5,0.2,0.7c-0.3,0.4-1,1.5-1.7,2.4C65.5,21.8,65.3,21.9,65.2,21.9z"/>
	<path fill="#F0AC31" d="M65.2,21.9c-0.1,0-0.2,0-0.3-0.1c-0.2-0.2-0.3-0.5-0.1-0.7c0.8-1.1,1.6-2.1,2-2.5c0.2-0.2,0.5-0.2,0.7,0
		c0.2,0.2,0.2,0.5,0,0.7c-0.4,0.4-1.2,1.3-1.9,2.4C65.5,21.8,65.3,21.9,65.2,21.9z"/>
	<path fill="#F0AC31" d="M76.4,26c-0.1,0-0.2,0-0.2-0.1c-0.2-0.1-0.3-0.4-0.2-0.7c0.3-0.6,0.8-2.5-0.5-3.3c-1-0.6-2.1-0.3-3.3,1.1
		c-0.2,0.2-0.5,0.2-0.7,0c-0.2-0.2-0.2-0.5,0-0.7c1.6-1.7,3.1-2.2,4.6-1.3c1.9,1.1,1.4,3.6,0.9,4.6C76.8,25.9,76.6,26,76.4,26z"/>
	<path fill="#F0AC31" d="M72.1,22.6c-0.1,0-0.2,0-0.3-0.1c-0.2-0.1-0.3-0.4-0.2-0.7c0.4-0.7,1-2.7-0.4-3.6c-1.1-0.7-2.3-0.4-3.7,1.1
		c-0.2,0.2-0.5,0.2-0.7,0c-0.2-0.2-0.2-0.5,0-0.7c1.8-1.8,3.4-2.2,5-1.2c2,1.3,1.4,4,0.8,5C72.4,22.5,72.2,22.6,72.1,22.6z"/>
	<path fill="#F0AC31" d="M79.2,30.3c-0.1,0-0.2,0-0.3-0.1c-0.2-0.1-0.3-0.4-0.2-0.7c0.4-0.7,0.8-1.4,1-1.8c0.2-0.5,0.6-2-0.4-2.5
		c-0.8-0.4-1.6-0.2-2.6,1c-0.2,0.2-0.5,0.2-0.7,0.1c-0.2-0.2-0.2-0.5-0.1-0.7c1.3-1.5,2.6-1.9,3.8-1.2c1.5,0.8,1.4,2.8,0.8,3.8
		c-0.2,0.3-0.6,1.1-1,1.8C79.5,30.2,79.4,30.3,79.2,30.3z"/>
	<path fill="#F0AC31" d="M87.2,29.1c-0.2,0-0.4-0.1-0.5-0.3c0-0.1-0.1-0.1-0.1-0.2c-0.4-0.6-1.2-1.3-1.9-1.9c-0.4-0.3-0.7-0.6-1-0.9
		c-0.2-0.2-0.2-0.5,0-0.7c0.2-0.2,0.5-0.2,0.7,0c0.3,0.3,0.6,0.6,1,0.9c0.8,0.7,1.7,1.4,2.1,2.2c0.1,0.1,0.1,0.2,0.2,0.3
		c0.1,0.3,0,0.5-0.3,0.7C87.4,29.1,87.3,29.1,87.2,29.1z"/>
	<path fill="#F0AC31" d="M82.9,26.7c-0.2,0-0.5-0.2-0.5-0.4c0-0.3,0.1-0.5,0.4-0.6c0.3,0,0.6-0.2,0.7-0.5c0.2-0.3,0.2-0.6,0.1-0.9
		c-0.1-0.3,0.1-0.5,0.3-0.6c0.3-0.1,0.5,0.1,0.6,0.3c0.2,0.6,0.1,1.2-0.2,1.7C84.1,26.3,83.6,26.6,82.9,26.7
		C83,26.7,83,26.7,82.9,26.7z"/>
	<path fill="#F0AC31" d="M92.3,25.7c-0.2,0-0.3-0.1-0.4-0.3c-0.7-1.3-2.2-2.7-3.2-3.6c-0.3-0.3-0.6-0.5-0.7-0.7
		c-0.2-0.2-0.2-0.5,0-0.7c0.2-0.2,0.5-0.2,0.7,0c0.1,0.2,0.4,0.4,0.7,0.6c1,1,2.6,2.4,3.3,3.8c0.1,0.2,0,0.5-0.2,0.7
		C92.4,25.7,92.4,25.7,92.3,25.7z"/>
	<path fill="#F0AC31" d="M87.1,22C87.1,22,87.1,22,87.1,22c-0.3,0-0.5-0.2-0.5-0.5c0-0.3,0.2-0.5,0.5-0.5c0.3,0,0.6-0.1,0.8-0.4
		c0.2-0.2,0.3-0.6,0.2-0.9c-0.1-0.3,0.1-0.5,0.3-0.6c0.3-0.1,0.5,0.1,0.6,0.3c0.2,0.6,0,1.3-0.3,1.8C88.3,21.7,87.7,22,87.1,22z"/>
	<path fill="#F0AC31" d="M97.4,21.3c-0.2,0-0.4-0.1-0.4-0.3c-0.8-1.5-2.7-3.2-4.1-4.4c-0.6-0.5-1.1-1-1.5-1.4
		c-0.2-0.2-0.2-0.5,0-0.7c0.2-0.2,0.5-0.2,0.7,0c0.3,0.3,0.8,0.8,1.4,1.3c1.4,1.3,3.4,3,4.3,4.7c0.1,0.2,0,0.5-0.2,0.7
		C97.5,21.2,97.5,21.3,97.4,21.3z"/>
	<path fill="#F0AC31" d="M90.8,16c-0.2,0-0.4-0.2-0.5-0.4c-0.1-0.3,0.1-0.5,0.4-0.6c0.5-0.1,0.9-0.6,0.9-1.1c0-0.3,0.2-0.5,0.5-0.5
		c0.3,0,0.5,0.2,0.5,0.5c0,1-0.7,1.9-1.6,2.1C90.9,16,90.9,16,90.8,16z"/>
	<path fill="#F0AC31" d="M94.7,2.2c-0.2,0-0.4-0.2-0.5-0.4c-0.3-1.2-1.1-2.4-2.1-3c-0.2-0.1-0.3-0.5-0.2-0.7
		c0.1-0.2,0.5-0.3,0.7-0.2c1.3,0.8,2.2,2.1,2.6,3.6c0.1,0.3-0.1,0.5-0.4,0.6C94.8,2.2,94.8,2.2,94.7,2.2z"/>
	<path fill="#F0AC31" d="M89.5,6.2c-0.1,0-0.2,0-0.2,0c-0.3,0-0.5-0.3-0.5-0.5c0-0.3,0.2-0.5,0.5-0.5c1,0.1,2.1-0.4,2.8-1.1
		c0.2-0.2,0.5-0.2,0.7,0c0.2,0.2,0.2,0.5,0,0.7C91.9,5.7,90.7,6.2,89.5,6.2z"/>
	<path fill="#F0AC31" d="M93.3,9.1c-0.3,0-0.5-0.2-0.5-0.5c0-0.3,0.2-0.5,0.4-0.5l0.1,0c1,0,2.1-0.1,2.6-1.3
		c0.2-0.6,0.2-1.7-0.1-2.2c-0.1-0.2,0-0.5,0.2-0.7c0.2-0.1,0.5,0,0.7,0.2c0.4,0.8,0.5,2.2,0.1,3C96.1,9.1,94,9.1,93.3,9.1
		C93.3,9.1,93.3,9.1,93.3,9.1z"/>
	<path fill="#F0AC31" d="M98.7,10.4c-0.2,0-0.4-0.2-0.5-0.4c-0.2-1-1.1-1.8-2.1-1.9c-0.3,0-0.5-0.3-0.5-0.5s0.3-0.5,0.5-0.5
		c1.4,0.1,2.7,1.3,3,2.7C99.2,10.1,99,10.3,98.7,10.4C98.7,10.4,98.7,10.4,98.7,10.4z"/>
	<path fill="#F0AC31" d="M72.9,6.2c-0.2,0-0.5-0.2-0.5-0.4c0-0.3,0.2-0.5,0.4-0.6c0.9-0.1,1.8-0.7,2.3-1.5c0.1-0.2,0.5-0.3,0.7-0.2
		C76.1,3.7,76.1,4,76,4.2C75.3,5.3,74.2,6,72.9,6.2C72.9,6.2,72.9,6.2,72.9,6.2z"/>
	<path fill="#F0AC31" d="M83.7,3c-0.2,0-0.3-0.1-0.4-0.2c-0.2-0.2-0.1-0.5,0.1-0.7c0.6-0.4,1-1.2,1.2-1.9c0-0.3,0.3-0.5,0.6-0.4
		c0.3,0,0.5,0.3,0.4,0.6c-0.1,1-0.7,2-1.6,2.6C83.9,3,83.8,3,83.7,3z"/>
	<path fill="#F0AC31" d="M80.9,3.6c-0.4,0-0.6,0-0.6,0c-0.3,0-0.5-0.3-0.5-0.5c0-0.3,0.3-0.5,0.5-0.5c0,0,1.9,0.2,3.1-0.5
		c0.2-0.1,0.5,0,0.7,0.2c0.1,0.2,0,0.5-0.2,0.7C82.9,3.5,81.6,3.6,80.9,3.6z"/>
	<path fill="#F0AC31" d="M100.3,18.1C100.3,18.1,100.3,18.1,100.3,18.1c-0.3,0-0.5-0.2-0.5-0.5c0.1-1.2-0.7-2.3-1.4-3.3
		C95,9.3,83.6,3,83.5,3c-0.2-0.1-0.3-0.4-0.2-0.7C83.4,2,83.7,2,84,2.1c0.5,0.3,11.7,6.4,15.3,11.6c0.8,1.2,1.6,2.5,1.6,3.9
		C100.8,17.8,100.6,18.1,100.3,18.1z"/>
	<path fill="#F0AC31" d="M74.8,8.1c-1,0-2.1-0.4-2.4-1.4c-0.3-0.8,1-5,1.3-5.8c0.4-1,2.5-2.8,3.8-3.7c0.2-0.2,0.5-0.1,0.7,0.1
		C78.3-2.5,78.2-2.2,78-2c-1.7,1.2-3.2,2.7-3.4,3.2c-0.6,1.7-1.4,4.7-1.3,5.2c0.2,0.5,1,0.7,1.7,0.7c1.9-0.2,4.3-1.8,4.8-4.1
		c0.1-0.3,0.3-0.4,0.6-0.4c0.3,0.1,0.4,0.3,0.4,0.6c-0.6,2.8-3.4,4.7-5.7,4.9C75,8.1,74.9,8.1,74.8,8.1z"/>
	<path fill="#F0AC31" d="M80.3,3.6c0,0-0.1,0-0.1,0c-0.3-0.1-0.4-0.4-0.3-0.6c0.3-0.9,0.2-1.9-0.1-2.8c-0.1-0.3,0-0.5,0.3-0.6
		c0.3-0.1,0.5,0,0.6,0.3c0.4,1.1,0.5,2.3,0.1,3.4C80.7,3.5,80.5,3.6,80.3,3.6z"/>
	<path fill="#F0AC31" d="M97.8-2c-0.2,0-0.4-0.2-0.5-0.4c-0.1-0.3,0.1-0.5,0.4-0.6c0.8-0.2,1.9-0.5,2.5-0.7c0.3-0.1,0.5,0,0.6,0.3
		c0.1,0.3,0,0.5-0.3,0.6c-0.5,0.2-1.3,0.4-2.7,0.7C97.9-2,97.9-2,97.8-2z"/>
	<path fill="#F0AC31" d="M101.7,17.6c-0.2,0-0.4-0.1-0.5-0.4c-0.1-0.3,0.1-0.5,0.3-0.6l1.7-0.5c1.2-0.4,2.3-0.7,3.1-1
		c0.3-0.1,0.5,0.1,0.6,0.3c0.1,0.3-0.1,0.5-0.3,0.6c-0.8,0.3-2,0.6-3.2,1l-1.7,0.5C101.8,17.6,101.8,17.6,101.7,17.6z"/>
	<path fill="#F0AC31" d="M105.4,21.6c-0.2,0-0.4-0.1-0.5-0.4c-0.1-0.3,0.1-0.5,0.4-0.6c1-0.3,1.3-5.4-0.7-12.8
		c-1.7-6.4-4-10.6-5.3-11.3c-0.1-0.1-0.3-0.1-0.4-0.1c-0.3,0.1-0.5-0.1-0.6-0.4c-0.1-0.3,0.1-0.5,0.4-0.6c0.4-0.1,0.8,0,1.2,0.2
		c1.9,1.1,4.2,5.9,5.8,11.9c1.7,6.5,2.3,13.4,0,14C105.5,21.6,105.5,21.6,105.4,21.6z"/>
	<path fill="#F0AC31" d="M74.8,28.8c-0.1,0-0.2,0-0.3-0.1c-0.2-0.1-0.3-0.4-0.2-0.7c0.6-1,1.3-2.1,1.7-2.4c0.2-0.2,0.5-0.2,0.7-0.1
		c0.2,0.2,0.2,0.5,0.1,0.7c-0.3,0.3-1,1.3-1.5,2.3C75.1,28.7,75,28.8,74.8,28.8z"/>
	<path fill="#F0AC31" d="M74.8,28.8c-0.1,0-0.2,0-0.3-0.1c-0.2-0.1-0.3-0.5-0.2-0.7c0.7-1,1.4-2.2,1.6-2.7c0.1-0.2,0.4-0.3,0.7-0.2
		s0.3,0.4,0.2,0.7c-0.3,0.5-1,1.7-1.7,2.7C75.1,28.7,74.9,28.8,74.8,28.8z"/>
</g>
<g>
	<circle fill="#282C35" cx="54.1" cy="36.2" r="7.5"/>
	<path fill="#F0AC31" d="M54.1,44.7c-4.7,0-8.5-3.8-8.5-8.5s3.8-8.5,8.5-8.5s8.5,3.8,8.5,8.5S58.8,44.7,54.1,44.7z M54.1,29.7
		c-3.6,0-6.5,2.9-6.5,6.5c0,3.6,2.9,6.5,6.5,6.5s6.5-2.9,6.5-6.5C60.6,32.6,57.7,29.7,54.1,29.7z"/>
</g>
<g>
	<circle fill="#212932" cx="111.1" cy="27" r="4"/>
	<path fill="#F0AC31" d="M111.1,32c-2.8,0-5-2.2-5-5s2.2-5,5-5c2.8,0,5,2.2,5,5S113.9,32,111.1,32z M111.1,24c-1.7,0-3,1.3-3,3
		c0,1.7,1.3,3,3,3c1.7,0,3-1.3,3-3C114.1,25.3,112.8,24,111.1,24z"/>
</g>
<g>
	<circle fill="#212932" cx="72.1" cy="-18.7" r="1.5"/>
	<path fill="#F0AC31" d="M72.1-16.7c-1.1,0-2-0.9-2-2c0-1.1,0.9-2,2-2s2,0.9,2,2C74.1-17.6,73.2-16.7,72.1-16.7z M72.1-19.7
		c-0.6,0-1,0.4-1,1s0.4,1,1,1c0.6,0,1-0.4,1-1S72.6-19.7,72.1-19.7z"/>
</g>
<g>
	<circle fill="#212932" cx="106.5" cy="-13.4" r="2"/>
	<path fill="#F0AC31" d="M106.5-10.9c-1.4,0-2.5-1.1-2.5-2.5s1.1-2.5,2.5-2.5s2.5,1.1,2.5,2.5S107.9-10.9,106.5-10.9z M106.5-14.9
		c-0.8,0-1.5,0.7-1.5,1.5s0.7,1.5,1.5,1.5s1.5-0.7,1.5-1.5S107.4-14.9,106.5-14.9z"/>
</g>
<g>
	<circle fill="#212932" cx="84.4" cy="-25.7" r="3"/>
	<path fill="#F0AC31" d="M84.4-22.2c-1.9,0-3.5-1.6-3.5-3.5s1.6-3.5,3.5-3.5s3.5,1.6,3.5,3.5S86.3-22.2,84.4-22.2z M84.4-28.2
		c-1.4,0-2.5,1.1-2.5,2.5c0,1.4,1.1,2.5,2.5,2.5c1.4,0,2.5-1.1,2.5-2.5C86.9-27.1,85.8-28.2,84.4-28.2z"/>
</g>
<g>
	<circle fill="#212932" cx="71.2" cy="41.4" r="2"/>
	<path fill="#F0AC31" d="M71.2,43.9c-1.4,0-2.5-1.1-2.5-2.5s1.1-2.5,2.5-2.5c1.4,0,2.5,1.1,2.5,2.5S72.6,43.9,71.2,43.9z M71.2,39.9
		c-0.8,0-1.5,0.7-1.5,1.5s0.7,1.5,1.5,1.5s1.5-0.7,1.5-1.5S72,39.9,71.2,39.9z"/>
</g>
<g>
	<circle fill="#212932" cx="105" cy="35.7" r="1.5"/>
	<path fill="#F0AC31" d="M105,37.7c-1.1,0-2-0.9-2-2c0-1.1,0.9-2,2-2s2,0.9,2,2C107,36.8,106.1,37.7,105,37.7z M105,34.7
		c-0.6,0-1,0.4-1,1c0,0.6,0.4,1,1,1c0.6,0,1-0.4,1-1C106,35.1,105.6,34.7,105,34.7z"/>
</g>
<g>
	<circle fill="#212932" cx="93.9" cy="34.7" r="1.5"/>
	<path fill="#F0AC31" d="M93.9,36.7c-1.1,0-2-0.9-2-2s0.9-2,2-2s2,0.9,2,2S95,36.7,93.9,36.7z M93.9,33.7c-0.6,0-1,0.4-1,1
		s0.4,1,1,1c0.6,0,1-0.4,1-1S94.5,33.7,93.9,33.7z"/>
</g>
<g>
	<circle fill="#212932" cx="62.1" cy="-22.7" r="1.5"/>
	<path fill="#F0AC31" d="M62.1-20.7c-1.1,0-2-0.9-2-2c0-1.1,0.9-2,2-2c1.1,0,2,0.9,2,2C64.1-21.6,63.2-20.7,62.1-20.7z M62.1-23.7
		c-0.6,0-1,0.4-1,1s0.4,1,1,1c0.6,0,1-0.4,1-1S62.7-23.7,62.1-23.7z"/>
</g>
<g>
	<circle fill="#212932" cx="87.1" cy="45.7" r="3"/>
	<path fill="#F0AC31" d="M87.1,49.2c-1.9,0-3.5-1.6-3.5-3.5s1.6-3.5,3.5-3.5s3.5,1.6,3.5,3.5S89,49.2,87.1,49.2z M87.1,43.2
		c-1.4,0-2.5,1.1-2.5,2.5s1.1,2.5,2.5,2.5c1.4,0,2.5-1.1,2.5-2.5S88.5,43.2,87.1,43.2z"/>
</g>
<g>
	<path fill="#212932" d="M60.6-15.4c0.5,2.8-1.9,5.2-4.7,4.7c-1.6-0.3-2.8-1.6-3.1-3.1c-0.5-2.8,1.9-5.2,4.7-4.7
		C59-18.3,60.3-17,60.6-15.4z"/>
	<path fill="#F0AC31" d="M56.6-9.7c-0.3,0-0.6,0-1-0.1c-2-0.4-3.6-2-3.9-3.9c-0.3-1.6,0.2-3.3,1.4-4.5c1.2-1.2,2.9-1.7,4.5-1.4
		c2,0.4,3.6,2,3.9,3.9c0.3,1.6-0.2,3.3-1.4,4.5C59.2-10.2,57.9-9.7,56.6-9.7z M56.6-17.7c-0.8,0-1.5,0.3-2.1,0.9
		c-0.7,0.7-1,1.7-0.8,2.7c0.2,1.2,1.2,2.1,2.3,2.3c1,0.2,2-0.1,2.7-0.8c0.7-0.7,1-1.7,0.8-2.7l0,0c-0.2-1.2-1.2-2.1-2.3-2.3
		C57-17.6,56.8-17.7,56.6-17.7z"/>
</g>
<g>
	<circle fill="#212932" cx="93.3" cy="-14.4" r="5.5"/>
	<path fill="#F0AC31" d="M93.3-7.9c-3.6,0-6.5-2.9-6.5-6.5s2.9-6.5,6.5-6.5c3.6,0,6.5,2.9,6.5,6.5S96.9-7.9,93.3-7.9z M93.3-18.9
		c-2.5,0-4.5,2-4.5,4.5s2,4.5,4.5,4.5c2.5,0,4.5-2,4.5-4.5S95.8-18.9,93.3-18.9z"/>
</g>
</svg>
