<?xml version="1.0" encoding="utf-8"?>
<!-- Generator: Adobe Illustrator 19.0.0, SVG Export Plug-In . SVG Version: 6.00 Build 0)  -->
<svg version="1.1" id="Слой_1" xmlns="http://www.w3.org/2000/svg" xmlns:xlink="http://www.w3.org/1999/xlink" x="0px" y="0px"
	 viewBox="0 0 16 16" style="enable-background:new 0 0 16 16;" xml:space="preserve">
<style type="text/css">
	.st0{fill:#FFFFFF;}
</style>
<g id="XMLID_3668_">
	<g id="XMLID_11274_">
		<g id="XMLID_11287_">
			<path id="XMLID_11288_" class="st0" d="M6,7H1C0.4,7,0,6.6,0,6V1c0-0.6,0.4-1,1-1h5c0.6,0,1,0.4,1,1v5C7,6.6,6.6,7,6,7z M2,5h3V2
				H2V5z"/>
		</g>
		<g id="XMLID_11283_">
			<path id="XMLID_11284_" class="st0" d="M15,7h-5C9.4,7,9,6.6,9,6V1c0-0.6,0.4-1,1-1h5c0.6,0,1,0.4,1,1v5C16,6.6,15.6,7,15,7z
				 M11,5h3V2h-3V5z"/>
		</g>
		<g id="XMLID_11279_">
			<path id="XMLID_11280_" class="st0" d="M6,16H1c-0.6,0-1-0.4-1-1v-5c0-0.6,0.4-1,1-1h5c0.6,0,1,0.4,1,1v5C7,15.6,6.6,16,6,16z
				 M2,14h3v-3H2V14z"/>
		</g>
		<g id="XMLID_11275_">
			<path id="XMLID_11276_" class="st0" d="M15,16h-5c-0.6,0-1-0.4-1-1v-5c0-0.6,0.4-1,1-1h5c0.6,0,1,0.4,1,1v5
				C16,15.6,15.6,16,15,16z M11,14h3v-3h-3V14z"/>
		</g>
	</g>
</g>
</svg>
