<?xml version="1.0" encoding="utf-8"?>
<!-- Generator: Adobe Illustrator 19.0.0, SVG Export Plug-In . SVG Version: 6.00 Build 0)  -->
<svg version="1.1" id="Слой_1" xmlns="http://www.w3.org/2000/svg" xmlns:xlink="http://www.w3.org/1999/xlink" x="0px" y="0px"
	 viewBox="0 0 120 40" enable-background="new 0 0 120 40" xml:space="preserve">
<g id="XMLID_19_">
	<path id="XMLID_20_" fill="#FFFFFF" d="M52,15.6c-0.4,2.1-1.2,3.2-3.8,3.1V17c1,0.1,1.5-0.1,1.7-1l0-0.1l-2.6-9.2h1.9l1,4.1
		l0.6,2.8l0.4-2.8L52,6.7h2L52,15.6z"/>
	<path id="XMLID_22_" fill="#FFFFFF" d="M56.6,18.6h-1.9V6.7h1.9v5.1h2.1V6.7h1.9v11.9h-1.9v-5.1h-2.1V18.6z"/>
	<path id="XMLID_24_" fill="#FFFFFF" d="M64,18.6H62V6.7h1.7v7.6l0.7-2.6l1.5-4.9H68v11.9h-1.7v-8.4l-0.8,2.9L64,18.6z"/>
	<path id="XMLID_26_" fill="#FFFFFF" d="M71.8,13.9L71.2,15v3.7h-1.9V6.7h1.9v5.2l2.5-5.2h1.9L72.9,12l2.6,6.6h-1.9L71.8,13.9z"/>
	<path id="XMLID_28_" fill="#FFFFFF" d="M82.5,18.6h-1.9l-0.3-2.2H78l-0.3,2.2h-1.7l1.9-11.9h2.7L82.5,18.6z M78.2,14.9H80l-0.9-6
		L78.2,14.9z"/>
	<path id="XMLID_31_" fill="#FFFFFF" d="M82.8,17c0.9,0,1.1-0.1,1.2-1.2l0.3-9h5.3v11.9h-1.9V8.4H86l-0.2,7.2c-0.1,2.2-0.9,3-2.7,3
		h-0.3V17z"/>
	<path id="XMLID_33_" fill="#FFFFFF" d="M91,18.6V6.7h1.9v4.5h0.9c1.9,0,2.8,1,2.8,3v1.6c0,1.9-0.9,3-2.8,3H91z M93.8,16.9
		c0.6,0,0.9-0.3,0.9-1.1V14c0-0.9-0.3-1.1-0.9-1.1h-0.9v4H93.8z"/>
	<path id="XMLID_36_" fill="#FFFFFF" d="M99.6,18.6h-1.9V6.7h1.9v5.1h2.1V6.7h1.9v11.9h-1.9v-5.1h-2.1V18.6z"/>
	<path id="XMLID_38_" fill="#FFFFFF" d="M105,18.6V6.7h1.9v4.5h0.9c1.9,0,2.8,1,2.8,3v1.6c0,1.9-0.9,3-2.8,3H105z M107.8,16.9
		c0.6,0,0.9-0.3,0.9-1.1V14c0-0.9-0.3-1.1-0.9-1.1h-0.9v4H107.8z M111.6,18.6V6.7h1.9v11.9H111.6z"/>
	<path id="XMLID_42_" fill="#FFFFFF" d="M116.8,11.7h2.6v1.7h-2.6v3.5h3.2v1.7h-5.1V6.7h5.1v1.7h-3.2V11.7z"/>
	<path id="XMLID_44_" fill="#FFFFFF" d="M50.3,28.5l-0.6,1.1v3.7h-1.9V21.4h1.9v5.2l2.5-5.2H54l-2.6,5.3l2.6,6.6h-1.9L50.3,28.5z"/>
	<path id="XMLID_46_" fill="#FFFFFF" d="M60.9,33.3H59l-0.3-2.2h-2.3l-0.3,2.2h-1.7l1.9-11.9H59L60.9,33.3z M56.7,29.5h1.8l-0.9-6
		L56.7,29.5z"/>
	<path id="XMLID_49_" fill="#FFFFFF" d="M61.3,31.6c0.9,0,1.1-0.1,1.2-1.2l0.3-9H68v11.9h-1.9V23.1h-1.6l-0.2,7.2
		c-0.1,2.2-0.9,3-2.7,3h-0.3V31.6z"/>
	<path id="XMLID_51_" fill="#FFFFFF" d="M69.5,33.3V21.4h1.9v4.5h0.9c1.9,0,2.8,1,2.8,3v1.6c0,1.9-0.9,3-2.8,3H69.5z M72.2,31.6
		c0.6,0,0.9-0.3,0.9-1.1v-1.8c0-0.9-0.3-1.1-0.9-1.1h-0.9v4H72.2z"/>
	<path id="XMLID_54_" fill="#FFFFFF" d="M75.8,33.3c0.2-0.4,0.2-0.9,0.2-1.5V30c0-1.2,0.3-2.1,1.2-2.5c-0.8-0.4-1.2-1.2-1.2-2.4
		v-0.9c0-1.8,0.8-2.7,2.8-2.7h2.8v11.9h-1.9v-4.9h-0.6c-0.9,0-1.2,0.4-1.2,1.5v1.9c0,1-0.1,1.2-0.2,1.5H75.8z M78.9,23.1
		c-0.7,0-1,0.4-1,1.2v1.2c0,1,0.4,1.3,1.1,1.3h0.7v-3.7H78.9z"/>
	<path id="XMLID_57_" fill="#FFFFFF" d="M84.9,33.3H83V21.4h1.9v5.1H87v-5.1H89v11.9H87v-5.1h-2.1V33.3z"/>
	<path id="XMLID_59_" fill="#FFFFFF" d="M92.2,33.3h-1.9V21.4h1.9v5.1h2.1v-5.1h1.9v11.9h-1.9v-5.1h-2.1V33.3z"/>
	<path id="XMLID_61_" fill="#FFFFFF" d="M97.6,33.3V21.4h1.9v4.5h0.9c1.9,0,2.8,1,2.8,3v1.6c0,1.9-0.9,3-2.8,3H97.6z M100.4,31.6
		c0.6,0,0.9-0.3,0.9-1.1v-1.8c0-0.9-0.3-1.1-0.9-1.1h-0.9v4H100.4z M104.2,33.3V21.4h1.9v11.9H104.2z"/>
	<path id="XMLID_65_" fill="#FFFFFF" d="M109.4,26.4h2.6v1.7h-2.6v3.5h3.2v1.7h-5.1V21.4h5.1v1.7h-3.2V26.4z"/>
</g>
<g id="Logo">
	<path id="XMLID_2_" fill="#EBB22F" d="M13.5,21.7c0.1,0.1,0.2,0.1,0.3,0.3c0.6,1.1,2,0.8,2,0.8c-0.2-0.4-0.6-0.8-1-0.9
		C14.2,21.5,13.5,21.7,13.5,21.7z"/>
	<path id="XMLID_8_" fill="#EBB22F" d="M25.2,21.8c-0.4,0.2-0.7,0.5-1,0.9c0,0,1.4,0.2,2-0.8c0.1-0.1,0.2-0.2,0.3-0.3
		C26.6,21.7,25.9,21.5,25.2,21.8z"/>
	<path id="XMLID_11_" fill="#EBB22F" d="M20,0C9,0,0,9,0,20c0,11,9,20,20,20c11,0,20-9,20-20C40,9,31,0,20,0z M30.8,33.9
		c-1.9,1.5-3.7,1.2-3.7,1.2c-1.1,0-1.4-1.3-1.5-1.7l0-0.1c0-0.2-0.3-0.4-0.6-0.5c-0.2-0.1-0.5-0.3-0.7-0.5c-0.3-0.4-0.2-0.6-0.1-0.9
		c0.1-0.1,0.1-0.2,0.1-0.4c0-0.1,0-0.2,0-0.2c-0.1-0.2-0.4-0.2-0.7-0.2c-0.1,0-0.2,0-0.3-0.1c-0.2-0.1-0.2-0.5-0.2-0.8
		c0-0.2,0-0.4,0-0.6c0-0.2-0.3-0.3-0.6-0.5c-0.3-0.1-0.7-0.3-0.8-0.6c-0.2-0.4,0.1-1.5,0.3-2.4c0.1-0.5,0.2-0.9,0.2-1.2
		c0.1-0.8,0-1.4-0.3-2.4c-0.4-1.1-0.3-2.9-0.1-3.6c0.2-0.7,0.3-1.8,0-2.3c-0.4-0.8-0.5-1.6-0.4-2.7c0-0.8,0.6-0.8,1.6-0.8
		c0.4,0,0.8,0,1.3,0c0.6,0,1.1-0.2,1.4-0.5c0.3-0.4,0.3-0.7,0.3-0.8l0,0l-4.7,0l0-0.6C22,10.2,22,9.4,22,9.4l0,0l-0.6,0
		c0-0.4,0.3-0.7,0.6-0.9c0.2-0.2,0.5-0.4,0.6-0.7c0-0.2,0-0.4-0.1-0.5c-0.2-0.3-0.6-0.3-0.7-0.4c0-0.6-0.6-0.8-0.6-0.8
		c-1.2-0.6-2.4,0-2.4,0c0,0-0.6,0.2-0.6,0.8c-0.1,0-0.5,0.1-0.7,0.4c-0.1,0.1-0.1,0.3-0.1,0.5C17.5,8,17.8,8.2,18,8.4
		c0.3,0.2,0.6,0.5,0.6,0.9l-0.6,0l0,0c0,0,0,0.8,0.6,1.1l0,0.6l-4.7,0l0,0c0,0,0,0.4,0.3,0.8c0.3,0.3,0.7,0.5,1.4,0.5
		c0.5,0,0.9,0,1.3,0c1,0,1.6,0,1.6,0.8c0.1,1.1,0,1.9-0.4,2.7c-0.3,0.5-0.2,1.6,0,2.3c0.2,0.7,0.3,2.5-0.1,3.6
		c-0.3,1-0.4,1.6-0.3,2.4c0,0.3,0.1,0.7,0.2,1.2c0.2,0.9,0.5,2,0.3,2.4c-0.1,0.3-0.5,0.5-0.8,0.6c-0.3,0.1-0.6,0.2-0.6,0.5
		c0,0.2,0,0.4,0,0.6c0,0.4,0,0.8-0.2,0.8c-0.1,0-0.2,0-0.3,0.1c-0.3,0-0.5,0.1-0.7,0.2c0,0.1-0.1,0.1,0,0.2c0,0.1,0.1,0.2,0.1,0.4
		c0.1,0.3,0.3,0.6-0.1,0.9c-0.2,0.2-0.5,0.4-0.7,0.5c-0.3,0.1-0.5,0.3-0.6,0.5l0,0.1c-0.1,0.5-0.3,1.8-1.5,1.7c0,0-1.9,0.2-3.6-1.2
		C5.1,30.7,2.4,25.6,2.4,20C2.4,12.1,7.8,5.3,15,3.2c-0.1,0.5,0,1.6,1.5,1.9c1.8,0.3,3.3-0.7,3.4,0.3c0-1.9-3.6,0.1-3.4-1.7
		c0.1-1.3,3,0.1,4.7-0.1c0.7-0.1,0.9-0.5,0.9-0.8C30.8,3.6,37.6,11,37.6,20C37.6,25.6,34.9,30.7,30.8,33.9z"/>
</g>
</svg>
