<?xml version="1.0" encoding="utf-8"?>
<!-- Generator: Adobe Illustrator 19.0.0, SVG Export Plug-In . SVG Version: 6.00 Build 0)  -->
<svg version="1.1" id="Слой_1" xmlns="http://www.w3.org/2000/svg" xmlns:xlink="http://www.w3.org/1999/xlink" x="0px" y="0px"
	 viewBox="0 0 100 70" enable-background="new 0 0 100 70" xml:space="preserve">
<g id="XMLID_3939_">
	<g id="XMLID_1518_">
		<path id="XMLID_18_" fill="none" stroke="#F1AD31" stroke-width="2" stroke-miterlimit="10" d="M99,30.8c0-14-14-25.3-31.2-25.3
			c-3.6,0-7.1,0.5-10.3,1.4C51.7,3.2,44.4,1,36.6,1C17,1,1,14.9,1,32c0,6.8,2.5,13.2,6.8,18.3L3.5,68.1L21.1,60
			c4.7,2,10,3.1,15.6,3.1c9,0,17.3-2.9,23.6-7.8c2.4,0.5,5,0.8,7.6,0.8c5.6,0,10.8-1.2,15.4-3.3l12.5,6.3l-3.5-12.6
			C96.4,42.3,99,36.8,99,30.8z"/>
		<ellipse id="XMLID_8_" opacity="0.5" fill="#F1AD31" cx="23" cy="32.7" rx="4.5" ry="4.5"/>
		<ellipse id="XMLID_4_" opacity="0.5" fill="#F1AD31" cx="36.4" cy="32.7" rx="4.5" ry="4.5"/>
		<ellipse id="XMLID_5_" opacity="0.5" fill="#F1AD31" cx="49.7" cy="32.7" rx="4.5" ry="4.5"/>
		<ellipse id="XMLID_1493_" opacity="0.5" fill="#F1AD31" cx="76.2" cy="32.2" rx="2.4" ry="2.4"/>
		<ellipse id="XMLID_1413_" opacity="0.5" fill="#F1AD31" cx="83.3" cy="32.2" rx="2.4" ry="2.4"/>
	</g>
	<path id="XMLID_31_" fill="none" stroke="#F1AD31" stroke-width="2" stroke-miterlimit="10" d="M60.2,55.3c0,0,12.1-3.9,12.1-23.3
		S57.5,6.9,57.5,6.9"/>
</g>
</svg>
