<?xml version="1.0" encoding="utf-8"?>
<!-- Generator: Adobe Illustrator 19.0.0, SVG Export Plug-In . SVG Version: 6.00 Build 0)  -->
<svg version="1.1" id="Слой_1" xmlns="http://www.w3.org/2000/svg" xmlns:xlink="http://www.w3.org/1999/xlink" x="0px" y="0px"
	 viewBox="0 0 974.1 437.7" enable-background="new 0 0 974.1 437.7" xml:space="preserve">
<g id="XMLID_35_">
	<path id="XMLID_36_" fill="#E4B33A" d="M0,23.9C0,8.7,7.2,0,20.5,0C33.8,0,41,8.7,41,23.9v49.5c0,15.2-7.2,23.9-20.5,23.9
		C7.2,97.4,0,88.7,0,73.4V23.9z M13.5,74.4c0,6.8,2.7,9.4,7,9.4s7-2.6,7-9.4V23c0-6.8-2.7-9.4-7-9.4s-7,2.6-7,9.4V74.4z"/>
	<path id="XMLID_39_" fill="#E4B33A" d="M102.1,24.6V37c0,15.2-6.6,23.5-20.2,23.5h-6.4v35.8H62.1V1.1H82
		C95.5,1.1,102.1,9.4,102.1,24.6z M75.6,14.7v32.2H82c4.3,0,6.6-2.2,6.6-9V23.7c0-6.8-2.3-9-6.6-9H75.6z"/>
	<path id="XMLID_42_" fill="#E4B33A" d="M134.6,96.3h-13.9V1.1h12v60.2l4.9-20.9l11.1-39.3h14.9v95.2h-12.2v-67l-5.5,23.4
		L134.6,96.3z"/>
	<path id="XMLID_44_" fill="#E4B33A" d="M185.5,96.3V1.1h35.6v13.6h-22.1v81.6H185.5z"/>
	<path id="XMLID_46_" fill="#E4B33A" d="M256.4,96.3h-13.9V1.1h12v60.2l4.9-20.9l11.1-39.3h14.9v95.2h-12.2v-67l-5.5,23.4
		L256.4,96.3z"/>
	<path id="XMLID_48_" fill="#E4B33A" d="M320.8,96.3h-13.5V1.1h13.5v40.8h15.4V1.1H350v95.2h-13.8V55.5h-15.4V96.3z"/>
	<path id="XMLID_50_" fill="#E4B33A" d="M415.8,96.3h-13.6L399.8,79h-16.6l-2.3,17.3h-12.4l13.8-95.2h19.8L415.8,96.3z M385,66.1h13
		L391.5,18L385,66.1z"/>
	<path id="XMLID_53_" fill="#E4B33A" d="M430.6,82.8c6.1,0,8.1-1,8.4-9.8l2.2-71.9h38.2v95.2h-13.8V14.7h-11.8l-1.5,57.5
		c-0.5,17.4-6.1,24.2-19.7,24.2h-2.1V82.8z"/>
	<path id="XMLID_55_" fill="#E4B33A" d="M238.1,132.8c0-15.2,7.2-23.9,20.5-23.9s20.5,8.7,20.5,23.9v49.5c0,15.2-7.2,23.9-20.5,23.9
		s-20.5-8.7-20.5-23.9V132.8z M251.7,183.3c0,6.8,2.7,9.4,7,9.4s7-2.6,7-9.4v-51.4c0-6.8-2.7-9.4-7-9.4s-7,2.6-7,9.4V183.3z"/>
	<path id="XMLID_58_" fill="#E4B33A" d="M339.3,218v-12.8h-28.9V218h-13.1v-26.1h5.3c2.3-3.3,3.1-6.8,3.3-12.4l3.1-69.5h37.8v81.9
		h5.9V218H339.3z M319.1,179.2c-0.4,7.2-1.6,10.3-3.8,12.6H333v-68.3h-11.4L319.1,179.2z"/>
	<path id="XMLID_61_" fill="#E4B33A" d="M386.3,205.2h-13.9V110h12v60.2l4.9-20.9l11.1-39.3h14.9v95.2h-12.2v-67l-5.5,23.4
		L386.3,205.2z"/>
	<path id="XMLID_63_" fill="#E4B33A" d="M450.7,205.2h-13.5V110h13.5v40.8h15.4V110h13.8v95.2h-13.8v-40.8h-15.4V205.2z"/>
</g>
<g id="XMLID_1_">
	<path id="XMLID_2_" fill="#FFFFFF" d="M443.4,255.4c0-15.2,7.2-23.9,20.5-23.9c13.3,0,20.5,8.7,20.5,23.9v49.5
		c0,15.2-7.2,23.9-20.5,23.9c-13.3,0-20.5-8.7-20.5-23.9V255.4z M456.9,305.8c0,6.8,2.7,9.4,7,9.4s7-2.6,7-9.4v-51.4
		c0-6.8-2.7-9.4-7-9.4s-7,2.6-7,9.4V305.8z"/>
	<path id="XMLID_5_" fill="#FFFFFF" d="M544.6,292.2v12.6c0,15.2-6.9,23.9-20.2,23.9s-20.2-8.7-20.2-23.9v-49.5
		c0-15.2,6.9-23.9,20.2-23.9s20.2,8.7,20.2,23.9v9.2h-12.8v-10.2c0-6.8-2.7-9.4-7-9.4s-7,2.6-7,9.4v51.4c0,6.8,2.7,9.2,7,9.2
		s7-2.4,7-9.2v-13.6H544.6z"/>
	<path id="XMLID_7_" fill="#FFFFFF" d="M561.2,232.5H603v13.6h-14.1v81.6h-13.5v-81.6h-14.1V232.5z"/>
	<path id="XMLID_9_" fill="#FFFFFF" d="M664.9,327.7h-13.6l-2.3-17.3h-16.6l-2.3,17.3h-12.4l13.8-95.2h19.8L664.9,327.7z
		 M634.1,297.5h13l-6.5-48.1L634.1,297.5z"/>
	<path id="XMLID_12_" fill="#FFFFFF" d="M679.7,314.3c6.1,0,8.1-1,8.4-9.8l2.2-71.9h38.2v95.2h-13.8v-81.6h-11.8l-1.5,57.5
		c-0.5,17.4-6.1,24.2-19.7,24.2h-2.1V314.3z"/>
	<path id="XMLID_14_" fill="#FFFFFF" d="M751.1,327.7v-95.2h13.5v35.8h6.4c13.5,0,20.2,8.3,20.2,23.5v12.4
		c0,15.2-6.6,23.5-20.2,23.5H751.1z M771,314.1c4.3,0,6.6-2.2,6.6-9v-14.3c0-6.8-2.3-9-6.6-9h-6.4v32.2H771z"/>
	<path id="XMLID_17_" fill="#FFFFFF" d="M825,327.7h-13.5v-95.2H825v40.8h15.4v-40.8h13.8v95.2h-13.8v-40.8H825V327.7z"/>
	<path id="XMLID_19_" fill="#FFFFFF" d="M875.2,255.4c0-15.2,7.2-23.9,20.5-23.9c13.3,0,20.5,8.7,20.5,23.9v49.5
		c0,15.2-7.2,23.9-20.5,23.9c-13.3,0-20.5-8.7-20.5-23.9V255.4z M888.7,305.8c0,6.8,2.7,9.4,7,9.4s7-2.6,7-9.4v-51.4
		c0-6.8-2.7-9.4-7-9.4s-7,2.6-7,9.4V305.8z"/>
	<path id="XMLID_22_" fill="#FFFFFF" d="M950.8,272.6h18.6v13.6h-18.6v27.9h23.3v13.6h-36.9v-95.2h36.9v13.6h-23.3V272.6z"/>
	<path id="XMLID_24_" fill="#FFFFFF" d="M462.2,398.7l-4.2,8.7v29.2h-13.5v-95.2H458v41.5l17.7-41.5h13.5l-18.8,42.4l18.8,52.8
		h-13.9L462.2,398.7z"/>
	<path id="XMLID_26_" fill="#FFFFFF" d="M506.5,364.3c0-15.2,7.2-23.9,20.5-23.9c13.3,0,20.5,8.7,20.5,23.9v49.5
		c0,15.2-7.2,23.9-20.5,23.9c-13.3,0-20.5-8.7-20.5-23.9V364.3z M520.1,414.7c0,6.8,2.7,9.4,7,9.4s7-2.6,7-9.4v-51.4
		c0-6.8-2.7-9.4-7-9.4s-7,2.6-7,9.4V414.7z"/>
	<path id="XMLID_29_" fill="#FFFFFF" d="M582.1,436.6h-13.5v-95.2h42.6v95.2h-13.8V355h-15.4V436.6z"/>
	<path id="XMLID_31_" fill="#FFFFFF" d="M647.2,436.6h-13.9v-95.2h12v60.2l4.9-20.9l11.1-39.3h14.9v95.2h-12.2v-67l-5.5,23.4
		L647.2,436.6z"/>
	<path id="XMLID_33_" fill="#FFFFFF" d="M712,436.6h-13.9v-95.2h12v60.2l4.9-20.9l11.1-39.3H741v95.2h-12.2v-67l-5.5,23.4L712,436.6
		z"/>
</g>
</svg>
