<?xml version="1.0" encoding="utf-8"?>
<!-- Generator: Adobe Illustrator 19.0.0, SVG Export Plug-In . SVG Version: 6.00 Build 0)  -->
<svg version="1.1" id="Слой_1" xmlns="http://www.w3.org/2000/svg" xmlns:xlink="http://www.w3.org/1999/xlink" x="0px" y="0px"
	 viewBox="0 0 64 64" enable-background="new 0 0 64 64" xml:space="preserve">
<g id="XMLID_77_">
	
		<path id="XMLID_3938_" fill="none" stroke="#F0AC31" stroke-width="2" stroke-linecap="round" stroke-linejoin="round" stroke-miterlimit="10" d="
		M42.1,13.4C46.4,23.8,51.7,40.6,56,51c-0.1,0-0.2,0.1-0.3,0.1c-2.8,0.8-5.7-0.5-7.1-3.1c-3.5-6.6-8.1-14.8-12.8-13.9
		c0,0-3.7-8.1-5.2-11.7"/>
	
		<path id="XMLID_3937_" fill="none" stroke="#F0AC31" stroke-width="2" stroke-linecap="round" stroke-linejoin="round" stroke-miterlimit="10" d="
		M21.6,13.1C17.2,23.5,12,40.3,7.7,50.7c0.6,0.2,1.2,0.3,1.8,0.5c2,0.5,4-0.4,5-2.2c3.6-6.8,8.5-16.1,13.5-15.2
		c0,0,3.7-8.1,5.2-11.7"/>
	<polyline id="XMLID_3936_" fill="none" stroke="#F0AC31" stroke-width="2" stroke-miterlimit="10" points="7.6,50.7 6.6,56.9 
		9.4,51.2 	"/>
	<polyline id="XMLID_3935_" fill="none" stroke="#F0AC31" stroke-width="2" stroke-miterlimit="10" points="56,50.7 57,56.9 
		54.2,51.2 	"/>
	
		<circle id="XMLID_78_" fill="none" stroke="#F0AC31" stroke-width="2" stroke-linecap="round" stroke-linejoin="round" stroke-miterlimit="10" cx="31.7" cy="11.5" r="10.1"/>
	
		<circle id="XMLID_79_" fill="none" stroke="#F0AC31" stroke-linecap="round" stroke-linejoin="round" stroke-miterlimit="10" cx="31.7" cy="11.5" r="3.7"/>
	<g id="XMLID_80_">
		
			<path id="XMLID_3932_" fill="none" stroke="#F2AE32" stroke-width="2" stroke-linecap="round" stroke-linejoin="round" stroke-miterlimit="10" d="
			M25.3,50.6l6.7,6.7l29.6-29.6c0,0,1.5-1.5,0.2-3.2l-5.2-5.2L32,44L25.3,50.6"/>
		
			<line id="XMLID_3931_" fill="none" stroke="#F2AE32" stroke-linecap="round" stroke-linejoin="round" stroke-miterlimit="10" x1="35.7" y1="40.3" x2="39" y2="43.6"/>
		
			<line id="XMLID_3930_" fill="none" stroke="#F2AE32" stroke-linecap="round" stroke-linejoin="round" stroke-miterlimit="10" x1="41.2" y1="34.8" x2="44.5" y2="38.1"/>
		
			<line id="XMLID_3929_" fill="none" stroke="#F2AE32" stroke-linecap="round" stroke-linejoin="round" stroke-miterlimit="10" x1="46.6" y1="29.3" x2="50" y2="32.7"/>
		
			<line id="XMLID_3928_" fill="none" stroke="#F2AE32" stroke-linecap="round" stroke-linejoin="round" stroke-miterlimit="10" x1="52.1" y1="23.9" x2="55.4" y2="27.2"/>
	</g>
	<g id="XMLID_81_">
		
			<path id="XMLID_3926_" fill="none" stroke="#F2AE32" stroke-width="2" stroke-linecap="round" stroke-linejoin="round" stroke-miterlimit="10" d="
			M38.7,50.6L32,57.3L2.4,27.7c0,0-1.5-1.5-0.2-3.2l5.2-5.2L32,44L38.7,50.6"/>
		
			<line id="XMLID_3925_" fill="#212932" stroke="#F2AE32" stroke-linecap="round" stroke-linejoin="round" stroke-miterlimit="10" x1="28.3" y1="40.3" x2="25" y2="43.6"/>
		
			<line id="XMLID_3924_" fill="#212932" stroke="#F2AE32" stroke-linecap="round" stroke-linejoin="round" stroke-miterlimit="10" x1="30.4" y1="49.1" x2="33.8" y2="45.7"/>
		
			<line id="XMLID_3923_" fill="#212932" stroke="#F2AE32" stroke-linecap="round" stroke-linejoin="round" stroke-miterlimit="10" x1="22.8" y1="34.8" x2="19.5" y2="38.1"/>
		
			<line id="XMLID_3922_" fill="#212932" stroke="#F2AE32" stroke-linecap="round" stroke-linejoin="round" stroke-miterlimit="10" x1="17.4" y1="29.3" x2="14" y2="32.7"/>
		
			<line id="XMLID_3921_" fill="#212932" stroke="#F2AE32" stroke-linecap="round" stroke-linejoin="round" stroke-miterlimit="10" x1="11.9" y1="23.9" x2="8.6" y2="27.2"/>
	</g>
	<path id="XMLID_82_" fill="none" stroke="#F0AC31" stroke-linecap="round" stroke-linejoin="round" stroke-miterlimit="10" d="
		M24.5,16.8"/>
</g>
</svg>
