<?xml version="1.0" encoding="utf-8"?>
<!-- Generator: Adobe Illustrator 18.1.1, SVG Export Plug-In . SVG Version: 6.00 Build 0)  -->
<svg version="1.1" xmlns="http://www.w3.org/2000/svg" xmlns:xlink="http://www.w3.org/1999/xlink" x="0px" y="0px"
	 viewBox="0 0 80 80" enable-background="new 0 0 80 80" xml:space="preserve">
<g id="Слой_2" display="none">
	<rect x="-89.3" y="-86.8" display="inline" stroke="#000000" stroke-miterlimit="10" width="256" height="256"/>
</g>
<g id="Слой_1">
	
		<text id="XMLID_14540_" transform="matrix(1 0 0 1 18.7381 132.5382)" display="none" opacity="0.1" fill="#FFFFFF" font-family="'Lora-Regular'" font-size="10" letter-spacing="1">21.09.15</text>
	<g id="XMLID_23457_" display="none">
		
			<text transform="matrix(1 0 0 1 0.7491 112.3654)" display="inline" fill="#FFFFFF" font-family="'BebasNeueRegular'" font-size="14" letter-spacing="2">Маскировка</text>
	</g>
	<g id="XMLID_14693_">
		<path id="XMLID_14777_" fill="#F2AF31" d="M44.4,60.7C44.3,60.7,44.3,60.7,44.4,60.7c-0.3-1.2-0.8-2-1.6-2.4c-1.2-0.6-2.6,0-2.6,0
			c0,0-0.1,0-0.1,0c0,0,0-0.1,0-0.1c0.1,0,1.5-0.6,2.8,0c0.8,0.4,1.3,1.3,1.6,2.5C44.5,60.7,44.4,60.7,44.4,60.7
			C44.4,60.7,44.4,60.7,44.4,60.7z"/>
		<g id="XMLID_14772_">
			<defs>
				<circle id="XMLID_14773_" cx="40" cy="40" r="39.5"/>
			</defs>
			<clipPath id="XMLID_4_">
				<use xlink:href="#XMLID_14773_"  overflow="visible"/>
			</clipPath>
			<path id="XMLID_14774_" clip-path="url(#XMLID_4_)" fill="#F2AF31" d="M43.7,99C30.5,99,18,94.2,8,85.4
				C-2.8,75.9-9.2,62.7-10.1,48.3C-11,34.8-6.5,21.8,2.4,11.7c8.9-10.1,21.3-16.2,34.8-17C49.9-6.2,62.1-2,71.6,6.4
				c9.5,8.4,15.2,20,16,32.6c0.7,11.8-3.2,23.3-11,32.2s-18.7,14.2-30.5,15c-11.1,0.7-21.8-3-30.1-10.3c-8.3-7.4-13.3-17.5-14-28.6
				c-0.7-10.4,2.8-20.4,9.7-28.2c6.9-7.8,16.4-12.5,26.8-13.1C58.4,4.5,75.8,19.9,77,40c1.2,18.8-13.2,35.1-32,36.3
				c-17.7,1.1-32.9-12.4-34-30c-1-16.6,11.6-30.9,28.1-31.9C54.6,13.4,68,25.3,69,40.8c0.9,14.5-10.2,27.1-24.7,28
				c-6.6,0.4-13-1.8-17.9-6.1c-5-4.4-7.9-10.4-8.3-17c-0.4-6.2,1.7-12.1,5.8-16.8c4.1-4.6,9.8-7.4,15.9-7.8
				c5.8-0.4,11.4,1.6,15.7,5.4c4.4,3.8,6.9,9.1,7.3,14.9c0.3,5.4-1.5,10.7-5.1,14.7c-3.6,4.1-8.6,6.5-14,6.9
				c-10.5,0.7-19.6-7.4-20.2-17.9c-0.3-4.8,1.3-9.4,4.4-12.9s7.5-5.7,12.3-6c4.5-0.3,8.8,1.2,12.1,4.2c3.4,3,5.4,7.1,5.6,11.5
				c0.5,8.6-6.1,16.1-14.7,16.7c-8.1,0.5-15.1-5.7-15.6-13.8c-0.5-7.6,5.3-14.2,12.9-14.6c3.4-0.2,6.8,0.9,9.4,3.2
				c2.6,2.3,4.1,5.4,4.4,8.9c0.2,3.2-0.9,6.3-3,8.8c-2.1,2.4-5.1,3.9-8.3,4.1c-6.3,0.4-11.7-4.4-12-10.6c-0.4-5.9,4.1-10.9,10-11.3
				c5.5-0.3,10.2,3.8,10.6,9.3c0.3,5.1-3.6,9.6-8.8,9.9c-0.2,0-0.4,0-0.6,0c-4.6,0-8.5-3.6-8.7-8.2c-0.1-2.2,0.6-4.3,2-6
				c1.5-1.6,3.5-2.6,5.7-2.8c4.2-0.3,7.9,3,8.2,7.2c0.1,1.9-0.5,3.8-1.8,5.2c-1.3,1.4-3,2.3-5,2.4c-1.8,0.1-3.5-0.5-4.9-1.7
				c-1.4-1.2-2.2-2.9-2.3-4.7c-0.1-1.7,0.5-3.3,1.6-4.6c1.1-1.3,2.7-2,4.4-2.1c1.6-0.1,3.1,0.4,4.3,1.5c1.2,1.1,1.9,2.5,2,4.1
				c0.2,3.1-2.2,5.7-5.2,5.9c-1.4,0.1-2.7-0.4-3.8-1.3c-1-0.9-1.7-2.2-1.8-3.6c-0.1-1.3,0.4-2.6,1.2-3.6c0.9-1,2.1-1.6,3.4-1.7
				c1.2-0.1,2.4,0.3,3.3,1.1c0.9,0.8,1.5,1.9,1.6,3.2c0.1,1.2-0.3,2.3-1.1,3.1c-0.8,0.9-1.8,1.4-3,1.5c-2.2,0.1-4.2-1.6-4.3-3.8
				c-0.1-1,0.3-2,0.9-2.8c0.7-0.8,1.6-1.2,2.6-1.3c1-0.1,1.9,0.3,2.6,0.9c0.7,0.6,1.1,1.5,1.2,2.5c0.1,0.9-0.2,1.8-0.8,2.4
				c-0.6,0.7-1.4,1.1-2.3,1.1c-1.7,0.1-3.2-1.2-3.3-2.9c0-0.8,0.2-1.5,0.7-2.1c0.5-0.6,1.2-0.9,2-1c0.7,0,1.5,0.2,2,0.7
				c0.6,0.5,0.9,1.2,0.9,1.9c0,0.7-0.2,1.4-0.6,1.9c-0.5,0.5-1.1,0.8-1.8,0.9c-1.3,0.1-2.5-0.9-2.6-2.3c0-0.6,0.2-1.2,0.6-1.7
				s1-0.7,1.6-0.8c0.6,0,1.1,0.2,1.6,0.5c0.4,0.4,0.7,0.9,0.7,1.5c0,0.5-0.1,1.1-0.5,1.5c-0.4,0.4-0.9,0.6-1.4,0.7
				c-0.5,0-1-0.1-1.4-0.5c-0.4-0.3-0.6-0.8-0.6-1.3c-0.1-1,0.7-1.8,1.7-1.9c0.9-0.1,1.7,0.6,1.8,1.6c0.1,0.9-0.6,1.6-1.5,1.7
				c-0.4,0-0.8-0.1-1.1-0.4s-0.5-0.6-0.5-1c0-0.8,0.5-1.4,1.3-1.5c0.7,0,1.4,0.5,1.4,1.2c0,0.3-0.1,0.6-0.3,0.9
				c-0.2,0.2-0.5,0.4-0.9,0.4c-0.3,0-0.6-0.1-0.8-0.3c-0.2-0.2-0.4-0.5-0.4-0.8c0-0.3,0.1-0.6,0.3-0.8c0.2-0.2,0.5-0.4,0.8-0.4
				c0.6,0,1.1,0.4,1.1,1c0,0.5-0.4,1-0.9,1c-0.5,0-0.9-0.4-1-0.9c0-0.5,0.3-0.9,0.8-0.9c0.2,0,0.4,0.1,0.6,0.2
				c0.2,0.1,0.3,0.3,0.3,0.6c0,0.4-0.3,0.8-0.7,0.8c-0.4,0-0.7-0.3-0.8-0.7c0-0.1,0-0.2,0-0.3c0,0.1,0,0.2,0,0.3
				c0,0.4,0.4,0.7,0.8,0.7c0.4,0,0.8-0.4,0.7-0.8c0-0.5-0.4-0.8-0.9-0.8c-0.2,0-0.5,0.1-0.6,0.3c-0.2,0.2-0.2,0.4-0.2,0.7
				c0,0.3,0.1,0.5,0.3,0.7c0.2,0.2,0.5,0.3,0.7,0.2c0.6,0,1-0.5,1-1.1c0-0.6-0.6-1.1-1.2-1.1c-0.3,0-0.6,0.2-0.8,0.4
				c-0.2,0.2-0.3,0.6-0.3,0.9c0,0.3,0.2,0.7,0.4,0.9c0.3,0.2,0.6,0.3,0.9,0.3c0.8,0,1.4-0.7,1.3-1.5c-0.1-0.8-0.8-1.5-1.6-1.4
				c-0.9,0.1-1.6,0.8-1.5,1.7c0,0.5,0.2,0.9,0.6,1.2c0.3,0.3,0.8,0.5,1.2,0.4c0.5,0,0.9-0.3,1.3-0.6c0.3-0.4,0.5-0.8,0.5-1.3
				c0-0.5-0.3-1-0.7-1.4c-0.4-0.3-0.9-0.5-1.4-0.5c-0.6,0-1.1,0.3-1.5,0.7c-0.4,0.4-0.6,1-0.5,1.5c0.1,1.2,1.2,2.2,2.4,2.1
				c0.6,0,1.2-0.3,1.7-0.8c0.4-0.5,0.6-1.1,0.6-1.8c0-0.7-0.4-1.3-0.9-1.8c-0.5-0.5-1.2-0.7-1.9-0.6c-0.7,0-1.4,0.4-1.9,0.9
				c-0.5,0.6-0.7,1.3-0.7,2c0,0.8,0.4,1.5,1,2c0.6,0.5,1.4,0.8,2.1,0.7c0.8-0.1,1.6-0.4,2.2-1.1c0.6-0.6,0.8-1.5,0.8-2.3
				c-0.1-0.9-0.5-1.7-1.1-2.3c-0.7-0.6-1.6-0.9-2.5-0.8c-1,0.1-1.9,0.5-2.5,1.2c-0.6,0.7-1,1.7-0.9,2.6c0.1,2.1,2,3.8,4.1,3.6
				c1.1-0.1,2.1-0.6,2.8-1.4c0.7-0.8,1.1-1.9,1-3c-0.1-1.2-0.6-2.3-1.5-3c-0.9-0.8-2-1.2-3.2-1.1c-1.3,0.1-2.4,0.6-3.3,1.6
				c-0.8,0.9-1.3,2.2-1.2,3.4c0.1,1.3,0.7,2.6,1.7,3.5c1,0.9,2.3,1.3,3.7,1.3c3-0.2,5.2-2.8,5.1-5.7c-0.1-1.5-0.8-3-1.9-4
				c-1.2-1-2.6-1.5-4.2-1.4c-3.4,0.2-6,3.1-5.8,6.5c0.2,3.6,3.4,6.4,7,6.2c3.9-0.2,6.8-3.6,6.6-7.5c-0.3-4.1-3.8-7.3-8-7
				c-2.1,0.1-4.1,1.1-5.5,2.7c-1.4,1.6-2.1,3.7-2,5.8c0.3,4.7,4.4,8.3,9.1,8c2.4-0.2,4.7-1.2,6.3-3.1c1.6-1.8,2.4-4.2,2.3-6.6
				c-0.3-5.4-5-9.5-10.4-9.2c-5.8,0.4-10.2,5.3-9.8,11.1c0.4,6.2,5.7,10.8,11.9,10.5c3.2-0.2,6.1-1.6,8.2-4c2.1-2.4,3.2-5.5,3-8.6
				c-0.2-3.4-1.7-6.5-4.3-8.8c-2.6-2.3-5.8-3.4-9.2-3.2c-3.6,0.2-7,1.9-9.4,4.6c-2.4,2.7-3.6,6.2-3.4,9.9c0.5,8,7.4,14.1,15.4,13.6
				c8.5-0.5,15.1-7.9,14.5-16.5c-0.3-4.4-2.3-8.5-5.6-11.4c-3.3-2.9-7.6-4.4-12-4.1c-9.7,0.6-17.2,9-16.6,18.8
				c0.7,10.4,9.6,18.3,20,17.7c11.1-0.7,19.6-10.3,18.9-21.4c-0.7-11.9-11-20.9-22.8-20.2C33.6,21.6,28,24.3,23.9,29
				s-6.1,10.5-5.7,16.7c0.4,6.5,3.3,12.5,8.3,16.9c4.9,4.3,11.2,6.5,17.8,6.1c14.4-0.9,25.4-13.4,24.5-27.8
				c-1-15.4-14.3-27.2-29.7-26.2c-16.5,1-29,15.2-28,31.7c1.1,17.6,16.3,31,33.8,29.9C63.7,75,78,58.8,76.9,40
				C75.6,20,58.3,4.7,38.3,6C27.9,6.6,18.5,11.3,11.6,19C4.7,26.8,1.3,36.8,2,47.2c0.7,11.1,5.6,21.2,13.9,28.5
				c8.3,7.3,19,11,30,10.3c11.8-0.7,22.6-6,30.4-14.9c7.8-8.9,11.7-20.2,11-32c-0.8-12.6-6.4-24.1-15.9-32.5C62-1.8,49.8-6,37.2-5.2
				c-13.4,0.8-25.8,6.9-34.7,17S-10.8,34.8-10,48.3c0.9,14.4,7.3,27.5,18.1,37c10.8,9.5,24.6,14.3,39,13.4
				c15.3-1,29.4-7.8,39.5-19.3s15.2-26.3,14.3-41.6c-1-16.4-8.4-31.3-20.6-42.2C68-15.3,52.2-20.7,35.8-19.7
				C27-19.1,18.6-16.9,10.7-13C3.1-9.2-3.6-4-9.2,2.3C-14.8,8.7-19.1,16-21.9,24c-2.9,8.3-4.1,16.9-3.5,25.8c0,0.1,0,0.1-0.1,0.1
				c0,0-0.1,0-0.1-0.1c-0.6-8.9,0.6-17.5,3.6-25.8c2.8-8,7.1-15.3,12.7-21.7C-3.7-4.2,3-9.3,10.6-13.1c7.9-3.9,16.3-6.2,25.2-6.7
				c16.4-1,32.2,4.4,44.6,15.3c12.3,10.9,19.7,25.9,20.7,42.3c1,15.4-4.1,30.2-14.3,41.7S62.5,97.9,47.1,98.9
				C46,98.9,44.8,99,43.7,99z M41.8,42.9C41.8,42.9,41.8,42.9,41.8,42.9c-0.2,0-0.3,0.1-0.4,0.2c-0.1,0.1-0.1,0.2-0.1,0.4
				c0,0.1,0.1,0.3,0.2,0.4c0.1,0.1,0.3,0.1,0.4,0.1c0.3,0,0.5-0.3,0.6-0.6c0,0,0,0-0.1,0c0,0-0.1,0-0.1-0.1c0-0.1-0.1-0.2-0.2-0.3
				C42.1,42.9,42,42.9,41.8,42.9z"/>
		</g>
		<path id="XMLID_14769_" fill="#F2AF31" d="M40,80c-10.7,0-20.7-4.2-28.3-11.7C4.2,60.7,0,50.7,0,40s4.2-20.7,11.7-28.3
			C19.3,4.2,29.3,0,40,0s20.7,4.2,28.3,11.7C75.8,19.3,80,29.3,80,40s-4.2,20.7-11.7,28.3C60.7,75.8,50.7,80,40,80z M40,1.1
			c-10.4,0-20.2,4-27.5,11.4C5.1,19.8,1.1,29.6,1.1,40s4,20.2,11.4,27.5c7.3,7.3,17.1,11.4,27.5,11.4s20.2-4,27.5-11.4
			c7.3-7.3,11.4-17.1,11.4-27.5s-4-20.2-11.4-27.5C60.2,5.1,50.4,1.1,40,1.1z"/>
		<g id="XMLID_14734_">
			<g id="XMLID_14764_">
				<path id="XMLID_14768_" fill="#212933" d="M70,43.5l4.5-7.8c0,0-3.3,0.1-13.8-5.9l-0.1,0c-10.5-6.1-12.1-9-12.1-9l-4.5,7.8
					l-7.6,15.8c0,0-2.4,8.6-2,15.8c0.2,3.7,0.4,4.8,4,6.9l0,0c3.7,2.1,5.7,2.3,9,0.6c6.4-3.3,12.7-9.7,12.7-9.7L70,43.5z"/>
				<path id="XMLID_14765_" fill="#F2AF31" d="M43.5,69L43.5,69c-1.5,0-3-0.5-5.2-1.8c-3.7-2.1-3.9-3.3-4.1-7.2
					c-0.4-7.2,2-15.8,2-15.9c0,0,0,0,0,0l7.6-15.8c0,0,0,0,0,0l4.5-7.8c0-0.1,0.1-0.1,0.2-0.1c0.1,0,0.2,0.1,0.2,0.1
					c0,0,1.7,3,12,8.9l0.1,0c10.1,5.8,13.5,5.9,13.7,5.9c0.1,0,0.2,0.1,0.2,0.1c0,0.1,0.1,0.2,0,0.3l-4.5,7.8c0,0,0,0,0,0l-9.9,14.5
					c0,0,0,0,0,0c-0.1,0.1-6.4,6.5-12.8,9.7C46,68.6,44.7,69,43.5,69z M36.7,44.4c-0.1,0.5-2.4,8.8-2,15.7c0.2,3.7,0.4,4.7,3.9,6.7
					c2,1.2,3.5,1.7,4.9,1.7c1.1,0,2.3-0.3,3.8-1.1c6.2-3.1,12.2-9.2,12.6-9.6l9.8-14.4l4.3-7.4c-1.2-0.2-5.1-1.1-13.5-5.9l-0.1,0
					C52,25,49.3,22.2,48.6,21.2l-4.3,7.4L36.7,44.4z"/>
			</g>
			<g id="XMLID_14761_">
				<path id="XMLID_14763_" fill="#212933" d="M47,27c0,0-12.5,4-10.1,18.8"/>
				<path id="XMLID_14762_" fill="#F2AF31" d="M36.8,46.1c-0.1,0-0.2-0.1-0.3-0.2c-1.2-7.7,1.6-12.5,4.3-15.1
					c2.8-2.9,5.9-3.9,6.1-3.9c0.1,0,0.3,0,0.3,0.2c0,0.1,0,0.3-0.2,0.3c0,0-3.1,1-5.9,3.8c-3.7,3.7-5.1,8.6-4.1,14.7
					C37.1,45.9,37,46,36.8,46.1C36.9,46.1,36.9,46.1,36.8,46.1z"/>
			</g>
			<g id="XMLID_14758_">
				<path id="XMLID_14760_" fill="#212933" d="M70,40.1c0,0,2.8,12.8-11.2,18.2"/>
				<path id="XMLID_14759_" fill="#F2AF31" d="M58.9,58.5c-0.1,0-0.2-0.1-0.3-0.2c-0.1-0.1,0-0.3,0.2-0.4c5.7-2.2,9.3-5.8,10.6-10.9
					c1-3.8,0.4-6.9,0.4-7c0-0.1,0.1-0.3,0.2-0.3c0.1,0,0.3,0.1,0.3,0.2c0,0.1,0.7,3.3-0.4,7.2C69,50.8,66.3,55.7,58.9,58.5
					C58.9,58.5,58.9,58.5,58.9,58.5z"/>
			</g>
			<path id="XMLID_14755_" fill="#F2AF31" d="M49.6,41C49.6,41,49.6,41,49.6,41c-0.1,0-4.5-2.4-8-3c-0.1,0-0.1-0.1-0.1-0.2
				c0-0.1,0-0.2,0.1-0.2c0,0,2.4-0.7,4.5-0.7c1.7,0,2.8,0.4,3.4,1.2c0.5,0.7,0.6,1.6,0.3,2.8C49.8,40.9,49.7,41,49.6,41
				C49.7,41,49.6,41,49.6,41z M42.5,37.8c2.9,0.7,6.2,2.3,7,2.8c0.2-1,0.1-1.7-0.3-2.2c-0.5-0.7-1.6-1-3.1-1
				C44.8,37.3,43.3,37.6,42.5,37.8z"/>
			<path id="XMLID_14754_" fill="#F2AF31" d="M53,37.1c-0.1,0-0.2-0.3-0.2-0.4l-0.4-5.4l-9.6,3.3c-0.1,0-0.2,0-0.2-0.1
				c0-0.1,0-0.2,0.1-0.2l9.8-3.4c0.1,0,0.1,0,0.2,0c0,0,0.1,0.1,0.1,0.1l0.4,5.7C53.2,36.8,53.1,37.1,53,37.1L53,37.1z"/>
			<path id="XMLID_14753_" fill="#F2AF31" d="M48.3,51.2C48.2,51.2,48.2,51.2,48.3,51.2c-0.8-0.5-1.2-1.7-1.3-1.8
				c-0.3-0.7-0.8-1-1.2-1.2c-0.3-0.2-0.5-0.3-0.6-0.6c0-0.2,0.1-0.5,0.5-0.9c0,0,0,0,0,0c0.8-0.6,1.5-0.7,2-0.5
				c0.7,0.4,0.8,1.4,0.8,1.4c0,0.1-0.1,0.2-0.2,0.2c-0.1,0-0.2-0.1-0.2-0.2c0,0,0-0.9-0.6-1.1c-0.4-0.2-0.9,0-1.7,0.5
				c-0.3,0.4-0.4,0.5-0.4,0.6c0,0.1,0.2,0.2,0.4,0.3c0.4,0.2,1,0.6,1.3,1.3c0,0,0,0,0,0c0,0,0.4,1.2,1.1,1.6
				c0.1,0.1,0.1,0.2,0.1,0.3C48.4,51.2,48.3,51.2,48.3,51.2z"/>
			<path id="XMLID_14752_" fill="#F2AF31" d="M52.6,52.1c-0.2,0-0.4-0.1-0.6-0.2c-0.4-0.2-0.9-0.5-1.6-0.5c-0.1,0-1.4,0.2-2.2-0.2
				c-0.1,0-0.1-0.2-0.1-0.2c0-0.1,0.2-0.1,0.2-0.1c0.6,0.3,1.9,0.1,1.9,0.1c0,0,0,0,0,0c0.9-0.1,1.4,0.3,1.8,0.5
				c0.2,0.1,0.4,0.2,0.5,0.2c0.1,0,0.2-0.2,0.4-0.6c0.1-0.9-0.1-1.4-0.4-1.7c-0.5-0.3-1.2,0.1-1.2,0.1c-0.1,0-0.2,0-0.2-0.1
				c0-0.1,0-0.2,0.1-0.2c0,0,0.9-0.5,1.6-0.1c0.5,0.3,0.7,1,0.6,2c0,0,0,0,0,0c-0.2,0.5-0.3,0.8-0.6,0.9
				C52.7,52,52.7,52.1,52.6,52.1z"/>
			<g id="XMLID_14749_">
				<path id="XMLID_14751_" fill="#212933" d="M41.7,40.4c0,0,3,3.1,7.2,1.6"/>
				<path id="XMLID_14750_" fill="#F2AF31" d="M46.5,42.6c-3,0-4.9-2-4.9-2c-0.1-0.1-0.1-0.2,0-0.3c0.1-0.1,0.2-0.1,0.3,0
					c0,0,2.9,3,7,1.5c0.1,0,0.2,0,0.2,0.1c0,0.1,0,0.2-0.1,0.2C48.1,42.4,47.3,42.6,46.5,42.6z"/>
			</g>
			<path id="XMLID_14748_" fill="#F2AF31" d="M47.7,37.3c-0.8,0-1.4-0.1-1.5-0.1c0,0-0.1-0.1-0.1-0.1c0,0,0.1-0.1,0.1-0.1
				c0,0,3.3,0.4,4.6-0.6c0,0,0.1,0,0.1,0c0,0,0,0.1,0,0.1C50.1,37.2,48.8,37.3,47.7,37.3z"/>
			<path id="XMLID_14745_" fill="#F2AF31" d="M62.6,50.3c-0.1,0-0.1,0-0.1-0.1c-2.3-2.7-6.5-5.3-6.5-5.3c0,0-0.1-0.1-0.1-0.1
				c0-0.1,0-0.1,0.1-0.1c0.8-0.8,1.5-1.2,2.3-1.2c3,0,4.6,6.3,4.6,6.6C62.8,50.1,62.8,50.2,62.6,50.3C62.7,50.3,62.6,50.3,62.6,50.3
				z M56.3,44.7c0.8,0.5,3.8,2.5,5.9,4.7c-0.5-1.7-1.9-5.6-4.1-5.6C57.6,43.8,57,44.1,56.3,44.7z"/>
			<path id="XMLID_14744_" fill="#F2AF31" d="M65,47.6c-0.1,0-0.2-0.1-0.2-0.1l-1.9-10l-4.8,2.3c-0.1,0-0.2,0-0.2-0.1
				c0-0.1,0-0.2,0.1-0.2l5-2.4c0.1,0,0.1,0,0.2,0c0.1,0,0.1,0.1,0.1,0.1l2,10.2C65.2,47.5,65.2,47.6,65,47.6
				C65,47.6,65,47.6,65,47.6z"/>
			<g id="XMLID_14741_">
				<path id="XMLID_14743_" fill="#212933" d="M60.4,51.3c0,0-4.2-1-4.9-5.4"/>
				<path id="XMLID_14742_" fill="#F2AF31" d="M60.4,51.4C60.4,51.4,60.4,51.4,60.4,51.4c-0.1,0-4.3-1.1-5-5.5c0,0,0-0.1,0.1-0.1
					c0,0,0.1,0,0.1,0.1c0.7,4.3,4.8,5.4,4.9,5.4C60.4,51.3,60.5,51.3,60.4,51.4C60.4,51.4,60.4,51.4,60.4,51.4z"/>
			</g>
			<path id="XMLID_14740_" fill="#F2AF31" d="M60.9,45.9C60.9,45.9,60.9,45.9,60.9,45.9c-0.2-0.1-2.1-2.7-1.9-4.5
				c0,0,0.1-0.1,0.1-0.1c0,0,0.1,0.1,0.1,0.1C59,43.1,61,45.7,61,45.8C61,45.8,61,45.9,60.9,45.9C61,45.9,61,45.9,60.9,45.9z"/>
			<path id="XMLID_14737_" fill="#F2AF31" d="M47.8,63.8c-0.6,0-1.1-0.7-1.4-2.2c-0.6-2.8-2.8-3.1-2.8-3.1c0,0,0,0-0.1,0l-0.1-0.1
				c0,0,0,0-0.1,0c0,0-0.9-1.2-2.6-1.2c-0.5,0-1,0.1-1.5,0.2c-1.4,0.4-2.2,0.4-2.6-0.1c-0.3-0.5,0-1.2,0-1.3c2-3.8,4.2-5.7,6.5-5.7
				c2.1,0,3.6,1.7,3.8,1.9l0,0c0.3,0.1,2.7,0.5,3.7,2.6c0.9,2,0.3,4.7-1.9,8.1C48.8,63.1,48.3,63.8,47.8,63.8z M43.6,58.2
				c0.3,0.1,2.5,0.5,3.1,3.4c0.3,1.2,0.6,1.9,1.1,1.9c0.3,0,0.7-0.4,0.7-0.5c2.1-3.3,2.7-5.9,1.8-7.8c-1-2-3.4-2.4-3.5-2.4
				c0,0,0,0-0.1,0l-0.1-0.1c0,0,0,0-0.1,0c0,0-1.4-1.8-3.5-1.8c-2.1,0-4.2,1.8-6.1,5.5c-0.1,0.2-0.2,0.6-0.1,0.9
				c0.2,0.3,1,0.3,2.1,0c0.5-0.2,1.1-0.3,1.6-0.3C42.4,56.9,43.4,57.9,43.6,58.2L43.6,58.2z"/>
			<path id="XMLID_14736_" fill="#F2AF31" d="M40.4,49.8C40.4,49.8,40.4,49.8,40.4,49.8c-0.1,0-0.1-0.1-0.1-0.1
				c1.1-2.3,2.8-3.4,4-3.9c1.3-0.5,2.3-0.5,2.3-0.5c0.1,0,0.1-0.1,0.1,0c0,0,0,0-0.1,0c0,0,0,0,0,0c-0.1,0-4.1,0.2-6.1,4.5
				C40.5,49.6,40.4,49.8,40.4,49.8z"/>
			<path id="XMLID_14735_" fill="#F2AF31" d="M52.9,56.7C52.9,56.7,52.9,56.7,52.9,56.7c-0.1,0-0.1-0.1-0.1-0.1
				c2.8-4,0.7-7.5,0.7-7.5c0,0,0-0.1,0-0.1c0,0,0.1,0,0.1,0C53.7,49,55.8,52.6,52.9,56.7C53,56.7,52.9,56.7,52.9,56.7z"/>
		</g>
		<g id="XMLID_14694_">
			<g id="XMLID_14698_">
				<g id="XMLID_14729_">
					<path id="XMLID_14733_" fill="#212933" d="M46.9,29.4v-9c0,0-3.3,1.8-15.4,1.8h-0.1c-12.2,0-14.5-1.8-14.5-1.8v9L18,46.8
						c0,0,2.1,8.6,6,14.6c2,3.1,3.1,5.6,7.3,5.6h0.2c4.2,0,5.4-2.5,7.4-5.6c3.9-6,6.4-14.7,6.4-14.7L46.9,29.4z"/>
					<path id="XMLID_14730_" fill="#F2AF31" d="M31.6,67.1h-0.2c-4,0-5.3-2-7.1-4.7c-0.2-0.3-0.4-0.5-0.6-0.8
						c-3.9-6-6.2-14.7-6.2-14.7c0,0-0.1,0-0.2,0l-1.5-17.4c0,0,0,0,0,0v-9c0-0.1,0.2-0.2,0.3-0.2c0.1,0,0.3,0.1,0.3,0.2
						c0,0,3,1.9,14.9,1.9h0.1c6.2,0,9.9-0.6,11.9-1c2.2-0.4,2.9-0.9,2.9-0.9c0.1-0.1,0.3-0.1,0.4,0c0.1,0,0.2,0.1,0.2,0.2v9
						c0,0,0,0,0,0l-1.4,17.5c0,0-0.1,0-0.1,0c0,0.1-2.3,8.8-6.2,14.8c-0.2,0.3-0.4,0.4-0.6,0.7C36.9,65.1,35.5,67.1,31.6,67.1z
						 M18.2,46.8c0.1,0.5,2.3,8.8,6.1,14.6c0.2,0.3,0.4,0.7,0.6,1c1.7,2.7,2.9,4.7,6.6,4.7h0.2c3.7,0,4.9-2,6.6-4.7
						c0.2-0.3,0.4-0.6,0.6-0.9c3.8-5.8,5.9-14.1,6-14.6l1.2-17.4v-8.6c-1,0.5-4.6,1.3-14.4,1.3h-0.1c-9.8,0-13.5-0.9-14.5-1.3v8.6
						L18.2,46.8z"/>
				</g>
				<g id="XMLID_14727_">
					<path id="XMLID_14728_" fill="#F2AF31" d="M31.4,47.1c-0.8,0-1.8-0.9-1.9-0.9c-0.6-0.4-1.2-0.4-1.6-0.4c-0.3,0-0.6,0-0.8-0.2
						c-0.2-0.2-0.2-0.5-0.1-1.1c0,0,0,0,0,0c0.4-0.9,1-1.4,1.5-1.4c0.8,0,1.3,0.8,1.4,0.9c0.1,0.1,0,0.2-0.1,0.2
						c-0.1,0.1-0.2,0-0.3-0.1c0,0-0.5-0.7-1-0.7c-0.4,0-0.8,0.4-1.2,1.2c-0.1,0.5-0.1,0.7,0,0.7c0.1,0.1,0.3,0.1,0.5,0.1
						c0.5,0,1.1,0,1.8,0.5c0,0,0,0.2,0,0.2C29.7,46.1,30.6,47.1,31.4,47.1L31.4,47.1c0.8,0,1.7-1,1.7-1c0,0,0-0.1,0-0.1
						c0.7-0.5,1.4-0.5,1.8-0.5c0.3,0,0.5,0,0.5-0.1c0.1-0.1,0.1-0.3,0-0.7c-0.4-0.8-0.8-1.2-1.2-1.2c-0.6,0-1,0.7-1,0.7
						c-0.1,0.1-0.2,0.1-0.3,0.1c-0.1-0.1-0.1-0.2-0.1-0.3c0,0,0.6-0.9,1.4-0.9c0.6,0,1.1,0.5,1.5,1.4c0,0,0,0,0,0
						c0.1,0.5,0.1,0.9-0.1,1.1c-0.2,0.2-0.5,0.2-0.8,0.2c-0.4,0-1,0-1.6,0.4C33.2,46.3,32.3,47.1,31.4,47.1L31.4,47.1z"/>
				</g>
				<path id="XMLID_14724_" fill="#F2AF31" d="M43.5,38.9C43.5,38.9,43.5,38.9,43.5,38.9c-3.4-1.2-8.3-1.3-8.4-1.3
					c-0.1,0-0.1,0-0.2-0.1s0-0.1,0-0.2c0.9-1.4,2-2.1,3.3-2.1c2.7,0,5.3,3.3,5.4,3.4c0,0.1,0,0.2,0,0.2
					C43.7,38.9,43.6,38.9,43.5,38.9z M35.5,37.2c1.1,0.1,4.7,0.3,7.5,1.1c-0.8-0.9-2.8-2.8-4.7-2.8C37.2,35.6,36.3,36.1,35.5,37.2z"
					/>
				<path id="XMLID_14723_" fill="#F2AF31" d="M44.3,35.4c-0.1,0-0.1,0-0.1-0.1c0-0.1-3.5-5-6.6-5.3c-1-0.1-1.8,0.1-2.3,0.6
					c-0.7,0.6-0.7,1.5-0.7,1.5c0,0.1-0.1,0.2-0.2,0.2h0c-0.1,0-0.2-0.1-0.2-0.2c0,0,0-1,0.8-1.7c0.6-0.5,1.5-0.8,2.6-0.6
					c1.4,0.1,2.9,1.1,4.7,2.9c1.3,1.3,2.2,2.6,2.2,2.6c0.1,0.1,0,0.2,0,0.3C44.4,35.4,44.3,35.4,44.3,35.4z"/>
				<g id="XMLID_14720_">
					<path id="XMLID_14722_" fill="#212933" d="M42.6,41.4c0,0-3.1-3-7.2-1.3"/>
					<path id="XMLID_14721_" fill="#F2AF31" d="M42.6,41.5C42.5,41.5,42.5,41.5,42.6,41.5c-0.1-0.1-3.1-3-7.2-1.3c0,0-0.1,0-0.1,0
						c0,0,0-0.1,0-0.1c4.2-1.7,7.3,1.3,7.3,1.3C42.7,41.4,42.7,41.5,42.6,41.5C42.6,41.5,42.6,41.5,42.6,41.5z"/>
				</g>
				<path id="XMLID_14719_" fill="#F2AF31" d="M40.3,36C40.2,36,40.2,36,40.3,36c-0.1,0-1.7-1.3-4.7-1.4c-0.1,0-0.1,0-0.1-0.1
					c0-0.1,0-0.1,0.1-0.1c3.1,0.1,4.7,1.3,4.7,1.4C40.3,35.9,40.4,35.9,40.3,36C40.3,36,40.3,36,40.3,36z"/>
				<path id="XMLID_14716_" fill="#F2AF31" d="M19,38.9c-0.1,0-0.1,0-0.1-0.1c0-0.1,0-0.2,0-0.2c0.1-0.1,2.7-3.4,5.4-3.4
					c1.3,0,2.4,0.7,3.3,2.1c0,0.1,0,0.1,0,0.2s-0.1,0.1-0.2,0.1C27.4,37.6,22.5,37.8,19,38.9C19.1,38.9,19.1,38.9,19,38.9z
					 M24.3,35.6c-2,0-3.9,1.9-4.7,2.8c2.8-0.8,6.4-1.1,7.5-1.1C26.3,36.1,25.4,35.6,24.3,35.6z"/>
				<path id="XMLID_14715_" fill="#F2AF31" d="M18.3,35.4c0,0-0.1,0-0.1,0c-0.1-0.1-0.1-0.2,0-0.3c0,0,0.9-1.3,2.2-2.6
					c1.7-1.8,3.3-2.7,4.7-2.9c1.1-0.1,2,0.1,2.6,0.6c0.8,0.7,0.8,1.7,0.8,1.7c0,0.1-0.1,0.2-0.2,0.2s-0.2-0.1-0.2-0.2
					c0,0,0-0.9-0.7-1.5c-0.5-0.5-1.3-0.7-2.3-0.6c-3.1,0.3-6.6,5.3-6.6,5.3C18.4,35.4,18.4,35.4,18.3,35.4z"/>
				<g id="XMLID_14712_">
					<path id="XMLID_14714_" fill="#212933" d="M20,41.4c0,0,3.1-3,7.2-1.3"/>
					<path id="XMLID_14713_" fill="#F2AF31" d="M20,41.5C20,41.5,20,41.5,20,41.5c-0.1-0.1-0.1-0.1-0.1-0.2c0,0,3.2-3,7.3-1.3
						c0,0,0.1,0.1,0,0.1c0,0-0.1,0.1-0.1,0C23.2,38.5,20.1,41.5,20,41.5C20.1,41.5,20.1,41.5,20,41.5z"/>
				</g>
				<path id="XMLID_14711_" fill="#F2AF31" d="M22.3,36C22.3,36,22.3,36,22.3,36c-0.1-0.1-0.1-0.1-0.1-0.2c0.1-0.1,1.7-1.3,4.7-1.4
					c0.1,0,0.1,0,0.1,0.1c0,0.1,0,0.1-0.1,0.1C24,34.7,22.4,36,22.3,36C22.4,36,22.4,36,22.3,36z"/>
				<path id="XMLID_14708_" fill="#F2AF31" d="M31.7,61.1L31.7,61.1h-0.4c-1.2,0-2.6,0.2-3.2-0.8c-3.6-5.7-6.3-13.4-6.3-13.5
					c0-0.1,0-0.1,0.1-0.1c0.1,0,0.2-0.2,0.2-0.1c3.3,2.4,6.6,2.6,9.4,2.6h0.2c2.8,0,6.2-0.2,9.4-2.5c0.1,0,0.2,0,0.2,0.1
					c0.1,0,0.1,0.2,0.1,0.2c0,0.1-2.8,7.7-6.3,13.4C34.3,61.3,32.9,61.1,31.7,61.1z M31.4,61.1h0.3h0c1.2,0,2.4,0,2.9-0.8
					c3-4.8,5.4-11,6.1-12.8c-3.2,2.1-6.4,2.6-9.2,2.6h-0.2c-2.8,0-6-0.5-9.2-2.6c0.7,1.9,3.1,8,6.1,12.9c0.5,0.8,1.7,0.7,2.9,0.7
					H31.4z"/>
				<g id="XMLID_14705_">
					<path id="XMLID_14707_" fill="#212933" d="M18.3,26.6c0,0-8.8,9.7,0.6,21.3"/>
					<path id="XMLID_14706_" fill="#F2AF31" d="M18.9,48.2c-0.1,0-0.2,0-0.2-0.1c-4.9-6.1-4.8-11.6-3.9-15.2c1-3.9,3.2-6.3,3.3-6.4
						c0.1-0.1,0.3-0.1,0.4,0c0.1,0.1,0.1,0.3,0,0.4c0,0-2.2,2.4-3.2,6.2c-1.3,5.1-0.1,10,3.8,14.7c0.1,0.1,0.1,0.3,0,0.4
						C19,48.2,19,48.2,18.9,48.2z"/>
				</g>
				<g id="XMLID_14702_">
					<path id="XMLID_14704_" fill="#212933" d="M23.7,45.1c0,2.4-1.6,3.7-4.2,3.5"/>
					<path id="XMLID_14703_" fill="#F2AF31" d="M20.2,48.8c-0.2,0-0.4,0-0.7,0c-0.1,0-0.2-0.1-0.2-0.2c0-0.1,0.1-0.2,0.2-0.2
						c1.3,0.1,2.3-0.1,3-0.8c0.6-0.6,1-1.5,1-2.5c0-0.1,0.1-0.2,0.2-0.2c0.1,0,0.2,0.1,0.2,0.2c0,1.2-0.4,2.1-1.1,2.8
						C22.2,48.5,21.3,48.8,20.2,48.8z"/>
				</g>
				<g id="XMLID_14699_">
					<path id="XMLID_14701_" fill="#212933" d="M39.2,45.1c0,2.4,1.6,3.7,4.2,3.5"/>
					<path id="XMLID_14700_" fill="#F2AF31" d="M42.7,48.8c-1.1,0-2-0.3-2.6-0.9c-0.7-0.6-1.1-1.6-1.1-2.8c0-0.1,0.1-0.2,0.2-0.2
						s0.2,0.1,0.2,0.2c0,1.1,0.3,1.9,1,2.5c0.7,0.6,1.8,0.9,3,0.8c0.1,0,0.2,0.1,0.2,0.2c0,0.1-0.1,0.2-0.2,0.2
						C43.2,48.8,43,48.8,42.7,48.8z"/>
				</g>
			</g>
			<g id="XMLID_14695_">
				<path id="XMLID_14697_" fill="#212933" d="M44.8,26.4c0,0,8.8,9.7-0.6,21.3"/>
				<path id="XMLID_14696_" fill="#F2AF31" d="M44.2,48c-0.1,0-0.1,0-0.2-0.1c-0.1-0.1-0.1-0.3,0-0.4c4.8-5.9,4.7-11.3,3.8-14.8
					c-1-3.8-3.1-6.2-3.2-6.2c-0.1-0.1-0.1-0.3,0-0.4c0.1-0.1,0.3-0.1,0.4,0c0.1,0.1,2.3,2.5,3.3,6.4c1,3.6,1.1,9.2-3.9,15.2
					C44.3,48,44.3,48,44.2,48z"/>
			</g>
		</g>
	</g>
	<g id="XMLID_14790_" display="none" opacity="0.25">
		<radialGradient id="SVGID_1_" cx="38.7379" cy="41.2217" r="128" gradientUnits="userSpaceOnUse">
			<stop  offset="0" style="stop-color:#F2AE31"/>
			<stop  offset="1" style="stop-color:#F2AE31;stop-opacity:0"/>
		</radialGradient>
		<circle display="inline" fill="url(#SVGID_1_)" cx="38.7" cy="41.2" r="128"/>
	</g>
</g>
</svg>
