<?xml version="1.0" encoding="utf-8"?>
<!-- Generator: Adobe Illustrator 19.0.0, SVG Export Plug-In . SVG Version: 6.00 Build 0)  -->
<svg version="1.1" id="Слой_1" xmlns="http://www.w3.org/2000/svg" xmlns:xlink="http://www.w3.org/1999/xlink" x="0px" y="0px"
	 viewBox="0 0 512 512" enable-background="new 0 0 512 512" xml:space="preserve">
<g id="XMLID_14354_">
	<defs>
		<filter id="Adobe_OpacityMaskFilter" filterUnits="userSpaceOnUse" x="14.6" y="0" width="482.8" height="512">
			
				<feColorMatrix  type="matrix" values="-1 0 0 0 1  0 -1 0 0 1  0 0 -1 0 1  0 0 0 1 0" color-interpolation-filters="sRGB" result="source"/>
			<feFlood  style="flood-color:white;flood-opacity:1" result="back"/>
			<feBlend  in="source" in2="back" mode="normal"/>
		</filter>
	</defs>
	<mask maskUnits="userSpaceOnUse" x="14.6" y="0" width="482.8" height="512" id="XMLID_54_">
		<g id="XMLID_49_" filter="url(#Adobe_OpacityMaskFilter)">
			
				<ellipse id="XMLID_52_" transform="matrix(0.5657 -0.8246 0.8246 0.5657 -99.8553 322.2712)" fill="#FFFFFF" cx="256" cy="255.9" rx="74.5" ry="74.6"/>
		</g>
	</mask>
	<g id="XMLID_14381_" mask="url(#XMLID_54_)">
		
			<line id="XMLID_14397_" fill="none" stroke="#F2AE32" stroke-width="2" stroke-linecap="round" stroke-linejoin="round" stroke-miterlimit="10" x1="424.5" y1="371.6" x2="87.5" y2="140.4"/>
		
			<line id="XMLID_14396_" fill="none" stroke="#F2AE32" stroke-width="2" stroke-linecap="round" stroke-linejoin="round" stroke-miterlimit="10" x1="373" y1="82.2" x2="139" y2="429.8"/>
		
			<line id="XMLID_14395_" fill="none" stroke="#F2AE32" stroke-width="2" stroke-linecap="round" stroke-linejoin="round" stroke-miterlimit="10" x1="88.1" y1="277.8" x2="423.9" y2="234.2"/>
		
			<line id="XMLID_14394_" fill="none" stroke="#F2AE32" stroke-width="2" stroke-linecap="round" stroke-linejoin="round" stroke-miterlimit="10" x1="99.3" y1="196.4" x2="412.7" y2="315.6"/>
		
			<line id="XMLID_14393_" fill="none" stroke="#F2AE32" stroke-width="2" stroke-linecap="round" stroke-linejoin="round" stroke-miterlimit="10" x1="368" y1="380.8" x2="144" y2="131.2"/>
		
			<line id="XMLID_14392_" fill="none" stroke="#F2AE32" stroke-width="2" stroke-linecap="round" stroke-linejoin="round" stroke-miterlimit="10" x1="381.6" y1="139.3" x2="130.4" y2="372.7"/>
		
			<line id="XMLID_14391_" fill="none" stroke="#F2AE32" stroke-width="2" stroke-linecap="round" stroke-linejoin="round" stroke-miterlimit="10" x1="192.3" y1="415.2" x2="319.7" y2="96.8"/>
		
			<line id="XMLID_14390_" fill="none" stroke="#F2AE32" stroke-width="2" stroke-linecap="round" stroke-linejoin="round" stroke-miterlimit="10" x1="15.6" y1="341.4" x2="496.4" y2="170.6"/>
		
			<line id="XMLID_14389_" fill="none" stroke="#F2AE32" stroke-width="2" stroke-linecap="round" stroke-linejoin="round" stroke-miterlimit="10" x1="262.9" y1="511" x2="249.1" y2="1"/>
		
			<line id="XMLID_14388_" fill="none" stroke="#F2AE32" stroke-width="2" stroke-linecap="round" stroke-linejoin="round" stroke-miterlimit="10" x1="20.3" y1="219.2" x2="491.7" y2="292.8"/>
		
			<line id="XMLID_14387_" fill="none" stroke="#F2AE32" stroke-width="2" stroke-linecap="round" stroke-linejoin="round" stroke-miterlimit="10" x1="375.2" y1="462.7" x2="136.8" y2="49.3"/>
		
			<line id="XMLID_14386_" fill="none" stroke="#F2AE32" stroke-width="2" stroke-linecap="round" stroke-linejoin="round" stroke-miterlimit="10" x1="55.5" y1="378.5" x2="456.5" y2="133.5"/>
		
			<line id="XMLID_14385_" fill="none" stroke="#F2AE32" stroke-width="2" stroke-linecap="round" stroke-linejoin="round" stroke-miterlimit="10" x1="213.9" y1="487.1" x2="298.1" y2="24.9"/>
		
			<line id="XMLID_14384_" fill="none" stroke="#F2AE32" stroke-width="2" stroke-linecap="round" stroke-linejoin="round" stroke-miterlimit="10" x1="296.1" y1="420.5" x2="215.9" y2="91.5"/>
	</g>
	<g id="XMLID_14379_">
		<g id="XMLID_14380_">
			<path id="XMLID_80_" fill="#F2AE32" d="M256.1,192.9v4c15.6,0,30.4,6.1,41.5,17.1c11.1,11,17.4,25.7,17.5,41.4
				c0.2,15.8-5.8,30.7-16.9,42c-11,11.3-25.8,17.6-41.6,17.7c-0.2,0-0.4,0-0.6,0c-15.6,0-30.4-6.1-41.5-17.1
				c-11.1-11-17.4-25.7-17.5-41.4c-0.2-15.8,5.8-30.7,16.9-42c11-11.3,25.8-17.6,41.6-17.7c0.2,0,0.4,0,0.6,0L256.1,192.9
				 M256.1,192.9c-0.2,0-0.5,0-0.7,0c-34.8,0.4-62.7,28.9-62.4,63.7c0.4,34.6,28.5,62.4,63,62.4c0.2,0,0.5,0,0.7,0
				c34.8-0.4,62.7-28.9,62.4-63.7C318.8,220.7,290.6,192.9,256.1,192.9L256.1,192.9z"/>
		</g>
	</g>
	<g id="XMLID_14356_">
		
			<line id="XMLID_14378_" fill="none" stroke="#F2AE32" stroke-width="2" stroke-linecap="round" stroke-linejoin="round" stroke-miterlimit="10" x1="224.5" y1="203.2" x2="243.8" y2="203"/>
		
			<line id="XMLID_14377_" fill="none" stroke="#F2AE32" stroke-width="2" stroke-linecap="round" stroke-linejoin="round" stroke-miterlimit="10" x1="235.8" y1="197.4" x2="255" y2="197.2"/>
		
			<path id="XMLID_14376_" fill="none" stroke="#F2AE32" stroke-width="2" stroke-linecap="round" stroke-linejoin="round" stroke-miterlimit="10" d="
			M216.9,209.1c0.6-0.2,18.9-0.2,18.9-0.2"/>
		
			<path id="XMLID_14375_" fill="none" stroke="#F2AE32" stroke-width="2" stroke-linecap="round" stroke-linejoin="round" stroke-miterlimit="10" d="
			M211.6,214.6c0.5,0.1,23.5-0.2,23.5-0.2"/>
		
			<line id="XMLID_14374_" fill="none" stroke="#F2AE32" stroke-width="2" stroke-linecap="round" stroke-linejoin="round" stroke-miterlimit="10" x1="207" y1="220.3" x2="234.8" y2="220"/>
		
			<line id="XMLID_14373_" fill="none" stroke="#F2AE32" stroke-width="2" stroke-linecap="round" stroke-linejoin="round" stroke-miterlimit="10" x1="204" y1="225.2" x2="222.1" y2="225"/>
		
			<path id="XMLID_14372_" fill="none" stroke="#F2AE32" stroke-width="2" stroke-linecap="round" stroke-linejoin="round" stroke-miterlimit="10" d="
			M201.7,229.9c0.6,0,24.1-0.3,24.1-0.3"/>
		
			<line id="XMLID_14371_" fill="none" stroke="#F2AE32" stroke-width="2" stroke-linecap="round" stroke-linejoin="round" stroke-miterlimit="10" x1="199.7" y1="234.2" x2="230.6" y2="233.9"/>
		
			<line id="XMLID_14370_" fill="none" stroke="#F2AE32" stroke-width="2" stroke-linecap="round" stroke-linejoin="round" stroke-miterlimit="10" x1="198" y1="239.3" x2="232.4" y2="239"/>
		
			<path id="XMLID_14369_" fill="none" stroke="#F2AE32" stroke-width="2" stroke-linecap="round" stroke-linejoin="round" stroke-miterlimit="10" d="
			M197,245.1c1,0.2,35.8-0.4,35.8-0.4"/>
		
			<path id="XMLID_14368_" fill="none" stroke="#F2AE32" stroke-width="2" stroke-linecap="round" stroke-linejoin="round" stroke-miterlimit="10" d="
			M196.2,251.7c0.6,0,27.8-0.3,27.8-0.3"/>
		
			<line id="XMLID_14367_" fill="none" stroke="#F2AE32" stroke-width="2" stroke-linecap="round" stroke-linejoin="round" stroke-miterlimit="10" x1="195.9" y1="257.3" x2="227.6" y2="256.9"/>
		
			<line id="XMLID_14366_" fill="none" stroke="#F2AE32" stroke-width="2" stroke-linecap="round" stroke-linejoin="round" stroke-miterlimit="10" x1="196.3" y1="262.5" x2="227.2" y2="262.2"/>
		
			<line id="XMLID_14365_" fill="none" stroke="#F2AE32" stroke-width="2" stroke-linecap="round" stroke-linejoin="round" stroke-miterlimit="10" x1="197.3" y1="268.2" x2="226.8" y2="267.9"/>
		
			<line id="XMLID_14364_" fill="none" stroke="#F2AE32" stroke-width="2" stroke-linecap="round" stroke-linejoin="round" stroke-miterlimit="10" x1="198.6" y1="273.8" x2="221.2" y2="273.6"/>
		
			<line id="XMLID_14363_" fill="none" stroke="#F2AE32" stroke-width="2" stroke-linecap="round" stroke-linejoin="round" stroke-miterlimit="10" x1="201.1" y1="280.7" x2="220.7" y2="280.5"/>
		
			<line id="XMLID_14362_" fill="none" stroke="#F2AE32" stroke-width="2" stroke-linecap="round" stroke-linejoin="round" stroke-miterlimit="10" x1="203.9" y1="286.6" x2="230.7" y2="286.3"/>
		
			<line id="XMLID_14361_" fill="none" stroke="#F2AE32" stroke-width="2" stroke-linecap="round" stroke-linejoin="round" stroke-miterlimit="10" x1="207.7" y1="292.8" x2="229.8" y2="292.5"/>
		
			<line id="XMLID_14360_" fill="none" stroke="#F2AE32" stroke-width="2" stroke-linecap="round" stroke-linejoin="round" stroke-miterlimit="10" x1="211.6" y1="297.7" x2="233.1" y2="297.5"/>
		
			<line id="XMLID_14359_" fill="none" stroke="#F2AE32" stroke-width="2" stroke-linecap="round" stroke-linejoin="round" stroke-miterlimit="10" x1="217.9" y1="304" x2="242" y2="303.7"/>
		
			<line id="XMLID_14358_" fill="none" stroke="#F2AE32" stroke-width="2" stroke-linecap="round" stroke-linejoin="round" stroke-miterlimit="10" x1="226.3" y1="309.4" x2="246.9" y2="309.2"/>
		
			<line id="XMLID_14357_" fill="none" stroke="#F2AE32" stroke-width="2" stroke-linecap="round" stroke-linejoin="round" stroke-miterlimit="10" x1="239.2" y1="315.9" x2="252.5" y2="315.7"/>
	</g>
</g>
</svg>
