<?xml version="1.0" encoding="utf-8"?>
<!-- Generator: Adobe Illustrator 19.0.0, SVG Export Plug-In . SVG Version: 6.00 Build 0)  -->
<svg version="1.1" id="Слой_1" xmlns="http://www.w3.org/2000/svg" xmlns:xlink="http://www.w3.org/1999/xlink" x="0px" y="0px"
	 viewBox="0 0 478.2 256" enable-background="new 0 0 478.2 256" xml:space="preserve">
<g id="Щитодержатели_4_" opacity="0.1">
	<g id="XMLID_6453_">
		<g id="XMLID_6460_">
			<path id="XMLID_6527_" fill="#FFFFFF" d="M101.6,256c-0.4,0-0.7-0.1-1-0.4c-0.2-0.2-18.5-16.4-36.2-38.6
				c-23.9-29.9-35.6-55.9-34.5-77.1c1.4-28.7,17.7-54.6,29.6-73.5C64.8,58,68.9,51.4,70.2,47c0.2-0.8,1.1-1.3,1.9-1.1
				c0.8,0.2,1.3,1.1,1.1,1.9c-1.4,4.8-5.7,11.6-11.1,20.3c-11.7,18.6-27.7,44.2-29.1,72c-2.4,49,69,112.6,69.7,113.2
				c0.6,0.6,0.7,1.5,0.1,2.2C102.5,255.8,102.1,256,101.6,256z"/>
			<g id="XMLID_6516_">
				<g id="XMLID_6522_">
					<path id="XMLID_6524_" fill="#FFFFFF" d="M57.6,73.4c-0.2,0-0.4-0.1-0.5-0.3c-0.3-0.4-7.6-10-8.5-18.7
						c-0.6-5.5,0.8-13.1,1.9-19.3c0.6-3.5,1.2-6.6,1.2-8.2c0-3.9-0.4-7.5-0.4-7.5c0-0.3,0.1-0.6,0.4-0.7c0.3-0.1,0.6-0.1,0.8,0.1
						c0.4,0.3,8.6,8.2,10.5,14.4c3.6,12.2-0.7,25-5.4,32.2c-1.3,1.9-0.9,4.4-0.9,4.4c0,0,0,0,0,0c1,1.5,1.6,2.3,1.6,2.4
						c0.2,0.3,0.2,0.7-0.1,1C57.9,73.4,57.7,73.4,57.6,73.4z M52.7,21.2c0.1,1.4,0.2,3.6,0.3,5.8c0,1.8-0.5,4.9-1.2,8.5
						c-1.1,6-2.5,13.6-1.9,18.9c0.5,4.7,3.1,9.9,5.2,13.5c0.1-0.9,0.4-2.1,1.1-3c4.6-7,8.8-19.3,5.3-31.1
						C60.1,29.2,55.1,23.7,52.7,21.2z"/>
					<path id="XMLID_6523_" fill="#FFFFFF" d="M55.2,70.1c-0.3,0-0.6-0.3-0.7-0.6c-0.1-0.5-1.3-11.9,0.7-20.3
						c2.3-9.5,0.2-20.9,0.2-21c-0.1-0.4,0.2-0.7,0.5-0.8c0.4-0.1,0.7,0.2,0.8,0.5c0.1,0.5,2.2,11.7-0.2,21.6
						c-2,8.2-0.7,19.7-0.7,19.8C56,69.7,55.7,70,55.2,70.1C55.3,70.1,55.3,70.1,55.2,70.1z"/>
				</g>
				<g id="XMLID_6517_">
					<path id="XMLID_6519_" fill="#FFFFFF" d="M63.2,73.7c-3.2,0-5.4-0.3-5.7-0.3c-0.4,0-0.6-0.4-0.6-0.8c0-0.4,0.4-0.6,0.8-0.6
						c0,0,1.1,0.1,2.9,0.2c0,0,0,0,0,0c0,0,2.4-1,3.3-3c3.7-7.8,12.5-18.1,24.8-21.2c6.3-1.6,17.3,1.5,17.7,1.6
						c0.3,0.1,0.5,0.3,0.5,0.6c0,0.3-0.1,0.6-0.4,0.7c0,0-3.3,1.5-6.7,3.5c-1.4,0.8-3.7,2.9-6.4,5.2c-4.7,4.1-10.5,9.2-15.6,11.5
						C73.3,73.3,67.4,73.7,63.2,73.7z M63.1,72.3C63.1,72.3,63.1,72.3,63.1,72.3c4.2,0,9.9-0.4,14.2-2.4c4.9-2.2,10.6-7.3,15.3-11.3
						c2.8-2.4,5.1-4.5,6.7-5.4c1.9-1.1,3.8-2.1,5.1-2.7c-3.4-0.8-10.7-2.3-15.2-1.1c-11.9,3-20.3,12.9-24,20.5
						C64.6,70.9,63.8,71.7,63.1,72.3z"/>
					<path id="XMLID_6518_" fill="#FFFFFF" d="M61.7,73.7c-0.3,0-0.5-0.1-0.6-0.4c-0.2-0.3,0-0.7,0.3-0.9c0.1,0,10.6-4.9,16.6-10.8
						c7.2-7.1,17.9-11.1,18.4-11.2c0.4-0.1,0.7,0.1,0.9,0.4c0.1,0.4-0.1,0.7-0.4,0.9c-0.1,0-10.9,4.1-17.9,10.9
						c-6.2,6.1-16.6,10.8-17,11C61.8,73.7,61.8,73.7,61.7,73.7z"/>
				</g>
			</g>
			<g id="XMLID_6505_">
				<g id="XMLID_6511_">
					<path id="XMLID_6513_" fill="#FFFFFF" d="M40.3,104.1c-0.2,0-0.4-0.1-0.5-0.3c-0.3-0.4-7.7-9.9-8.7-18.6
						c-0.7-5.5,0.6-13.2,1.7-19.3c0.6-3.5,1.1-6.6,1.1-8.2c-0.1-3.9-0.5-7.5-0.5-7.5c0-0.3,0.1-0.6,0.4-0.7c0.3-0.1,0.6-0.1,0.8,0.1
						c0.4,0.3,8.7,8.1,10.6,14.3c3.8,12.2-0.4,25-5.1,32.3c-1.2,1.9-0.8,4.4-0.8,4.4c0,0,0,0,0,0.1c1,1.4,1.7,2.3,1.7,2.3
						c0.2,0.3,0.2,0.7-0.1,1C40.6,104,40.5,104.1,40.3,104.1z M34.9,51.9c0.1,1.4,0.3,3.6,0.3,5.8c0,1.8-0.5,4.9-1.1,8.5
						c-1,6.1-2.3,13.6-1.7,18.9c0.6,4.7,3.2,9.9,5.4,13.4c0.1-0.9,0.4-2.1,1-3.1c4.5-7,8.6-19.4,4.9-31.1
						C42.4,59.8,37.3,54.3,34.9,51.9z"/>
					<path id="XMLID_6512_" fill="#FFFFFF" d="M38,100.7c-0.3,0-0.6-0.3-0.7-0.6c-0.1-0.5-1.4-11.8,0.5-20.3c2.2-9.6,0-20.9,0-21
						c-0.1-0.4,0.2-0.7,0.5-0.8c0.4-0.1,0.7,0.2,0.8,0.5c0.1,0.5,2.3,11.7,0,21.6c-1.9,8.2-0.5,19.7-0.5,19.8
						C38.7,100.3,38.4,100.7,38,100.7C38,100.7,38,100.7,38,100.7z"/>
				</g>
				<g id="XMLID_6506_">
					<path id="XMLID_6508_" fill="#FFFFFF" d="M45.3,104.3c-2.8,0-4.8-0.2-5-0.2c-0.4,0-0.6-0.4-0.6-0.7c0-0.4,0.4-0.6,0.7-0.6
						c0,0,1.1,0.1,2.9,0.2c0,0,0,0,0,0c0,0,2.4-1,3.3-3c3.7-7.9,12.3-18.2,24.6-21.5c6.3-1.7,17.3,1.3,17.8,1.4
						c0.3,0.1,0.5,0.3,0.5,0.6c0,0.3-0.1,0.6-0.4,0.7c0,0-3.3,1.6-6.6,3.6c-1.4,0.8-3.7,2.9-6.4,5.3c-4.7,4.2-10.4,9.3-15.5,11.7
						C55.8,103.8,49.6,104.3,45.3,104.3z M75.9,79.2c-1.6,0-3,0.1-4.3,0.5c-11.9,3.2-20.2,13.1-23.7,20.7c-0.5,1.1-1.3,1.9-2,2.5
						c4.2,0,9.9-0.5,14.2-2.6c4.8-2.3,10.5-7.4,15.1-11.5c2.7-2.4,5.1-4.5,6.6-5.4c1.9-1.1,3.8-2.1,5.1-2.8
						C84.4,80,79.9,79.2,75.9,79.2z"/>
					<path id="XMLID_6507_" fill="#FFFFFF" d="M44.4,104.3c-0.3,0-0.5-0.1-0.6-0.4c-0.2-0.3,0-0.7,0.3-0.9c0.1,0,10.6-5,16.5-10.9
						c7.1-7.2,17.8-11.3,18.3-11.4c0.4-0.1,0.7,0,0.9,0.4c0.1,0.4,0,0.7-0.4,0.9c-0.1,0-10.9,4.2-17.8,11.1
						c-6.1,6.1-16.5,11-16.9,11.2C44.6,104.3,44.5,104.3,44.4,104.3z"/>
				</g>
			</g>
			<g id="XMLID_6494_">
				<g id="XMLID_6500_">
					<path id="XMLID_6502_" fill="#FFFFFF" d="M31.8,141.5c-0.1,0-0.3,0-0.4-0.1c-0.4-0.3-10.2-7.2-13.7-15.3
						c-2.2-5.1-3.2-12.8-4-19c-0.5-3.6-0.8-6.6-1.4-8.2c-1.2-3.7-2.7-7-2.7-7.1c-0.1-0.3-0.1-0.6,0.2-0.8c0.2-0.2,0.5-0.2,0.8-0.1
						c0.4,0.2,10.7,5.2,14.3,10.6c7.1,10.6,6.9,24,4.5,32.4c-0.6,2.2,0.5,4.4,0.5,4.5c0,0,0,0,0,0c1.3,1.1,2.3,1.7,2.3,1.8
						c0.3,0.2,0.4,0.6,0.2,0.9C32.2,141.4,32,141.5,31.8,141.5z M11.6,93.1c0.5,1.3,1.3,3.3,2,5.4c0.6,1.7,1,4.8,1.4,8.4
						c0.8,6.1,1.7,13.7,3.9,18.6c1.9,4.4,5.9,8.5,9,11.3c-0.2-0.9-0.2-2.1,0.1-3.2c2.3-8,2.6-21-4.3-31.2
						C21.1,98.5,14.7,94.7,11.6,93.1z"/>
					<path id="XMLID_6501_" fill="#FFFFFF" d="M28.6,139c-0.3,0-0.5-0.2-0.6-0.4c-0.2-0.4-4.8-10.9-5.4-19.6
						c-0.7-9.8-6.1-20-6.1-20.1c-0.2-0.3-0.1-0.7,0.3-0.9c0.3-0.2,0.7-0.1,0.9,0.3c0.2,0.4,5.6,10.5,6.3,20.6
						c0.6,8.4,5.2,19,5.3,19.1c0.2,0.3,0,0.7-0.3,0.9C28.7,138.9,28.6,139,28.6,139z"/>
				</g>
				<g id="XMLID_6495_">
					<path id="XMLID_6497_" fill="#FFFFFF" d="M31.8,141.5c-0.3,0-0.6-0.2-0.7-0.6c-0.1-0.4,0.2-0.7,0.5-0.8c0,0,1.1-0.2,2.8-0.7
						c0,0,0,0,0,0c0,0,2-1.6,2.3-3.9c1.2-8.6,6.5-21,17.3-27.7c5.5-3.4,16.9-3.8,17.4-3.8c0.3,0,0.5,0.2,0.7,0.4
						c0.1,0.3,0,0.6-0.2,0.8c0,0-2.7,2.5-5.3,5.3c-1.1,1.2-2.7,3.9-4.6,6.9c-3.2,5.3-7.3,11.9-11.4,15.7c-6.5,5.9-18.3,8.2-18.8,8.3
						C31.9,141.5,31.8,141.5,31.8,141.5z M69.7,105.5c-3.5,0.2-10.9,1.1-14.9,3.5c-10.4,6.5-15.5,18.4-16.7,26.7
						c-0.2,1.2-0.7,2.2-1.2,3c4-1.3,9.3-3.4,12.9-6.6c4-3.6,7.9-10.1,11.1-15.4c1.9-3.1,3.5-5.8,4.7-7.1
						C67.2,108,68.7,106.5,69.7,105.5z"/>
					<path id="XMLID_6496_" fill="#FFFFFF" d="M35.8,140.5c-0.2,0-0.4-0.1-0.5-0.2c-0.3-0.3-0.2-0.7,0.1-1
						c0.1-0.1,8.7-7.8,12.6-15.3c4.8-8.9,13.8-16,14.2-16.3c0.3-0.2,0.7-0.2,1,0.1c0.2,0.3,0.2,0.7-0.1,1
						c-0.1,0.1-9.2,7.2-13.8,15.8c-4.1,7.6-12.6,15.3-12.9,15.6C36.1,140.5,35.9,140.5,35.8,140.5z"/>
				</g>
			</g>
			<g id="XMLID_6483_">
				<g id="XMLID_6489_">
					<path id="XMLID_6491_" fill="#FFFFFF" d="M41.7,181.1c0,0-0.1,0-0.1,0c-0.5-0.1-12.3-2-19.1-7.6c-4.2-3.6-8.5-10-12-15.2
						c-2-3-3.7-5.6-4.8-6.7c-2.7-2.8-5.5-5.1-5.5-5.2c-0.2-0.2-0.3-0.5-0.2-0.8c0.1-0.3,0.4-0.4,0.6-0.4c0.5,0,11.9-0.1,17.5,3.2
						c11.1,6.3,16.8,18.5,18.3,27c0.4,2.2,2.4,3.8,2.4,3.8c0,0,0,0,0,0c1.7,0.4,2.8,0.6,2.8,0.6c0.4,0.1,0.6,0.4,0.6,0.8
						C42.3,180.9,42,181.1,41.7,181.1z M2.5,146.6c1.1,1,2.6,2.4,4.2,4c1.2,1.3,3,3.9,5,6.9c3.4,5.1,7.6,11.5,11.7,14.9
						c3.7,3.1,9.1,5,13.1,6.1c-0.6-0.8-1.1-1.8-1.3-2.9c-1.5-8.2-7-20-17.6-26.1C13.5,147.2,6,146.7,2.5,146.6z"/>
					<path id="XMLID_6490_" fill="#FFFFFF" d="M37.7,180.3c-0.2,0-0.3-0.1-0.4-0.2c-0.4-0.3-9.1-7.7-13.5-15.2
						c-4.9-8.5-14.3-15.2-14.4-15.3c-0.3-0.2-0.4-0.6-0.2-1c0.2-0.3,0.6-0.4,1-0.2c0.4,0.3,9.7,7,14.7,15.7
						c4.2,7.3,13.1,14.7,13.2,14.8c0.3,0.2,0.3,0.7,0.1,1C38.1,180.2,37.9,180.3,37.7,180.3z"/>
				</g>
				<g id="XMLID_6484_">
					<path id="XMLID_6486_" fill="#FFFFFF" d="M41.7,181.1c-0.2,0-0.4-0.1-0.5-0.3c-0.2-0.3-0.2-0.7,0.1-1c0,0,0.9-0.7,2.2-1.8
						c0,0,0,0,0,0c0,0,1-2.3,0.3-4.5c-2.7-8.2-3.4-21.7,3.3-32.5c3.5-5.5,13.5-10.9,13.9-11.1c0.3-0.1,0.6-0.1,0.8,0.1
						c0.2,0.2,0.3,0.5,0.2,0.8c0,0-1.3,3.4-2.4,7.1c-0.5,1.6-0.7,4.7-1.1,8.2c-0.6,6.2-1.3,13.9-3.3,19.1
						c-3.2,8.1-12.8,15.4-13.2,15.7C42,181.1,41.8,181.1,41.7,181.1z M60.1,132c-3,1.8-9.3,5.8-11.8,9.7
						c-6.5,10.4-5.8,23.4-3.2,31.3c0.4,1.1,0.4,2.3,0.2,3.2c3-2.9,6.9-7.2,8.6-11.6c2-5,2.7-12.6,3.2-18.7c0.3-3.6,0.6-6.8,1.1-8.5
						C59,135.4,59.6,133.4,60.1,132z"/>
					<path id="XMLID_6485_" fill="#FFFFFF" d="M44.8,178.5c-0.1,0-0.2,0-0.3,0c-0.3-0.1-0.5-0.5-0.4-0.9c0-0.1,4.3-10.9,4.6-19.3
						c0.3-10.1,5.3-20.4,5.5-20.8c0.2-0.3,0.6-0.5,0.9-0.3c0.3,0.2,0.5,0.6,0.3,0.9c-0.1,0.1-5.1,10.5-5.4,20.3
						c-0.3,8.7-4.5,19.3-4.7,19.7C45.4,178.4,45.1,178.5,44.8,178.5z"/>
				</g>
			</g>
			<g id="XMLID_6472_">
				<g id="XMLID_6478_">
					<path id="XMLID_6480_" fill="#FFFFFF" d="M55.5,213.2c-3.9,0-8.7-0.4-12.5-2c-5.1-2.1-11.2-7-16-10.9c-2.8-2.2-5.2-4.2-6.7-5
						c-3.4-1.8-6.8-3.2-6.8-3.2c-0.3-0.1-0.4-0.4-0.4-0.7c0-0.3,0.2-0.5,0.5-0.6c0.5-0.2,11.3-3.7,17.7-2.3
						c12.5,2.7,21.6,12.5,25.7,20.2c1.1,2,3.4,2.9,3.5,2.9c0,0,0,0,0,0c1.7-0.1,2.8-0.3,2.9-0.3c0.4-0.1,0.7,0.2,0.8,0.6
						c0.1,0.4-0.2,0.7-0.6,0.8C63.2,212.7,59.8,213.2,55.5,213.2z M15.7,191.6c1.3,0.6,3.2,1.5,5.2,2.5c1.6,0.8,4,2.8,6.9,5.1
						c4.8,3.9,10.7,8.7,15.7,10.7c4.4,1.8,10.2,2,14.3,1.9c-0.8-0.6-1.6-1.3-2.2-2.4c-3.9-7.4-12.8-16.9-24.7-19.5
						C26.4,188.9,19.1,190.7,15.7,191.6z"/>
					<path id="XMLID_6479_" fill="#FFFFFF" d="M59.3,213.1c-0.1,0-0.2,0-0.3-0.1c-0.4-0.2-11-4.5-17.5-10.3
						c-7.3-6.6-18.2-10.2-18.3-10.2c-0.4-0.1-0.6-0.5-0.4-0.9c0.1-0.4,0.5-0.6,0.9-0.4c0.5,0.1,11.3,3.7,18.8,10.5
						c6.2,5.7,17,10,17.1,10.1c0.3,0.1,0.5,0.5,0.4,0.9C59.8,213,59.6,213.1,59.3,213.1z"/>
				</g>
				<g id="XMLID_6473_">
					<path id="XMLID_6475_" fill="#FFFFFF" d="M63.4,212.7c-0.1,0-0.3,0-0.4-0.1c-0.3-0.2-0.4-0.6-0.2-0.9c0,0,0.7-0.9,1.6-2.4
						c0,0,0,0,0,0c0,0,0.3-2.5-1-4.4c-5.1-7-9.9-19.6-6.7-32c1.6-6.3,9.5-14.5,9.9-14.8c0.2-0.2,0.5-0.3,0.8-0.1
						c0.3,0.1,0.4,0.4,0.4,0.7c0,0-0.2,3.6-0.1,7.5c0,1.6,0.7,4.7,1.5,8.2c1.4,6.1,3,13.7,2.6,19.2c-0.6,8.7-7.5,18.6-7.8,19
						C63.8,212.6,63.6,212.7,63.4,212.7z M66.2,160.3c-2.3,2.6-7.1,8.3-8.3,12.8c-3,11.9,1.6,24,6.5,30.8c0.7,1,1,2.1,1.2,3
						c2-3.7,4.4-8.9,4.7-13.7c0.4-5.3-1.3-12.8-2.6-18.8c-0.8-3.6-1.5-6.6-1.5-8.4C66.1,163.9,66.2,161.7,66.2,160.3z"/>
					<path id="XMLID_6474_" fill="#FFFFFF" d="M65.6,209.2C65.5,209.2,65.5,209.2,65.6,209.2c-0.4,0-0.7-0.4-0.7-0.7
						c0-0.1,0.8-11.7-1.5-19.8c-2.8-9.7-1.1-21.1-1.1-21.5c0.1-0.4,0.4-0.6,0.8-0.6c0.4,0.1,0.6,0.4,0.6,0.8c0,0.1-1.6,11.5,1,21
						c2.4,8.3,1.6,19.8,1.5,20.2C66.2,209,65.9,209.2,65.6,209.2z"/>
				</g>
			</g>
			<g id="XMLID_6461_">
				<g id="XMLID_6467_">
					<path id="XMLID_6469_" fill="#FFFFFF" d="M72,242.4c-1.9,0-3.9-0.2-5.7-0.6c-5.4-1.3-12.1-5.1-17.6-8.2
						c-3.1-1.8-5.8-3.3-7.4-3.8c-3.7-1.2-7.2-2.1-7.2-2.1c-0.3-0.1-0.5-0.3-0.5-0.6c0-0.3,0.1-0.6,0.4-0.7
						c0.4-0.2,10.6-5.4,17.1-5.1c12.7,0.6,23.3,8.9,28.6,15.8c1.4,1.8,3.9,2.3,3.9,2.3c0,0,0,0,0,0c1.7-0.4,2.7-0.8,2.8-0.8
						c0.4-0.1,0.7,0.1,0.9,0.4c0.1,0.4-0.1,0.7-0.4,0.9C86.4,240.1,79.2,242.4,72,242.4z M36.3,226.8c1.4,0.4,3.4,1,5.5,1.7
						c1.7,0.6,4.4,2.1,7.6,3.9c5.3,3,12,6.8,17.2,8c4.7,1.1,10.4,0.4,14.4-0.5c-0.9-0.4-1.8-1.1-2.5-2c-5.1-6.7-15.3-14.7-27.6-15.3
						C46.3,222.4,39.4,225.4,36.3,226.8z"/>
					<path id="XMLID_6468_" fill="#FFFFFF" d="M82.6,241.1c-0.1,0-0.1,0-0.2,0c-0.5-0.1-11.6-2.7-18.9-7.4
						c-8.2-5.3-19.6-7.1-19.7-7.1c-0.4-0.1-0.6-0.4-0.6-0.8c0.1-0.4,0.4-0.6,0.8-0.6c0.5,0.1,11.8,1.9,20.3,7.3
						c7.1,4.6,18.3,7.2,18.5,7.2c0.4,0.1,0.6,0.4,0.5,0.8C83.2,240.8,82.9,241.1,82.6,241.1z"/>
				</g>
				<g id="XMLID_6462_">
					<path id="XMLID_6464_" fill="#FFFFFF" d="M86.5,240c-0.1,0-0.2,0-0.3-0.1c-0.3-0.2-0.5-0.6-0.3-0.9c0,0,0.5-1,1.1-2.6
						c0,0,0,0,0,0c0,0-0.1-2.6-1.7-4.2c-6.1-6.1-12.9-17.8-11.8-30.5c0.6-6.5,7.1-15.8,7.4-16.2c0.2-0.2,0.5-0.3,0.7-0.3
						c0.3,0.1,0.5,0.3,0.5,0.6c0,0,0.4,3.6,1.1,7.5c0.3,1.6,1.5,4.5,2.8,7.8c2.3,5.8,5.2,13,5.7,18.5c0.8,8.7-4.4,19.5-4.6,20
						C87,239.8,86.8,240,86.5,240z M81,187.8c-1.9,2.9-5.7,9.4-6.1,14c-1.1,12.2,5.5,23.5,11.4,29.4c0.8,0.8,1.4,1.9,1.7,2.8
						c1.4-3.9,2.9-9.5,2.4-14.2c-0.5-5.3-3.3-12.4-5.6-18.1c-1.4-3.4-2.5-6.3-2.9-8.1C81.5,191.3,81.2,189.2,81,187.8z"/>
					<path id="XMLID_6463_" fill="#FFFFFF" d="M88.1,236.2c-0.3,0-0.6-0.3-0.7-0.6c0-0.1-1.1-11.6-4.6-19.3
						c-4.3-9.2-4.5-20.6-4.5-21.1c0-0.4,0.3-0.7,0.7-0.7c0.4,0,0.7,0.3,0.7,0.7c0,0.1,0.2,11.6,4.4,20.5c3.7,7.8,4.7,19.2,4.8,19.7
						C88.9,235.8,88.6,236.2,88.1,236.2C88.2,236.2,88.2,236.2,88.1,236.2z"/>
				</g>
			</g>
		</g>
		<g id="XMLID_6454_">
			<g id="XMLID_6455_">
				<path id="XMLID_6457_" fill="#FFFFFF" d="M71.6,50.3c-0.3,0-0.6-0.2-0.7-0.5c-0.9-4-2.1-11.5-0.6-17.4c1.4-5.4,5.4-12,8.6-17.4
					c1.8-3.1,3.4-5.7,4-7.3c1.3-3.7,2.3-7.2,2.3-7.2C85.2,0.2,85.5,0,85.8,0c0.3,0,0.6,0.1,0.7,0.4c0.2,0.4,5.2,10.7,4.7,17.2
					c-0.9,12.7-9.4,23.1-16.4,28.2c-1.8,1.3-2.4,3.8-2.4,3.8c0,0.1,0,0.1-0.1,0.2c-0.1,0.2-0.3,0.4-0.5,0.5
					C71.7,50.3,71.7,50.3,71.6,50.3z M86,2.7c-0.4,1.4-1,3.4-1.8,5.5c-0.6,1.7-2.2,4.4-4.1,7.5c-3.2,5.3-7.1,11.8-8.4,17
					c-1.2,4.7-0.6,10.4,0.1,14.4c0.4-0.8,1.1-1.8,2.1-2.5c6.8-4.9,15-15,15.9-27.2C90.1,12.8,87.4,5.8,86,2.7z"/>
				<path id="XMLID_6456_" fill="#FFFFFF" d="M71.4,49.4c-0.1,0-0.1,0-0.2,0c-0.4-0.1-0.6-0.5-0.5-0.8c0.1-0.5,3-11.6,7.8-18.7
					c5.5-8.1,7.6-19.5,7.6-19.6c0.1-0.4,0.4-0.6,0.8-0.6c0.4,0.1,0.6,0.4,0.6,0.8c-0.1,0.5-2.1,11.7-7.8,20.1
					c-4.7,7-7.6,18.2-7.6,18.3C72,49.2,71.7,49.4,71.4,49.4z"/>
			</g>
		</g>
	</g>
	<g id="XMLID_6378_">
		<g id="XMLID_6385_">
			<path id="XMLID_6452_" fill="#FFFFFF" d="M376.6,256c-0.4,0-0.8-0.2-1.2-0.5c-0.6-0.6-0.5-1.6,0.1-2.2
				c0.7-0.6,72.1-64.3,69.7-113.2c-1.4-27.9-17.4-53.4-29.1-72c-5.4-8.6-9.7-15.4-11.1-20.3c-0.2-0.8,0.2-1.7,1.1-1.9
				c0.8-0.2,1.7,0.2,1.9,1.1c1.3,4.4,5.4,11.1,10.7,19.5c11.9,18.9,28.2,44.9,29.6,73.5c1.1,21.2-10.6,47.2-34.5,77.1
				c-17.7,22.2-36,38.4-36.2,38.6C377.3,255.9,376.9,256,376.6,256z"/>
			<g id="XMLID_6441_">
				<g id="XMLID_6447_">
					<path id="XMLID_6449_" fill="#FFFFFF" d="M420.6,73.4c-0.1,0-0.3,0-0.4-0.1c-0.3-0.2-0.4-0.7-0.1-1c0,0,0.7-0.9,1.6-2.4
						c0,0,0,0,0-0.1c0,0,0.4-2.5-0.9-4.4c-4.8-7.2-9.1-20-5.4-32.2c1.9-6.2,10.1-14.1,10.5-14.4c0.2-0.2,0.5-0.2,0.8-0.1
						c0.3,0.1,0.4,0.4,0.4,0.7c0,0-0.4,3.6-0.4,7.5c0,1.6,0.5,4.7,1.2,8.2c1.1,6.1,2.5,13.8,1.9,19.3c-1,8.7-8.2,18.3-8.5,18.7
						C421.1,73.4,420.9,73.4,420.6,73.4z M425.5,21.2c-2.4,2.5-7.5,8-8.8,12.5c-3.5,11.8,0.7,24.1,5.3,31.1c0.7,1,1,2.1,1.1,3
						c2.1-3.6,4.7-8.7,5.2-13.5c0.6-5.3-0.8-12.8-1.9-18.9c-0.6-3.6-1.2-6.7-1.2-8.5C425.3,24.8,425.4,22.6,425.5,21.2z"/>
					<path id="XMLID_6448_" fill="#FFFFFF" d="M423,70.1C423,70.1,422.9,70.1,423,70.1c-0.5,0-0.7-0.4-0.7-0.8
						c0-0.1,1.3-11.6-0.7-19.8c-2.4-9.8-0.3-21.1-0.2-21.6c0.1-0.4,0.4-0.6,0.8-0.5c0.4,0.1,0.6,0.4,0.5,0.8c0,0.1-2.1,11.5,0.2,21
						c2,8.4,0.8,19.8,0.7,20.3C423.6,69.8,423.3,70.1,423,70.1z"/>
				</g>
				<g id="XMLID_6442_">
					<path id="XMLID_6444_" fill="#FFFFFF" d="M415.1,73.7c-4.3,0-10.2-0.5-14.7-2.6c-5-2.3-10.9-7.4-15.6-11.5
						c-2.7-2.4-5-4.4-6.4-5.2c-3.4-2-6.6-3.5-6.7-3.5c-0.3-0.1-0.4-0.4-0.4-0.7c0-0.3,0.2-0.5,0.5-0.6c0.5-0.1,11.4-3.2,17.7-1.6
						c12.3,3.2,21.1,13.4,24.8,21.2c1,2,3.3,3,3.3,3c0,0,0,0,0,0c1.7-0.1,2.8-0.2,2.9-0.2c0.4,0,0.7,0.2,0.8,0.6
						c0,0.4-0.2,0.7-0.6,0.8C420.5,73.5,418.2,73.7,415.1,73.7z M373.9,50.5c1.3,0.6,3.2,1.6,5.1,2.7c1.5,0.9,3.9,3,6.7,5.4
						c4.6,4,10.4,9.1,15.3,11.3c4.3,2,10.1,2.4,14.2,2.4h0c-0.8-0.6-1.5-1.4-2.1-2.5c-3.6-7.5-12.1-17.4-24-20.5
						C384.6,48.2,377.2,49.7,373.9,50.5z"/>
					<path id="XMLID_6443_" fill="#FFFFFF" d="M416.6,73.7c-0.1,0-0.2,0-0.3-0.1c-0.4-0.2-10.8-5-17-11c-7-6.9-17.8-10.9-17.9-10.9
						c-0.4-0.1-0.5-0.5-0.4-0.9c0.1-0.4,0.5-0.5,0.9-0.4c0.5,0.2,11.2,4.2,18.4,11.2c6,5.9,16.5,10.7,16.6,10.8
						c0.3,0.2,0.5,0.6,0.3,0.9C417.1,73.6,416.8,73.7,416.6,73.7z"/>
				</g>
			</g>
			<g id="XMLID_6430_">
				<g id="XMLID_6436_">
					<path id="XMLID_6438_" fill="#FFFFFF" d="M437.9,104.1c-0.1,0-0.3,0-0.4-0.1c-0.3-0.2-0.3-0.7-0.1-1c0,0,0.7-0.9,1.7-2.3
						c0,0,0,0,0,0c0,0,0.4-2.5-0.8-4.4c-4.7-7.3-8.9-20.1-5.1-32.3c1.9-6.2,10.3-14,10.6-14.3c0.2-0.2,0.5-0.2,0.8-0.1
						c0.3,0.1,0.4,0.4,0.4,0.7c0,0-0.4,3.6-0.5,7.5c0,1.6,0.5,4.7,1.1,8.2c1,6.1,2.3,13.8,1.7,19.3c-1,8.7-8.4,18.2-8.7,18.6
						C438.3,104,438.1,104.1,437.9,104.1z M443.4,51.9c-2.4,2.5-7.6,8-8.9,12.4c-3.6,11.7,0.4,24.1,4.9,31.1c0.6,1,0.9,2.1,1,3.1
						c2.2-3.5,4.8-8.7,5.4-13.4c0.6-5.3-0.6-12.9-1.7-18.9c-0.6-3.6-1.1-6.7-1.1-8.5C443.1,55.4,443.2,53.3,443.4,51.9z"/>
					<path id="XMLID_6437_" fill="#FFFFFF" d="M440.3,100.7C440.2,100.7,440.2,100.7,440.3,100.7c-0.5-0.1-0.7-0.4-0.7-0.8
						c0-0.1,1.4-11.6-0.5-19.8c-2.3-9.9-0.1-21.1,0-21.6c0.1-0.4,0.4-0.6,0.8-0.5c0.4,0.1,0.6,0.4,0.5,0.8c0,0.1-2.2,11.4,0,21
						c1.9,8.4,0.6,19.8,0.5,20.3C440.9,100.5,440.6,100.7,440.3,100.7z"/>
				</g>
				<g id="XMLID_6431_">
					<path id="XMLID_6433_" fill="#FFFFFF" d="M433,104.3c-4.3,0-10.6-0.5-15.4-2.7c-5-2.4-10.8-7.5-15.5-11.7
						c-2.7-2.4-5-4.4-6.4-5.3c-3.3-2-6.6-3.6-6.6-3.6c-0.3-0.1-0.4-0.4-0.4-0.7c0-0.3,0.2-0.5,0.5-0.6c0.5-0.1,11.5-3.1,17.8-1.4
						c12.3,3.3,20.9,13.6,24.6,21.5c1,2.1,3.3,3,3.3,3c0,0,0,0,0,0c1.7-0.1,2.8-0.2,2.9-0.2c0.4,0,0.7,0.2,0.7,0.6
						c0,0.4-0.2,0.7-0.6,0.7C437.8,104.1,435.8,104.3,433,104.3z M391.4,80.6c1.3,0.7,3.2,1.7,5.1,2.8c1.5,0.9,3.9,3,6.6,5.4
						c4.6,4.1,10.3,9.2,15.1,11.5c4.3,2,10.1,2.5,14.2,2.6c-0.7-0.6-1.5-1.4-2-2.5c-3.5-7.6-11.9-17.6-23.7-20.7
						C402.1,78.4,394.7,79.8,391.4,80.6z"/>
					<path id="XMLID_6432_" fill="#FFFFFF" d="M433.8,104.3c-0.1,0-0.2,0-0.3-0.1c-0.4-0.2-10.8-5.1-16.9-11.2
						c-6.9-7-17.7-11.1-17.8-11.1c-0.4-0.1-0.5-0.5-0.4-0.9c0.1-0.4,0.5-0.5,0.9-0.4c0.5,0.2,11.1,4.3,18.3,11.4
						c6,6,16.4,10.9,16.5,10.9c0.3,0.2,0.5,0.6,0.3,0.9C434.3,104.1,434.1,104.3,433.8,104.3z"/>
				</g>
			</g>
			<g id="XMLID_6419_">
				<g id="XMLID_6425_">
					<path id="XMLID_6427_" fill="#FFFFFF" d="M446.4,141.5c-0.2,0-0.4-0.1-0.6-0.3c-0.2-0.3-0.1-0.7,0.2-0.9c0,0,0.9-0.7,2.3-1.8
						c0,0,0,0,0,0c0,0,1.1-2.3,0.5-4.5c-2.4-8.3-2.6-21.8,4.5-32.4c3.7-5.4,13.9-10.4,14.3-10.6c0.3-0.1,0.6-0.1,0.8,0.1
						c0.2,0.2,0.3,0.5,0.2,0.8c0,0-1.5,3.4-2.7,7.1c-0.5,1.6-0.9,4.6-1.4,8.2c-0.8,6.2-1.8,13.9-4,19c-3.5,8-13.3,15-13.7,15.3
						C446.7,141.4,446.6,141.5,446.4,141.5z M466.6,93.1c-3.1,1.6-9.5,5.4-12.1,9.3c-6.9,10.2-6.6,23.2-4.3,31.2
						c0.3,1.2,0.3,2.3,0.1,3.2c3.1-2.8,7.1-6.9,9-11.3c2.2-4.9,3.1-12.5,3.9-18.6c0.5-3.6,0.9-6.8,1.4-8.4
						C465.3,96.4,466.1,94.4,466.6,93.1z"/>
					<path id="XMLID_6426_" fill="#FFFFFF" d="M449.7,139c-0.1,0-0.2,0-0.3-0.1c-0.3-0.2-0.5-0.6-0.3-0.9c0-0.1,4.7-10.7,5.3-19.1
						c0.7-10.1,6.1-20.2,6.3-20.6c0.2-0.3,0.6-0.5,0.9-0.3c0.3,0.2,0.5,0.6,0.3,0.9c-0.1,0.1-5.4,10.3-6.1,20.1
						c-0.6,8.6-5.2,19.1-5.4,19.6C450.2,138.8,449.9,139,449.7,139z"/>
				</g>
				<g id="XMLID_6420_">
					<path id="XMLID_6422_" fill="#FFFFFF" d="M446.4,141.5c0,0-0.1,0-0.1,0c-0.5-0.1-12.3-2.4-18.8-8.3
						c-4.1-3.7-8.2-10.3-11.4-15.7c-1.9-3.1-3.5-5.7-4.6-6.9c-2.6-2.9-5.3-5.3-5.3-5.3c-0.2-0.2-0.3-0.5-0.2-0.8
						c0.1-0.3,0.4-0.5,0.7-0.4c0.5,0,11.9,0.4,17.4,3.8c10.8,6.7,16.1,19.1,17.3,27.7c0.3,2.2,2.3,3.9,2.3,3.9c0,0,0,0,0,0
						c1.7,0.5,2.8,0.7,2.8,0.7c0.4,0.1,0.6,0.4,0.5,0.8C447,141.2,446.8,141.5,446.4,141.5z M408.5,105.5c1,1,2.6,2.5,4,4.2
						c1.2,1.3,2.8,4,4.7,7.1c3.2,5.2,7.2,11.8,11.1,15.4c3.5,3.2,8.9,5.3,12.9,6.6c-0.5-0.8-1.1-1.8-1.2-3
						c-1.2-8.3-6.3-20.3-16.7-26.7C419.4,106.6,412,105.7,408.5,105.5z"/>
					<path id="XMLID_6421_" fill="#FFFFFF" d="M442.5,140.5c-0.2,0-0.3-0.1-0.5-0.2c-0.4-0.3-8.8-8-12.9-15.6
						c-4.6-8.7-13.7-15.8-13.8-15.8c-0.3-0.2-0.4-0.7-0.1-1c0.2-0.3,0.7-0.4,1-0.1c0.4,0.3,9.4,7.3,14.2,16.3
						c4,7.4,12.6,15.2,12.6,15.3c0.3,0.3,0.3,0.7,0.1,1C442.8,140.4,442.6,140.5,442.5,140.5z"/>
				</g>
			</g>
			<g id="XMLID_6408_">
				<g id="XMLID_6414_">
					<path id="XMLID_6416_" fill="#FFFFFF" d="M436.5,181.1c-0.3,0-0.6-0.2-0.7-0.6c-0.1-0.4,0.2-0.7,0.6-0.8c0,0,1.1-0.2,2.8-0.6
						c0,0,0,0,0,0c0,0,2-1.6,2.4-3.8c1.5-8.5,7.3-20.7,18.3-27c5.7-3.2,17-3.2,17.5-3.2c0.3,0,0.5,0.2,0.6,0.4
						c0.1,0.3,0,0.6-0.2,0.8c0,0-2.8,2.4-5.5,5.2c-1.1,1.2-2.9,3.8-4.8,6.7c-3.4,5.2-7.7,11.7-12,15.2c-6.7,5.6-18.6,7.5-19.1,7.6
						C436.6,181.1,436.6,181.1,436.5,181.1z M475.7,146.6c-3.5,0.1-11,0.7-15,3c-10.7,6.1-16.2,17.9-17.6,26.1
						c-0.2,1.2-0.8,2.2-1.3,2.9c4-1.1,9.4-3,13.1-6.1c4.1-3.4,8.3-9.8,11.7-14.9c2-3,3.8-5.7,5-6.9
						C473.1,149,474.6,147.5,475.7,146.6z"/>
					<path id="XMLID_6415_" fill="#FFFFFF" d="M440.5,180.3c-0.2,0-0.4-0.1-0.5-0.2c-0.2-0.3-0.2-0.7,0.1-1c0.1-0.1,9-7.5,13.2-14.8
						c5.1-8.7,14.4-15.5,14.7-15.7c0.3-0.2,0.7-0.1,1,0.2c0.2,0.3,0.1,0.7-0.2,1c-0.1,0.1-9.4,6.8-14.4,15.3
						c-4.4,7.5-13.1,14.9-13.5,15.2C440.8,180.3,440.7,180.3,440.5,180.3z"/>
				</g>
				<g id="XMLID_6409_">
					<path id="XMLID_6411_" fill="#FFFFFF" d="M436.5,181.1c-0.1,0-0.3,0-0.4-0.1c-0.4-0.3-9.9-7.6-13.2-15.7
						c-2-5.2-2.7-12.9-3.3-19.1c-0.3-3.6-0.6-6.7-1.1-8.2c-1.1-3.7-2.4-7.1-2.4-7.1c-0.1-0.3,0-0.6,0.2-0.8c0.2-0.2,0.5-0.2,0.8-0.1
						c0.4,0.2,10.5,5.6,13.9,11.1c6.7,10.8,6,24.3,3.3,32.5c-0.7,2.2,0.3,4.5,0.3,4.5c0,0,0,0,0,0c1.3,1.1,2.2,1.8,2.2,1.8
						c0.3,0.2,0.4,0.7,0.1,1C436.9,181,436.7,181.1,436.5,181.1z M418.1,132c0.5,1.4,1.2,3.4,1.8,5.5c0.5,1.7,0.8,4.8,1.1,8.5
						c0.6,6.1,1.2,13.7,3.2,18.7c1.8,4.4,5.6,8.7,8.6,11.6c-0.1-0.9-0.1-2.1,0.2-3.2c2.6-8,3.3-20.9-3.2-31.3
						C427.4,137.8,421.1,133.8,418.1,132z"/>
					<path id="XMLID_6410_" fill="#FFFFFF" d="M433.4,178.5c-0.3,0-0.5-0.2-0.6-0.4c-0.2-0.4-4.4-11.1-4.7-19.7
						c-0.3-9.8-5.3-20.2-5.4-20.3c-0.2-0.3,0-0.7,0.3-0.9c0.3-0.2,0.7,0,0.9,0.3c0.2,0.4,5.2,10.7,5.5,20.8
						c0.3,8.4,4.6,19.2,4.6,19.3c0.1,0.3,0,0.7-0.4,0.9C433.5,178.5,433.5,178.5,433.4,178.5z"/>
				</g>
			</g>
			<g id="XMLID_6397_">
				<g id="XMLID_6403_">
					<path id="XMLID_6405_" fill="#FFFFFF" d="M422.7,213.2c-4.3,0-7.7-0.5-7.9-0.5c-0.4-0.1-0.6-0.4-0.6-0.8
						c0.1-0.4,0.4-0.6,0.8-0.6c0,0,1.1,0.2,2.9,0.3c0,0,0,0,0,0c0,0,2.4-0.9,3.5-2.9c4.1-7.7,13.2-17.5,25.7-20.2
						c6.4-1.4,17.2,2.1,17.7,2.3c0.3,0.1,0.5,0.3,0.5,0.6c0,0.3-0.2,0.5-0.4,0.7c0,0-3.4,1.4-6.8,3.2c-1.5,0.8-3.9,2.7-6.7,5
						c-4.9,3.9-10.9,8.8-16,10.9C431.4,212.8,426.6,213.2,422.7,213.2z M420.4,211.8c4.2,0.2,9.9,0,14.3-1.9
						c4.9-2,10.9-6.8,15.7-10.7c2.8-2.3,5.3-4.3,6.9-5.1c2-1,3.9-1.9,5.2-2.5c-3.3-0.9-10.6-2.7-15.2-1.7
						c-12,2.6-20.8,12.1-24.7,19.5C422,210.4,421.2,211.2,420.4,211.8z"/>
					<path id="XMLID_6404_" fill="#FFFFFF" d="M418.9,213.1c-0.3,0-0.5-0.2-0.6-0.4c-0.1-0.3,0-0.7,0.4-0.9
						c0.1,0,10.8-4.4,17.1-10.1c7.5-6.8,18.4-10.4,18.8-10.5c0.4-0.1,0.7,0.1,0.9,0.4c0.1,0.4-0.1,0.7-0.4,0.9
						c-0.1,0-11.1,3.6-18.3,10.2c-6.4,5.8-17,10.2-17.5,10.3C419.1,213.1,419,213.1,418.9,213.1z"/>
				</g>
				<g id="XMLID_6398_">
					<path id="XMLID_6400_" fill="#FFFFFF" d="M414.9,212.7c-0.2,0-0.4-0.1-0.6-0.3c-0.3-0.4-7.2-10.3-7.8-19
						c-0.4-5.5,1.3-13.1,2.6-19.2c0.8-3.5,1.4-6.5,1.5-8.2c0.1-3.9-0.1-7.5-0.1-7.5c0-0.3,0.1-0.6,0.4-0.7c0.3-0.1,0.6-0.1,0.8,0.1
						c0.3,0.3,8.3,8.5,9.9,14.8c3.1,12.3-1.7,24.9-6.7,32c-1.3,1.9-1,4.4-1,4.4c0,0,0,0,0,0c0.9,1.5,1.5,2.4,1.6,2.4
						c0.2,0.3,0.1,0.7-0.2,0.9C415.1,212.6,415,212.7,414.9,212.7z M412,160.3c0.1,1.4,0.1,3.6,0,5.8c0,1.8-0.7,4.9-1.5,8.4
						c-1.3,6-3,13.5-2.6,18.8c0.3,4.8,2.7,10,4.7,13.7c0.2-0.9,0.5-2,1.2-3c4.9-6.8,9.5-18.9,6.5-30.8
						C419.2,168.6,414.3,162.9,412,160.3z"/>
					<path id="XMLID_6399_" fill="#FFFFFF" d="M412.7,209.2c-0.4,0-0.7-0.3-0.7-0.6c0-0.5-0.8-11.9,1.5-20.2c2.7-9.4,1.1-20.9,1-21
						c-0.1-0.4,0.2-0.7,0.6-0.8c0.4-0.1,0.7,0.2,0.8,0.6c0.1,0.5,1.7,11.8-1.1,21.5c-2.3,8.1-1.5,19.6-1.5,19.8
						C413.4,208.9,413.1,209.2,412.7,209.2C412.7,209.2,412.7,209.2,412.7,209.2z"/>
				</g>
			</g>
			<g id="XMLID_6386_">
				<g id="XMLID_6392_">
					<path id="XMLID_6394_" fill="#FFFFFF" d="M406.2,242.4c-7.2,0-14.4-2.3-14.7-2.4c-0.4-0.1-0.6-0.5-0.4-0.9
						c0.1-0.4,0.5-0.6,0.9-0.4c0,0,1.1,0.4,2.8,0.8c0,0,0,0,0,0c0,0,2.5-0.5,3.9-2.3c5.2-6.9,15.9-15.2,28.6-15.8
						c6.5-0.3,16.6,4.9,17.1,5.1c0.3,0.1,0.4,0.4,0.4,0.7c0,0.3-0.2,0.5-0.5,0.6c0,0-3.6,0.9-7.2,2.1c-1.6,0.5-4.2,2.1-7.4,3.8
						c-5.4,3.1-12.2,6.9-17.6,8.2C410.1,242.2,408.2,242.4,406.2,242.4z M397.2,240c4.1,0.8,9.8,1.6,14.4,0.5c5.2-1.2,11.9-5,17.2-8
						c3.2-1.8,5.9-3.4,7.6-3.9c2.1-0.7,4.1-1.3,5.5-1.7c-3.1-1.5-10.1-4.4-14.7-4.1c-12.3,0.6-22.5,8.6-27.6,15.3
						C399,238.9,398,239.5,397.2,240z"/>
					<path id="XMLID_6393_" fill="#FFFFFF" d="M395.6,241.1c-0.3,0-0.6-0.2-0.7-0.5c-0.1-0.4,0.1-0.7,0.5-0.8
						c0.1,0,11.4-2.6,18.5-7.2c8.5-5.5,19.8-7.3,20.3-7.3c0.4-0.1,0.7,0.2,0.8,0.6c0.1,0.4-0.2,0.7-0.6,0.8
						c-0.1,0-11.5,1.8-19.7,7.1c-7.3,4.7-18.4,7.3-18.9,7.4C395.7,241,395.7,241.1,395.6,241.1z"/>
				</g>
				<g id="XMLID_6387_">
					<path id="XMLID_6389_" fill="#FFFFFF" d="M391.7,240c-0.3,0-0.5-0.1-0.6-0.4c-0.2-0.5-5.4-11.3-4.6-20
						c0.5-5.5,3.4-12.7,5.7-18.5c1.3-3.3,2.5-6.2,2.8-7.8c0.7-3.8,1.1-7.4,1.1-7.5c0-0.3,0.2-0.5,0.5-0.6c0.3-0.1,0.6,0,0.7,0.3
						c0.3,0.4,6.8,9.7,7.4,16.2c1.1,12.7-5.6,24.3-11.8,30.5c-1.6,1.6-1.7,4.1-1.7,4.2c0,0,0,0,0,0c0.6,1.6,1.1,2.6,1.1,2.6
						c0.2,0.3,0,0.7-0.3,0.9C391.9,239.9,391.8,240,391.7,240z M397.2,187.8c-0.2,1.4-0.5,3.5-0.9,5.7c-0.3,1.7-1.5,4.7-2.9,8.1
						c-2.3,5.7-5.1,12.8-5.6,18.1c-0.4,4.8,1.1,10.3,2.4,14.2c0.3-0.9,0.8-1.9,1.7-2.8c5.9-5.9,12.4-17.2,11.4-29.4
						C402.9,197.1,399.1,190.7,397.2,187.8z"/>
					<path id="XMLID_6388_" fill="#FFFFFF" d="M390.1,236.2C390.1,236.2,390,236.2,390.1,236.2c-0.4,0-0.7-0.4-0.7-0.7
						c0-0.5,1.1-11.9,4.8-19.7c4.2-8.9,4.4-20.4,4.4-20.5c0-0.4,0.3-0.7,0.7-0.7c0,0,0,0,0,0c0.4,0,0.7,0.3,0.7,0.7
						c0,0.5-0.2,11.9-4.5,21.1c-3.6,7.6-4.6,19.2-4.6,19.3C390.7,235.9,390.4,236.2,390.1,236.2z"/>
				</g>
			</g>
		</g>
		<g id="XMLID_6379_">
			<g id="XMLID_6380_">
				<path id="XMLID_6382_" fill="#FFFFFF" d="M406.6,50.3c0,0-0.1,0-0.1,0c-0.3-0.1-0.5-0.3-0.5-0.5c0-0.1,0-0.1-0.1-0.2
					c0,0-0.5-2.5-2.4-3.8c-7-5.1-15.5-15.5-16.4-28.2c-0.5-6.5,4.5-16.7,4.7-17.2c0.1-0.3,0.4-0.4,0.7-0.4c0.3,0,0.5,0.2,0.6,0.5
					c0,0,0.9,3.5,2.3,7.2c0.6,1.5,2.1,4.2,4,7.3c3.2,5.4,7.2,12,8.6,17.4c1.5,5.9,0.3,13.4-0.6,17.4
					C407.2,50.1,406.9,50.3,406.6,50.3z M392.2,2.7c-1.4,3.2-4.1,10.2-3.8,14.8c0.9,12.2,9.1,22.3,15.9,27.2c1,0.7,1.6,1.6,2.1,2.5
					c0.7-4,1.3-9.8,0.1-14.4c-1.3-5.2-5.3-11.7-8.4-17c-1.9-3.1-3.5-5.8-4.1-7.5C393.3,6.1,392.7,4.1,392.2,2.7z"/>
				<path id="XMLID_6381_" fill="#FFFFFF" d="M406.8,49.4c-0.3,0-0.6-0.2-0.7-0.5c0-0.1-2.9-11.3-7.6-18.3
					c-5.7-8.4-7.7-19.6-7.8-20.1c-0.1-0.4,0.2-0.7,0.6-0.8c0.4-0.1,0.7,0.2,0.8,0.6c0,0.1,2.1,11.5,7.6,19.6
					c4.9,7.2,7.7,18.3,7.8,18.7c0.1,0.4-0.1,0.7-0.5,0.8C406.9,49.3,406.9,49.4,406.8,49.4z"/>
			</g>
		</g>
	</g>
</g>
</svg>
