<?xml version="1.0" encoding="utf-8"?>
<!-- Generator: Adobe Illustrator 19.0.0, SVG Export Plug-In . SVG Version: 6.00 Build 0)  -->
<svg version="1.1" id="Слой_1" xmlns="http://www.w3.org/2000/svg" xmlns:xlink="http://www.w3.org/1999/xlink" x="0px" y="0px"
	 viewBox="-119 121 16 16" style="enable-background:new -119 121 16 16;" xml:space="preserve">
<style type="text/css">
	.st0{fill:#65B6DC;}
</style>
<g id="XMLID_1338_">
	<g id="XMLID_53_">
		<g id="XMLID_56_">
			<path id="XMLID_57_" class="st0" d="M-111,137c-4.4,0-8-3.6-8-8c0-4.4,3.6-8,8-8s8,3.6,8,8C-103,133.4-106.6,137-111,137z
				 M-111,123c-3.3,0-6,2.7-6,6s2.7,6,6,6s6-2.7,6-6S-107.7,123-111,123z"/>
		</g>
		<g id="XMLID_54_">
			<path id="XMLID_55_" class="st0" d="M-107.9,130h-3.1c-0.6,0-1-0.5-1-1v-3c0-0.6,0.4-1,1-1s1,0.4,1,1v2h2.1c0.6,0,1,0.4,1,1
				C-106.9,129.5-107.4,130-107.9,130z"/>
		</g>
	</g>
</g>
</svg>
