<?xml version="1.0" encoding="utf-8"?>
<!-- Generator: Adobe Illustrator 19.0.0, SVG Export Plug-In . SVG Version: 6.00 Build 0)  -->
<svg version="1.1" id="Слой_1" xmlns="http://www.w3.org/2000/svg" xmlns:xlink="http://www.w3.org/1999/xlink" x="0px" y="0px"
	 viewBox="-119 121 16 16" style="enable-background:new -119 121 16 16;" xml:space="preserve">
<style type="text/css">
	.st0{fill:#65B6DC;}
</style>
<g id="XMLID_5704_">
	<g id="XMLID_32_">
		<path id="XMLID_33_" class="st0" d="M-107.7,137c-1.9,0-5-2.3-7-4.3c-0.6-0.6-6-6.1-3.8-8.3l2.8-3c0.1-0.3,0.4-0.4,0.7-0.4
			s0.5,0.1,0.7,0.3l3,3.1c0.3,0.3,0.4,0.7,0.2,1.1l-0.9,1.9c0.1,0.3,0.4,0.8,1.1,1.5c0.7,0.7,1.2,1,1.5,1.1l1.9-0.9
			c0.4-0.2,0.8-0.1,1.1,0.2l3.1,3c0.2,0.2,0.3,0.5,0.3,0.7c0,0.3-0.1,0.5-0.3,0.7l-3.1,2.8C-106.6,136.7-107,137-107.7,137z
			 M-117,125.7c0,0.6,1.1,2.9,3.8,5.6c2.6,2.6,4.8,3.7,5.6,3.7l0,0l2.2-2l-1.8-1.8l-1.2,0.6c-0.2,0.1-0.5,0.2-0.8,0.2
			c-1.2,0-2.6-1.3-3-1.7c-0.5-0.4-1.8-1.8-1.8-3c0-0.4,0.1-0.6,0.2-0.8l0.6-1.2l-1.8-1.8L-117,125.7z"/>
	</g>
</g>
</svg>
