<?xml version="1.0" encoding="utf-8"?>
<!-- Generator: Adobe Illustrator 19.0.0, SVG Export Plug-In . SVG Version: 6.00 Build 0)  -->
<svg version="1.1" id="Слой_1" xmlns="http://www.w3.org/2000/svg" xmlns:xlink="http://www.w3.org/1999/xlink" x="0px" y="0px"
	 viewBox="116 -116 296 296" style="enable-background:new 116 -116 296 296;" xml:space="preserve">
<style type="text/css">
	.st0{opacity:0.1;fill:none;stroke:#FFFFFF;stroke-miterlimit:10;enable-background:new    ;}
	.st1{opacity:0.5;fill:#4649EC;enable-background:new    ;}
	.st2{fill:#4649EC;}
	.st3{opacity:0.25;fill:#4649EC;enable-background:new    ;}
	.st4{opacity:0.75;fill:#4649EC;enable-background:new    ;}
</style>
<path id="White_stroke_1_" class="st0" d="M264-32c-35.3,0-64,28.7-64,64s28.7,64,64,64s64-28.7,64-64S299.3-32,264-32L264-32z"/>
<g id="Sun_1_">
	<path id="XMLID_133_" class="st1" d="M242.6,12c-0.3,0-0.7-0.1-0.9-0.4l-44-43.9c-0.5-0.5-0.5-1.3,0-1.8s1.3-0.5,1.8,0l44,43.9
		c0.5,0.5,0.5,1.3,0,1.8C243.2,11.9,242.9,12,242.6,12z"/>
	<path id="XMLID_132_" class="st2" d="M224.6,1.5c-0.3,0-0.6-0.1-0.9-0.3l-51.8-46.8c-0.5-0.5-0.6-1.3-0.1-1.8s1.3-0.6,1.8-0.1
		l51.8,46.8c0.5,0.5,0.6,1.3,0.1,1.8C225.3,1.3,224.9,1.5,224.6,1.5z"/>
	<path id="XMLID_131_" class="st2" d="M237.4,19.3c-0.2,0-0.5-0.1-0.7-0.2l-45-27c-0.6-0.4-0.8-1.2-0.4-1.8c0.4-0.6,1.2-0.8,1.8-0.4
		l45,27c0.6,0.4,0.8,1.2,0.4,1.8C238.3,19.1,237.9,19.3,237.4,19.3z"/>
	<path id="XMLID_130_" class="st2" d="M217.2,17.3c-0.2,0-0.4,0-0.5-0.1l-63.5-29.6c-0.6-0.3-0.9-1.1-0.6-1.7s1.1-0.9,1.7-0.6
		l63.5,29.6c0.6,0.3,0.9,1.1,0.6,1.7C218.2,17,217.7,17.3,217.2,17.3z"/>
	<path id="XMLID_129_" class="st3" d="M237.7,28.6c-0.1,0-0.2,0-0.3,0l-49.3-12.2c-0.7-0.2-1.1-0.9-0.9-1.6c0.2-0.7,0.9-1.1,1.6-0.9
		L238,26.1c0.7,0.2,1.1,0.9,0.9,1.6C238.8,28.2,238.3,28.6,237.7,28.6z"/>
	<path id="XMLID_128_" class="st2" d="M227.9,33.9c-0.1,0-0.1,0-0.2,0l-90.5-11.6c-0.7-0.1-1.2-0.7-1.1-1.4c0.1-0.7,0.7-1.2,1.4-1.1
		L228,31.4c0.7,0.1,1.2,0.7,1.1,1.4C229.1,33.4,228.5,33.9,227.9,33.9z"/>
	<path id="XMLID_127_" class="st4" d="M162.2,44.4c-0.7,0-1.2-0.5-1.3-1.2c0-0.7,0.5-1.3,1.2-1.4l73-5.1c0.7-0.1,1.3,0.5,1.4,1.2
		c0,0.7-0.5,1.3-1.2,1.4L162.2,44.4C162.3,44.4,162.2,44.4,162.2,44.4z"/>
	<path id="XMLID_126_" class="st1" d="M172.4,57.2c-0.6,0-1.1-0.4-1.2-1c-0.2-0.7,0.3-1.4,0.9-1.5l48.1-11.6
		c0.7-0.2,1.4,0.3,1.6,0.9c0.2,0.7-0.3,1.4-0.9,1.5l-48.1,11.6C172.6,57.2,172.5,57.2,172.4,57.2z"/>
	<path id="XMLID_125_" class="st4" d="M167.3,82.9c-0.5,0-0.9-0.3-1.1-0.7c-0.3-0.6-0.1-1.4,0.6-1.7l60-30.2
		c0.6-0.3,1.4-0.1,1.7,0.6c0.3,0.6,0.1,1.4-0.6,1.7l-60,30.2C167.7,82.9,167.5,82.9,167.3,82.9z"/>
	<path id="XMLID_124_" class="st2" d="M152.9,107.1c-0.4,0-0.8-0.2-1.1-0.6c-0.4-0.6-0.2-1.4,0.4-1.8L226.3,56
		c0.6-0.4,1.4-0.2,1.8,0.4c0.4,0.6,0.2,1.4-0.4,1.8l-74.1,48.7C153.4,107,153.2,107.1,152.9,107.1z"/>
	<path id="XMLID_123_" class="st1" d="M192,102.7c-0.3,0-0.7-0.1-0.9-0.4c-0.5-0.5-0.5-1.3,0-1.8l35.6-34.4c0.5-0.5,1.3-0.5,1.8,0
		s0.5,1.3,0,1.8l-35.6,34.4C192.7,102.6,192.4,102.7,192,102.7z"/>
	<path id="XMLID_122_" class="st3" d="M214,99c-0.3,0-0.5-0.1-0.8-0.3c-0.6-0.4-0.7-1.2-0.3-1.8l24.3-32.6c0.4-0.6,1.2-0.7,1.8-0.3
		c0.6,0.4,0.7,1.2,0.3,1.8L215,98.4C214.8,98.8,214.4,99,214,99z"/>
	<path id="XMLID_121_" class="st4" d="M206,137.7c-0.2,0-0.4-0.1-0.6-0.2c-0.6-0.3-0.9-1.1-0.5-1.7l40-73c0.3-0.6,1.1-0.9,1.7-0.5
		c0.6,0.3,0.9,1.1,0.5,1.7l-40,73C206.9,137.4,206.5,137.7,206,137.7z"/>
	<path id="XMLID_120_" class="st1" d="M225.3,128.3c-0.2,0-0.3,0-0.5-0.1c-0.7-0.3-1-1-0.7-1.7l22-50.8c0.3-0.7,1-1,1.7-0.7
		s1,1,0.7,1.7l-22,50.8C226.3,128,225.8,128.3,225.3,128.3z"/>
	<path id="XMLID_119_" class="st4" d="M235.7,144.9c-0.1,0-0.2,0-0.3,0c-0.7-0.2-1.1-0.9-0.9-1.6l19.9-79.8c0.2-0.7,0.9-1.1,1.6-0.9
		c0.7,0.2,1.1,0.9,0.9,1.6L237,144C236.9,144.5,236.3,144.9,235.7,144.9z"/>
	<path id="XMLID_118_" class="st3" d="M260.4,114L260.4,114c-0.7,0-1.3-0.6-1.3-1.3l1-33.5c0-0.7,0.6-1.2,1.3-1.2l0,0
		c0.7,0,1.3,0.6,1.2,1.3l-1,33.5C261.7,113.5,261.1,114,260.4,114z"/>
	<path id="XMLID_117_" class="st4" d="M275.9,148.5c-0.6,0-1.2-0.5-1.3-1.1l-11.5-89.7c-0.1-0.7,0.4-1.3,1.1-1.4
		c0.7-0.1,1.3,0.4,1.4,1.1l11.5,89.6c0.1,0.7-0.4,1.3-1.1,1.4C276,148.5,275.9,148.5,275.9,148.5z"/>
	<path id="XMLID_116_" class="st1" d="M295.8,132c-0.5,0-1-0.3-1.2-0.9l-20.5-62.3c-0.2-0.7,0.1-1.4,0.8-1.6
		c0.7-0.2,1.4,0.1,1.6,0.8l20.4,62.3c0.2,0.7-0.1,1.4-0.8,1.6C296.1,132,295.9,132,295.8,132z"/>
	<path id="XMLID_115_" class="st2" d="M312,112.2c-0.4,0-0.8-0.2-1.1-0.6l-33.7-51.3c-0.4-0.6-0.2-1.4,0.4-1.8
		c0.6-0.4,1.4-0.2,1.8,0.4l33.7,51.3c0.4,0.6,0.2,1.4-0.4,1.8C312.5,112.2,312.2,112.2,312,112.2z"/>
	<path id="XMLID_114_" class="st2" d="M353.1,130.6c-0.3,0-0.7-0.1-0.9-0.4l-56.3-56.4c-0.5-0.5-0.5-1.3,0-1.8s1.3-0.5,1.8,0
		l56.3,56.4c0.5,0.5,0.5,1.3,0,1.8C353.8,130.5,353.5,130.6,353.1,130.6z"/>
	<path id="XMLID_103_" class="st1" d="M338.5,99c-0.3,0-0.7-0.1-0.9-0.4c-0.7-0.6-32.8-29-49.7-43.9c-0.5-0.5-0.6-1.3-0.1-1.8
		s1.3-0.6,1.8-0.1c8.2,7.3,49.4,43.6,49.8,44c0.5,0.5,0.5,1.3,0,1.8C339.1,98.9,338.8,99,338.5,99z"/>
	<path id="XMLID_102_" class="st4" d="M359.2,94.4c-0.2,0-0.5-0.1-0.7-0.2l-77-48.8c-0.6-0.4-0.8-1.2-0.4-1.8s1.2-0.8,1.8-0.4
		l77,48.8c0.6,0.4,0.8,1.2,0.4,1.8C360,94.2,359.6,94.4,359.2,94.4z"/>
	<path id="XMLID_101_" class="st3" d="M331.2,59.6c-0.1,0-0.3,0-0.4-0.1l-24.2-8.4c-0.7-0.2-1-1-0.8-1.6c0.2-0.7,1-1,1.6-0.8
		l24.2,8.4c0.7,0.2,1,1,0.8,1.6C332.2,59.2,331.7,59.6,331.2,59.6z"/>
	<path id="XMLID_99_" class="st2" d="M379.4,54.7c-0.1,0-0.1,0-0.2,0L294,40.8c-0.7-0.1-1.2-0.8-1.1-1.5c0.1-0.7,0.8-1.2,1.5-1.1
		l85.2,13.9c0.7,0.1,1.2,0.8,1.1,1.5C380.5,54.2,380,54.7,379.4,54.7z"/>
	<path id="XMLID_98_" class="st1" d="M352.8,41.7h-0.1l-45.8-4.9c-0.7-0.1-1.2-0.7-1.1-1.4s0.7-1.2,1.4-1.1l45.8,4.9
		c0.7,0.1,1.2,0.7,1.1,1.4C354,41.2,353.4,41.7,352.8,41.7z"/>
	<path id="XMLID_96_" class="st2" d="M292.8,32.2c-0.7,0-1.3-0.5-1.3-1.2s0.5-1.3,1.2-1.3l98-4.5c0.7,0,1.3,0.5,1.3,1.2
		s-0.5,1.3-1.2,1.3L292.8,32.2C292.9,32.2,292.9,32.2,292.8,32.2z"/>
	<path id="XMLID_94_" class="st3" d="M288.1,27.4c-0.6,0-1.1-0.4-1.2-0.9c-0.2-0.7,0.2-1.4,0.9-1.6l47.7-14.5
		c0.7-0.2,1.4,0.2,1.6,0.9c0.2,0.7-0.2,1.4-0.9,1.6l-47.7,14.5C288.3,27.4,288.2,27.4,288.1,27.4z"/>
	<path id="XMLID_93_" class="st2" d="M314.6,5.2c-0.4,0-0.8-0.2-1.1-0.6c-0.4-0.6-0.2-1.4,0.3-1.8L374.1-38c0.6-0.4,1.4-0.2,1.8,0.3
		c0.4,0.6,0.2,1.4-0.3,1.8L315.3,5C315.1,5.1,314.8,5.2,314.6,5.2z"/>
	<path id="XMLID_91_" class="st3" d="M299.7,5.1c-0.3,0-0.7-0.1-0.9-0.4c-0.5-0.5-0.5-1.3,0-1.8L321.6-20c0.5-0.5,1.3-0.5,1.8,0
		s0.5,1.3,0,1.8L300.5,4.7C300.3,5,300,5.1,299.7,5.1z"/>
	<path id="XMLID_90_" class="st4" d="M294.1,3.5c-0.3,0-0.6-0.1-0.8-0.3c-0.5-0.5-0.6-1.3-0.1-1.8l51.3-60.1
		c0.5-0.5,1.3-0.6,1.8-0.1s0.6,1.3,0.1,1.8L295.1,3.1C294.8,3.4,294.5,3.5,294.1,3.5z"/>
	<path id="XMLID_55_" class="st1" d="M287.8,2.6c-0.3,0-0.5-0.1-0.8-0.2c-0.6-0.4-0.7-1.2-0.3-1.8L316.9-41c0.4-0.6,1.2-0.7,1.8-0.3
		c0.6,0.4,0.7,1.2,0.3,1.8L288.9,2.1C288.6,2.5,288.2,2.6,287.8,2.6z"/>
	<path id="XMLID_54_" class="st4" d="M239-0.4c-0.4,0-0.7-0.1-1-0.4L197.5-47c-0.5-0.5-0.4-1.3,0.1-1.8s1.3-0.4,1.8,0.1l40.5,46.1
		c0.5,0.5,0.4,1.3-0.1,1.8C239.6-0.5,239.3-0.4,239-0.4z"/>
	<path id="XMLID_44_" class="st2" d="M253.4,8.3c-0.5,0-0.9-0.2-1.1-0.7l-36.7-65.4c-0.3-0.6-0.1-1.4,0.5-1.7
		c0.6-0.3,1.4-0.1,1.8,0.5l36.6,65.4c0.3,0.6,0.1,1.4-0.5,1.7C253.8,8.2,253.6,8.3,253.4,8.3z"/>
	<path id="XMLID_43_" class="st1" d="M251-8.4c-0.5,0-1-0.3-1.2-0.8l-16.5-38c-0.3-0.7,0-1.4,0.7-1.7c0.7-0.3,1.4,0,1.7,0.7l16.5,38
		c0.3,0.7,0,1.4-0.7,1.7C251.4-8.4,251.2-8.4,251-8.4z"/>
	<path id="XMLID_42_" class="st4" d="M260.7,7.3c-0.6,0-1.1-0.4-1.3-1l-19.2-82.1c-0.2-0.7,0.3-1.4,1-1.5c0.7-0.2,1.4,0.3,1.5,1
		l19.2,82.1c0.2,0.7-0.3,1.4-1,1.5C260.9,7.3,260.8,7.3,260.7,7.3z"/>
	<path id="XMLID_40_" class="st3" d="M266-4.2c-0.7,0-1.3-0.6-1.3-1.3l-0.1-32c0-0.7,0.6-1.3,1.3-1.3l0,0c0.7,0,1.3,0.6,1.3,1.3
		l0.1,32C267.3-4.8,266.7-4.2,266-4.2L266-4.2z"/>
	<path id="XMLID_38_" class="st2" d="M271.5,1.4h-0.1c-0.7-0.1-1.2-0.7-1.1-1.4l9.6-83.3c0.1-0.7,0.7-1.2,1.4-1.1
		c0.7,0.1,1.2,0.7,1.1,1.4l-9.6,83.3C272.7,0.9,272.1,1.4,271.5,1.4z"/>
	<path id="XMLID_36_" class="st1" d="M281-6.5c-0.1,0-0.3,0-0.4-0.1c-0.7-0.2-1-1-0.8-1.7l17.9-48.2c0.2-0.7,1-1,1.7-0.8
		c0.7,0.2,1,1,0.8,1.7L282.3-7.4C282-6.8,281.5-6.5,281-6.5z"/>
	<path id="XMLID_35_" class="st2" d="M287.6-6c-0.2,0-0.4-0.1-0.6-0.2c-0.6-0.4-0.8-1.1-0.5-1.8l40-68.6c0.4-0.6,1.1-0.8,1.8-0.5
		c0.6,0.4,0.8,1.1,0.5,1.8l-40,68.6C288.4-6.2,288-6,287.6-6z"/>
</g>
<path id="Color_stroke_1_" class="st2" d="M264-14c25.4,0,46,20.6,46,46s-20.6,46-46,46s-46-20.6-46-46S238.6-14,264-14 M264-16
	c-26.5,0-48,21.5-48,48s21.5,48,48,48s48-21.5,48-48S290.5-16,264-16L264-16z"/>
</svg>
