<svg id="Слой_1" data-name="Слой 1" xmlns="http://www.w3.org/2000/svg" width="88.5" height="88.5" viewBox="0 0 88.5 88.5"><defs><style>.cls-1{opacity:0.1;}.cls-2{fill:#282c34;}</style></defs><title>corner</title><g class="cls-1"><path class="cls-2" d="M23.58,31H19a7.07,7.07,0,1,1,0-14.14H88.5v1H19A6.07,6.07,0,1,0,19,30h4.61v1Z"/><rect class="cls-2" x="23.39" y="23.42" width="49.61" height="1"/><path class="cls-2" d="M8.77,44.42a8.36,8.36,0,0,1-5.13-1.94A11.3,11.3,0,0,1,.13,36.07a12.35,12.35,0,0,1,2.72-9.8A7.93,7.93,0,0,1,9,23.42h3.4a0.5,0.5,0,0,1,0,1H9a6.87,6.87,0,0,0-5.39,2.51,11.34,11.34,0,0,0-2.48,9A10.29,10.29,0,0,0,4.25,41.7c2.87,2.26,6.07,2.32,8.36.17a3.79,3.79,0,0,0,1.11-2.71,4.1,4.1,0,0,0-1.13-3,2.92,2.92,0,0,0-4.13,0,2.24,2.24,0,0,0,0,3.16,1.69,1.69,0,0,0,2.39,0,0.5,0.5,0,0,1,.71.71,2.69,2.69,0,0,1-3.8,0,3.24,3.24,0,0,1,0-4.58,3.92,3.92,0,0,1,5.54,0,5.11,5.11,0,0,1,1.42,3.69,4.79,4.79,0,0,1-1.42,3.42A6.53,6.53,0,0,1,8.77,44.42Z"/><path class="cls-2" d="M8.21,58.85a6.06,6.06,0,0,1-5.44-3.41,4.93,4.93,0,0,1,2.29-6.59,4.06,4.06,0,0,1,5.41,1.88,3.34,3.34,0,0,1-1.55,4.46,2.77,2.77,0,0,1-3.7-1.29,0.5,0.5,0,1,1,.9-0.44,1.78,1.78,0,0,0,2.37.82,2.34,2.34,0,0,0,1.08-3.13,3.05,3.05,0,0,0-4.07-1.41A3.94,3.94,0,0,0,3.67,55a5,5,0,0,0,6.74,2.34,6.43,6.43,0,0,0,3-8.59c-1.07-2.2-3.73-3.35-5.87-4.27l-0.85-.37a0.5,0.5,0,0,1,.41-0.91l0.84,0.37c2.17,0.94,5.15,2.22,6.38,4.75a7.43,7.43,0,0,1-3.44,9.93A6,6,0,0,1,8.21,58.85Z"/><path class="cls-2" d="M17.85,88.5h-1V19A7.07,7.07,0,0,1,31,19v4.61H30V19a6.07,6.07,0,0,0-12.14,0V88.5Z"/><rect class="cls-2" x="23.42" y="23.89" width="1" height="48.61"/><path class="cls-2" d="M39.08,14.72a5.1,5.1,0,0,1-3.6-1.42,3.92,3.92,0,0,1,0-5.54,3.31,3.31,0,0,1,4.57,0,2.69,2.69,0,0,1,0,3.8,0.5,0.5,0,0,1-.71-0.71,1.69,1.69,0,0,0,0-2.39,2.29,2.29,0,0,0-3.16,0,2.92,2.92,0,0,0,0,4.13,4.1,4.1,0,0,0,3,1.13,3.79,3.79,0,0,0,2.71-1.11C44,10.32,44,7.12,41.7,4.25a10.28,10.28,0,0,0-5.76-3.14,11.34,11.34,0,0,0-9,2.48A7,7,0,0,0,24.42,9v3.42a0.5,0.5,0,1,1-1,0V9a8,8,0,0,1,2.85-6.13A12.35,12.35,0,0,1,36.07.13a11.31,11.31,0,0,1,6.41,3.51c2.54,3.23,2.59,7,.11,9.67a4.79,4.79,0,0,1-3.42,1.42H39.08Z"/><path class="cls-2" d="M51.55,15a7.4,7.4,0,0,1-3.24-.75c-2.54-1.23-3.82-4.21-4.75-6.38l-0.37-.84a0.5,0.5,0,1,1,.91-0.41l0.37,0.85c0.92,2.14,2.07,4.8,4.27,5.87a6.43,6.43,0,0,0,8.59-3A5,5,0,0,0,55,3.67a3.93,3.93,0,0,0-5.26,1.82,3.05,3.05,0,0,0,1.41,4.07,2.34,2.34,0,0,0,3.13-1.08,1.77,1.77,0,0,0-.82-2.37,0.5,0.5,0,0,1,.44-0.9,2.77,2.77,0,0,1,1.28,3.7,3.34,3.34,0,0,1-4.46,1.55,4.05,4.05,0,0,1-1.87-5.41,4.93,4.93,0,0,1,6.6-2.29,6,6,0,0,1,2.8,8.08A7.39,7.39,0,0,1,54,14.62,7.46,7.46,0,0,1,51.55,15Z"/><path class="cls-2" d="M28.84,41.09a4.55,4.55,0,0,1-3.22-1.27,3.52,3.52,0,0,1,0-5,2.91,2.91,0,0,1,4.12,0,2.43,2.43,0,0,1,0,3.43A0.5,0.5,0,0,1,29,37.57a1.43,1.43,0,0,0,0-2,1.91,1.91,0,0,0-2.7,0,2.52,2.52,0,0,0,0,3.55,3.55,3.55,0,0,0,2.57,1,3.28,3.28,0,0,0,2.35-1c1.88-2,1.82-4.79-.15-7.29a0.5,0.5,0,0,1,.79-0.62c2.26,2.87,2.3,6.25.09,8.6a4.28,4.28,0,0,1-3.06,1.27H28.84Z"/><path class="cls-2" d="M35.74,33.64a7.42,7.42,0,0,1-4.56-1.72,0.5,0.5,0,1,1,.62-0.79c2.5,2,5.3,2,7.29.15a3.28,3.28,0,0,0,1-2.35,3.56,3.56,0,0,0-1-2.57,2.52,2.52,0,0,0-3.55,0,1.91,1.91,0,0,0,0,2.7,1.43,1.43,0,0,0,2,0,0.5,0.5,0,0,1,.71.71,2.43,2.43,0,0,1-3.43,0,2.91,2.91,0,0,1,0-4.12,3.52,3.52,0,0,1,5,0,4.56,4.56,0,0,1,1.27,3.3A4.28,4.28,0,0,1,39.78,32,5.81,5.81,0,0,1,35.74,33.64Z"/><path class="cls-2" d="M31.49,32a0.5,0.5,0,0,1-.35-0.15l-7.6-7.6a0.5,0.5,0,0,1,.71-0.71l7.6,7.6A0.5,0.5,0,0,1,31.49,32Z"/><path class="cls-2" d="M13.49,20.82A0.5,0.5,0,0,1,13,20.5L8.77,9.42a0.5,0.5,0,0,1,.64-0.65L20.56,13a0.5,0.5,0,1,1-.35.94L10.1,10.1l3.85,10A0.5,0.5,0,0,1,13.49,20.82Z"/></g></svg>