<?xml version="1.0" encoding="utf-8"?>
<!-- Generator: Adobe Illustrator 19.0.0, SVG Export Plug-In . SVG Version: 6.00 Build 0)  -->
<svg version="1.1" id="Слой_1" xmlns="http://www.w3.org/2000/svg" xmlns:xlink="http://www.w3.org/1999/xlink" x="0px" y="0px"
	 viewBox="-40 19 175 220" style="enable-background:new -40 19 175 220;" xml:space="preserve">
<style type="text/css">
	.st0{display:none;}
	.st1{display:inline;}
	.st2{fill:#5F4D9B;}
</style>
<g id="Слой_1_1_" class="st0">
	<g id="XMLID_2908_" class="st1">
		<g id="XMLID_4088_">
			<g id="XMLID_4120_">
				<g id="XMLID_4131_">
					<path id="XMLID_4156_" class="st2" d="M-11,168.3c0,0.4-0.3,0.7-0.7,0.7h-27.6c-0.4,0-0.7-0.3-0.7-0.7v-4.7
						c0-0.4,0.3-0.7,0.7-0.7h27.7c0.4,0,0.7,0.3,0.7,0.7v4.7H-11z M-39,168h26v-3h-26V168z"/>
					<path id="XMLID_4153_" class="st2" d="M-14.5,164.1c-0.2,0-0.5-0.1-0.5-0.3v-1c0-1.8-1.6-2.8-3.6-2.8h-14.8
						c-1.9,0-3.6,1-3.6,2.8v1c0,0.2-0.3,0.3-0.5,0.3s-0.5-0.1-0.5-0.3v-1c0-2.1,2.3-3.8,4.6-3.8h14.8c2.3,0,4.6,1.7,4.6,3.8v1
						C-14,164-14.3,164.1-14.5,164.1z"/>
					<g id="XMLID_4148_">
						<path id="XMLID_4152_" class="st2" d="M-18.6,74h-14.8c-2.3,0-4.6-1.3-4.6-3.5v-1c0-0.2,0.3-0.3,0.5-0.3s0.5,0.2,0.5,0.3v1
							c0,1.9,1.7,3.5,3.6,3.5H-18.6c1.9,0,3.6-1.6,3.6-3.5v-1c0-0.2,0.3-0.3,0.5-0.3s0.5,0.1,0.5,0.3v1C-14,72.7-16.3,74-18.6,74z"
							/>
						<path id="XMLID_4149_" class="st2" d="M-11,69.3c0,0.4-0.3,0.7-0.7,0.7h-27.6c-0.4,0-0.7-0.3-0.7-0.7v-4.7
							c0-0.3,0.3-0.6,0.7-0.6h27.7c0.4,0,0.7,0.3,0.7,0.7v4.6H-11z M-39,69h26v-4h-26V69z"/>
					</g>
					<path id="XMLID_4145_" class="st2" d="M-18.3,82h-15.5c-1.3,0-2.3-1.2-2.3-2.5s1-2.5,2.3-2.5h15.5c1.3,0,2.3,1.2,2.3,2.5
						S-17,82-18.3,82z M-33.8,78c-0.9,0-1.7,0.6-1.7,1.5s0.8,1.5,1.7,1.5h15.5c0.9,0,1.7-0.6,1.7-1.5s-0.8-1.5-1.7-1.5H-33.8z"/>
					<path id="XMLID_4144_" class="st2" d="M-17.8,77.8c-0.2,0-0.3-0.1-0.3-0.3v-3.3c0-0.2,0.1-0.3,0.3-0.3l0,0
						c0.2,0,0.3,0.1,0.3,0.3v3.3C-17.5,77.6-17.6,77.8-17.8,77.8L-17.8,77.8z"/>
					<path id="XMLID_4143_" class="st2" d="M-34.5,77.8c-0.2,0-0.5-0.1-0.5-0.3v-3.3c0-0.2,0.3-0.3,0.5-0.3S-34,74-34,74.2v3.3
						C-34,77.6-34.3,77.8-34.5,77.8z"/>
					<path id="XMLID_4140_" class="st2" d="M-18,84.7c0,0.2-0.1,0.3-0.3,0.3h-16.4c-0.2,0-0.3-0.1-0.3-0.3v-3.4
						c0-0.2,0.1-0.3,0.3-0.3h16.4c0.2,0,0.3,0.1,0.3,0.3V84.7z M-34,85h16v-3h-16V85z"/>
					
						<rect id="XMLID_4139_" x="-33.8" y="85.2" transform="matrix(-0.9996 -2.951279e-02 2.951279e-02 -0.9996 -69.9 243.7773)" class="st2" width="1.3" height="74.4"/>
					
						<rect id="XMLID_4138_" x="-55.8" y="121.7" transform="matrix(-2.418742e-02 -0.9997 0.9997 -2.418742e-02 -141.3642 106.7336)" class="st2" width="74.4" height="1.3"/>
					<g id="XMLID_4133_">
						<path id="XMLID_4137_" class="st2" d="M-30,156L-30,156c-0.2,0-0.3-0.1-0.3-0.3l1.3-67.5c0-0.2,0.1-0.3,0.3-0.3
							c0.2,0,0.3,0.1,0.3,0.3l-1.3,67.5C-29.7,155.9-29.8,156-30,156z"/>
						<path id="XMLID_4134_" class="st2" d="M-22,156c-0.2,0-0.3-0.1-0.3-0.3l-1.3-67.5c0-0.2,0.1-0.3,0.3-0.3
							c0.2,0,0.3,0.1,0.3,0.3l1.3,67.5C-21.7,155.9-21.8,156-22,156L-22,156z"/>
					</g>
					<path id="XMLID_4132_" class="st2" d="M-26,156c0,0,0-0.1,0-0.3V88.2c0-0.2,0-0.3,0-0.3s0,0.1,0,0.3v67.5
						C-26,155.9-26,156-26,156z"/>
				</g>
				<g id="XMLID_4121_">
					<g id="XMLID_4125_">
						<path id="XMLID_4130_" class="st2" d="M-24.7,61.4c-0.3,0-0.7,0-1.1-0.1c-4.1-0.5-7.1-4-7.1-8.1c0-4.5,2.9-7.8,7.1-8
							c1,0,3.9-0.2,6.2,1.7c0.1,0.1,0.2,0.3,0.1,0.4c-0.1,0.1-0.3,0.2-0.4,0.1c-2.2-1.7-4.9-1.6-5.8-1.6c-3.9,0.2-6.6,3.2-6.6,7.4
							c0,3.9,2.8,7.1,6.6,7.5c2.1,0.2,4-0.3,5.8-1.7c0.1-0.1,0.3-0.1,0.4,0.1c0.1,0.1,0.1,0.3-0.1,0.4
							C-21.2,60.8-22.9,61.4-24.7,61.4z"/>
						<g id="XMLID_4126_">
							<path id="XMLID_4127_" class="st2" d="M-26,62.3c-5,0-9-4-9-9s4-9,9-9c2.4,0,4.7,1,6.5,2.7c0.1,0.1,0.1-0.1,0.1,0
								c0,0.2-0.1,0-0.3,0l0,0c-0.1,0-0.1,0.2-0.2,0.2c-1.1-0.7-2.3-0.9-3.6-0.9c-3.8,0-6.9,3.1-6.9,6.9s3.1,6.9,6.9,6.9
								c1.3,0,2.5-0.3,3.6-1c0.1-0.1,0.3,0,0.4,0.1s0.1,0.3,0,0.4C-21.2,61.3-23.5,62.3-26,62.3z M-26,44.8c-4.7,0-8.4,3.8-8.4,8.4
								c0,4.7,3.8,8.4,8.4,8.4c1.6,0,3.1-0.4,4.5-1.3c-0.6,0.2-1.3,0.3-1.9,0.3c-4.1,0-7.4-3.3-7.4-7.4s3.3-7.4,7.4-7.4
								c0.7,0,1.3,0.1,1.9,0.3C-22.9,45.3-24.4,44.8-26,44.8z"/>
						</g>
					</g>
					<path id="XMLID_4122_" class="st2" d="M-26,62.3c-5,0-9-4-9-9s4-9,9-9s9,4,9,9S-21,62.3-26,62.3z M-26,44.8
						c-4.7,0-8.4,3.8-8.4,8.4c0,4.7,3.8,8.4,8.4,8.4s8.4-3.8,8.4-8.4C-17.5,48.6-21.3,44.8-26,44.8z"/>
				</g>
			</g>
			<g id="XMLID_4089_">
				<g id="XMLID_4096_">
					<path id="XMLID_4117_" class="st2" d="M135,168.3c0,0.4-0.3,0.7-0.7,0.7h-27.7c-0.4,0-0.7-0.3-0.7-0.7v-4.7
						c0-0.4,0.3-0.7,0.7-0.7h27.7c0.4,0,0.7,0.3,0.7,0.7V168.3z M107,168h26v-3h-26V168z"/>
					<path id="XMLID_4116_" class="st2" d="M131,164.1c0,0,0-0.1,0-0.3v-1c0-1.8-1.7-2.8-3.6-2.8h-14.8c-1.9,0-3.6,1-3.6,2.8v1
						c0,0.2-0.3,0.3-0.5,0.3s-0.5-0.1-0.5-0.3v-1c0-2.1,2.3-3.8,4.6-3.8h14.8c2.3,0,3.6,1.7,3.6,3.8v1C131,164,131,164.1,131,164.1z
						"/>
					<g id="XMLID_4111_">
						<path id="XMLID_4115_" class="st2" d="M127.4,74h-14.8c-2.3,0-4.6-1.3-4.6-3.5v-1c0-0.2,0.3-0.3,0.5-0.3s0.5,0.1,0.5,0.3v1
							c0,1.8,1.6,3.5,3.6,3.5H127.4c1.9,0,3.6-1.6,3.6-3.5v-1c0-0.2,0-0.3,0-0.3s0,0.1,0,0.3v1C131,72.7,129.7,74,127.4,74z"/>
						<path id="XMLID_4112_" class="st2" d="M135,69.3c0,0.4-0.3,0.7-0.7,0.7h-27.7c-0.4,0-0.7-0.3-0.7-0.7v-4.7
							c0-0.4,0.3-0.7,0.7-0.7h27.7c0.4,0,0.7,0.3,0.7,0.7V69.3z M107,69h26v-4h-26V69z"/>
					</g>
					<path id="XMLID_4108_" class="st2" d="M127.7,82h-15.5c-1.3,0-2.3-1.2-2.3-2.5s1-2.5,2.3-2.5h15.5c1.3,0,2.3,1.2,2.3,2.5
						S129,82,127.7,82z M112.2,78c-0.9,0-1.7,0.6-1.7,1.5s0.8,1.5,1.7,1.5h15.5c0.9,0,1.7-0.6,1.7-1.5s-0.8-1.5-1.7-1.5H112.2z"/>
					<path id="XMLID_4107_" class="st2" d="M128.2,77.8c-0.2,0-0.3-0.1-0.3-0.3v-3.3c0-0.2,0.1-0.3,0.3-0.3l0,0
						c0.2,0,0.3,0.1,0.3,0.3v3.3C128.5,77.6,128.4,77.8,128.2,77.8L128.2,77.8z"/>
					<path id="XMLID_4106_" class="st2" d="M111.5,77.8c-0.2,0-0.5-0.1-0.5-0.3v-3.3c0-0.2,0.3-0.3,0.5-0.3s0.5,0.1,0.5,0.3v3.3
						C112,77.6,111.7,77.8,111.5,77.8z"/>
					<path id="XMLID_4103_" class="st2" d="M128,84.7c0,0.2-0.1,0.3-0.3,0.3h-16.4c-0.2,0-0.3-0.1-0.3-0.3v-3.4
						c0-0.2,0.1-0.3,0.3-0.3h16.4c0.2,0,0.3,0.1,0.3,0.3V84.7z M112,85h16v-3h-16V85z"/>
					
						<rect id="XMLID_4102_" x="112.1" y="85.2" transform="matrix(-0.9996 -2.951279e-02 2.951279e-02 -0.9996 221.847 248.0789)" class="st2" width="1.3" height="74.4"/>
					
						<rect id="XMLID_4101_" x="90.2" y="121.7" transform="matrix(-2.419123e-02 -0.9997 0.9997 -2.419123e-02 8.1187 252.6915)" class="st2" width="74.4" height="1.3"/>
					<g id="XMLID_4098_">
						<path id="XMLID_4100_" class="st2" d="M116,156L116,156c-0.2,0-0.3-0.1-0.3-0.3l1.3-67.5c0-0.2,0.1-0.3,0.3-0.3
							s0.3,0.1,0.3,0.3l-1.3,67.5C116.3,155.9,116.2,156,116,156z"/>
						<path id="XMLID_4099_" class="st2" d="M124,156c-0.2,0-0.3-0.1-0.3-0.3l-1.3-67.5c0-0.2,0.1-0.3,0.3-0.3s0.3,0.1,0.3,0.3
							l1.3,67.5C124.3,155.9,124.1,156,124,156L124,156z"/>
					</g>
					<path id="XMLID_4097_" class="st2" d="M120,156c0,0,0-0.1,0-0.3V88.2c0-0.2,0-0.3,0-0.3s0,0.1,0,0.3v67.5
						C120,155.9,120,156,120,156z"/>
				</g>
				<g id="XMLID_4092_">
					<path id="XMLID_4093_" class="st2" d="M120,62.3c-5,0-9-4-9-9s4-9,9-9s9,4,9,9S125,62.3,120,62.3z M120,44.8
						c-4.7,0-8.4,3.8-8.4,8.4c0,4.7,3.8,8.4,8.4,8.4s8.4-3.8,8.4-8.4S124.6,44.8,120,44.8z"/>
				</g>
				<g id="XMLID_4090_">
					<path id="XMLID_4091_" class="st2" d="M120,55.1c-4.3,0-8.8-1.2-8.8-3.2c0-0.2,0.1-0.3,0.3-0.3s0.3,0.1,0.3,0.3
						c0,1.5,4.3,2.6,8.3,2.6c3.9,0,8.3-1.1,8.3-2.6c0-0.2,0.1-0.3,0.3-0.3s0.3,0.1,0.3,0.3C128.8,53.9,124.3,55.1,120,55.1z"/>
				</g>
			</g>
		</g>
		<g id="XMLID_4063_">
			<g id="XMLID_4069_">
				<path id="XMLID_4073_" class="st2" d="M47,199.4c-0.1,0-0.2,0-0.2,0c-0.1,0-13.3-5-26.2-15.6c-7.6-6.2-13.8-13.1-18.2-20.6
					c-5.5-9.3-8.4-19.4-8.4-30.1V66c0-0.2,0.3-0.5,0.5-0.6s0.5-0.1,0.7,0.1c7.1,5.1,15.5,7.8,24.2,7.8c10,0,19.6-3.6,27.1-10.2
					c0.2-0.2,0.6-0.2,0.9,0c7.5,6.6,17.1,10.2,27.1,10.2c8.7,0,17.1-2.7,24.2-7.8c0.2-0.1,0.6-0.2,0.8-0.1s0.5,0.3,0.5,0.6v67.1
					c0,10.6-2.9,20.8-8.4,30.1c-4.4,7.4-10.5,14.3-18.1,20.6c-13,10.6-26.1,15.6-26.3,15.6C47.2,199.4,47.1,199.4,47,199.4z
					 M-4,67.3v65.8c0,10.4,2.5,20.3,7.8,29.4c4.3,7.3,10.1,14.1,17.6,20.2c11.9,9.7,23.8,14.6,25.6,15.3c1.8-0.7,13.8-5.6,25.6-15.3
					c7.5-6.1,13.2-12.9,17.5-20.2c5.3-9.1,7.8-19,7.8-29.4V67.3c-7,4.8-15.1,7.3-23.7,7.3c-10.1,0-19.7-3.6-27.4-10.1
					C39.2,71,29.7,74.6,19.6,74.6C11,74.6,3,72.1-4,67.3z"/>
			</g>
			<path id="XMLID_4064_" class="st2" d="M47,195.3L47,195.3c-0.2-0.1-12.5-5.2-24.5-15.3c-7.1-5.9-12.8-12.3-16.8-19.1
				C0.6,152.5-2,143.5-2,134.2V72.1c0-0.1,0.1-0.2,0.2-0.3c0.1-0.1,0.2,0,0.3,0c7,4.7,15.9,5.4,22.8,5.4c9.2,0,18.2-3.3,25.6-9.3
				c0.1-0.1,0.3-0.1,0.4,0c7.3,6,16.4,9.3,25.6,9.3c13.2,0,19.1-2.9,22.8-5.4c0.1-0.1,0.2-0.1,0.3,0c0.1,0.1,0.2,0.1,0.2,0.3v62.2
				c0,9.3-2.6,18.2-7.7,26.7c-4.1,6.7-9.7,13.2-16.8,19.1c-12.1,10.1-24.3,15.2-24.4,15.3C47.1,195.3,47,195.3,47,195.3z M-1,72.7
				v61.7c0,9.1,2.3,18,7.4,26.4c4,6.7,9.5,13,16.6,18.9c11.4,9.5,22.9,14.6,24.1,15.1c1.3-0.5,12.8-5.7,24.1-15.2
				c7-5.9,12.4-12.2,16.5-18.9c5-8.3,7.3-17.2,7.3-26.4V72.7c-7,4.6-15.6,5.2-22.5,5.2c-9.2,0-18.2-3.3-25.6-9.3
				c-7.4,6-16.3,9.3-25.5,9.3C8.6,77.8,2,75.1-1,72.7z"/>
		</g>
		<g id="XMLID_3988_">
			<g id="XMLID_4060_">
				<path id="XMLID_4062_" class="st2" d="M39.7,107.4L39.7,107.4c-0.2,0-0.3-0.2-0.3-0.3c0-0.1,0.2-2.2,3.3-4
					c2.1-1.2,4.6-0.5,4.7-0.4c0.2,0,0.2,0.2,0.2,0.4c0,0.2-0.2,0.2-0.4,0.2c0,0-2.4-0.7-4.3,0.4c-2.8,1.6-3,3.5-3,3.5
					C40,107.3,39.9,107.4,39.7,107.4z"/>
				<path id="XMLID_4061_" class="st2" d="M34.3,107c-0.1,0-0.3,0.1-0.3-0.1c0,0-0.2-1.8-3-3.4c-1.9-1.1-4.2-0.3-4.3-0.3
					c-0.2,0-0.3,0-0.4-0.2c0-0.2,0-0.3,0.2-0.4c0.1,0,2.6-0.8,4.7,0.4c3,1.8,3.2,3.7,3.3,3.8C34.6,107.1,34.5,107,34.3,107L34.3,107
					z"/>
			</g>
			<g id="XMLID_3989_">
				<g id="XMLID_4007_">
					<g id="XMLID_4012_">
						<g id="XMLID_4046_">
							<path id="XMLID_4057_" class="st2" d="M30.2,109.6c-1.8,0-3.2-1.4-3.2-3.2s1.4-3.2,3.2-3.2c1.8,0,3.2,1.4,3.2,3.2
								S32,109.6,30.2,109.6z M30.2,103.7c-1.4,0-2.6,1.2-2.6,2.6s1.2,2.6,2.6,2.6s2.6-1.2,2.6-2.6
								C32.8,104.9,31.6,103.7,30.2,103.7z"/>
							<path id="XMLID_4051_" class="st2" d="M30.2,108.3c-1,0-1.9-0.9-1.9-1.9s0.9-1.9,1.9-1.9s1.9,0.9,1.9,1.9
								S31.2,108.3,30.2,108.3z M30.2,105.1c-0.7,0-1.3,0.6-1.3,1.3c0,0.7,0.6,1.3,1.3,1.3c0.7,0,1.3-0.6,1.3-1.3
								C31.5,105.6,30.9,105.1,30.2,105.1z"/>
							<path id="XMLID_4050_" class="st2" d="M30.7,106.7c-0.2,0-0.3-0.1-0.3-0.3c0-0.1-0.1-0.2-0.2-0.2c-0.2,0-0.3-0.1-0.3-0.3
								c0-0.2,0.1-0.3,0.3-0.3c0.4,0,0.8,0.3,0.8,0.8C31,106.5,30.8,106.7,30.7,106.7z"/>
						</g>
						<g id="XMLID_4017_">
							<path id="XMLID_4025_" class="st2" d="M44.1,109.6c-1.8,0-3.2-1.4-3.2-3.2s1.4-3.2,3.2-3.2c1.8,0,3.2,1.4,3.2,3.2
								S45.8,109.6,44.1,109.6z M44.1,103.7c-1.4,0-2.6,1.2-2.6,2.6s1.2,2.6,2.6,2.6s2.6-1.2,2.6-2.6
								C46.7,104.9,45.5,103.7,44.1,103.7z"/>
							<path id="XMLID_4021_" class="st2" d="M44.1,108.3c-1,0-1.9-0.9-1.9-1.9s0.9-1.9,1.9-1.9s1.9,0.9,1.9,1.9
								S45.1,108.3,44.1,108.3z M44.1,105.1c-0.7,0-1.3,0.6-1.3,1.3c0,0.7,0.6,1.3,1.3,1.3c0.7,0,1.3-0.6,1.3-1.3
								C45.4,105.6,44.8,105.1,44.1,105.1z"/>
							<path id="XMLID_4019_" class="st2" d="M44.5,106.7c-0.2,0-0.3-0.1-0.3-0.3c0-0.1-0.1-0.2-0.2-0.2c-0.2,0-0.3-0.1-0.3-0.3
								c0-0.2,0.1-0.3,0.3-0.3c0.4,0,0.8,0.3,0.8,0.8C44.8,106.5,44.7,106.7,44.5,106.7z"/>
						</g>
						<path id="XMLID_4016_" class="st2" d="M32.8,115.5c-1.3,0-3.2-0.2-4.7-1.2s-6.1-4.8-2.7-12.8c1.9-4.3,7.2-6.5,11.6-6.4
							c0.2,0,0.3,0.1,0.3,0.3c0,0.2-0.1,0.3-0.3,0.3c-4.1-0.1-9.3,1.9-11,6c-3.2,7.5,1.1,11.1,2.5,12.1c2.3,1.5,5.7,1,5.7,1
							c0.2,0,0.3,0.1,0.3,0.2c0,0.2-0.1,0.3-0.2,0.3C34.2,115.4,33.7,115.5,32.8,115.5z"/>
						<path id="XMLID_4015_" class="st2" d="M36.5,113.5c-0.1,0-0.1,0-0.2,0s-1.5-1-1.6-3c-0.1-2.9,1.9-3.8,1.9-3.8
							c0.1-0.1,0.3,0,0.4,0.2c0.1,0.1,0,0.3-0.2,0.4c-0.1,0-1.7,0.7-1.6,3.2c0,1.3,0.7,2,1.1,2.4c0.4-0.8,1.5-2.8,3.1-3.1
							c0.2,0,0.3,0.1,0.3,0.2c0,0.2-0.1,0.3-0.2,0.3c-1.6,0.3-2.8,3.1-2.8,3.1C36.8,113.4,36.7,113.5,36.5,113.5
							C36.6,113.5,36.6,113.5,36.5,113.5z"/>
						<path id="XMLID_4014_" class="st2" d="M37,105.3c-0.1,0-0.3-0.1-0.3-0.3c0,0-0.3-2.2-2-3.4c-4-2.8-8.8,0.2-8.9,0.2
							c-0.1,0.1-0.3,0-0.4-0.1s0-0.3,0.1-0.4c0.1,0,5.2-3.2,9.5-0.2c1.9,1.3,2.2,3.7,2.2,3.8C37.3,105.1,37.2,105.3,37,105.3
							C37.1,105.3,37,105.3,37,105.3z"/>
					</g>
					<g id="XMLID_4008_">
						<path id="XMLID_4010_" class="st2" d="M41.2,115.5c-0.8,0-1.4-0.1-1.4-0.1c-0.2,0-0.3-0.2-0.2-0.3c0-0.2,0.2-0.3,0.3-0.2
							c0,0,3.4,0.5,5.7-1c1.4-0.9,5.7-4.4,2.5-11.9c-1.3-3.1-5.6-5.9-11-5.9l0,0c-0.2,0-0.3-0.3-0.3-0.4c0-0.2,0.1-0.4,0.3-0.4
							c4.3-0.1,9.7,2,11.6,6.4c3.4,8-1.2,11.8-2.7,12.8C44.4,115.3,42.5,115.5,41.2,115.5z"/>
						<path id="XMLID_4009_" class="st2" d="M37,105.3L37,105.3c-0.2,0-0.3-0.2-0.3-0.3c0-0.1,0.4-2.5,2.2-3.8
							c4.3-3,9.4,0.2,9.5,0.2c0.1,0.1,0.2,0.3,0.1,0.4s-0.3,0.2-0.4,0.1c0,0-4.9-3-8.9-0.2c-1.7,1.2-2,3.4-2,3.4
							C37.3,105.2,37.2,105.3,37,105.3z"/>
					</g>
				</g>
				<path id="XMLID_4006_" class="st2" d="M69.4,162.6c-0.7,0-1.5-0.9-3.1-2.6c-0.8-0.8-1.7-1.8-2.8-2.8c-3.1-3-7.5-5.3-14.6-8.6
					c-1.2-0.6-2.5-1.1-3.8-1.6c-6.1-2.4-13-5.1-16.6-15.1c-3.9-10.9-0.6-17.6-0.4-17.9c0.1-0.1,0.2-0.2,0.4-0.1
					c0.1,0.1,0.2,0.2,0.1,0.4c0,0.1-3.4,6.9,0.4,17.5c3.5,9.8,10,12.3,16.3,14.8c1.3,0.5,2.6,1,3.8,1.6c7.1,3.2,11.6,5.6,14.7,8.7
					c1.1,1,2,2,2.8,2.9c1.1,1.2,2.4,2.6,2.7,2.4c0,0,0.1,0,0.1-0.1c0.3-1.2-2.5-6.1-4.4-9c-0.1-0.1-0.1-0.3,0.1-0.4
					c0.1-0.1,0.3-0.1,0.4,0.1c0.5,0.8,5,7.7,4.5,9.5c-0.1,0.2-0.2,0.4-0.4,0.5C69.5,162.6,69.5,162.6,69.4,162.6z"/>
				<path id="XMLID_4005_" class="st2" d="M72.2,162.2c-0.2,0-0.3-0.1-0.5-0.3c-0.3-0.4-7.2-10.7-11.8-14.1
					c-0.7-0.5-1.6-1.1-2.7-1.7c-5.6-3.5-14.9-9.3-16.7-20.9c-0.3-2,0.4-4.1,1.9-5.7s3.4-2.3,5.4-2.1c0.2,0,0.3,0.2,0.3,0.3
					c0,0.2-0.2,0.3-0.3,0.3c-1.7-0.2-3.6,0.5-4.9,1.9c-1.4,1.4-2,3.4-1.8,5.2c1.7,11.4,11,17.1,16.5,20.5c1.1,0.7,2,1.2,2.7,1.8
					c4.5,3.3,10.8,12.5,11.9,14.1c0.1-1.3-0.6-5.9-1.2-8.8c-2-8.7-9.7-27.3-15.1-32.8c-1.3-1.3-2.3-2.3-3.2-3.1
					c-2.5-2.4-3.7-3.4-4-6.4c0-0.2,0.1-0.3,0.3-0.3c0.2,0,0.3,0.1,0.3,0.3c0.2,2.7,1.3,3.7,3.8,6c0.9,0.8,2,1.8,3.2,3.1
					c5.5,5.6,13.3,24.3,15.3,33.1c0.4,1.6,0.7,3.9,1,5.8c0.5,3.7,0.1,3.8-0.1,3.9C72.3,162.2,72.3,162.2,72.2,162.2z"/>
				<g id="XMLID_4001_">
					<path id="XMLID_4004_" class="st2" d="M44.4,159.2c-0.1,0-0.2,0-0.2-0.1c-0.1-0.1-1.2-1.5,0.5-3.6c0.4-0.5,1.2-0.9,1.9-1.3
						c1.3-0.7,2.5-1.3,2.5-2.7c-0.1-2.4-0.8-3.4-0.8-3.4c-0.1-0.1,0-0.3,0.1-0.4c0.1-0.1,0.3,0,0.4,0.1c0,0,0.7,1.2,0.9,3.7
						c0.1,1.8-1.4,2.6-2.8,3.2c-0.7,0.4-1.4,0.7-1.7,1.1c-0.9,1.1-0.9,1.9-0.8,2.4c0.4-0.6,1.1-1.5,2.5-1.9c0.2,0,0.3,0,0.4,0.2
						c0,0.2,0,0.3-0.2,0.4c-1.8,0.5-2.4,2.1-2.4,2.1C44.6,159.1,44.6,159.2,44.4,159.2L44.4,159.2z"/>
					<path id="XMLID_4003_" class="st2" d="M47.3,160.4c-0.1,0-0.2,0-0.2-0.1c-0.1-0.1-1.3-1.3-0.3-3.7c0.2-0.6,0.8-0.9,1.4-1.3
						c0.2-0.1,0.4-0.2,0.6-0.4c0.7-0.5,1.2-1.1,1.2-1.1c0.1-0.1,0.3-0.2,0.4-0.1c0.1,0.1,0.2,0.3,0.1,0.4c0,0-0.5,0.7-1.3,1.2
						c-0.2,0.1-0.4,0.3-0.6,0.4c-0.5,0.3-1,0.6-1.1,1c-0.5,1.3-0.3,2.2-0.1,2.7c0.4-0.8,1.3-2.3,2.5-2.8c1.4-0.6,1.9-2.1,1.9-2.1
						c0.1-0.2,0.2-0.2,0.4-0.2c0.2,0.1,0.2,0.2,0.2,0.4c0,0.1-0.6,1.7-2.2,2.4c-1.4,0.6-2.4,3-2.4,3
						C47.5,160.3,47.4,160.4,47.3,160.4L47.3,160.4z"/>
					<path id="XMLID_4002_" class="st2" d="M49.5,161.1c-0.1,0-0.2,0-0.2-0.1c-0.1-0.1-1.3-1.3-0.3-3.7c0.1-0.1,0.2-0.2,0.4-0.2
						c0.1,0.1,0.2,0.2,0.2,0.4c-0.5,1.3-0.3,2.2-0.1,2.7c0.4-0.8,1.3-2.3,2.5-2.8c1.3-0.6,2.2-1.6,1.8-4.6c-0.1-0.8-0.2-2.2-0.2-2.3
						c0-0.2,0.1-0.3,0.3-0.3c0.2,0,0.3,0.1,0.3,0.3c0,0,0.1,1.5,0.2,2.3c0.3,2.8-0.3,4.3-2.2,5.2c-1.4,0.6-2.4,3-2.4,3
						C49.7,161.1,49.6,161.1,49.5,161.1L49.5,161.1z"/>
				</g>
				<g id="XMLID_3997_">
					<path id="XMLID_4000_" class="st2" d="M39.3,156.2c-0.1,0-0.2,0-0.2-0.1s-1.1-1.4,0.5-3.3c0.4-0.5,1.1-0.8,1.7-1.2
						c1.2-0.6,2.3-1.2,2.2-2.4c-0.1-2.1-0.7-3-0.7-3c-0.1-0.1,0-0.3,0.1-0.4c0.1-0.1,0.3,0,0.4,0.1c0,0,0.7,1.1,0.8,3.3
						c0.1,1.6-1.3,2.3-2.5,2.9c-0.6,0.3-1.2,0.6-1.6,1c-0.8,0.9-0.8,1.6-0.7,2c0.3-0.6,1-1.3,2.2-1.7c0.2,0,0.3,0,0.4,0.2
						c0,0.2,0,0.3-0.2,0.4c-1.6,0.4-2.1,1.8-2.1,1.9C39.5,156.1,39.5,156.2,39.3,156.2L39.3,156.2z"/>
					<path id="XMLID_3999_" class="st2" d="M41.9,157.3c-0.1,0-0.2,0-0.2-0.1c0,0-1.2-1.2-0.3-3.4c0.2-0.5,0.7-0.8,1.3-1.1
						c0.2-0.1,0.4-0.2,0.5-0.3c0.6-0.5,1-1,1-1c0.1-0.1,0.3-0.2,0.4-0.1c0.1,0.1,0.2,0.3,0.1,0.4c0,0-0.5,0.6-1.2,1.1
						c-0.2,0.1-0.4,0.2-0.6,0.4c-0.4,0.3-0.9,0.5-1,0.9c-0.5,1.1-0.3,1.9-0.1,2.3c0.4-0.7,1.2-2,2.2-2.5c1.3-0.6,1.7-1.8,1.7-1.9
						c0.1-0.2,0.2-0.2,0.4-0.2c0.2,0.1,0.2,0.2,0.2,0.4c0,0.1-0.6,1.5-2,2.2c-1.2,0.5-2.1,2.6-2.2,2.7
						C42.1,157.2,42,157.3,41.9,157.3L41.9,157.3z"/>
					<path id="XMLID_3998_" class="st2" d="M43.9,158c-0.1,0-0.1,0-0.2-0.1c0,0-1.2-1.2-0.3-3.4c0.1-0.1,0.2-0.2,0.4-0.2
						c0.1,0.1,0.2,0.2,0.2,0.4c-0.7,1.8,0.1,2.7,0.2,2.7c0.1,0.1,0.1,0.3,0,0.4C44,157.9,43.9,158,43.9,158z"/>
				</g>
				<path id="XMLID_3996_" class="st2" d="M72.2,158.3c-0.1,0-0.2-0.1-0.3-0.2c0-0.1-3.8-9.1-11.9-13.9c-7.3-4.4-8.4-8.9-8.4-9.1
					s0.1-0.3,0.2-0.3c0.2,0,0.3,0.1,0.3,0.2s1.1,4.5,8.1,8.7c8.3,5,12.1,14.1,12.1,14.2c0.1,0.1,0,0.3-0.2,0.4
					C72.3,158.3,72.2,158.3,72.2,158.3z"/>
				<path id="XMLID_3995_" class="st2" d="M69.8,147.6c-0.1,0-0.2,0-0.2-0.1c0,0-2.1-3-6.5-5.8c-4.5-2.9-7-8-7.1-8.2
					c-0.1-0.1,0-0.3,0.1-0.4c0.1-0.1,0.3,0,0.4,0.1c0,0.1,2.5,5.1,6.9,8s6.5,5.8,6.6,6c0.1,0.1,0.1,0.3-0.1,0.4
					C69.9,147.6,69.8,147.6,69.8,147.6z"/>
				<path id="XMLID_3994_" class="st2" d="M66.3,138.4L66.3,138.4c-0.2-0.1-2.5-1.3-4-2.8c-1.6-1.6-2.5-4-2.5-4.1
					c-0.1-0.2,0-0.3,0.2-0.4c0.2-0.1,0.3,0,0.4,0.2c0,0,0.9,2.4,2.4,3.9s3.8,2.7,3.8,2.7c0.1,0.1,0.2,0.3,0.1,0.4
					C66.5,138.4,66.4,138.4,66.3,138.4z"/>
				<path id="XMLID_3993_" class="st2" d="M50.8,135.2c-0.3,0-0.6,0-0.9-0.1c-3.4-0.4-8.1-5-9-8c0-0.2,0-0.3,0.2-0.4
					c0.2,0,0.3,0,0.4,0.2c0.8,2.8,5.4,7.3,8.5,7.6c1.2,0.1,2.1,0,2.6-0.5c0.4-0.4,0.3-0.9,0.3-0.9c0-0.2,0.1-0.3,0.2-0.3
					c0.2,0,0.3,0.1,0.3,0.2c0,0,0.1,0.8-0.5,1.4C52.5,134.9,51.8,135.2,50.8,135.2z"/>
				<path id="XMLID_3992_" class="st2" d="M55.1,133.6c-0.3,0-0.5,0-0.8-0.1c-3.4-0.4-8.1-5-9-8c0-0.2,0-0.3,0.2-0.4
					c0.2,0,0.3,0,0.4,0.2c0.8,2.8,5.4,7.3,8.5,7.6c1.2,0.1,2.1,0,2.5-0.5c0.5-0.5,0.4-1.1,0.4-1.2c0-0.2,0.1-0.3,0.2-0.3
					c0.2,0,0.3,0.1,0.3,0.2c0,0,0.1,0.9-0.6,1.6C56.8,133.4,56.1,133.6,55.1,133.6z"/>
				<path id="XMLID_3991_" class="st2" d="M58.3,131.7c-0.3,0-0.5,0-0.8-0.1c-3.4-0.4-8.1-5-9-8c0-0.2,0-0.3,0.2-0.4
					c0.2,0,0.3,0,0.4,0.2c0.8,2.8,5.4,7.3,8.5,7.6c1.2,0.1,2.1,0,2.5-0.5c0.5-0.5,0.4-1.1,0.4-1.2c0-0.2,0.1-0.3,0.3-0.3
					c0.2,0,0.3,0.1,0.3,0.2c0,0,0.1,0.9-0.6,1.6C60.1,131.4,59.3,131.7,58.3,131.7z"/>
				<path id="XMLID_3990_" class="st2" d="M62.1,129.7c-0.3,0-0.5,0-0.8,0c-3.4-0.4-8.1-5-9-8c0-0.2,0-0.3,0.2-0.4
					c0.2,0,0.3,0,0.4,0.2c0.8,2.8,5.4,7.3,8.5,7.6c0.4,0,0.7,0.1,1,0c0.2,0,0.3,0.1,0.3,0.3c0,0.2-0.1,0.3-0.3,0.3
					C62.3,129.7,62.2,129.7,62.1,129.7z"/>
			</g>
		</g>
		<g id="XMLID_3278_">
			<g id="XMLID_3311_">
				<g id="XMLID_3317_">
					<path id="XMLID_3985_" class="st2" d="M13.3,61.9c-0.6,0-1.3-0.1-1.9-0.2c-3-0.6-5.3-2.3-6.4-4.9c-1-2.3-0.9-4.9,0.3-6.7
						c3.8-6,10.6-2.4,10.6-2.3c0.1,0.1,0.2,0.2,0.1,0.3c0,0.1-0.2,0.2-0.3,0.2c0,0-5-0.3-6.5,2.6c-0.6,1.2-0.6,2.5,0.2,3.5
						c1,1.3,2.9,1.8,5.1,1.4c3.4-0.7,5.4-4.8,6.8-7.8c0.2-0.5,0.4-0.9,0.7-1.3c2.4-4.7,6.9-7.1,11.4-6.3c4.5,0.9,6.9,3.4,7.3,7.6
						c0.2,1.9,0.1,5.6-2.2,8c-1.5,1.6-3.7,2.3-6.6,2.2c-2.5-0.1-4.6-1.3-5.6-3.2c-0.4-0.9-0.6-1.7-0.6-2.4c-0.4,0.7-0.8,1.4-1.2,2.2
						C22.7,58.5,18.3,61.9,13.3,61.9z M11.4,47.2c-2.4,0-4.2,1.1-5.6,3.2c-1.1,1.7-1.2,4-0.3,6.2c0.6,1.4,2.2,3.9,6,4.6
						c5.4,1,10.5-2.7,12.6-6.7c2.4-4.6,4.1-6.8,6-7.6c1.4-0.5,2.9-0.5,4.1,0.1c1,0.4,1.6,1.2,1.9,2c0.6,1.8,0.2,3.1-0.3,3.8
						c-0.6,0.9-1.7,1.5-2.7,1.6c-1.1,0.1-2.2-0.3-2.8-1.1c-0.5-0.5-0.7-1.2-0.6-1.9c0.1-0.8,0.8-1.5,1.5-1.8c0.7-0.2,1.4,0,2.1,0.6
						c0.1,0.1,0.1,0.3,0,0.4s-0.3,0.1-0.4,0c-0.5-0.5-1-0.6-1.5-0.5c-0.6,0.2-1,0.7-1.1,1.3c-0.1,0.5,0.1,1,0.4,1.4
						c0.5,0.6,1.4,0.9,2.4,0.9c0.9,0,1.7-0.6,2.3-1.3c0.4-0.6,0.8-1.7,0.3-3.3c-0.2-0.7-0.8-1.3-1.6-1.7c-1.1-0.5-2.4-0.5-3.6-0.1
						c-1.3,0.5-2.5,1.8-4,4.1v0.1c0,0-0.1,1.5,0.6,2.9c0.9,1.7,2.8,2.8,5.1,2.9c2.7,0.1,4.7-0.5,6.1-2c2.1-2.2,2.2-5.7,2-7.5
						c-0.4-4-2.5-6.3-6.8-7.1c-4.3-0.8-8.6,1.5-10.8,5.9c-0.2,0.4-0.4,0.9-0.7,1.3c-1.5,3.1-3.5,7.4-7.2,8.1
						c-2.4,0.5-4.5-0.1-5.7-1.6c-0.9-1.2-1-2.7-0.2-4.1c1.2-2.2,3.9-2.7,5.6-2.8c-0.6-0.2-1.5-0.4-2.4-0.5
						C11.8,47.3,11.6,47.2,11.4,47.2z"/>
					<g id="XMLID_3983_">
						<path id="XMLID_3984_" class="st2" d="M12.6,59.3c-1.6,0-3.2-0.4-4.2-1.2c-3.2-2.6-2.5-6.3-1.3-8c1-1.5,2.8-2.3,5.2-2.5
							c1.8-0.1,3.2,0.2,3.3,0.2c0.2,0,0.3,0.2,0.2,0.3c0,0.2-0.2,0.3-0.3,0.2c-0.1,0-5.6-1.3-7.8,2c-1.1,1.6-1.7,4.9,1.2,7.3
							c2.2,1.8,7.1,1.3,9.4-0.9c2.5-2.4,4.1-4.9,5.4-7.1c1.1-1.8,2.1-3.4,3.4-4.5c2.7-2.4,6.6-2,8.4-1c2.5,1.4,2.6,4.5,2.6,4.7
							c0,0.2-0.1,0.3-0.3,0.3c-0.1,0-0.3-0.1-0.3-0.3c0,0-0.1-2.9-2.3-4.2c-1.6-0.9-5.2-1.3-7.7,0.9c-1.2,1.1-2.2,2.6-3.3,4.4
							c-1.4,2.2-3,4.8-5.5,7.2C17.1,58.5,14.8,59.3,12.6,59.3z"/>
					</g>
				</g>
				<g id="XMLID_3312_">
					<path id="XMLID_3314_" class="st2" d="M80.7,61.9c-5,0-9.4-3.5-11.3-7.2c-0.4-0.8-0.8-1.5-1.2-2.2c-0.1,0.6-0.2,1.5-0.6,2.4
						c-1,1.9-3.1,3.1-5.6,3.2c-2.8,0.1-5.1-0.6-6.6-2.2c-2.3-2.4-2.4-6-2.2-8c0.4-4.2,2.8-6.7,7.3-7.6c4.6-0.9,9.1,1.6,11.4,6.3
						c0.2,0.4,0.4,0.9,0.7,1.3c1.4,3,3.4,7.1,6.8,7.8c2.2,0.5,4.1-0.1,5.1-1.4c0.8-1,0.8-2.3,0.2-3.5c-1.5-2.8-6.4-2.6-6.5-2.6
						s-0.3-0.1-0.3-0.2c0-0.1,0-0.3,0.1-0.3s6.8-3.6,10.6,2.3c1.2,1.8,1.3,4.4,0.3,6.7c-1.1,2.6-3.4,4.4-6.4,4.9
						C82,61.9,81.3,61.9,80.7,61.9z M62,46.5c0.7,0,1.3,0.1,2,0.4c1.9,0.7,3.6,2.9,6,7.6c2,4,7.2,7.7,12.6,6.7
						c3.8-0.7,5.4-3.2,6-4.6c0.9-2.1,0.8-4.5-0.3-6.2c-1.5-2.3-3.6-3.4-6.2-3.2c-0.9,0.1-1.8,0.3-2.4,0.5c1.7,0.1,4.5,0.7,5.6,2.8
						c0.7,1.4,0.7,2.9-0.2,4.1c-1.1,1.5-3.3,2.1-5.7,1.6c-3.7-0.8-5.7-5-7.2-8.1c-0.2-0.5-0.4-0.9-0.7-1.3
						c-2.3-4.4-6.5-6.8-10.8-5.9c-4.3,0.8-6.5,3.1-6.8,7.1c-0.2,1.8-0.1,5.3,2,7.5c1.4,1.5,3.5,2.1,6.1,2c2.3-0.1,4.2-1.2,5.1-2.9
						c0.7-1.4,0.6-2.9,0.6-2.9v-0.1c-1.5-2.4-2.7-3.7-4-4.1c-1.2-0.5-2.5-0.4-3.6,0.1c-0.8,0.4-1.4,1-1.6,1.7
						c-0.6,1.6-0.2,2.7,0.3,3.3c0.5,0.8,1.4,1.3,2.3,1.3s1.8-0.3,2.4-0.9c0.4-0.4,0.5-0.9,0.4-1.4c-0.1-0.6-0.6-1.2-1.1-1.3
						c-0.5-0.2-1,0-1.5,0.5c-0.1,0.1-0.3,0.1-0.4,0s-0.1-0.3,0-0.4c0.6-0.6,1.4-0.8,2.1-0.6c0.8,0.2,1.4,1,1.5,1.8
						c0.1,0.7-0.1,1.4-0.6,1.9c-0.6,0.7-1.7,1.1-2.8,1.1c-1-0.1-2.1-0.7-2.7-1.6c-0.5-0.7-1-2-0.3-3.8c0.3-0.9,1-1.6,1.9-2
						C60.5,46.7,61.2,46.5,62,46.5z"/>
					<path id="XMLID_3313_" class="st2" d="M81.1,59.3c-2.2,0-4.6-0.7-6-2.1c-2.6-2.4-4.2-5-5.5-7.2c-1.1-1.8-2-3.3-3.3-4.4
						c-2.5-2.2-6.1-1.9-7.7-0.9c-2.2,1.3-2.3,4.2-2.3,4.2c0,0.2-0.1,0.3-0.3,0.3c-0.2,0-0.3-0.1-0.3-0.3c0-0.1,0.1-3.2,2.6-4.7
						c1.8-1,5.7-1.4,8.4,1c1.3,1.1,2.2,2.7,3.4,4.5c1.4,2.2,2.9,4.7,5.4,7.1c2.3,2.2,7.3,2.6,9.4,0.9c2.9-2.3,2.2-5.7,1.2-7.3
						c-2.2-3.2-7.7-2-7.8-2c-0.2,0-0.3-0.1-0.3-0.2c0-0.2,0.1-0.3,0.2-0.3s1.5-0.3,3.3-0.2c2.4,0.1,4.1,1,5.2,2.5
						c1.2,1.7,1.9,5.5-1.3,8C84.3,58.9,82.7,59.3,81.1,59.3z"/>
				</g>
			</g>
			<g id="XMLID_3279_">
				<g id="XMLID_3306_">
					<path id="XMLID_3310_" class="st2" d="M47,55.6c0,0,0-0.1,0-0.3V38.9c0-0.2,0-0.3,0-0.3s0,0.1,0,0.3v16.3
						C47,55.4,47,55.6,47,55.6z"/>
					<g id="XMLID_3307_">
						<path id="XMLID_3309_" class="st2" d="M41.6,58.7c-0.3,0-0.7,0-1.1-0.1c-0.2,0-0.3-0.2-0.2-0.3c0-0.2,0.2-0.3,0.3-0.2
							c4.2,0.7,6.2-2.9,6.2-2.9c0.1-0.1,0.3-0.2,0.4-0.1c0.1,0.1,0.2,0.3,0.1,0.4C47.2,55.4,45.4,58.7,41.6,58.7z"/>
						<path id="XMLID_3308_" class="st2" d="M52.4,58.7c-3.8,0-5.7-3.3-5.7-3.3c-0.1-0.1,0-0.3,0.1-0.4c0.1-0.1,0.3,0,0.4,0.1
							s2,3.6,6.2,2.9c0.2,0,0.3,0.1,0.3,0.2c0,0.2-0.1,0.3-0.2,0.3C53.2,58.7,52.8,58.7,52.4,58.7z"/>
					</g>
				</g>
				<g id="XMLID_3304_">
					<path id="XMLID_3305_" class="st2" d="M47,24c0,0,0-0.1,0-0.3v-3.9c0-0.2,0-0.3,0-0.3s0,0.1,0,0.3v3.9C47,23.8,47,24,47,24z"/>
				</g>
				<g id="XMLID_3289_">
					<g id="XMLID_3298_">
						<g id="XMLID_3301_">
							<g id="XMLID_3302_">
								<path id="XMLID_3303_" class="st2" d="M40.9,58.7c-0.2,0-0.3-0.1-0.5-0.2c-0.3-0.3-0.2-0.7,0-0.9c0,0,3.8-3.8,3-9.8
									c-0.7-6.1-4.7-9.4-11.7-9.8c-0.4,0-0.6-0.3-0.6-0.7c0-0.2,0-1.8,0.2-2.5c0.3-1.3,1-2.4,1.1-2.5s0.2-0.2,0.4-0.3
									c0.2-0.1,5.3-1.3,8.4,1.6c0.3,0.2,0.3,0.7,0,0.9c-0.2,0.3-0.7,0.3-0.9,0c-2.3-2.1-6-1.5-7-1.3c-0.2,0.4-0.6,1.1-0.7,1.8
									c-0.1,0.4-0.1,1.1-0.2,1.7c1.4,0.1,4,0.4,6.4,1.7c3.4,1.8,5.4,4.9,5.9,9.2c0.8,6.7-3.2,10.7-3.4,10.9
									C41.2,58.6,41,58.7,40.9,58.7z"/>
							</g>
						</g>
						<path id="XMLID_3300_" class="st2" d="M45,35.5L45,35.5c-0.4,0-0.7-0.4-0.7-0.7c0-0.1,0.4-3.4-0.9-6.9
							c-1.1-3.1-2.8-4.4-2.8-4.4c-0.3-0.2-0.4-0.6-0.1-0.9c0.1-0.2,2.5-3.3,6.5-3.6c0.4,0,0.7,0.3,0.7,0.6c0,0.4-0.3,0.7-0.6,0.7
							c-2.6,0.2-4.3,1.8-5.1,2.5c0.7,0.7,1.9,2.1,2.8,4.6c1.4,3.8,1,7.3,1,7.5C45.6,35.3,45.4,35.5,45,35.5z"/>
						<path id="XMLID_3299_" class="st2" d="M40.8,34.8c-0.2,0-0.5-0.1-0.6-0.4c-1.6-3.4-5.9-3.9-6-3.9c-0.2,0-0.3-0.1-0.5-0.3
							c-0.1-0.1-0.2-0.3-0.1-0.5c0-0.1,0.3-1.5,1.5-2.8c1.3-1.5,2.9-2.3,2.9-2.4c0.1-0.1,0.3-0.1,0.5-0.1s4.9,1.2,6.9,6.3
							c0.1,0.3,0,0.7-0.4,0.9c-0.3,0.1-0.7,0-0.9-0.4c-1.6-3.8-4.9-5.1-5.8-5.4C38,26,37,26.7,36.1,27.7c-0.5,0.6-0.8,1.1-1,1.6
							c1.5,0.3,4.8,1.4,6.2,4.6c0.1,0.3,0,0.7-0.3,0.9C41,34.7,40.9,34.8,40.8,34.8z"/>
					</g>
					<path id="XMLID_3294_" class="st2" d="M41,30.2c-0.1,0-0.2,0-0.2-0.1c-1.4-1.6-4.5-3-4.5-3c-0.2-0.1-0.3-0.2-0.2-0.4
						c0.1-0.1,0.2-0.2,0.4-0.2c0.1,0.1,3.3,1.4,4.7,3.2c0.1,0.1,0.1,0.3,0,0.4C41.1,30.2,41,30.2,41,30.2z"/>
					<path id="XMLID_3290_" class="st2" d="M37.4,35.8C37.4,35.8,37.3,35.8,37.4,35.8c-2.7-0.8-5.2-0.6-5.3-0.6
						c-0.2,0-0.3-0.1-0.3-0.3s0.1-0.3,0.3-0.3c0.1,0,2.7-0.2,5.4,0.6c0.2,0,0.2,0.2,0.2,0.4C37.6,35.7,37.5,35.8,37.4,35.8z"/>
				</g>
				<g id="XMLID_3280_">
					<g id="XMLID_3283_">
						<g id="XMLID_3286_">
							<g id="XMLID_3287_">
								<path id="XMLID_3288_" class="st2" d="M53.1,58.7c-0.2,0-0.3-0.1-0.5-0.2c-0.2-0.2-4.2-4.2-3.4-10.9
									c0.5-4.3,2.5-7.4,5.9-9.2c2.4-1.3,5-1.6,6.4-1.7c0-0.6-0.1-1.3-0.2-1.7c-0.2-0.7-0.5-1.5-0.7-1.8c-1-0.2-4.7-0.8-7,1.3
									c-0.3,0.2-0.7,0.2-0.9,0c-0.2-0.3-0.2-0.7,0-0.9c3.2-2.9,8.2-1.6,8.4-1.6c0.2,0,0.3,0.1,0.4,0.3c0,0,0.8,1.2,1.1,2.5
									c0.2,0.8,0.2,2.4,0.2,2.5c0,0.4-0.3,0.6-0.6,0.7c-7,0.4-11,3.7-11.7,9.8s3,9.8,3,9.8c0.3,0.3,0.3,0.7,0,0.9
									C53.5,58.6,53.3,58.7,53.1,58.7z"/>
							</g>
						</g>
						<path id="XMLID_3285_" class="st2" d="M49,35.5c-0.3,0-0.6-0.2-0.6-0.6c0-0.1-0.4-3.7,1-7.5c0.8-2.4,2-3.9,2.6-4.5
							c-0.7-0.8-2.5-2.4-5.1-2.6c-0.4,0-0.6-0.3-0.6-0.7c0.1-0.3,0.4-0.6,0.7-0.6c4,0.3,6.3,3.4,6.4,3.5s0.1,0.3,0.1,0.5
							s-0.1,0.3-0.3,0.4c0,0-1.7,1.3-2.8,4.4c-1.3,3.5-0.9,6.9-0.9,6.9C49.7,35.1,49.4,35.5,49,35.5L49,35.5z"/>
						<path id="XMLID_3284_" class="st2" d="M53.2,34.8c-0.1,0-0.2,0-0.3-0.1c-0.3-0.1-0.5-0.5-0.3-0.9c1.4-3.2,4.7-4.2,6.2-4.6
							c-0.2-0.4-0.5-1-1-1.6C57,26.7,56,26,55.5,25.8c-0.9,0.3-4.2,1.6-5.8,5.4c-0.1,0.3-0.5,0.5-0.9,0.4c-0.3-0.1-0.5-0.5-0.4-0.9
							c2.1-5,6.7-6.2,6.9-6.3c0.2,0,0.3,0,0.5,0.1c0.1,0,1.6,0.9,2.9,2.4c1.2,1.3,1.5,2.8,1.5,2.8c0,0.2,0,0.4-0.1,0.5
							s-0.3,0.2-0.5,0.3c0,0-4.4,0.5-5.9,3.9C53.7,34.6,53.5,34.8,53.2,34.8z"/>
					</g>
					<path id="XMLID_3282_" class="st2" d="M53,30.2c-0.1,0-0.1,0-0.2-0.1c-0.1-0.1-0.1-0.3,0-0.4c1.4-1.8,4.6-3.1,4.7-3.2
						s0.3,0,0.4,0.2c0.1,0.1,0,0.3-0.2,0.4c0,0-3.1,1.3-4.5,3C53.2,30.2,53.1,30.2,53,30.2z"/>
					<path id="XMLID_3281_" class="st2" d="M56.6,35.8c-0.1,0-0.2-0.1-0.3-0.2c0-0.2,0-0.3,0.2-0.4c2.7-0.8,5.3-0.7,5.4-0.6
						c0.2,0,0.3,0.1,0.3,0.3s-0.2,0.3-0.3,0.3C61.8,35.2,59.3,35,56.6,35.8C56.7,35.8,56.6,35.8,56.6,35.8z"/>
				</g>
			</g>
		</g>
		<g id="XMLID_2911_">
			<g id="XMLID_3049_">
				<g id="XMLID_3056_">
					<path id="XMLID_3277_" class="st2" d="M-14.5,198.6c-0.3,0-0.5-0.2-0.6-0.4c0-0.1-0.3-0.8,0.2-1.6c0.6-1,2.1-1.6,4.5-1.8
						l0.7-0.1c2.4-0.2,5.5-0.5,8-1c3.3-0.6,4-1.2,4.1-1.4c-0.2-0.2-1.4-1-7-2.2c-3.7-0.8-8-1.5-10.6-1.9h-0.2c-5-0.8-7-1.6-7.4-2.9
						c-0.2-0.7,0.2-1.5,1.2-2.2c1.2-0.9,3.3-1.2,6.3-0.9c2.1,0.2,3.9,0.6,4,0.7c0.4,0.1,0.6,0.4,0.5,0.8c-0.1,0.4-0.4,0.6-0.8,0.5
						c-1.9-0.5-7.3-1.4-9.2,0c-0.6,0.5-0.7,0.8-0.7,0.8c0.1,0.2,0.7,1,6.3,1.9h0.2c15.8,2.5,18.8,3.8,18.8,5.3
						c0,2.1-4.3,2.8-13.2,3.7l-0.7,0.1c-2.6,0.3-3.3,0.9-3.5,1.2c-0.1,0.2-0.1,0.4-0.1,0.4c0.1,0.3,0,0.7-0.4,0.9
						C-14.4,198.6-14.5,198.6-14.5,198.6z"/>
					<path id="XMLID_3276_" class="st2" d="M-14.7,198.9h-0.1l-0.8-0.1c-4.6-0.7-7.6-1.6-7.4-3.4c0-0.4,0.4-0.6,0.7-0.6
						c0.4,0,0.6,0.4,0.6,0.7c0,0.1,0.1,1,6.3,2l0.8,0.1c0.4,0.1,0.6,0.4,0.5,0.7C-14.1,198.6-14.4,198.9-14.7,198.9z"/>
					<path id="XMLID_3274_" class="st2" d="M-3.9,205.8c-0.3,0-0.6-0.2-0.6-0.6c0-0.4,0.2-0.7,0.6-0.7c2.2-0.3,3.7-0.6,4.8-0.9
						c1.5-0.5,1.5-0.8,1.5-0.8c0-0.4,0.3-0.7,0.7-0.7s0.7,0.3,0.7,0.7C3.6,204.5,0.7,205.2-3.9,205.8L-3.9,205.8z"/>
					<path id="XMLID_3273_" class="st2" d="M3,203.4c-0.4,0-1-0.3-1-0.7v-10.4c0-0.4,0.6-0.7,1-0.7s1,0.3,1,0.7v10.4
						C4,203.1,3.4,203.4,3,203.4z"/>
					<path id="XMLID_3272_" class="st2" d="M-22.5,196c-0.4,0-0.5-0.3-0.5-0.7V185c0-0.4,0.1-0.7,0.5-0.7s0.5,0.3,0.5,0.7v10.3
						C-22,195.7-22.1,196-22.5,196z"/>
					<path id="XMLID_3271_" class="st2" d="M-11.5,188.9c-0.4,0-0.5-0.3-0.5-0.7v-4.7c0-0.4,0.1-0.7,0.5-0.7s0.5,0.3,0.5,0.7v4.7
						C-11,188.6-11.1,188.9-11.5,188.9z"/>
				</g>
			</g>
			<g id="XMLID_3007_">
				<g id="XMLID_3020_">
					<path id="XMLID_3031_" class="st2" d="M109.1,198.2l-1.2-0.5l0,0c0,0,0.1-0.2-0.1-0.4c-0.2-0.3-0.9-0.9-3.4-1.2l-0.7-0.1
						c-9-0.9-13.2-1.6-13.2-3.7c0-1.5,3-2.8,18.8-5.3h0.2c5.6-0.9,6.2-1.7,6.3-1.9c0-0.1-0.1-0.4-0.7-0.8c-1.9-1.4-7.2-0.5-9.2,0
						c-0.3,0.1-0.7-0.1-0.8-0.5s0.1-0.7,0.5-0.8c0.1,0,1.9-0.5,4-0.7c3-0.3,5.1,0,6.3,0.9c1,0.7,1.4,1.5,1.2,2.2
						c-0.3,1.3-2.4,2.1-7.4,2.9h-0.2c-2.6,0.4-6.9,1.1-10.6,1.9c-5.6,1.2-6.8,1.9-7,2.2c0.1,0.2,0.7,0.8,4.1,1.4
						c2.5,0.4,5.5,0.7,8,1l0.7,0.1c2.3,0.2,3.8,0.9,4.5,1.8C109.4,197.4,109.2,198.1,109.1,198.2z"/>
					<path id="XMLID_3027_" class="st2" d="M108.7,198.9c-0.3,0-0.6-0.2-0.6-0.6c-0.1-0.4,0.2-0.7,0.5-0.7l0.8-0.1
						c6.3-1,6.3-1.9,6.3-2c0-0.4,0.2-0.7,0.6-0.7c0.4,0,0.7,0.2,0.7,0.6c0.2,1.8-2.8,2.7-7.4,3.4l-0.8,0.1
						C108.8,198.9,108.8,198.9,108.7,198.9z"/>
					<path id="XMLID_3026_" class="st2" d="M97.9,205.8L97.9,205.8c-4.7-0.6-7.5-1.3-7.5-3c0-0.4,0.3-0.7,0.7-0.7s0.7,0.3,0.7,0.7
						c0,0,0,0.4,1.5,0.8c1.1,0.3,2.6,0.6,4.8,0.9c0.4,0,0.6,0.4,0.6,0.7C98.5,205.5,98.3,205.8,97.9,205.8z"/>
					<path id="XMLID_3025_" class="st2" d="M91,203.4c-0.4,0-1-0.3-1-0.7v-10.4c0-0.4,0.6-0.7,1-0.7s1,0.3,1,0.7v10.4
						C92,203.1,91.4,203.4,91,203.4z"/>
					<path id="XMLID_3024_" class="st2" d="M116.5,196c-0.4,0-0.5-0.3-0.5-0.7V185c0-0.4,0.1-0.7,0.5-0.7s0.5,0.3,0.5,0.7v10.3
						C117,195.7,116.9,196,116.5,196z"/>
					<path id="XMLID_3023_" class="st2" d="M105.5,188.9c-0.4,0-0.5-0.3-0.5-0.7v-4.7c0-0.4,0.1-0.7,0.5-0.7s0.5,0.3,0.5,0.7v4.7
						C106,188.6,105.9,188.9,105.5,188.9z"/>
				</g>
			</g>
			<path id="XMLID_2912_" class="st2" d="M47,239c-15,0-29.5-2.6-43.1-7.6c-6.6-2.4-12.8-5.5-18.7-9c-0.2-0.1-0.2-0.3-0.2-0.6V198
				c0-0.3,0-0.5,0.2-0.6s0.4-0.1,0.6,0.1c16.8,13.4,38.5,20.7,61.2,20.7s44.5-7.4,61.2-20.7c0.2-0.2,0.3-0.2,0.5-0.1
				c0.2,0.1,0.2,0.3,0.2,0.6v23.9c0,0.2,0,0.4-0.2,0.6c-5.9,3.5-12.2,6.5-18.8,9C76.4,236.4,62,239,47,239z M-14,221.5
				c6,3.4,11.9,6.3,18.3,8.7c13.5,5,27.9,7.6,42.7,7.6s29.2-2.5,42.7-7.6c6.4-2.4,12.3-5.3,18.3-8.7v-22.2c-17,13-38.4,20.2-61,20.2
				s-44-7.2-61-20.2V221.5z"/>
		</g>
	</g>
</g>
<g id="XMLID_1_">
	<g id="XMLID_97_">
		<g id="XMLID_119_">
			<g id="XMLID_126_">
				<path id="XMLID_141_" class="st2" d="M-11,168.3c0,0.4-0.3,0.7-0.7,0.7h-27.6c-0.4,0-0.7-0.3-0.7-0.7v-4.7
					c0-0.4,0.3-0.7,0.7-0.7h27.7c0.4,0,0.7,0.3,0.7,0.7v4.7H-11z M-39,168h26v-3h-26V168z"/>
				<path id="XMLID_140_" class="st2" d="M-14.5,164.1c-0.2,0-0.5-0.1-0.5-0.3v-1c0-1.8-1.6-2.8-3.6-2.8h-14.8c-1.9,0-3.6,1-3.6,2.8
					v1c0,0.2-0.3,0.3-0.5,0.3s-0.5-0.1-0.5-0.3v-1c0-2.1,2.3-3.8,4.6-3.8h14.8c2.3,0,4.6,1.7,4.6,3.8v1
					C-14,164-14.3,164.1-14.5,164.1z"/>
				<g id="XMLID_137_">
					<path id="XMLID_139_" class="st2" d="M-18.6,74h-14.8c-2.3,0-4.6-1.3-4.6-3.5v-1c0-0.2,0.3-0.3,0.5-0.3s0.5,0.2,0.5,0.3v1
						c0,1.9,1.7,3.5,3.6,3.5H-18.6c1.9,0,3.6-1.6,3.6-3.5v-1c0-0.2,0.3-0.3,0.5-0.3s0.5,0.1,0.5,0.3v1C-14,72.7-16.3,74-18.6,74z"/>
					<path id="XMLID_138_" class="st2" d="M-11,69.3c0,0.4-0.3,0.7-0.7,0.7h-27.6c-0.4,0-0.7-0.3-0.7-0.7v-4.7
						c0-0.3,0.3-0.6,0.7-0.6h27.7c0.4,0,0.7,0.3,0.7,0.7v4.6H-11z M-39,69h26v-4h-26V69z"/>
				</g>
				<path id="XMLID_136_" class="st2" d="M-18.3,82h-15.5c-1.3,0-2.3-1.2-2.3-2.5s1-2.5,2.3-2.5h15.5c1.3,0,2.3,1.2,2.3,2.5
					S-17,82-18.3,82z M-33.8,78c-0.9,0-1.7,0.6-1.7,1.5s0.8,1.5,1.7,1.5h15.5c0.9,0,1.7-0.6,1.7-1.5s-0.8-1.5-1.7-1.5H-33.8z"/>
				<path id="XMLID_135_" class="st2" d="M-17.8,77.8c-0.2,0-0.3-0.1-0.3-0.3v-3.3c0-0.2,0.1-0.3,0.3-0.3l0,0c0.2,0,0.3,0.1,0.3,0.3
					v3.3C-17.5,77.6-17.6,77.8-17.8,77.8L-17.8,77.8z"/>
				<path id="XMLID_134_" class="st2" d="M-34.5,77.8c-0.2,0-0.5-0.1-0.5-0.3v-3.3c0-0.2,0.3-0.3,0.5-0.3S-34,74-34,74.2v3.3
					C-34,77.6-34.3,77.8-34.5,77.8z"/>
				<path id="XMLID_133_" class="st2" d="M-18,84.7c0,0.2-0.1,0.3-0.3,0.3h-16.4c-0.2,0-0.3-0.1-0.3-0.3v-3.4c0-0.2,0.1-0.3,0.3-0.3
					h16.4c0.2,0,0.3,0.1,0.3,0.3V84.7z M-34,85h16v-3h-16V85z"/>
				
					<rect id="XMLID_132_" x="-33.8" y="85.2" transform="matrix(-0.9996 -2.951279e-02 2.951279e-02 -0.9996 -69.9 243.7773)" class="st2" width="1.3" height="74.4"/>
				
					<rect id="XMLID_131_" x="-55.8" y="121.7" transform="matrix(-2.418742e-02 -0.9997 0.9997 -2.418742e-02 -141.3642 106.7336)" class="st2" width="74.4" height="1.3"/>
				<g id="XMLID_128_">
					<path id="XMLID_130_" class="st2" d="M-30,156L-30,156c-0.2,0-0.3-0.1-0.3-0.3l1.3-67.5c0-0.2,0.1-0.3,0.3-0.3
						c0.2,0,0.3,0.1,0.3,0.3l-1.3,67.5C-29.7,155.9-29.8,156-30,156z"/>
					<path id="XMLID_129_" class="st2" d="M-22,156c-0.2,0-0.3-0.1-0.3-0.3l-1.3-67.5c0-0.2,0.1-0.3,0.3-0.3c0.2,0,0.3,0.1,0.3,0.3
						l1.3,67.5C-21.7,155.9-21.8,156-22,156L-22,156z"/>
				</g>
				<path id="XMLID_127_" class="st2" d="M-26,156c0,0,0-0.1,0-0.3V88.2c0-0.2,0-0.3,0-0.3s0,0.1,0,0.3v67.5
					C-26,155.9-26,156-26,156z"/>
			</g>
			<g id="XMLID_120_">
				<g id="XMLID_122_">
					<path id="XMLID_125_" class="st2" d="M-24.7,61.4c-0.3,0-0.7,0-1.1-0.1c-4.1-0.5-7.1-4-7.1-8.1c0-4.5,2.9-7.8,7.1-8
						c1,0,3.9-0.2,6.2,1.7c0.1,0.1,0.2,0.3,0.1,0.4c-0.1,0.1-0.3,0.2-0.4,0.1c-2.2-1.7-4.9-1.6-5.8-1.6c-3.9,0.2-6.6,3.2-6.6,7.4
						c0,3.9,2.8,7.1,6.6,7.5c2.1,0.2,4-0.3,5.8-1.7c0.1-0.1,0.3-0.1,0.4,0.1c0.1,0.1,0.1,0.3-0.1,0.4
						C-21.2,60.8-22.9,61.4-24.7,61.4z"/>
					<g id="XMLID_123_">
						<path id="XMLID_124_" class="st2" d="M-26,62.3c-5,0-9-4-9-9s4-9,9-9c2.4,0,4.7,1,6.5,2.7c0.1,0.1,0.1-0.1,0.1,0
							c0,0.2-0.1,0-0.3,0l0,0c-0.1,0-0.1,0.2-0.2,0.2c-1.1-0.7-2.3-0.9-3.6-0.9c-3.8,0-6.9,3.1-6.9,6.9s3.1,6.9,6.9,6.9
							c1.3,0,2.5-0.3,3.6-1c0.1-0.1,0.3,0,0.4,0.1s0.1,0.3,0,0.4C-21.2,61.3-23.5,62.3-26,62.3z M-26,44.8c-4.7,0-8.4,3.8-8.4,8.4
							c0,4.7,3.8,8.4,8.4,8.4c1.6,0,3.1-0.4,4.5-1.3c-0.6,0.2-1.3,0.3-1.9,0.3c-4.1,0-7.4-3.3-7.4-7.4s3.3-7.4,7.4-7.4
							c0.7,0,1.3,0.1,1.9,0.3C-22.9,45.3-24.4,44.8-26,44.8z"/>
					</g>
				</g>
				<path id="XMLID_121_" class="st2" d="M-26,62.3c-5,0-9-4-9-9s4-9,9-9s9,4,9,9S-21,62.3-26,62.3z M-26,44.8
					c-4.7,0-8.4,3.8-8.4,8.4c0,4.7,3.8,8.4,8.4,8.4s8.4-3.8,8.4-8.4C-17.5,48.6-21.3,44.8-26,44.8z"/>
			</g>
		</g>
		<g id="XMLID_98_">
			<g id="XMLID_103_">
				<path id="XMLID_118_" class="st2" d="M135,168.3c0,0.4-0.3,0.7-0.7,0.7h-27.7c-0.4,0-0.7-0.3-0.7-0.7v-4.7
					c0-0.4,0.3-0.7,0.7-0.7h27.7c0.4,0,0.7,0.3,0.7,0.7V168.3z M107,168h26v-3h-26V168z"/>
				<path id="XMLID_117_" class="st2" d="M131,164.1c0,0,0-0.1,0-0.3v-1c0-1.8-1.7-2.8-3.6-2.8h-14.8c-1.9,0-3.6,1-3.6,2.8v1
					c0,0.2-0.3,0.3-0.5,0.3s-0.5-0.1-0.5-0.3v-1c0-2.1,2.3-3.8,4.6-3.8h14.8c2.3,0,3.6,1.7,3.6,3.8v1C131,164,131,164.1,131,164.1z"
					/>
				<g id="XMLID_114_">
					<path id="XMLID_116_" class="st2" d="M127.4,74h-14.8c-2.3,0-4.6-1.3-4.6-3.5v-1c0-0.2,0.3-0.3,0.5-0.3s0.5,0.1,0.5,0.3v1
						c0,1.8,1.6,3.5,3.6,3.5H127.4c1.9,0,3.6-1.6,3.6-3.5v-1c0-0.2,0-0.3,0-0.3s0,0.1,0,0.3v1C131,72.7,129.7,74,127.4,74z"/>
					<path id="XMLID_115_" class="st2" d="M135,69.3c0,0.4-0.3,0.7-0.7,0.7h-27.7c-0.4,0-0.7-0.3-0.7-0.7v-4.7
						c0-0.4,0.3-0.7,0.7-0.7h27.7c0.4,0,0.7,0.3,0.7,0.7V69.3z M107,69h26v-4h-26V69z"/>
				</g>
				<path id="XMLID_113_" class="st2" d="M127.7,82h-15.5c-1.3,0-2.3-1.2-2.3-2.5s1-2.5,2.3-2.5h15.5c1.3,0,2.3,1.2,2.3,2.5
					S129,82,127.7,82z M112.2,78c-0.9,0-1.7,0.6-1.7,1.5s0.8,1.5,1.7,1.5h15.5c0.9,0,1.7-0.6,1.7-1.5s-0.8-1.5-1.7-1.5H112.2z"/>
				<path id="XMLID_112_" class="st2" d="M128.2,77.8c-0.2,0-0.3-0.1-0.3-0.3v-3.3c0-0.2,0.1-0.3,0.3-0.3l0,0c0.2,0,0.3,0.1,0.3,0.3
					v3.3C128.5,77.6,128.4,77.8,128.2,77.8L128.2,77.8z"/>
				<path id="XMLID_111_" class="st2" d="M111.5,77.8c-0.2,0-0.5-0.1-0.5-0.3v-3.3c0-0.2,0.3-0.3,0.5-0.3s0.5,0.1,0.5,0.3v3.3
					C112,77.6,111.7,77.8,111.5,77.8z"/>
				<path id="XMLID_110_" class="st2" d="M128,84.7c0,0.2-0.1,0.3-0.3,0.3h-16.4c-0.2,0-0.3-0.1-0.3-0.3v-3.4c0-0.2,0.1-0.3,0.3-0.3
					h16.4c0.2,0,0.3,0.1,0.3,0.3V84.7z M112,85h16v-3h-16V85z"/>
				
					<rect id="XMLID_109_" x="112.1" y="85.2" transform="matrix(-0.9996 -2.951279e-02 2.951279e-02 -0.9996 221.847 248.0789)" class="st2" width="1.3" height="74.4"/>
				
					<rect id="XMLID_108_" x="90.2" y="121.7" transform="matrix(-2.419123e-02 -0.9997 0.9997 -2.419123e-02 8.1187 252.6915)" class="st2" width="74.4" height="1.3"/>
				<g id="XMLID_105_">
					<path id="XMLID_107_" class="st2" d="M116,156L116,156c-0.2,0-0.3-0.1-0.3-0.3l1.3-67.5c0-0.2,0.1-0.3,0.3-0.3s0.3,0.1,0.3,0.3
						l-1.3,67.5C116.3,155.9,116.2,156,116,156z"/>
					<path id="XMLID_106_" class="st2" d="M124,156c-0.2,0-0.3-0.1-0.3-0.3l-1.3-67.5c0-0.2,0.1-0.3,0.3-0.3s0.3,0.1,0.3,0.3
						l1.3,67.5C124.3,155.9,124.1,156,124,156L124,156z"/>
				</g>
				<path id="XMLID_104_" class="st2" d="M120,156c0,0,0-0.1,0-0.3V88.2c0-0.2,0-0.3,0-0.3s0,0.1,0,0.3v67.5
					C120,155.9,120,156,120,156z"/>
			</g>
			<g id="XMLID_101_">
				<path id="XMLID_102_" class="st2" d="M120,62.3c-5,0-9-4-9-9s4-9,9-9s9,4,9,9S125,62.3,120,62.3z M120,44.8
					c-4.7,0-8.4,3.8-8.4,8.4c0,4.7,3.8,8.4,8.4,8.4s8.4-3.8,8.4-8.4S124.6,44.8,120,44.8z"/>
			</g>
			<g id="XMLID_99_">
				<path id="XMLID_100_" class="st2" d="M120,55.1c-4.3,0-8.8-1.2-8.8-3.2c0-0.2,0.1-0.3,0.3-0.3s0.3,0.1,0.3,0.3
					c0,1.5,4.3,2.6,8.3,2.6c3.9,0,8.3-1.1,8.3-2.6c0-0.2,0.1-0.3,0.3-0.3s0.3,0.1,0.3,0.3C128.8,53.9,124.3,55.1,120,55.1z"/>
			</g>
		</g>
	</g>
	<g id="XMLID_93_">
		<g id="XMLID_95_">
			<path id="XMLID_96_" class="st2" d="M47,199.4c-0.1,0-0.2,0-0.2,0c-0.1,0-13.3-5-26.2-15.6c-7.6-6.2-13.8-13.1-18.2-20.6
				c-5.5-9.3-8.4-19.4-8.4-30.1V66c0-0.2,0.3-0.5,0.5-0.6s0.5-0.1,0.7,0.1c7.1,5.1,15.5,7.8,24.2,7.8c10,0,19.6-3.6,27.1-10.2
				c0.2-0.2,0.6-0.2,0.9,0c7.5,6.6,17.1,10.2,27.1,10.2c8.7,0,17.1-2.7,24.2-7.8c0.2-0.1,0.6-0.2,0.8-0.1s0.5,0.3,0.5,0.6v67.1
				c0,10.6-2.9,20.8-8.4,30.1c-4.4,7.4-10.5,14.3-18.1,20.6c-13,10.6-26.1,15.6-26.3,15.6C47.2,199.4,47.1,199.4,47,199.4z M-4,67.3
				v65.8c0,10.4,2.5,20.3,7.8,29.4c4.3,7.3,10.1,14.1,17.6,20.2c11.9,9.7,23.8,14.6,25.6,15.3c1.8-0.7,13.8-5.6,25.6-15.3
				c7.5-6.1,13.2-12.9,17.5-20.2c5.3-9.1,7.8-19,7.8-29.4V67.3c-7,4.8-15.1,7.3-23.7,7.3c-10.1,0-19.7-3.6-27.4-10.1
				C39.2,71,29.7,74.6,19.6,74.6C11,74.6,3,72.1-4,67.3z"/>
		</g>
		<path id="XMLID_94_" class="st2" d="M47,195.3L47,195.3c-0.2-0.1-12.5-5.2-24.5-15.3c-7.1-5.9-12.8-12.3-16.8-19.1
			C0.6,152.5-2,143.5-2,134.2V72.1c0-0.1,0.1-0.2,0.2-0.3c0.1-0.1,0.2,0,0.3,0c7,4.7,15.9,5.4,22.8,5.4c9.2,0,18.2-3.3,25.6-9.3
			c0.1-0.1,0.3-0.1,0.4,0c7.3,6,16.4,9.3,25.6,9.3c13.2,0,19.1-2.9,22.8-5.4c0.1-0.1,0.2-0.1,0.3,0c0.1,0.1,0.2,0.1,0.2,0.3v62.2
			c0,9.3-2.6,18.2-7.7,26.7c-4.1,6.7-9.7,13.2-16.8,19.1c-12.1,10.1-24.3,15.2-24.4,15.3C47.1,195.3,47,195.3,47,195.3z M-1,72.7
			v61.7c0,9.1,2.3,18,7.4,26.4c4,6.7,9.5,13,16.6,18.9c11.4,9.5,22.9,14.6,24.1,15.1c1.3-0.5,12.8-5.7,24.1-15.2
			c7-5.9,12.4-12.2,16.5-18.9c5-8.3,7.3-17.2,7.3-26.4V72.7c-7,4.6-15.6,5.2-22.5,5.2c-9.2,0-18.2-3.3-25.6-9.3
			c-7.4,6-16.3,9.3-25.5,9.3C8.6,77.8,2,75.1-1,72.7z"/>
	</g>
	<g id="XMLID_55_">
		<g id="XMLID_90_">
			<path id="XMLID_92_" class="st2" d="M39.7,107.4L39.7,107.4c-0.2,0-0.3-0.2-0.3-0.3c0-0.1,0.2-2.2,3.3-4c2.1-1.2,4.6-0.5,4.7-0.4
				c0.2,0,0.2,0.2,0.2,0.4c0,0.2-0.2,0.2-0.4,0.2c0,0-2.4-0.7-4.3,0.4c-2.8,1.6-3,3.5-3,3.5C40,107.3,39.9,107.4,39.7,107.4z"/>
			<path id="XMLID_91_" class="st2" d="M34.3,107c-0.1,0-0.3,0.1-0.3-0.1c0,0-0.2-1.8-3-3.4c-1.9-1.1-4.2-0.3-4.3-0.3
				c-0.2,0-0.3,0-0.4-0.2c0-0.2,0-0.3,0.2-0.4c0.1,0,2.6-0.8,4.7,0.4c3,1.8,3.2,3.7,3.3,3.8C34.6,107.1,34.5,107,34.3,107L34.3,107z
				"/>
		</g>
		<g id="XMLID_56_">
			<g id="XMLID_74_">
				<g id="XMLID_78_">
					<g id="XMLID_86_">
						<path id="XMLID_89_" class="st2" d="M30.2,109.6c-1.8,0-3.2-1.4-3.2-3.2s1.4-3.2,3.2-3.2c1.8,0,3.2,1.4,3.2,3.2
							S32,109.6,30.2,109.6z M30.2,103.7c-1.4,0-2.6,1.2-2.6,2.6s1.2,2.6,2.6,2.6s2.6-1.2,2.6-2.6C32.8,104.9,31.6,103.7,30.2,103.7
							z"/>
						<path id="XMLID_88_" class="st2" d="M30.2,108.3c-1,0-1.9-0.9-1.9-1.9s0.9-1.9,1.9-1.9s1.9,0.9,1.9,1.9S31.2,108.3,30.2,108.3
							z M30.2,105.1c-0.7,0-1.3,0.6-1.3,1.3c0,0.7,0.6,1.3,1.3,1.3c0.7,0,1.3-0.6,1.3-1.3C31.5,105.6,30.9,105.1,30.2,105.1z"/>
						<path id="XMLID_87_" class="st2" d="M30.7,106.7c-0.2,0-0.3-0.1-0.3-0.3c0-0.1-0.1-0.2-0.2-0.2c-0.2,0-0.3-0.1-0.3-0.3
							c0-0.2,0.1-0.3,0.3-0.3c0.4,0,0.8,0.3,0.8,0.8C31,106.5,30.8,106.7,30.7,106.7z"/>
					</g>
					<g id="XMLID_82_">
						<path id="XMLID_85_" class="st2" d="M44.1,109.6c-1.8,0-3.2-1.4-3.2-3.2s1.4-3.2,3.2-3.2c1.8,0,3.2,1.4,3.2,3.2
							S45.8,109.6,44.1,109.6z M44.1,103.7c-1.4,0-2.6,1.2-2.6,2.6s1.2,2.6,2.6,2.6s2.6-1.2,2.6-2.6
							C46.7,104.9,45.5,103.7,44.1,103.7z"/>
						<path id="XMLID_84_" class="st2" d="M44.1,108.3c-1,0-1.9-0.9-1.9-1.9s0.9-1.9,1.9-1.9s1.9,0.9,1.9,1.9S45.1,108.3,44.1,108.3
							z M44.1,105.1c-0.7,0-1.3,0.6-1.3,1.3c0,0.7,0.6,1.3,1.3,1.3c0.7,0,1.3-0.6,1.3-1.3C45.4,105.6,44.8,105.1,44.1,105.1z"/>
						<path id="XMLID_83_" class="st2" d="M44.5,106.7c-0.2,0-0.3-0.1-0.3-0.3c0-0.1-0.1-0.2-0.2-0.2c-0.2,0-0.3-0.1-0.3-0.3
							c0-0.2,0.1-0.3,0.3-0.3c0.4,0,0.8,0.3,0.8,0.8C44.8,106.5,44.7,106.7,44.5,106.7z"/>
					</g>
					<path id="XMLID_81_" class="st2" d="M32.8,115.5c-1.3,0-3.2-0.2-4.7-1.2s-6.1-4.8-2.7-12.8c1.9-4.3,7.2-6.5,11.6-6.4
						c0.2,0,0.3,0.1,0.3,0.3c0,0.2-0.1,0.3-0.3,0.3c-4.1-0.1-9.3,1.9-11,6c-3.2,7.5,1.1,11.1,2.5,12.1c2.3,1.5,5.7,1,5.7,1
						c0.2,0,0.3,0.1,0.3,0.2c0,0.2-0.1,0.3-0.2,0.3C34.2,115.4,33.7,115.5,32.8,115.5z"/>
					<path id="XMLID_80_" class="st2" d="M36.5,113.5c-0.1,0-0.1,0-0.2,0s-1.5-1-1.6-3c-0.1-2.9,1.9-3.8,1.9-3.8
						c0.1-0.1,0.3,0,0.4,0.2c0.1,0.1,0,0.3-0.2,0.4c-0.1,0-1.7,0.7-1.6,3.2c0,1.3,0.7,2,1.1,2.4c0.4-0.8,1.5-2.8,3.1-3.1
						c0.2,0,0.3,0.1,0.3,0.2c0,0.2-0.1,0.3-0.2,0.3c-1.6,0.3-2.8,3.1-2.8,3.1C36.8,113.4,36.7,113.5,36.5,113.5
						C36.6,113.5,36.6,113.5,36.5,113.5z"/>
					<path id="XMLID_79_" class="st2" d="M37,105.3c-0.1,0-0.3-0.1-0.3-0.3c0,0-0.3-2.2-2-3.4c-4-2.8-8.8,0.2-8.9,0.2
						c-0.1,0.1-0.3,0-0.4-0.1s0-0.3,0.1-0.4c0.1,0,5.2-3.2,9.5-0.2c1.9,1.3,2.2,3.7,2.2,3.8C37.3,105.1,37.2,105.3,37,105.3
						C37.1,105.3,37,105.3,37,105.3z"/>
				</g>
				<g id="XMLID_75_">
					<path id="XMLID_77_" class="st2" d="M41.2,115.5c-0.8,0-1.4-0.1-1.4-0.1c-0.2,0-0.3-0.2-0.2-0.3c0-0.2,0.2-0.3,0.3-0.2
						c0,0,3.4,0.5,5.7-1c1.4-0.9,5.7-4.4,2.5-11.9c-1.3-3.1-5.6-5.9-11-5.9l0,0c-0.2,0-0.3-0.3-0.3-0.4c0-0.2,0.1-0.4,0.3-0.4
						c4.3-0.1,9.7,2,11.6,6.4c3.4,8-1.2,11.8-2.7,12.8C44.4,115.3,42.5,115.5,41.2,115.5z"/>
					<path id="XMLID_76_" class="st2" d="M37,105.3L37,105.3c-0.2,0-0.3-0.2-0.3-0.3c0-0.1,0.4-2.5,2.2-3.8c4.3-3,9.4,0.2,9.5,0.2
						c0.1,0.1,0.2,0.3,0.1,0.4s-0.3,0.2-0.4,0.1c0,0-4.9-3-8.9-0.2c-1.7,1.2-2,3.4-2,3.4C37.3,105.2,37.2,105.3,37,105.3z"/>
				</g>
			</g>
			<path id="XMLID_73_" class="st2" d="M69.4,162.6c-0.7,0-1.5-0.9-3.1-2.6c-0.8-0.8-1.7-1.8-2.8-2.8c-3.1-3-7.5-5.3-14.6-8.6
				c-1.2-0.6-2.5-1.1-3.8-1.6c-6.1-2.4-13-5.1-16.6-15.1c-3.9-10.9-0.6-17.6-0.4-17.9c0.1-0.1,0.2-0.2,0.4-0.1
				c0.1,0.1,0.2,0.2,0.1,0.4c0,0.1-3.4,6.9,0.4,17.5c3.5,9.8,10,12.3,16.3,14.8c1.3,0.5,2.6,1,3.8,1.6c7.1,3.2,11.6,5.6,14.7,8.7
				c1.1,1,2,2,2.8,2.9c1.1,1.2,2.4,2.6,2.7,2.4c0,0,0.1,0,0.1-0.1c0.3-1.2-2.5-6.1-4.4-9c-0.1-0.1-0.1-0.3,0.1-0.4
				c0.1-0.1,0.3-0.1,0.4,0.1c0.5,0.8,5,7.7,4.5,9.5c-0.1,0.2-0.2,0.4-0.4,0.5C69.5,162.6,69.5,162.6,69.4,162.6z"/>
			<path id="XMLID_72_" class="st2" d="M72.2,162.2c-0.2,0-0.3-0.1-0.5-0.3c-0.3-0.4-7.2-10.7-11.8-14.1c-0.7-0.5-1.6-1.1-2.7-1.7
				c-5.6-3.5-14.9-9.3-16.7-20.9c-0.3-2,0.4-4.1,1.9-5.7s3.4-2.3,5.4-2.1c0.2,0,0.3,0.2,0.3,0.3c0,0.2-0.2,0.3-0.3,0.3
				c-1.7-0.2-3.6,0.5-4.9,1.9c-1.4,1.4-2,3.4-1.8,5.2c1.7,11.4,11,17.1,16.5,20.5c1.1,0.7,2,1.2,2.7,1.8
				c4.5,3.3,10.8,12.5,11.9,14.1c0.1-1.3-0.6-5.9-1.2-8.8c-2-8.7-9.7-27.3-15.1-32.8c-1.3-1.3-2.3-2.3-3.2-3.1
				c-2.5-2.4-3.7-3.4-4-6.4c0-0.2,0.1-0.3,0.3-0.3c0.2,0,0.3,0.1,0.3,0.3c0.2,2.7,1.3,3.7,3.8,6c0.9,0.8,2,1.8,3.2,3.1
				c5.5,5.6,13.3,24.3,15.3,33.1c0.4,1.6,0.7,3.9,1,5.8c0.5,3.7,0.1,3.8-0.1,3.9C72.3,162.2,72.3,162.2,72.2,162.2z"/>
			<g id="XMLID_68_">
				<path id="XMLID_71_" class="st2" d="M44.4,159.2c-0.1,0-0.2,0-0.2-0.1c-0.1-0.1-1.2-1.5,0.5-3.6c0.4-0.5,1.2-0.9,1.9-1.3
					c1.3-0.7,2.5-1.3,2.5-2.7c-0.1-2.4-0.8-3.4-0.8-3.4c-0.1-0.1,0-0.3,0.1-0.4c0.1-0.1,0.3,0,0.4,0.1c0,0,0.7,1.2,0.9,3.7
					c0.1,1.8-1.4,2.6-2.8,3.2c-0.7,0.4-1.4,0.7-1.7,1.1c-0.9,1.1-0.9,1.9-0.8,2.4c0.4-0.6,1.1-1.5,2.5-1.9c0.2,0,0.3,0,0.4,0.2
					c0,0.2,0,0.3-0.2,0.4c-1.8,0.5-2.4,2.1-2.4,2.1C44.6,159.1,44.6,159.2,44.4,159.2L44.4,159.2z"/>
				<path id="XMLID_70_" class="st2" d="M47.3,160.4c-0.1,0-0.2,0-0.2-0.1c-0.1-0.1-1.3-1.3-0.3-3.7c0.2-0.6,0.8-0.9,1.4-1.3
					c0.2-0.1,0.4-0.2,0.6-0.4c0.7-0.5,1.2-1.1,1.2-1.1c0.1-0.1,0.3-0.2,0.4-0.1c0.1,0.1,0.2,0.3,0.1,0.4c0,0-0.5,0.7-1.3,1.2
					c-0.2,0.1-0.4,0.3-0.6,0.4c-0.5,0.3-1,0.6-1.1,1c-0.5,1.3-0.3,2.2-0.1,2.7c0.4-0.8,1.3-2.3,2.5-2.8c1.4-0.6,1.9-2.1,1.9-2.1
					c0.1-0.2,0.2-0.2,0.4-0.2c0.2,0.1,0.2,0.2,0.2,0.4c0,0.1-0.6,1.7-2.2,2.4c-1.4,0.6-2.4,3-2.4,3
					C47.5,160.3,47.4,160.4,47.3,160.4L47.3,160.4z"/>
				<path id="XMLID_69_" class="st2" d="M49.5,161.1c-0.1,0-0.2,0-0.2-0.1c-0.1-0.1-1.3-1.3-0.3-3.7c0.1-0.1,0.2-0.2,0.4-0.2
					c0.1,0.1,0.2,0.2,0.2,0.4c-0.5,1.3-0.3,2.2-0.1,2.7c0.4-0.8,1.3-2.3,2.5-2.8c1.3-0.6,2.2-1.6,1.8-4.6c-0.1-0.8-0.2-2.2-0.2-2.3
					c0-0.2,0.1-0.3,0.3-0.3c0.2,0,0.3,0.1,0.3,0.3c0,0,0.1,1.5,0.2,2.3c0.3,2.8-0.3,4.3-2.2,5.2c-1.4,0.6-2.4,3-2.4,3
					C49.7,161.1,49.6,161.1,49.5,161.1L49.5,161.1z"/>
			</g>
			<g id="XMLID_64_">
				<path id="XMLID_67_" class="st2" d="M39.3,156.2c-0.1,0-0.2,0-0.2-0.1s-1.1-1.4,0.5-3.3c0.4-0.5,1.1-0.8,1.7-1.2
					c1.2-0.6,2.3-1.2,2.2-2.4c-0.1-2.1-0.7-3-0.7-3c-0.1-0.1,0-0.3,0.1-0.4c0.1-0.1,0.3,0,0.4,0.1c0,0,0.7,1.1,0.8,3.3
					c0.1,1.6-1.3,2.3-2.5,2.9c-0.6,0.3-1.2,0.6-1.6,1c-0.8,0.9-0.8,1.6-0.7,2c0.3-0.6,1-1.3,2.2-1.7c0.2,0,0.3,0,0.4,0.2
					c0,0.2,0,0.3-0.2,0.4c-1.6,0.4-2.1,1.8-2.1,1.9C39.5,156.1,39.5,156.2,39.3,156.2L39.3,156.2z"/>
				<path id="XMLID_66_" class="st2" d="M41.9,157.3c-0.1,0-0.2,0-0.2-0.1c0,0-1.2-1.2-0.3-3.4c0.2-0.5,0.7-0.8,1.3-1.1
					c0.2-0.1,0.4-0.2,0.5-0.3c0.6-0.5,1-1,1-1c0.1-0.1,0.3-0.2,0.4-0.1c0.1,0.1,0.2,0.3,0.1,0.4c0,0-0.5,0.6-1.2,1.1
					c-0.2,0.1-0.4,0.2-0.6,0.4c-0.4,0.3-0.9,0.5-1,0.9c-0.5,1.1-0.3,1.9-0.1,2.3c0.4-0.7,1.2-2,2.2-2.5c1.3-0.6,1.7-1.8,1.7-1.9
					c0.1-0.2,0.2-0.2,0.4-0.2c0.2,0.1,0.2,0.2,0.2,0.4c0,0.1-0.6,1.5-2,2.2c-1.2,0.5-2.1,2.6-2.2,2.7
					C42.1,157.2,42,157.3,41.9,157.3L41.9,157.3z"/>
				<path id="XMLID_65_" class="st2" d="M43.9,158c-0.1,0-0.1,0-0.2-0.1c0,0-1.2-1.2-0.3-3.4c0.1-0.1,0.2-0.2,0.4-0.2
					c0.1,0.1,0.2,0.2,0.2,0.4c-0.7,1.8,0.1,2.7,0.2,2.7c0.1,0.1,0.1,0.3,0,0.4C44,157.9,43.9,158,43.9,158z"/>
			</g>
			<path id="XMLID_63_" class="st2" d="M72.2,158.3c-0.1,0-0.2-0.1-0.3-0.2c0-0.1-3.8-9.1-11.9-13.9c-7.3-4.4-8.4-8.9-8.4-9.1
				s0.1-0.3,0.2-0.3c0.2,0,0.3,0.1,0.3,0.2s1.1,4.5,8.1,8.7c8.3,5,12.1,14.1,12.1,14.2c0.1,0.1,0,0.3-0.2,0.4
				C72.3,158.3,72.2,158.3,72.2,158.3z"/>
			<path id="XMLID_62_" class="st2" d="M69.8,147.6c-0.1,0-0.2,0-0.2-0.1c0,0-2.1-3-6.5-5.8c-4.5-2.9-7-8-7.1-8.2
				c-0.1-0.1,0-0.3,0.1-0.4c0.1-0.1,0.3,0,0.4,0.1c0,0.1,2.5,5.1,6.9,8s6.5,5.8,6.6,6c0.1,0.1,0.1,0.3-0.1,0.4
				C69.9,147.6,69.8,147.6,69.8,147.6z"/>
			<path id="XMLID_61_" class="st2" d="M66.3,138.4L66.3,138.4c-0.2-0.1-2.5-1.3-4-2.8c-1.6-1.6-2.5-4-2.5-4.1
				c-0.1-0.2,0-0.3,0.2-0.4c0.2-0.1,0.3,0,0.4,0.2c0,0,0.9,2.4,2.4,3.9s3.8,2.7,3.8,2.7c0.1,0.1,0.2,0.3,0.1,0.4
				C66.5,138.4,66.4,138.4,66.3,138.4z"/>
			<path id="XMLID_60_" class="st2" d="M50.8,135.2c-0.3,0-0.6,0-0.9-0.1c-3.4-0.4-8.1-5-9-8c0-0.2,0-0.3,0.2-0.4
				c0.2,0,0.3,0,0.4,0.2c0.8,2.8,5.4,7.3,8.5,7.6c1.2,0.1,2.1,0,2.6-0.5c0.4-0.4,0.3-0.9,0.3-0.9c0-0.2,0.1-0.3,0.2-0.3
				c0.2,0,0.3,0.1,0.3,0.2c0,0,0.1,0.8-0.5,1.4C52.5,134.9,51.8,135.2,50.8,135.2z"/>
			<path id="XMLID_59_" class="st2" d="M55.1,133.6c-0.3,0-0.5,0-0.8-0.1c-3.4-0.4-8.1-5-9-8c0-0.2,0-0.3,0.2-0.4
				c0.2,0,0.3,0,0.4,0.2c0.8,2.8,5.4,7.3,8.5,7.6c1.2,0.1,2.1,0,2.5-0.5c0.5-0.5,0.4-1.1,0.4-1.2c0-0.2,0.1-0.3,0.2-0.3
				c0.2,0,0.3,0.1,0.3,0.2c0,0,0.1,0.9-0.6,1.6C56.8,133.4,56.1,133.6,55.1,133.6z"/>
			<path id="XMLID_58_" class="st2" d="M58.3,131.7c-0.3,0-0.5,0-0.8-0.1c-3.4-0.4-8.1-5-9-8c0-0.2,0-0.3,0.2-0.4
				c0.2,0,0.3,0,0.4,0.2c0.8,2.8,5.4,7.3,8.5,7.6c1.2,0.1,2.1,0,2.5-0.5c0.5-0.5,0.4-1.1,0.4-1.2c0-0.2,0.1-0.3,0.3-0.3
				c0.2,0,0.3,0.1,0.3,0.2c0,0,0.1,0.9-0.6,1.6C60.1,131.4,59.3,131.7,58.3,131.7z"/>
			<path id="XMLID_57_" class="st2" d="M62.1,129.7c-0.3,0-0.5,0-0.8,0c-3.4-0.4-8.1-5-9-8c0-0.2,0-0.3,0.2-0.4c0.2,0,0.3,0,0.4,0.2
				c0.8,2.8,5.4,7.3,8.5,7.6c0.4,0,0.7,0.1,1,0c0.2,0,0.3,0.1,0.3,0.3c0,0.2-0.1,0.3-0.3,0.3C62.3,129.7,62.2,129.7,62.1,129.7z"/>
		</g>
	</g>
	<g id="XMLID_20_">
		<g id="XMLID_47_">
			<g id="XMLID_51_">
				<path id="XMLID_54_" class="st2" d="M13.3,61.9c-0.6,0-1.3-0.1-1.9-0.2c-3-0.6-5.3-2.3-6.4-4.9c-1-2.3-0.9-4.9,0.3-6.7
					c3.8-6,10.6-2.4,10.6-2.3c0.1,0.1,0.2,0.2,0.1,0.3c0,0.1-0.2,0.2-0.3,0.2c0,0-5-0.3-6.5,2.6c-0.6,1.2-0.6,2.5,0.2,3.5
					c1,1.3,2.9,1.8,5.1,1.4c3.4-0.7,5.4-4.8,6.8-7.8c0.2-0.5,0.4-0.9,0.7-1.3c2.4-4.7,6.9-7.1,11.4-6.3c4.5,0.9,6.9,3.4,7.3,7.6
					c0.2,1.9,0.1,5.6-2.2,8c-1.5,1.6-3.7,2.3-6.6,2.2c-2.5-0.1-4.6-1.3-5.6-3.2c-0.4-0.9-0.6-1.7-0.6-2.4c-0.4,0.7-0.8,1.4-1.2,2.2
					C22.7,58.5,18.3,61.9,13.3,61.9z M11.4,47.2c-2.4,0-4.2,1.1-5.6,3.2c-1.1,1.7-1.2,4-0.3,6.2c0.6,1.4,2.2,3.9,6,4.6
					c5.4,1,10.5-2.7,12.6-6.7c2.4-4.6,4.1-6.8,6-7.6c1.4-0.5,2.9-0.5,4.1,0.1c1,0.4,1.6,1.2,1.9,2c0.6,1.8,0.2,3.1-0.3,3.8
					c-0.6,0.9-1.7,1.5-2.7,1.6c-1.1,0.1-2.2-0.3-2.8-1.1c-0.5-0.5-0.7-1.2-0.6-1.9c0.1-0.8,0.8-1.5,1.5-1.8c0.7-0.2,1.4,0,2.1,0.6
					c0.1,0.1,0.1,0.3,0,0.4s-0.3,0.1-0.4,0c-0.5-0.5-1-0.6-1.5-0.5c-0.6,0.2-1,0.7-1.1,1.3c-0.1,0.5,0.1,1,0.4,1.4
					c0.5,0.6,1.4,0.9,2.4,0.9c0.9,0,1.7-0.6,2.3-1.3c0.4-0.6,0.8-1.7,0.3-3.3c-0.2-0.7-0.8-1.3-1.6-1.7c-1.1-0.5-2.4-0.5-3.6-0.1
					c-1.3,0.5-2.5,1.8-4,4.1v0.1c0,0-0.1,1.5,0.6,2.9c0.9,1.7,2.8,2.8,5.1,2.9c2.7,0.1,4.7-0.5,6.1-2c2.1-2.2,2.2-5.7,2-7.5
					c-0.4-4-2.5-6.3-6.8-7.1c-4.3-0.8-8.6,1.5-10.8,5.9c-0.2,0.4-0.4,0.9-0.7,1.3c-1.5,3.1-3.5,7.4-7.2,8.1
					c-2.4,0.5-4.5-0.1-5.7-1.6c-0.9-1.2-1-2.7-0.2-4.1c1.2-2.2,3.9-2.7,5.6-2.8c-0.6-0.2-1.5-0.4-2.4-0.5
					C11.8,47.3,11.6,47.2,11.4,47.2z"/>
				<g id="XMLID_52_">
					<path id="XMLID_53_" class="st2" d="M12.6,59.3c-1.6,0-3.2-0.4-4.2-1.2c-3.2-2.6-2.5-6.3-1.3-8c1-1.5,2.8-2.3,5.2-2.5
						c1.8-0.1,3.2,0.2,3.3,0.2c0.2,0,0.3,0.2,0.2,0.3c0,0.2-0.2,0.3-0.3,0.2c-0.1,0-5.6-1.3-7.8,2c-1.1,1.6-1.7,4.9,1.2,7.3
						c2.2,1.8,7.1,1.3,9.4-0.9c2.5-2.4,4.1-4.9,5.4-7.1c1.1-1.8,2.1-3.4,3.4-4.5c2.7-2.4,6.6-2,8.4-1c2.5,1.4,2.6,4.5,2.6,4.7
						c0,0.2-0.1,0.3-0.3,0.3c-0.1,0-0.3-0.1-0.3-0.3c0,0-0.1-2.9-2.3-4.2c-1.6-0.9-5.2-1.3-7.7,0.9c-1.2,1.1-2.2,2.6-3.3,4.4
						c-1.4,2.2-3,4.8-5.5,7.2C17.1,58.5,14.8,59.3,12.6,59.3z"/>
				</g>
			</g>
			<g id="XMLID_48_">
				<path id="XMLID_50_" class="st2" d="M80.7,61.9c-5,0-9.4-3.5-11.3-7.2c-0.4-0.8-0.8-1.5-1.2-2.2c-0.1,0.6-0.2,1.5-0.6,2.4
					c-1,1.9-3.1,3.1-5.6,3.2c-2.8,0.1-5.1-0.6-6.6-2.2c-2.3-2.4-2.4-6-2.2-8c0.4-4.2,2.8-6.7,7.3-7.6c4.6-0.9,9.1,1.6,11.4,6.3
					c0.2,0.4,0.4,0.9,0.7,1.3c1.4,3,3.4,7.1,6.8,7.8c2.2,0.5,4.1-0.1,5.1-1.4c0.8-1,0.8-2.3,0.2-3.5c-1.5-2.8-6.4-2.6-6.5-2.6
					s-0.3-0.1-0.3-0.2c0-0.1,0-0.3,0.1-0.3s6.8-3.6,10.6,2.3c1.2,1.8,1.3,4.4,0.3,6.7c-1.1,2.6-3.4,4.4-6.4,4.9
					C82,61.9,81.3,61.9,80.7,61.9z M62,46.5c0.7,0,1.3,0.1,2,0.4c1.9,0.7,3.6,2.9,6,7.6c2,4,7.2,7.7,12.6,6.7c3.8-0.7,5.4-3.2,6-4.6
					c0.9-2.1,0.8-4.5-0.3-6.2c-1.5-2.3-3.6-3.4-6.2-3.2c-0.9,0.1-1.8,0.3-2.4,0.5c1.7,0.1,4.5,0.7,5.6,2.8c0.7,1.4,0.7,2.9-0.2,4.1
					c-1.1,1.5-3.3,2.1-5.7,1.6c-3.7-0.8-5.7-5-7.2-8.1c-0.2-0.5-0.4-0.9-0.7-1.3c-2.3-4.4-6.5-6.8-10.8-5.9
					c-4.3,0.8-6.5,3.1-6.8,7.1c-0.2,1.8-0.1,5.3,2,7.5c1.4,1.5,3.5,2.1,6.1,2c2.3-0.1,4.2-1.2,5.1-2.9c0.7-1.4,0.6-2.9,0.6-2.9v-0.1
					c-1.5-2.4-2.7-3.7-4-4.1c-1.2-0.5-2.5-0.4-3.6,0.1c-0.8,0.4-1.4,1-1.6,1.7c-0.6,1.6-0.2,2.7,0.3,3.3c0.5,0.8,1.4,1.3,2.3,1.3
					s1.8-0.3,2.4-0.9c0.4-0.4,0.5-0.9,0.4-1.4c-0.1-0.6-0.6-1.2-1.1-1.3c-0.5-0.2-1,0-1.5,0.5c-0.1,0.1-0.3,0.1-0.4,0
					s-0.1-0.3,0-0.4c0.6-0.6,1.4-0.8,2.1-0.6c0.8,0.2,1.4,1,1.5,1.8c0.1,0.7-0.1,1.4-0.6,1.9c-0.6,0.7-1.7,1.1-2.8,1.1
					c-1-0.1-2.1-0.7-2.7-1.6c-0.5-0.7-1-2-0.3-3.8c0.3-0.9,1-1.6,1.9-2C60.5,46.7,61.2,46.5,62,46.5z"/>
				<path id="XMLID_49_" class="st2" d="M81.1,59.3c-2.2,0-4.6-0.7-6-2.1c-2.6-2.4-4.2-5-5.5-7.2c-1.1-1.8-2-3.3-3.3-4.4
					c-2.5-2.2-6.1-1.9-7.7-0.9c-2.2,1.3-2.3,4.2-2.3,4.2c0,0.2-0.1,0.3-0.3,0.3c-0.2,0-0.3-0.1-0.3-0.3c0-0.1,0.1-3.2,2.6-4.7
					c1.8-1,5.7-1.4,8.4,1c1.3,1.1,2.2,2.7,3.4,4.5c1.4,2.2,2.9,4.7,5.4,7.1c2.3,2.2,7.3,2.6,9.4,0.9c2.9-2.3,2.2-5.7,1.2-7.3
					c-2.2-3.2-7.7-2-7.8-2c-0.2,0-0.3-0.1-0.3-0.2c0-0.2,0.1-0.3,0.2-0.3s1.5-0.3,3.3-0.2c2.4,0.1,4.1,1,5.2,2.5
					c1.2,1.7,1.9,5.5-1.3,8C84.3,58.9,82.7,59.3,81.1,59.3z"/>
			</g>
		</g>
		<g id="XMLID_21_">
			<g id="XMLID_42_">
				<path id="XMLID_46_" class="st2" d="M47,55.6c0,0,0-0.1,0-0.3V38.9c0-0.2,0-0.3,0-0.3s0,0.1,0,0.3v16.3C47,55.4,47,55.6,47,55.6
					z"/>
				<g id="XMLID_43_">
					<path id="XMLID_45_" class="st2" d="M41.6,58.7c-0.3,0-0.7,0-1.1-0.1c-0.2,0-0.3-0.2-0.2-0.3c0-0.2,0.2-0.3,0.3-0.2
						c4.2,0.7,6.2-2.9,6.2-2.9c0.1-0.1,0.3-0.2,0.4-0.1c0.1,0.1,0.2,0.3,0.1,0.4C47.2,55.4,45.4,58.7,41.6,58.7z"/>
					<path id="XMLID_44_" class="st2" d="M52.4,58.7c-3.8,0-5.7-3.3-5.7-3.3c-0.1-0.1,0-0.3,0.1-0.4c0.1-0.1,0.3,0,0.4,0.1
						s2,3.6,6.2,2.9c0.2,0,0.3,0.1,0.3,0.2c0,0.2-0.1,0.3-0.2,0.3C53.2,58.7,52.8,58.7,52.4,58.7z"/>
				</g>
			</g>
			<g id="XMLID_40_">
				<path id="XMLID_41_" class="st2" d="M47,24c0,0,0-0.1,0-0.3v-3.9c0-0.2,0-0.3,0-0.3s0,0.1,0,0.3v3.9C47,23.8,47,24,47,24z"/>
			</g>
			<g id="XMLID_31_">
				<g id="XMLID_34_">
					<g id="XMLID_37_">
						<g id="XMLID_38_">
							<path id="XMLID_39_" class="st2" d="M40.9,58.7c-0.2,0-0.3-0.1-0.5-0.2c-0.3-0.3-0.2-0.7,0-0.9c0,0,3.8-3.8,3-9.8
								c-0.7-6.1-4.7-9.4-11.7-9.8c-0.4,0-0.6-0.3-0.6-0.7c0-0.2,0-1.8,0.2-2.5c0.3-1.3,1-2.4,1.1-2.5s0.2-0.2,0.4-0.3
								c0.2-0.1,5.3-1.3,8.4,1.6c0.3,0.2,0.3,0.7,0,0.9c-0.2,0.3-0.7,0.3-0.9,0c-2.3-2.1-6-1.5-7-1.3c-0.2,0.4-0.6,1.1-0.7,1.8
								c-0.1,0.4-0.1,1.1-0.2,1.7c1.4,0.1,4,0.4,6.4,1.7c3.4,1.8,5.4,4.9,5.9,9.2c0.8,6.7-3.2,10.7-3.4,10.9
								C41.2,58.6,41,58.7,40.9,58.7z"/>
						</g>
					</g>
					<path id="XMLID_36_" class="st2" d="M45,35.5L45,35.5c-0.4,0-0.7-0.4-0.7-0.7c0-0.1,0.4-3.4-0.9-6.9c-1.1-3.1-2.8-4.4-2.8-4.4
						c-0.3-0.2-0.4-0.6-0.1-0.9c0.1-0.2,2.5-3.3,6.5-3.6c0.4,0,0.7,0.3,0.7,0.6c0,0.4-0.3,0.7-0.6,0.7c-2.6,0.2-4.3,1.8-5.1,2.5
						c0.7,0.7,1.9,2.1,2.8,4.6c1.4,3.8,1,7.3,1,7.5C45.6,35.3,45.4,35.5,45,35.5z"/>
					<path id="XMLID_35_" class="st2" d="M40.8,34.8c-0.2,0-0.5-0.1-0.6-0.4c-1.6-3.4-5.9-3.9-6-3.9c-0.2,0-0.3-0.1-0.5-0.3
						c-0.1-0.1-0.2-0.3-0.1-0.5c0-0.1,0.3-1.5,1.5-2.8c1.3-1.5,2.9-2.3,2.9-2.4c0.1-0.1,0.3-0.1,0.5-0.1s4.9,1.2,6.9,6.3
						c0.1,0.3,0,0.7-0.4,0.9c-0.3,0.1-0.7,0-0.9-0.4c-1.6-3.8-4.9-5.1-5.8-5.4C38,26,37,26.7,36.1,27.7c-0.5,0.6-0.8,1.1-1,1.6
						c1.5,0.3,4.8,1.4,6.2,4.6c0.1,0.3,0,0.7-0.3,0.9C41,34.7,40.9,34.8,40.8,34.8z"/>
				</g>
				<path id="XMLID_33_" class="st2" d="M41,30.2c-0.1,0-0.2,0-0.2-0.1c-1.4-1.6-4.5-3-4.5-3c-0.2-0.1-0.3-0.2-0.2-0.4
					c0.1-0.1,0.2-0.2,0.4-0.2c0.1,0.1,3.3,1.4,4.7,3.2c0.1,0.1,0.1,0.3,0,0.4C41.1,30.2,41,30.2,41,30.2z"/>
				<path id="XMLID_32_" class="st2" d="M37.4,35.8C37.4,35.8,37.3,35.8,37.4,35.8c-2.7-0.8-5.2-0.6-5.3-0.6c-0.2,0-0.3-0.1-0.3-0.3
					s0.1-0.3,0.3-0.3c0.1,0,2.7-0.2,5.4,0.6c0.2,0,0.2,0.2,0.2,0.4C37.6,35.7,37.5,35.8,37.4,35.8z"/>
			</g>
			<g id="XMLID_22_">
				<g id="XMLID_25_">
					<g id="XMLID_28_">
						<g id="XMLID_29_">
							<path id="XMLID_30_" class="st2" d="M53.1,58.7c-0.2,0-0.3-0.1-0.5-0.2c-0.2-0.2-4.2-4.2-3.4-10.9c0.5-4.3,2.5-7.4,5.9-9.2
								c2.4-1.3,5-1.6,6.4-1.7c0-0.6-0.1-1.3-0.2-1.7c-0.2-0.7-0.5-1.5-0.7-1.8c-1-0.2-4.7-0.8-7,1.3c-0.3,0.2-0.7,0.2-0.9,0
								c-0.2-0.3-0.2-0.7,0-0.9c3.2-2.9,8.2-1.6,8.4-1.6c0.2,0,0.3,0.1,0.4,0.3c0,0,0.8,1.2,1.1,2.5c0.2,0.8,0.2,2.4,0.2,2.5
								c0,0.4-0.3,0.6-0.6,0.7c-7,0.4-11,3.7-11.7,9.8s3,9.8,3,9.8c0.3,0.3,0.3,0.7,0,0.9C53.5,58.6,53.3,58.7,53.1,58.7z"/>
						</g>
					</g>
					<path id="XMLID_27_" class="st2" d="M49,35.5c-0.3,0-0.6-0.2-0.6-0.6c0-0.1-0.4-3.7,1-7.5c0.8-2.4,2-3.9,2.6-4.5
						c-0.7-0.8-2.5-2.4-5.1-2.6c-0.4,0-0.6-0.3-0.6-0.7c0.1-0.3,0.4-0.6,0.7-0.6c4,0.3,6.3,3.4,6.4,3.5s0.1,0.3,0.1,0.5
						s-0.1,0.3-0.3,0.4c0,0-1.7,1.3-2.8,4.4c-1.3,3.5-0.9,6.9-0.9,6.9C49.7,35.1,49.4,35.5,49,35.5L49,35.5z"/>
					<path id="XMLID_26_" class="st2" d="M53.2,34.8c-0.1,0-0.2,0-0.3-0.1c-0.3-0.1-0.5-0.5-0.3-0.9c1.4-3.2,4.7-4.2,6.2-4.6
						c-0.2-0.4-0.5-1-1-1.6C57,26.7,56,26,55.5,25.8c-0.9,0.3-4.2,1.6-5.8,5.4c-0.1,0.3-0.5,0.5-0.9,0.4c-0.3-0.1-0.5-0.5-0.4-0.9
						c2.1-5,6.7-6.2,6.9-6.3c0.2,0,0.3,0,0.5,0.1c0.1,0,1.6,0.9,2.9,2.4c1.2,1.3,1.5,2.8,1.5,2.8c0,0.2,0,0.4-0.1,0.5
						s-0.3,0.2-0.5,0.3c0,0-4.4,0.5-5.9,3.9C53.7,34.6,53.5,34.8,53.2,34.8z"/>
				</g>
				<path id="XMLID_24_" class="st2" d="M53,30.2c-0.1,0-0.1,0-0.2-0.1c-0.1-0.1-0.1-0.3,0-0.4c1.4-1.8,4.6-3.1,4.7-3.2
					s0.3,0,0.4,0.2c0.1,0.1,0,0.3-0.2,0.4c0,0-3.1,1.3-4.5,3C53.2,30.2,53.1,30.2,53,30.2z"/>
				<path id="XMLID_23_" class="st2" d="M56.6,35.8c-0.1,0-0.2-0.1-0.3-0.2c0-0.2,0-0.3,0.2-0.4c2.7-0.8,5.3-0.7,5.4-0.6
					c0.2,0,0.3,0.1,0.3,0.3s-0.2,0.3-0.3,0.3C61.8,35.2,59.3,35,56.6,35.8C56.7,35.8,56.6,35.8,56.6,35.8z"/>
			</g>
		</g>
	</g>
	<g id="XMLID_2_">
		<g id="XMLID_12_">
			<g id="XMLID_13_">
				<path id="XMLID_19_" class="st2" d="M-14.5,198.6c-0.3,0-0.5-0.2-0.6-0.4c0-0.1-0.3-0.8,0.2-1.6c0.6-1,2.1-1.6,4.5-1.8l0.7-0.1
					c2.4-0.2,5.5-0.5,8-1c3.3-0.6,4-1.2,4.1-1.4c-0.2-0.2-1.4-1-7-2.2c-3.7-0.8-8-1.5-10.6-1.9h-0.2c-5-0.8-7-1.6-7.4-2.9
					c-0.2-0.7,0.2-1.5,1.2-2.2c1.2-0.9,3.3-1.2,6.3-0.9c2.1,0.2,3.9,0.6,4,0.7c0.4,0.1,0.6,0.4,0.5,0.8c-0.1,0.4-0.4,0.6-0.8,0.5
					c-1.9-0.5-7.3-1.4-9.2,0c-0.6,0.5-0.7,0.8-0.7,0.8c0.1,0.2,0.7,1,6.3,1.9h0.2c15.8,2.5,18.8,3.8,18.8,5.3
					c0,2.1-4.3,2.8-13.2,3.7l-0.7,0.1c-2.6,0.3-3.3,0.9-3.5,1.2c-0.1,0.2-0.1,0.4-0.1,0.4c0.1,0.3,0,0.7-0.4,0.9
					C-14.4,198.6-14.5,198.6-14.5,198.6z"/>
				<path id="XMLID_18_" class="st2" d="M-14.7,198.9h-0.1l-0.8-0.1c-4.6-0.7-7.6-1.6-7.4-3.4c0-0.4,0.4-0.6,0.7-0.6
					c0.4,0,0.6,0.4,0.6,0.7c0,0.1,0.1,1,6.3,2l0.8,0.1c0.4,0.1,0.6,0.4,0.5,0.7C-14.1,198.6-14.4,198.9-14.7,198.9z"/>
				<path id="XMLID_17_" class="st2" d="M-3.9,205.8c-0.3,0-0.6-0.2-0.6-0.6c0-0.4,0.2-0.7,0.6-0.7c2.2-0.3,3.7-0.6,4.8-0.9
					c1.5-0.5,1.5-0.8,1.5-0.8c0-0.4,0.3-0.7,0.7-0.7s0.7,0.3,0.7,0.7C3.6,204.5,0.7,205.2-3.9,205.8L-3.9,205.8z"/>
				<path id="XMLID_16_" class="st2" d="M3,203.4c-0.4,0-1-0.3-1-0.7v-10.4c0-0.4,0.6-0.7,1-0.7s1,0.3,1,0.7v10.4
					C4,203.1,3.4,203.4,3,203.4z"/>
				<path id="XMLID_15_" class="st2" d="M-22.5,196c-0.4,0-0.5-0.3-0.5-0.7V185c0-0.4,0.1-0.7,0.5-0.7s0.5,0.3,0.5,0.7v10.3
					C-22,195.7-22.1,196-22.5,196z"/>
				<path id="XMLID_14_" class="st2" d="M-11.5,188.9c-0.4,0-0.5-0.3-0.5-0.7v-4.7c0-0.4,0.1-0.7,0.5-0.7s0.5,0.3,0.5,0.7v4.7
					C-11,188.6-11.1,188.9-11.5,188.9z"/>
			</g>
		</g>
		<g id="XMLID_4_">
			<g id="XMLID_5_">
				<path id="XMLID_11_" class="st2" d="M109.1,198.2l-1.2-0.5l0,0c0,0,0.1-0.2-0.1-0.4c-0.2-0.3-0.9-0.9-3.4-1.2l-0.7-0.1
					c-9-0.9-13.2-1.6-13.2-3.7c0-1.5,3-2.8,18.8-5.3h0.2c5.6-0.9,6.2-1.7,6.3-1.9c0-0.1-0.1-0.4-0.7-0.8c-1.9-1.4-7.2-0.5-9.2,0
					c-0.3,0.1-0.7-0.1-0.8-0.5s0.1-0.7,0.5-0.8c0.1,0,1.9-0.5,4-0.7c3-0.3,5.1,0,6.3,0.9c1,0.7,1.4,1.5,1.2,2.2
					c-0.3,1.3-2.4,2.1-7.4,2.9h-0.2c-2.6,0.4-6.9,1.1-10.6,1.9c-5.6,1.2-6.8,1.9-7,2.2c0.1,0.2,0.7,0.8,4.1,1.4c2.5,0.4,5.5,0.7,8,1
					l0.7,0.1c2.3,0.2,3.8,0.9,4.5,1.8C109.4,197.4,109.2,198.1,109.1,198.2z"/>
				<path id="XMLID_10_" class="st2" d="M108.7,198.9c-0.3,0-0.6-0.2-0.6-0.6c-0.1-0.4,0.2-0.7,0.5-0.7l0.8-0.1c6.3-1,6.3-1.9,6.3-2
					c0-0.4,0.2-0.7,0.6-0.7c0.4,0,0.7,0.2,0.7,0.6c0.2,1.8-2.8,2.7-7.4,3.4l-0.8,0.1C108.8,198.9,108.8,198.9,108.7,198.9z"/>
				<path id="XMLID_9_" class="st2" d="M97.9,205.8L97.9,205.8c-4.7-0.6-7.5-1.3-7.5-3c0-0.4,0.3-0.7,0.7-0.7s0.7,0.3,0.7,0.7
					c0,0,0,0.4,1.5,0.8c1.1,0.3,2.6,0.6,4.8,0.9c0.4,0,0.6,0.4,0.6,0.7C98.5,205.5,98.3,205.8,97.9,205.8z"/>
				<path id="XMLID_8_" class="st2" d="M91,203.4c-0.4,0-1-0.3-1-0.7v-10.4c0-0.4,0.6-0.7,1-0.7s1,0.3,1,0.7v10.4
					C92,203.1,91.4,203.4,91,203.4z"/>
				<path id="XMLID_7_" class="st2" d="M116.5,196c-0.4,0-0.5-0.3-0.5-0.7V185c0-0.4,0.1-0.7,0.5-0.7s0.5,0.3,0.5,0.7v10.3
					C117,195.7,116.9,196,116.5,196z"/>
				<path id="XMLID_6_" class="st2" d="M105.5,188.9c-0.4,0-0.5-0.3-0.5-0.7v-4.7c0-0.4,0.1-0.7,0.5-0.7s0.5,0.3,0.5,0.7v4.7
					C106,188.6,105.9,188.9,105.5,188.9z"/>
			</g>
		</g>
		<path id="XMLID_3_" class="st2" d="M47,239c-15,0-29.5-2.6-43.1-7.6c-6.6-2.4-12.8-5.5-18.7-9c-0.2-0.1-0.2-0.3-0.2-0.6V198
			c0-0.3,0-0.5,0.2-0.6s0.4-0.1,0.6,0.1c16.8,13.4,38.5,20.7,61.2,20.7s44.5-7.4,61.2-20.7c0.2-0.2,0.3-0.2,0.5-0.1
			c0.2,0.1,0.2,0.3,0.2,0.6v23.9c0,0.2,0,0.4-0.2,0.6c-5.9,3.5-12.2,6.5-18.8,9C76.4,236.4,62,239,47,239z M-14,221.5
			c6,3.4,11.9,6.3,18.3,8.7c13.5,5,27.9,7.6,42.7,7.6s29.2-2.5,42.7-7.6c6.4-2.4,12.3-5.3,18.3-8.7v-22.2c-17,13-38.4,20.2-61,20.2
			s-44-7.2-61-20.2V221.5z"/>
	</g>
</g>
</svg>
