<?xml version="1.0" encoding="utf-8"?>
<!-- Generator: Adobe Illustrator 19.0.0, SVG Export Plug-In . SVG Version: 6.00 Build 0)  -->
<svg version="1.1" id="Слой_1" xmlns="http://www.w3.org/2000/svg" xmlns:xlink="http://www.w3.org/1999/xlink" x="0px" y="0px"
	 viewBox="0 0 175 220" style="enable-background:new 0 0 175 220;" xml:space="preserve">
<style type="text/css">
	.st0{fill:#5F4D9B;}
</style>
<g id="XMLID_2908_">
	<g id="XMLID_4088_">
		<g id="XMLID_4120_">
			<g id="XMLID_4131_">
				<path id="XMLID_4156_" class="st0" d="M29,149.3c0,0.4-0.3,0.7-0.7,0.7H0.7c-0.4,0-0.7-0.3-0.7-0.7v-4.7c0-0.4,0.3-0.7,0.7-0.7
					h27.7c0.4,0,0.7,0.3,0.7,0.7V149.3z M1,149h26v-3H1V149z"/>
				<path id="XMLID_4153_" class="st0" d="M25.5,145.1c-0.2,0-0.5-0.1-0.5-0.3v-1c0-1.8-1.6-2.8-3.6-2.8H6.6c-1.9,0-3.6,1-3.6,2.8v1
					c0,0.2-0.3,0.3-0.5,0.3S2,145,2,144.8v-1c0-2.1,2.3-3.8,4.6-3.8h14.8c2.3,0,4.6,1.7,4.6,3.8v1C26,145,25.7,145.1,25.5,145.1z"/>
				<g id="XMLID_4148_">
					<path id="XMLID_4152_" class="st0" d="M21.4,55H6.6C4.3,55,2,53.7,2,51.5v-1c0-0.2,0.3-0.3,0.5-0.3S3,50.4,3,50.5v1
						C3,53.4,4.7,55,6.6,55H21.4c1.9,0,3.6-1.6,3.6-3.5v-1c0-0.2,0.3-0.3,0.5-0.3s0.5,0.1,0.5,0.3v1C26,53.7,23.7,55,21.4,55z"/>
					<path id="XMLID_4149_" class="st0" d="M29,50.3c0,0.4-0.3,0.7-0.7,0.7H0.7C0.3,51,0,50.7,0,50.3v-4.7C0,45.3,0.3,45,0.7,45
						h27.7c0.4,0,0.7,0.3,0.7,0.7V50.3z M1,50h26v-4H1V50z"/>
				</g>
				<path id="XMLID_4145_" class="st0" d="M21.7,63H6.2c-1.3,0-2.3-1.2-2.3-2.5c0-1.3,1-2.5,2.3-2.5h15.5c1.3,0,2.3,1.2,2.3,2.5
					C24,61.8,23,63,21.7,63z M6.2,59c-0.9,0-1.7,0.6-1.7,1.5c0,0.9,0.8,1.5,1.7,1.5h15.5c0.9,0,1.7-0.6,1.7-1.5
					c0-0.9-0.8-1.5-1.7-1.5H6.2z"/>
				<path id="XMLID_4144_" class="st0" d="M22.2,58.8c-0.2,0-0.3-0.1-0.3-0.3l0-3.3c0-0.2,0.1-0.3,0.3-0.3l0,0
					c0.2,0,0.3,0.1,0.3,0.3l0,3.3C22.5,58.6,22.4,58.8,22.2,58.8L22.2,58.8z"/>
				<path id="XMLID_4143_" class="st0" d="M5.5,58.8c-0.2,0-0.5-0.1-0.5-0.3v-3.3c0-0.2,0.3-0.3,0.5-0.3S6,55,6,55.2v3.3
					C6,58.6,5.7,58.8,5.5,58.8z"/>
				<path id="XMLID_4140_" class="st0" d="M22,65.7c0,0.2-0.1,0.3-0.3,0.3H5.3C5.1,66,5,65.9,5,65.7v-3.4C5,62.1,5.1,62,5.3,62h16.4
					c0.2,0,0.3,0.1,0.3,0.3V65.7z M6,66h16v-3H6V66z"/>
				
					<rect id="XMLID_4139_" x="6.2" y="66.2" transform="matrix(0.9996 2.951384e-002 -2.951384e-002 0.9996 3.0535 -0.1563)" class="st0" width="1.3" height="74.4"/>
				
					<rect id="XMLID_4138_" x="-15.8" y="102.7" transform="matrix(2.418724e-002 0.9997 -0.9997 2.418724e-002 124.2105 79.4661)" class="st0" width="74.4" height="1.3"/>
				<g id="XMLID_4133_">
					<path id="XMLID_4137_" class="st0" d="M10,137C10,137,10,137,10,137c-0.2,0-0.3-0.1-0.3-0.3L11,69.2c0-0.2,0.1-0.3,0.3-0.3
						c0.2,0,0.3,0.1,0.3,0.3l-1.3,67.5C10.3,136.9,10.2,137,10,137z"/>
					<path id="XMLID_4134_" class="st0" d="M18,137c-0.2,0-0.3-0.1-0.3-0.3l-1.3-67.5c0-0.2,0.1-0.3,0.3-0.3c0.2,0,0.3,0.1,0.3,0.3
						l1.3,67.5C18.3,136.9,18.2,137,18,137C18,137,18,137,18,137z"/>
				</g>
				<path id="XMLID_4132_" class="st0" d="M14,137c0,0,0-0.1,0-0.3V69.2c0-0.2,0-0.3,0-0.3s0,0.1,0,0.3v67.5C14,136.9,14,137,14,137
					z"/>
			</g>
			<g id="XMLID_4121_">
				<g id="XMLID_4125_">
					<path id="XMLID_4130_" class="st0" d="M15.3,42.4c-0.3,0-0.7,0-1.1-0.1c-4.1-0.5-7.1-4-7.1-8.1c0-4.5,2.9-7.8,7.1-8
						c1,0,3.9-0.2,6.2,1.7c0.1,0.1,0.2,0.3,0.1,0.4c-0.1,0.1-0.3,0.2-0.4,0.1c-2.2-1.7-4.9-1.6-5.8-1.6c-3.9,0.2-6.6,3.2-6.6,7.4
						c0,3.9,2.8,7.1,6.6,7.5c2.1,0.2,4-0.3,5.8-1.7c0.1-0.1,0.3-0.1,0.4,0.1c0.1,0.1,0.1,0.3-0.1,0.4C18.8,41.8,17.1,42.4,15.3,42.4
						z"/>
					<g id="XMLID_4126_">
						<path id="XMLID_4127_" class="st0" d="M14,43.3c-5,0-9-4-9-9s4-9,9-9c2.4,0,4.7,1,6.5,2.7c0.1,0.1,0.1-0.1,0.1,0
							c0,0.2-0.1,0-0.3,0c0,0,0,0,0,0c-0.1,0-0.1,0.2-0.2,0.2c-1.1-0.7-2.3-0.9-3.6-0.9c-3.8,0-6.9,3.1-6.9,6.9s3.1,6.9,6.9,6.9
							c1.3,0,2.5-0.3,3.6-1c0.1-0.1,0.3,0,0.4,0.1c0.1,0.1,0.1,0.3,0,0.4C18.8,42.3,16.5,43.3,14,43.3z M14,25.8
							c-4.7,0-8.4,3.8-8.4,8.4c0,4.7,3.8,8.4,8.4,8.4c1.6,0,3.1-0.4,4.5-1.3c-0.6,0.2-1.3,0.3-1.9,0.3c-4.1,0-7.4-3.3-7.4-7.4
							c0-4.1,3.3-7.4,7.4-7.4c0.7,0,1.3,0.1,1.9,0.3C17.1,26.3,15.6,25.8,14,25.8z"/>
					</g>
				</g>
				<path id="XMLID_4122_" class="st0" d="M14,43.3c-5,0-9-4-9-9s4-9,9-9s9,4,9,9S19,43.3,14,43.3z M14,25.8c-4.7,0-8.4,3.8-8.4,8.4
					c0,4.7,3.8,8.4,8.4,8.4s8.4-3.8,8.4-8.4C22.5,29.6,18.7,25.8,14,25.8z"/>
			</g>
		</g>
		<g id="XMLID_4089_">
			<g id="XMLID_4096_">
				<path id="XMLID_4117_" class="st0" d="M175,149.3c0,0.4-0.3,0.7-0.7,0.7h-27.7c-0.4,0-0.7-0.3-0.7-0.7v-4.7
					c0-0.4,0.3-0.7,0.7-0.7h27.7c0.4,0,0.7,0.3,0.7,0.7V149.3z M147,149h26v-3h-26V149z"/>
				<path id="XMLID_4116_" class="st0" d="M171,145.1c0,0,0-0.1,0-0.3v-1c0-1.8-1.7-2.8-3.6-2.8h-14.8c-1.9,0-3.6,1-3.6,2.8v1
					c0,0.2-0.3,0.3-0.5,0.3s-0.5-0.1-0.5-0.3v-1c0-2.1,2.3-3.8,4.6-3.8h14.8c2.3,0,3.6,1.7,3.6,3.8v1C171,145,171,145.1,171,145.1z"
					/>
				<g id="XMLID_4111_">
					<path id="XMLID_4115_" class="st0" d="M167.4,55h-14.8c-2.3,0-4.6-1.3-4.6-3.5v-1c0-0.2,0.3-0.3,0.5-0.3s0.5,0.1,0.5,0.3v1
						c0,1.8,1.6,3.5,3.6,3.5H167.4c1.9,0,3.6-1.6,3.6-3.5v-1c0-0.2,0-0.3,0-0.3s0,0.1,0,0.3v1C171,53.7,169.7,55,167.4,55z"/>
					<path id="XMLID_4112_" class="st0" d="M175,50.3c0,0.4-0.3,0.7-0.7,0.7h-27.7c-0.4,0-0.7-0.3-0.7-0.7v-4.7
						c0-0.4,0.3-0.7,0.7-0.7h27.7c0.4,0,0.7,0.3,0.7,0.7V50.3z M147,50h26v-4h-26V50z"/>
				</g>
				<path id="XMLID_4108_" class="st0" d="M167.7,63h-15.5c-1.3,0-2.3-1.2-2.3-2.5c0-1.3,1-2.5,2.3-2.5h15.5c1.3,0,2.3,1.2,2.3,2.5
					C170,61.8,169,63,167.7,63z M152.2,59c-0.9,0-1.7,0.6-1.7,1.5c0,0.9,0.8,1.5,1.7,1.5h15.5c0.9,0,1.7-0.6,1.7-1.5
					c0-0.9-0.8-1.5-1.7-1.5H152.2z"/>
				<path id="XMLID_4107_" class="st0" d="M168.2,58.8c-0.2,0-0.3-0.1-0.3-0.3l0-3.3c0-0.2,0.1-0.3,0.3-0.3l0,0
					c0.2,0,0.3,0.1,0.3,0.3l0,3.3C168.5,58.6,168.4,58.8,168.2,58.8L168.2,58.8z"/>
				<path id="XMLID_4106_" class="st0" d="M151.5,58.8c-0.2,0-0.5-0.1-0.5-0.3v-3.3c0-0.2,0.3-0.3,0.5-0.3s0.5,0.1,0.5,0.3v3.3
					C152,58.6,151.7,58.8,151.5,58.8z"/>
				<path id="XMLID_4103_" class="st0" d="M168,65.7c0,0.2-0.1,0.3-0.3,0.3h-16.4c-0.2,0-0.3-0.1-0.3-0.3v-3.4
					c0-0.2,0.1-0.3,0.3-0.3h16.4c0.2,0,0.3,0.1,0.3,0.3V65.7z M152,66h16v-3h-16V66z"/>
				
					<rect id="XMLID_4102_" x="152.1" y="66.2" transform="matrix(0.9996 2.951384e-002 -2.951384e-002 0.9996 3.1171 -4.4646)" class="st0" width="1.3" height="74.4"/>
				
					<rect id="XMLID_4101_" x="130.2" y="102.7" transform="matrix(2.419105e-002 0.9997 -0.9997 2.419105e-002 266.6541 -66.4665)" class="st0" width="74.4" height="1.3"/>
				<g id="XMLID_4098_">
					<path id="XMLID_4100_" class="st0" d="M156,137L156,137c-0.2,0-0.3-0.1-0.3-0.3l1.3-67.5c0-0.2,0.1-0.3,0.3-0.3
						c0.2,0,0.3,0.1,0.3,0.3l-1.3,67.5C156.3,136.9,156.2,137,156,137z"/>
					<path id="XMLID_4099_" class="st0" d="M164,137c-0.2,0-0.3-0.1-0.3-0.3l-1.3-67.5c0-0.2,0.1-0.3,0.3-0.3c0.2,0,0.3,0.1,0.3,0.3
						l1.3,67.5C164.3,136.9,164.1,137,164,137C164,137,164,137,164,137z"/>
				</g>
				<path id="XMLID_4097_" class="st0" d="M160,137c0,0,0-0.1,0-0.3V69.2c0-0.2,0-0.3,0-0.3s0,0.1,0,0.3v67.5
					C160,136.9,160,137,160,137z"/>
			</g>
			<g id="XMLID_4092_">
				<path id="XMLID_4093_" class="st0" d="M160,43.3c-5,0-9-4-9-9s4-9,9-9s9,4,9,9S165,43.3,160,43.3z M160,25.8
					c-4.7,0-8.4,3.8-8.4,8.4c0,4.7,3.8,8.4,8.4,8.4s8.4-3.8,8.4-8.4C168.4,29.6,164.6,25.8,160,25.8z"/>
			</g>
			<g id="XMLID_4090_">
				<path id="XMLID_4091_" class="st0" d="M160,36.1c-4.3,0-8.8-1.2-8.8-3.2c0-0.2,0.1-0.3,0.3-0.3c0.2,0,0.3,0.1,0.3,0.3
					c0,1.5,4.3,2.6,8.3,2.6c3.9,0,8.3-1.1,8.3-2.6c0-0.2,0.1-0.3,0.3-0.3s0.3,0.1,0.3,0.3C168.8,34.9,164.3,36.1,160,36.1z"/>
			</g>
		</g>
	</g>
	<g id="XMLID_4063_">
		<g id="XMLID_4069_">
			<path id="XMLID_4073_" class="st0" d="M87,180.4c-0.1,0-0.2,0-0.2,0c-0.1,0-13.3-5-26.2-15.6c-7.6-6.2-13.8-13.1-18.2-20.6
				c-5.5-9.3-8.4-19.4-8.4-30.1V47c0-0.2,0.3-0.5,0.5-0.6c0.2-0.1,0.5-0.1,0.7,0.1c7.1,5.1,15.5,7.8,24.2,7.8
				c10,0,19.6-3.6,27.1-10.2c0.2-0.2,0.6-0.2,0.9,0c7.5,6.6,17.1,10.2,27.1,10.2c8.7,0,17.1-2.7,24.2-7.8c0.2-0.1,0.6-0.2,0.8-0.1
				c0.2,0.1,0.5,0.3,0.5,0.6v67.1c0,10.6-2.9,20.8-8.4,30.1c-4.4,7.4-10.5,14.3-18.1,20.6c-13,10.6-26.1,15.6-26.3,15.6
				C87.2,180.4,87.1,180.4,87,180.4z M36,48.3v65.8c0,10.4,2.5,20.3,7.8,29.4c4.3,7.3,10.1,14.1,17.6,20.2
				c11.9,9.7,23.8,14.6,25.6,15.3c1.8-0.7,13.8-5.6,25.6-15.3c7.5-6.1,13.2-12.9,17.5-20.2c5.3-9.1,7.8-19,7.8-29.4V48.3
				c-7,4.8-15.1,7.3-23.7,7.3c-10.1,0-19.7-3.6-27.4-10.1C79.2,52,69.7,55.6,59.6,55.6C51,55.6,43,53.1,36,48.3z"/>
		</g>
		<path id="XMLID_4064_" class="st0" d="M87,176.3c0,0-0.1,0-0.1,0c-0.1-0.1-12.4-5.2-24.4-15.3c-7.1-5.9-12.8-12.3-16.8-19.1
			c-5.1-8.4-7.7-17.4-7.7-26.7V53.1c0-0.1,0.1-0.2,0.2-0.3c0.1-0.1,0.2,0,0.3,0c7,4.7,15.9,5.4,22.8,5.4c9.2,0,18.2-3.3,25.6-9.3
			c0.1-0.1,0.3-0.1,0.4,0c7.3,6,16.4,9.3,25.6,9.3c13.2,0,19.1-2.9,22.8-5.4c0.1-0.1,0.2-0.1,0.3,0c0.1,0.1,0.2,0.1,0.2,0.3v62.2
			c0,9.3-2.6,18.2-7.7,26.7c-4.1,6.7-9.7,13.2-16.8,19.1c-12.1,10.1-24.3,15.2-24.4,15.3C87.1,176.3,87,176.3,87,176.3z M39,53.7
			v61.7c0,9.1,2.3,18,7.4,26.4c4,6.7,9.5,13,16.6,18.9c11.4,9.5,22.9,14.6,24.1,15.1c1.3-0.5,12.8-5.7,24.1-15.2
			c7-5.9,12.4-12.2,16.5-18.9c5-8.3,7.3-17.2,7.3-26.4V53.7c-7,4.6-15.6,5.2-22.5,5.2c-9.2,0-18.2-3.3-25.6-9.3
			c-7.4,6-16.3,9.3-25.5,9.3C48.6,58.8,42,56.1,39,53.7z"/>
	</g>
	<g id="XMLID_3988_">
		<g id="XMLID_4060_">
			<path id="XMLID_4062_" class="st0" d="M79.7,88.4C79.7,88.4,79.7,88.4,79.7,88.4c-0.2,0-0.3-0.2-0.3-0.3c0-0.1,0.2-2.2,3.3-4
				c2.1-1.2,4.6-0.5,4.7-0.4c0.2,0,0.2,0.2,0.2,0.4c0,0.2-0.2,0.2-0.4,0.2c0,0-2.4-0.7-4.3,0.4c-2.8,1.6-3,3.5-3,3.5
				C80,88.3,79.9,88.4,79.7,88.4z"/>
			<path id="XMLID_4061_" class="st0" d="M74.3,88c-0.1,0-0.3,0.1-0.3-0.1c0,0-0.2-1.8-3-3.4c-1.9-1.1-4.2-0.3-4.3-0.3
				c-0.2,0-0.3,0-0.4-0.2c0-0.2,0-0.3,0.2-0.4c0.1,0,2.6-0.8,4.7,0.4c3,1.8,3.2,3.7,3.3,3.8C74.6,88.1,74.5,88,74.3,88
				C74.3,88,74.3,88,74.3,88z"/>
		</g>
		<g id="XMLID_3989_">
			<g id="XMLID_4007_">
				<g id="XMLID_4012_">
					<g id="XMLID_4046_">
						<path id="XMLID_4057_" class="st0" d="M70.2,90.6c-1.8,0-3.2-1.4-3.2-3.2s1.4-3.2,3.2-3.2c1.8,0,3.2,1.4,3.2,3.2
							S72,90.6,70.2,90.6z M70.2,84.7c-1.4,0-2.6,1.2-2.6,2.6c0,1.4,1.2,2.6,2.6,2.6c1.4,0,2.6-1.2,2.6-2.6
							C72.8,85.9,71.6,84.7,70.2,84.7z"/>
						<path id="XMLID_4051_" class="st0" d="M70.2,89.3c-1,0-1.9-0.9-1.9-1.9c0-1,0.9-1.9,1.9-1.9c1,0,1.9,0.9,1.9,1.9
							C72.1,88.4,71.2,89.3,70.2,89.3z M70.2,86.1c-0.7,0-1.3,0.6-1.3,1.3c0,0.7,0.6,1.3,1.3,1.3c0.7,0,1.3-0.6,1.3-1.3
							C71.5,86.6,70.9,86.1,70.2,86.1z"/>
						<path id="XMLID_4050_" class="st0" d="M70.7,87.7c-0.2,0-0.3-0.1-0.3-0.3c0-0.1-0.1-0.2-0.2-0.2c-0.2,0-0.3-0.1-0.3-0.3
							c0-0.2,0.1-0.3,0.3-0.3c0.4,0,0.8,0.3,0.8,0.8C71,87.5,70.8,87.7,70.7,87.7z"/>
					</g>
					<g id="XMLID_4017_">
						<path id="XMLID_4025_" class="st0" d="M84.1,90.6c-1.8,0-3.2-1.4-3.2-3.2s1.4-3.2,3.2-3.2c1.8,0,3.2,1.4,3.2,3.2
							S85.8,90.6,84.1,90.6z M84.1,84.7c-1.4,0-2.6,1.2-2.6,2.6c0,1.4,1.2,2.6,2.6,2.6c1.4,0,2.6-1.2,2.6-2.6
							C86.7,85.9,85.5,84.7,84.1,84.7z"/>
						<path id="XMLID_4021_" class="st0" d="M84.1,89.3c-1,0-1.9-0.9-1.9-1.9c0-1,0.9-1.9,1.9-1.9c1,0,1.9,0.9,1.9,1.9
							C86,88.4,85.1,89.3,84.1,89.3z M84.1,86.1c-0.7,0-1.3,0.6-1.3,1.3c0,0.7,0.6,1.3,1.3,1.3c0.7,0,1.3-0.6,1.3-1.3
							C85.4,86.6,84.8,86.1,84.1,86.1z"/>
						<path id="XMLID_4019_" class="st0" d="M84.5,87.7c-0.2,0-0.3-0.1-0.3-0.3c0-0.1-0.1-0.2-0.2-0.2c-0.2,0-0.3-0.1-0.3-0.3
							c0-0.2,0.1-0.3,0.3-0.3c0.4,0,0.8,0.3,0.8,0.8C84.8,87.5,84.7,87.7,84.5,87.7z"/>
					</g>
					<path id="XMLID_4016_" class="st0" d="M72.8,96.5c-1.3,0-3.2-0.2-4.7-1.2c-1.5-1-6.1-4.8-2.7-12.8c1.9-4.3,7.2-6.5,11.6-6.4
						c0.2,0,0.3,0.1,0.3,0.3c0,0.2-0.1,0.3-0.3,0.3c-4.1-0.1-9.3,1.9-11,6c-3.2,7.5,1.1,11.1,2.5,12.1c2.3,1.5,5.7,1,5.7,1
						c0.2,0,0.3,0.1,0.3,0.2c0,0.2-0.1,0.3-0.2,0.3C74.2,96.4,73.7,96.5,72.8,96.5z"/>
					<path id="XMLID_4015_" class="st0" d="M76.5,94.5c-0.1,0-0.1,0-0.2,0c-0.1,0-1.5-1-1.6-3c-0.1-2.9,1.9-3.8,1.9-3.8
						c0.1-0.1,0.3,0,0.4,0.2c0.1,0.1,0,0.3-0.2,0.4c-0.1,0-1.7,0.7-1.6,3.2c0,1.3,0.7,2,1.1,2.4c0.4-0.8,1.5-2.8,3.1-3.1
						c0.2,0,0.3,0.1,0.3,0.2c0,0.2-0.1,0.3-0.2,0.3c-1.6,0.3-2.8,3.1-2.8,3.1C76.8,94.4,76.7,94.5,76.5,94.5
						C76.6,94.5,76.6,94.5,76.5,94.5z"/>
					<path id="XMLID_4014_" class="st0" d="M77,86.3c-0.1,0-0.3-0.1-0.3-0.3c0,0-0.3-2.2-2-3.4c-4-2.8-8.8,0.2-8.9,0.2
						c-0.1,0.1-0.3,0-0.4-0.1c-0.1-0.1,0-0.3,0.1-0.4c0.1,0,5.2-3.2,9.5-0.2c1.9,1.3,2.2,3.7,2.2,3.8C77.3,86.1,77.2,86.3,77,86.3
						C77.1,86.3,77,86.3,77,86.3z"/>
				</g>
				<g id="XMLID_4008_">
					<path id="XMLID_4010_" class="st0" d="M81.2,96.5c-0.8,0-1.4-0.1-1.4-0.1c-0.2,0-0.3-0.2-0.2-0.3c0-0.2,0.2-0.3,0.3-0.2
						c0,0,3.4,0.5,5.7-1c1.4-0.9,5.7-4.4,2.5-11.9c-1.3-3.1-5.6-5.9-11-5.9c0,0,0,0,0,0c-0.2,0-0.3-0.3-0.3-0.4
						c0-0.2,0.1-0.4,0.3-0.4c4.3-0.1,9.7,2,11.6,6.4c3.4,8-1.2,11.8-2.7,12.8C84.4,96.3,82.5,96.5,81.2,96.5z"/>
					<path id="XMLID_4009_" class="st0" d="M77,86.3C77,86.3,77,86.3,77,86.3c-0.2,0-0.3-0.2-0.3-0.3c0-0.1,0.4-2.5,2.2-3.8
						c4.3-3,9.4,0.2,9.5,0.2c0.1,0.1,0.2,0.3,0.1,0.4c-0.1,0.1-0.3,0.2-0.4,0.1c0,0-4.9-3-8.9-0.2c-1.7,1.2-2,3.4-2,3.4
						C77.3,86.2,77.2,86.3,77,86.3z"/>
				</g>
			</g>
			<path id="XMLID_4006_" class="st0" d="M109.4,143.6c-0.7,0-1.5-0.9-3.1-2.6c-0.8-0.8-1.7-1.8-2.8-2.8c-3.1-3-7.5-5.3-14.6-8.6
				c-1.2-0.6-2.5-1.1-3.8-1.6c-6.1-2.4-13-5.1-16.6-15.1c-3.9-10.9-0.6-17.6-0.4-17.9c0.1-0.1,0.2-0.2,0.4-0.1
				c0.1,0.1,0.2,0.2,0.1,0.4c0,0.1-3.4,6.9,0.4,17.5c3.5,9.8,10,12.3,16.3,14.8c1.3,0.5,2.6,1,3.8,1.6c7.1,3.2,11.6,5.6,14.7,8.7
				c1.1,1,2,2,2.8,2.9c1.1,1.2,2.4,2.6,2.7,2.4c0,0,0.1,0,0.1-0.1c0.3-1.2-2.5-6.1-4.4-9c-0.1-0.1-0.1-0.3,0.1-0.4
				c0.1-0.1,0.3-0.1,0.4,0.1c0.5,0.8,5,7.7,4.5,9.5c-0.1,0.2-0.2,0.4-0.4,0.5C109.5,143.6,109.5,143.6,109.4,143.6z"/>
			<path id="XMLID_4005_" class="st0" d="M112.2,143.2c-0.2,0-0.3-0.1-0.5-0.3c-0.3-0.4-7.2-10.7-11.8-14.1
				c-0.7-0.5-1.6-1.1-2.7-1.7c-5.6-3.5-14.9-9.3-16.7-20.9c-0.3-2,0.4-4.1,1.9-5.7c1.5-1.6,3.4-2.3,5.4-2.1c0.2,0,0.3,0.2,0.3,0.3
				c0,0.2-0.2,0.3-0.3,0.3c-1.7-0.2-3.6,0.5-4.9,1.9c-1.4,1.4-2,3.4-1.8,5.2c1.7,11.4,11,17.1,16.5,20.5c1.1,0.7,2,1.2,2.7,1.8
				c4.5,3.3,10.8,12.5,11.9,14.1c0.1-1.3-0.6-5.9-1.2-8.8c-2-8.7-9.7-27.3-15.1-32.8c-1.3-1.3-2.3-2.3-3.2-3.1
				c-2.5-2.4-3.7-3.4-4-6.4c0-0.2,0.1-0.3,0.3-0.3c0.2,0,0.3,0.1,0.3,0.3c0.2,2.7,1.3,3.7,3.8,6c0.9,0.8,2,1.8,3.2,3.1
				c5.5,5.6,13.3,24.3,15.3,33.1c0.4,1.6,0.7,3.9,1,5.8c0.5,3.7,0.1,3.8-0.1,3.9C112.3,143.2,112.3,143.2,112.2,143.2z"/>
			<g id="XMLID_4001_">
				<path id="XMLID_4004_" class="st0" d="M84.4,140.2c-0.1,0-0.2,0-0.2-0.1c-0.1-0.1-1.2-1.5,0.5-3.6c0.4-0.5,1.2-0.9,1.9-1.3
					c1.3-0.7,2.5-1.3,2.5-2.7c-0.1-2.4-0.8-3.4-0.8-3.4c-0.1-0.1,0-0.3,0.1-0.4c0.1-0.1,0.3,0,0.4,0.1c0,0,0.7,1.2,0.9,3.7
					c0.1,1.8-1.4,2.6-2.8,3.2c-0.7,0.4-1.4,0.7-1.7,1.1c-0.9,1.1-0.9,1.9-0.8,2.4c0.4-0.6,1.1-1.5,2.5-1.9c0.2,0,0.3,0,0.4,0.2
					c0,0.2,0,0.3-0.2,0.4c-1.8,0.5-2.4,2.1-2.4,2.1C84.6,140.1,84.6,140.2,84.4,140.2C84.4,140.2,84.4,140.2,84.4,140.2z"/>
				<path id="XMLID_4003_" class="st0" d="M87.3,141.4c-0.1,0-0.2,0-0.2-0.1c-0.1-0.1-1.3-1.3-0.3-3.7c0.2-0.6,0.8-0.9,1.4-1.3
					c0.2-0.1,0.4-0.2,0.6-0.4c0.7-0.5,1.2-1.1,1.2-1.1c0.1-0.1,0.3-0.2,0.4-0.1c0.1,0.1,0.2,0.3,0.1,0.4c0,0-0.5,0.7-1.3,1.2
					c-0.2,0.1-0.4,0.3-0.6,0.4c-0.5,0.3-1,0.6-1.1,1c-0.5,1.3-0.3,2.2-0.1,2.7c0.4-0.8,1.3-2.3,2.5-2.8c1.4-0.6,1.9-2.1,1.9-2.1
					c0.1-0.2,0.2-0.2,0.4-0.2c0.2,0.1,0.2,0.2,0.2,0.4c0,0.1-0.6,1.7-2.2,2.4c-1.4,0.6-2.4,3-2.4,3
					C87.5,141.3,87.4,141.4,87.3,141.4C87.3,141.4,87.3,141.4,87.3,141.4z"/>
				<path id="XMLID_4002_" class="st0" d="M89.5,142.1c-0.1,0-0.2,0-0.2-0.1c-0.1-0.1-1.3-1.3-0.3-3.7c0.1-0.1,0.2-0.2,0.4-0.2
					c0.1,0.1,0.2,0.2,0.2,0.4c-0.5,1.3-0.3,2.2-0.1,2.7c0.4-0.8,1.3-2.3,2.5-2.8c1.3-0.6,2.2-1.6,1.8-4.6c-0.1-0.8-0.2-2.2-0.2-2.3
					c0-0.2,0.1-0.3,0.3-0.3c0.2,0,0.3,0.1,0.3,0.3c0,0,0.1,1.5,0.2,2.3c0.3,2.8-0.3,4.3-2.2,5.2c-1.4,0.6-2.4,3-2.4,3
					C89.7,142.1,89.6,142.1,89.5,142.1C89.5,142.1,89.5,142.1,89.5,142.1z"/>
			</g>
			<g id="XMLID_3997_">
				<path id="XMLID_4000_" class="st0" d="M79.3,137.2c-0.1,0-0.2,0-0.2-0.1c0-0.1-1.1-1.4,0.5-3.3c0.4-0.5,1.1-0.8,1.7-1.2
					c1.2-0.6,2.3-1.2,2.2-2.4c-0.1-2.1-0.7-3-0.7-3c-0.1-0.1,0-0.3,0.1-0.4c0.1-0.1,0.3,0,0.4,0.1c0,0,0.7,1.1,0.8,3.3
					c0.1,1.6-1.3,2.3-2.5,2.9c-0.6,0.3-1.2,0.6-1.6,1c-0.8,0.9-0.8,1.6-0.7,2c0.3-0.6,1-1.3,2.2-1.7c0.2,0,0.3,0,0.4,0.2
					c0,0.2,0,0.3-0.2,0.4c-1.6,0.4-2.1,1.8-2.1,1.9C79.5,137.1,79.5,137.2,79.3,137.2C79.3,137.2,79.3,137.2,79.3,137.2z"/>
				<path id="XMLID_3999_" class="st0" d="M81.9,138.3c-0.1,0-0.2,0-0.2-0.1c0,0-1.2-1.2-0.3-3.4c0.2-0.5,0.7-0.8,1.3-1.1
					c0.2-0.1,0.4-0.2,0.5-0.3c0.6-0.5,1-1,1-1c0.1-0.1,0.3-0.2,0.4-0.1c0.1,0.1,0.2,0.3,0.1,0.4c0,0-0.5,0.6-1.2,1.1
					c-0.2,0.1-0.4,0.2-0.6,0.4c-0.4,0.3-0.9,0.5-1,0.9c-0.5,1.1-0.3,1.9-0.1,2.3c0.4-0.7,1.2-2,2.2-2.5c1.3-0.6,1.7-1.8,1.7-1.9
					c0.1-0.2,0.2-0.2,0.4-0.2c0.2,0.1,0.2,0.2,0.2,0.4c0,0.1-0.6,1.5-2,2.2c-1.2,0.5-2.1,2.6-2.2,2.7
					C82.1,138.2,82,138.3,81.9,138.3C81.9,138.3,81.9,138.3,81.9,138.3z"/>
				<path id="XMLID_3998_" class="st0" d="M83.9,139c-0.1,0-0.1,0-0.2-0.1c0,0-1.2-1.2-0.3-3.4c0.1-0.1,0.2-0.2,0.4-0.2
					c0.1,0.1,0.2,0.2,0.2,0.4c-0.7,1.8,0.1,2.7,0.2,2.7c0.1,0.1,0.1,0.3,0,0.4C84,138.9,83.9,139,83.9,139z"/>
			</g>
			<path id="XMLID_3996_" class="st0" d="M112.2,139.3c-0.1,0-0.2-0.1-0.3-0.2c0-0.1-3.8-9.1-11.9-13.9c-7.3-4.4-8.4-8.9-8.4-9.1
				c0-0.2,0.1-0.3,0.2-0.3c0.2,0,0.3,0.1,0.3,0.2c0,0.1,1.1,4.5,8.1,8.7c8.3,5,12.1,14.1,12.1,14.2c0.1,0.1,0,0.3-0.2,0.4
				C112.3,139.3,112.2,139.3,112.2,139.3z"/>
			<path id="XMLID_3995_" class="st0" d="M109.8,128.6c-0.1,0-0.2,0-0.2-0.1c0,0-2.1-3-6.5-5.8c-4.5-2.9-7-8-7.1-8.2
				c-0.1-0.1,0-0.3,0.1-0.4c0.1-0.1,0.3,0,0.4,0.1c0,0.1,2.5,5.1,6.9,8c4.4,2.9,6.5,5.8,6.6,6c0.1,0.1,0.1,0.3-0.1,0.4
				C109.9,128.6,109.8,128.6,109.8,128.6z"/>
			<path id="XMLID_3994_" class="st0" d="M106.3,119.4c0,0-0.1,0-0.1,0c-0.1-0.1-2.4-1.3-3.9-2.8c-1.6-1.6-2.5-4-2.5-4.1
				c-0.1-0.2,0-0.3,0.2-0.4c0.2-0.1,0.3,0,0.4,0.2c0,0,0.9,2.4,2.4,3.9c1.5,1.5,3.8,2.7,3.8,2.7c0.1,0.1,0.2,0.3,0.1,0.4
				C106.5,119.4,106.4,119.4,106.3,119.4z"/>
			<path id="XMLID_3993_" class="st0" d="M90.8,116.2c-0.3,0-0.6,0-0.9-0.1c-3.4-0.4-8.1-5-9-8c0-0.2,0-0.3,0.2-0.4
				c0.2,0,0.3,0,0.4,0.2c0.8,2.8,5.4,7.3,8.5,7.6c1.2,0.1,2.1,0,2.6-0.5c0.4-0.4,0.3-0.9,0.3-0.9c0-0.2,0.1-0.3,0.2-0.3
				c0.2,0,0.3,0.1,0.3,0.2c0,0,0.1,0.8-0.5,1.4C92.5,115.9,91.8,116.2,90.8,116.2z"/>
			<path id="XMLID_3992_" class="st0" d="M95.1,114.6c-0.3,0-0.5,0-0.8-0.1c-3.4-0.4-8.1-5-9-8c0-0.2,0-0.3,0.2-0.4
				c0.2,0,0.3,0,0.4,0.2c0.8,2.8,5.4,7.3,8.5,7.6c1.2,0.1,2.1,0,2.5-0.5c0.5-0.5,0.4-1.1,0.4-1.2c0-0.2,0.1-0.3,0.2-0.3
				c0.2,0,0.3,0.1,0.3,0.2c0,0,0.1,0.9-0.6,1.6C96.8,114.4,96.1,114.6,95.1,114.6z"/>
			<path id="XMLID_3991_" class="st0" d="M98.3,112.7c-0.3,0-0.5,0-0.8-0.1c-3.4-0.4-8.1-5-9-8c0-0.2,0-0.3,0.2-0.4
				c0.2,0,0.3,0,0.4,0.2c0.8,2.8,5.4,7.3,8.5,7.6c1.2,0.1,2.1,0,2.5-0.5c0.5-0.5,0.4-1.1,0.4-1.2c0-0.2,0.1-0.3,0.3-0.3
				c0.2,0,0.3,0.1,0.3,0.2c0,0,0.1,0.9-0.6,1.6C100.1,112.4,99.3,112.7,98.3,112.7z"/>
			<path id="XMLID_3990_" class="st0" d="M102.1,110.7c-0.3,0-0.5,0-0.8,0c-3.4-0.4-8.1-5-9-8c0-0.2,0-0.3,0.2-0.4
				c0.2,0,0.3,0,0.4,0.2c0.8,2.8,5.4,7.3,8.5,7.6c0.4,0,0.7,0.1,1,0c0.2,0,0.3,0.1,0.3,0.3c0,0.2-0.1,0.3-0.3,0.3
				C102.3,110.7,102.2,110.7,102.1,110.7z"/>
		</g>
	</g>
	<g id="XMLID_3278_">
		<g id="XMLID_3311_">
			<g id="XMLID_3317_">
				<path id="XMLID_3985_" class="st0" d="M53.3,42.9c-0.6,0-1.3-0.1-1.9-0.2c-3-0.6-5.3-2.3-6.4-4.9c-1-2.3-0.9-4.9,0.3-6.7
					c3.8-6,10.6-2.4,10.6-2.3c0.1,0.1,0.2,0.2,0.1,0.3c0,0.1-0.2,0.2-0.3,0.2c0,0-5-0.3-6.5,2.6c-0.6,1.2-0.6,2.5,0.2,3.5
					c1,1.3,2.9,1.8,5.1,1.4c3.4-0.7,5.4-4.8,6.8-7.8c0.2-0.5,0.4-0.9,0.7-1.3c2.4-4.7,6.9-7.1,11.4-6.3c4.5,0.9,6.9,3.4,7.3,7.6
					c0.2,1.9,0.1,5.6-2.2,8c-1.5,1.6-3.7,2.3-6.6,2.2c-2.5-0.1-4.6-1.3-5.6-3.2c-0.4-0.9-0.6-1.7-0.6-2.4c-0.4,0.7-0.8,1.4-1.2,2.2
					C62.7,39.5,58.3,42.9,53.3,42.9z M51.4,28.2c-2.4,0-4.2,1.1-5.6,3.2c-1.1,1.7-1.2,4-0.3,6.2c0.6,1.4,2.2,3.9,6,4.6
					c5.4,1,10.5-2.7,12.6-6.7c2.4-4.6,4.1-6.8,6-7.6c1.4-0.5,2.9-0.5,4.1,0.1c1,0.4,1.6,1.2,1.9,2c0.6,1.8,0.2,3.1-0.3,3.8
					c-0.6,0.9-1.7,1.5-2.7,1.6c-1.1,0.1-2.2-0.3-2.8-1.1c-0.5-0.5-0.7-1.2-0.6-1.9c0.1-0.8,0.8-1.5,1.5-1.8c0.7-0.2,1.4,0,2.1,0.6
					c0.1,0.1,0.1,0.3,0,0.4c-0.1,0.1-0.3,0.1-0.4,0c-0.5-0.5-1-0.6-1.5-0.5c-0.6,0.2-1,0.7-1.1,1.3c-0.1,0.5,0.1,1,0.4,1.4
					c0.5,0.6,1.4,0.9,2.4,0.9c0.9,0,1.7-0.6,2.3-1.3c0.4-0.6,0.8-1.7,0.3-3.3c-0.2-0.7-0.8-1.3-1.6-1.7c-1.1-0.5-2.4-0.5-3.6-0.1
					c-1.3,0.5-2.5,1.8-4,4.1c0,0,0,0.1,0,0.1c0,0-0.1,1.5,0.6,2.9c0.9,1.7,2.8,2.8,5.1,2.9c2.7,0.1,4.7-0.5,6.1-2
					c2.1-2.2,2.2-5.7,2-7.5c-0.4-4-2.5-6.3-6.8-7.1c-4.3-0.8-8.6,1.5-10.8,5.9c-0.2,0.4-0.4,0.9-0.7,1.3c-1.5,3.1-3.5,7.4-7.2,8.1
					c-2.4,0.5-4.5-0.1-5.7-1.6c-0.9-1.2-1-2.7-0.2-4.1c1.2-2.2,3.9-2.7,5.6-2.8c-0.6-0.2-1.5-0.4-2.4-0.5
					C51.8,28.3,51.6,28.2,51.4,28.2z"/>
				<g id="XMLID_3983_">
					<path id="XMLID_3984_" class="st0" d="M52.6,40.3c-1.6,0-3.2-0.4-4.2-1.2c-3.2-2.6-2.5-6.3-1.3-8c1-1.5,2.8-2.3,5.2-2.5
						c1.8-0.1,3.2,0.2,3.3,0.2c0.2,0,0.3,0.2,0.2,0.3c0,0.2-0.2,0.3-0.3,0.2c-0.1,0-5.6-1.3-7.8,2c-1.1,1.6-1.7,4.9,1.2,7.3
						c2.2,1.8,7.1,1.3,9.4-0.9c2.5-2.4,4.1-4.9,5.4-7.1c1.1-1.8,2.1-3.4,3.4-4.5c2.7-2.4,6.6-2,8.4-1c2.5,1.4,2.6,4.5,2.6,4.7
						c0,0.2-0.1,0.3-0.3,0.3c-0.1,0-0.3-0.1-0.3-0.3c0,0-0.1-2.9-2.3-4.2c-1.6-0.9-5.2-1.3-7.7,0.9c-1.2,1.1-2.2,2.6-3.3,4.4
						c-1.4,2.2-3,4.8-5.5,7.2C57.1,39.5,54.8,40.3,52.6,40.3z"/>
				</g>
			</g>
			<g id="XMLID_3312_">
				<path id="XMLID_3314_" class="st0" d="M120.7,42.9c-5,0-9.4-3.5-11.3-7.2c-0.4-0.8-0.8-1.5-1.2-2.2c-0.1,0.6-0.2,1.5-0.6,2.4
					c-1,1.9-3.1,3.1-5.6,3.2c-2.8,0.1-5.1-0.6-6.6-2.2c-2.3-2.4-2.4-6-2.2-8c0.4-4.2,2.8-6.7,7.3-7.6c4.6-0.9,9.1,1.6,11.4,6.3
					c0.2,0.4,0.4,0.9,0.7,1.3c1.4,3,3.4,7.1,6.8,7.8c2.2,0.5,4.1-0.1,5.1-1.4c0.8-1,0.8-2.3,0.2-3.5c-1.5-2.8-6.4-2.6-6.5-2.6
					c-0.1,0-0.3-0.1-0.3-0.2c0-0.1,0-0.3,0.1-0.3c0.1,0,6.8-3.6,10.6,2.3c1.2,1.8,1.3,4.4,0.3,6.7c-1.1,2.6-3.4,4.4-6.4,4.9
					C122,42.9,121.3,42.9,120.7,42.9z M102,27.5c0.7,0,1.3,0.1,2,0.4c1.9,0.7,3.6,2.9,6,7.6c2,4,7.2,7.7,12.6,6.7
					c3.8-0.7,5.4-3.2,6-4.6c0.9-2.1,0.8-4.5-0.3-6.2c-1.5-2.3-3.6-3.4-6.2-3.2c-0.9,0.1-1.8,0.3-2.4,0.5c1.7,0.1,4.5,0.7,5.6,2.8
					c0.7,1.4,0.7,2.9-0.2,4.1c-1.1,1.5-3.3,2.1-5.7,1.6c-3.7-0.8-5.7-5-7.2-8.1c-0.2-0.5-0.4-0.9-0.7-1.3c-2.3-4.4-6.5-6.8-10.8-5.9
					c-4.3,0.8-6.5,3.1-6.8,7.1c-0.2,1.8-0.1,5.3,2,7.5c1.4,1.5,3.5,2.1,6.1,2c2.3-0.1,4.2-1.2,5.1-2.9c0.7-1.4,0.6-2.9,0.6-2.9
					c0,0,0-0.1,0-0.1c-1.5-2.4-2.7-3.7-4-4.1c-1.2-0.5-2.5-0.4-3.6,0.1c-0.8,0.4-1.4,1-1.6,1.7c-0.6,1.6-0.2,2.7,0.3,3.3
					c0.5,0.8,1.4,1.3,2.3,1.3c0.9,0,1.8-0.3,2.4-0.9c0.4-0.4,0.5-0.9,0.4-1.4c-0.1-0.6-0.6-1.2-1.1-1.3c-0.5-0.2-1,0-1.5,0.5
					c-0.1,0.1-0.3,0.1-0.4,0s-0.1-0.3,0-0.4c0.6-0.6,1.4-0.8,2.1-0.6c0.8,0.2,1.4,1,1.5,1.8c0.1,0.7-0.1,1.4-0.6,1.9
					c-0.6,0.7-1.7,1.1-2.8,1.1c-1-0.1-2.1-0.7-2.7-1.6c-0.5-0.7-1-2-0.3-3.8c0.3-0.9,1-1.6,1.9-2C100.5,27.7,101.2,27.5,102,27.5z"
					/>
				<path id="XMLID_3313_" class="st0" d="M121.1,40.3c-2.2,0-4.6-0.7-6-2.1c-2.6-2.4-4.2-5-5.5-7.2c-1.1-1.8-2-3.3-3.3-4.4
					c-2.5-2.2-6.1-1.9-7.7-0.9c-2.2,1.3-2.3,4.2-2.3,4.2c0,0.2-0.1,0.3-0.3,0.3c-0.2,0-0.3-0.1-0.3-0.3c0-0.1,0.1-3.2,2.6-4.7
					c1.8-1,5.7-1.4,8.4,1c1.3,1.1,2.2,2.7,3.4,4.5c1.4,2.2,2.9,4.7,5.4,7.1c2.3,2.2,7.3,2.6,9.4,0.9c2.9-2.3,2.2-5.7,1.2-7.3
					c-2.2-3.2-7.7-2-7.8-2c-0.2,0-0.3-0.1-0.3-0.2c0-0.2,0.1-0.3,0.2-0.3c0.1,0,1.5-0.3,3.3-0.2c2.4,0.1,4.1,1,5.2,2.5
					c1.2,1.7,1.9,5.5-1.3,8C124.3,39.9,122.7,40.3,121.1,40.3z"/>
			</g>
		</g>
		<g id="XMLID_3279_">
			<g id="XMLID_3306_">
				<path id="XMLID_3310_" class="st0" d="M87,36.6c0,0,0-0.1,0-0.3V19.9c0-0.2,0-0.3,0-0.3s0,0.1,0,0.3v16.3
					C87,36.4,87,36.6,87,36.6z"/>
				<g id="XMLID_3307_">
					<path id="XMLID_3309_" class="st0" d="M81.6,39.7c-0.3,0-0.7,0-1.1-0.1c-0.2,0-0.3-0.2-0.2-0.3c0-0.2,0.2-0.3,0.3-0.2
						c4.2,0.7,6.2-2.9,6.2-2.9c0.1-0.1,0.3-0.2,0.4-0.1c0.1,0.1,0.2,0.3,0.1,0.4C87.2,36.4,85.4,39.7,81.6,39.7z"/>
					<path id="XMLID_3308_" class="st0" d="M92.4,39.7c-3.8,0-5.7-3.3-5.7-3.3c-0.1-0.1,0-0.3,0.1-0.4c0.1-0.1,0.3,0,0.4,0.1
						c0.1,0.1,2,3.6,6.2,2.9c0.2,0,0.3,0.1,0.3,0.2c0,0.2-0.1,0.3-0.2,0.3C93.2,39.7,92.8,39.7,92.4,39.7z"/>
				</g>
			</g>
			<g id="XMLID_3304_">
				<path id="XMLID_3305_" class="st0" d="M87,5c0,0,0-0.1,0-0.3V0.8c0-0.2,0-0.3,0-0.3s0,0.1,0,0.3v3.9C87,4.8,87,5,87,5z"/>
			</g>
			<g id="XMLID_3289_">
				<g id="XMLID_3298_">
					<g id="XMLID_3301_">
						<g id="XMLID_3302_">
							<path id="XMLID_3303_" class="st0" d="M80.9,39.7c-0.2,0-0.3-0.1-0.5-0.2c-0.3-0.3-0.2-0.7,0-0.9c0,0,3.8-3.8,3-9.8
								c-0.7-6.1-4.7-9.4-11.7-9.8c-0.4,0-0.6-0.3-0.6-0.7c0-0.2,0-1.8,0.2-2.5c0.3-1.3,1-2.4,1.1-2.5c0.1-0.1,0.2-0.2,0.4-0.3
								c0.2-0.1,5.3-1.3,8.4,1.6c0.3,0.2,0.3,0.7,0,0.9c-0.2,0.3-0.7,0.3-0.9,0c-2.3-2.1-6-1.5-7-1.3c-0.2,0.4-0.6,1.1-0.7,1.8
								c-0.1,0.4-0.1,1.1-0.2,1.7c1.4,0.1,4,0.4,6.4,1.7c3.4,1.8,5.4,4.9,5.9,9.2c0.8,6.7-3.2,10.7-3.4,10.9
								C81.2,39.6,81,39.7,80.9,39.7z"/>
						</g>
					</g>
					<path id="XMLID_3300_" class="st0" d="M85,16.5C85,16.5,85,16.5,85,16.5c-0.4,0-0.7-0.4-0.7-0.7c0-0.1,0.4-3.4-0.9-6.9
						c-1.1-3.1-2.8-4.4-2.8-4.4c-0.3-0.2-0.4-0.6-0.1-0.9C80.6,3.4,83,0.3,87,0c0.4,0,0.7,0.3,0.7,0.6c0,0.4-0.3,0.7-0.6,0.7
						c-2.6,0.2-4.3,1.8-5.1,2.5c0.7,0.7,1.9,2.1,2.8,4.6c1.4,3.8,1,7.3,1,7.5C85.6,16.3,85.4,16.5,85,16.5z"/>
					<path id="XMLID_3299_" class="st0" d="M80.8,15.8c-0.2,0-0.5-0.1-0.6-0.4c-1.6-3.4-5.9-3.9-6-3.9c-0.2,0-0.3-0.1-0.5-0.3
						c-0.1-0.1-0.2-0.3-0.1-0.5c0-0.1,0.3-1.5,1.5-2.8c1.3-1.5,2.9-2.3,2.9-2.4c0.1-0.1,0.3-0.1,0.5-0.1c0.2,0,4.9,1.2,6.9,6.3
						c0.1,0.3,0,0.7-0.4,0.9c-0.3,0.1-0.7,0-0.9-0.4c-1.6-3.8-4.9-5.1-5.8-5.4C78,7,77,7.7,76.1,8.7c-0.5,0.6-0.8,1.1-1,1.6
						c1.5,0.3,4.8,1.4,6.2,4.6c0.1,0.3,0,0.7-0.3,0.9C81,15.7,80.9,15.8,80.8,15.8z"/>
				</g>
				<path id="XMLID_3294_" class="st0" d="M81,11.2c-0.1,0-0.2,0-0.2-0.1c-1.4-1.6-4.5-3-4.5-3C76.1,8,76,7.9,76.1,7.7
					c0.1-0.1,0.2-0.2,0.4-0.2c0.1,0.1,3.3,1.4,4.7,3.2c0.1,0.1,0.1,0.3,0,0.4C81.1,11.2,81,11.2,81,11.2z"/>
				<path id="XMLID_3290_" class="st0" d="M77.4,16.8C77.4,16.8,77.3,16.8,77.4,16.8c-2.7-0.8-5.2-0.6-5.3-0.6
					c-0.2,0-0.3-0.1-0.3-0.3c0-0.2,0.1-0.3,0.3-0.3c0.1,0,2.7-0.2,5.4,0.6c0.2,0,0.2,0.2,0.2,0.4C77.6,16.7,77.5,16.8,77.4,16.8z"/>
			</g>
			<g id="XMLID_3280_">
				<g id="XMLID_3283_">
					<g id="XMLID_3286_">
						<g id="XMLID_3287_">
							<path id="XMLID_3288_" class="st0" d="M93.1,39.7c-0.2,0-0.3-0.1-0.5-0.2c-0.2-0.2-4.2-4.2-3.4-10.9c0.5-4.3,2.5-7.4,5.9-9.2
								c2.4-1.3,5-1.6,6.4-1.7c0-0.6-0.1-1.3-0.2-1.7c-0.2-0.7-0.5-1.5-0.7-1.8c-1-0.2-4.7-0.8-7,1.3c-0.3,0.2-0.7,0.2-0.9,0
								c-0.2-0.3-0.2-0.7,0-0.9c3.2-2.9,8.2-1.6,8.4-1.6c0.2,0,0.3,0.1,0.4,0.3c0,0,0.8,1.2,1.1,2.5c0.2,0.8,0.2,2.4,0.2,2.5
								c0,0.4-0.3,0.6-0.6,0.7c-7,0.4-11,3.7-11.7,9.8c-0.7,6.1,3,9.8,3,9.8c0.3,0.3,0.3,0.7,0,0.9C93.5,39.6,93.3,39.7,93.1,39.7z"
								/>
						</g>
					</g>
					<path id="XMLID_3285_" class="st0" d="M89,16.5c-0.3,0-0.6-0.2-0.6-0.6c0-0.1-0.4-3.7,1-7.5C90.2,6,91.4,4.5,92,3.9
						c-0.7-0.8-2.5-2.4-5.1-2.6c-0.4,0-0.6-0.3-0.6-0.7C86.4,0.3,86.7,0,87,0c4,0.3,6.3,3.4,6.4,3.5c0.1,0.1,0.1,0.3,0.1,0.5
						c0,0.2-0.1,0.3-0.3,0.4c0,0-1.7,1.3-2.8,4.4c-1.3,3.5-0.9,6.9-0.9,6.9C89.7,16.1,89.4,16.5,89,16.5C89,16.5,89,16.5,89,16.5z"
						/>
					<path id="XMLID_3284_" class="st0" d="M93.2,15.8c-0.1,0-0.2,0-0.3-0.1c-0.3-0.1-0.5-0.5-0.3-0.9c1.4-3.2,4.7-4.2,6.2-4.6
						c-0.2-0.4-0.5-1-1-1.6C97,7.7,96,7,95.5,6.8c-0.9,0.3-4.2,1.6-5.8,5.4c-0.1,0.3-0.5,0.5-0.9,0.4c-0.3-0.1-0.5-0.5-0.4-0.9
						c2.1-5,6.7-6.2,6.9-6.3c0.2,0,0.3,0,0.5,0.1c0.1,0,1.6,0.9,2.9,2.4c1.2,1.3,1.5,2.8,1.5,2.8c0,0.2,0,0.4-0.1,0.5
						c-0.1,0.1-0.3,0.2-0.5,0.3c0,0-4.4,0.5-5.9,3.9C93.7,15.6,93.5,15.8,93.2,15.8z"/>
				</g>
				<path id="XMLID_3282_" class="st0" d="M93,11.2c-0.1,0-0.1,0-0.2-0.1c-0.1-0.1-0.1-0.3,0-0.4c1.4-1.8,4.6-3.1,4.7-3.2
					c0.1-0.1,0.3,0,0.4,0.2c0.1,0.1,0,0.3-0.2,0.4c0,0-3.1,1.3-4.5,3C93.2,11.2,93.1,11.2,93,11.2z"/>
				<path id="XMLID_3281_" class="st0" d="M96.6,16.8c-0.1,0-0.2-0.1-0.3-0.2c0-0.2,0-0.3,0.2-0.4c2.7-0.8,5.3-0.7,5.4-0.6
					c0.2,0,0.3,0.1,0.3,0.3c0,0.2-0.2,0.3-0.3,0.3C101.8,16.2,99.3,16,96.6,16.8C96.7,16.8,96.6,16.8,96.6,16.8z"/>
			</g>
		</g>
	</g>
	<g id="XMLID_2911_">
		<g id="XMLID_3049_">
			<g id="XMLID_3056_">
				<path id="XMLID_3277_" class="st0" d="M25.5,179.6c-0.3,0-0.5-0.2-0.6-0.4c0-0.1-0.3-0.8,0.2-1.6c0.6-1,2.1-1.6,4.5-1.8l0.7-0.1
					c2.4-0.2,5.5-0.5,8-1c3.3-0.6,4-1.2,4.1-1.4c-0.2-0.2-1.4-1-7-2.2c-3.7-0.8-8-1.5-10.6-1.9l-0.2,0c-5-0.8-7-1.6-7.4-2.9
					c-0.2-0.7,0.2-1.5,1.2-2.2c1.2-0.9,3.3-1.2,6.3-0.9c2.1,0.2,3.9,0.6,4,0.7c0.4,0.1,0.6,0.4,0.5,0.8c-0.1,0.4-0.4,0.6-0.8,0.5
					c-1.9-0.5-7.3-1.4-9.2,0c-0.6,0.5-0.7,0.8-0.7,0.8c0.1,0.2,0.7,1,6.3,1.9l0.2,0c15.8,2.5,18.8,3.8,18.8,5.3
					c0,2.1-4.3,2.8-13.2,3.7l-0.7,0.1c-2.6,0.3-3.3,0.9-3.5,1.2c-0.1,0.2-0.1,0.4-0.1,0.4c0.1,0.3,0,0.7-0.4,0.9
					C25.6,179.6,25.5,179.6,25.5,179.6z"/>
				<path id="XMLID_3276_" class="st0" d="M25.3,179.9c0,0-0.1,0-0.1,0l-0.8-0.1c-4.6-0.7-7.6-1.6-7.4-3.4c0-0.4,0.4-0.6,0.7-0.6
					c0.4,0,0.6,0.4,0.6,0.7c0,0.1,0.1,1,6.3,2l0.8,0.1c0.4,0.1,0.6,0.4,0.5,0.7C25.9,179.6,25.6,179.9,25.3,179.9z"/>
				<path id="XMLID_3274_" class="st0" d="M36.1,186.8c-0.3,0-0.6-0.2-0.6-0.6c0-0.4,0.2-0.7,0.6-0.7c2.2-0.3,3.7-0.6,4.8-0.9
					c1.5-0.5,1.5-0.8,1.5-0.8c0-0.4,0.3-0.7,0.7-0.7s0.7,0.3,0.7,0.7C43.6,185.5,40.7,186.2,36.1,186.8
					C36.1,186.8,36.1,186.8,36.1,186.8z"/>
				<path id="XMLID_3273_" class="st0" d="M43,184.4c-0.4,0-1-0.3-1-0.7v-10.4c0-0.4,0.6-0.7,1-0.7s1,0.3,1,0.7v10.4
					C44,184.1,43.4,184.4,43,184.4z"/>
				<path id="XMLID_3272_" class="st0" d="M17.5,177c-0.4,0-0.5-0.3-0.5-0.7v-10.3c0-0.4,0.1-0.7,0.5-0.7s0.5,0.3,0.5,0.7v10.3
					C18,176.7,17.9,177,17.5,177z"/>
				<path id="XMLID_3271_" class="st0" d="M28.5,169.9c-0.4,0-0.5-0.3-0.5-0.7v-4.7c0-0.4,0.1-0.7,0.5-0.7s0.5,0.3,0.5,0.7v4.7
					C29,169.6,28.9,169.9,28.5,169.9z"/>
			</g>
		</g>
		<g id="XMLID_3007_">
			<g id="XMLID_3020_">
				<path id="XMLID_3031_" class="st0" d="M149.1,179.2l-1.2-0.5l0,0c0,0,0.1-0.2-0.1-0.4c-0.2-0.3-0.9-0.9-3.4-1.2l-0.7-0.1
					c-9-0.9-13.2-1.6-13.2-3.7c0-1.5,3-2.8,18.8-5.3l0.2,0c5.6-0.9,6.2-1.7,6.3-1.9c0-0.1-0.1-0.4-0.7-0.8c-1.9-1.4-7.2-0.5-9.2,0
					c-0.3,0.1-0.7-0.1-0.8-0.5c-0.1-0.4,0.1-0.7,0.5-0.8c0.1,0,1.9-0.5,4-0.7c3-0.3,5.1,0,6.3,0.9c1,0.7,1.4,1.5,1.2,2.2
					c-0.3,1.3-2.4,2.1-7.4,2.9l-0.2,0c-2.6,0.4-6.9,1.1-10.6,1.9c-5.6,1.2-6.8,1.9-7,2.2c0.1,0.2,0.7,0.8,4.1,1.4
					c2.5,0.4,5.5,0.7,8,1l0.7,0.1c2.3,0.2,3.8,0.9,4.5,1.8C149.4,178.4,149.2,179.1,149.1,179.2z"/>
				<path id="XMLID_3027_" class="st0" d="M148.7,179.9c-0.3,0-0.6-0.2-0.6-0.6c-0.1-0.4,0.2-0.7,0.5-0.7l0.8-0.1
					c6.3-1,6.3-1.9,6.3-2c0-0.4,0.2-0.7,0.6-0.7c0.4,0,0.7,0.2,0.7,0.6c0.2,1.8-2.8,2.7-7.4,3.4l-0.8,0.1
					C148.8,179.9,148.8,179.9,148.7,179.9z"/>
				<path id="XMLID_3026_" class="st0" d="M137.9,186.8C137.9,186.8,137.9,186.8,137.9,186.8c-4.7-0.6-7.5-1.3-7.5-3
					c0-0.4,0.3-0.7,0.7-0.7s0.7,0.3,0.7,0.7c0,0,0,0.4,1.5,0.8c1.1,0.3,2.6,0.6,4.8,0.9c0.4,0,0.6,0.4,0.6,0.7
					C138.5,186.5,138.3,186.8,137.9,186.8z"/>
				<path id="XMLID_3025_" class="st0" d="M131,184.4c-0.4,0-1-0.3-1-0.7v-10.4c0-0.4,0.6-0.7,1-0.7s1,0.3,1,0.7v10.4
					C132,184.1,131.4,184.4,131,184.4z"/>
				<path id="XMLID_3024_" class="st0" d="M156.5,177c-0.4,0-0.5-0.3-0.5-0.7v-10.3c0-0.4,0.1-0.7,0.5-0.7s0.5,0.3,0.5,0.7v10.3
					C157,176.7,156.9,177,156.5,177z"/>
				<path id="XMLID_3023_" class="st0" d="M145.5,169.9c-0.4,0-0.5-0.3-0.5-0.7v-4.7c0-0.4,0.1-0.7,0.5-0.7s0.5,0.3,0.5,0.7v4.7
					C146,169.6,145.9,169.9,145.5,169.9z"/>
			</g>
		</g>
		<path id="XMLID_2912_" class="st0" d="M87,220c-15,0-29.5-2.6-43.1-7.6c-6.6-2.4-12.8-5.5-18.7-9c-0.2-0.1-0.2-0.3-0.2-0.6V179
			c0-0.3,0-0.5,0.2-0.6c0.2-0.1,0.4-0.1,0.6,0.1c16.8,13.4,38.5,20.7,61.2,20.7s44.5-7.4,61.2-20.7c0.2-0.2,0.3-0.2,0.5-0.1
			c0.2,0.1,0.2,0.3,0.2,0.6v23.9c0,0.2,0,0.4-0.2,0.6c-5.9,3.5-12.2,6.5-18.8,9C116.4,217.4,102,220,87,220z M26,202.5
			c6,3.4,11.9,6.3,18.3,8.7c13.5,5,27.9,7.6,42.7,7.6s29.2-2.5,42.7-7.6c6.4-2.4,12.3-5.3,18.3-8.7v-22.2c-17,13-38.4,20.2-61,20.2
			s-44-7.2-61-20.2V202.5z"/>
	</g>
</g>
</svg>
