<?xml version="1.0" encoding="utf-8"?>
<!-- Generator: Adobe Illustrator 19.0.0, SVG Export Plug-In . SVG Version: 6.00 Build 0)  -->
<svg version="1.1" baseProfile="basic" id="Слой_1"
	 xmlns="http://www.w3.org/2000/svg" xmlns:xlink="http://www.w3.org/1999/xlink" x="0px" y="0px" viewBox="-552 291 175 220"
	 xml:space="preserve">
<path style="fill:#64AD25;" d="M-527.7,338.2l-0.2-1.2c3.4-0.6,6.1-0.7,9-0.3l-0.1,1.2C-521.8,337.6-524.4,337.7-527.7,338.2z"/>
<polygon style="fill:#64AD25;" points="-519.9,337.1 -519.1,337.9 -518.5,338 -519.3,337 "/>
<path style="fill:#64AD25;" d="M-550.1,368.6c-0.3,0-0.5,0-0.5,0c-0.2,0-0.4-0.2-0.5-0.4c-0.1-0.2,0-0.5,0.2-0.6
	c0,0,1.6-1.3,2.6-3.6c0.3-0.7,0.7-1.9,1.1-3.3c1-3.5,2.5-8.4,4.9-12.1c3.3-4.9,7.3-10.3,14.4-11.5c0.3-0.1,0.6,0.2,0.7,0.5
	c0.1,0.3-0.2,0.6-0.5,0.7c-6.6,1.1-10.5,6.3-13.6,11c-2.4,3.6-3.7,8.3-4.8,11.8c-0.4,1.5-0.8,2.7-1.1,3.5c-0.6,1.3-1.3,2.3-1.8,3
	c0.8-0.1,1.8-0.5,2.4-1.3c0.4-0.6,1.2-2.6,1.5-3.3c0.1-0.3,0.5-0.5,0.8-0.3c0.3,0.1,0.5,0.5,0.3,0.8c-0.1,0.3-1,2.7-1.6,3.6
	C-547,368.4-549.1,368.6-550.1,368.6z"/>
<path style="fill:#64AD25;" d="M-546.3,375.6c-0.1,0-0.3-0.1-0.3-0.2c-0.2-3.8,2.9-8.8,3-9c0.1-0.1,0.2-0.2,0.4-0.1
	c0.1,0.1,0.2,0.2,0.1,0.4c0,0.1-3.1,5.1-2.9,8.7C-546,375.4-546.2,375.6-546.3,375.6C-546.3,375.6-546.3,375.6-546.3,375.6z"/>
<path style="fill:#64AD25;" d="M-550.9,385.3c-0.2,0-0.4-0.1-0.5-0.2c-0.2-0.2-0.1-0.5,0-0.7c0.7-0.8,2.5-3.4,2.2-5
	c-0.4-2.2-0.8-7.4,0.2-9.7c0.2-0.5,0.6-1.3,1-2.3l1.1,0.5c-0.4,1-0.8,1.8-1,2.3c-0.8,2-0.7,6.7-0.2,9c0.3,1.3-0.4,2.8-1,4
	c2.1-1.3,5.2-3.8,6.3-7.6l1.1,0.3c-2,6.5-8.8,9.3-9.1,9.4C-550.8,385.3-550.8,385.3-550.9,385.3z"/>
<path style="fill:#64AD25;" d="M-551.4,393.6c-0.1,0-0.2,0-0.2,0c-0.2-0.1-0.4-0.3-0.4-0.6c0-0.1,0.3-2.9,1.4-4.7
	c0.5-0.9,1.6-1.8,2.9-2.8c2.3-1.9,5.2-4.3,5.4-7.2c0.1-1.7-0.9-3.4-1.3-4c-0.2-0.3-0.1-0.6,0.1-0.8c0.3-0.2,0.6-0.1,0.8,0.1
	c0.6,0.9,1.7,2.7,1.6,4.8c-0.3,3.4-3.3,6-5.8,8c-1.1,0.9-2.2,1.8-2.6,2.5c-0.4,0.7-0.7,1.6-0.9,2.4c0.5-0.4,1-0.7,1.4-0.8
	c0.3-0.1,0.6,0.1,0.7,0.5c0.1,0.3-0.1,0.6-0.5,0.7c-0.5,0.1-1.6,1.1-2.1,1.7C-551.1,393.5-551.2,393.6-551.4,393.6z"/>
<path style="fill:#64AD25;" d="M-546,417c-0.2,0-0.3-0.1-0.5-0.2c-0.1-0.2-0.2-0.4-0.1-0.6c0,0,0.5-1.1,0.7-2.9
	c0.2-1.4-1.3-4.2-2.2-5.9c-0.2-0.4-0.4-0.7-0.5-1c-0.6-1.3-0.5-3.5-0.3-5l-1,0.8c-0.2,0.1-0.4,0.2-0.6,0.1c-0.2-0.1-0.3-0.2-0.4-0.4
	c0-0.1-0.5-2.5,0-6.4c0.5-3.9,2.1-5.9,2.1-6c0.2-0.3,0.6-0.3,0.8-0.1c0.3,0.2,0.3,0.6,0.1,0.8l0,0c0,0-1.4,1.9-1.9,5.4
	c-0.3,2.2-0.2,4-0.2,5l1.4-1.1c0.2-0.2,0.5-0.2,0.7,0c0.2,0.1,0.3,0.4,0.3,0.6c-0.3,1.2-0.8,4.5-0.1,5.8c0.1,0.3,0.3,0.6,0.5,1
	c1.1,2.1,2.6,4.9,2.4,6.6c-0.1,0.8-0.3,1.5-0.4,2c1.3-0.5,3.4-1.7,4.6-3.9c1.5-2.8,1.6-9.5,1.6-9.6c0-0.3,0.2-0.5,0.4-0.6
	c0.2-0.1,0.5,0,0.7,0.2c0.4,0.6,2.4,3.6,2.5,4.9c0,0.1,0,0.2,0,0.2c0.2-0.6,0.4-1.2,0.3-1.8c0-0.6-0.8-2-1.5-3.4
	c-1.6-3.2-2.5-5.2-1.6-6.2c0.3-0.3,0.6-0.5,1-0.5c1.1,0,2.3,1,3.7,2.4c0.2,0.2,0.3,0.3,0.5,0.4c2.1,2,4.7,5.8,5.5,10
	c0.7,3.7-0.8,7.3-0.8,7.4c-0.1,0.3-0.5,0.4-0.8,0.3c-0.3-0.1-0.4-0.5-0.3-0.8c0,0,1.4-3.4,0.7-6.7c-0.8-3.9-3.1-7.5-5.2-9.3
	c-0.1-0.1-0.3-0.3-0.5-0.5c-0.8-0.7-2.2-2.1-2.8-2c-0.1,0-0.1,0-0.2,0.1c-0.4,0.5,1.1,3.5,1.8,4.9c0.8,1.6,1.5,3,1.6,3.9
	c0.1,2.1-1.5,4.4-1.6,4.5c-0.2,0.2-0.4,0.3-0.7,0.2c-0.2-0.1-0.4-0.3-0.4-0.6c0,0,0-1.2-0.1-2.4c0-0.5-0.6-1.7-1.3-2.8
	c-0.1,2.3-0.5,6.1-1.6,8.2c-2.1,3.9-6.3,4.9-6.4,4.9C-545.9,417-545.9,417-546,417z"/>
<path style="fill:#64AD25;" d="M-531.5,391.8c-0.4,0-0.6,0-0.6,0c-0.3,0-0.5-0.2-0.5-0.5c0-0.3,0.1-0.5,0.4-0.6c0,0,1.9-0.6,3-1.9
	c0.8-1,1.9-3.8,2.2-4.8c0.1-0.2,0.2-0.3,0.4-0.4c0.2,0,0.4,0,0.6,0.1c0,0,0.7,0.7,0.8,2.1c0.5-1,1-2.2,1.1-3.7
	c0-0.6-0.1-1.3-0.3-2.1c-0.6-2.4-2-4.9-2-4.9c-0.1-0.2-0.1-0.5,0.1-0.7c0.2-0.2,0.5-0.2,0.7-0.1l3.6,2c0-0.5,0-1.1-0.2-1.6
	c-1.2-3.2-3.6-3.5-3.6-3.5c-0.2,0-0.4-0.2-0.5-0.4c-0.1-0.2,0-0.5,0.2-0.6c0.1-0.1,3.1-2.9,6.7-1.3c4.8,2.1,3.7,10.1,2.3,13.6
	C-520.6,391.2-529.1,391.8-531.5,391.8z M-526.5,385.9c-0.5,1.2-1.2,2.8-1.8,3.6c-0.3,0.4-0.7,0.7-1.1,1c3.2-0.4,8.5-2.1,10.9-8.6
	c1.5-3.9,1.9-10.5-1.7-12.1c-1.8-0.8-3.5-0.1-4.5,0.4c1,0.5,2.5,1.6,3.3,3.9c0.5,1.4,0.2,3.1,0.2,3.1c0,0.2-0.2,0.3-0.3,0.4
	c-0.2,0.1-0.4,0.1-0.5,0l-2.8-1.5c0.4,1,1,2.2,1.3,3.5c0.3,1,0.4,1.8,0.4,2.5c-0.1,4.1-3,6.7-3.1,6.8c-0.2,0.2-0.5,0.2-0.7,0
	c-0.2-0.2-0.3-0.5-0.2-0.7c0,0,0.4-1,0.6-1.8C-526.5,386.2-526.5,386-526.5,385.9z"/>
<path style="fill:#64AD25;" d="M-526,437.7c-0.2,0-0.3,0-0.5,0c-1.5-0.2-3.6-1.2-4.2-3.2c-0.3-0.8-0.4-1.6-0.4-2.2
	c-0.4,0.3-1,0.5-1.7,0.5c-1.2,0-3.1-1.2-5-2.4c-1.1-0.7-2.4-1.5-2.8-1.6c-0.8-0.1-1.3,0.1-1.8,0.5c-1,1-1,3.1-0.9,3.8
	c0,0.3-0.2,0.6-0.5,0.6c-0.3,0.1-0.6-0.1-0.7-0.4c-0.1-0.4-1.2-3.9-1-5.3c0.4-3.3,2.5-6,5.8-7.4c0.5-0.2,1.7-0.5,2.7-0.7
	c-0.5-0.2-1-0.3-1.7-0.2c-1.2,0.3-2.3,0.9-2.3,0.9c-0.2,0.1-0.5,0.1-0.7,0c-0.2-0.2-0.3-0.4-0.2-0.7c0.1-0.3,1.4-3.3,3.5-3.6
	c0.9-0.1,1.7-0.1,2.3,0c-0.1-0.8,0-1.9,0.4-2.8c0.7-1.3,0-2-0.1-2c-0.2-0.1-0.3-0.4-0.2-0.6c0-0.2,0.2-0.4,0.4-0.5
	c0.2,0,3.8-0.9,5.5,1.5c0.5,0.7,0.7,1.3,0.9,1.8c0.3,0.7,0.4,0.9,0.8,1c1,0.3,1.9,0.3,2.8-0.2c2.2-1.3,3-5.1,3.1-5.4
	c0-0.9-0.1-1.7-0.1-2.2c0-0.2,0-0.3,0-0.4c-0.3-6-4.3-13.8-5.8-15.1c-0.2-0.2-0.3-0.6-0.1-0.8c0.2-0.2,0.6-0.3,0.8-0.1
	c1.7,1.5,5.8,9.6,6.2,16c0,0.1,0,0.2,0,0.4c0.1,1.3,0.3,4.4-0.4,7.6c-0.4,1.6-0.9,3.1-1.4,4.5c-0.6,1.6-1.2,3.3-1,4
	c0.2,0.8,2.3,1,3.6,0.8c0.2,0,0.3,0,0.5,0.1c0.1,0.1,0.2,0.3,0.2,0.4c0,0.2,0,4.3-2.2,5.6c-1.5,0.9-3.1,0.7-4,0.4
	c-0.2,1-0.4,3.4,1.2,6.2c0.1,0.2,0.1,0.5,0,0.7C-525.2,437.5-525.4,437.7-526,437.7z M-530.4,429.8c0,0,0.1,0,0.1,0
	c0.3,0.1,0.5,0.4,0.4,0.7c0,0-0.4,1.9,0.2,3.6c0.5,1.5,2.2,2.2,3.1,2.4c-1.9-4-0.8-6.9-0.7-7c0.1-0.2,0.2-0.3,0.3-0.3
	c0.2-0.1,0.3,0,0.5,0c0.1,0,1.8,1,3.4,0c1.1-0.7,1.5-2.7,1.6-4c-1.3,0-3.7-0.1-4.2-1.8c-0.3-1,0.3-2.6,1.1-4.7
	c0.5-1.4,1.1-2.9,1.4-4.4c0.1-0.3,0.1-0.7,0.2-1c-0.5,0.9-1.3,1.8-2.2,2.3c-1.1,0.7-2.4,0.8-3.7,0.3c-0.9-0.3-1.2-1-1.5-1.7
	c-0.2-0.4-0.4-0.9-0.8-1.5c-0.8-1.2-2.4-1.3-3.4-1.2c0.3,0.6,0.3,1.5-0.2,2.6c-0.5,0.9-0.3,2.4-0.2,2.9c0,0.2,0,0.5-0.2,0.6
	c-0.2,0.1-0.4,0.2-0.6,0.1c0,0-1-0.5-2.5-0.2c-0.6,0.1-1.2,0.7-1.7,1.4c0.3-0.1,0.6-0.2,0.9-0.3c2.1-0.5,3.8,1.1,3.8,1.2
	c0.2,0.2,0.2,0.4,0.2,0.6s-0.2,0.4-0.4,0.4c-1.3,0.3-3.3,0.7-3.8,0.9c-1.4,0.6-4.6,2.3-5.1,6.4c0,0.4,0,1,0.2,1.7
	c0.2-0.5,0.5-1,0.9-1.4c0.7-0.7,1.6-1,2.7-0.8c0.7,0.1,1.7,0.7,3.3,1.7c1.5,1,3.5,2.2,4.4,2.2c0,0,0,0,0,0c1.4,0,1.7-1.2,1.8-1.3
	C-530.9,430-530.7,429.8-530.4,429.8z"/>
<path style="fill:#64AD25;" d="M-540,437.3c0,0-0.1,0-0.1,0c-0.1,0-1.4-0.3-2.8-1.6c-1.3-1.3-1.6-2.4-1.6-2.5
	c-0.1-0.3,0.2-0.6,0.5-0.7c0.3-0.1,0.6,0.2,0.7,0.5c0,0,0.2,0.9,1.2,1.9c0.2,0.2,0.4,0.3,0.6,0.5c-0.4-0.8-0.7-1.9-0.8-3.1
	c-0.2-2.6,1.6-3.9,2.6-4.2c0.3-0.1,0.6,0.1,0.7,0.4c0.1,0.3-0.1,0.6-0.4,0.7c-0.1,0-2,0.7-1.8,3c0.2,2.5,1.6,4.2,1.6,4.2
	c0.2,0.2,0.2,0.5,0.1,0.7C-539.6,437.2-539.8,437.3-540,437.3z"/>
<path style="fill:#64AD25;" d="M-540,437.3c-0.1,0-0.1,0-0.2,0c-0.1,0-1.3-0.4-2.7-1.5c-1.4-1.1-2-2.9-2.3-4.2
	c-0.3-1.4-0.4-2.9-0.3-3.7c0.4-3.3,2.5-6,5.8-7.4c0.5-0.2,1.7-0.5,2.7-0.7c-0.5-0.2-1-0.3-1.7-0.2c-1.2,0.3-2.3,0.9-2.3,0.9
	c-0.2,0.1-0.5,0.1-0.7,0c-0.2-0.2-0.3-0.4-0.2-0.7c0.1-0.3,1.4-3.3,3.5-3.6c0.9-0.1,1.7-0.1,2.3,0c-0.1-0.8,0-1.9,0.4-2.8
	c0.7-1.4-0.1-2-0.1-2c-0.2-0.1-0.3-0.4-0.2-0.6c0-0.2,0.2-0.4,0.4-0.5c0.2,0,3.8-0.9,5.5,1.5c0.3,0.5,0.6,0.9,0.8,1.2
	c0.5,0.8,0.7,1.1,1.2,1.3l-0.4,1.1c-1-0.3-1.4-0.9-1.9-1.8c-0.2-0.3-0.4-0.7-0.7-1.1c-0.8-1.2-2.4-1.3-3.4-1.2
	c0.3,0.6,0.3,1.5-0.2,2.6c-0.5,0.9-0.3,2.4-0.2,2.9c0,0.2,0,0.5-0.2,0.6c-0.2,0.1-0.4,0.2-0.6,0.1c0,0-1-0.5-2.5-0.2
	c-0.6,0.1-1.2,0.7-1.7,1.4c0.3-0.1,0.6-0.2,0.9-0.3c2.1-0.5,3.8,1.1,3.8,1.2c0.2,0.2,0.2,0.4,0.2,0.6s-0.2,0.4-0.4,0.4
	c-1.3,0.3-3.3,0.7-3.8,0.9c-1.4,0.6-4.6,2.3-5.1,6.4c-0.1,1.2,0.1,5.1,2.2,6.8c0.2,0.2,0.4,0.3,0.6,0.4c-0.4-0.8-0.7-1.8-0.8-3
	c-0.2-2.4,1.4-3.6,2.1-4c0,0,0,0,0,0c0,0,0,0,0,0.1l1.1,0.3c0,0.1-0.2,0.4-0.6,0.7c-0.6,0.3-1.6,1.1-1.4,2.8
	c0.2,2.5,1.6,4.2,1.6,4.2c0.2,0.2,0.2,0.5,0,0.7C-539.6,437.2-539.8,437.3-540,437.3z"/>
<path style="fill:#64AD25;" d="M-532.8,391.2C-532.9,391.2-532.9,391.2-532.8,391.2c-0.1,0-1.9-0.4-3.5-2.8
	c-0.9-1.4-1.6-3.2-2.3-5.4c0-0.1,0-0.3,0.2-0.3c0.1,0,0.3,0,0.3,0.2c0.6,2.2,1.3,4,2.2,5.3c1.4,2.2,3.1,2.5,3.1,2.5
	c0.1,0,0.2,0.2,0.2,0.3C-532.6,391.2-532.7,391.2-532.8,391.2z"/>
<path style="fill:#64AD25;" d="M-528,387.3c-0.9,0-4-0.2-6.5-2.6c-1.9-1.9-3.9-6.1-4.7-10c0-0.1,0.1-0.3,0.2-0.3
	c0.1,0,0.3,0.1,0.3,0.2c0.8,3.8,2.7,7.9,4.6,9.7c2.7,2.6,6.3,2.4,6.3,2.4c0.1,0,0.3,0.1,0.3,0.2c0,0.1-0.1,0.3-0.2,0.3
	C-527.8,387.3-527.9,387.3-528,387.3z"/>
<path style="fill:#64AD25;" d="M-546,416.7c-0.1,0-0.2,0-0.2-0.1c-0.1-0.1,0-0.3,0.1-0.4c0.1-0.1,2.6-1.7,2.3-5.5
	c-0.8-9.1,0.9-14.6,2.1-18.5c0.4-1.5,0.8-2.7,1-3.9c0.9-5.9,0.4-10.4-0.1-15.2c-0.5-4.9-1-10-0.1-16.9c0.4-2.8,2.6-9.9,6.8-13
	c6-4.4,13.9-3.1,14-3c0.1,0,0.2,0.2,0.2,0.3c0,0.1-0.2,0.2-0.3,0.2c-0.1,0-7.7-1.3-13.6,3c-4.1,3-6.3,9.9-6.6,12.6
	c-0.9,6.8-0.4,11.9,0.1,16.8c0.5,4.8,1,9.4,0.1,15.3c-0.2,1.2-0.6,2.5-1,3.9c-1.2,3.9-2.8,9.3-2,18.3c0.4,4.2-2.4,5.9-2.6,6
	C-545.9,416.7-545.9,416.7-546,416.7z"/>
<path style="fill:#64AD25;" d="M-530.8,429c-0.1,0-0.2-0.1-0.3-0.2c0-0.1-0.2-1.6,0.5-3.6c0.4-1.3,1.6-2.7,2.8-4.1
	c0.7-0.8,1.3-1.6,1.9-2.4c0.1-0.1,0.2-0.2,0.4-0.1c0.1,0.1,0.2,0.2,0.1,0.4c-0.5,0.8-1.2,1.6-1.9,2.4c-1.1,1.4-2.3,2.8-2.7,4
	c-0.6,1.9-0.4,3.4-0.4,3.4C-530.5,428.9-530.6,429-530.8,429C-530.8,429-530.8,429-530.8,429z"/>
<path style="fill:#64AD25;" d="M-543.2,427.7c0,0-0.1,0-0.1,0c-0.1-0.1-0.2-0.2-0.1-0.4c0-0.1,0.9-1.5,2.6-2.1c1-0.4,2-0.4,3.1-0.4
	c0.8,0,1.5,0,2.1-0.1c2.6-0.6,5-2.3,6.4-3.6c1.9-1.9,4.2-6.2,4.3-6.3c0.1-0.1,0.2-0.2,0.4-0.1c0.1,0.1,0.2,0.2,0.1,0.4
	c-0.1,0.2-2.4,4.4-4.3,6.4c-1.4,1.4-3.9,3.2-6.6,3.8c-0.7,0.2-1.4,0.2-2.2,0.2c-1,0-2,0-2.9,0.3c-1.6,0.6-2.4,1.9-2.4,1.9
	C-543.1,427.6-543.1,427.7-543.2,427.7z"/>
<path style="fill:#64AD25;" d="M-531.6,420.1c-1.4,0-2.7-0.4-2.9-0.6c-0.1-0.1-0.1-0.3-0.1-0.4s0.3-0.1,0.4-0.1c0.3,0.2,3,1,4.4,0.1
	c2.1-1.3,3-3.5,3-3.5c0.1-0.1,0.2-0.2,0.3-0.1c0.1,0.1,0.2,0.2,0.1,0.3c0,0.1-1,2.4-3.2,3.8C-530.2,419.9-530.9,420.1-531.6,420.1z"
	/>
<path style="fill:#64AD25;" d="M-530.7,417.9c-0.3,0-0.5,0-0.7-0.1c-1.8-0.4-2.2-2.6-2.1-3.7c0-0.1,0.1-0.3,0.3-0.2
	c0.1,0,0.3,0.1,0.2,0.3c0,0-0.2,2.8,1.6,3.2c0.3,0.1,1.6,0.3,2.5-0.8c0.1-0.1,0.3-0.1,0.4,0c0.1,0.1,0.1,0.3,0,0.4
	C-529.1,417.7-529.9,417.9-530.7,417.9z"/>
<path style="fill:#64AD25;" d="M-524.2,411.4C-524.2,411.4-524.2,411.4-524.2,411.4c-0.2,0-0.3-0.2-0.3-0.3c0,0,0.2-1.6,0.1-2.8
	c-0.3-4.9-3.4-7.7-6.7-10.7c-3.1-2.8-6.3-5.7-7.9-10.8c0-0.1,0-0.3,0.2-0.3c0.1,0,0.3,0,0.3,0.2c1.5,4.9,4.7,7.7,7.8,10.5
	c3.4,3,6.5,5.9,6.9,11c0.1,1.2-0.1,2.9-0.1,2.9C-524,411.3-524.1,411.4-524.2,411.4z"/>
<path style="fill:#64AD25;" d="M-545.2,412.6C-545.2,412.6-545.2,412.6-545.2,412.6c-0.2,0-0.3-0.2-0.3-0.3c0-0.2,0-0.7-0.1-1.3
	c-0.2-1.3-0.5-3.5-0.4-6.1c0.1-4,1.6-8,1.6-8.1c0-0.1,0.2-0.2,0.3-0.2c0.1,0,0.2,0.2,0.2,0.3c0,0-1.5,4-1.6,7.9
	c-0.1,2.6,0.2,4.7,0.4,6.1c0.1,0.7,0.2,1.2,0.1,1.5C-545,412.5-545.1,412.6-545.2,412.6z"/>
<path style="fill:#64AD25;" d="M-547.4,398.7C-547.4,398.7-547.4,398.7-547.4,398.7c-0.2,0-0.3-0.2-0.3-0.3c0.4-2.7,1.7-4.7,2.3-5.8
	c0.1-0.2,0.3-0.4,0.3-0.6c0.1-0.1,0.2-0.2,0.4-0.1c0.1,0.1,0.2,0.2,0.1,0.4c-0.1,0.1-0.2,0.3-0.3,0.6c-0.6,1.1-1.8,3.1-2.3,5.7
	C-547.2,398.6-547.3,398.7-547.4,398.7z"/>
<path style="fill:#64AD25;" d="M-528.6,382.9c-0.2,0-0.5,0-0.7,0c-3.5-0.3-5.7-2.5-6.7-3.8c-0.6-0.8-1.6-2.8-1.6-2.9
	c-0.1-0.1,0-0.3,0.1-0.4c0.1-0.1,0.3,0,0.4,0.1c0,0,1,2,1.6,2.8c1,1.2,3.1,3.3,6.4,3.6c2.2,0.2,4.4-0.8,4.4-0.8
	c0.1-0.1,0.3,0,0.3,0.1c0.1,0.1,0,0.3-0.1,0.3C-524.7,382.1-526.5,382.9-528.6,382.9z"/>
<path style="fill:#64AD25;" d="M-528.6,380.5c-0.4,0-0.9,0-1.4-0.1c-2.9-0.5-5-2.7-5.1-2.7c-0.1-0.1-0.1-0.3,0-0.4
	c0.1-0.1,0.3-0.1,0.4,0c0,0,2.1,2.1,4.8,2.6c2.4,0.4,4.3-0.5,4.3-0.5c0.1-0.1,0.3,0,0.4,0.1c0.1,0.1,0,0.3-0.1,0.4
	C-525.4,379.8-526.7,380.5-528.6,380.5z"/>
<path style="fill:#64AD25;" d="M-532.1,376c-0.9,0-1.8-0.3-2.5-0.8c-1.6-1-4.5-5.4-4.7-10.5c-0.4-10.7,4.9-18.6,5.2-19
	c0.2-0.2,0.5-0.3,0.7-0.2c0.3,0.1,0.4,0.4,0.3,0.7c0,0-0.7,3-0.5,4.8c0.3,2.2,1.4,4.5,2.2,5.9c0.7-2.8,2.4-8.7,5.2-10.6
	c2.6-1.8,6.2-1,10.4-0.2c3.6,0.7,7.7,1.5,12.1,1.1c7.2-0.7,10.2-3.7,11.4-5.4c-3.2,0.4-9.7,0-14.1-1.7c-2.6-1-5.7-2.8-6.5-5.1
	c-0.3-0.9-0.3-1.9,0.2-2.7c0.3-0.6,1.1-1.3,2.9-1.1c0.3,0,0.5,0.1,0.8,0.1c-0.2-0.5-0.4-0.9-0.6-1.2c-0.4-0.5-1.4-0.7-1.7-0.8
	c-0.2,0-0.4-0.2-0.4-0.4s0-0.4,0.2-0.6c0,0,1.2-1.1,1.2-3.6c0-1.2-0.4-2.2-0.7-2.8c-0.3,0.7-0.7,1.4-1.6,2c-0.9,0.6-1.5,0.7-2,0.7
	c-0.4,0-0.7,0.1-1.3,0.5c-1.2,0.9-1.4,2.3-1.4,2.3c0,0.3-0.3,0.5-0.5,0.5c-0.3,0-0.5-0.1-0.6-0.4c0,0-0.8-1.8-2.1-1.9
	c-1.6-0.1-3.3,0-3.7,3c-0.1,1,0.3,1.8,0.7,2.4c0.3-0.7,0.8-1.6,1.6-2c0.5-0.3,1.1-0.2,1.7,0c0.8,0.4,0.9,1.3,0.9,2.5
	c0.1,2,0.3,5,3.3,8.6c0.2,0.3,0.2,0.6-0.1,0.8c-0.3,0.2-0.6,0.2-0.8-0.1c-3.2-3.9-3.4-7.3-3.5-9.3c0-0.6-0.1-1.4-0.2-1.5
	c-0.3-0.1-0.5-0.1-0.6,0c-0.7,0.3-1.2,1.7-1.3,2.2c0,0.2-0.2,0.4-0.4,0.4c-0.2,0.1-0.4,0-0.6-0.1c-0.1-0.1-2-1.9-1.7-4.2
	c0.5-3.9,3.1-4.2,5-4.1c1.1,0.1,1.9,0.8,2.4,1.5c0.3-0.6,0.7-1.3,1.4-1.8c0.8-0.6,1.4-0.7,1.9-0.7c0.4,0,0.8-0.1,1.4-0.5
	c1.3-0.9,1.4-2.4,1.4-2.5c0-0.2,0.2-0.4,0.4-0.5c0.2-0.1,0.5,0,0.6,0.1c0.1,0.1,1.7,1.7,1.8,4.6c0,1.9-0.5,3.1-1,3.8
	c0.5,0.2,1,0.5,1.4,0.9c0.7,0.8,1.1,2.5,1.2,2.7c0,0.2,0,0.4-0.2,0.6c-0.2,0.1-0.4,0.2-0.6,0.1c-0.7-0.2-2.8-0.7-3.4,0.2
	c-0.3,0.5-0.4,1.1-0.1,1.7c0.6,1.6,2.8,3.3,5.8,4.4c5,1.9,12.9,2.1,14.6,1.3c0.2-0.1,0.5,0,0.6,0.1c0.2,0.2,0.2,0.4,0.1,0.6
	c-0.1,0.3-2.5,6.3-13,7.3c-4.7,0.4-8.8-0.4-12.5-1.1c-4.1-0.8-7.3-1.5-9.5,0c-3.1,2.1-5,11.2-5,11.3c0,0.2-0.2,0.4-0.5,0.5
	c-0.2,0-0.5,0-0.6-0.2c-0.1-0.2-2.7-4-3.2-7.6c-0.1-0.5-0.1-1.1,0-1.8c-1.5,3.2-3.6,8.8-3.3,15.3c0.2,4.9,3,8.8,4.1,9.6
	c1,0.7,2.3,0.8,3.3,0.3c1-0.5,1.6-1.6,1.7-3c0.1-2.1-1-5.8-1-5.8c-0.1-0.2,0-0.4,0.1-0.5c0.1-0.2,0.3-0.2,0.5-0.2
	c0.2,0,4.5,0,6.8,3.3c0.2,0.3,0.1,0.6-0.2,0.8c-0.3,0.2-0.6,0.1-0.8-0.2c-1.4-2-3.8-2.6-5-2.7c0.4,1.3,1,3.7,0.9,5.4
	c-0.1,1.9-1,3.3-2.4,4C-530.8,375.8-531.4,376-532.1,376z"/>
<path style="fill:#64AD25;" d="M-500.7,344.8c-2.2,0-5.1-0.4-8.6-1.6c-4.8-1.7-6.3-5.7-6.8-7.9c-1.2-5.3,2.8-8.6,2.8-8.7
	c0.1-0.1,0.3-0.1,0.4,0c0.1,0.1,0.1,0.3,0,0.4c0,0-3.7,3.2-2.6,8.2c0.5,2.1,1.9,5.9,6.5,7.5c4,1.4,7.2,1.6,9.2,1.6
	c2.2-0.1,3.4-0.5,3.4-0.5c0.1,0,0.3,0,0.3,0.2c0,0.1,0,0.3-0.2,0.3C-496.3,344.3-497.9,344.8-500.7,344.8z"/>
<path style="fill:#64AD25;" d="M-401.3,338.2c-3.3-0.6-5.9-0.7-8.7-0.3l-0.1-1.2c2.9-0.3,5.6-0.2,9,0.3L-401.3,338.2z"/>
<polygon style="fill:#64AD25;" points="-409.1,337.1 -409.9,337.9 -410.5,338 -409.7,337 "/>
<path style="fill:#64AD25;" d="M-378.9,368.6c-1,0-3.1-0.2-4.3-1.8c-0.6-0.8-1.5-3.3-1.6-3.6c-0.1-0.3,0-0.6,0.3-0.8
	c0.3-0.1,0.6,0,0.8,0.3c0.3,0.7,1.1,2.7,1.5,3.3c0.6,0.8,1.6,1.1,2.4,1.3c-0.6-0.7-1.3-1.7-1.8-3c-0.3-0.8-0.7-2-1.1-3.5
	c-1-3.5-2.4-8.2-4.8-11.8c-3.1-4.7-7-9.8-13.6-11c-0.3-0.1-0.5-0.4-0.5-0.7c0.1-0.3,0.4-0.5,0.7-0.5c7.1,1.2,11.2,6.6,14.4,11.5
	c2.5,3.7,3.9,8.5,4.9,12.1c0.4,1.4,0.8,2.6,1.1,3.3c1,2.3,2.6,3.6,2.6,3.6c0.2,0.2,0.3,0.4,0.2,0.6c-0.1,0.2-0.3,0.4-0.5,0.4
	C-378.4,368.6-378.6,368.6-378.9,368.6z"/>
<path style="fill:#64AD25;" d="M-382.7,375.6C-382.7,375.6-382.7,375.6-382.7,375.6c-0.2,0-0.3-0.1-0.3-0.3c0.2-3.6-2.9-8.7-2.9-8.7
	c-0.1-0.1,0-0.3,0.1-0.4c0.1-0.1,0.3,0,0.4,0.1c0.1,0.2,3.2,5.3,3,9C-382.4,375.5-382.5,375.6-382.7,375.6z"/>
<path style="fill:#64AD25;" d="M-378.1,385.3c-0.1,0-0.1,0-0.2,0c-0.3-0.1-7.1-2.9-9.1-9.4l1.1-0.3c1.2,3.8,4.2,6.3,6.3,7.6
	c-0.7-1.2-1.3-2.7-1-4c0.5-2.4,0.7-7.1-0.2-9c-0.2-0.5-0.5-1.3-1-2.3l1.1-0.5c0.4,1,0.8,1.8,1,2.3c1,2.4,0.7,7.5,0.2,9.7
	c-0.3,1.6,1.4,4.2,2.2,5c0.2,0.2,0.2,0.5,0,0.7C-377.7,385.2-377.9,385.3-378.1,385.3z"/>
<path style="fill:#64AD25;" d="M-377.6,393.6c-0.2,0-0.3-0.1-0.5-0.2c-0.6-0.7-1.6-1.6-2.1-1.7c-0.3-0.1-0.5-0.4-0.5-0.7
	c0.1-0.3,0.4-0.5,0.7-0.5c0.5,0.1,1,0.4,1.4,0.8c-0.2-0.8-0.5-1.7-0.9-2.4c-0.4-0.7-1.5-1.6-2.6-2.5c-2.5-2.1-5.5-4.6-5.8-8
	c-0.2-2.1,0.9-3.9,1.6-4.8c0.2-0.3,0.6-0.3,0.8-0.1c0.3,0.2,0.3,0.6,0.1,0.8c-0.4,0.6-1.5,2.3-1.3,4c0.2,2.9,3.1,5.3,5.4,7.2
	c1.3,1.1,2.4,2,2.9,2.8c1.1,1.8,1.4,4.6,1.4,4.7c0,0.3-0.1,0.5-0.4,0.6C-377.4,393.6-377.5,393.6-377.6,393.6z"/>
<path style="fill:#64AD25;" d="M-383,417c0,0-0.1,0-0.1,0c-0.2,0-4.4-1-6.4-4.9c-1.1-2.1-1.5-5.9-1.6-8.2c-0.7,1.1-1.3,2.2-1.3,2.8
	c-0.1,1.2-0.1,2.4-0.1,2.4c0,0.3-0.2,0.5-0.4,0.6c-0.2,0.1-0.5,0-0.7-0.2c-0.1-0.1-1.7-2.3-1.6-4.5c0.1-0.9,0.8-2.3,1.6-3.9
	c0.7-1.4,2.2-4.4,1.8-4.9c0-0.1-0.1-0.1-0.2-0.1c-0.7,0-2.1,1.3-2.8,2c-0.2,0.2-0.3,0.3-0.5,0.5c-2,1.9-4.4,5.5-5.2,9.3
	c-0.7,3.4,0.7,6.7,0.7,6.7c0.1,0.3,0,0.6-0.3,0.8c-0.3,0.1-0.6,0-0.8-0.3c-0.1-0.1-1.6-3.7-0.8-7.4c0.8-4.1,3.4-8,5.5-10
	c0.1-0.1,0.3-0.3,0.5-0.4c1.4-1.4,2.6-2.4,3.7-2.4c0.4,0,0.7,0.2,1,0.5c0.9,1,0,3-1.6,6.2c-0.7,1.4-1.4,2.8-1.5,3.4
	c0,0.6,0.1,1.2,0.3,1.8c0-0.1,0-0.2,0-0.2c0.1-1.3,2.1-4.3,2.5-4.9c0.1-0.2,0.4-0.3,0.7-0.2c0.2,0.1,0.4,0.3,0.4,0.6
	c0,0.1,0,6.8,1.6,9.6c1.2,2.3,3.3,3.4,4.6,3.9c-0.1-0.5-0.3-1.2-0.4-2c-0.2-1.8,1.3-4.6,2.4-6.6c0.2-0.4,0.4-0.7,0.5-1
	c0.7-1.3,0.2-4.6-0.1-5.8c-0.1-0.2,0.1-0.5,0.3-0.6c0.2-0.1,0.5-0.1,0.7,0l1.4,1.1c0.1-1,0.1-2.8-0.2-5c-0.5-3.6-1.9-5.4-1.9-5.4
	c-0.2-0.3-0.2-0.6,0.1-0.8c0.3-0.2,0.6-0.2,0.8,0.1c0.1,0.1,1.6,2.1,2.1,6c0.5,3.8,0.1,6.3,0,6.4c0,0.2-0.2,0.4-0.4,0.4
	c-0.2,0.1-0.4,0-0.6-0.1l-1-0.8c0.2,1.5,0.4,3.8-0.3,5c-0.1,0.3-0.3,0.6-0.5,1c-0.9,1.7-2.4,4.6-2.2,5.9c0.2,1.8,0.7,2.9,0.7,2.9
	c0.1,0.2,0.1,0.4-0.1,0.6C-382.7,417-382.8,417-383,417z"/>
<path style="fill:#64AD25;" d="M-397.5,391.8c-2.4,0-10.9-0.6-14.1-9.5c-1.3-3.5-2.4-11.5,2.3-13.6c3.5-1.6,6.5,1.2,6.7,1.3
	c0.2,0.2,0.2,0.4,0.2,0.6c-0.1,0.2-0.3,0.4-0.5,0.4c-0.1,0-2.4,0.3-3.6,3.5c-0.2,0.6-0.2,1.2-0.2,1.6l3.6-2c0.2-0.1,0.5-0.1,0.7,0.1
	c0.2,0.2,0.2,0.5,0.1,0.7c0,0-1.4,2.6-2,4.9c-0.2,0.9-0.3,1.6-0.3,2.1c0.1,1.5,0.5,2.8,1.1,3.7c0-1.4,0.7-2.1,0.8-2.1
	c0.1-0.1,0.4-0.2,0.6-0.1c0.2,0,0.4,0.2,0.4,0.4c0.3,1,1.4,3.8,2.2,4.8c1.1,1.3,2.9,1.9,3,1.9c0.3,0.1,0.5,0.3,0.4,0.6
	c0,0.3-0.3,0.5-0.5,0.5C-396.9,391.8-397.1,391.8-397.5,391.8z M-407,369.4c-0.6,0-1.2,0.1-1.8,0.4c-3.6,1.6-3.2,8.2-1.7,12.1
	c2.4,6.5,7.7,8.2,10.9,8.6c-0.4-0.3-0.7-0.6-1.1-1c-0.7-0.8-1.4-2.4-1.8-3.6c0,0.2,0,0.3,0.1,0.5c0.1,0.8,0.6,1.8,0.6,1.8
	c0.1,0.3,0,0.6-0.2,0.7c-0.2,0.2-0.5,0.1-0.7,0c-0.1-0.1-3-2.7-3.1-6.8c0-0.7,0.1-1.5,0.4-2.5c0.3-1.2,0.9-2.5,1.3-3.5l-2.8,1.5
	c-0.2,0.1-0.4,0.1-0.5,0c-0.2-0.1-0.3-0.2-0.3-0.4c0-0.1-0.3-1.7,0.2-3.1c0.9-2.4,2.3-3.4,3.3-3.9C-405,369.8-405.9,369.4-407,369.4
	z"/>
<path style="fill:#64AD25;" d="M-403,437.7c-0.6,0-0.8-0.2-0.9-0.3c-0.1-0.2-0.2-0.5,0-0.7c1.6-2.9,1.4-5.2,1.2-6.2
	c-0.9,0.3-2.5,0.6-4-0.4c-2.2-1.4-2.2-5.4-2.2-5.6c0-0.2,0.1-0.3,0.2-0.4c0.1-0.1,0.3-0.2,0.5-0.1c1.3,0.1,3.4,0,3.6-0.8
	c0.2-0.7-0.4-2.3-1-4c-0.5-1.4-1.1-3-1.4-4.5c-0.7-3.2-0.5-6.3-0.4-7.6c0-0.2,0-0.3,0-0.4c0.3-6.4,4.5-14.5,6.2-16
	c0.2-0.2,0.6-0.2,0.8,0.1c0.2,0.2,0.2,0.6-0.1,0.8c-1.5,1.3-5.5,9.2-5.8,15.1c0,0.1,0,0.3,0,0.4c0,0.5-0.1,1.2-0.1,2.2
	c0.1,0.3,0.9,4.1,3.1,5.4c0.8,0.5,1.7,0.5,2.8,0.2c0.4-0.1,0.5-0.3,0.8-1c0.2-0.5,0.5-1.1,0.9-1.8c1.8-2.5,5.4-1.6,5.5-1.5
	c0.2,0.1,0.4,0.2,0.4,0.5c0,0.2,0,0.5-0.2,0.6c-0.1,0.1-0.8,0.7-0.1,2c0.4,0.8,0.5,2,0.4,2.8c0.6-0.1,1.3-0.2,2.3,0
	c2.1,0.3,3.3,3.3,3.5,3.6c0.1,0.2,0,0.5-0.2,0.7c-0.2,0.2-0.5,0.2-0.7,0c0,0-1-0.6-2.3-0.9c-0.6-0.1-1.2,0-1.7,0.2
	c1,0.2,2.2,0.5,2.7,0.7c3.3,1.4,5.4,4.1,5.8,7.4c0.2,1.4-0.9,5-1,5.3c-0.1,0.3-0.4,0.5-0.7,0.4c-0.3-0.1-0.5-0.3-0.5-0.6
	c0.1-0.7,0.1-2.9-0.9-3.8c-0.4-0.4-1-0.6-1.8-0.5c-0.5,0.1-1.7,0.9-2.8,1.6c-1.8,1.2-3.7,2.4-5,2.4c-0.7,0-1.2-0.2-1.7-0.5
	c0,0.7-0.1,1.5-0.4,2.2c-0.7,2-2.7,3-4.2,3.2C-402.7,437.7-402.9,437.7-403,437.7z M-402.4,429c0.1,0,0.1,0,0.2,0
	c0.2,0.1,0.3,0.2,0.3,0.3c0.1,0.1,1.2,3-0.7,7c1-0.2,2.6-0.8,3.1-2.4c0.6-1.7,0.2-3.6,0.2-3.6c-0.1-0.3,0.1-0.6,0.4-0.7
	c0.3-0.1,0.6,0.1,0.7,0.4c0,0.1,0.4,1.3,1.8,1.3c0,0,0,0,0,0c0.9,0,2.8-1.2,4.4-2.2c1.6-1,2.6-1.7,3.3-1.7c1.1-0.1,2,0.1,2.7,0.8
	c0.4,0.4,0.7,0.9,0.9,1.4c0.1-0.7,0.2-1.4,0.2-1.7c-0.4-4.1-3.7-5.9-5.1-6.4c-0.6-0.2-3-0.8-3.8-0.9c-0.2,0-0.4-0.2-0.4-0.4
	c-0.1-0.2,0-0.4,0.2-0.6c0.1-0.1,1.7-1.7,3.8-1.2c0.3,0.1,0.6,0.2,0.9,0.3c-0.5-0.7-1.1-1.3-1.7-1.4c-1.6-0.2-2.5,0.2-2.5,0.2
	c-0.2,0.1-0.4,0.1-0.6-0.1c-0.2-0.1-0.3-0.4-0.2-0.6c0.1-0.5,0.3-2.1-0.2-2.9c-0.6-1.1-0.5-2-0.2-2.6c-1-0.1-2.5,0-3.4,1.2
	c-0.4,0.6-0.6,1.1-0.8,1.5c-0.3,0.7-0.6,1.4-1.5,1.7c-1.4,0.5-2.6,0.4-3.7-0.3c-0.9-0.5-1.7-1.4-2.2-2.3c0.1,0.3,0.1,0.7,0.2,1
	c0.3,1.5,0.9,3,1.4,4.4c0.8,2,1.3,3.7,1.1,4.7c-0.4,1.7-2.9,1.8-4.2,1.8c0.1,1.2,0.5,3.3,1.6,4c1.6,1,3.4,0.1,3.4,0
	C-402.6,429.1-402.5,429-402.4,429z"/>
<path style="fill:#64AD25;" d="M-389,437.3c-0.2,0-0.4-0.1-0.5-0.3c-0.1-0.2-0.1-0.5,0.1-0.7c0,0,1.4-1.7,1.6-4.2
	c0.2-2.3-1.7-2.9-1.8-3c-0.3-0.1-0.5-0.4-0.4-0.7c0.1-0.3,0.4-0.5,0.7-0.4c1,0.3,2.8,1.6,2.6,4.2c-0.1,1.2-0.5,2.3-0.8,3.1
	c0.2-0.1,0.4-0.3,0.6-0.5c1.1-1,1.2-1.9,1.2-1.9c0.1-0.3,0.4-0.5,0.7-0.5c0.3,0.1,0.5,0.4,0.5,0.7c0,0.1-0.2,1.3-1.6,2.5
	c-1.3,1.3-2.7,1.5-2.8,1.6C-389,437.3-389,437.3-389,437.3z"/>
<path style="fill:#64AD25;" d="M-389,437.3c-0.2,0-0.4-0.1-0.5-0.3c-0.1-0.2-0.1-0.5,0-0.7c0,0,1.4-1.7,1.6-4.2
	c0.2-1.7-0.8-2.5-1.4-2.8c-0.4-0.2-0.6-0.6-0.6-0.7l1.1-0.3c0-0.1,0-0.1,0-0.1c0,0,0,0,0,0c0.7,0.4,2.3,1.5,2.1,4
	c-0.1,1.2-0.4,2.2-0.8,3c0.2-0.1,0.4-0.3,0.6-0.4c2.1-1.7,2.3-5.6,2.2-6.8c-0.4-4.1-3.7-5.9-5.1-6.4c-0.6-0.2-3-0.8-3.8-0.9
	c-0.2,0-0.4-0.2-0.4-0.4c-0.1-0.2,0-0.4,0.2-0.6c0.1-0.1,1.7-1.7,3.8-1.2c0.3,0.1,0.6,0.2,0.9,0.3c-0.5-0.7-1.1-1.3-1.7-1.4
	c-1.6-0.2-2.5,0.2-2.5,0.2c-0.2,0.1-0.4,0.1-0.6-0.1c-0.2-0.1-0.3-0.4-0.2-0.6c0.1-0.5,0.3-2.1-0.2-2.9c-0.6-1.1-0.5-2-0.2-2.6
	c-1-0.1-2.5,0-3.4,1.2c-0.3,0.4-0.5,0.8-0.7,1.1c-0.5,0.8-0.9,1.4-1.9,1.8l-0.4-1.1c0.6-0.2,0.7-0.4,1.2-1.3
	c0.2-0.3,0.5-0.7,0.8-1.2c1.8-2.5,5.4-1.6,5.5-1.5c0.2,0.1,0.4,0.2,0.4,0.5c0,0.2,0,0.5-0.2,0.6c-0.1,0.1-0.8,0.7-0.1,2
	c0.4,0.8,0.5,2,0.4,2.8c0.6-0.1,1.3-0.2,2.3,0c2.1,0.3,3.3,3.3,3.5,3.6c0.1,0.2,0,0.5-0.2,0.7c-0.2,0.2-0.5,0.2-0.7,0
	c0,0-1-0.6-2.3-0.9c-0.6-0.1-1.2,0-1.7,0.2c1,0.2,2.2,0.5,2.7,0.7c3.3,1.4,5.4,4.1,5.8,7.4c0.1,0.8,0,2.3-0.3,3.7
	c-0.3,1.3-1,3.1-2.3,4.2c-1.4,1.1-2.6,1.5-2.7,1.5C-388.9,437.3-389,437.3-389,437.3z"/>
<path style="fill:#64AD25;" d="M-396.2,391.2c-0.1,0-0.2-0.1-0.3-0.2c0-0.1,0.1-0.3,0.2-0.3l0,0c0,0,1.7-0.4,3.1-2.5
	c0.9-1.3,1.6-3.1,2.2-5.3c0-0.1,0.2-0.2,0.3-0.2c0.1,0,0.2,0.2,0.2,0.3c-0.6,2.2-1.4,4.1-2.3,5.4
	C-394.2,390.9-396,391.2-396.2,391.2C-396.1,391.2-396.1,391.2-396.2,391.2z"/>
<path style="fill:#64AD25;" d="M-401,387.3c-0.1,0-0.2,0-0.2,0c-0.1,0-0.3-0.1-0.2-0.3c0-0.1,0.1-0.3,0.3-0.2c0,0,3.6,0.2,6.3-2.4
	c1.9-1.8,3.8-5.9,4.6-9.7c0-0.1,0.2-0.2,0.3-0.2c0.1,0,0.2,0.2,0.2,0.3c-0.8,3.9-2.8,8.1-4.7,10C-397,387.1-400.1,387.3-401,387.3z"
	/>
<path style="fill:#64AD25;" d="M-383,416.7c0,0-0.1,0-0.1,0c-0.1-0.1-2.9-1.8-2.6-6c0.8-9-0.8-14.4-2-18.3c-0.4-1.5-0.8-2.7-1-3.9
	c-0.9-5.9-0.4-10.5,0.1-15.3c0.5-4.9,1-10,0.1-16.8c-0.4-2.7-2.5-9.6-6.6-12.6c-5.8-4.3-13.5-3-13.6-3c-0.1,0-0.3-0.1-0.3-0.2
	c0-0.1,0.1-0.3,0.2-0.3c0.1,0,8-1.4,14,3c4.2,3.1,6.5,10.2,6.8,13c0.9,6.9,0.4,12-0.1,16.9c-0.5,4.8-1,9.3-0.1,15.2
	c0.2,1.2,0.6,2.4,1,3.9c1.2,4,2.9,9.4,2.1,18.5c-0.3,3.8,2.3,5.5,2.3,5.5c0.1,0.1,0.2,0.2,0.1,0.4
	C-382.8,416.7-382.9,416.7-383,416.7z"/>
<path style="fill:#64AD25;" d="M-398.2,429C-398.2,429-398.2,429-398.2,429c-0.2,0-0.3-0.1-0.3-0.3c0,0,0.2-1.5-0.4-3.4
	c-0.4-1.2-1.5-2.6-2.7-4c-0.7-0.8-1.4-1.6-1.9-2.4c-0.1-0.1,0-0.3,0.1-0.4c0.1-0.1,0.3,0,0.4,0.1c0.5,0.8,1.2,1.6,1.9,2.4
	c1.2,1.4,2.4,2.8,2.8,4.1c0.6,2,0.5,3.5,0.5,3.6C-397.9,428.9-398.1,429-398.2,429z"/>
<path style="fill:#64AD25;" d="M-385.8,427.7c-0.1,0-0.2,0-0.2-0.1c0,0-0.8-1.3-2.4-1.9c-0.9-0.3-1.9-0.3-2.9-0.3
	c-0.8,0-1.5,0-2.2-0.2c-2.7-0.6-5.2-2.4-6.6-3.8c-2-2-4.3-6.2-4.3-6.4c-0.1-0.1,0-0.3,0.1-0.4c0.1-0.1,0.3,0,0.4,0.1
	c0,0,2.3,4.4,4.3,6.3c1.4,1.4,3.8,3.1,6.4,3.6c0.6,0.1,1.3,0.1,2.1,0.1c1,0,2.1,0,3.1,0.4c1.7,0.6,2.6,2.1,2.6,2.1
	c0.1,0.1,0,0.3-0.1,0.4C-385.7,427.6-385.7,427.7-385.8,427.7z"/>
<path style="fill:#64AD25;" d="M-397.4,420.1c-0.7,0-1.5-0.1-2.1-0.5c-2.2-1.3-3.2-3.7-3.2-3.8c-0.1-0.1,0-0.3,0.1-0.3
	c0.1-0.1,0.3,0,0.3,0.1c0,0,1,2.3,3,3.5c1.4,0.9,4.2,0.1,4.4-0.1c0.1-0.1,0.3-0.1,0.4,0.1c0.1,0.1,0.1,0.3-0.1,0.4
	C-394.7,419.6-396,420.1-397.4,420.1z"/>
<path style="fill:#64AD25;" d="M-398.3,417.9c-0.8,0-1.7-0.3-2.3-1c-0.1-0.1-0.1-0.3,0-0.4c0.1-0.1,0.3-0.1,0.4,0
	c0.8,1.1,2.2,0.8,2.5,0.8c1.9-0.4,1.6-3.1,1.6-3.2c0-0.1,0.1-0.3,0.2-0.3c0.1,0,0.3,0.1,0.3,0.2c0.1,1.1-0.2,3.3-2.1,3.7
	C-397.8,417.9-398,417.9-398.3,417.9z"/>
<path style="fill:#64AD25;" d="M-404.8,411.4c-0.1,0-0.2-0.1-0.3-0.2c0-0.1-0.2-1.7-0.1-2.9c0.3-5.1,3.5-8,6.9-11
	c3.1-2.8,6.2-5.6,7.8-10.5c0-0.1,0.2-0.2,0.3-0.2c0.1,0,0.2,0.2,0.2,0.3c-1.6,5-4.8,7.9-7.9,10.8c-3.3,3-6.4,5.8-6.7,10.7
	c-0.1,1.2,0.1,2.8,0.1,2.8C-404.5,411.3-404.6,411.4-404.8,411.4C-404.8,411.4-404.8,411.4-404.8,411.4z"/>
<path style="fill:#64AD25;" d="M-383.8,412.6c-0.1,0-0.2-0.1-0.3-0.2c0-0.3,0-0.7,0.1-1.5c0.2-1.4,0.5-3.5,0.4-6.1
	c-0.1-3.9-1.6-7.9-1.6-7.9c0-0.1,0-0.3,0.2-0.3c0.1,0,0.3,0,0.3,0.2c0,0,1.5,4.1,1.6,8.1c0.1,2.6-0.2,4.8-0.4,6.1
	c-0.1,0.6-0.2,1.1-0.1,1.3C-383.5,412.4-383.6,412.5-383.8,412.6C-383.8,412.6-383.8,412.6-383.8,412.6z"/>
<path style="fill:#64AD25;" d="M-381.6,398.7c-0.1,0-0.2-0.1-0.3-0.2c-0.4-2.6-1.6-4.6-2.3-5.7c-0.1-0.2-0.3-0.4-0.3-0.6
	c-0.1-0.1,0-0.3,0.1-0.4c0.1-0.1,0.3,0,0.4,0.1c0.1,0.1,0.2,0.3,0.3,0.6c0.7,1.1,1.9,3.2,2.3,5.8
	C-381.3,398.6-381.4,398.7-381.6,398.7C-381.6,398.7-381.6,398.7-381.6,398.7z"/>
<path style="fill:#64AD25;" d="M-400.4,382.9c-2.1,0-3.9-0.8-4-0.8c-0.1-0.1-0.2-0.2-0.1-0.3c0.1-0.1,0.2-0.2,0.3-0.1
	c0,0,2.2,1,4.4,0.8c3.3-0.3,5.4-2.4,6.4-3.6c0.6-0.7,1.6-2.8,1.6-2.8c0.1-0.1,0.2-0.2,0.4-0.1c0.1,0.1,0.2,0.2,0.1,0.4
	c0,0.1-1,2.1-1.6,2.9c-1,1.3-3.2,3.4-6.7,3.8C-400,382.9-400.2,382.9-400.4,382.9z"/>
<path style="fill:#64AD25;" d="M-400.4,380.5c-1.9,0-3.2-0.7-3.2-0.7c-0.1-0.1-0.2-0.2-0.1-0.4c0.1-0.1,0.2-0.2,0.4-0.1
	c0,0,1.9,0.9,4.3,0.5c2.7-0.5,4.8-2.6,4.8-2.6c0.1-0.1,0.3-0.1,0.4,0c0.1,0.1,0.1,0.3,0,0.4c-0.1,0.1-2.2,2.3-5.1,2.7
	C-399.5,380.4-400,380.5-400.4,380.5z"/>
<path style="fill:#64AD25;" d="M-396.9,376c-0.7,0-1.3-0.1-1.9-0.4c-1.4-0.7-2.2-2.1-2.4-4c-0.1-1.7,0.5-4.2,0.8-5.4
	c-1.3,0.2-3.6,0.7-5,2.7c-0.2,0.3-0.6,0.3-0.8,0.2c-0.3-0.2-0.3-0.6-0.2-0.8c2.3-3.3,6.6-3.3,6.8-3.3c0.2,0,0.4,0.1,0.5,0.2
	c0.1,0.2,0.1,0.3,0.1,0.5c0,0-1.2,3.7-1,5.8c0.1,1.4,0.7,2.5,1.7,3c1,0.5,2.3,0.4,3.3-0.3c1.1-0.7,4-4.6,4.1-9.6
	c0.2-6.5-1.8-12.1-3.3-15.3c0,0.6,0.1,1.2,0,1.8c-0.4,3.6-3.1,7.5-3.2,7.6c-0.1,0.2-0.4,0.3-0.6,0.2c-0.2,0-0.4-0.2-0.5-0.5
	c0-0.1-1.9-9.1-5-11.3c-2.2-1.5-5.4-0.8-9.5,0c-3.7,0.7-7.8,1.6-12.5,1.1c-10.5-1-12.9-7-13-7.3c-0.1-0.2,0-0.5,0.1-0.6
	c0.2-0.2,0.4-0.2,0.6-0.1c1.7,0.7,9.6,0.6,14.6-1.3c3-1.1,5.2-2.9,5.8-4.4c0.2-0.6,0.2-1.2-0.1-1.7c-0.5-0.9-2.7-0.5-3.4-0.2
	c-0.2,0.1-0.4,0-0.6-0.1c-0.2-0.1-0.2-0.4-0.2-0.6c0-0.2,0.4-1.9,1.2-2.7c0.4-0.4,0.9-0.7,1.4-0.9c-0.5-0.7-1-2-1-3.8
	c0.1-2.9,1.7-4.5,1.8-4.6c0.2-0.2,0.4-0.2,0.6-0.1c0.2,0.1,0.4,0.3,0.4,0.5c0,0,0.1,1.6,1.4,2.5c0.6,0.5,1,0.5,1.4,0.5
	c0.5,0,1.1,0.1,1.9,0.7c0.7,0.5,1.2,1.2,1.4,1.8c0.5-0.7,1.3-1.4,2.4-1.5c1.9-0.1,4.5,0.1,5,4.1c0.3,2.3-1.7,4.1-1.7,4.2
	c-0.2,0.1-0.4,0.2-0.6,0.1c-0.2-0.1-0.4-0.2-0.4-0.4c-0.2-0.7-0.7-1.9-1.3-2.2c-0.1-0.1-0.3-0.1-0.6,0c-0.2,0.1-0.2,0.9-0.2,1.5
	c-0.1,2-0.3,5.4-3.5,9.3c-0.2,0.3-0.6,0.3-0.8,0.1c-0.3-0.2-0.3-0.6-0.1-0.8c3-3.6,3.1-6.6,3.3-8.6c0.1-1.2,0.1-2.1,0.9-2.5
	c0.6-0.3,1.1-0.3,1.7,0c0.8,0.4,1.3,1.3,1.6,2c0.4-0.6,0.9-1.5,0.7-2.4c-0.4-3-2.1-3.2-3.7-3c-1.3,0.1-2.1,1.9-2.1,1.9
	c-0.1,0.2-0.3,0.4-0.6,0.4c-0.3,0-0.5-0.2-0.5-0.5c0,0-0.3-1.5-1.4-2.3c-0.5-0.4-0.8-0.4-1.3-0.5c-0.5,0-1.1-0.1-2-0.7
	c-0.8-0.6-1.3-1.3-1.6-2c-0.4,0.7-0.7,1.6-0.7,2.8c-0.1,2.5,1.1,3.6,1.2,3.6c0.2,0.1,0.2,0.4,0.2,0.6c-0.1,0.2-0.2,0.4-0.4,0.4
	c-0.3,0.1-1.3,0.4-1.7,0.8c-0.2,0.2-0.4,0.7-0.6,1.2c0.2,0,0.5-0.1,0.8-0.1c1.8-0.2,2.6,0.5,2.9,1.1c0.5,0.8,0.6,1.8,0.2,2.7
	c-0.8,2.3-3.9,4.1-6.5,5.1c-4.4,1.7-10.9,2.1-14.1,1.7c1.2,1.7,4.2,4.8,11.4,5.4c4.5,0.4,8.6-0.4,12.1-1.1c4.2-0.8,7.8-1.6,10.4,0.2
	c2.7,1.9,4.5,7.8,5.2,10.6c0.8-1.4,2-3.7,2.2-5.9c0.2-1.7-0.5-4.7-0.5-4.8c-0.1-0.3,0.1-0.6,0.3-0.7c0.3-0.1,0.6,0,0.7,0.2
	c0.2,0.3,5.6,8.2,5.2,19c-0.2,5.1-3.1,9.5-4.7,10.5C-395.2,375.7-396,376-396.9,376z"/>
<path style="fill:#64AD25;" d="M-428.3,344.8c-2.7,0-4.3-0.6-4.4-0.6c-0.1,0-0.2-0.2-0.2-0.3c0-0.1,0.2-0.2,0.3-0.2
	c0,0,1.3,0.4,3.4,0.5c2,0.1,5.2-0.1,9.2-1.6c4.6-1.7,6-5.4,6.5-7.5c1.1-5-2.6-8.1-2.6-8.2c-0.1-0.1-0.1-0.3,0-0.4s0.3-0.1,0.4,0
	c0,0,4,3.4,2.8,8.7c-0.5,2.2-2,6.2-6.8,7.9C-423.2,344.5-426.2,344.8-428.3,344.8z"/>
<circle style="fill:#64AD25;" cx="-459.4" cy="329.6" r="0.5"/>
<circle style="fill:#64AD25;" cx="-459.6" cy="326.8" r="0.5"/>
<circle style="fill:#64AD25;" cx="-459.6" cy="324" r="0.5"/>
<circle style="fill:#64AD25;" cx="-459.4" cy="321" r="0.5"/>
<path style="fill:#64AD25;" d="M-451.8,329.9c-0.3,0-0.6-0.2-0.6-0.6c-0.2-3.7,0.9-7.2,1.7-10.2c0.7-2.4,1.3-4.6,1.3-6.5
	c0-3.7-1.1-7-3.2-9.4c-2.2-2.5-5.2-3.8-8.8-3.8c-4,0-8,1.2-11,3.3c-3.5,2.4-5.5,5.9-5.9,10c0,0.3-0.3,0.6-0.6,0.5
	c-0.3,0-0.6-0.3-0.5-0.6c0.4-4.5,2.6-8.2,6.4-10.9c3.2-2.2,7.4-3.5,11.7-3.5c7.7,0,13.2,5.9,13.2,14.4c0,2.1-0.7,4.4-1.4,6.9
	c-0.9,3-1.9,6.3-1.7,9.8C-451.2,329.6-451.5,329.9-451.8,329.9C-451.8,329.9-451.8,329.9-451.8,329.9z"/>
<path style="fill:#64AD25;" d="M-453.4,327.5c-0.1,0-0.3-0.1-0.3-0.3c-0.1-3.2,0.7-6.2,1.5-8.8c0.6-2.1,1.2-4,1.2-5.7
	c0-6.9-4.4-11.7-10.6-11.7c-0.1,0-0.3-0.1-0.3-0.3s0.1-0.3,0.3-0.3c6.6,0,11.2,5,11.2,12.2c0,1.8-0.6,3.8-1.2,5.9
	c-0.8,2.6-1.6,5.5-1.5,8.6C-453.2,327.4-453.3,327.5-453.4,327.5C-453.4,327.5-453.4,327.5-453.4,327.5z"/>
<path style="fill:#64AD25;" d="M-467.2,301.9c-0.1,0-0.2-0.1-0.3-0.2c0-0.1,0-0.3,0.2-0.3c0.9-0.3,1.8-0.5,2.8-0.7
	c0.1,0,0.3,0.1,0.3,0.2c0,0.1-0.1,0.3-0.2,0.3C-465.4,301.4-466.3,301.7-467.2,301.9C-467.2,301.9-467.2,301.9-467.2,301.9z"/>
<path style="fill:#64AD25;" d="M-471.8,337.7c-0.3,0-0.5-0.2-0.6-0.5c-0.4-3.4-1.4-6-2.5-9.2c-0.1-0.3,0-0.6,0.4-0.8
	c0.3-0.1,0.6,0,0.8,0.4c1.2,3.3,2.1,5.9,2.6,9.5C-471.1,337.3-471.4,337.6-471.8,337.7C-471.7,337.7-471.7,337.7-471.8,337.7z"/>
<path style="fill:#64AD25;" d="M-478.4,327.9c-0.1,0-0.2-0.1-0.3-0.2c0,0-0.6-4.1-3.1-8.6c-0.7-1.3-3.8-5.4-3.8-5.5
	c-0.1-0.1-0.1-0.2,0-0.3c0.1-0.1,0.2-0.1,0.3-0.1c0.1,0,8.2,4.2,16.9,2.8c3.5-0.6,9.3-3.1,10-3.6c0.1-0.1,0.3-0.1,0.4,0
	c0.1,0.1,0.1,0.3,0,0.4c-0.8,0.7-6.8,3.2-10.3,3.8c-7.1,1.1-13.9-1.4-16.3-2.4c0.9,1.3,2.7,3.7,3.2,4.7c2.2,3.9,3,7.6,3.1,8.6
	l11-0.2l10.7-13c0.1-0.1,0.3-0.1,0.4,0c0.1,0.1,0.1,0.3,0,0.4l-10.8,13.1c0,0.1-0.1,0.1-0.2,0.1L-478.4,327.9
	C-478.4,327.9-478.4,327.9-478.4,327.9z"/>
<path style="fill:#64AD25;" d="M-455.8,314.5c-1.4,0-2.6-1.2-2.6-2.6c0-1.4,1.2-2.6,2.6-2.6c1.4,0,2.6,1.2,2.6,2.6
	C-453.2,313.3-454.3,314.5-455.8,314.5z M-455.8,309.8c-1.2,0-2.1,0.9-2.1,2.1s0.9,2.1,2.1,2.1s2.1-0.9,2.1-2.1
	S-454.6,309.8-455.8,309.8z"/>
<path style="fill:#64AD25;" d="M-455.8,313c-0.6,0-1.1-0.5-1.1-1.1s0.5-1.1,1.1-1.1s1.1,0.5,1.1,1.1S-455.2,313-455.8,313z
	 M-455.8,311.3c-0.3,0-0.5,0.2-0.5,0.5c0,0.3,0.2,0.5,0.5,0.5c0.3,0,0.5-0.2,0.5-0.5C-455.2,311.6-455.5,311.3-455.8,311.3z"/>
<path style="fill:#64AD25;" d="M-457.2,331.3c-0.1,0-0.2-0.1-0.3-0.2c0-0.2-0.7-4.9-0.4-8.1c0.5-4.6,1.8-8.8,1.8-8.8
	c0-0.1,0.2-0.2,0.3-0.2c0.1,0,0.2,0.2,0.2,0.3c0,0-1.3,4.2-1.8,8.7c-0.3,3.1,0.4,7.9,0.4,8C-456.9,331.2-457,331.3-457.2,331.3
	C-457.2,331.3-457.2,331.3-457.2,331.3z"/>
<path style="fill:#64AD25;" d="M-458.3,311.7C-458.3,311.7-458.4,311.7-458.3,311.7c-0.1,0-6.9-1.1-9.7-1.9c-6.4-1.8-8-4-8.1-4.1
	c-0.1-0.1-0.1-0.3,0.1-0.4c0.1-0.1,0.3-0.1,0.4,0.1c0,0,1.7,2.2,7.8,3.9c2.8,0.8,9.6,1.8,9.6,1.8c0.1,0,0.2,0.2,0.2,0.3
	C-458.1,311.6-458.2,311.7-458.3,311.7z"/>
<path style="fill:#64AD25;" d="M-458.9,310.1C-459,310.1-459,310.1-458.9,310.1c-0.1,0-5.9-0.7-9.5-1.9c-6.2-2.1-6.8-3.7-6.9-3.8
	c0-0.1,0-0.3,0.2-0.3c0.1,0,0.3,0,0.3,0.2c0,0,0.7,1.5,6.5,3.5c3.6,1.2,9.3,1.9,9.3,1.9c0.1,0,0.2,0.1,0.2,0.3
	C-458.7,310-458.8,310.1-458.9,310.1z"/>
<path style="fill:#64AD25;" d="M-470.2,337.8c-0.9,0-1.6-0.1-1.6-0.1c-0.1,0-0.2-0.2-0.2-0.3c0-0.1,0.2-0.2,0.3-0.2
	c0,0,3.7,0.7,6.3-1.4c5.7-4.6,13.4-6.7,13.5-6.7c0.1,0,0.3,0,0.3,0.2c0,0.1,0,0.3-0.2,0.3c-0.1,0-7.6,2.1-13.3,6.6
	C-466.7,337.5-468.8,337.8-470.2,337.8z"/>
<path style="fill:#64AD25;" d="M-470.3,342.6c-1.2,0-2.5-0.1-4.1-0.2c-3.4-0.3-8.1-1.4-8.3-1.4c-0.2,0-0.4-0.2-0.4-0.4
	c-0.1-0.2,0-0.4,0.1-0.6l9.1-9.3c0.2-0.2,0.6-0.2,0.8,0c0.2,0.2,0.2,0.6,0,0.8l-8.3,8.5c1.6,0.3,4.8,1,7.1,1.2
	c5.6,0.5,7.7,0.2,13.6-1.6c0.3-0.1,0.6,0.1,0.7,0.4c0.1,0.3-0.1,0.6-0.4,0.7C-464.7,342.1-467.1,342.6-470.3,342.6z"/>
<path style="fill:#64AD25;" d="M-453.2,341.9c-0.8,0-1.7,0-2.5-0.1c-2.3-0.2-4.9-1-5-1c-0.3-0.1-0.5-0.4-0.4-0.7
	c0.1-0.3,0.4-0.5,0.7-0.4c0,0,2.6,0.8,4.7,1c4.5,0.3,8.9-0.3,10.7-0.7l-7.5-10.3c-0.2-0.3-0.1-0.6,0.1-0.8c0.3-0.2,0.6-0.1,0.8,0.1
	l8,11.1c0.1,0.2,0.1,0.4,0.1,0.6c-0.1,0.2-0.2,0.3-0.4,0.4C-443.9,341-448.1,341.9-453.2,341.9z"/>
<path style="fill:#64AD25;" d="M-485.4,313.7c-0.1,0-0.2,0-0.2-0.1c-0.1-0.1,0-0.3,0.1-0.4c0.2-0.1,6-3.6,7.1-4.1
	c0.1-0.1,0.3,0,0.3,0.1c0.1,0.1,0,0.3-0.1,0.3c-1.1,0.5-6.9,4-7,4.1C-485.3,313.7-485.4,313.7-485.4,313.7z"/>
<path style="fill:#64AD25;" d="M-469.7,314.4c-4.5,0-9.2-1.2-9.2-1.2c-0.1,0-0.2-0.2-0.2-0.3c0-0.1,0.2-0.2,0.3-0.2
	c0,0,4.6,1.2,9.1,1.2c3.4,0,11.3-1.5,11.4-1.5c0.1,0,0.3,0.1,0.3,0.2c0,0.1-0.1,0.3-0.2,0.3C-458.5,312.9-466.3,314.4-469.7,314.4z"
	/>
<path style="fill:#64AD25;" d="M-475.2,325c-0.1,0-0.2-0.1-0.3-0.2c-0.9-4.1-2.2-5.9-2.2-6c-0.1-0.1-0.1-0.3,0.1-0.4
	c0.1-0.1,0.3-0.1,0.4,0.1c0.1,0.1,1.4,1.9,2.3,6.1C-475,324.9-475,325-475.2,325C-475.2,325-475.2,325-475.2,325z"/>
<path style="fill:#64AD25;" d="M-470.5,324c-0.1,0-0.2-0.1-0.3-0.2c-0.6-3.1-1.5-4.6-1.5-4.6c-0.1-0.1,0-0.3,0.1-0.4
	c0.1-0.1,0.3,0,0.4,0.1c0,0.1,1,1.5,1.6,4.8C-470.2,323.8-470.3,324-470.5,324C-470.4,324-470.5,324-470.5,324z"/>
<path style="fill:#64AD25;" d="M-466.1,322c-0.1,0-0.2-0.1-0.3-0.2c-0.4-2.3-1.1-3.4-1.1-3.4c-0.1-0.1,0-0.3,0.1-0.4
	c0.1-0.1,0.3,0,0.4,0.1c0,0,0.8,1.2,1.2,3.6C-465.8,321.8-465.9,321.9-466.1,322C-466,322-466.1,322-466.1,322z"/>
<path style="fill:#64AD25;" d="M-461,340.4c-0.1,0-0.2-0.1-0.3-0.2c0-0.1,0-0.3,0.2-0.3c2.7-0.9,6.4-3.6,7.3-4.2l-3.7-5
	c-0.1-0.1-0.1-0.3,0.1-0.4c0.1-0.1,0.3-0.1,0.4,0.1l3.8,5.2c0.1,0.1,0.1,0.3-0.1,0.4C-453.4,336-457.8,339.3-461,340.4
	C-460.9,340.4-460.9,340.4-461,340.4z"/>
<path style="fill:#64AD25;" d="M-530.5,457.5h-15.6c-0.3,0-0.5-0.2-0.6-0.4c-0.1-0.2,0-0.5,0.2-0.7l10.4-7.5l-10.4-7.1
	c-0.2-0.1-0.3-0.4-0.2-0.7c0.1-0.2,0.3-0.4,0.6-0.4h21c0.2,0,4.2-0.1,6.2,0.5c1.5,0.5,2.4,1.4,2.4,2.6c0,3.7-8,6.8-8.9,7.1
	c-0.3,0.1-0.6,0-0.8-0.3c-0.1-0.3,0-0.6,0.3-0.8c3.1-1.2,8.1-3.8,8.1-6c0-0.9-1.2-1.3-1.6-1.5c-1.8-0.6-5.8-0.4-5.8-0.4l-19.1,0
	l9.5,6.5c0.2,0.1,0.3,0.3,0.3,0.5c0,0.2-0.1,0.4-0.2,0.5l-9.6,6.9h13.7c0.3,0,0.6,0.3,0.6,0.6C-529.9,457.2-530.2,457.5-530.5,457.5
	z"/>
<path style="fill:#64AD25;" d="M-464.5,503.8c-13.7,0-27.8-3.9-40.7-11.2c-11.3-6.4-21.5-15.4-28.8-25.3c-0.7-1-1.5-2.1-2.1-3.1
	c-0.1-0.2-0.1-0.5,0-0.7l10-13.5c0.1-0.2,0.3-0.2,0.5-0.2c0.2,0,0.4,0.1,0.5,0.3c6.4,9.8,15.3,18.7,25.1,25
	c11.2,7.2,23.5,11,35.5,11c0.3,0,0.6,0.3,0.6,0.6c0,0.3-0.3,0.6-0.6,0.6c-12.2,0-24.7-3.9-36.1-11.2c-9.7-6.3-18.6-15-25-24.6
	l-9.2,12.5c0.6,0.9,1.2,1.8,1.9,2.7c7.2,9.8,17.3,18.7,28.4,25c12.7,7.2,26.6,11.1,40.1,11.1c0.3,0,0.6,0.3,0.6,0.6
	C-463.9,503.5-464.2,503.8-464.5,503.8z"/>
<path style="fill:#64AD25;" d="M-519,459.1C-519,459.1-519.1,459.1-519,459.1c-0.4,0-0.6-0.3-0.6-0.7l1.9-14.7
	c0-0.3,0.3-0.6,0.7-0.5c0.3,0,0.6,0.3,0.5,0.7l-1.9,14.7C-518.5,458.9-518.7,459.1-519,459.1z"/>
<path style="fill:#64AD25;" d="M-382.9,457.5h-15.6c-0.3,0-0.6-0.3-0.6-0.6c0-0.3,0.3-0.6,0.6-0.6h13.7l-9.6-6.9
	c-0.2-0.1-0.2-0.3-0.2-0.5c0-0.2,0.1-0.4,0.3-0.5l9.5-6.5h-19.1c-0.1,0-4.1-0.1-5.8,0.4c-0.4,0.1-1.6,0.6-1.6,1.5c0,2.2,5,4.8,8.1,6
	c0.3,0.1,0.5,0.5,0.3,0.8c-0.1,0.3-0.5,0.5-0.8,0.3c-0.9-0.3-8.9-3.4-8.9-7.1c0-1.1,0.9-2.1,2.4-2.6c2-0.6,6-0.5,6.2-0.5l21,0
	c0.3,0,0.5,0.2,0.6,0.4c0.1,0.2,0,0.5-0.2,0.7L-393,449l10.4,7.5c0.2,0.1,0.3,0.4,0.2,0.7C-382.4,457.3-382.7,457.5-382.9,457.5z"/>
<path style="fill:#64AD25;" d="M-464.5,503.8c-0.3,0-0.6-0.3-0.6-0.6c0-0.3,0.3-0.6,0.6-0.6c13.5,0,27.4-3.8,40.1-11.1
	c11.1-6.3,21.2-15.2,28.4-25c0.7-0.9,1.3-1.8,1.9-2.7l-9.2-12.5c-6.4,9.6-15.3,18.4-25,24.6c-11.4,7.3-23.9,11.2-36.1,11.2
	c-0.3,0-0.6-0.3-0.6-0.6c0-0.3,0.3-0.6,0.6-0.6c12,0,24.2-3.8,35.5-11c9.8-6.3,18.8-15.2,25.1-25c0.1-0.2,0.3-0.3,0.5-0.3
	c0.2,0,0.4,0.1,0.5,0.2l10,13.5c0.1,0.2,0.2,0.5,0,0.7c-0.7,1.1-1.4,2.1-2.1,3.1c-7.3,9.9-17.5,18.9-28.8,25.3
	C-436.7,499.9-450.8,503.8-464.5,503.8z"/>
<path style="fill:#64AD25;" d="M-410,459.1c-0.3,0-0.5-0.2-0.6-0.5l-1.9-14.7c0-0.3,0.2-0.6,0.5-0.7c0.3,0,0.6,0.2,0.7,0.5l1.9,14.7
	C-409.3,458.8-409.6,459.1-410,459.1C-409.9,459.1-410,459.1-410,459.1z"/>
<path style="fill:#64AD25;" d="M-464.5,426.9"/>
<path style="fill:#64AD25;" d="M-464.4,423.9L-464.4,423.9c-0.2,0-0.3-0.1-0.4-0.2c0,0-0.8-1.2-1.3-1.6c-0.4-0.4-0.3-1.1-0.2-1.6
	c0-0.2,0.1-0.5,0.1-0.6c-0.1-0.1-0.1-0.1-0.2-0.1c-0.1,0.1-0.3,0.3-0.4,0.5c-0.1,0.2-0.3,0.4-0.4,0.6c-0.5,0.5-1.5-0.1-1.9-0.4
	c-0.1-0.1-0.7-0.6-0.7-1.4c0-1.1,2.5-1.8,2.5-1.8c1.7-0.5,4.4-0.5,5.7,0c2.5,0.9,2.5,1.6,2.5,1.8c0,0.8-0.6,1.3-0.7,1.4
	c-0.4,0.3-1.4,0.9-1.9,0.4c-0.2-0.2-0.3-0.4-0.4-0.6c-0.1-0.2-0.3-0.4-0.4-0.5c-0.1-0.1-0.1-0.1-0.2,0.1c0,0.1,0,0.4,0.1,0.6
	c0.1,0.5,0.3,1.2-0.2,1.6c-0.5,0.5-1.2,1.6-1.3,1.6C-464.2,423.8-464.3,423.9-464.4,423.9z M-466.3,419c0.3,0,0.6,0.2,0.8,0.5
	c0.2,0.3,0.1,0.7,0,1.1c-0.1,0.3-0.2,0.8-0.1,0.9c0.3,0.3,0.8,0.9,1,1.3c0.3-0.4,0.7-1,1-1.3c0.1-0.1,0-0.6-0.1-0.9
	c-0.1-0.4-0.2-0.8,0-1.1c0.3-0.5,0.8-0.6,1.3-0.3c0.3,0.2,0.5,0.5,0.7,0.8c0.1,0.2,0.2,0.3,0.3,0.4c0,0,0,0,0,0
	c0.2,0,0.6-0.2,0.9-0.4c0,0,0,0,0,0c0,0,0.4-0.3,0.4-0.7c0-0.1-0.5-0.6-1.9-1.1c-1.2-0.4-3.7-0.4-5.3,0c-0.8,0.2-1.9,0.8-1.9,1.1
	c0,0.4,0.4,0.7,0.4,0.7c0.3,0.2,0.7,0.4,0.9,0.4c0.1-0.1,0.2-0.3,0.3-0.4c0.2-0.3,0.4-0.6,0.7-0.8C-466.6,419-466.4,419-466.3,419z"
	/>
<path style="fill:#64AD25;" d="M-469.4,419.2"/>
<path style="fill:#64AD25;" d="M-487.4,397.5c-0.4,0-0.9-0.4-1.8-2.6c-1.8-4.2-5.3-16-3.8-17c0.2-0.1,0.5-0.1,0.9,0
	c2.7,1.1,11,10,11.6,12.6c0,0,0,0.1,0,0.1c-0.1,0.5-0.3,1-0.8,1.3c-1.2,0.8-3.2,0.5-4,0.3c-0.1,1.2-0.4,4.9-1.9,5.3
	C-487.3,397.5-487.3,397.5-487.4,397.5z M-492.6,378.4C-492.7,378.4-492.7,378.4-492.6,378.4c-0.1,0-0.6,0.4,0.3,4.7
	c1.4,6.4,4.1,13.8,4.9,13.9c1-0.2,1.5-3.2,1.5-5.1c0-0.1,0-0.2,0.1-0.2c0.1,0,0.1-0.1,0.2,0c0,0,2.7,0.7,3.9-0.2
	c0.3-0.2,0.5-0.5,0.5-0.9c-0.7-2.5-8.7-11.2-11.3-12.2C-492.5,378.4-492.6,378.4-492.6,378.4z"/>
<path style="fill:#64AD25;" d="M-471.1,407.4"/>
<path style="fill:#64AD25;" d="M-474.7,408.4c-1.9,0-3.5-1.6-3.5-3.5c0-0.6,0.2-1.2,0.4-1.7c0-0.1,0.1-0.1,0.2-0.1
	c0.3,0,0.6-0.1,0.9-0.1c0.1,0,0.2,0,0.2,0.1c0.1,0.1,0.1,0.2,0,0.3c-0.2,0.3-0.3,0.7-0.3,1.1c0,1.3,1,2.3,2.3,2.3
	c1.1,0,2.1-0.9,2.3-2c0-0.1,0.1-0.2,0.2-0.2c0.1,0,0.2,0,0.3,0.1c0.1,0.2,0.2,0.3,0.3,0.5c0,0,0,0.1,0,0.1
	C-471.5,407.1-473,408.4-474.7,408.4z M-477.4,403.6c-0.2,0.4-0.3,0.9-0.3,1.3c0,1.6,1.3,3,3,3c1.2,0,2.2-0.7,2.7-1.7
	c-0.5,0.7-1.4,1.2-2.3,1.2c-1.6,0-2.9-1.3-2.9-2.9c0-0.3,0.1-0.6,0.2-1C-477.2,403.6-477.3,403.6-477.4,403.6z"/>
<path style="fill:#64AD25;" d="M-475.4,410.1c-2,0-4-1.3-4.7-3.3c-0.3-0.8-0.4-1.6-0.2-2.5c0-0.1,0.1-0.2,0.2-0.2
	c0.1,0,0.2,0.1,0.2,0.2c-0.1,0.8-0.1,1.6,0.2,2.3c0.9,2.4,3.5,3.6,5.9,2.8c0.1,0,0.2,0,0.3,0.1c0,0.1,0,0.2-0.1,0.3
	C-474.3,410.1-474.8,410.1-475.4,410.1z"/>
<path style="fill:#64AD25;" d="M-471.1,407.8C-471.1,407.8-471.1,407.8-471.1,407.8c-0.2,0-0.3-0.1-0.3-0.3c0,0,0.1-1.8-1-2.9
	c-0.7-0.7-1.7-1.1-3.1-1.1c-1.6,0-2.9,0.2-4,0.4c-2.3,0.4-4.1,0.7-6.5-0.9c-0.1-0.1-0.2-0.2-0.1-0.4c0.1-0.1,0.2-0.2,0.4-0.1
	c2.3,1.5,3.9,1.2,6.1,0.8c1.2-0.2,2.5-0.4,4.1-0.4c1.5,0,2.6,0.4,3.4,1.3c1.3,1.3,1.2,3.2,1.1,3.3
	C-470.9,407.7-471,407.8-471.1,407.8z"/>
<path style="fill:#64AD25;" d="M-479.8,403.9c-1,0-3.2-0.4-4.2-3.5c0-0.1,0-0.2,0.1-0.2c0.1,0,0.2,0,0.2,0.1c1.1,3.7,4,3.2,4.2,3.2
	c0.1,0,0.2,0.1,0.2,0.2c0,0.1-0.1,0.2-0.2,0.2C-479.3,403.8-479.5,403.9-479.8,403.9z"/>
<path style="fill:#64AD25;" d="M-476,416.6c-0.1,0-0.2-0.1-0.3-0.2c0-0.1,0.1-0.3,0.2-0.3c5.5-1.3,5-5.9,4.9-6.1
	c0-0.1,0.1-0.3,0.2-0.3c0.1,0,0.3,0.1,0.3,0.2C-470.6,410-470,415.1-476,416.6C-476,416.6-476,416.6-476,416.6z"/>
<path style="fill:#64AD25;" d="M-469.5,418.5"/>
<path style="fill:#64AD25;" d="M-469.4,419.4c-0.1,0-0.2,0-0.2-0.1c-0.1-0.1-0.8-1.6,1-7c1.9-5.5-0.5-12.7-4.9-14.4
	c-0.1-0.1-0.2-0.2-0.1-0.3c0.1-0.1,0.2-0.2,0.3-0.1c4.6,1.9,7.2,9.2,5.2,15.1c-1.8,5.2-1.1,6.6-1,6.6c0.1,0.1,0,0.3-0.1,0.4
	C-469.3,419.4-469.4,419.4-469.4,419.4z"/>
<path style="fill:#64AD25;" d="M-475.4,393.3c-0.1,0-0.2-0.1-0.2-0.2c-3-7.5,0.2-14.3,0.2-14.4c0-0.1,0.1-0.1,0.2-0.1l2.8-0.9
	c0.1,0,0.2,0,0.3,0.1c0.1,0.1,0.1,0.2,0,0.3c-4.6,7.3-3.1,14.8-3,14.8C-475.1,393.1-475.2,393.2-475.4,393.3
	C-475.3,393.3-475.3,393.3-475.4,393.3z M-474.9,379.1c-0.3,0.8-2.3,5.6-0.9,11.4c-0.1-2.8,0.3-7.4,3-12.1L-474.9,379.1z"/>
<path style="fill:#64AD25;" d="M-468.8,392.1c-0.1,0-0.2-0.1-0.2-0.2c-3-7.5,0.2-14.7,0.2-14.8c0-0.1,0.1-0.1,0.2-0.2l2.6-0.2
	c0.1,0,0.2,0,0.2,0.1c0.1,0.1,0.1,0.2,0,0.3c-4.6,7.3-2.9,14.5-2.9,14.6C-468.6,391.9-468.6,392.1-468.8,392.1
	C-468.8,392.1-468.8,392.1-468.8,392.1z M-468.4,377.5c-0.4,0.9-2.2,5.8-1,11.5c-0.1-2.8,0.3-7.2,3-11.7L-468.4,377.5z"/>
<path style="fill:#64AD25;" d="M-443.1,416.8C-443.1,416.8-443.1,416.8-443.1,416.8c-0.1,0-0.1-0.1-0.1-0.1
	c-0.7-5.2-4.4-8.1-4.4-8.2c-0.1,0-0.1-0.1,0-0.2c0-0.1,0.1-0.1,0.2,0c4.4,2.3,5.5,6.8,5.5,6.8c0,0,0,0.1,0,0.1l-1,1.5
	C-443,416.8-443,416.8-443.1,416.8z M-446.5,409.2c1.1,1.2,3,3.6,3.5,7.1l0.8-1.2C-442.4,414.7-443.4,411.4-446.5,409.2z"/>
<path style="fill:#64AD25;" d="M-445.7,419.7C-445.7,419.7-445.7,419.7-445.7,419.7c-0.1,0-0.1-0.1-0.1-0.1c-0.7-5.2-4.4-8-4.4-8
	c-0.1,0-0.1-0.1,0-0.2c0-0.1,0.1-0.1,0.2,0c4.4,2.3,5.7,7,5.7,7c0,0,0,0.1,0,0.1L-445.7,419.7C-445.6,419.7-445.6,419.7-445.7,419.7
	z M-449,412.4c1.2,1.2,2.9,3.5,3.4,6.9l0.9-0.9C-444.8,417.9-446,414.6-449,412.4z"/>
<path style="fill:#64AD25;" d="M-443.1,416.8C-443.1,416.8-443.1,416.8-443.1,416.8c-0.1,0-0.1-0.1-0.1-0.1
	c-0.7-5.2-4.4-8.1-4.4-8.2c-0.1,0-0.1-0.1,0-0.2c0-0.1,0.1-0.1,0.2,0c4.4,2.3,5.5,6.8,5.5,6.8c0,0,0,0.1,0,0.1l-1,1.5
	C-443,416.8-443,416.8-443.1,416.8z M-446.5,409.2c1.1,1.2,3,3.6,3.5,7.1l0.8-1.2C-442.4,414.7-443.4,411.4-446.5,409.2z"/>
<path style="fill:#64AD25;" d="M-445.7,419.7C-445.7,419.7-445.7,419.7-445.7,419.7c-0.1,0-0.1-0.1-0.1-0.1c-0.7-5.2-4.4-8-4.4-8
	c-0.1,0-0.1-0.1,0-0.2c0-0.1,0.1-0.1,0.2,0c4.4,2.3,5.7,7,5.7,7c0,0,0,0.1,0,0.1L-445.7,419.7C-445.6,419.7-445.6,419.7-445.7,419.7
	z M-449,412.4c1.2,1.2,2.9,3.5,3.4,6.9l0.9-0.9C-444.8,417.9-446,414.6-449,412.4z"/>
<path style="fill:#64AD25;" d="M-485.7,416.8c0,0-0.1,0-0.1-0.1l-1-1.5c0,0,0-0.1,0-0.1c0,0,1.2-4.5,5.5-6.8c0.1,0,0.1,0,0.2,0
	c0,0.1,0,0.1,0,0.2c0,0-3.7,2.9-4.4,8.2C-485.6,416.7-485.7,416.8-485.7,416.8C-485.7,416.8-485.7,416.8-485.7,416.8z M-486.6,415.1
	l0.8,1.2c0.6-3.5,2.4-5.9,3.5-7.1C-485.4,411.4-486.5,414.7-486.6,415.1z"/>
<path style="fill:#64AD25;" d="M-483.1,419.7C-483.2,419.7-483.2,419.7-483.1,419.7l-1.3-1.2c0,0,0-0.1,0-0.1c0,0,1.3-4.7,5.7-7
	c0.1,0,0.1,0,0.2,0c0,0.1,0,0.1,0,0.2c0,0-3.7,2.7-4.4,8C-483,419.7-483.1,419.7-483.1,419.7C-483.1,419.7-483.1,419.7-483.1,419.7z
	 M-484.2,418.4l0.9,0.9c0.5-3.4,2.3-5.7,3.4-6.9C-482.9,414.6-484,417.9-484.2,418.4z"/>
<path style="fill:#64AD25;" d="M-441.5,397.5c0,0-0.1,0-0.1,0c-1.5-0.4-1.9-4.1-1.9-5.3c-0.8,0.2-2.9,0.5-4-0.3
	c-0.4-0.3-0.7-0.7-0.8-1.3c0,0,0-0.1,0-0.1c0.6-2.6,8.9-11.5,11.6-12.6c0.4-0.2,0.7-0.2,0.9,0c1.5,1-2,12.8-3.8,17
	C-440.7,397.1-441.2,397.5-441.5,397.5z M-443.3,391.6c0.1,0,0.1,0,0.2,0.1c0.1,0,0.1,0.1,0.1,0.2c0.1,1.8,0.6,4.9,1.6,5.1
	c0.8-0.1,3.5-7.5,4.9-13.9c0.9-4.3,0.4-4.7,0.4-4.7c0,0-0.1-0.1-0.5,0.1c-2.6,1-10.6,9.7-11.3,12.2c0.1,0.4,0.2,0.6,0.5,0.9
	C-446.1,392.3-443.4,391.7-443.3,391.6C-443.4,391.6-443.4,391.6-443.3,391.6z"/>
<path style="fill:#64AD25;" d="M-487.9,413.9"/>
<path style="fill:#64AD25;" d="M-441,413.9"/>
<path style="fill:#64AD25;" d="M-460.8,429.5c-0.3,0-0.7,0-1-0.1c-1.3-0.3-2.3-0.9-2.7-1.7c-0.5,0.8-1.5,1.4-2.7,1.7
	c-1.7,0.3-3.8-0.2-4.8-2.6c-1.6-3.9-2.9-3.9-2.9-3.9c-0.1,0-0.3-0.1-0.3-0.2c0-0.1,0.1-0.3,0.2-0.3c0.2,0,1.6-0.1,3.5,4.2
	c1.1,2.7,3.5,2.4,4.2,2.3c1.4-0.3,2.6-1.2,2.6-2c0-0.1,0.1-0.3,0.3-0.3s0.3,0.1,0.3,0.3c0,0.8,1.2,1.7,2.6,2
	c0.7,0.1,3.2,0.4,4.3-2.3c1.8-4.4,3.3-4.2,3.5-4.2c0.1,0,0.2,0.2,0.2,0.3c0,0.1-0.2,0.2-0.3,0.2c0,0-1.3,0-2.9,3.9
	C-457.7,428.8-459.3,429.5-460.8,429.5z"/>
<path style="fill:#64AD25;" d="M-457.8,407.4"/>
<path style="fill:#64AD25;" d="M-454.2,408.4c-1.7,0-3.2-1.3-3.5-3c0-0.1,0-0.1,0-0.1c0.1-0.2,0.2-0.3,0.3-0.5
	c0.1-0.1,0.2-0.1,0.3-0.1c0.1,0,0.2,0.1,0.2,0.2c0.2,1.1,1.2,2,2.3,2c1.3,0,2.3-1,2.3-2.3c0-0.4-0.1-0.8-0.3-1.1c0-0.1,0-0.2,0-0.3
	c0.1-0.1,0.1-0.1,0.2-0.1c0.3,0,0.6,0.1,0.9,0.1c0.1,0,0.2,0.1,0.2,0.1c0.3,0.5,0.4,1.1,0.4,1.7
	C-450.7,406.9-452.2,408.4-454.2,408.4z M-456.9,406.2c0.5,1,1.5,1.7,2.7,1.7c1.6,0,3-1.3,3-3c0-0.5-0.1-0.9-0.3-1.3
	c-0.1,0-0.2,0-0.3,0c0.1,0.3,0.2,0.6,0.2,1c0,1.6-1.3,2.9-2.9,2.9C-455.5,407.4-456.3,406.9-456.9,406.2z"/>
<path style="fill:#64AD25;" d="M-453.5,410.1c-0.6,0-1.1-0.1-1.7-0.3c-0.1,0-0.2-0.1-0.1-0.3c0-0.1,0.2-0.2,0.3-0.1
	c2.4,0.9,5-0.4,5.9-2.8c0.3-0.7,0.3-1.5,0.2-2.3c0-0.1,0.1-0.2,0.2-0.2c0.1,0,0.2,0.1,0.2,0.2c0.1,0.8,0.1,1.7-0.2,2.5
	C-449.6,408.9-451.5,410.1-453.5,410.1z"/>
<path style="fill:#64AD25;" d="M-457.8,407.8c-0.1,0-0.3-0.1-0.3-0.2c0-0.1-0.1-2,1.1-3.3c0.8-0.9,2-1.3,3.4-1.3
	c1.6,0,2.9,0.2,4.1,0.4c2.2,0.4,3.9,0.7,6.1-0.8c0.1-0.1,0.3,0,0.4,0.1c0.1,0.1,0,0.3-0.1,0.4c-2.5,1.6-4.3,1.3-6.5,0.9
	c-1.1-0.2-2.4-0.4-4-0.4c-1.3,0-2.4,0.4-3.1,1.1c-1.1,1.2-1,2.9-1,2.9C-457.5,407.7-457.6,407.8-457.8,407.8
	C-457.8,407.8-457.8,407.8-457.8,407.8z"/>
<path style="fill:#64AD25;" d="M-449.1,403.9c-0.3,0-0.4,0-0.4,0c-0.1,0-0.2-0.1-0.2-0.2c0-0.1,0.1-0.2,0.2-0.2
	c0.1,0,3.1,0.5,4.2-3.2c0-0.1,0.1-0.2,0.2-0.1c0.1,0,0.2,0.1,0.1,0.2C-445.9,403.5-448.2,403.9-449.1,403.9z"/>
<path style="fill:#64AD25;" d="M-457.4,407.4"/>
<path style="fill:#64AD25;" d="M-452.9,416.6C-452.9,416.6-452.9,416.6-452.9,416.6c-6-1.4-5.4-6.6-5.4-6.6c0-0.1,0.1-0.2,0.3-0.2
	c0.1,0,0.2,0.2,0.2,0.3c0,0.2-0.5,4.8,4.9,6.1c0.1,0,0.2,0.2,0.2,0.3C-452.7,416.5-452.8,416.6-452.9,416.6z"/>
<path style="fill:#64AD25;" d="M-459.5,419.4c0,0-0.1,0-0.1,0c-0.1-0.1-0.2-0.2-0.1-0.4c0,0,0.7-1.4-1-6.6c-2-5.9,0.5-13.2,5.2-15.1
	c0.1-0.1,0.3,0,0.3,0.1c0.1,0.1,0,0.3-0.1,0.3c-4.3,1.7-6.7,8.9-4.9,14.4c1.8,5.4,1.1,6.9,1,7C-459.3,419.4-459.4,419.4-459.5,419.4
	z"/>
<path style="fill:#64AD25;" d="M-454.6,394.2c0,0-0.1,0-0.1,0c-0.1-0.1-0.2-0.2-0.1-0.3c0-0.1,3-7.1,0-15.1c0-0.1,0-0.2,0.1-0.3
	s0.2-0.1,0.3-0.1l2.6,1.1c0.1,0,0.1,0.1,0.2,0.2c0,0.1,1.8,7.7-2.7,14.4C-454.4,394.1-454.5,394.2-454.6,394.2z M-454.1,379
	c1.8,5.1,1.2,9.8,0.6,12.5c2.5-5.4,1.6-10.8,1.4-11.7L-454.1,379z"/>
<path style="fill:#64AD25;" d="M-460.6,392.4c0,0-0.1,0-0.1,0c-0.1-0.1-0.2-0.2-0.1-0.3c0-0.1,3.2-6.6,0.2-14.7c0-0.1,0-0.2,0-0.3
	c0.1-0.1,0.2-0.1,0.2-0.1l2.5,0.4c0.1,0,0.2,0.1,0.2,0.2c0,0.1,1.7,7.9-2.7,14.7C-460.5,392.3-460.5,392.4-460.6,392.4z
	 M-460.1,377.6c1.7,4.8,1.3,9,0.6,11.7c2.2-5.2,1.4-10.4,1.2-11.4L-460.1,377.6z"/>
<path style="fill:#64AD25;" d="M-483.8,429.4c0,0-0.1,0-0.1-0.1c0-0.1,0-0.1,0.1-0.2c9.6-4.8,16-4.7,16.1-4.7c0.1,0,0.1,0.1,0.1,0.1
	c0,0.1-0.1,0.1-0.1,0.1C-467.8,424.7-474.2,424.6-483.8,429.4C-483.7,429.4-483.8,429.4-483.8,429.4z"/>
<path style="fill:#64AD25;" d="M-487.7,422.8c-0.1,0-0.1,0-0.1-0.1c0-0.1,0-0.1,0.1-0.2c12.1-3.3,20.3-0.5,20.3-0.5
	c0.1,0,0.1,0.1,0.1,0.2c0,0.1-0.1,0.1-0.2,0.1C-467.6,422.3-475.7,419.5-487.7,422.8C-487.7,422.8-487.7,422.8-487.7,422.8z"/>
<path style="fill:#64AD25;" d="M-489.1,420.6c-0.1,0-0.1,0-0.1-0.1c0-0.1,0-0.1,0.1-0.2c7.4-2.7,18.5,0,18.6,0
	c0.1,0,0.1,0.1,0.1,0.2c0,0.1-0.1,0.1-0.2,0.1C-470.7,420.6-481.7,417.9-489.1,420.6C-489.1,420.6-489.1,420.6-489.1,420.6z"/>
<path style="fill:#64AD25;" d="M-474.7,405.3c-0.5,0-0.9-0.4-0.9-0.9c0-0.5,0.4-0.9,0.9-0.9c0.5,0,0.9,0.4,0.9,0.9
	C-473.7,404.8-474.2,405.3-474.7,405.3z M-474.7,403.6c-0.4,0-0.7,0.3-0.7,0.7c0,0.4,0.3,0.7,0.7,0.7c0.4,0,0.7-0.3,0.7-0.7
	C-474,403.9-474.3,403.6-474.7,403.6z"/>
<path style="fill:#64AD25;" d="M-454.4,405.3c-0.5,0-0.9-0.4-0.9-0.9c0-0.5,0.4-0.9,0.9-0.9c0.5,0,0.9,0.4,0.9,0.9
	C-453.5,404.8-453.9,405.3-454.4,405.3z M-454.4,403.6c-0.4,0-0.7,0.3-0.7,0.7c0,0.4,0.3,0.7,0.7,0.7c0.4,0,0.7-0.3,0.7-0.7
	C-453.7,403.9-454,403.6-454.4,403.6z"/>
<path style="fill:#64AD25;" d="M-484.2,425.3c0,0-0.1,0-0.1-0.1c0-0.1,0-0.1,0.1-0.2c6.9-3.2,15.8-1.8,15.9-1.8
	c0.1,0,0.1,0.1,0.1,0.2c0,0.1-0.1,0.1-0.2,0.1C-468.6,423.6-477.4,422.1-484.2,425.3C-484.2,425.3-484.2,425.3-484.2,425.3z"/>
<path style="fill:#64AD25;" d="M-445.6,429.4C-445.6,429.4-445.6,429.4-445.6,429.4c-9.6-4.8-16-4.7-16-4.7c-0.1,0-0.1-0.1-0.1-0.1
	c0-0.1,0.1-0.1,0.1-0.1c0.1,0,6.5-0.1,16.1,4.7c0.1,0,0.1,0.1,0.1,0.2C-445.5,429.4-445.5,429.4-445.6,429.4z"/>
<path style="fill:#64AD25;" d="M-441.6,422.8C-441.6,422.8-441.6,422.8-441.6,422.8c-12.1-3.3-20.1-0.5-20.2-0.5
	c-0.1,0-0.1,0-0.2-0.1c0-0.1,0-0.1,0.1-0.2c0.1,0,8.2-2.9,20.3,0.5c0.1,0,0.1,0.1,0.1,0.2C-441.5,422.8-441.6,422.8-441.6,422.8z"/>
<path style="fill:#64AD25;" d="M-440.2,420.6C-440.3,420.6-440.3,420.6-440.2,420.6c-7.4-2.7-18.4,0-18.5,0c-0.1,0-0.1,0-0.2-0.1
	c0-0.1,0-0.1,0.1-0.2c0.1,0,11.2-2.7,18.6,0c0.1,0,0.1,0.1,0.1,0.2C-440.1,420.6-440.2,420.6-440.2,420.6z"/>
<path style="fill:#64AD25;" d="M-445.1,425.3C-445.1,425.3-445.1,425.3-445.1,425.3c-6.8-3.2-15.7-1.8-15.8-1.8
	c-0.1,0-0.1,0-0.2-0.1c0-0.1,0-0.1,0.1-0.2c0.1,0,9-1.5,15.9,1.8c0.1,0,0.1,0.1,0.1,0.2C-445,425.3-445.1,425.3-445.1,425.3z"/>
<path style="fill:#64AD25;" d="M-464.5,427.1c-0.1,0-0.3-0.1-0.3-0.3v-3.4c0-0.1,0.1-0.3,0.3-0.3s0.3,0.1,0.3,0.3v3.4
	C-464.2,427-464.4,427.1-464.5,427.1z"/>
<path style="fill:#64AD25;" d="M-464.5,436.3c-1.8,0-3.6-0.3-5.2-1c-0.9-0.4-1.6-0.8-2.3-1.4c0,0,0,0,0,0c-0.7-0.7-1.4-1.6-2.2-2.5
	l-2.1,1.1c-0.1,0.1-0.3,0.1-0.5,0.1c-0.2,0-0.3-0.1-0.4-0.3l-0.7-1.3l-0.6,0.7c-0.2,0.2-0.4,0.2-0.6,0.2c-0.2-0.1-0.4-0.2-0.4-0.5
	l-0.3-1.3l-0.7,0.8c-0.1,0.2-0.4,0.2-0.6,0.2c-0.2-0.1-0.4-0.2-0.4-0.4l-0.2-0.9l-1.7,1c-0.2,0.1-0.4,0.1-0.6,0
	c-0.2-0.1-0.3-0.3-0.3-0.5l-0.1-2.2l-2.3,0.1c-0.3,0-0.6-0.2-0.6-0.5l-0.2-1.6l-2.1,0c-0.2,0-0.4-0.1-0.5-0.2
	c-0.1-0.1-0.2-0.3-0.1-0.5l0.5-1.7l-1.5,0.1c-0.2,0-0.4-0.1-0.5-0.2c-0.1-0.1-0.2-0.3-0.1-0.5l0.4-1.6l-0.6,0.3
	c-0.2,0.1-0.4,0.1-0.6,0c-0.2-0.1-0.3-0.3-0.2-0.5l0.2-1.8l-1.4,0.5c-0.2,0.1-0.5,0-0.7-0.2c-0.2-0.2-0.2-0.5,0-0.7l1.3-1.8l-0.8,0
	c-0.2,0-0.4-0.1-0.5-0.3c-0.1-0.2-0.1-0.4,0-0.6l1.4-2.3l-1-0.7c-0.2-0.1-0.3-0.3-0.3-0.6c0-0.2,0.2-0.4,0.4-0.5l1.3-0.5l-0.8-0.7
	c-0.1-0.1-0.2-0.3-0.2-0.4c0-0.2,0.1-0.3,0.2-0.4c0,0,2.6-2.3,3.7-7.3l0.6-3.7c-0.6-0.8-2.7-3.9-4.1-8.7c-0.2-0.6-0.3-1.3-0.5-1.9
	c-1.3-4.8-2.5-8.9-1.1-12c0.1-0.3,0.5-0.7,1.2-0.8c2.6-0.4,8.5,2.9,10.8,5.1c0.5,0.5,0.9,0.9,1.3,1.3c2.4-2.3,7.4-5.7,16.9-5.7v1.2
	c-3.4,0-11.7,0.6-16.5,5.7c-0.1,0.1-0.3,0.2-0.4,0.2l0,0c-0.2,0-0.3-0.1-0.4-0.2c-0.4-0.5-1-1-1.7-1.7c-2.2-2.2-7.8-5.1-9.7-4.8
	c-0.3,0-0.3,0.1-0.3,0.2c-1.2,2.6-0.1,6.6,1.1,11.2c0.2,0.6,0.3,1.2,0.5,1.9c1.4,5.3,4,8.5,4,8.5c0.1,0.1,0.2,0.3,0.1,0.5l-0.7,3.9
	c0,0,0,0,0,0c-0.9,4.1-2.8,6.5-3.6,7.5l1,1c0.2,0.1,0.2,0.4,0.2,0.6c0,0.2-0.2,0.4-0.4,0.4l-1.2,0.4l0.5,0.3
	c0.3,0.2,0.3,0.5,0.2,0.8l-1.1,1.8l0.9,0c0.2,0,0.4,0.1,0.5,0.3c0.1,0.2,0.1,0.4,0,0.6l-0.9,1.2l0.5-0.2c0.2-0.1,0.4,0,0.6,0.1
	c0.2,0.1,0.2,0.3,0.2,0.5l-0.2,1.7l0.8-0.4c0.2-0.1,0.4-0.1,0.6,0.1c0.2,0.1,0.3,0.4,0.2,0.6l-0.5,2l1.5-0.1c0.2,0,0.4,0.1,0.5,0.2
	c0.1,0.2,0.2,0.4,0.1,0.5l-0.5,1.8l1.9,0c0,0,0,0,0,0c0.3,0,0.6,0.2,0.6,0.5l0.2,1.6l2.3-0.1c0.2,0,0.3,0.1,0.4,0.2
	c0.1,0.1,0.2,0.3,0.2,0.4l0,1.8l1.6-0.9c0.2-0.1,0.4-0.1,0.5,0c0.2,0.1,0.3,0.2,0.3,0.4l0.1,0.6l0.7-0.8c0.2-0.2,0.4-0.2,0.6-0.2
	c0.2,0.1,0.4,0.2,0.4,0.5l0.3,1.4l0.4-0.4c0.1-0.1,0.3-0.2,0.5-0.2c0.2,0,0.4,0.1,0.4,0.3l0.8,1.5l1.4-0.8l-4.1-5.1
	c-0.2-0.2-0.2-0.6,0.1-0.8c0.2-0.2,0.6-0.2,0.8,0c1.2,1.2,2.4,2.8,3.6,4.4c1.1,1.5,2.2,3,3.3,4.1c0.6,0.5,1.2,0.9,2,1.2
	c3.7,1.6,8.7,1.1,11.4-1.2c1.1-1.1,2.2-2.6,3.3-4.1c1.2-1.5,2.4-3.1,3.6-4.4c0.2-0.2,0.6-0.2,0.8,0c0.2,0.2,0.3,0.6,0.1,0.8l-4,5
	l1.5,0.8l0.8-1.5c0.1-0.2,0.3-0.3,0.4-0.3c0.2,0,0.4,0,0.5,0.2l0.4,0.4l0.3-1.4c0-0.2,0.2-0.4,0.4-0.5c0.2-0.1,0.4,0,0.6,0.2
	l0.7,0.8l0.1-0.6c0-0.2,0.2-0.3,0.3-0.4c0.2-0.1,0.4-0.1,0.5,0l1.6,0.9l0-1.8c0-0.2,0.1-0.3,0.2-0.4c0.1-0.1,0.3-0.2,0.4-0.2
	l2.3,0.1l0.2-1.6c0-0.3,0.3-0.5,0.6-0.5l1.9,0l-0.5-1.8c-0.1-0.2,0-0.4,0.1-0.5c0.1-0.1,0.3-0.2,0.5-0.2l1.5,0.1l-0.5-2
	c-0.1-0.2,0-0.5,0.2-0.6c0.2-0.1,0.4-0.2,0.6-0.1l0.8,0.4l-0.2-1.7c0-0.2,0.1-0.4,0.2-0.5c0.2-0.1,0.4-0.2,0.6-0.1l0.5,0.2l-0.9-1.2
	c-0.1-0.2-0.1-0.4,0-0.6c0.1-0.2,0.3-0.3,0.5-0.3l0.9,0l-1.1-1.8c-0.2-0.3-0.1-0.6,0.2-0.8l0.5-0.3l-1.2-0.4
	c-0.2-0.1-0.3-0.2-0.4-0.4c0-0.2,0-0.4,0.2-0.6l1-1c-0.9-0.9-2.7-3.3-3.6-7.5l-0.9-4c0-0.2,0-0.4,0.1-0.5c0,0,2.6-3.2,4-8.5
	c0.2-0.6,0.3-1.3,0.5-1.9c1.3-4.6,2.4-8.5,1.1-11.2c0,0-0.1-0.1-0.3-0.2c-1.9-0.3-7.5,2.6-9.7,4.8c-0.7,0.7-1.2,1.2-1.7,1.7
	c-0.2,0.2-0.6,0.2-0.9,0c-4.9-5.2-13.2-5.7-16.5-5.7v-1.2c9.5,0,14.6,3.4,16.9,5.7c0.4-0.4,0.8-0.8,1.3-1.3
	c2.3-2.3,8.2-5.6,10.8-5.1c0.7,0.1,1.1,0.5,1.2,0.8c1.4,3,0.3,7.2-1.1,12c-0.2,0.6-0.3,1.2-0.5,1.9c-1.3,4.8-3.4,7.9-4,8.7l0.8,3.7
	c1.1,5,3.7,7.3,3.7,7.3c0.1,0.1,0.2,0.3,0.2,0.4c0,0.2-0.1,0.3-0.2,0.4l-0.8,0.7l1.3,0.5c0.2,0.1,0.4,0.3,0.4,0.5
	c0,0.2-0.1,0.4-0.3,0.6l-1,0.7l1.4,2.3c0.1,0.2,0.1,0.4,0,0.6c-0.1,0.2-0.3,0.3-0.5,0.3l-0.8,0l1.3,1.8c0.1,0.2,0.1,0.5,0,0.7
	c-0.2,0.2-0.4,0.3-0.7,0.2l-1.4-0.5l0.2,1.8c0,0.2-0.1,0.4-0.2,0.5c-0.2,0.1-0.4,0.1-0.6,0l-0.6-0.3l0.4,1.6c0,0.2,0,0.4-0.1,0.5
	c-0.1,0.1-0.3,0.2-0.5,0.2l-1.5-0.1l0.5,1.7c0.1,0.2,0,0.4-0.1,0.5c-0.1,0.1-0.3,0.2-0.5,0.2l-2.1,0l-0.2,1.6c0,0.3-0.3,0.5-0.6,0.5
	l-2.3-0.1l-0.1,2.2c0,0.2-0.1,0.4-0.3,0.5c-0.2,0.1-0.4,0.1-0.6,0l-1.7-1l-0.2,0.9c0,0.2-0.2,0.4-0.4,0.4c-0.2,0.1-0.4,0-0.6-0.2
	l-0.7-0.8l-0.3,1.3c0,0.2-0.2,0.4-0.4,0.5c-0.2,0.1-0.4,0-0.6-0.2l-0.6-0.7l-0.7,1.3c-0.1,0.1-0.2,0.2-0.4,0.3c-0.2,0-0.3,0-0.5-0.1
	l-2.1-1.2c-0.7,1-1.5,1.9-2.2,2.6c0,0,0,0,0,0C-458.8,435.5-461.6,436.3-464.5,436.3z"/>
<path style="fill:#64AD25;" d="M-481.3,420.6C-481.3,420.6-481.3,420.6-481.3,420.6c-3.9-1-6.2-6.9-6.3-7.2c0-0.1,0-0.1,0.1-0.2
	c0.1,0,0.1,0,0.2,0.1c0,0.1,2.4,6,6.1,7c0.1,0,0.1,0.1,0.1,0.2C-481.2,420.6-481.2,420.6-481.3,420.6z"/>
<path style="fill:#64AD25;" d="M-447.5,420.6c-0.1,0-0.1,0-0.1-0.1c0-0.1,0-0.1,0.1-0.2c3.8-1,6.1-6.9,6.1-7c0-0.1,0.1-0.1,0.2-0.1
	c0.1,0,0.1,0.1,0.1,0.2C-441.3,413.7-443.6,419.6-447.5,420.6C-447.5,420.6-447.5,420.6-447.5,420.6z"/>
<path style="fill:#64AD25;" d="M-464.1,349.7c-0.2-0.2-0.6-0.2-0.8,0c-6.8,5.9-15.5,9.2-24.5,9.2c-7.9,0-15.5-2.4-21.9-7.1
	c-0.2-0.1-0.4-0.1-0.6,0c-0.2,0.1-0.3,0.3-0.3,0.5V413c0,9.6,2.5,18.8,7.4,27.2c3.9,6.7,9.4,13,16.3,18.6
	c11.7,9.6,23.6,14.1,23.7,14.1c0.1,0,0.1,0,0.2,0c0.1,0,0.1,0,0.2,0c0.1,0,12-4.5,23.7-14.1c6.9-5.6,12.4-11.9,16.3-18.6
	c4.9-8.4,7.4-17.6,7.4-27.2v-60.7c0-0.2-0.1-0.4-0.3-0.5c-0.2-0.1-0.4-0.1-0.6,0c-6.4,4.6-14,7.1-21.9,7.1
	C-448.6,358.9-457.3,355.7-464.1,349.7z M-418,413c0,9.4-2.4,18.4-7.3,26.6c-3.9,6.6-9.3,12.7-16,18.3
	c-10.7,8.8-21.6,13.2-23.2,13.9c-1.6-0.6-12.5-5.1-23.2-13.9c-6.8-5.5-12.2-11.7-16.1-18.3c-4.8-8.2-7.3-17.2-7.3-26.6v-59.5
	c6.4,4.4,13.8,6.6,21.6,6.6c9.1,0,18-3.2,24.9-9.2c7,5.9,15.8,9.2,24.9,9.2c7.8,0,15.2-2.3,21.6-6.6V413z"/>
<path style="fill:#64AD25;" d="M-464.4,354c-0.1-0.1-0.2-0.1-0.3,0c-6.6,5.4-14.8,8.4-23.1,8.4c-6.3,0-14.2-0.6-20.6-4.8
	c-0.1-0.1-0.2-0.1-0.3,0c-0.1,0-0.1,0.1-0.1,0.2v56.2c0,8.4,2.3,16.5,6.9,24.1c3.7,6.1,8.8,11.9,15.2,17.2
	c10.9,9.1,22,13.8,22.1,13.8c0,0,0.1,0,0.1,0c0,0,0.1,0,0.1,0c0.1,0,11.2-4.7,22.1-13.8c6.4-5.3,11.5-11.1,15.2-17.2
	c4.6-7.6,6.9-15.7,6.9-24.1v-56.2c0-0.1-0.1-0.2-0.1-0.2c-0.1,0-0.2,0-0.3,0c-3.3,2.3-8.7,4.8-20.6,4.8
	C-449.6,362.4-457.8,359.4-464.4,354z M-420.8,413.9c0,8.3-2.3,16.3-6.8,23.8c-3.6,6-8.7,11.8-15.1,17.1
	c-10.3,8.6-20.7,13.2-21.8,13.7c-1.1-0.5-11.5-5.1-21.8-13.7c-6.4-5.3-11.4-11-15.1-17.1c-4.5-7.5-6.8-15.5-6.8-23.8v-55.7
	c3.4,2.2,8.9,4.7,20.5,4.7c8.3,0,16.6-3,23.3-8.4c6.7,5.4,14.9,8.4,23.3,8.4c6.2,0,14.1-0.5,20.5-4.7V413.9z"/>
</svg>
