<?xml version="1.0" encoding="utf-8"?>
<!-- Generator: Adobe Illustrator 19.0.0, SVG Export Plug-In . SVG Version: 6.00 Build 0)  -->
<svg version="1.1" xmlns="http://www.w3.org/2000/svg" xmlns:xlink="http://www.w3.org/1999/xlink" x="0px" y="0px"
	 viewBox="0 0 175 220" style="enable-background:new 0 0 175 220;" xml:space="preserve">
<style type="text/css">
	.st0{display:none;}
	.st1{display:inline;}
	.st2{fill:#5F4D9B;}
	.st3{fill:#65B6DC;}
</style>
<g id="Слой_1" class="st0">
	<g id="XMLID_2908_" class="st1">
		<g id="XMLID_4088_">
			<g id="XMLID_4120_">
				<g id="XMLID_4131_">
					<path id="XMLID_4156_" class="st2" d="M29,149.3c0,0.4-0.3,0.7-0.7,0.7H0.7c-0.4,0-0.7-0.3-0.7-0.7v-4.7c0-0.4,0.3-0.7,0.7-0.7
						h27.7c0.4,0,0.7,0.3,0.7,0.7V149.3z M1,149h26v-3H1V149z"/>
					<path id="XMLID_4153_" class="st2" d="M25.5,145.1c-0.2,0-0.5-0.1-0.5-0.3v-1c0-1.8-1.6-2.8-3.6-2.8H6.6c-1.9,0-3.6,1-3.6,2.8
						v1c0,0.2-0.3,0.3-0.5,0.3S2,145,2,144.8v-1c0-2.1,2.3-3.8,4.6-3.8h14.8c2.3,0,4.6,1.7,4.6,3.8v1C26,145,25.7,145.1,25.5,145.1z
						"/>
					<g id="XMLID_4148_">
						<path id="XMLID_4152_" class="st2" d="M21.4,55H6.6C4.3,55,2,53.7,2,51.5v-1c0-0.2,0.3-0.3,0.5-0.3S3,50.4,3,50.5v1
							C3,53.4,4.7,55,6.6,55H21.4c1.9,0,3.6-1.6,3.6-3.5v-1c0-0.2,0.3-0.3,0.5-0.3s0.5,0.1,0.5,0.3v1C26,53.7,23.7,55,21.4,55z"/>
						<path id="XMLID_4149_" class="st2" d="M29,50.3c0,0.4-0.3,0.7-0.7,0.7H0.7C0.3,51,0,50.7,0,50.3v-4.7C0,45.3,0.3,45,0.7,45
							h27.7c0.4,0,0.7,0.3,0.7,0.7V50.3z M1,50h26v-4H1V50z"/>
					</g>
					<path id="XMLID_4145_" class="st2" d="M21.7,63H6.2c-1.3,0-2.3-1.2-2.3-2.5c0-1.3,1-2.5,2.3-2.5h15.5c1.3,0,2.3,1.2,2.3,2.5
						C24,61.8,23,63,21.7,63z M6.2,59c-0.9,0-1.7,0.6-1.7,1.5c0,0.9,0.8,1.5,1.7,1.5h15.5c0.9,0,1.7-0.6,1.7-1.5
						c0-0.9-0.8-1.5-1.7-1.5H6.2z"/>
					<path id="XMLID_4144_" class="st2" d="M22.2,58.8c-0.2,0-0.3-0.1-0.3-0.3l0-3.3c0-0.2,0.1-0.3,0.3-0.3l0,0
						c0.2,0,0.3,0.1,0.3,0.3l0,3.3C22.5,58.6,22.4,58.8,22.2,58.8L22.2,58.8z"/>
					<path id="XMLID_4143_" class="st2" d="M5.5,58.8c-0.2,0-0.5-0.1-0.5-0.3v-3.3c0-0.2,0.3-0.3,0.5-0.3S6,55,6,55.2v3.3
						C6,58.6,5.7,58.8,5.5,58.8z"/>
					<path id="XMLID_4140_" class="st2" d="M22,65.7c0,0.2-0.1,0.3-0.3,0.3H5.3C5.1,66,5,65.9,5,65.7v-3.4C5,62.1,5.1,62,5.3,62
						h16.4c0.2,0,0.3,0.1,0.3,0.3V65.7z M6,66h16v-3H6V66z"/>
					
						<rect id="XMLID_4139_" x="6.2" y="66.2" transform="matrix(0.9996 2.951384e-002 -2.951384e-002 0.9996 3.0535 -0.1563)" class="st2" width="1.3" height="74.4"/>
					
						<rect id="XMLID_4138_" x="-15.8" y="102.7" transform="matrix(2.418724e-002 0.9997 -0.9997 2.418724e-002 124.2105 79.4661)" class="st2" width="74.4" height="1.3"/>
					<g id="XMLID_4133_">
						<path id="XMLID_4137_" class="st2" d="M10,137C10,137,10,137,10,137c-0.2,0-0.3-0.1-0.3-0.3L11,69.2c0-0.2,0.1-0.3,0.3-0.3
							c0.2,0,0.3,0.1,0.3,0.3l-1.3,67.5C10.3,136.9,10.2,137,10,137z"/>
						<path id="XMLID_4134_" class="st2" d="M18,137c-0.2,0-0.3-0.1-0.3-0.3l-1.3-67.5c0-0.2,0.1-0.3,0.3-0.3c0.2,0,0.3,0.1,0.3,0.3
							l1.3,67.5C18.3,136.9,18.2,137,18,137C18,137,18,137,18,137z"/>
					</g>
					<path id="XMLID_4132_" class="st2" d="M14,137c0,0,0-0.1,0-0.3V69.2c0-0.2,0-0.3,0-0.3s0,0.1,0,0.3v67.5
						C14,136.9,14,137,14,137z"/>
				</g>
				<g id="XMLID_4121_">
					<g id="XMLID_4125_">
						<path id="XMLID_4130_" class="st2" d="M15.3,42.4c-0.3,0-0.7,0-1.1-0.1c-4.1-0.5-7.1-4-7.1-8.1c0-4.5,2.9-7.8,7.1-8
							c1,0,3.9-0.2,6.2,1.7c0.1,0.1,0.2,0.3,0.1,0.4c-0.1,0.1-0.3,0.2-0.4,0.1c-2.2-1.7-4.9-1.6-5.8-1.6c-3.9,0.2-6.6,3.2-6.6,7.4
							c0,3.9,2.8,7.1,6.6,7.5c2.1,0.2,4-0.3,5.8-1.7c0.1-0.1,0.3-0.1,0.4,0.1c0.1,0.1,0.1,0.3-0.1,0.4
							C18.8,41.8,17.1,42.4,15.3,42.4z"/>
						<g id="XMLID_4126_">
							<path id="XMLID_4127_" class="st2" d="M14,43.3c-5,0-9-4-9-9s4-9,9-9c2.4,0,4.7,1,6.5,2.7c0.1,0.1,0.1-0.1,0.1,0
								c0,0.2-0.1,0-0.3,0c0,0,0,0,0,0c-0.1,0-0.1,0.2-0.2,0.2c-1.1-0.7-2.3-0.9-3.6-0.9c-3.8,0-6.9,3.1-6.9,6.9s3.1,6.9,6.9,6.9
								c1.3,0,2.5-0.3,3.6-1c0.1-0.1,0.3,0,0.4,0.1c0.1,0.1,0.1,0.3,0,0.4C18.8,42.3,16.5,43.3,14,43.3z M14,25.8
								c-4.7,0-8.4,3.8-8.4,8.4c0,4.7,3.8,8.4,8.4,8.4c1.6,0,3.1-0.4,4.5-1.3c-0.6,0.2-1.3,0.3-1.9,0.3c-4.1,0-7.4-3.3-7.4-7.4
								c0-4.1,3.3-7.4,7.4-7.4c0.7,0,1.3,0.1,1.9,0.3C17.1,26.3,15.6,25.8,14,25.8z"/>
						</g>
					</g>
					<path id="XMLID_4122_" class="st2" d="M14,43.3c-5,0-9-4-9-9s4-9,9-9s9,4,9,9S19,43.3,14,43.3z M14,25.8
						c-4.7,0-8.4,3.8-8.4,8.4c0,4.7,3.8,8.4,8.4,8.4s8.4-3.8,8.4-8.4C22.5,29.6,18.7,25.8,14,25.8z"/>
				</g>
			</g>
			<g id="XMLID_4089_">
				<g id="XMLID_4096_">
					<path id="XMLID_4117_" class="st2" d="M175,149.3c0,0.4-0.3,0.7-0.7,0.7h-27.7c-0.4,0-0.7-0.3-0.7-0.7v-4.7
						c0-0.4,0.3-0.7,0.7-0.7h27.7c0.4,0,0.7,0.3,0.7,0.7V149.3z M147,149h26v-3h-26V149z"/>
					<path id="XMLID_4116_" class="st2" d="M171,145.1c0,0,0-0.1,0-0.3v-1c0-1.8-1.7-2.8-3.6-2.8h-14.8c-1.9,0-3.6,1-3.6,2.8v1
						c0,0.2-0.3,0.3-0.5,0.3s-0.5-0.1-0.5-0.3v-1c0-2.1,2.3-3.8,4.6-3.8h14.8c2.3,0,3.6,1.7,3.6,3.8v1C171,145,171,145.1,171,145.1z
						"/>
					<g id="XMLID_4111_">
						<path id="XMLID_4115_" class="st2" d="M167.4,55h-14.8c-2.3,0-4.6-1.3-4.6-3.5v-1c0-0.2,0.3-0.3,0.5-0.3s0.5,0.1,0.5,0.3v1
							c0,1.8,1.6,3.5,3.6,3.5H167.4c1.9,0,3.6-1.6,3.6-3.5v-1c0-0.2,0-0.3,0-0.3s0,0.1,0,0.3v1C171,53.7,169.7,55,167.4,55z"/>
						<path id="XMLID_4112_" class="st2" d="M175,50.3c0,0.4-0.3,0.7-0.7,0.7h-27.7c-0.4,0-0.7-0.3-0.7-0.7v-4.7
							c0-0.4,0.3-0.7,0.7-0.7h27.7c0.4,0,0.7,0.3,0.7,0.7V50.3z M147,50h26v-4h-26V50z"/>
					</g>
					<path id="XMLID_4108_" class="st2" d="M167.7,63h-15.5c-1.3,0-2.3-1.2-2.3-2.5c0-1.3,1-2.5,2.3-2.5h15.5c1.3,0,2.3,1.2,2.3,2.5
						C170,61.8,169,63,167.7,63z M152.2,59c-0.9,0-1.7,0.6-1.7,1.5c0,0.9,0.8,1.5,1.7,1.5h15.5c0.9,0,1.7-0.6,1.7-1.5
						c0-0.9-0.8-1.5-1.7-1.5H152.2z"/>
					<path id="XMLID_4107_" class="st2" d="M168.2,58.8c-0.2,0-0.3-0.1-0.3-0.3l0-3.3c0-0.2,0.1-0.3,0.3-0.3l0,0
						c0.2,0,0.3,0.1,0.3,0.3l0,3.3C168.5,58.6,168.4,58.8,168.2,58.8L168.2,58.8z"/>
					<path id="XMLID_4106_" class="st2" d="M151.5,58.8c-0.2,0-0.5-0.1-0.5-0.3v-3.3c0-0.2,0.3-0.3,0.5-0.3s0.5,0.1,0.5,0.3v3.3
						C152,58.6,151.7,58.8,151.5,58.8z"/>
					<path id="XMLID_4103_" class="st2" d="M168,65.7c0,0.2-0.1,0.3-0.3,0.3h-16.4c-0.2,0-0.3-0.1-0.3-0.3v-3.4
						c0-0.2,0.1-0.3,0.3-0.3h16.4c0.2,0,0.3,0.1,0.3,0.3V65.7z M152,66h16v-3h-16V66z"/>
					
						<rect id="XMLID_4102_" x="152.1" y="66.2" transform="matrix(0.9996 2.951384e-002 -2.951384e-002 0.9996 3.1171 -4.4646)" class="st2" width="1.3" height="74.4"/>
					
						<rect id="XMLID_4101_" x="130.2" y="102.7" transform="matrix(2.419105e-002 0.9997 -0.9997 2.419105e-002 266.6541 -66.4665)" class="st2" width="74.4" height="1.3"/>
					<g id="XMLID_4098_">
						<path id="XMLID_4100_" class="st2" d="M156,137L156,137c-0.2,0-0.3-0.1-0.3-0.3l1.3-67.5c0-0.2,0.1-0.3,0.3-0.3
							c0.2,0,0.3,0.1,0.3,0.3l-1.3,67.5C156.3,136.9,156.2,137,156,137z"/>
						<path id="XMLID_4099_" class="st2" d="M164,137c-0.2,0-0.3-0.1-0.3-0.3l-1.3-67.5c0-0.2,0.1-0.3,0.3-0.3
							c0.2,0,0.3,0.1,0.3,0.3l1.3,67.5C164.3,136.9,164.1,137,164,137C164,137,164,137,164,137z"/>
					</g>
					<path id="XMLID_4097_" class="st2" d="M160,137c0,0,0-0.1,0-0.3V69.2c0-0.2,0-0.3,0-0.3s0,0.1,0,0.3v67.5
						C160,136.9,160,137,160,137z"/>
				</g>
				<g id="XMLID_4092_">
					<path id="XMLID_4093_" class="st2" d="M160,43.3c-5,0-9-4-9-9s4-9,9-9s9,4,9,9S165,43.3,160,43.3z M160,25.8
						c-4.7,0-8.4,3.8-8.4,8.4c0,4.7,3.8,8.4,8.4,8.4s8.4-3.8,8.4-8.4C168.4,29.6,164.6,25.8,160,25.8z"/>
				</g>
				<g id="XMLID_4090_">
					<path id="XMLID_4091_" class="st2" d="M160,36.1c-4.3,0-8.8-1.2-8.8-3.2c0-0.2,0.1-0.3,0.3-0.3c0.2,0,0.3,0.1,0.3,0.3
						c0,1.5,4.3,2.6,8.3,2.6c3.9,0,8.3-1.1,8.3-2.6c0-0.2,0.1-0.3,0.3-0.3s0.3,0.1,0.3,0.3C168.8,34.9,164.3,36.1,160,36.1z"/>
				</g>
			</g>
		</g>
		<g id="XMLID_4063_">
			<g id="XMLID_4069_">
				<path id="XMLID_4073_" class="st2" d="M87,180.4c-0.1,0-0.2,0-0.2,0c-0.1,0-13.3-5-26.2-15.6c-7.6-6.2-13.8-13.1-18.2-20.6
					c-5.5-9.3-8.4-19.4-8.4-30.1V47c0-0.2,0.3-0.5,0.5-0.6c0.2-0.1,0.5-0.1,0.7,0.1c7.1,5.1,15.5,7.8,24.2,7.8
					c10,0,19.6-3.6,27.1-10.2c0.2-0.2,0.6-0.2,0.9,0c7.5,6.6,17.1,10.2,27.1,10.2c8.7,0,17.1-2.7,24.2-7.8c0.2-0.1,0.6-0.2,0.8-0.1
					c0.2,0.1,0.5,0.3,0.5,0.6v67.1c0,10.6-2.9,20.8-8.4,30.1c-4.4,7.4-10.5,14.3-18.1,20.6c-13,10.6-26.1,15.6-26.3,15.6
					C87.2,180.4,87.1,180.4,87,180.4z M36,48.3v65.8c0,10.4,2.5,20.3,7.8,29.4c4.3,7.3,10.1,14.1,17.6,20.2
					c11.9,9.7,23.8,14.6,25.6,15.3c1.8-0.7,13.8-5.6,25.6-15.3c7.5-6.1,13.2-12.9,17.5-20.2c5.3-9.1,7.8-19,7.8-29.4V48.3
					c-7,4.8-15.1,7.3-23.7,7.3c-10.1,0-19.7-3.6-27.4-10.1C79.2,52,69.7,55.6,59.6,55.6C51,55.6,43,53.1,36,48.3z"/>
			</g>
			<path id="XMLID_4064_" class="st2" d="M87,176.3c0,0-0.1,0-0.1,0c-0.1-0.1-12.4-5.2-24.4-15.3c-7.1-5.9-12.8-12.3-16.8-19.1
				c-5.1-8.4-7.7-17.4-7.7-26.7V53.1c0-0.1,0.1-0.2,0.2-0.3c0.1-0.1,0.2,0,0.3,0c7,4.7,15.9,5.4,22.8,5.4c9.2,0,18.2-3.3,25.6-9.3
				c0.1-0.1,0.3-0.1,0.4,0c7.3,6,16.4,9.3,25.6,9.3c13.2,0,19.1-2.9,22.8-5.4c0.1-0.1,0.2-0.1,0.3,0c0.1,0.1,0.2,0.1,0.2,0.3v62.2
				c0,9.3-2.6,18.2-7.7,26.7c-4.1,6.7-9.7,13.2-16.8,19.1c-12.1,10.1-24.3,15.2-24.4,15.3C87.1,176.3,87,176.3,87,176.3z M39,53.7
				v61.7c0,9.1,2.3,18,7.4,26.4c4,6.7,9.5,13,16.6,18.9c11.4,9.5,22.9,14.6,24.1,15.1c1.3-0.5,12.8-5.7,24.1-15.2
				c7-5.9,12.4-12.2,16.5-18.9c5-8.3,7.3-17.2,7.3-26.4V53.7c-7,4.6-15.6,5.2-22.5,5.2c-9.2,0-18.2-3.3-25.6-9.3
				c-7.4,6-16.3,9.3-25.5,9.3C48.6,58.8,42,56.1,39,53.7z"/>
		</g>
		<g id="XMLID_3988_">
			<g id="XMLID_4060_">
				<path id="XMLID_4062_" class="st2" d="M79.7,88.4C79.7,88.4,79.7,88.4,79.7,88.4c-0.2,0-0.3-0.2-0.3-0.3c0-0.1,0.2-2.2,3.3-4
					c2.1-1.2,4.6-0.5,4.7-0.4c0.2,0,0.2,0.2,0.2,0.4c0,0.2-0.2,0.2-0.4,0.2c0,0-2.4-0.7-4.3,0.4c-2.8,1.6-3,3.5-3,3.5
					C80,88.3,79.9,88.4,79.7,88.4z"/>
				<path id="XMLID_4061_" class="st2" d="M74.3,88c-0.1,0-0.3,0.1-0.3-0.1c0,0-0.2-1.8-3-3.4c-1.9-1.1-4.2-0.3-4.3-0.3
					c-0.2,0-0.3,0-0.4-0.2c0-0.2,0-0.3,0.2-0.4c0.1,0,2.6-0.8,4.7,0.4c3,1.8,3.2,3.7,3.3,3.8C74.6,88.1,74.5,88,74.3,88
					C74.3,88,74.3,88,74.3,88z"/>
			</g>
			<g id="XMLID_3989_">
				<g id="XMLID_4007_">
					<g id="XMLID_4012_">
						<g id="XMLID_4046_">
							<path id="XMLID_4057_" class="st2" d="M70.2,90.6c-1.8,0-3.2-1.4-3.2-3.2s1.4-3.2,3.2-3.2c1.8,0,3.2,1.4,3.2,3.2
								S72,90.6,70.2,90.6z M70.2,84.7c-1.4,0-2.6,1.2-2.6,2.6c0,1.4,1.2,2.6,2.6,2.6c1.4,0,2.6-1.2,2.6-2.6
								C72.8,85.9,71.6,84.7,70.2,84.7z"/>
							<path id="XMLID_4051_" class="st2" d="M70.2,89.3c-1,0-1.9-0.9-1.9-1.9c0-1,0.9-1.9,1.9-1.9c1,0,1.9,0.9,1.9,1.9
								C72.1,88.4,71.2,89.3,70.2,89.3z M70.2,86.1c-0.7,0-1.3,0.6-1.3,1.3c0,0.7,0.6,1.3,1.3,1.3c0.7,0,1.3-0.6,1.3-1.3
								C71.5,86.6,70.9,86.1,70.2,86.1z"/>
							<path id="XMLID_4050_" class="st2" d="M70.7,87.7c-0.2,0-0.3-0.1-0.3-0.3c0-0.1-0.1-0.2-0.2-0.2c-0.2,0-0.3-0.1-0.3-0.3
								c0-0.2,0.1-0.3,0.3-0.3c0.4,0,0.8,0.3,0.8,0.8C71,87.5,70.8,87.7,70.7,87.7z"/>
						</g>
						<g id="XMLID_4017_">
							<path id="XMLID_4025_" class="st2" d="M84.1,90.6c-1.8,0-3.2-1.4-3.2-3.2s1.4-3.2,3.2-3.2c1.8,0,3.2,1.4,3.2,3.2
								S85.8,90.6,84.1,90.6z M84.1,84.7c-1.4,0-2.6,1.2-2.6,2.6c0,1.4,1.2,2.6,2.6,2.6c1.4,0,2.6-1.2,2.6-2.6
								C86.7,85.9,85.5,84.7,84.1,84.7z"/>
							<path id="XMLID_4021_" class="st2" d="M84.1,89.3c-1,0-1.9-0.9-1.9-1.9c0-1,0.9-1.9,1.9-1.9c1,0,1.9,0.9,1.9,1.9
								C86,88.4,85.1,89.3,84.1,89.3z M84.1,86.1c-0.7,0-1.3,0.6-1.3,1.3c0,0.7,0.6,1.3,1.3,1.3c0.7,0,1.3-0.6,1.3-1.3
								C85.4,86.6,84.8,86.1,84.1,86.1z"/>
							<path id="XMLID_4019_" class="st2" d="M84.5,87.7c-0.2,0-0.3-0.1-0.3-0.3c0-0.1-0.1-0.2-0.2-0.2c-0.2,0-0.3-0.1-0.3-0.3
								c0-0.2,0.1-0.3,0.3-0.3c0.4,0,0.8,0.3,0.8,0.8C84.8,87.5,84.7,87.7,84.5,87.7z"/>
						</g>
						<path id="XMLID_4016_" class="st2" d="M72.8,96.5c-1.3,0-3.2-0.2-4.7-1.2c-1.5-1-6.1-4.8-2.7-12.8c1.9-4.3,7.2-6.5,11.6-6.4
							c0.2,0,0.3,0.1,0.3,0.3c0,0.2-0.1,0.3-0.3,0.3c-4.1-0.1-9.3,1.9-11,6c-3.2,7.5,1.1,11.1,2.5,12.1c2.3,1.5,5.7,1,5.7,1
							c0.2,0,0.3,0.1,0.3,0.2c0,0.2-0.1,0.3-0.2,0.3C74.2,96.4,73.7,96.5,72.8,96.5z"/>
						<path id="XMLID_4015_" class="st2" d="M76.5,94.5c-0.1,0-0.1,0-0.2,0c-0.1,0-1.5-1-1.6-3c-0.1-2.9,1.9-3.8,1.9-3.8
							c0.1-0.1,0.3,0,0.4,0.2c0.1,0.1,0,0.3-0.2,0.4c-0.1,0-1.7,0.7-1.6,3.2c0,1.3,0.7,2,1.1,2.4c0.4-0.8,1.5-2.8,3.1-3.1
							c0.2,0,0.3,0.1,0.3,0.2c0,0.2-0.1,0.3-0.2,0.3c-1.6,0.3-2.8,3.1-2.8,3.1C76.8,94.4,76.7,94.5,76.5,94.5
							C76.6,94.5,76.6,94.5,76.5,94.5z"/>
						<path id="XMLID_4014_" class="st2" d="M77,86.3c-0.1,0-0.3-0.1-0.3-0.3c0,0-0.3-2.2-2-3.4c-4-2.8-8.8,0.2-8.9,0.2
							c-0.1,0.1-0.3,0-0.4-0.1c-0.1-0.1,0-0.3,0.1-0.4c0.1,0,5.2-3.2,9.5-0.2c1.9,1.3,2.2,3.7,2.2,3.8C77.3,86.1,77.2,86.3,77,86.3
							C77.1,86.3,77,86.3,77,86.3z"/>
					</g>
					<g id="XMLID_4008_">
						<path id="XMLID_4010_" class="st2" d="M81.2,96.5c-0.8,0-1.4-0.1-1.4-0.1c-0.2,0-0.3-0.2-0.2-0.3c0-0.2,0.2-0.3,0.3-0.2
							c0,0,3.4,0.5,5.7-1c1.4-0.9,5.7-4.4,2.5-11.9c-1.3-3.1-5.6-5.9-11-5.9c0,0,0,0,0,0c-0.2,0-0.3-0.3-0.3-0.4
							c0-0.2,0.1-0.4,0.3-0.4c4.3-0.1,9.7,2,11.6,6.4c3.4,8-1.2,11.8-2.7,12.8C84.4,96.3,82.5,96.5,81.2,96.5z"/>
						<path id="XMLID_4009_" class="st2" d="M77,86.3C77,86.3,77,86.3,77,86.3c-0.2,0-0.3-0.2-0.3-0.3c0-0.1,0.4-2.5,2.2-3.8
							c4.3-3,9.4,0.2,9.5,0.2c0.1,0.1,0.2,0.3,0.1,0.4c-0.1,0.1-0.3,0.2-0.4,0.1c0,0-4.9-3-8.9-0.2c-1.7,1.2-2,3.4-2,3.4
							C77.3,86.2,77.2,86.3,77,86.3z"/>
					</g>
				</g>
				<path id="XMLID_4006_" class="st2" d="M109.4,143.6c-0.7,0-1.5-0.9-3.1-2.6c-0.8-0.8-1.7-1.8-2.8-2.8c-3.1-3-7.5-5.3-14.6-8.6
					c-1.2-0.6-2.5-1.1-3.8-1.6c-6.1-2.4-13-5.1-16.6-15.1c-3.9-10.9-0.6-17.6-0.4-17.9c0.1-0.1,0.2-0.2,0.4-0.1
					c0.1,0.1,0.2,0.2,0.1,0.4c0,0.1-3.4,6.9,0.4,17.5c3.5,9.8,10,12.3,16.3,14.8c1.3,0.5,2.6,1,3.8,1.6c7.1,3.2,11.6,5.6,14.7,8.7
					c1.1,1,2,2,2.8,2.9c1.1,1.2,2.4,2.6,2.7,2.4c0,0,0.1,0,0.1-0.1c0.3-1.2-2.5-6.1-4.4-9c-0.1-0.1-0.1-0.3,0.1-0.4
					c0.1-0.1,0.3-0.1,0.4,0.1c0.5,0.8,5,7.7,4.5,9.5c-0.1,0.2-0.2,0.4-0.4,0.5C109.5,143.6,109.5,143.6,109.4,143.6z"/>
				<path id="XMLID_4005_" class="st2" d="M112.2,143.2c-0.2,0-0.3-0.1-0.5-0.3c-0.3-0.4-7.2-10.7-11.8-14.1
					c-0.7-0.5-1.6-1.1-2.7-1.7c-5.6-3.5-14.9-9.3-16.7-20.9c-0.3-2,0.4-4.1,1.9-5.7c1.5-1.6,3.4-2.3,5.4-2.1c0.2,0,0.3,0.2,0.3,0.3
					c0,0.2-0.2,0.3-0.3,0.3c-1.7-0.2-3.6,0.5-4.9,1.9c-1.4,1.4-2,3.4-1.8,5.2c1.7,11.4,11,17.1,16.5,20.5c1.1,0.7,2,1.2,2.7,1.8
					c4.5,3.3,10.8,12.5,11.9,14.1c0.1-1.3-0.6-5.9-1.2-8.8c-2-8.7-9.7-27.3-15.1-32.8c-1.3-1.3-2.3-2.3-3.2-3.1
					c-2.5-2.4-3.7-3.4-4-6.4c0-0.2,0.1-0.3,0.3-0.3c0.2,0,0.3,0.1,0.3,0.3c0.2,2.7,1.3,3.7,3.8,6c0.9,0.8,2,1.8,3.2,3.1
					c5.5,5.6,13.3,24.3,15.3,33.1c0.4,1.6,0.7,3.9,1,5.8c0.5,3.7,0.1,3.8-0.1,3.9C112.3,143.2,112.3,143.2,112.2,143.2z"/>
				<g id="XMLID_4001_">
					<path id="XMLID_4004_" class="st2" d="M84.4,140.2c-0.1,0-0.2,0-0.2-0.1c-0.1-0.1-1.2-1.5,0.5-3.6c0.4-0.5,1.2-0.9,1.9-1.3
						c1.3-0.7,2.5-1.3,2.5-2.7c-0.1-2.4-0.8-3.4-0.8-3.4c-0.1-0.1,0-0.3,0.1-0.4c0.1-0.1,0.3,0,0.4,0.1c0,0,0.7,1.2,0.9,3.7
						c0.1,1.8-1.4,2.6-2.8,3.2c-0.7,0.4-1.4,0.7-1.7,1.1c-0.9,1.1-0.9,1.9-0.8,2.4c0.4-0.6,1.1-1.5,2.5-1.9c0.2,0,0.3,0,0.4,0.2
						c0,0.2,0,0.3-0.2,0.4c-1.8,0.5-2.4,2.1-2.4,2.1C84.6,140.1,84.6,140.2,84.4,140.2C84.4,140.2,84.4,140.2,84.4,140.2z"/>
					<path id="XMLID_4003_" class="st2" d="M87.3,141.4c-0.1,0-0.2,0-0.2-0.1c-0.1-0.1-1.3-1.3-0.3-3.7c0.2-0.6,0.8-0.9,1.4-1.3
						c0.2-0.1,0.4-0.2,0.6-0.4c0.7-0.5,1.2-1.1,1.2-1.1c0.1-0.1,0.3-0.2,0.4-0.1c0.1,0.1,0.2,0.3,0.1,0.4c0,0-0.5,0.7-1.3,1.2
						c-0.2,0.1-0.4,0.3-0.6,0.4c-0.5,0.3-1,0.6-1.1,1c-0.5,1.3-0.3,2.2-0.1,2.7c0.4-0.8,1.3-2.3,2.5-2.8c1.4-0.6,1.9-2.1,1.9-2.1
						c0.1-0.2,0.2-0.2,0.4-0.2c0.2,0.1,0.2,0.2,0.2,0.4c0,0.1-0.6,1.7-2.2,2.4c-1.4,0.6-2.4,3-2.4,3
						C87.5,141.3,87.4,141.4,87.3,141.4C87.3,141.4,87.3,141.4,87.3,141.4z"/>
					<path id="XMLID_4002_" class="st2" d="M89.5,142.1c-0.1,0-0.2,0-0.2-0.1c-0.1-0.1-1.3-1.3-0.3-3.7c0.1-0.1,0.2-0.2,0.4-0.2
						c0.1,0.1,0.2,0.2,0.2,0.4c-0.5,1.3-0.3,2.2-0.1,2.7c0.4-0.8,1.3-2.3,2.5-2.8c1.3-0.6,2.2-1.6,1.8-4.6c-0.1-0.8-0.2-2.2-0.2-2.3
						c0-0.2,0.1-0.3,0.3-0.3c0.2,0,0.3,0.1,0.3,0.3c0,0,0.1,1.5,0.2,2.3c0.3,2.8-0.3,4.3-2.2,5.2c-1.4,0.6-2.4,3-2.4,3
						C89.7,142.1,89.6,142.1,89.5,142.1C89.5,142.1,89.5,142.1,89.5,142.1z"/>
				</g>
				<g id="XMLID_3997_">
					<path id="XMLID_4000_" class="st2" d="M79.3,137.2c-0.1,0-0.2,0-0.2-0.1c0-0.1-1.1-1.4,0.5-3.3c0.4-0.5,1.1-0.8,1.7-1.2
						c1.2-0.6,2.3-1.2,2.2-2.4c-0.1-2.1-0.7-3-0.7-3c-0.1-0.1,0-0.3,0.1-0.4c0.1-0.1,0.3,0,0.4,0.1c0,0,0.7,1.1,0.8,3.3
						c0.1,1.6-1.3,2.3-2.5,2.9c-0.6,0.3-1.2,0.6-1.6,1c-0.8,0.9-0.8,1.6-0.7,2c0.3-0.6,1-1.3,2.2-1.7c0.2,0,0.3,0,0.4,0.2
						c0,0.2,0,0.3-0.2,0.4c-1.6,0.4-2.1,1.8-2.1,1.9C79.5,137.1,79.5,137.2,79.3,137.2C79.3,137.2,79.3,137.2,79.3,137.2z"/>
					<path id="XMLID_3999_" class="st2" d="M81.9,138.3c-0.1,0-0.2,0-0.2-0.1c0,0-1.2-1.2-0.3-3.4c0.2-0.5,0.7-0.8,1.3-1.1
						c0.2-0.1,0.4-0.2,0.5-0.3c0.6-0.5,1-1,1-1c0.1-0.1,0.3-0.2,0.4-0.1c0.1,0.1,0.2,0.3,0.1,0.4c0,0-0.5,0.6-1.2,1.1
						c-0.2,0.1-0.4,0.2-0.6,0.4c-0.4,0.3-0.9,0.5-1,0.9c-0.5,1.1-0.3,1.9-0.1,2.3c0.4-0.7,1.2-2,2.2-2.5c1.3-0.6,1.7-1.8,1.7-1.9
						c0.1-0.2,0.2-0.2,0.4-0.2c0.2,0.1,0.2,0.2,0.2,0.4c0,0.1-0.6,1.5-2,2.2c-1.2,0.5-2.1,2.6-2.2,2.7
						C82.1,138.2,82,138.3,81.9,138.3C81.9,138.3,81.9,138.3,81.9,138.3z"/>
					<path id="XMLID_3998_" class="st2" d="M83.9,139c-0.1,0-0.1,0-0.2-0.1c0,0-1.2-1.2-0.3-3.4c0.1-0.1,0.2-0.2,0.4-0.2
						c0.1,0.1,0.2,0.2,0.2,0.4c-0.7,1.8,0.1,2.7,0.2,2.7c0.1,0.1,0.1,0.3,0,0.4C84,138.9,83.9,139,83.9,139z"/>
				</g>
				<path id="XMLID_3996_" class="st2" d="M112.2,139.3c-0.1,0-0.2-0.1-0.3-0.2c0-0.1-3.8-9.1-11.9-13.9c-7.3-4.4-8.4-8.9-8.4-9.1
					c0-0.2,0.1-0.3,0.2-0.3c0.2,0,0.3,0.1,0.3,0.2c0,0.1,1.1,4.5,8.1,8.7c8.3,5,12.1,14.1,12.1,14.2c0.1,0.1,0,0.3-0.2,0.4
					C112.3,139.3,112.2,139.3,112.2,139.3z"/>
				<path id="XMLID_3995_" class="st2" d="M109.8,128.6c-0.1,0-0.2,0-0.2-0.1c0,0-2.1-3-6.5-5.8c-4.5-2.9-7-8-7.1-8.2
					c-0.1-0.1,0-0.3,0.1-0.4c0.1-0.1,0.3,0,0.4,0.1c0,0.1,2.5,5.1,6.9,8c4.4,2.9,6.5,5.8,6.6,6c0.1,0.1,0.1,0.3-0.1,0.4
					C109.9,128.6,109.8,128.6,109.8,128.6z"/>
				<path id="XMLID_3994_" class="st2" d="M106.3,119.4c0,0-0.1,0-0.1,0c-0.1-0.1-2.4-1.3-3.9-2.8c-1.6-1.6-2.5-4-2.5-4.1
					c-0.1-0.2,0-0.3,0.2-0.4c0.2-0.1,0.3,0,0.4,0.2c0,0,0.9,2.4,2.4,3.9c1.5,1.5,3.8,2.7,3.8,2.7c0.1,0.1,0.2,0.3,0.1,0.4
					C106.5,119.4,106.4,119.4,106.3,119.4z"/>
				<path id="XMLID_3993_" class="st2" d="M90.8,116.2c-0.3,0-0.6,0-0.9-0.1c-3.4-0.4-8.1-5-9-8c0-0.2,0-0.3,0.2-0.4
					c0.2,0,0.3,0,0.4,0.2c0.8,2.8,5.4,7.3,8.5,7.6c1.2,0.1,2.1,0,2.6-0.5c0.4-0.4,0.3-0.9,0.3-0.9c0-0.2,0.1-0.3,0.2-0.3
					c0.2,0,0.3,0.1,0.3,0.2c0,0,0.1,0.8-0.5,1.4C92.5,115.9,91.8,116.2,90.8,116.2z"/>
				<path id="XMLID_3992_" class="st2" d="M95.1,114.6c-0.3,0-0.5,0-0.8-0.1c-3.4-0.4-8.1-5-9-8c0-0.2,0-0.3,0.2-0.4
					c0.2,0,0.3,0,0.4,0.2c0.8,2.8,5.4,7.3,8.5,7.6c1.2,0.1,2.1,0,2.5-0.5c0.5-0.5,0.4-1.1,0.4-1.2c0-0.2,0.1-0.3,0.2-0.3
					c0.2,0,0.3,0.1,0.3,0.2c0,0,0.1,0.9-0.6,1.6C96.8,114.4,96.1,114.6,95.1,114.6z"/>
				<path id="XMLID_3991_" class="st2" d="M98.3,112.7c-0.3,0-0.5,0-0.8-0.1c-3.4-0.4-8.1-5-9-8c0-0.2,0-0.3,0.2-0.4
					c0.2,0,0.3,0,0.4,0.2c0.8,2.8,5.4,7.3,8.5,7.6c1.2,0.1,2.1,0,2.5-0.5c0.5-0.5,0.4-1.1,0.4-1.2c0-0.2,0.1-0.3,0.3-0.3
					c0.2,0,0.3,0.1,0.3,0.2c0,0,0.1,0.9-0.6,1.6C100.1,112.4,99.3,112.7,98.3,112.7z"/>
				<path id="XMLID_3990_" class="st2" d="M102.1,110.7c-0.3,0-0.5,0-0.8,0c-3.4-0.4-8.1-5-9-8c0-0.2,0-0.3,0.2-0.4
					c0.2,0,0.3,0,0.4,0.2c0.8,2.8,5.4,7.3,8.5,7.6c0.4,0,0.7,0.1,1,0c0.2,0,0.3,0.1,0.3,0.3c0,0.2-0.1,0.3-0.3,0.3
					C102.3,110.7,102.2,110.7,102.1,110.7z"/>
			</g>
		</g>
		<g id="XMLID_3278_">
			<g id="XMLID_3311_">
				<g id="XMLID_3317_">
					<path id="XMLID_3985_" class="st2" d="M53.3,42.9c-0.6,0-1.3-0.1-1.9-0.2c-3-0.6-5.3-2.3-6.4-4.9c-1-2.3-0.9-4.9,0.3-6.7
						c3.8-6,10.6-2.4,10.6-2.3c0.1,0.1,0.2,0.2,0.1,0.3c0,0.1-0.2,0.2-0.3,0.2c0,0-5-0.3-6.5,2.6c-0.6,1.2-0.6,2.5,0.2,3.5
						c1,1.3,2.9,1.8,5.1,1.4c3.4-0.7,5.4-4.8,6.8-7.8c0.2-0.5,0.4-0.9,0.7-1.3c2.4-4.7,6.9-7.1,11.4-6.3c4.5,0.9,6.9,3.4,7.3,7.6
						c0.2,1.9,0.1,5.6-2.2,8c-1.5,1.6-3.7,2.3-6.6,2.2c-2.5-0.1-4.6-1.3-5.6-3.2c-0.4-0.9-0.6-1.7-0.6-2.4c-0.4,0.7-0.8,1.4-1.2,2.2
						C62.7,39.5,58.3,42.9,53.3,42.9z M51.4,28.2c-2.4,0-4.2,1.1-5.6,3.2c-1.1,1.7-1.2,4-0.3,6.2c0.6,1.4,2.2,3.9,6,4.6
						c5.4,1,10.5-2.7,12.6-6.7c2.4-4.6,4.1-6.8,6-7.6c1.4-0.5,2.9-0.5,4.1,0.1c1,0.4,1.6,1.2,1.9,2c0.6,1.8,0.2,3.1-0.3,3.8
						c-0.6,0.9-1.7,1.5-2.7,1.6c-1.1,0.1-2.2-0.3-2.8-1.1c-0.5-0.5-0.7-1.2-0.6-1.9c0.1-0.8,0.8-1.5,1.5-1.8c0.7-0.2,1.4,0,2.1,0.6
						c0.1,0.1,0.1,0.3,0,0.4c-0.1,0.1-0.3,0.1-0.4,0c-0.5-0.5-1-0.6-1.5-0.5c-0.6,0.2-1,0.7-1.1,1.3c-0.1,0.5,0.1,1,0.4,1.4
						c0.5,0.6,1.4,0.9,2.4,0.9c0.9,0,1.7-0.6,2.3-1.3c0.4-0.6,0.8-1.7,0.3-3.3c-0.2-0.7-0.8-1.3-1.6-1.7c-1.1-0.5-2.4-0.5-3.6-0.1
						c-1.3,0.5-2.5,1.8-4,4.1c0,0,0,0.1,0,0.1c0,0-0.1,1.5,0.6,2.9c0.9,1.7,2.8,2.8,5.1,2.9c2.7,0.1,4.7-0.5,6.1-2
						c2.1-2.2,2.2-5.7,2-7.5c-0.4-4-2.5-6.3-6.8-7.1c-4.3-0.8-8.6,1.5-10.8,5.9c-0.2,0.4-0.4,0.9-0.7,1.3c-1.5,3.1-3.5,7.4-7.2,8.1
						c-2.4,0.5-4.5-0.1-5.7-1.6c-0.9-1.2-1-2.7-0.2-4.1c1.2-2.2,3.9-2.7,5.6-2.8c-0.6-0.2-1.5-0.4-2.4-0.5
						C51.8,28.3,51.6,28.2,51.4,28.2z"/>
					<g id="XMLID_3983_">
						<path id="XMLID_3984_" class="st2" d="M52.6,40.3c-1.6,0-3.2-0.4-4.2-1.2c-3.2-2.6-2.5-6.3-1.3-8c1-1.5,2.8-2.3,5.2-2.5
							c1.8-0.1,3.2,0.2,3.3,0.2c0.2,0,0.3,0.2,0.2,0.3c0,0.2-0.2,0.3-0.3,0.2c-0.1,0-5.6-1.3-7.8,2c-1.1,1.6-1.7,4.9,1.2,7.3
							c2.2,1.8,7.1,1.3,9.4-0.9c2.5-2.4,4.1-4.9,5.4-7.1c1.1-1.8,2.1-3.4,3.4-4.5c2.7-2.4,6.6-2,8.4-1c2.5,1.4,2.6,4.5,2.6,4.7
							c0,0.2-0.1,0.3-0.3,0.3c-0.1,0-0.3-0.1-0.3-0.3c0,0-0.1-2.9-2.3-4.2c-1.6-0.9-5.2-1.3-7.7,0.9c-1.2,1.1-2.2,2.6-3.3,4.4
							c-1.4,2.2-3,4.8-5.5,7.2C57.1,39.5,54.8,40.3,52.6,40.3z"/>
					</g>
				</g>
				<g id="XMLID_3312_">
					<path id="XMLID_3314_" class="st2" d="M120.7,42.9c-5,0-9.4-3.5-11.3-7.2c-0.4-0.8-0.8-1.5-1.2-2.2c-0.1,0.6-0.2,1.5-0.6,2.4
						c-1,1.9-3.1,3.1-5.6,3.2c-2.8,0.1-5.1-0.6-6.6-2.2c-2.3-2.4-2.4-6-2.2-8c0.4-4.2,2.8-6.7,7.3-7.6c4.6-0.9,9.1,1.6,11.4,6.3
						c0.2,0.4,0.4,0.9,0.7,1.3c1.4,3,3.4,7.1,6.8,7.8c2.2,0.5,4.1-0.1,5.1-1.4c0.8-1,0.8-2.3,0.2-3.5c-1.5-2.8-6.4-2.6-6.5-2.6
						c-0.1,0-0.3-0.1-0.3-0.2c0-0.1,0-0.3,0.1-0.3c0.1,0,6.8-3.6,10.6,2.3c1.2,1.8,1.3,4.4,0.3,6.7c-1.1,2.6-3.4,4.4-6.4,4.9
						C122,42.9,121.3,42.9,120.7,42.9z M102,27.5c0.7,0,1.3,0.1,2,0.4c1.9,0.7,3.6,2.9,6,7.6c2,4,7.2,7.7,12.6,6.7
						c3.8-0.7,5.4-3.2,6-4.6c0.9-2.1,0.8-4.5-0.3-6.2c-1.5-2.3-3.6-3.4-6.2-3.2c-0.9,0.1-1.8,0.3-2.4,0.5c1.7,0.1,4.5,0.7,5.6,2.8
						c0.7,1.4,0.7,2.9-0.2,4.1c-1.1,1.5-3.3,2.1-5.7,1.6c-3.7-0.8-5.7-5-7.2-8.1c-0.2-0.5-0.4-0.9-0.7-1.3
						c-2.3-4.4-6.5-6.8-10.8-5.9c-4.3,0.8-6.5,3.1-6.8,7.1c-0.2,1.8-0.1,5.3,2,7.5c1.4,1.5,3.5,2.1,6.1,2c2.3-0.1,4.2-1.2,5.1-2.9
						c0.7-1.4,0.6-2.9,0.6-2.9c0,0,0-0.1,0-0.1c-1.5-2.4-2.7-3.7-4-4.1c-1.2-0.5-2.5-0.4-3.6,0.1c-0.8,0.4-1.4,1-1.6,1.7
						c-0.6,1.6-0.2,2.7,0.3,3.3c0.5,0.8,1.4,1.3,2.3,1.3c0.9,0,1.8-0.3,2.4-0.9c0.4-0.4,0.5-0.9,0.4-1.4c-0.1-0.6-0.6-1.2-1.1-1.3
						c-0.5-0.2-1,0-1.5,0.5c-0.1,0.1-0.3,0.1-0.4,0s-0.1-0.3,0-0.4c0.6-0.6,1.4-0.8,2.1-0.6c0.8,0.2,1.4,1,1.5,1.8
						c0.1,0.7-0.1,1.4-0.6,1.9c-0.6,0.7-1.7,1.1-2.8,1.1c-1-0.1-2.1-0.7-2.7-1.6c-0.5-0.7-1-2-0.3-3.8c0.3-0.9,1-1.6,1.9-2
						C100.5,27.7,101.2,27.5,102,27.5z"/>
					<path id="XMLID_3313_" class="st2" d="M121.1,40.3c-2.2,0-4.6-0.7-6-2.1c-2.6-2.4-4.2-5-5.5-7.2c-1.1-1.8-2-3.3-3.3-4.4
						c-2.5-2.2-6.1-1.9-7.7-0.9c-2.2,1.3-2.3,4.2-2.3,4.2c0,0.2-0.1,0.3-0.3,0.3c-0.2,0-0.3-0.1-0.3-0.3c0-0.1,0.1-3.2,2.6-4.7
						c1.8-1,5.7-1.4,8.4,1c1.3,1.1,2.2,2.7,3.4,4.5c1.4,2.2,2.9,4.7,5.4,7.1c2.3,2.2,7.3,2.6,9.4,0.9c2.9-2.3,2.2-5.7,1.2-7.3
						c-2.2-3.2-7.7-2-7.8-2c-0.2,0-0.3-0.1-0.3-0.2c0-0.2,0.1-0.3,0.2-0.3c0.1,0,1.5-0.3,3.3-0.2c2.4,0.1,4.1,1,5.2,2.5
						c1.2,1.7,1.9,5.5-1.3,8C124.3,39.9,122.7,40.3,121.1,40.3z"/>
				</g>
			</g>
			<g id="XMLID_3279_">
				<g id="XMLID_3306_">
					<path id="XMLID_3310_" class="st2" d="M87,36.6c0,0,0-0.1,0-0.3V19.9c0-0.2,0-0.3,0-0.3s0,0.1,0,0.3v16.3
						C87,36.4,87,36.6,87,36.6z"/>
					<g id="XMLID_3307_">
						<path id="XMLID_3309_" class="st2" d="M81.6,39.7c-0.3,0-0.7,0-1.1-0.1c-0.2,0-0.3-0.2-0.2-0.3c0-0.2,0.2-0.3,0.3-0.2
							c4.2,0.7,6.2-2.9,6.2-2.9c0.1-0.1,0.3-0.2,0.4-0.1c0.1,0.1,0.2,0.3,0.1,0.4C87.2,36.4,85.4,39.7,81.6,39.7z"/>
						<path id="XMLID_3308_" class="st2" d="M92.4,39.7c-3.8,0-5.7-3.3-5.7-3.3c-0.1-0.1,0-0.3,0.1-0.4c0.1-0.1,0.3,0,0.4,0.1
							c0.1,0.1,2,3.6,6.2,2.9c0.2,0,0.3,0.1,0.3,0.2c0,0.2-0.1,0.3-0.2,0.3C93.2,39.7,92.8,39.7,92.4,39.7z"/>
					</g>
				</g>
				<g id="XMLID_3304_">
					<path id="XMLID_3305_" class="st2" d="M87,5c0,0,0-0.1,0-0.3V0.8c0-0.2,0-0.3,0-0.3s0,0.1,0,0.3v3.9C87,4.8,87,5,87,5z"/>
				</g>
				<g id="XMLID_3289_">
					<g id="XMLID_3298_">
						<g id="XMLID_3301_">
							<g id="XMLID_3302_">
								<path id="XMLID_3303_" class="st2" d="M80.9,39.7c-0.2,0-0.3-0.1-0.5-0.2c-0.3-0.3-0.2-0.7,0-0.9c0,0,3.8-3.8,3-9.8
									c-0.7-6.1-4.7-9.4-11.7-9.8c-0.4,0-0.6-0.3-0.6-0.7c0-0.2,0-1.8,0.2-2.5c0.3-1.3,1-2.4,1.1-2.5c0.1-0.1,0.2-0.2,0.4-0.3
									c0.2-0.1,5.3-1.3,8.4,1.6c0.3,0.2,0.3,0.7,0,0.9c-0.2,0.3-0.7,0.3-0.9,0c-2.3-2.1-6-1.5-7-1.3c-0.2,0.4-0.6,1.1-0.7,1.8
									c-0.1,0.4-0.1,1.1-0.2,1.7c1.4,0.1,4,0.4,6.4,1.7c3.4,1.8,5.4,4.9,5.9,9.2c0.8,6.7-3.2,10.7-3.4,10.9
									C81.2,39.6,81,39.7,80.9,39.7z"/>
							</g>
						</g>
						<path id="XMLID_3300_" class="st2" d="M85,16.5C85,16.5,85,16.5,85,16.5c-0.4,0-0.7-0.4-0.7-0.7c0-0.1,0.4-3.4-0.9-6.9
							c-1.1-3.1-2.8-4.4-2.8-4.4c-0.3-0.2-0.4-0.6-0.1-0.9C80.6,3.4,83,0.3,87,0c0.4,0,0.7,0.3,0.7,0.6c0,0.4-0.3,0.7-0.6,0.7
							c-2.6,0.2-4.3,1.8-5.1,2.5c0.7,0.7,1.9,2.1,2.8,4.6c1.4,3.8,1,7.3,1,7.5C85.6,16.3,85.4,16.5,85,16.5z"/>
						<path id="XMLID_3299_" class="st2" d="M80.8,15.8c-0.2,0-0.5-0.1-0.6-0.4c-1.6-3.4-5.9-3.9-6-3.9c-0.2,0-0.3-0.1-0.5-0.3
							c-0.1-0.1-0.2-0.3-0.1-0.5c0-0.1,0.3-1.5,1.5-2.8c1.3-1.5,2.9-2.3,2.9-2.4c0.1-0.1,0.3-0.1,0.5-0.1c0.2,0,4.9,1.2,6.9,6.3
							c0.1,0.3,0,0.7-0.4,0.9c-0.3,0.1-0.7,0-0.9-0.4c-1.6-3.8-4.9-5.1-5.8-5.4C78,7,77,7.7,76.1,8.7c-0.5,0.6-0.8,1.1-1,1.6
							c1.5,0.3,4.8,1.4,6.2,4.6c0.1,0.3,0,0.7-0.3,0.9C81,15.7,80.9,15.8,80.8,15.8z"/>
					</g>
					<path id="XMLID_3294_" class="st2" d="M81,11.2c-0.1,0-0.2,0-0.2-0.1c-1.4-1.6-4.5-3-4.5-3C76.1,8,76,7.9,76.1,7.7
						c0.1-0.1,0.2-0.2,0.4-0.2c0.1,0.1,3.3,1.4,4.7,3.2c0.1,0.1,0.1,0.3,0,0.4C81.1,11.2,81,11.2,81,11.2z"/>
					<path id="XMLID_3290_" class="st2" d="M77.4,16.8C77.4,16.8,77.3,16.8,77.4,16.8c-2.7-0.8-5.2-0.6-5.3-0.6
						c-0.2,0-0.3-0.1-0.3-0.3c0-0.2,0.1-0.3,0.3-0.3c0.1,0,2.7-0.2,5.4,0.6c0.2,0,0.2,0.2,0.2,0.4C77.6,16.7,77.5,16.8,77.4,16.8z"
						/>
				</g>
				<g id="XMLID_3280_">
					<g id="XMLID_3283_">
						<g id="XMLID_3286_">
							<g id="XMLID_3287_">
								<path id="XMLID_3288_" class="st2" d="M93.1,39.7c-0.2,0-0.3-0.1-0.5-0.2c-0.2-0.2-4.2-4.2-3.4-10.9
									c0.5-4.3,2.5-7.4,5.9-9.2c2.4-1.3,5-1.6,6.4-1.7c0-0.6-0.1-1.3-0.2-1.7c-0.2-0.7-0.5-1.5-0.7-1.8c-1-0.2-4.7-0.8-7,1.3
									c-0.3,0.2-0.7,0.2-0.9,0c-0.2-0.3-0.2-0.7,0-0.9c3.2-2.9,8.2-1.6,8.4-1.6c0.2,0,0.3,0.1,0.4,0.3c0,0,0.8,1.2,1.1,2.5
									c0.2,0.8,0.2,2.4,0.2,2.5c0,0.4-0.3,0.6-0.6,0.7c-7,0.4-11,3.7-11.7,9.8c-0.7,6.1,3,9.8,3,9.8c0.3,0.3,0.3,0.7,0,0.9
									C93.5,39.6,93.3,39.7,93.1,39.7z"/>
							</g>
						</g>
						<path id="XMLID_3285_" class="st2" d="M89,16.5c-0.3,0-0.6-0.2-0.6-0.6c0-0.1-0.4-3.7,1-7.5C90.2,6,91.4,4.5,92,3.9
							c-0.7-0.8-2.5-2.4-5.1-2.6c-0.4,0-0.6-0.3-0.6-0.7C86.4,0.3,86.7,0,87,0c4,0.3,6.3,3.4,6.4,3.5c0.1,0.1,0.1,0.3,0.1,0.5
							c0,0.2-0.1,0.3-0.3,0.4c0,0-1.7,1.3-2.8,4.4c-1.3,3.5-0.9,6.9-0.9,6.9C89.7,16.1,89.4,16.5,89,16.5C89,16.5,89,16.5,89,16.5z"
							/>
						<path id="XMLID_3284_" class="st2" d="M93.2,15.8c-0.1,0-0.2,0-0.3-0.1c-0.3-0.1-0.5-0.5-0.3-0.9c1.4-3.2,4.7-4.2,6.2-4.6
							c-0.2-0.4-0.5-1-1-1.6C97,7.7,96,7,95.5,6.8c-0.9,0.3-4.2,1.6-5.8,5.4c-0.1,0.3-0.5,0.5-0.9,0.4c-0.3-0.1-0.5-0.5-0.4-0.9
							c2.1-5,6.7-6.2,6.9-6.3c0.2,0,0.3,0,0.5,0.1c0.1,0,1.6,0.9,2.9,2.4c1.2,1.3,1.5,2.8,1.5,2.8c0,0.2,0,0.4-0.1,0.5
							c-0.1,0.1-0.3,0.2-0.5,0.3c0,0-4.4,0.5-5.9,3.9C93.7,15.6,93.5,15.8,93.2,15.8z"/>
					</g>
					<path id="XMLID_3282_" class="st2" d="M93,11.2c-0.1,0-0.1,0-0.2-0.1c-0.1-0.1-0.1-0.3,0-0.4c1.4-1.8,4.6-3.1,4.7-3.2
						c0.1-0.1,0.3,0,0.4,0.2c0.1,0.1,0,0.3-0.2,0.4c0,0-3.1,1.3-4.5,3C93.2,11.2,93.1,11.2,93,11.2z"/>
					<path id="XMLID_3281_" class="st2" d="M96.6,16.8c-0.1,0-0.2-0.1-0.3-0.2c0-0.2,0-0.3,0.2-0.4c2.7-0.8,5.3-0.7,5.4-0.6
						c0.2,0,0.3,0.1,0.3,0.3c0,0.2-0.2,0.3-0.3,0.3C101.8,16.2,99.3,16,96.6,16.8C96.7,16.8,96.6,16.8,96.6,16.8z"/>
				</g>
			</g>
		</g>
		<g id="XMLID_2911_">
			<g id="XMLID_3049_">
				<g id="XMLID_3056_">
					<path id="XMLID_3277_" class="st2" d="M25.5,179.6c-0.3,0-0.5-0.2-0.6-0.4c0-0.1-0.3-0.8,0.2-1.6c0.6-1,2.1-1.6,4.5-1.8
						l0.7-0.1c2.4-0.2,5.5-0.5,8-1c3.3-0.6,4-1.2,4.1-1.4c-0.2-0.2-1.4-1-7-2.2c-3.7-0.8-8-1.5-10.6-1.9l-0.2,0
						c-5-0.8-7-1.6-7.4-2.9c-0.2-0.7,0.2-1.5,1.2-2.2c1.2-0.9,3.3-1.2,6.3-0.9c2.1,0.2,3.9,0.6,4,0.7c0.4,0.1,0.6,0.4,0.5,0.8
						c-0.1,0.4-0.4,0.6-0.8,0.5c-1.9-0.5-7.3-1.4-9.2,0c-0.6,0.5-0.7,0.8-0.7,0.8c0.1,0.2,0.7,1,6.3,1.9l0.2,0
						c15.8,2.5,18.8,3.8,18.8,5.3c0,2.1-4.3,2.8-13.2,3.7l-0.7,0.1c-2.6,0.3-3.3,0.9-3.5,1.2c-0.1,0.2-0.1,0.4-0.1,0.4
						c0.1,0.3,0,0.7-0.4,0.9C25.6,179.6,25.5,179.6,25.5,179.6z"/>
					<path id="XMLID_3276_" class="st2" d="M25.3,179.9c0,0-0.1,0-0.1,0l-0.8-0.1c-4.6-0.7-7.6-1.6-7.4-3.4c0-0.4,0.4-0.6,0.7-0.6
						c0.4,0,0.6,0.4,0.6,0.7c0,0.1,0.1,1,6.3,2l0.8,0.1c0.4,0.1,0.6,0.4,0.5,0.7C25.9,179.6,25.6,179.9,25.3,179.9z"/>
					<path id="XMLID_3274_" class="st2" d="M36.1,186.8c-0.3,0-0.6-0.2-0.6-0.6c0-0.4,0.2-0.7,0.6-0.7c2.2-0.3,3.7-0.6,4.8-0.9
						c1.5-0.5,1.5-0.8,1.5-0.8c0-0.4,0.3-0.7,0.7-0.7s0.7,0.3,0.7,0.7C43.6,185.5,40.7,186.2,36.1,186.8
						C36.1,186.8,36.1,186.8,36.1,186.8z"/>
					<path id="XMLID_3273_" class="st2" d="M43,184.4c-0.4,0-1-0.3-1-0.7v-10.4c0-0.4,0.6-0.7,1-0.7s1,0.3,1,0.7v10.4
						C44,184.1,43.4,184.4,43,184.4z"/>
					<path id="XMLID_3272_" class="st2" d="M17.5,177c-0.4,0-0.5-0.3-0.5-0.7v-10.3c0-0.4,0.1-0.7,0.5-0.7s0.5,0.3,0.5,0.7v10.3
						C18,176.7,17.9,177,17.5,177z"/>
					<path id="XMLID_3271_" class="st2" d="M28.5,169.9c-0.4,0-0.5-0.3-0.5-0.7v-4.7c0-0.4,0.1-0.7,0.5-0.7s0.5,0.3,0.5,0.7v4.7
						C29,169.6,28.9,169.9,28.5,169.9z"/>
				</g>
			</g>
			<g id="XMLID_3007_">
				<g id="XMLID_3020_">
					<path id="XMLID_3031_" class="st2" d="M149.1,179.2l-1.2-0.5l0,0c0,0,0.1-0.2-0.1-0.4c-0.2-0.3-0.9-0.9-3.4-1.2l-0.7-0.1
						c-9-0.9-13.2-1.6-13.2-3.7c0-1.5,3-2.8,18.8-5.3l0.2,0c5.6-0.9,6.2-1.7,6.3-1.9c0-0.1-0.1-0.4-0.7-0.8c-1.9-1.4-7.2-0.5-9.2,0
						c-0.3,0.1-0.7-0.1-0.8-0.5c-0.1-0.4,0.1-0.7,0.5-0.8c0.1,0,1.9-0.5,4-0.7c3-0.3,5.1,0,6.3,0.9c1,0.7,1.4,1.5,1.2,2.2
						c-0.3,1.3-2.4,2.1-7.4,2.9l-0.2,0c-2.6,0.4-6.9,1.1-10.6,1.9c-5.6,1.2-6.8,1.9-7,2.2c0.1,0.2,0.7,0.8,4.1,1.4
						c2.5,0.4,5.5,0.7,8,1l0.7,0.1c2.3,0.2,3.8,0.9,4.5,1.8C149.4,178.4,149.2,179.1,149.1,179.2z"/>
					<path id="XMLID_3027_" class="st2" d="M148.7,179.9c-0.3,0-0.6-0.2-0.6-0.6c-0.1-0.4,0.2-0.7,0.5-0.7l0.8-0.1
						c6.3-1,6.3-1.9,6.3-2c0-0.4,0.2-0.7,0.6-0.7c0.4,0,0.7,0.2,0.7,0.6c0.2,1.8-2.8,2.7-7.4,3.4l-0.8,0.1
						C148.8,179.9,148.8,179.9,148.7,179.9z"/>
					<path id="XMLID_3026_" class="st2" d="M137.9,186.8C137.9,186.8,137.9,186.8,137.9,186.8c-4.7-0.6-7.5-1.3-7.5-3
						c0-0.4,0.3-0.7,0.7-0.7s0.7,0.3,0.7,0.7c0,0,0,0.4,1.5,0.8c1.1,0.3,2.6,0.6,4.8,0.9c0.4,0,0.6,0.4,0.6,0.7
						C138.5,186.5,138.3,186.8,137.9,186.8z"/>
					<path id="XMLID_3025_" class="st2" d="M131,184.4c-0.4,0-1-0.3-1-0.7v-10.4c0-0.4,0.6-0.7,1-0.7s1,0.3,1,0.7v10.4
						C132,184.1,131.4,184.4,131,184.4z"/>
					<path id="XMLID_3024_" class="st2" d="M156.5,177c-0.4,0-0.5-0.3-0.5-0.7v-10.3c0-0.4,0.1-0.7,0.5-0.7s0.5,0.3,0.5,0.7v10.3
						C157,176.7,156.9,177,156.5,177z"/>
					<path id="XMLID_3023_" class="st2" d="M145.5,169.9c-0.4,0-0.5-0.3-0.5-0.7v-4.7c0-0.4,0.1-0.7,0.5-0.7s0.5,0.3,0.5,0.7v4.7
						C146,169.6,145.9,169.9,145.5,169.9z"/>
				</g>
			</g>
			<path id="XMLID_2912_" class="st2" d="M87,220c-15,0-29.5-2.6-43.1-7.6c-6.6-2.4-12.8-5.5-18.7-9c-0.2-0.1-0.2-0.3-0.2-0.6V179
				c0-0.3,0-0.5,0.2-0.6c0.2-0.1,0.4-0.1,0.6,0.1c16.8,13.4,38.5,20.7,61.2,20.7s44.5-7.4,61.2-20.7c0.2-0.2,0.3-0.2,0.5-0.1
				c0.2,0.1,0.2,0.3,0.2,0.6v23.9c0,0.2,0,0.4-0.2,0.6c-5.9,3.5-12.2,6.5-18.8,9C116.4,217.4,102,220,87,220z M26,202.5
				c6,3.4,11.9,6.3,18.3,8.7c13.5,5,27.9,7.6,42.7,7.6s29.2-2.5,42.7-7.6c6.4-2.4,12.3-5.3,18.3-8.7v-22.2c-17,13-38.4,20.2-61,20.2
				s-44-7.2-61-20.2V202.5z"/>
		</g>
	</g>
</g>
<g id="Слой_2">
	<g id="XMLID_20280_">
		<path id="XMLID_20407_" class="st3" d="M5.7,11C5.7,11,5.7,11,5.7,11l4.7,10.2c0,0.1,0.1,0.1,0.1,0.1l4.2,2.5c0,0,0.1,0.2,0.1,0.2
			c0,0,0,0,0,0c0.1,0,0.4,1,0.8,1.5c0.4,0.4,0.5,0.5,1.5,0.6v2.6c-0.9,0.1-0.7,0.6-0.9,1.3c-2,6.7-11.7,41.6-3.1,64.9
			c3.4,9.1,0.2,21.4-1.4,28c-0.1,0.5-0.3,1-0.4,1.4c-0.3,1.1-0.2,2.1,0.2,2.8c0.5,1,1.6,1.2,1.7,1.2l0.1,0.2v0.2l0,0v-0.2
			c0.9,0.3,1.7-0.5,2.2-1.4l7.1-3.5c1.4,1.6,2.5,3.9,3.2,6.1l-7.9,3.4c-0.3-0.1-0.6-0.1-0.8,0c-0.3,0.1-0.9,0.4-1,1.4
			c-0.2,1.9,1.4,3.3,3.2,5c1.9,1.7,4.1,3.7,4.3,6.4c0.3,5-3.2,6.5-3.3,6.5c-0.3,0.1-0.4,0.4-0.4,0.7c0,0.3,0.2,0.6,0.5,0.6
			c0,0,0.3,0.1,0.7,0.1c1.7,0,6.3-0.9,10.8-9.4c1-2,1.5-3.6,1.7-5c0.6,4.4,1.9,10.2,4.6,15.9l-6,6.6c-0.1,0.1-0.1,0.3,0,0.4l1.7,1.9
			c0.1,0.1,0.1,0.1,0.2,0.1c0.1,0,0.1,0,0.2-0.1l5.4-6c1.4,2.5,3.2,4.9,5.3,7c13.8,14.3,38.3,22.5,42.8,23.9
			c0.1,0.2,0.3,0.2,0.5,0.2c0.1,0,0.1,0,0.2,0c0,0,0,0,0,0c0,0,0,0,0,0c0.1,0,0.1,0,0.2,0c0.2,0,0.4-0.1,0.5-0.2
			c4.5-1.4,28.8-9.6,42.5-23.9c2.1-2.2,3.9-4.6,5.3-7.1l5.6,6.2c0.1,0.1,0.1,0.1,0.2,0.1s0.1,0,0.2-0.1l1.7-1.9
			c0.1-0.1,0.1-0.3,0-0.4l-6.1-6.8c2.9-6,4.1-12.2,4.6-16.6c0.1,1.6,0.5,3.5,1.8,5.9c4.5,8.5,9.1,9.4,10.8,9.4
			c0.4,0,0.7-0.1,0.7-0.1c0.3-0.1,0.5-0.3,0.5-0.6c0-0.3-0.2-0.6-0.4-0.7c0,0-0.9-0.4-1.8-1.4c-1.2-1.3-1.7-3.1-1.5-5.2
			c0.2-2.6,2.3-4.6,4.3-6.4c1.8-1.7,3.4-3.1,3.2-5c-0.1-1-0.7-1.3-1-1.4c-0.2-0.1-0.5-0.1-0.8,0l-7.9-3.4c0.7-2.2,1.8-4.6,3.2-6.1
			l6.9,3.4c0.5,0.9,1.2,1.7,2.2,1.5v0.2c0,0,0.5,0,0.5,0h-0.5v-0.2c0.9,0,1.3-0.4,1.8-1.3c0.4-0.7,0.6-1.7,0.3-2.9
			c-0.1-0.4-0.2-0.9-0.3-1.4c-1.7-6.6-4.7-18.9-1.4-28c8.7-23.4-1.2-58.2-3.2-64.9c-0.2-0.7-0.1-1.2-1-1.3v-2.6
			c0.9-0.1,1.2-0.2,1.6-0.6c0.4-0.5,0.8-1.5,0.9-1.5c0,0,0,0,0,0c0,0,0.1-0.2,0.1-0.2l4.2-2.4c0.1,0,0.1-0.1,0.1-0.2l4.7-10.2
			c0,0,0,0,0,0c0,0,0,0,0-0.1c0,0,0,0,0,0c0,0,0,0,0-0.1c0,0,0,0,0-0.1c0,0,0,0,0,0c0,0,0,0,0-0.1c0,0,0,0,0,0c0,0,0,0,0,0
			c0,0,0,0,0,0c0,0,0,0,0,0c0,0,0,0-0.1,0c0,0,0,0,0,0c0,0,0,0-0.1,0c0,0,0,0,0,0c0,0,0,0,0,0c0,0,0,0-0.1,0c0,0,0,0,0,0l-9.2,5.2
			c-0.1,0-0.1,0.1-0.1,0.1l-2.1,4.7c0,0,0,0.1,0,0.1c-0.6,0.1-1.1,0.3-1.5,0.8c-0.6,0.6-0.8,1.5-0.7,2.3c-0.1,0-0.2,0-0.2,0.1
			l-30.4,33.6c-0.7-2-0.8-3.5-0.8-3.6c0-0.3-0.2-0.6-0.5-0.7l-36.1-9.9c-0.2-0.2-0.4-0.3-0.6-0.2l0,0l0,0c-0.2-0.1-0.5,0-0.6,0.2
			l-36.3,9.9c-0.3,0.1-0.5,0.4-0.5,0.7c0,0,0,1.5-0.8,3.5L19.9,24c-0.1-0.1-0.1-0.1-0.2-0.1c0.1-0.8-0.1-1.7-0.7-2.3
			c-0.4-0.4-0.9-0.7-1.5-0.8c0,0,0-0.1,0-0.1L15.4,16c0-0.1-0.1-0.1-0.1-0.1L6,10.6c0,0,0,0,0,0c0,0,0,0-0.1,0c0,0,0,0,0,0
			c0,0,0,0,0,0c0,0,0,0-0.1,0c0,0,0,0,0,0c0,0,0,0-0.1,0c0,0,0,0,0,0c0,0,0,0,0,0c0,0,0,0,0,0c0,0,0,0,0,0c0,0,0,0,0,0.1
			c0,0,0,0,0,0c0,0,0,0,0,0.1c0,0,0,0,0,0.1C5.6,10.9,5.6,10.9,5.7,11C5.7,11,5.7,11,5.7,11z M15.2,124.7c-0.7,1.8-1,2.5-1.8,2.4
			c0,0-0.5-0.1-0.8-0.6c-0.2-0.4-0.2-1-0.1-1.7c0.1-0.4,0.2-0.9,0.3-1.4c1.7-6.8,5-19.4,1.4-28.9c-8.1-21.8,0-54.1,2.8-62.8v22.5
			c0,0-0.1,0.1,0,0.1c-0.8,0.4-1.5,1.4-1.5,2.5c0,0.7,0.2,1.3,0.6,1.8c0,0-0.1,0.1-0.1,0.1L15,68.2c0,0.1,0,0.2,0.1,0.3
			c0.1,0.1,0.1,0.2,0.2,0.2h5.6c0.1,0,0.2-0.1,0.2-0.2c0.1-0.1,0.1-0.2,0.1-0.3L20,58.7c0,0,0-0.1,0-0.1c0.4-0.5,0.6-1.1,0.6-1.8
			c0-1.1-0.7-2-1.5-2.5c0,0-0.1-0.1-0.1-0.1V27.9l28.2,31.1c-2.5,0.9-4.5,3.4-6,7.5c-3.9,1.5-7.3,1.3-7.4,1.3
			c-0.2,0-0.4,0.1-0.5,0.2c-0.1,0.1-0.2,0.3-0.2,0.5v35.4c-0.9,1.7-2.1,3.5-3.1,5.1c-2.3,3.5-4.2,6.6-4.1,8.5l-6.5,2.9
			C16.8,120.4,15.9,122.8,15.2,124.7z M18.1,54.6c1.1,0,1.9,1,1.9,2.1c0,1.2-0.9,2.1-1.9,2.1c-1.1,0-1.9-1-1.9-2.1
			C16.2,55.5,17,54.6,18.1,54.6z M17.1,54.1v-28c0.9,0,0.9-0.2,1.9-0.4v28.4H17.1z M18.7,67.6h-1.4l0.5-7.3c0-0.2-0.1-0.2-0.3-0.3
			c-0.2,0-0.3,0-0.3,0.2l-0.5,7.3h-1.2l1.1-8.8c0.4,0.3,0.9,0.5,1.4,0.5c0.5,0,1-0.3,1.4-0.6l1.1,8.8h-1.3l-0.4-6.8
			c0-0.2-0.1-0.2-0.3-0.2c-0.2,0-0.3,0-0.3,0.2L18.7,67.6z M47.7,59.4l1.1,1.2c-0.7,1.1-1.7,2.3-3,3.3c-1.2,1-2.5,1.7-3.8,2.3
			C43.7,61.6,45.9,60,47.7,59.4z M33.1,122.2c-0.9-2.6-3-4.3-4.7-4.8c-0.7-0.2-1.4-0.2-2-0.1c0-1.7,2-4.8,4-8
			c0.9-1.4,1.7-2.9,2.7-4.3V122.2z M15.9,126.2c0.1-0.3,0.3-0.7,0.4-1c0.9-2.4,1.6-3.9,3.8-3.2c0.7,0.2,1.4,0.7,2,1.3L15.9,126.2z
			 M26,130.4c0.5,1.9,0.7,3.6,0.5,4.7c-0.3,1.4-1.2,2.5-2.2,2.8c-0.7,0.2-1.3-0.1-1.8-0.7c-1.1-1.5-2.6-3-3.8-3.6L26,130.4z
			 M30.8,143.9c-2.7,5.1-5.3,7.2-7.1,8c-0.3,0.1-0.5,0.2-0.8,0.3c0,0,0,0,0,0c1-1.1,2.1-3.1,1.9-6.3c-0.2-3.2-2.6-5.4-4.7-7.3
			c-1.5-1.4-2.9-2.6-2.8-3.8c0-0.2,0.1-0.2,0.1-0.2c0.3-0.2,1.9,0.6,4.1,3.5c0.8,1,1.9,1.5,3,1.2c0.6-0.2,1.2-0.5,1.6-1l5.8-2.6
			C32.3,136.3,33.3,139.2,30.8,143.9z M32.8,134.7l-5.8,2.6c0.3-0.6,0.6-1.2,0.7-1.9c0.7-3.7-2.6-13.5-7.3-14.8c0,0,0,0-0.1,0
			l5.8-2.6c0.5-0.1,1.3-0.2,2,0c1.7,0.5,3.9,2.5,4.8,5.5v8.8c0,0,0,0.8,0.1,2.1C33,134.5,32.9,134.6,32.8,134.7z M34.1,163.7
			l-1.3-1.5l5.7-6.3c0.3,0.6,0.6,1.3,1,1.9L34.1,163.7z M34,132.4V69.7l4.7,5.1v56c0,0.2-0.1,18,10.9,29.5
			c12.8,13.4,36,20.7,38.8,21.5v6.1c-4.7-1.5-29-9.6-42.4-23.5C33.9,152,34,132.6,34,132.4z M120.1,59.7l-31.7-8.6v-6.3l35.8,9.8
			L120.1,59.7z M88.4,44.9v6.2l-31.7,8.6l-4-5.1L88.4,44.9z M56.6,60.3l31.7-8.7l31.7,8.7c0.3,1.1,1.7,6.1,6.1,9.7
			c4.3,3.5,9.9,4.7,10.9,4.9v55.9c0,0.2,0.4,17.7-10.4,29c-13,13.6-36.9,20.9-38.4,21.4c-1.5-0.4-25.3-7.8-38.3-21.4
			c-10.8-11.3-10.4-28.8-10.4-29V74.9c0.9-0.2,6.6-1.4,10.9-4.9C55,66.4,56.4,61.4,56.6,60.3z M144.1,162.3l-1.3,1.5l-5.5-6
			c0.3-0.6,0.7-1.3,1-1.9L144.1,162.3z M130.9,164.4c-13.8,14.4-38.8,22.5-42.5,23.6v-6.2c2.8-0.8,25.9-8.1,38.8-21.5
			c11-11.5,10.9-29.3,10.9-29.5v-56l4.7-5.1v62.7C142.7,132.6,142.8,151.9,130.9,164.4z M143.6,104.7c0.9,1.6,1.9,3.2,2.9,4.7
			c2.1,3.2,4,6.3,4,8c-0.6-0.1-1.3-0.1-2,0.1c-1.8,0.5-4,2.3-4.9,5.1V104.7z M143.5,135.8c0-0.3,0-0.6,0.1-0.8
			c0.1,0,0.1,0.1,0.2,0.1C143.7,135.3,143.6,135.6,143.5,135.8z M159.4,134.6c0,0,0,0.1,0.1,0.2c0.1,1.1-1.3,2.4-2.8,3.8
			c-2.1,1.9-4.5,4.1-4.7,7.3c-0.2,3.1,0.9,5.1,2,6.3c-1.9-0.7-4.9-2.7-7.9-8.4c-2.5-4.7-1.5-7.6-1.2-8.2l5.8,2.6
			c0.5,0.5,1,0.8,1.6,1c1.1,0.3,2.2-0.1,3-1.2C157.5,135.2,159.2,134.4,159.4,134.6z M158.1,133.6c-1.3,0.7-2.7,2.1-3.8,3.6
			c-0.5,0.6-1.1,0.9-1.8,0.7c-1-0.3-1.9-1.5-2.2-2.8c-0.2-1.1,0-2.8,0.5-4.7L158.1,133.6z M149.1,135.4c0.1,0.7,0.4,1.3,0.7,1.9
			l-5.8-2.6c-0.2-0.1-0.3-0.2-0.5-0.4c0.1-1.2,0-1.9,0-1.9v-8.4c0.9-3.2,3.2-5.4,5-5.9c0.7-0.2,1.5-0.2,2,0l5.8,2.6c0,0,0,0-0.1,0
			C151.7,121.9,148.4,131.7,149.1,135.4z M154.7,123.2c0.6-0.6,1.3-1.1,2-1.3c2.2-0.6,2.9,0.8,3.8,3.2c0.1,0.3,0.3,0.7,0.4,1
			L154.7,123.2z M162.5,94.4c-3.5,9.5-0.3,22.1,1.4,28.9c0.1,0.5,0.3,1,0.4,1.4c0.2,0.7,0.2,1.3,0,1.7c-0.3,0.5-0.7,0.6-0.7,0.6
			l0.1,0.7l-0.1-0.7c-0.8,0.2-1.1-0.6-1.8-2.4c-0.7-1.9-1.6-4.3-4.1-4.3l-6.5-2.9c0.1-1.9-1.9-5-4.1-8.5c-1.1-1.7-2.4-3.6-3.3-5.5
			v-35c0-0.2-0.1-0.4-0.2-0.5c-0.1-0.1-0.3-0.2-0.5-0.2c0,0-3.4,0.1-7.2-1.3c-1.5-4.1-3.5-6.7-6.1-7.6l28.1-31.1v26.2
			c0,0,0,0.1,0,0.1c-0.8,0.4-1.4,1.4-1.4,2.5c0,0.7,0.2,1.3,0.6,1.8c0,0,0,0.1,0,0.1l-1.2,9.6c0,0.1,0,0.2,0.1,0.3
			c0.1,0.1,0.1,0.2,0.2,0.2h5.6c0.1,0,0.2-0.1,0.2-0.2c0.1-0.1,0.1-0.2,0.1-0.3l-1.2-9.6c0,0,0-0.1,0-0.1c0.4-0.5,0.6-1.1,0.6-1.8
			c0-1.1-0.7-2-1.6-2.5c0,0-0.1-0.1-0.1-0.1V31.6C162.4,40.4,170.6,72.6,162.5,94.4z M135,66.2c-1.3-0.6-2.7-1.3-4-2.3
			c-1.3-1-2.2-2.1-3-3.2l1.1-1.2C131,60,133.2,61.7,135,66.2z M158.8,54.6c1.1,0,1.9,1,1.9,2.1c0,1.2-0.9,2.1-1.9,2.1
			c-1.1,0-1.9-1-1.9-2.1C156.9,55.5,157.8,54.6,158.8,54.6z M158.6,54.1V25.8c0,0.2,0,0.3,0.9,0.4v28H158.6z M159.6,67.6h-1.4
			l0.4-6.8c0-0.2-0.1-0.2-0.3-0.3c-0.2,0-0.3,0-0.3,0.2l-0.4,6.9h-1.3l1.1-8.8c0.4,0.3,0.9,0.5,1.4,0.5s1-0.3,1.4-0.6l1.1,8.8h-1.2
			l-0.5-7.3c0-0.2-0.1-0.2-0.3-0.2c-0.2,0-0.3,0-0.3,0.2L159.6,67.6z M166,20.9l-4.1,2.2c-0.1-0.5-0.2-0.9-0.5-1.3l8.4-9.3L166,20.9
			z M162,16.3l7.6-4.3l-8.4,9.3c-0.3-0.3-0.7-0.5-1.2-0.6L162,16.3z M158.3,22c0.4-0.4,0.8-0.6,1.3-0.6c0.5,0,1,0.2,1.3,0.6
			c0.7,0.8,0.7,2.1,0,2.9c-0.4,0.4-0.8,0.6-1.3,0.6c-0.5,0-1-0.2-1.3-0.6C157.5,24.1,157.5,22.8,158.3,22z M157.3,24.5
			c0.1,0.3,0.4,0.5,0.4,0.8V27l-29.9,33.1c-0.4-0.7-0.7-1.3-1-1.9L157.3,24.5z M130.3,65.1c4.3,3.5,9.4,4,11.6,4.1l-4.6,5.1
			c-0.9-0.2-6.4-1.3-10.8-4.8c-4.3-3.4-5.7-8.4-6-9.3l4-4.9C124.9,57.3,126,61.7,130.3,65.1z M52.2,55.4l3.9,4.8
			c-0.2,0.9-1.7,5.9-6,9.3c-4.4,3.5-9.8,4.6-10.8,4.8l-4.6-5.1c2.2-0.1,7.4-0.7,11.7-4.1C50.7,61.7,51.9,57.5,52.2,55.4z M50,58.2
			c-0.3,0.6-0.7,1.3-1,1.9L19,27v-1.8c0-0.2,0.4-0.5,0.5-0.8L50,58.2z M18.6,22c0.7,0.8,0.7,2.1,0,2.9c-0.4,0.4-0.8,0.6-1.3,0.6
			c-0.5,0-1-0.2-1.3-0.6c-0.7-0.8-0.7-2.1,0-2.9c0.4-0.4,0.8-0.6,1.3-0.6C17.8,21.4,18.3,21.6,18.6,22z M14.9,16.3l2,4.5
			c-0.4,0.1-0.8,0.3-1.2,0.6L7.4,12L14.9,16.3z M15.4,21.8c-0.3,0.4-0.4,0.8-0.5,1.3l-4.1-2.2L7,12.5L15.4,21.8z"/>
		<path id="XMLID_20406_" class="st3" d="M72.8,133c-0.2,0-0.3,0.1-0.3,0.3l-0.3,2.6c0,0.2,0.1,0.3,0.2,0.4c0,0,0,0,0,0
			c0.1,0,0.3-0.1,0.3-0.3l0.3-2.6C73,133.2,72.9,133,72.8,133z"/>
		<path id="XMLID_20405_" class="st3" d="M61.1,133.1c-0.1-0.1-0.3-0.1-0.4,0l-3.5,4c-0.1,0.1-0.1,0.3,0,0.4
			c0.1,0.1,0.1,0.1,0.2,0.1c0.1,0,0.1,0,0.2-0.1l3.5-4C61.3,133.4,61.3,133.2,61.1,133.1z"/>
		<path id="XMLID_20404_" class="st3" d="M64.2,133c-0.1-0.1-0.3,0-0.4,0.1l-3,5.5c-0.1,0.2,0,0.3,0.1,0.4c0,0,0.1,0,0.1,0
			c0.1,0,0.2-0.1,0.2-0.2l3-5.5C64.4,133.3,64.3,133.1,64.2,133z"/>
		<path id="XMLID_20403_" class="st3" d="M76,133c-0.2,0-0.3,0.1-0.3,0.3l-0.5,6.2c0,0.2,0.1,0.3,0.3,0.3c0,0,0,0,0,0
			c0.1,0,0.3-0.1,0.3-0.3l0.5-6.2C76.2,133.2,76.1,133,76,133z"/>
		<path id="XMLID_20402_" class="st3" d="M79.5,133c-0.2,0-0.3,0.1-0.3,0.3l-0.3,4.3c0,0.2,0.1,0.5,0.3,0.5c0,0,0,0,0,0
			c0.1,0,0.3-0.3,0.3-0.4l0.3-4.3C79.8,133.2,79.7,133,79.5,133z"/>
		<path id="XMLID_20401_" class="st3" d="M85.6,133c-0.2,0-0.3,0.1-0.3,0.3l-0.2,4.7c0,0.2,0.1,0.1,0.3,0.1c0,0,0,0,0,0
			c0.2,0,0.3,0.1,0.3-0.1l0.2-4.8C85.9,133,85.8,133,85.6,133z"/>
		<path id="XMLID_20400_" class="st3" d="M82.6,133c-0.2,0-0.3,0.1-0.3,0.3l-0.7,8.2c0,0.2,0.1,0.3,0.3,0.3c0,0,0,0,0,0
			c0.1,0,0.3-0.1,0.3-0.3l0.7-8.2C82.9,133.2,82.7,133,82.6,133z"/>
		<path id="XMLID_20399_" class="st3" d="M67.1,133c-0.2-0.1-0.3,0-0.4,0.2l-2.1,7c0,0.2,0,0.3,0.2,0.4c0,0,0.1,0,0.1,0
			c0.1,0,0.2-0.1,0.3-0.2l2.1-7C67.4,133.3,67.3,133.1,67.1,133z"/>
		<path id="XMLID_20398_" class="st3" d="M69.9,133c-0.2,0-0.3,0.1-0.3,0.3l-0.7,4.6c0,0.2,0.1,0.3,0.2,0.4c0,0,0,0,0.1,0
			c0.1,0,0.3-0.1,0.3-0.3l0.7-4.6C70.2,133.2,70.1,133,69.9,133z"/>
		<path id="XMLID_20397_" class="st3" d="M123.9,135.5L120,133c-0.1-0.1-0.3,0-0.4,0.1c-0.1,0.2,0,0.3,0.1,0.4l3.9,2.5
			c0,0,0.1,0,0.1,0c0.1,0,0.2-0.1,0.2-0.2C124.1,135.8,124,135.6,123.9,135.5z"/>
		<path id="XMLID_20396_" class="st3" d="M103.8,133c-0.2,0-0.3,0.2-0.3,0.4l0.8,7.7c0,0.2,0.1,0.3,0.3,0.3c0,0,0,0,0,0
			c0.2,0,0.3-0.2,0.3-0.4l-0.8-7.7C104.1,133.1,104,133,103.8,133z"/>
		<path id="XMLID_20395_" class="st3" d="M88.4,133c0,0,0,0.1,0,0.3v8v1.2c0,0.2,0,0.3,0,0.3s0-0.1,0-0.3v-1.2v-8
			C88.4,133.1,88.4,133,88.4,133z"/>
		<path id="XMLID_20394_" class="st3" d="M115.8,133.1c-0.1-0.1-0.3-0.1-0.4,0c-0.1,0.1-0.1,0.3,0,0.4l4.4,5
			c0.1,0.1,0.1,0.1,0.2,0.1c0.1,0,0.1,0,0.2-0.1c0.1-0.1,0.1-0.3,0-0.4L115.8,133.1z"/>
		<path id="XMLID_20393_" class="st3" d="M112.8,133.2c-0.1-0.2-0.3-0.2-0.4-0.1c-0.1,0.1-0.2,0.3-0.1,0.4l3,5.5
			c0.1,0.1,0.1,0.2,0.2,0.2c0,0,0.1,0,0.1,0c0.1-0.1,0.2-0.3,0.1-0.4L112.8,133.2z"/>
		<path id="XMLID_20392_" class="st3" d="M100.6,133c-0.2,0-0.3,0.2-0.3,0.3l0.5,6.2c0,0.2,0.1,0.3,0.3,0.3c0,0,0,0,0,0
			c0.2,0,0.3-0.2,0.3-0.3l-0.5-6.2C100.9,133.1,100.8,133,100.6,133z"/>
		<path id="XMLID_20391_" class="st3" d="M97.1,133c-0.2,0-0.3,0.2-0.3,0.3l0.2,3.3c0,0.2,0.1,0.5,0.3,0.5c0,0,0,0,0,0
			c0.2,0,0.3-0.3,0.3-0.5l-0.2-3.2C97.3,133.2,97.2,133,97.1,133z"/>
		<path id="XMLID_20390_" class="st3" d="M91,133c-0.2,0-0.3,0.2-0.3,0.3l0.2,4.3c0,0.2,0.1,0.5,0.3,0.5c0,0,0,0,0,0
			c0.2,0,0.3-0.4,0.3-0.5l-0.2-4.2C91.2,133.2,91.1,133,91,133z"/>
		<path id="XMLID_20389_" class="st3" d="M94,133c-0.2,0-0.3,0.2-0.3,0.3l0.5,7.3c0,0.2,0.1,0.5,0.3,0.5c0,0,0,0,0,0
			c0.2,0,0.3-0.4,0.3-0.6l-0.5-7.2C94.3,133.3,94.1,133,94,133z"/>
		<path id="XMLID_20388_" class="st3" d="M109.8,133.2c0-0.2-0.2-0.3-0.4-0.2c-0.2,0.1-0.2,0.2-0.2,0.4l2.1,7c0,0.1,0.2,0.2,0.3,0.2
			c0,0,0.1,0,0.1,0c0.2-0.1,0.2-0.2,0.2-0.4L109.8,133.2z"/>
		<path id="XMLID_20387_" class="st3" d="M106.6,133c-0.2,0-0.3,0.2-0.2,0.4l0.7,4.6c0,0.2,0.1,0.3,0.3,0.3c0,0,0,0,0.1,0
			c0.2,0,0.3-0.2,0.2-0.4l-0.7-4.6C106.9,133.1,106.8,133,106.6,133z"/>
		<path id="XMLID_20386_" class="st3" d="M112.3,118.4c0,0.1,0.2,0.2,0.3,0.2c0,0,0.1,0,0.1,0l6.4-3.1c0.1-0.1,0.2-0.3,0.1-0.4
			c-0.1-0.2-0.2-0.2-0.4-0.2l-6.4,3.1C112.3,118.1,112.2,118.2,112.3,118.4z"/>
		<path id="XMLID_20385_" class="st3" d="M104.5,103.5c0.1,0.1,0.2,0.2,0.3,0.2c0,0,0.1,0,0.1,0l7.7-4.7c0.1-0.1,0.2-0.3,0.1-0.4
			c-0.1-0.2-0.3-0.2-0.4-0.1l-7.7,4.7C104.5,103.2,104.4,103.4,104.5,103.5z"/>
		<path id="XMLID_20384_" class="st3" d="M117.7,129.9c0,0.2,0.1,0.3,0.2,0.4l8,2.3c0,0,0,0,0.1,0c0.1,0,0.2-0.1,0.3-0.2
			c0-0.2-0.1-0.3-0.2-0.4l-8-2.3C117.9,129.6,117.8,129.7,117.7,129.9z"/>
		<path id="XMLID_20383_" class="st3" d="M116.9,126.7c-0.2,0-0.3-0.1-0.3,0.1c0,0.2,0.1,0.1,0.3,0.1l5.8-0.2c0,0,0,0,0,0
			c0.2,0,0.3,0,0.3-0.2c0-0.2-0.1,0-0.3,0L116.9,126.7C116.9,126.7,116.9,126.7,116.9,126.7z"/>
		<path id="XMLID_20382_" class="st3" d="M110.4,114.7c0,0.1,0.2,0.2,0.3,0.2c0,0,0.1,0,0.1,0l5.4-2c0.2-0.1,0.2-0.2,0.2-0.4
			c-0.1-0.2-0.2-0.3-0.4-0.2l-5.4,2C110.4,114.4,110.3,114.5,110.4,114.7z"/>
		<path id="XMLID_20381_" class="st3" d="M108.9,111.9c0,0.1,0.2,0.2,0.3,0.2c0,0,0.1,0,0.1,0l5.4-2.9c0.1-0.1,0.2-0.3,0.1-0.4
			c-0.1-0.2-0.2-0.2-0.4-0.1l-5.4,2.9C108.9,111.6,108.8,111.8,108.9,111.9z"/>
		<path id="XMLID_20380_" class="st3" d="M110.9,103.4c-0.1-0.2-0.2-0.2-0.4-0.1l-4.5,2.4c-0.1,0.1-0.2,0.3-0.1,0.4
			c0,0.1,0.2,0.2,0.3,0.2c0,0,0.1,0,0.1,0l4.5-2.4C110.9,103.7,111,103.5,110.9,103.4z"/>
		<path id="XMLID_20379_" class="st3" d="M107.4,109c0.1,0.1,0.2,0.2,0.3,0.2c0,0,0.1,0,0.1,0l6.4-3.6c0.1-0.1,0.2-0.3,0.1-0.4
			s-0.2-0.2-0.4-0.1l-6.4,3.6C107.3,108.7,107.3,108.8,107.4,109z"/>
		<path id="XMLID_20378_" class="st3" d="M115.1,123.3c-0.2,0-0.3,0.2-0.2,0.4c0,0.2,0.1,0.3,0.3,0.3c0,0,0,0,0.1,0l4.1-0.9
			c0.2,0,0.3-0.2,0.2-0.4c0-0.2-0.2-0.3-0.3-0.2L115.1,123.3z"/>
		<path id="XMLID_20377_" class="st3" d="M118.2,119.3c-0.1-0.2-0.2-0.3-0.4-0.2l-4,1.6c-0.1,0.1-0.2,0.2-0.2,0.4
			c0,0.1,0.2,0.2,0.3,0.2c0,0,0.1,0,0.1,0l4-1.6C118.2,119.7,118.2,119.5,118.2,119.3z"/>
		<path id="XMLID_20376_" class="st3" d="M96.8,88.7c0.1,0.1,0.1,0.1,0.2,0.1c0.1,0,0.1,0,0.2-0.1l7.6-6.6c0.1-0.1,0.1-0.3,0-0.4
			c-0.1-0.1-0.3-0.2-0.4-0.1l-7.6,6.6C96.7,88.3,96.7,88.5,96.8,88.7z"/>
		<path id="XMLID_20375_" class="st3" d="M90.6,77.8C90.6,77.8,90.7,77.8,90.6,77.8c0.2,0,0.3-0.1,0.4-0.2l2.2-8.3
			c0-0.2,0-0.3-0.2-0.4c-0.2,0-0.3,0-0.4,0.2l-2.2,8.3C90.4,77.5,90.5,77.7,90.6,77.8z"/>
		<path id="XMLID_20374_" class="st3" d="M92.5,80.5c0,0,0.1,0,0.1,0c0.1,0,0.2-0.1,0.3-0.2l3.3-7.1c0.1-0.2,0-0.3-0.1-0.4
			c-0.1-0.1-0.3,0-0.4,0.1L92.4,80C92.3,80.2,92.4,80.4,92.5,80.5z"/>
		<path id="XMLID_20373_" class="st3" d="M103.4,87.8c-0.1-0.1-0.3-0.2-0.4-0.1l-3.5,2.6c-0.1,0.1-0.2,0.3-0.1,0.4
			c0.1,0.1,0.1,0.1,0.2,0.1c0.1,0,0.1,0,0.2-0.1l3.5-2.6C103.4,88.1,103.5,87.9,103.4,87.8z"/>
		<path id="XMLID_20372_" class="st3" d="M101.1,94.7c0.1,0,0.1,0,0.2-0.1l2.4-1.8c0.1-0.1,0.2-0.3,0.1-0.4
			c-0.1-0.1-0.3-0.2-0.4-0.1l-2.4,1.8c-0.1,0.1-0.2,0.3-0.1,0.4C100.9,94.7,101,94.7,101.1,94.7z"/>
		<path id="XMLID_20371_" class="st3" d="M106.6,98.5c-0.1-0.1-0.3-0.2-0.4-0.1l-2.9,2.2c-0.1,0.1-0.2,0.3-0.1,0.4
			c0.1,0.1,0.1,0.1,0.2,0.1c0.1,0,0.1,0,0.2-0.1l2.9-2.2C106.6,98.8,106.7,98.6,106.6,98.5z"/>
		<path id="XMLID_20370_" class="st3" d="M101.6,98.1c0.1,0.1,0.1,0.2,0.2,0.2c0,0,0.1,0,0.1,0l6.5-4.2c0.1-0.1,0.2-0.3,0.1-0.4
			c-0.1-0.2-0.3-0.2-0.4-0.1l-6.5,4.2C101.6,97.7,101.6,97.9,101.6,98.1z"/>
		<path id="XMLID_20369_" class="st3" d="M94,83.3c0.1,0,0.1,0.1,0.2,0.1c0.1,0,0.2,0,0.2-0.1l4-5.9c0.1-0.1,0.1-0.3-0.1-0.4
			c-0.1-0.1-0.3-0.1-0.4,0.1l-4,5.9C93.8,83,93.8,83.2,94,83.3z"/>
		<path id="XMLID_20368_" class="st3" d="M98.2,82.9c-0.1-0.1-0.3-0.1-0.4,0l-2.4,2.6c-0.1,0.1-0.1,0.3,0,0.4
			c0.1,0.1,0.1,0.1,0.2,0.1c0.1,0,0.1,0,0.2-0.1l2.4-2.6C98.3,83.2,98.3,83,98.2,82.9z"/>
		<path id="XMLID_20367_" class="st3" d="M56.6,133l-6.2,4c-0.1,0.1-0.2,0.3-0.1,0.4c0.1,0.1,0.1,0.2,0.2,0.2c0,0,0.1,0,0.1,0l6.2-4
			c0.1-0.1,0.2-0.3,0.1-0.4C56.9,133,56.7,133,56.6,133z"/>
		<path id="XMLID_20366_" class="st3" d="M58.2,115.2l6.4,3.1c0,0,0.1,0,0.1,0c0.1,0,0.2-0.1,0.3-0.2c0.1-0.2,0-0.3-0.1-0.4
			l-6.4-3.1c-0.1-0.1-0.3,0-0.4,0.2C58,114.9,58,115.1,58.2,115.2z"/>
		<path id="XMLID_20365_" class="st3" d="M51.5,132C51.5,132,51.5,132,51.5,132l7.5-2.4c0.2,0,0.2-0.2,0.2-0.4
			c0-0.2-0.2-0.3-0.4-0.2l-7.4,2.4c-0.2,0-0.2,0.2-0.2,0.4C51.2,131.9,51.3,132,51.5,132z"/>
		<path id="XMLID_20364_" class="st3" d="M54.6,126.7C54.6,126.7,54.6,126.7,54.6,126.7l5.8-0.1c0.2,0,0.3-0.3,0.3-0.5
			c0-0.2-0.1-0.5-0.3-0.5c0,0,0,0,0,0l-5.8,0.3c-0.2,0-0.3,0.2-0.3,0.4C54.3,126.5,54.4,126.7,54.6,126.7z"/>
		<path id="XMLID_20363_" class="st3" d="M62.4,113c-0.1,0.2,0,0.3,0.1,0.4l3.6,1.8c0,0,0.1,0,0.1,0c0.1,0,0.2-0.1,0.3-0.2
			c0.1-0.2,0-0.3-0.1-0.4l-3.6-1.8C62.7,112.8,62.5,112.9,62.4,113z"/>
		<path id="XMLID_20362_" class="st3" d="M68,111.8c0,0,0.1,0,0.1,0c0.1,0,0.2-0.1,0.3-0.2c0.1-0.2,0-0.3-0.1-0.4l-3.4-1.8
			c-0.1-0.1-0.3,0-0.4,0.2c-0.1,0.2,0,0.3,0.1,0.4L68,111.8z"/>
		<path id="XMLID_20361_" class="st3" d="M65.5,102.9l5.5,3c0,0,0.1,0,0.1,0c0.1,0,0.2-0.1,0.3-0.2c0.1-0.2,0-0.3-0.1-0.4l-5.5-3
			c-0.1-0.1-0.3,0-0.4,0.1C65.3,102.7,65.4,102.9,65.5,102.9z"/>
		<path id="XMLID_20360_" class="st3" d="M61.6,105.4l7.9,3.5c0,0,0.1,0,0.1,0c0.1,0,0.2-0.1,0.3-0.2c0.1-0.2,0-0.3-0.2-0.4
			l-7.9-3.5c-0.1-0.1-0.3,0-0.4,0.2C61.4,105.2,61.5,105.3,61.6,105.4z"/>
		<path id="XMLID_20359_" class="st3" d="M55.3,122.3l6.5,1.5c0,0,0,0,0.1,0c0.1,0,0.3-0.1,0.3-0.3c0-0.2-0.1-0.3-0.2-0.4l-6.5-1.5
			c-0.2,0-0.3,0.1-0.3,0.2C55.1,122.1,55.2,122.2,55.3,122.3z"/>
		<path id="XMLID_20358_" class="st3" d="M63.3,121.1c0.1,0,0.2-0.1,0.3-0.2c0.1-0.2,0-0.3-0.2-0.4l-4-1.6c-0.1-0.1-0.3,0-0.4,0.2
			c-0.1,0.2,0,0.3,0.2,0.4L63.3,121.1C63.2,121,63.3,121.1,63.3,121.1z"/>
		<path id="XMLID_20357_" class="st3" d="M88.4,77c0,0,0-0.1,0-0.3v-9.3c0-0.2,0-0.3,0-0.3s0,0.1,0,0.3v9.3
			C88.4,76.9,88.4,77,88.4,77z"/>
		<path id="XMLID_20356_" class="st3" d="M80.1,88.5c0.1,0,0.1,0.1,0.2,0.1c0.1,0,0.2,0,0.2-0.1c0.1-0.1,0.1-0.3-0.1-0.4l-5.7-4.6
			c-0.1-0.1-0.3-0.1-0.4,0.1c-0.1,0.1-0.1,0.3,0.1,0.4L80.1,88.5z"/>
		<path id="XMLID_20355_" class="st3" d="M66.1,99.4l6.2,4c0,0,0.1,0,0.1,0c0.1,0,0.2-0.1,0.2-0.2c0.1-0.2,0-0.3-0.1-0.4l-6.2-4
			c-0.1-0.1-0.3,0-0.4,0.1C65.9,99.1,66,99.3,66.1,99.4z"/>
		<path id="XMLID_20354_" class="st3" d="M85.9,77c0,0.1,0.1,0.2,0.3,0.2c0,0,0,0,0.1,0c0.2,0,0.2-0.2,0.2-0.4l-1.8-7.8
			c0-0.2-0.2-0.3-0.3-0.2c-0.2,0-0.2,0.2-0.2,0.4L85.9,77z"/>
		<path id="XMLID_20353_" class="st3" d="M84.4,80.1c0.1,0.1,0.2,0.2,0.3,0.2c0,0,0.1,0,0.1,0c0.1-0.1,0.2-0.3,0.1-0.4L82,74.2
			C82,74,81.8,74,81.7,74c-0.1,0.1-0.2,0.3-0.1,0.4L84.4,80.1z"/>
		<path id="XMLID_20352_" class="st3" d="M78.5,91.5c0.1,0,0.1,0.1,0.2,0.1c0.1,0,0.2,0,0.2-0.1c0.1-0.1,0.1-0.3-0.1-0.4l-4.6-3.6
			c-0.1-0.1-0.3-0.1-0.4,0.1c-0.1,0.1-0.1,0.3,0.1,0.4L78.5,91.5z"/>
		<path id="XMLID_20351_" class="st3" d="M76.7,94.9c0,0,0.1,0.1,0.2,0.1c0.1,0,0.2,0,0.2-0.1c0.1-0.1,0.1-0.3-0.1-0.4L73.9,92
			c-0.1-0.1-0.3-0.1-0.4,0.1c-0.1,0.1-0.1,0.3,0.1,0.4L76.7,94.9z"/>
		<path id="XMLID_20350_" class="st3" d="M68.6,97.1l5.1,3.7c0,0,0.1,0.1,0.2,0.1c0.1,0,0.2-0.1,0.2-0.1c0.1-0.1,0.1-0.3-0.1-0.4
			l-5.1-3.7c-0.1-0.1-0.3-0.1-0.4,0.1C68.4,96.8,68.4,97,68.6,97.1z"/>
		<path id="XMLID_20349_" class="st3" d="M75.2,97.9c0,0,0.1,0.1,0.2,0.1c0.1,0,0.2,0,0.2-0.1c0.1-0.1,0.1-0.3-0.1-0.4l-5.3-4
			c-0.1-0.1-0.3-0.1-0.4,0.1c-0.1,0.1-0.1,0.3,0.1,0.4L75.2,97.9z"/>
		<path id="XMLID_20348_" class="st3" d="M82.9,83c0.1,0.1,0.1,0.1,0.2,0.1c0.1,0,0.1,0,0.2-0.1c0.1-0.1,0.1-0.3,0-0.4l-4.4-5.5
			c-0.1-0.1-0.3-0.1-0.4,0c-0.1,0.1-0.1,0.3,0,0.4L82.9,83z"/>
		<path id="XMLID_20347_" class="st3" d="M81.5,85.7c0.1,0.1,0.1,0.1,0.2,0.1c0.1,0,0.2,0,0.2-0.1c0.1-0.1,0.1-0.3,0-0.4l-3.2-3
			c-0.1-0.1-0.3-0.1-0.4,0c-0.1,0.1-0.1,0.3,0,0.4L81.5,85.7z"/>
		<path id="XMLID_20343_" class="st3" d="M87.1,92.5c0,0.3,0,0.6,0,0.7c-0.1,1.1-0.4,10.2-0.4,10.3c0,0,0,0,0,0c-0.1,0-0.1,0-0.1,0
			c-0.1-1.6-0.6-8.7-0.7-9.7c0-0.1,0-0.1,0-0.3c-0.3-3.4-0.7-6.4-1.9-6.4c0,0,0,0,0,0c-0.3,0-0.5,0-0.7,0.2
			c-1.3,1.5-1.1,7.5-0.7,13.2c0,0.7,0.1,1.2,0.1,1.4c0,1.5,0.1,4.1,0.1,5.4c-0.3-0.3-0.6-0.6-0.7-0.8c0,0,0-0.1,0-0.1
			c0.1-0.7-0.4-2.8-1.1-4.7c-0.8-2-2.5-3-3.2-2.7c-0.7,0.2-0.5,1.1-0.3,1.8c0.1,0.3,0.1,0.5,0.2,0.8c0.1,0.5,0.2,1.6,0.2,2.8
			c0.2,2.4,0.3,4.1,0.5,4.6c0.3,0.6,0.4,3.8,0.3,5.9c-0.3,8,3.3,9.9,4.3,10.3v4.6H63.3l12.4-24c0.1-0.2,0-0.4-0.1-0.5
			c-0.1-0.1-0.3-0.1-0.4,0.1l-12.7,24.3c-0.1,0.1-0.1,0,0,0.1c0.1,0.1,0.1,0,0.2,0h20.3h11.4h19c0.1,0,0.2,0.1,0.2,0
			c0.1-0.1,0.1-0.1,0-0.2l-12.7-24.2c-0.1-0.2-0.3-0.2-0.4-0.1c-0.1,0.1-0.2,0.4-0.1,0.6l12.4,23.9H94.9v-4.4c0-0.2,0.9-0.5,1.3-1
			c1.7-1.7,2-4.5,2.4-9.8c0.1-0.9,0.1-2.3,0.1-3.7c0-1.1,0-2.1,0.1-2.8c0-0.4,0.1-1,0.1-1.6c0.5-6.5,0.8-12.9-1.1-13.1
			c-0.4,0-0.7,0.1-1,0.3c-0.6,0.5-0.8,1.7-1,4.2c-0.2,3.2-0.5,7.2-0.5,7.9c0,0-0.1-0.1-0.1-0.1c-0.1,0-0.1-0.1-0.2-0.1
			c0-0.4,0.2-1.5,0.2-3.1c0-0.2,0-0.4,0-0.7c0.2-5.1,0.2-12.2-1.2-13.9c-0.2-0.3-0.5-0.5-0.8-0.5c0,0,0,0,0,0
			c-1.3,0-1.5,3.1-1.6,6.6c0,0.3,0,0.6,0,0.9c-0.1,2.6-0.6,7.6-0.7,8.8c-0.1,0-0.1,0-0.2,0c0-0.4,0.1-1.3,0.1-2.6c0-0.3,0-0.8,0-1.5
			c0.1-5.7,0.1-11.7-1.3-13.1c-0.2-0.2-0.5-0.4-0.8-0.3C87.1,86.2,87.1,90.3,87.1,92.5z M92.3,94.9c0-0.3,0-0.5,0-0.8
			c0-1.7,0.1-5.8,1-5.8c0,0,0,0,0,0c0.1,0,0.2,0,0.4,0.1c0.9,1.1,1.3,5.5,1,13.2c0,0.3,0,0.5,0,0.7c0,1.3-0.1,2.2-0.2,2.7
			c-0.8-0.5-1.9-1-2.9-1.3C91.7,102.8,92.2,97.6,92.3,94.9z M89.3,86.9c1.3,1.4,1.1,9.5,1.1,12.6c0,0.7,0,1.2,0,1.5
			c0,1.3,0,2.1-0.1,2.5c-0.2,0-0.4-0.1-0.6-0.1c-0.2,0-0.3,0.1-0.3,0.3s0.1,0.3,0.3,0.3c1.2,0.1,4,1,5.2,2.1
			c1.2,1.1,1.4,1.4,1.4,1.4c0.1,0.1,0.1,0.1,0.2,0.1c0.1,0,0.1,0,0.2-0.1c0.1-0.1,0.2-0.3,0.1-0.4c0,0-0.2-0.3-1-1
			c0.1-0.1,0.1-0.1,0.1-0.2c0,0,0.3-4.4,0.5-8c0.1-2.2,0.4-3.4,0.8-3.8c0.1-0.1,0.3-0.2,0.6-0.2c1.5,0.1,0.8,9.4,0.6,12.4
			c0,0.7-0.1,1.2-0.1,1.7c0,0.7-0.1,1.8-0.1,2.9c0,1.4-0.1,2.8-0.1,3.7c-0.4,5.2-0.7,7.8-2.2,9.3c-2,2-4.5,1.1-4.6,1
			c-0.1-0.1-0.3,0-0.4,0.2c-0.1,0.2,0,0.3,0.2,0.4c0.1,0,0.6,0.3,1.6,0.3c0.4,0,1.3-0.1,1.3-0.2v4.2H83.7V125c0-0.1-0.2-0.3-0.4-0.3
			c-0.2,0-4.4-1.2-4.1-9.7c0-0.1,0.1-5.2-0.4-6.2c-0.2-0.4-0.4-2.6-0.5-4.3c-0.1-1.3-0.2-2.3-0.2-2.9c0-0.3-0.1-0.6-0.2-0.8
			c-0.1-0.6-0.2-1-0.1-1c0.4-0.2,1.9,0.6,2.5,2.4c0.7,1.9,1.1,3.8,1.1,4.4c0,0.1,0,0.1,0,0.2c-0.1,0.5-0.3,0.9-0.3,0.9
			c-0.1,0.2,0,0.3,0.1,0.4c0.1,0.1,0.3,0,0.4-0.1c0,0,0.1-0.3,0.2-0.6c0.5,0.5,1.5,1.6,1.9,2.5c0.6,1.2,0.7,2.4,0.7,2.4
			c0,0.1,0.1,0.2,0.2,0.3c0,0,2.9,1.2,3.6,4.4c0,0.1,0.1,0.2,0.3,0.2c0,0,0,0,0.1,0c0.2,0,0.2-0.2,0.2-0.4c-0.7-3.2-3.2-4.5-3.8-4.8
			c-0.1-0.4-0.2-1.4-0.7-2.5c-0.2-0.5-0.6-1-1-1.4c0-0.3-0.1-4.2-0.1-6.1c0-0.3,0-0.8-0.1-1.5c-0.2-3.1-0.7-11.4,0.6-12.9
			c0.1-0.2,0.3-0.3,0.3-0.3c0,0,0,0,0,0c0.8,0,1.2,4.3,1.3,6.1c0,0.2,0,0.4,0,0.5c0.1,1,0.7,8.7,0.7,9.9c-0.8,0.3-1.5,0.7-1.5,0.7
			c-0.1,0.1-0.2,0.3-0.1,0.4c0.1,0.1,0.2,0.2,0.3,0.2c0,0,0.1,0,0.1,0c0,0,1.8-1,3.1-1.1c0.2,0,0.3-0.2,0.3-0.3
			c0-0.2-0.1-0.3-0.3-0.3c-0.2,0-0.3,0-0.5,0.1c0-1.1,0.3-9.2,0.4-10.2c0-0.2,0-0.4,0-0.8c0-1.6,0-5.7,1.3-5.8
			C89,86.7,89.1,86.7,89.3,86.9z"/>
		<path id="XMLID_20342_" class="st3" d="M94.1,97.7c-0.6-0.2-1.3-0.1-1.3-0.1c-0.2,0-0.3,0.2-0.2,0.4c0,0.2,0.2,0.3,0.3,0.3
			c0,0,0.6-0.1,1,0.1c0,0,0.1,0,0.1,0c0.1,0,0.2-0.1,0.3-0.2C94.3,97.9,94.2,97.8,94.1,97.7z"/>
		<path id="XMLID_20341_" class="st3" d="M88.1,98c0,0.1,0.1,0.2,0.3,0.2c0,0,0,0,0.1,0c0,0,0.6-0.1,1,0c0.2,0,0.3,0,0.4-0.2
			c0-0.2,0-0.3-0.2-0.4c-0.6-0.2-1.3,0-1.3,0C88.2,97.7,88.1,97.8,88.1,98z"/>
		<path id="XMLID_20340_" class="st3" d="M84.7,98.6c0.2,0,0.3-0.1,0.3-0.3c0-0.2-0.1-0.3-0.2-0.4c-0.6-0.1-1.3,0.2-1.3,0.2
			c-0.1,0.1-0.2,0.2-0.2,0.4c0,0.1,0.2,0.2,0.3,0.2c0,0,0.1,0,0.1,0C83.9,98.7,84.4,98.5,84.7,98.6z"/>
		<path id="XMLID_20339_" class="st3" d="M86.1,85.3c0,0,0.1,0,0.1,0c0.1,0,0.2-0.1,0.2-0.2l1.7-3.3l0.6,1.2
			c0.1,0.2,0.3,0.2,0.4,0.1c0.1-0.1,0.2-0.3,0.1-0.4l-0.9-1.7c-0.1-0.2-0.4-0.2-0.5,0l-2,3.7C85.9,85,86,85.2,86.1,85.3z"/>
		<path id="XMLID_20338_" class="st3" d="M76.8,112.2c-0.1-0.1-0.3,0-0.4,0.1l-6.6,12.6c-0.1,0.1-0.1,0.3,0,0.4
			c0.1,0.1,0.1,0.3,0.2,0.3h8.2c0.2,0,0.3-0.3,0.3-0.5c0-0.2-0.1-0.5-0.3-0.5h-7.7l6.3-12.1C77,112.4,77,112.3,76.8,112.2z"/>
		<path id="XMLID_20337_" class="st3" d="M98.1,125.2c0,0.2,0.1,0.5,0.3,0.5h7.9c0.1,0,0.2-0.2,0.2-0.3c0.1-0.1,0.1-0.3,0-0.4
			l-6.2-12c-0.1-0.2-0.3-0.2-0.4-0.1c-0.1,0.1-0.2,0.2-0.1,0.4l6,11.4h-7.4C98.3,124.6,98.1,125,98.1,125.2z"/>
		<path id="XMLID_20305_" class="st3" d="M48.9,25.2c0,0,0,0.1,0,0.1l0.1,0.2c0.1,0.3,0.4,0.4,0.7,0.3c0,0,0.6-0.2,1.6-0.2
			c1,0,2.1,0.2,3,0.5c3,1.1,3.7,3.1,3.8,3.3l2.4,11.7c0,0.2,0.2,0.4,0.3,0.5c0.1,0.1,0.2,0.1,0.3,0.1c0.1,0,0.1,0,0.2,0
			c8.2-2.8,17.5-4.3,27-4.3s18.8,1.5,27,4.3c0.2,0.1,0.4,0,0.5-0.1c0.2-0.1,0.3-0.3,0.3-0.5l2.4-11.7c0.1-0.2,0.8-2.3,3.8-3.3
			c1-0.3,2-0.5,3-0.5c0.9,0,1.6,0.1,1.6,0.2c0.3,0.1,0.6-0.1,0.7-0.4l0.1-0.2c0,0,0-0.1,0-0.1l2.5-7.6c0.1-0.4,0-0.8-0.3-0.9
			c-3.8-1.8-7.8-3.4-11.9-4.7c-0.3-0.1-0.7,0.1-0.8,0.5l-1.9,6.7c-1-0.3-2-0.6-3-0.9l-0.2-0.1l1.2-6.9c0.1-0.4-0.1-0.7-0.5-0.8
			c-4-1-8-1.8-12.1-2.3c-0.3,0-0.7,0.2-0.7,0.6l-1,6.9c-0.9-0.1-1.9-0.2-2.9-0.3l0-7c0-0.4-0.3-0.7-0.6-0.7
			c-2.4-0.2-4.8-0.3-7.1-0.3c-2.3,0-4.7,0.1-7.1,0.3c-0.3,0-0.6,0.3-0.6,0.7l0,7c-1,0.1-1.9,0.2-2.9,0.3l-1-6.9
			c-0.1-0.4-0.4-0.6-0.7-0.6c-4.1,0.5-8.2,1.3-12.1,2.3c-0.3,0.1-0.6,0.5-0.5,0.8l1.2,6.9l-0.2,0.1c-1,0.3-2,0.5-3,0.9l-1.9-6.7
			c-0.1-0.4-0.5-0.6-0.8-0.5c-4.1,1.3-8.1,2.9-11.9,4.7c-0.3,0.2-0.5,0.5-0.3,0.9L48.9,25.2z M58.4,13.6l0.4,1.2
			c-3.6,1.1-7.2,2.5-10.6,4.1l-0.4-1.1C51.2,16.2,54.8,14.8,58.4,13.6z M48.4,19.5c3.4-1.6,6.9-2.9,10.5-4.1l0.3,1.1
			c-3.6,1.2-7.2,2.6-10.5,4.2L48.4,19.5z M91.7,17.2l-1.4,3.4c-0.6-0.3-1-0.5-1.9-0.5v-3.9C90.2,16.3,90.8,16.6,91.7,17.2z
			 M74.3,29.3C74.3,29.3,74.3,29.3,74.3,29.3c0,0,0-0.2,0-0.2c0,0-0.2-0.1-0.2-0.1c2.9-0.5,5.7-0.9,8.5-1.1v3.8
			c-6.6,0.4-12.6,1.3-18.6,3l-0.6-3C67,30.5,70.6,29.3,74.3,29.3z M88.4,20.7c2.6,0,4.7,2.3,4.7,5.2v1.4c0,0,0,0.1,0,0.1
			c0,0.1,0,0.1,0,0.2v8.4C91.2,36,89.9,36,88.4,36c-1.6,0-2.8,0-4.7,0.1v-8.5c0,0,0,0,0-0.1c0,0,0,0,0,0v-1.5
			C83.7,23.1,85.8,20.7,88.4,20.7z M102.5,28.8C102.5,28.8,102.4,28.8,102.5,28.8C102.5,28.8,102.4,28.8,102.5,28.8
			C102.4,28.8,102.4,28.8,102.5,28.8c3.6,0.6,7.1,1.5,10.6,2.6l-0.5,3.2c-6-1.6-12.1-2.6-18.6-3v-3.8C96.8,28,99.7,28.3,102.5,28.8z
			 M94,32.3c1.9,0.1,5.2,0.4,7.8,0.8l-0.4,3.8c-2.5-0.4-5.5-0.6-7.4-0.8V32.3z M101.7,36.9l0.5-3.8c3.5,0.5,6.9,1.2,10.3,2.1
			c0,0.1,0.1,0.1,0.2,0.1c0,0,0,0,0.1,0c0,0,0.1,0,0.1,0c1.1,0.3,2.1,0.6,3.1,0.9l-0.8,3.8C110.9,38.7,106.4,37.6,101.7,36.9z
			 M116,35.7c-1-0.3-2-0.6-3-0.9l0.7-3.2c1,0.3,2,0.7,3,1.1L116,35.7z M64,35.4c0,0,0.1,0,0.1,0c0,0,0,0,0.1,0
			c0.1,0,0.1-0.1,0.2-0.1c3.3-0.9,6.8-1.6,10.3-2.1l0.5,3.8c-4.7,0.7-9.2,1.8-13.4,3.2l-0.8-3.8C61.9,36,62.9,35.6,64,35.4z
			 M82.7,36.1c-1.9,0.1-4.9,0.4-7.3,0.8L74.9,33c2.6-0.4,6-0.6,7.9-0.8V36.1z M63.1,31.6l0.7,3.2c-1,0.3-2,0.6-3,0.9l-0.6-3
			C61.1,32.3,62.1,31.9,63.1,31.6z M117.4,29.1C117.4,29.2,117.4,29.2,117.4,29.1l-0.6,2.9c-4.5-1.7-9.2-3-14-3.8l0.5-3.8
			c5,0.9,9.8,2.3,14.3,4.1C117.4,28.9,117.4,29.1,117.4,29.1z M102.3,28.2c-2.8-0.5-5.5-0.8-8.4-1v-1.3c0-1-0.4-1.9-0.8-2.7
			c3.3,0.2,6.5,0.6,9.7,1.1L102.3,28.2z M92.9,22.6l2.2-1.6c0.2,0.6,0.4,1.2,0.5,1.8C94.7,22.7,93.8,22.6,92.9,22.6z M92.4,22.2
			c-0.4-0.5-0.9-0.9-1.4-1.3l1.4-3.4c1,0.7,1.8,1.7,2.4,2.9L92.4,22.2z M88.4,20.1c-0.9,0-1.4,0.2-2,0.5L85,17.2
			c1-0.6,1.4-0.9,3.3-0.9V20.1z M84.3,17.5l1.4,3.4c-0.5,0.3-1,0.8-1.4,1.3l-2.5-1.8C82.4,19.2,83.3,18.2,84.3,17.5z M81.6,20.9
			l2.2,1.6c-0.9,0-1.8,0.1-2.7,0.2C81.2,22.1,81.4,21.5,81.6,20.9z M83.5,23.2c-0.4,0.8-0.8,1.7-0.8,2.7v1.3c-2.8,0.2-5.6,0.5-8.4,1
			l-0.5-3.8C77,23.8,80.2,23.4,83.5,23.2z M73.5,24.4l0.5,3.8c-4.9,0.8-9.5,2.1-14,3.8l-0.6-2.9c0,0,0,0,0,0c0,0-0.1-0.3-0.2-0.6
			C63.7,26.7,68.5,25.3,73.5,24.4z M128.9,17.8l-0.4,1.1c-3.4-1.6-6.9-2.9-10.6-4.1l0.4-1.2C121.9,14.8,125.5,16.2,128.9,17.8z
			 M117.8,15.4c3.6,1.1,7.2,2.5,10.5,4.1l-0.4,1.2c-3.3-1.6-6.8-3-10.5-4.2L117.8,15.4z M111.9,11.8l-0.2,1.3
			c-3.5-0.8-7.1-1.5-10.7-1.9l0.2-1.4C104.8,10.2,108.4,10.9,111.9,11.8z M100.9,11.8c3.6,0.4,7.2,1.1,10.7,1.9l-0.2,1.1
			c-3.5-0.8-7-1.5-10.7-2L100.9,11.8z M81.9,9.1c2.2-0.1,4.3-0.2,6.5-0.2c2.1,0,4.3,0.1,6.5,0.2l0,1.5c-2.2-0.1-4.3-0.2-6.5-0.2
			c-2.1,0-4.3,0.1-6.5,0.2L81.9,9.1z M81.9,11.3c2.2-0.1,4.3-0.2,6.5-0.2c2.1,0,4.3,0.1,6.5,0.2l0,1.1c-2.2-0.1-4.3-0.2-6.5-0.2
			c-2.2,0-4.3,0.1-6.5,0.2L81.9,11.3z M64.8,11.8c3.5-0.9,7.1-1.6,10.8-2l0.2,1.4c-3.6,0.4-7.3,1.1-10.7,1.9L64.8,11.8z M65.1,13.7
			c3.5-0.8,7.1-1.5,10.7-1.9l0.2,1.1c-3.6,0.5-7.2,1.1-10.7,2L65.1,13.7z M61.1,20.8c1.2-0.4,2.3-0.7,3.6-1l0.8-0.2
			c0.3-0.1,0.5-0.5,0.5-0.8l-0.6-3.2c3.5-0.8,7-1.5,10.6-2l0.4,3.1c0.1,0.4,0.4,0.6,0.7,0.6c1.3-0.2,2.6-0.3,4-0.4
			c0.3,0,0.6-0.3,0.6-0.7l0-3.2c2.2-0.1,4.3-0.2,6.5-0.2c2.2,0,4.3,0.1,6.5,0.2l0,3.2c0,0.4,0.3,0.7,0.6,0.7c1.4,0.1,2.7,0.2,4,0.4
			c0.3,0,0.7-0.2,0.7-0.6l0.4-3.1c3.6,0.5,7.2,1.1,10.6,2l-0.6,3.2c-0.1,0.4,0.1,0.7,0.5,0.8l0.8,0.2c1.2,0.3,2.4,0.6,3.6,1
			c0.3,0.1,0.7-0.1,0.8-0.5l0.9-3.1c3.6,1.2,7.1,2.6,10.4,4.2l-1,3c-0.3,0-0.8-0.1-1.3-0.1c-1.2,0-2.3,0.2-3.4,0.6
			c-2.3,0.8-3.5,2.2-4.1,3.1c-6.8-2.7-14.1-4.5-21.8-5.2c-0.6-4.2-3.9-7.2-7.8-7.2c-4,0-7.2,3-7.8,7.2c-7.6,0.7-14.9,2.4-21.7,5.2
			c-0.6-1-1.8-2.3-4.1-3.1c-1.1-0.4-2.2-0.6-3.4-0.6c-0.5,0-1,0-1.3,0.1l-1-3c3.3-1.6,6.8-3,10.4-4.2l0.9,3.1
			C60.5,20.7,60.8,20.9,61.1,20.8z"/>
		<path id="XMLID_20281_" class="st3" d="M174.2,150.5c-0.1-0.3-0.4-0.5-0.7-0.5c-0.3,0-0.5,0.3-0.6,0.7c0,0.1-0.3,5.7-4,9.7
			c-1.7,1.8-4.5,1.9-6.9,2.1c-2.5,0.1-4.8,0.3-5.8,2c-0.4,0.7-0.4,1.2-0.2,1.6c0,0.1,0,0.2,0.1,0.3l4.8,9.8c-1.8,1.2-4,2.1-5.9,2.4
			l-4.7-10.6c-0.1-0.1-0.1-0.2-0.2-0.3c-0.1-0.1-0.2-0.2-0.3-0.3c-1.4-1.4-2.8-1.9-4.3-1.5c-5.2,1.5-9,14.6-9.2,15.5
			c-0.4,1-0.9,2.8-0.2,3.6c0,0,0,0,0,0l1.4,2.7c-13.6,7.8-31.1,12.2-49.1,12.2c-18,0-35.5-4.4-49.1-12.2l1.4-2.7c0,0,0,0,0,0
			c0.7-0.7,0.2-2.5-0.2-3.6c-0.3-0.9-4-14-9.2-15.5c-1.5-0.4-2.9,0.1-4.3,1.5c-0.1,0.1-0.2,0.2-0.3,0.3c-0.1,0.1-0.2,0.2-0.2,0.3
			l-4.7,10.6c-1.9-0.3-4.1-1.3-5.9-2.4l4.8-9.8c0.1-0.1,0.1-0.2,0.1-0.3c0.1-0.4,0.2-0.9-0.2-1.6c-1-1.7-3.4-1.9-5.8-2
			c-2.5-0.1-5.3-0.3-6.9-2.1c-3.8-4-4-9.7-4-9.7c0-0.3-0.2-0.6-0.6-0.7c-0.3,0-0.6,0.2-0.7,0.5c-0.1,0.3-2.1,7.7-1.3,17.8
			c0.5,6.2,3,9.9,3.9,10.9l-2.9,6.5c0,0,0,0,0,0c-0.6,1.4-0.5,3.5,0.3,5c1.4,3,7.7,7.3,12.6,7.3c1,0,2-0.2,2.8-0.6
			c0.9-0.5,1.7-1.3,2.1-1.9c0,0,0-0.1,0.1-0.1l4.2-9.4c1.8,1.7,2.1,2.4,3.5,5.7l-3.7,6.8c-0.1,0.1-0.1,0.2-0.1,0.4
			c-0.1,0.3,0,0.6,0.2,0.8C40,212.6,63.5,220,88.4,220c24.9,0,48.3-7.4,64.3-20.3c0.2-0.2,0.3-0.5,0.2-0.8c0-0.1,0-0.2-0.1-0.4
			l-3.7-6.8c1.4-3.3,1.7-4,3.5-5.7l4.2,9.4c0,0,0,0.1,0.1,0.1c0.4,0.6,1.2,1.4,2.1,1.9c0.8,0.4,1.8,0.6,2.8,0.6
			c4.8,0,11.1-4.3,12.6-7.3c0.7-1.5,0.8-3.6,0.3-5c0,0,0,0,0,0l-2.9-6.5c0.8-1,3.3-4.7,3.9-10.9
			C176.3,158.2,174.3,150.8,174.2,150.5z M158,167.5c1.4,0.3,3.3,0.1,5-0.2c0.8-0.2,1.5,0.1,1.9,0.8c0.7,1,0.7,2.8,0.1,4.1
			c-0.5,1-1.6,2.2-3.1,3.3L158,167.5z M150.1,172.7c0.1-0.4,0.2-0.7,0.3-1.1l3.2,7.1c-0.8,0-1.5-0.2-2.1-0.5
			C149.1,176.9,149.4,175.3,150.1,172.7z M137.6,185.1c0,0,0.1,0,0.1-0.1c3.4-2,4.8-1.7,5.4-1.4c0.2,0.1,0.3,0.2,0.4,0.4
			c-1.5,1.1-3.1,2.1-4.8,3.1L137.6,185.1z M88.4,201.4c10.8,0,21.3-1.5,31.2-4.4c6.9-2.1,13.3-4.8,19-8.1c0.1,0,0.1,0,0.2-0.1
			c0,0,0.1-0.1,0.1-0.1c1.8-1.1,3.5-2.2,5.2-3.3l7.5,13.6c-15.8,12.5-38.8,19.6-63.1,19.6c-24.4,0-47.3-7.2-63.1-19.6l7.5-13.6
			c1.7,1.2,3.4,2.3,5.2,3.3c0,0,0.1,0.1,0.1,0.1c0.1,0,0.1,0.1,0.2,0.1c5.7,3.3,12.1,6.1,19,8.1C67,199.9,77.5,201.4,88.4,201.4z
			 M33.2,184c0.1-0.1,0.2-0.2,0.3-0.3c0.5-0.3,2-0.6,5.4,1.4c0,0,0.1,0,0.1,0.1l-1,2C36.4,186.1,34.8,185.1,33.2,184z M26.3,171.6
			c0.1,0.4,0.2,0.7,0.3,1.1c0.7,2.6,1,4.3-1.3,5.5c-0.6,0.3-1.4,0.5-2.1,0.5L26.3,171.6z M11.6,172.2c-0.6-1.3-0.6-3.1,0.1-4.1
			c0.4-0.7,1.1-1,1.9-0.8c1.7,0.3,3.6,0.5,5,0.2l-3.9,8C13.3,174.3,12.1,173.2,11.6,172.2z M2.5,168.2c-0.5-5.9,0-10.9,0.5-14
			c0.6,2.1,1.7,4.9,3.8,7.2c2,2.1,5.1,2.3,7.8,2.5c2.1,0.1,4.1,0.2,4.8,1.4c0,0.1,0.1,0.2,0.1,0.3c-0.1,0.2-1.6,1.1-5.7,0.3
			c-1.2-0.2-2.3,0.2-3.1,1.2c-0.2,0.1-0.3,0.2-0.4,0.4l-4.7,10.5C4.8,176.5,2.9,173.3,2.5,168.2z M18.8,194.8
			c-0.3,0.5-1,1.1-1.6,1.4c-4,2.1-12.2-3-13.7-6c-0.5-1.1-0.6-2.7-0.2-3.8l6.7-14.9c0.1,0.5,0.3,0.9,0.5,1.4
			c1.7,3.6,10.3,9,15.1,6.8l-2.2,4.8c0,0,0,0,0,0c-0.1,0.1-0.1,0.2-0.1,0.4L18.8,194.8z M24.7,184.8l3.4-7.6c0-0.1,0.1-0.2,0.1-0.3
			c0.5-1.5,0-3.2-0.4-4.6c-0.5-1.8-0.7-3,0-3.7c1-1.1,2-1.4,3.1-1.1c1.9,0.5,3.9,3.2,5.9,7.7c1.5,3.5,2.5,6.9,2.5,6.9c0,0,0,0,0,0.1
			c0.2,0.7,0.4,1.4,0.5,1.9c0,0-0.1,0-0.1-0.1c-3-1.8-5.3-2.2-6.6-1.4c-0.7,0.4-1,1.2-1.1,1.6c0,0,0,0,0,0l-3.4,6.3
			C27.1,187.4,26.7,186.6,24.7,184.8z M148.3,190.3l-3.4-6.3c0,0,0,0,0,0c-0.1-0.5-0.4-1.2-1.1-1.6c-1.4-0.8-3.6-0.3-6.6,1.4
			c-0.1,0-0.1,0.1-0.1,0.1c0-0.4,0.2-1.2,0.5-1.9c0,0,0,0,0-0.1c0,0,1-3.4,2.5-6.9c2-4.5,4-7.2,5.9-7.7c1-0.3,2.1,0.1,3.1,1.1
			c0.7,0.8,0.5,1.9,0,3.7c-0.4,1.4-0.8,3.1-0.4,4.6c0,0.1,0,0.2,0.1,0.3l3.4,7.6C150,186.6,149.6,187.4,148.3,190.3z M173.2,190.2
			c-1.5,3.1-9.7,8.2-13.7,6c-0.6-0.3-1.2-0.9-1.6-1.4l-4.5-10c0-0.1-0.1-0.3-0.1-0.4c0,0,0,0,0,0l-2.1-4.8c0.8,0.4,1.6,0.5,2.6,0.5
			c4.8,0,11.1-4.3,12.6-7.3c0.2-0.4,0.4-0.9,0.5-1.4l6.7,14.9C173.8,187.5,173.7,189.1,173.2,190.2z M174.2,168.2
			c-0.4,5-2.3,8.3-3.2,9.6l-4.7-10.5c-0.1-0.2-0.2-0.3-0.4-0.4c-0.7-1-1.9-1.4-3.1-1.2c-4.1,0.8-5.5,0-5.7-0.3
			c0-0.1,0.1-0.2,0.1-0.3c0.7-1.1,2.7-1.2,4.8-1.4c2.7-0.2,5.7-0.3,7.8-2.5c2.2-2.3,3.3-5,3.8-7.2
			C174.2,157.3,174.7,162.3,174.2,168.2z"/>
	</g>
</g>
</svg>
