<?xml version="1.0" encoding="utf-8"?>
<!-- Generator: Adobe Illustrator 19.0.0, SVG Export Plug-In . SVG Version: 6.00 Build 0)  -->
<svg version="1.1" baseProfile="basic" id="Слой_1"
	 xmlns="http://www.w3.org/2000/svg" xmlns:xlink="http://www.w3.org/1999/xlink" x="0px" y="0px" viewBox="0 0 256 256"
	 xml:space="preserve">
<g>
	<g>
		<g>
			<g>
				
					<path id="XMLID_37_" fill="none" stroke="#7DBE6D" stroke-width="4" stroke-linecap="round" stroke-linejoin="round" stroke-miterlimit="10" d="
					M109.7,211.4c0,0-43.2,0.5-75.4,30.8"/>
			</g>
		</g>
		<g>
			<g>
				
					<path id="XMLID_36_" fill="none" stroke="#7DBE6D" stroke-width="4" stroke-linecap="round" stroke-linejoin="round" stroke-miterlimit="10" d="
					M146.3,211.4c0,0,43.2,0.5,75.4,30.8"/>
			</g>
		</g>
	</g>
	<g>
		<g>
			
				<path id="XMLID_35_" fill="none" stroke="#7DBE6D" stroke-width="4" stroke-linecap="round" stroke-linejoin="round" stroke-miterlimit="10" d="
				M128,253.9c0,0-3,1.1-4.4-6.9c-1-5.8-2-18-5.5-21.1c-3.5-3-25,14.3-30.1,9.3c-5.3-5.3,20.8-12.7,23.3-26.3
				c1.6-8.5,0.5-36.8-5.6-45.4c-6.1-8.6-33.4-19.7-45.1-20.2c0,0-15.3,7.1-9.2,22.2"/>
			
				<path id="XMLID_34_" fill="none" stroke="#7DBE6D" stroke-width="4" stroke-linecap="round" stroke-linejoin="round" stroke-miterlimit="10" d="
				M128,253.9c0,0,3,1.1,4.4-6.9c1-5.8,2-18,5.5-21.1c3.5-3,25,14.3,30.1,9.3c5.3-5.3-20.8-12.7-23.3-26.3
				c-1.6-8.5-0.5-36.8,5.6-45.4c6.1-8.6,33.4-19.7,45.1-20.2c0,0,2.1,6,9.3,7.9s10.2,1.1,10.2,1.1"/>
			
				<path id="XMLID_33_" fill="none" stroke="#7DBE6D" stroke-width="4" stroke-linecap="round" stroke-linejoin="round" stroke-miterlimit="10" d="
				M136,152.6c-0.2-6.3-0.9-64.5-8-66.5c0,0-22.1,5-37.4-14.6c-12.8-16.4,0-61.9,0-61.9"/>
		</g>
	</g>
	
		<path id="XMLID_32_" fill="none" stroke="#7DBE6D" stroke-width="4" stroke-linecap="round" stroke-linejoin="round" stroke-miterlimit="10" d="
		M74.9,16.3c0,0-14,35.8-8.8,65.8c6.5,37.6,21.2,51.1,27.1,60.5"/>
	
		<path id="XMLID_31_" fill="none" stroke="#7DBE6D" stroke-width="2" stroke-linecap="round" stroke-linejoin="round" stroke-miterlimit="10" d="
		M33.7,66.8c0,0,9.4-3.5,20,2.9S68.9,95,68.9,95"/>
	
		<path id="XMLID_30_" fill="none" stroke="#7DBE6D" stroke-width="4" stroke-linecap="round" stroke-linejoin="round" stroke-miterlimit="10" d="
		M28.4,88c0,0,6.5,17.6,34.1,24.1s45.8-4.8,56.4,11.6c6.2,9.6,8.1,30.6,8.1,30.6"/>
	
		<path id="XMLID_29_" fill="none" stroke="#7DBE6D" stroke-width="4" stroke-linecap="round" stroke-linejoin="round" stroke-miterlimit="10" d="
		M29.9,125.5c0,0,43.6,10.2,60.3,7.1c16.7-3.1,26-12.1,26-12.1"/>
	
		<path id="XMLID_28_" fill="none" stroke="#7DBE6D" stroke-width="4" stroke-linecap="round" stroke-linejoin="round" stroke-miterlimit="10" d="
		M116.4,156.5c0,0-4.4-10.3-23.3-13.8"/>
	
		<path id="XMLID_27_" fill="none" stroke="#7DBE6D" stroke-width="4" stroke-linecap="round" stroke-linejoin="round" stroke-miterlimit="10" d="
		M146.7,151.5c0,0,15-30.8,38-36.1S217.4,57,217.4,57"/>
	
		<path id="XMLID_26_" fill="none" stroke="#7DBE6D" stroke-width="2" stroke-linecap="round" stroke-linejoin="round" stroke-miterlimit="10" d="
		M117.9,2.4c0,0-5.3,24.5-14.3,36.5S85.9,49.8,85.9,49.8"/>
	
		<path id="XMLID_25_" fill="none" stroke="#7DBE6D" stroke-width="4" stroke-linecap="round" stroke-linejoin="round" stroke-miterlimit="10" d="
		M163.5,7.3c0,0-4.8,41.7-0.4,57.6c8.3,29.8,38.1,34.7,38.1,34.7"/>
	
		<path id="XMLID_24_" fill="none" stroke="#7DBE6D" stroke-width="2" stroke-linecap="round" stroke-linejoin="round" stroke-miterlimit="10" d="
		M134.5,116.1c0,0,9.4,3.2,20.7-6.4c9.8-8.3,9-23.7,9-23.7"/>
	
		<path id="XMLID_23_" fill="none" stroke="#7DBE6D" stroke-width="4" stroke-linecap="round" stroke-linejoin="round" stroke-miterlimit="10" d="
		M133.7,2c0,0-3.8,34.3,3.8,46c7.5,11.7,25.6,18.5,25.6,18.5"/>
	
		<path id="XMLID_22_" fill="none" stroke="#7DBE6D" stroke-width="2" stroke-linecap="round" stroke-linejoin="round" stroke-miterlimit="10" d="
		M117.2,45.3c0,0,1.5,2.3,1.5,16.6S113,84.5,113,84.5"/>
	
		<path id="XMLID_21_" fill="none" stroke="#7DBE6D" stroke-width="2" stroke-linecap="round" stroke-linejoin="round" stroke-miterlimit="10" d="
		M189.9,23.1c0,0,7.5,34.3,3.4,50.9c-3.4,13.8-9.4,18.5-9.4,18.5"/>
	
		<path id="XMLID_20_" fill="none" stroke="#7DBE6D" stroke-width="2" stroke-linecap="round" stroke-linejoin="round" stroke-miterlimit="10" d="
		M176.7,148c0,0-0.2-11,12.4-20c8.4-6,39.5-26.1,39.5-26.1"/>
	
		<path id="XMLID_19_" fill="none" stroke="#7DBE6D" stroke-width="4" stroke-linecap="round" stroke-linejoin="round" stroke-miterlimit="10" d="
		M54,33.8c0,0-1.2,9.3,2.3,14.2c3.5,4.9,9.1,5.2,9.1,5.2"/>
	
		<path id="XMLID_18_" fill="none" stroke="#7DBE6D" stroke-width="2" stroke-linecap="round" stroke-linejoin="round" stroke-miterlimit="10" d="
		M103.9,4.8c0,0-1.6,7.8,0.4,15.3s3.9,8.7,3.9,8.7"/>
	
		<path id="XMLID_17_" fill="none" stroke="#7DBE6D" stroke-width="2" stroke-linecap="round" stroke-linejoin="round" stroke-miterlimit="10" d="
		M149.9,3.9c0,0,1.4,17.9-2.5,25.2c-3.9,7.4-12,11.8-12,11.8"/>
	
		<path id="XMLID_16_" fill="none" stroke="#7DBE6D" stroke-width="2" stroke-linecap="round" stroke-linejoin="round" stroke-miterlimit="10" d="
		M107,46.2c0,0-1.2,7,3.7,12.2c4.9,5.2,7.6,6.6,7.6,6.6"/>
	
		<path id="XMLID_15_" fill="none" stroke="#7DBE6D" stroke-width="2" stroke-linecap="round" stroke-linejoin="round" stroke-miterlimit="10" d="
		M113.2,20.2c0,0,9.5,2.3,13.8-6.2"/>
	
		<path id="XMLID_14_" fill="none" stroke="#7DBE6D" stroke-width="2" stroke-linecap="round" stroke-linejoin="round" stroke-miterlimit="10" d="
		M162.3,29.3c0,0,10.1-2.3,14.6-14.2"/>
	
		<path id="XMLID_13_" fill="none" stroke="#7DBE6D" stroke-width="2" stroke-linecap="round" stroke-linejoin="round" stroke-miterlimit="10" d="
		M29.9,79.5c0,0,4.7,5.9,15.6,4.1c10.9-1.8,12.6-9.1,12.6-9.1"/>
	
		<path id="XMLID_12_" fill="none" stroke="#7DBE6D" stroke-width="2" stroke-linecap="round" stroke-linejoin="round" stroke-miterlimit="10" d="
		M27.8,112.1c0,0,8.5,4.1,16.8,3.5s13.5-4.1,13.5-4.1"/>
	
		<path id="XMLID_11_" fill="none" stroke="#7DBE6D" stroke-width="2" stroke-linecap="round" stroke-linejoin="round" stroke-miterlimit="10" d="
		M179.9,27.5c0,0-1.5,8.5,3.5,15.3s10,8.2,10,8.2"/>
	
		<path id="XMLID_10_" fill="none" stroke="#7DBE6D" stroke-width="2" stroke-linecap="round" stroke-linejoin="round" stroke-miterlimit="10" d="
		M204.9,38.3c0,0-2.4,13.5-0.6,22c1.8,8.5,7.1,16.2,7.1,16.2"/>
	
		<path id="XMLID_9_" fill="none" stroke="#7DBE6D" stroke-width="2" stroke-linecap="round" stroke-linejoin="round" stroke-miterlimit="10" d="
		M225.2,81.2c0,0-6.2,8.2-9.7,18.8c-2,5.9-0.9,10.6-0.9,10.6"/>
	
		<path id="XMLID_8_" fill="none" stroke="#7DBE6D" stroke-width="4" stroke-linecap="round" stroke-linejoin="round" stroke-miterlimit="10" d="
		M204.6,151.2c0,0-4.4-9.4,7.4-21.1c6.5-6.4,15-7.1,15-7.1"/>
	
		<path id="XMLID_7_" fill="none" stroke="#7DBE6D" stroke-width="2" stroke-linecap="round" stroke-linejoin="round" stroke-miterlimit="10" d="
		M37,145.3c0,0,7.3-0.1,12.9-4.7c6.2-5,6.2-8.8,6.2-8.8"/>
	
		<path id="XMLID_6_" fill="none" stroke="#7DBE6D" stroke-width="2" stroke-linecap="round" stroke-linejoin="round" stroke-miterlimit="10" d="
		M76.4,77.7c0,0,7.4,14.7,22.6,17.9c15.3,3.2,22.4-8.5,22.4-8.5"/>
	
		<path id="XMLID_5_" fill="none" stroke="#7DBE6D" stroke-width="2" stroke-linecap="round" stroke-linejoin="round" stroke-miterlimit="10" d="
		M129,61c0,0,6.5,6.2,15,6.2c8.5,0,13.2-2.9,13.2-2.9"/>
	
		<path id="XMLID_4_" fill="none" stroke="#7DBE6D" stroke-width="2" stroke-linecap="round" stroke-linejoin="round" stroke-miterlimit="10" d="
		M177.9,55.7c0,0-2.5,7.1,1.8,15.6c5.1,9.9,10.1,10.6,10.1,10.6"/>
	
		<path id="XMLID_3_" fill="none" stroke="#7DBE6D" stroke-width="4" stroke-linecap="round" stroke-linejoin="round" stroke-miterlimit="10" d="
		M199.1,149.2c0,0-4.5,9.2,1.7,21.1"/>
	
		<path id="XMLID_2_" fill="none" stroke="#7DBE6D" stroke-width="2" stroke-linecap="round" stroke-linejoin="round" stroke-miterlimit="10" d="
		M149.2,78.7c0,0-5,10.5-3.6,22.1c1.3,10.3,4.2,12,4.2,12"/>
	
		<path id="XMLID_1_" fill="none" stroke="#7DBE6D" stroke-width="2" stroke-linecap="round" stroke-linejoin="round" stroke-miterlimit="10" d="
		M175.1,95.7c0,0-4.7,4.5-5.2,12.6c-0.5,8.1,1.3,12.8,1.3,12.8"/>
</g>
</svg>
